<svg width="1920" height="352" viewBox="0 0 1920 352" fill="none" xmlns="http://www.w3.org/2000/svg">
<g clip-path="url(#clip0_20354_28421)">
<rect width="1920" height="352" fill="white"/>
<g style="mix-blend-mode:multiply">
<path d="M2075.14 554.287C2075.14 554.287 1183.51 987.161 -379.998 220.894C-379.998 220.894 456.949 1282.63 2062.69 1093.2L2075.14 554.287Z" fill="url(#paint0_radial_20354_28421)"/>
<path d="M2330.57 366.467C2330.57 366.467 1309.47 1414.19 -380 220.808C-380 220.808 969.907 707.227 1847.22 -235.637L2330.57 366.467Z" fill="url(#paint1_radial_20354_28421)"/>
<path d="M1668.18 -122.003C1095.27 1144.95 -379.998 220.195 -379.998 220.195L-345.75 148.325C-345.75 148.325 898.289 575.495 1311.64 -291.867L1668.18 -122.003Z" fill="url(#paint2_radial_20354_28421)"/>
<path d="M1411.78 -333.39C873.717 602.165 -345.69 147.704 -345.69 147.704L-311.442 75.7737C-311.442 75.7737 690.671 367.141 1121.11 -472L1411.8 -333.39H1411.78Z" fill="url(#paint3_radial_20354_28421)"/>
</g>
</g>
<defs>
<radialGradient id="paint0_radial_20354_28421" cx="0" cy="0" r="1" gradientUnits="userSpaceOnUse" gradientTransform="translate(933.743 -916.506) rotate(-154.519) scale(2020.81 1854.02)">
<stop offset="0.5" stop-color="#B0BEC5"/>
<stop offset="1" stop-color="white"/>
</radialGradient>
<radialGradient id="paint1_radial_20354_28421" cx="0" cy="0" r="1" gradientUnits="userSpaceOnUse" gradientTransform="translate(1190.77 -1722.97) rotate(-154.534) scale(2773.96 2543.91)">
<stop offset="0.5" stop-color="#B0BEC5"/>
<stop offset="1" stop-color="white"/>
</radialGradient>
<radialGradient id="paint2_radial_20354_28421" cx="0" cy="0" r="1" gradientUnits="userSpaceOnUse" gradientTransform="translate(473.964 -767.092) rotate(-154.523) scale(1504.81 1380.45)">
<stop offset="0.5" stop-color="#B0BEC5"/>
<stop offset="1" stop-color="white"/>
</radialGradient>
<radialGradient id="paint3_radial_20354_28421" cx="0" cy="0" r="1" gradientUnits="userSpaceOnUse" gradientTransform="translate(569.634 -486.579) rotate(-154.504) scale(1176.11 1079.49)">
<stop stop-color="#CFD8DC"/>
<stop offset="0.29" stop-color="#D7DFE2"/>
<stop offset="0.76" stop-color="#F0F2F4"/>
<stop offset="1" stop-color="white"/>
</radialGradient>
<clipPath id="clip0_20354_28421">
<rect width="1920" height="352" fill="white"/>
</clipPath>
</defs>
</svg>
