<svg width="248" height="186" viewBox="0 0 248 186" fill="none" xmlns="http://www.w3.org/2000/svg">
<rect x="1.10029" y="0.568062" width="245.74" height="184.403" rx="5.01345" fill="white"/>
<rect x="1.10029" y="0.568062" width="245.74" height="184.403" rx="5.01345" stroke="#EBEAEA" stroke-width="0.67714"/>
<path d="M14.1566 21.064L11.8348 12.6921H13.1633L14.7944 19.1754H14.872L16.5685 12.6921H17.8848L19.5812 19.1795H19.6589L21.2859 12.6921H22.6185L20.2925 21.064H19.0212L17.2593 14.7932H17.1939L15.4321 21.064H14.1566ZM25.6987 21.1907C25.11 21.1907 24.5963 21.0558 24.1576 20.786C23.7188 20.5162 23.3781 20.1387 23.1356 19.6537C22.8931 19.1686 22.7718 18.6017 22.7718 17.9531C22.7718 17.3018 22.8931 16.7322 23.1356 16.2444C23.3781 15.7566 23.7188 15.3778 24.1576 15.108C24.5963 14.8382 25.11 14.7033 25.6987 14.7033C26.2873 14.7033 26.801 14.8382 27.2398 15.108C27.6786 15.3778 28.0192 15.7566 28.2618 16.2444C28.5043 16.7322 28.6256 17.3018 28.6256 17.9531C28.6256 18.6017 28.5043 19.1686 28.2618 19.6537C28.0192 20.1387 27.6786 20.5162 27.2398 20.786C26.801 21.0558 26.2873 21.1907 25.6987 21.1907ZM25.7028 20.1646C26.0843 20.1646 26.4004 20.0638 26.6512 19.8621C26.9019 19.6605 27.0872 19.392 27.2071 19.0568C27.3297 18.7216 27.3911 18.3524 27.3911 17.949C27.3911 17.5484 27.3297 17.1805 27.2071 16.8453C27.0872 16.5074 26.9019 16.2362 26.6512 16.0318C26.4004 15.8274 26.0843 15.7252 25.7028 15.7252C25.3185 15.7252 24.9997 15.8274 24.7462 16.0318C24.4955 16.2362 24.3088 16.5074 24.1862 16.8453C24.0663 17.1805 24.0063 17.5484 24.0063 17.949C24.0063 18.3524 24.0663 18.7216 24.1862 19.0568C24.3088 19.392 24.4955 19.6605 24.7462 19.8621C24.9997 20.0638 25.3185 20.1646 25.7028 20.1646ZM29.9899 21.064V14.785H31.1713V15.7825H31.2367C31.3512 15.4445 31.5528 15.1788 31.8417 14.9853C32.1333 14.7891 32.463 14.691 32.831 14.691C32.9073 14.691 32.9972 14.6937 33.1008 14.6992C33.207 14.7046 33.2902 14.7115 33.3501 14.7196V15.8888C33.3011 15.8751 33.2138 15.8601 33.0885 15.8438C32.9631 15.8247 32.8378 15.8152 32.7124 15.8152C32.4235 15.8152 32.166 15.8765 31.9398 15.9991C31.7163 16.119 31.5392 16.2866 31.4084 16.5019C31.2776 16.7145 31.2122 16.957 31.2122 17.2296V21.064H29.9899ZM35.532 18.9342L35.5238 17.4421H35.7364L38.2382 14.785H39.7016L36.8483 17.81H36.6562L35.532 18.9342ZM34.4078 21.064V12.6921H35.6301V21.064H34.4078ZM38.3731 21.064L36.1247 18.0798L36.9668 17.2255L39.8733 21.064H38.3731ZM43.2018 21.1907C42.6132 21.1907 42.0995 21.0558 41.6607 20.786C41.2219 20.5162 40.8813 20.1387 40.6387 19.6537C40.3962 19.1686 40.2749 18.6017 40.2749 17.9531C40.2749 17.3018 40.3962 16.7322 40.6387 16.2444C40.8813 15.7566 41.2219 15.3778 41.6607 15.108C42.0995 14.8382 42.6132 14.7033 43.2018 14.7033C43.7905 14.7033 44.3042 14.8382 44.7429 15.108C45.1817 15.3778 45.5224 15.7566 45.7649 16.2444C46.0074 16.7322 46.1287 17.3018 46.1287 17.9531C46.1287 18.6017 46.0074 19.1686 45.7649 19.6537C45.5224 20.1387 45.1817 20.5162 44.7429 20.786C44.3042 21.0558 43.7905 21.1907 43.2018 21.1907ZM43.2059 20.1646C43.5874 20.1646 43.9036 20.0638 44.1543 19.8621C44.405 19.6605 44.5903 19.392 44.7102 19.0568C44.8329 18.7216 44.8942 18.3524 44.8942 17.949C44.8942 17.5484 44.8329 17.1805 44.7102 16.8453C44.5903 16.5074 44.405 16.2362 44.1543 16.0318C43.9036 15.8274 43.5874 15.7252 43.2059 15.7252C42.8217 15.7252 42.5028 15.8274 42.2494 16.0318C41.9986 16.2362 41.812 16.5074 41.6893 16.8453C41.5694 17.1805 41.5095 17.5484 41.5095 17.949C41.5095 18.3524 41.5694 18.7216 41.6893 19.0568C41.812 19.392 41.9986 19.6605 42.2494 19.8621C42.5028 20.0638 42.8217 20.1646 43.2059 20.1646ZM51.4705 18.46V14.785H52.6969V21.064H51.495V19.9766H51.4296C51.2852 20.3118 51.0536 20.5911 50.7347 20.8146C50.4186 21.0353 50.0248 21.1457 49.5533 21.1457C49.15 21.1457 48.793 21.0572 48.4823 20.88C48.1743 20.7001 47.9318 20.4344 47.7547 20.0829C47.5802 19.7313 47.493 19.2967 47.493 18.7789V14.785H48.7153V18.6317C48.7153 19.0596 48.8339 19.4002 49.0709 19.6537C49.308 19.9071 49.616 20.0338 49.9948 20.0338C50.2237 20.0338 50.4513 19.9766 50.6775 19.8621C50.9064 19.7477 51.0958 19.5746 51.2457 19.343C51.3983 19.1113 51.4732 18.817 51.4705 18.46ZM57.2701 14.785V15.7661H53.8404V14.785H57.2701ZM54.7602 13.2807H55.9825V19.2203C55.9825 19.4574 56.0179 19.6359 56.0888 19.7559C56.1596 19.873 56.2509 19.9534 56.3626 19.997C56.4771 20.0379 56.6011 20.0584 56.7346 20.0584C56.8327 20.0584 56.9186 20.0515 56.9922 20.0379C57.0658 20.0243 57.123 20.0134 57.1639 20.0052L57.3846 21.0149C57.3137 21.0422 57.2129 21.0694 57.0821 21.0967C56.9513 21.1266 56.7878 21.143 56.5916 21.1457C56.27 21.1512 55.9702 21.0939 55.6922 20.974C55.4143 20.8541 55.1894 20.6688 55.0177 20.4181C54.8461 20.1674 54.7602 19.8526 54.7602 19.4738V13.2807Z" fill="black"/>
<path d="M12.4325 31.5864H13.429L15.7721 37.3094H15.8529L18.1959 31.5864H19.1924V38.481H18.4114V33.2427H18.344L16.1895 38.481H15.4354L13.2809 33.2427H13.2136V38.481H12.4325V31.5864ZM20.7586 38.481V33.3101H21.5531V38.481H20.7586ZM21.1626 32.4483C21.0078 32.4483 20.8742 32.3955 20.762 32.29C20.652 32.1845 20.5971 32.0577 20.5971 31.9096C20.5971 31.7615 20.652 31.6347 20.762 31.5292C20.8742 31.4237 21.0078 31.371 21.1626 31.371C21.3175 31.371 21.4499 31.4237 21.5599 31.5292C21.6721 31.6347 21.7282 31.7615 21.7282 31.9096C21.7282 32.0577 21.6721 32.1845 21.5599 32.29C21.4499 32.3955 21.3175 32.4483 21.1626 32.4483ZM23.8028 35.3703V38.481H23.0083V33.3101H23.7758V34.118H23.8432C23.9644 33.8554 24.1484 33.6445 24.3953 33.4851C24.6421 33.3235 24.9608 33.2427 25.3513 33.2427C25.7015 33.2427 26.0078 33.3146 26.2704 33.4582C26.533 33.5996 26.7372 33.815 26.8831 34.1046C27.029 34.3918 27.1019 34.7554 27.1019 35.1953V38.481H26.3074V35.2492C26.3074 34.8429 26.2019 34.5265 25.991 34.2998C25.78 34.0709 25.4905 33.9564 25.1224 33.9564C24.8688 33.9564 24.6421 34.0114 24.4424 34.1214C24.2449 34.2314 24.0889 34.3918 23.9745 34.6028C23.86 34.8138 23.8028 35.0696 23.8028 35.3703ZM31.8124 36.3668V33.3101H32.6069V38.481H31.8124V37.6057H31.7586C31.6374 37.8683 31.4488 38.0916 31.193 38.2756C30.9371 38.4574 30.614 38.5483 30.2235 38.5483C29.9003 38.5483 29.613 38.4776 29.3616 38.3362C29.1103 38.1926 28.9128 37.9771 28.7691 37.6898C28.6255 37.4003 28.5537 37.0356 28.5537 36.5957V33.3101H29.3482V36.5419C29.3482 36.9189 29.4537 37.2197 29.6646 37.4441C29.8778 37.6685 30.1494 37.7807 30.4793 37.7807C30.6768 37.7807 30.8777 37.7302 31.0819 37.6292C31.2884 37.5282 31.4612 37.3734 31.6003 37.1647C31.7417 36.9559 31.8124 36.69 31.8124 36.3668ZM36.3109 33.3101V33.9834H33.6312V33.3101H36.3109ZM34.4122 32.0712H35.2067V36.9997C35.2067 37.2241 35.2392 37.3925 35.3043 37.5047C35.3716 37.6147 35.4569 37.6887 35.5601 37.7269C35.6656 37.7628 35.7767 37.7807 35.8934 37.7807C35.9809 37.7807 36.0528 37.7762 36.1089 37.7673C36.165 37.756 36.2099 37.7471 36.2435 37.7403L36.4051 38.454C36.3513 38.4742 36.2761 38.4944 36.1796 38.5146C36.0831 38.5371 35.9607 38.5483 35.8126 38.5483C35.5882 38.5483 35.3683 38.5 35.1528 38.4035C34.9396 38.307 34.7623 38.16 34.6209 37.9625C34.4817 37.765 34.4122 37.5159 34.4122 37.2152V32.0712ZM39.6184 38.5887C39.1202 38.5887 38.6904 38.4787 38.3291 38.2588C37.97 38.0366 37.6928 37.7269 37.4975 37.3296C37.3045 36.9301 37.208 36.4656 37.208 35.9359C37.208 35.4063 37.3045 34.9394 37.4975 34.5355C37.6928 34.1292 37.9644 33.8128 38.3122 33.5861C38.6623 33.3572 39.0708 33.2427 39.5376 33.2427C39.8069 33.2427 40.0729 33.2876 40.3355 33.3774C40.5981 33.4672 40.8371 33.6131 41.0525 33.815C41.268 34.0148 41.4397 34.2796 41.5676 34.6095C41.6955 34.9394 41.7595 35.3457 41.7595 35.8282V36.1648H37.7736V35.4781H40.9515C40.9515 35.1863 40.8932 34.926 40.7765 34.6971C40.662 34.4681 40.4982 34.2875 40.285 34.1551C40.074 34.0226 39.8249 33.9564 39.5376 33.9564C39.2212 33.9564 38.9474 34.035 38.7162 34.1921C38.4873 34.3469 38.3111 34.5489 38.1877 34.798C38.0642 35.0472 38.0025 35.3142 38.0025 35.5993V36.0571C38.0025 36.4476 38.0698 36.7786 38.2045 37.0502C38.3414 37.3195 38.531 37.5249 38.7734 37.6663C39.0158 37.8054 39.2975 37.875 39.6184 37.875C39.8271 37.875 40.0157 37.8458 40.184 37.7875C40.3545 37.7269 40.5015 37.6371 40.625 37.5181C40.7484 37.397 40.8438 37.2466 40.9111 37.067L41.6787 37.2825C41.5979 37.5428 41.4621 37.7718 41.2713 37.9693C41.0806 38.1645 40.8449 38.3171 40.5644 38.4271C40.2838 38.5348 39.9685 38.5887 39.6184 38.5887ZM46.6308 34.4681L45.9171 34.6701C45.8722 34.5512 45.806 34.4356 45.7184 34.3234C45.6332 34.2089 45.5165 34.1147 45.3683 34.0406C45.2202 33.9665 45.0306 33.9295 44.7994 33.9295C44.4829 33.9295 44.2192 34.0024 44.0083 34.1483C43.7996 34.292 43.6952 34.4749 43.6952 34.6971C43.6952 34.8946 43.767 35.0505 43.9107 35.165C44.0543 35.2795 44.2787 35.3748 44.5839 35.4511L45.3515 35.6397C45.8138 35.7519 46.1583 35.9236 46.385 36.1547C46.6117 36.3837 46.725 36.6788 46.725 37.0401C46.725 37.3364 46.6397 37.6012 46.4692 37.8346C46.3008 38.068 46.0652 38.252 45.7622 38.3867C45.4592 38.5214 45.1069 38.5887 44.7051 38.5887C44.1777 38.5887 43.7412 38.4742 43.3956 38.2453C43.05 38.0164 42.8311 37.682 42.7391 37.2421L43.4932 37.0536C43.565 37.3319 43.7008 37.5406 43.9006 37.6797C44.1025 37.8189 44.3662 37.8885 44.6917 37.8885C45.062 37.8885 45.356 37.8099 45.5737 37.6528C45.7936 37.4935 45.9036 37.3027 45.9036 37.0805C45.9036 36.901 45.8408 36.7506 45.7151 36.6294C45.5894 36.506 45.3964 36.4139 45.136 36.3534L44.2742 36.1514C43.8007 36.0391 43.4528 35.8652 43.2306 35.6296C43.0107 35.3917 42.9007 35.0943 42.9007 34.7375C42.9007 34.4457 42.9826 34.1876 43.1465 33.9632C43.3125 33.7387 43.5381 33.5626 43.8231 33.4346C44.1104 33.3067 44.4358 33.2427 44.7994 33.2427C45.3111 33.2427 45.7128 33.355 46.0046 33.5794C46.2986 33.8038 46.5073 34.1001 46.6308 34.4681ZM50.3583 31.2633L48.1364 39.5178H47.4092L49.6311 31.2633H50.3583ZM55.9188 38.5887C55.4879 38.5887 55.1075 38.4798 54.7776 38.2621C54.4477 38.0422 54.1896 37.7325 54.0033 37.333C53.817 36.9313 53.7239 36.4566 53.7239 35.909C53.7239 35.3659 53.817 34.8946 54.0033 34.4951C54.1896 34.0956 54.4488 33.787 54.781 33.5693C55.1131 33.3516 55.4969 33.2427 55.9323 33.2427C56.2689 33.2427 56.5349 33.2988 56.7301 33.4111C56.9276 33.521 57.078 33.6467 57.1812 33.7881C57.2867 33.9273 57.3686 34.0417 57.427 34.1315H57.4943V31.5864H58.2888V38.481H57.5213V37.6865H57.427C57.3686 37.7807 57.2856 37.8997 57.1779 38.0433C57.0702 38.1847 56.9164 38.3115 56.7167 38.4237C56.5169 38.5337 56.251 38.5887 55.9188 38.5887ZM56.0266 37.875C56.3452 37.875 56.6146 37.792 56.8345 37.6259C57.0544 37.4576 57.2216 37.2253 57.3361 36.929C57.4506 36.6305 57.5078 36.286 57.5078 35.8955C57.5078 35.5095 57.4517 35.1717 57.3395 34.8822C57.2273 34.5904 57.0612 34.3638 56.8412 34.2022C56.6213 34.0383 56.3497 33.9564 56.0266 33.9564C55.6899 33.9564 55.4094 34.0428 55.1849 34.2156C54.9627 34.3862 54.7955 34.6185 54.6833 34.9125C54.5734 35.2043 54.5184 35.5319 54.5184 35.8955C54.5184 36.2636 54.5745 36.598 54.6867 36.8987C54.8012 37.1972 54.9695 37.4351 55.1917 37.6124C55.4161 37.7875 55.6944 37.875 56.0266 37.875ZM61.3759 38.6021C61.0482 38.6021 60.7508 38.5404 60.4837 38.417C60.2167 38.2913 60.0046 38.1106 59.8475 37.875C59.6904 37.6371 59.6118 37.3498 59.6118 37.0132C59.6118 36.7169 59.6702 36.4768 59.7869 36.2928C59.9036 36.1065 60.0596 35.9606 60.2548 35.8551C60.4501 35.7496 60.6655 35.6711 60.9012 35.6195C61.1391 35.5656 61.3781 35.523 61.6182 35.4915C61.9324 35.4511 62.1872 35.4208 62.3824 35.4006C62.5799 35.3782 62.7236 35.3412 62.8133 35.2896C62.9054 35.2379 62.9514 35.1482 62.9514 35.0202V34.9933C62.9514 34.6611 62.8605 34.403 62.6787 34.219C62.4991 34.035 62.2265 33.943 61.8606 33.943C61.4813 33.943 61.184 34.026 60.9685 34.1921C60.7531 34.3582 60.6016 34.5355 60.514 34.724L59.76 34.4547C59.8946 34.1405 60.0742 33.8958 60.2986 33.7208C60.5253 33.5435 60.7721 33.42 61.0392 33.3505C61.3085 33.2786 61.5734 33.2427 61.8337 33.2427C61.9998 33.2427 62.1905 33.2629 62.406 33.3033C62.6237 33.3415 62.8335 33.4212 63.0355 33.5424C63.2398 33.6635 63.4092 33.8465 63.5439 34.0911C63.6785 34.3357 63.7459 34.6634 63.7459 35.0741V38.481H62.9514V37.7807H62.911C62.8571 37.8929 62.7673 38.013 62.6417 38.1409C62.516 38.2689 62.3488 38.3777 62.14 38.4675C61.9313 38.5573 61.6766 38.6021 61.3759 38.6021ZM61.4971 37.8885C61.8113 37.8885 62.0761 37.8267 62.2915 37.7033C62.5092 37.5799 62.6731 37.4205 62.783 37.2253C62.8953 37.03 62.9514 36.8247 62.9514 36.6092V35.882C62.9177 35.9224 62.8436 35.9595 62.7292 35.9931C62.617 36.0246 62.4868 36.0526 62.3387 36.0773C62.1928 36.0997 62.0503 36.1199 61.9111 36.1379C61.7742 36.1536 61.6631 36.1671 61.5778 36.1783C61.3714 36.2052 61.1784 36.249 60.9988 36.3096C60.8215 36.3679 60.6779 36.4566 60.5679 36.5755C60.4602 36.6922 60.4063 36.8516 60.4063 37.0536C60.4063 37.3296 60.5084 37.5383 60.7127 37.6797C60.9191 37.8189 61.1806 37.8885 61.4971 37.8885ZM65.5225 40.42C65.3878 40.42 65.2678 40.4088 65.1623 40.3864C65.0568 40.3662 64.9839 40.346 64.9435 40.3258L65.1455 39.6256C65.3385 39.6749 65.509 39.6929 65.6572 39.6794C65.8053 39.666 65.9366 39.5997 66.051 39.4808C66.1677 39.3641 66.2743 39.1744 66.3708 38.9119L66.519 38.5079L64.6068 33.3101H65.4686L66.896 37.4306H66.9499L68.3773 33.3101H69.2391L67.0441 39.235C66.9454 39.5021 66.8231 39.7232 66.6772 39.8982C66.5313 40.0755 66.3619 40.2068 66.1689 40.2921C65.9781 40.3774 65.7626 40.42 65.5225 40.42Z" fill="#545C65"/>
<path d="M12.0709 64.5205V63.9318L14.6679 59.8228H15.0949V60.7347H14.8064L12.8442 63.8395V63.8857H16.3415V64.5205H12.0709ZM14.8525 65.7324V64.3416V64.0675V59.8228H15.5335V65.7324H14.8525Z" fill="#545454"/>
<path d="M14.2062 93.0647C13.8253 93.0647 13.4858 92.9993 13.1876 92.8685C12.8913 92.7377 12.6557 92.5559 12.4806 92.3231C12.3075 92.0884 12.2132 91.8162 12.1978 91.5065H12.925C12.9404 91.6969 13.0058 91.8614 13.1212 91.9999C13.2366 92.1365 13.3877 92.2423 13.5743 92.3173C13.7608 92.3924 13.9676 92.4299 14.1946 92.4299C14.4486 92.4299 14.6736 92.3856 14.8699 92.2971C15.0661 92.2086 15.22 92.0855 15.3315 91.9278C15.4431 91.77 15.4989 91.5873 15.4989 91.3795C15.4989 91.1621 15.445 90.9707 15.3373 90.8053C15.2296 90.6379 15.0718 90.5071 14.8641 90.4129C14.6563 90.3186 14.4024 90.2715 14.1023 90.2715H13.6291V89.6367H14.1023C14.337 89.6367 14.5428 89.5943 14.7198 89.5097C14.8987 89.4251 15.0382 89.3058 15.1382 89.1519C15.2402 88.998 15.2911 88.8172 15.2911 88.6094C15.2911 88.4093 15.2469 88.2353 15.1584 88.0871C15.0699 87.939 14.9449 87.8236 14.7833 87.7409C14.6236 87.6581 14.4351 87.6168 14.2177 87.6168C14.0138 87.6168 13.8214 87.6543 13.6406 87.7293C13.4617 87.8024 13.3155 87.9092 13.202 88.0496C13.0885 88.1881 13.027 88.3555 13.0173 88.5517H12.3248C12.3364 88.242 12.4297 87.9707 12.6047 87.738C12.7798 87.5033 13.0087 87.3205 13.2915 87.1897C13.5762 87.0589 13.8888 86.9935 14.2293 86.9935C14.5948 86.9935 14.9083 87.0676 15.17 87.2157C15.4316 87.3619 15.6326 87.5552 15.773 87.7957C15.9135 88.0361 15.9837 88.2958 15.9837 88.5748C15.9837 88.9076 15.8961 89.1913 15.7211 89.426C15.548 89.6607 15.3123 89.8233 15.0141 89.9137V89.9598C15.3873 90.0214 15.6788 90.1801 15.8885 90.436C16.0981 90.6899 16.203 91.0044 16.203 91.3795C16.203 91.7008 16.1154 91.9893 15.9404 92.2452C15.7673 92.4991 15.5306 92.6992 15.2305 92.8454C14.9305 92.9916 14.589 93.0647 14.2062 93.0647Z" fill="#545454"/>
<path d="M12.2094 120.235V119.716L14.16 117.581C14.3889 117.331 14.5775 117.113 14.7256 116.929C14.8737 116.742 14.9834 116.567 15.0545 116.403C15.1276 116.238 15.1642 116.065 15.1642 115.884C15.1642 115.676 15.1142 115.496 15.0141 115.344C14.916 115.192 14.7814 115.075 14.6102 114.992C14.439 114.91 14.2466 114.868 14.0331 114.868C13.8061 114.868 13.6079 114.915 13.4386 115.01C13.2713 115.102 13.1414 115.232 13.0491 115.399C12.9587 115.567 12.9135 115.763 12.9135 115.988H12.2325C12.2325 115.642 12.3123 115.338 12.472 115.076C12.6316 114.814 12.849 114.61 13.1241 114.464C13.4011 114.318 13.7118 114.245 14.0561 114.245C14.4024 114.245 14.7092 114.318 14.9766 114.464C15.244 114.61 15.4537 114.808 15.6057 115.056C15.7576 115.304 15.8336 115.58 15.8336 115.884C15.8336 116.101 15.7942 116.314 15.7153 116.522C15.6384 116.727 15.5037 116.957 15.3113 117.211C15.1209 117.463 14.8564 117.771 14.5178 118.135L13.1905 119.554V119.601H15.9375V120.235H12.2094Z" fill="#545454"/>
<path d="M14.287 141.577V147.486H13.5714V142.327H13.5367L12.094 143.285V142.558L13.5714 141.577H14.287Z" fill="#545454"/>
<rect x="37.0508" y="156.705" width="98.9722" height="8.36385" rx="4.18192" transform="rotate(-90 37.0508 156.705)" fill="white"/>
<rect x="37.0508" y="156.705" width="39.5889" height="8.36385" rx="4.18192" transform="rotate(-90 37.0508 156.705)" fill="black"/>
<rect x="67.5391" y="156.705" width="98.9722" height="8.36385" rx="4.18192" transform="rotate(-90 67.5391 156.705)" fill="white"/>
<rect x="67.5391" y="156.705" width="69.2805" height="8.36385" rx="4.18192" transform="rotate(-90 67.5391 156.705)" fill="black"/>
<rect x="98.0273" y="156.705" width="98.9722" height="8.36385" rx="4.18192" transform="rotate(-90 98.0273 156.705)" fill="white"/>
<rect x="98.0273" y="156.705" width="49.4861" height="8.36385" rx="4.18192" transform="rotate(-90 98.0273 156.705)" fill="black"/>
<rect x="128.516" y="156.705" width="98.9722" height="8.36385" rx="4.18192" transform="rotate(-90 128.516 156.705)" fill="white"/>
<rect x="128.516" y="156.705" width="89.075" height="8.36385" rx="4.18192" transform="rotate(-90 128.516 156.705)" fill="black"/>
<rect x="159.008" y="156.705" width="98.9722" height="8.36385" rx="4.18192" transform="rotate(-90 159.008 156.705)" fill="white"/>
<rect x="159.008" y="156.705" width="69.2805" height="8.36385" rx="4.18192" transform="rotate(-90 159.008 156.705)" fill="black"/>
<rect x="189.496" y="156.705" width="98.9722" height="8.36385" rx="4.18192" transform="rotate(-90 189.496 156.705)" fill="white"/>
<rect x="189.496" y="156.705" width="9.89722" height="8.36385" rx="4.18192" transform="rotate(-90 189.496 156.705)" fill="black"/>
<rect x="219.984" y="156.705" width="98.9722" height="8.36385" rx="4.18192" transform="rotate(-90 219.984 156.705)" fill="white"/>
<rect x="219.984" y="156.705" width="19.7944" height="8.36385" rx="4.18192" transform="rotate(-90 219.984 156.705)" fill="black"/>
<path d="M32.5633 165.566H33.4174L35.4257 170.471H35.495L37.5033 165.566H38.3574V171.476H37.688V166.986H37.6303L35.7835 171.476H35.1372L33.2904 166.986H33.2327V171.476H32.5633V165.566ZM41.5005 171.568C41.1004 171.568 40.7493 171.473 40.4473 171.282C40.1472 171.092 39.9125 170.825 39.7432 170.483C39.5759 170.141 39.4922 169.74 39.4922 169.283C39.4922 168.821 39.5759 168.418 39.7432 168.074C39.9125 167.729 40.1472 167.462 40.4473 167.271C40.7493 167.081 41.1004 166.986 41.5005 166.986C41.9006 166.986 42.2507 167.081 42.5508 167.271C42.8529 167.462 43.0876 167.729 43.2549 168.074C43.4242 168.418 43.5088 168.821 43.5088 169.283C43.5088 169.74 43.4242 170.141 43.2549 170.483C43.0876 170.825 42.8529 171.092 42.5508 171.282C42.2507 171.473 41.9006 171.568 41.5005 171.568ZM41.5005 170.956C41.8044 170.956 42.0545 170.878 42.2507 170.722C42.447 170.567 42.5922 170.362 42.6865 170.108C42.7807 169.854 42.8279 169.579 42.8279 169.283C42.8279 168.986 42.7807 168.71 42.6865 168.454C42.5922 168.199 42.447 167.992 42.2507 167.834C42.0545 167.676 41.8044 167.597 41.5005 167.597C41.1966 167.597 40.9465 167.676 40.7503 167.834C40.554 167.992 40.4088 168.199 40.3145 168.454C40.2203 168.71 40.1732 168.986 40.1732 169.283C40.1732 169.579 40.2203 169.854 40.3145 170.108C40.4088 170.362 40.554 170.567 40.7503 170.722C40.9465 170.878 41.1966 170.956 41.5005 170.956ZM45.2293 168.809V171.476H44.5484V167.043H45.2063V167.736H45.264C45.3678 167.511 45.5256 167.33 45.7372 167.193C45.9488 167.055 46.222 166.986 46.5567 166.986C46.8568 166.986 47.1194 167.047 47.3444 167.17C47.5695 167.292 47.7446 167.476 47.8696 167.724C47.9946 167.971 48.0572 168.282 48.0572 168.659V171.476H47.3762V168.705C47.3762 168.357 47.2858 168.086 47.1049 167.892C46.9241 167.696 46.676 167.597 46.3605 167.597C46.1431 167.597 45.9488 167.645 45.7776 167.739C45.6083 167.833 45.4746 167.971 45.3765 168.151C45.2784 168.332 45.2293 168.552 45.2293 168.809Z" fill="#545454"/>
<path d="M65.9595 166.201V165.566H70.3917V166.201H68.5334V171.476H67.8178V166.201H65.9595ZM73.5939 169.663V167.043H74.2749V171.476H73.5939V170.725H73.5477C73.4438 170.95 73.2823 171.142 73.0629 171.3C72.8436 171.455 72.5666 171.533 72.2319 171.533C71.9549 171.533 71.7087 171.473 71.4932 171.352C71.2778 171.228 71.1085 171.044 70.9854 170.797C70.8622 170.549 70.8007 170.237 70.8007 169.86V167.043H71.4817V169.814C71.4817 170.137 71.5721 170.394 71.7529 170.587C71.9357 170.779 72.1684 170.875 72.4512 170.875C72.6205 170.875 72.7927 170.832 72.9677 170.746C73.1447 170.659 73.2928 170.526 73.4121 170.347C73.5333 170.168 73.5939 169.94 73.5939 169.663ZM77.3804 171.568C76.9534 171.568 76.585 171.474 76.2753 171.285C75.9675 171.095 75.7299 170.829 75.5625 170.489C75.3971 170.146 75.3144 169.748 75.3144 169.294C75.3144 168.84 75.3971 168.44 75.5625 168.094C75.7299 167.746 75.9627 167.474 76.2608 167.28C76.5609 167.084 76.9111 166.986 77.3112 166.986C77.542 166.986 77.77 167.024 77.9951 167.101C78.2201 167.178 78.425 167.303 78.6097 167.476C78.7944 167.647 78.9415 167.874 79.0512 168.157C79.1608 168.44 79.2156 168.788 79.2156 169.202V169.49H75.7992V168.902H78.5231C78.5231 168.652 78.4731 168.428 78.3731 168.232C78.275 168.036 78.1345 167.881 77.9518 167.768C77.7709 167.654 77.5574 167.597 77.3112 167.597C77.0399 167.597 76.8053 167.665 76.6071 167.799C76.4109 167.932 76.2599 168.105 76.1541 168.319C76.0483 168.532 75.9954 168.761 75.9954 169.006V169.398C75.9954 169.733 76.0531 170.016 76.1685 170.249C76.2859 170.48 76.4484 170.656 76.6562 170.777C76.8639 170.897 77.1053 170.956 77.3804 170.956C77.5593 170.956 77.7209 170.931 77.8652 170.881C78.0114 170.829 78.1374 170.752 78.2432 170.65C78.349 170.546 78.4308 170.418 78.4885 170.264L79.1464 170.448C79.0771 170.671 78.9608 170.868 78.7972 171.037C78.6337 171.204 78.4317 171.335 78.1913 171.429C77.9508 171.522 77.6805 171.568 77.3804 171.568Z" fill="#545454"/>
<path d="M98.6023 171.476L96.9864 165.566H97.7135L98.9486 170.379H99.0063L100.264 165.566H101.072L102.33 170.379H102.388L103.623 165.566H104.35L102.734 171.476H101.996L100.691 166.766H100.645L99.341 171.476H98.6023ZM106.595 171.568C106.168 171.568 105.8 171.474 105.49 171.285C105.182 171.095 104.945 170.829 104.777 170.489C104.612 170.146 104.529 169.748 104.529 169.294C104.529 168.84 104.612 168.44 104.777 168.094C104.945 167.746 105.177 167.474 105.476 167.28C105.776 167.084 106.126 166.986 106.526 166.986C106.757 166.986 106.985 167.024 107.21 167.101C107.435 167.178 107.64 167.303 107.824 167.476C108.009 167.647 108.156 167.874 108.266 168.157C108.376 168.44 108.43 168.788 108.43 169.202V169.49H105.014V168.902H107.738C107.738 168.652 107.688 168.428 107.588 168.232C107.49 168.036 107.349 167.881 107.167 167.768C106.986 167.654 106.772 167.597 106.526 167.597C106.255 167.597 106.02 167.665 105.822 167.799C105.626 167.932 105.475 168.105 105.369 168.319C105.263 168.532 105.21 168.761 105.21 169.006V169.398C105.21 169.733 105.268 170.016 105.383 170.249C105.501 170.48 105.663 170.656 105.871 170.777C106.079 170.897 106.32 170.956 106.595 170.956C106.774 170.956 106.936 170.931 107.08 170.881C107.226 170.829 107.352 170.752 107.458 170.65C107.564 170.546 107.646 170.418 107.703 170.264L108.361 170.448C108.292 170.671 108.176 170.868 108.012 171.037C107.849 171.204 107.647 171.335 107.406 171.429C107.166 171.522 106.895 171.568 106.595 171.568ZM111.14 171.568C110.771 171.568 110.445 171.475 110.162 171.288C109.879 171.1 109.658 170.834 109.498 170.492C109.338 170.147 109.259 169.74 109.259 169.271C109.259 168.806 109.338 168.402 109.498 168.059C109.658 167.717 109.88 167.452 110.165 167.266C110.449 167.079 110.778 166.986 111.151 166.986C111.44 166.986 111.668 167.034 111.835 167.13C112.005 167.224 112.134 167.332 112.222 167.453C112.312 167.572 112.383 167.671 112.433 167.747H112.49V165.566H113.171V171.476H112.513V170.795H112.433C112.383 170.875 112.311 170.977 112.219 171.1C112.127 171.222 111.995 171.33 111.824 171.427C111.653 171.521 111.425 171.568 111.14 171.568ZM111.232 170.956C111.505 170.956 111.736 170.885 111.925 170.743C112.113 170.598 112.257 170.399 112.355 170.145C112.453 169.89 112.502 169.594 112.502 169.259C112.502 168.929 112.454 168.639 112.358 168.391C112.261 168.141 112.119 167.947 111.931 167.808C111.742 167.668 111.509 167.597 111.232 167.597C110.944 167.597 110.703 167.671 110.511 167.82C110.32 167.966 110.177 168.165 110.081 168.417C109.987 168.667 109.94 168.948 109.94 169.259C109.94 169.575 109.988 169.862 110.084 170.119C110.182 170.375 110.326 170.579 110.517 170.731C110.709 170.881 110.948 170.956 111.232 170.956Z" fill="#545454"/>
<path d="M131.126 166.201V165.566H135.558V166.201H133.7V171.476H132.984V166.201H131.126ZM137.251 168.809V171.476H136.57V165.566H137.251V167.736H137.309C137.413 167.507 137.569 167.325 137.777 167.191C137.986 167.054 138.265 166.986 138.613 166.986C138.915 166.986 139.18 167.046 139.407 167.167C139.634 167.287 139.81 167.47 139.935 167.719C140.062 167.965 140.125 168.278 140.125 168.659V171.476H139.444V168.705C139.444 168.353 139.353 168.081 139.17 167.889C138.989 167.695 138.738 167.597 138.417 167.597C138.194 167.597 137.994 167.645 137.817 167.739C137.642 167.833 137.503 167.971 137.401 168.151C137.301 168.332 137.251 168.552 137.251 168.809ZM144.164 169.663V167.043H144.845V171.476H144.164V170.725H144.118C144.014 170.95 143.853 171.142 143.634 171.3C143.414 171.455 143.137 171.533 142.802 171.533C142.525 171.533 142.279 171.473 142.064 171.352C141.848 171.228 141.679 171.044 141.556 170.797C141.433 170.549 141.371 170.237 141.371 169.86V167.043H142.052V169.814C142.052 170.137 142.143 170.394 142.323 170.587C142.506 170.779 142.739 170.875 143.022 170.875C143.191 170.875 143.363 170.832 143.538 170.746C143.715 170.659 143.863 170.526 143.983 170.347C144.104 170.168 144.164 169.94 144.164 169.663Z" fill="#545454"/>
<path d="M162.731 171.476V165.566H166.274V166.201H163.446V168.198H166.009V168.832H163.446V171.476H162.731ZM167.36 171.476V167.043H168.018V167.713H168.064C168.145 167.494 168.291 167.316 168.502 167.179C168.714 167.042 168.953 166.974 169.218 166.974C169.268 166.974 169.331 166.975 169.406 166.977C169.481 166.979 169.537 166.982 169.576 166.986V167.678C169.553 167.672 169.5 167.664 169.417 167.652C169.336 167.639 169.251 167.632 169.16 167.632C168.945 167.632 168.753 167.677 168.583 167.768C168.416 167.856 168.283 167.979 168.185 168.137C168.089 168.293 168.041 168.471 168.041 168.671V171.476H167.36ZM170.383 171.476V167.043H171.064V171.476H170.383ZM170.729 166.305C170.597 166.305 170.482 166.259 170.386 166.169C170.292 166.079 170.245 165.97 170.245 165.843C170.245 165.716 170.292 165.607 170.386 165.517C170.482 165.427 170.597 165.381 170.729 165.381C170.862 165.381 170.976 165.427 171.07 165.517C171.166 165.607 171.214 165.716 171.214 165.843C171.214 165.97 171.166 166.079 171.07 166.169C170.976 166.259 170.862 166.305 170.729 166.305Z" fill="#545454"/>
<path d="M192.197 167.043C192.162 166.751 192.022 166.524 191.775 166.362C191.529 166.201 191.227 166.12 190.869 166.12C190.608 166.12 190.379 166.162 190.183 166.247C189.988 166.332 189.836 166.448 189.727 166.596C189.619 166.744 189.565 166.913 189.565 167.101C189.565 167.259 189.603 167.394 189.678 167.508C189.755 167.62 189.853 167.713 189.972 167.788C190.091 167.861 190.216 167.922 190.347 167.97C190.478 168.016 190.598 168.053 190.708 168.082L191.308 168.244C191.462 168.284 191.633 168.34 191.822 168.411C192.012 168.482 192.194 168.579 192.367 168.703C192.542 168.824 192.686 168.98 192.8 169.17C192.913 169.36 192.97 169.594 192.97 169.871C192.97 170.191 192.886 170.479 192.719 170.737C192.554 170.995 192.311 171.2 191.992 171.352C191.674 171.503 191.289 171.579 190.835 171.579C190.412 171.579 190.045 171.511 189.735 171.375C189.428 171.238 189.185 171.048 189.008 170.803C188.833 170.559 188.734 170.275 188.711 169.952H189.45C189.469 170.175 189.544 170.36 189.675 170.506C189.808 170.65 189.975 170.758 190.177 170.829C190.381 170.898 190.6 170.933 190.835 170.933C191.108 170.933 191.353 170.889 191.571 170.8C191.788 170.71 191.96 170.585 192.087 170.425C192.214 170.264 192.278 170.075 192.278 169.86C192.278 169.663 192.223 169.504 192.113 169.381C192.003 169.258 191.859 169.158 191.68 169.081C191.501 169.004 191.308 168.936 191.1 168.879L190.373 168.671C189.911 168.538 189.546 168.349 189.277 168.102C189.007 167.856 188.873 167.534 188.873 167.136C188.873 166.805 188.962 166.516 189.141 166.27C189.322 166.022 189.564 165.83 189.868 165.693C190.174 165.554 190.515 165.485 190.893 165.485C191.273 165.485 191.612 165.553 191.908 165.69C192.204 165.825 192.439 166.009 192.612 166.244C192.787 166.479 192.88 166.745 192.889 167.043H192.197ZM195.359 171.579C195.078 171.579 194.823 171.527 194.594 171.421C194.365 171.313 194.183 171.158 194.049 170.956C193.914 170.752 193.847 170.506 193.847 170.217C193.847 169.964 193.897 169.758 193.997 169.6C194.097 169.44 194.23 169.315 194.398 169.225C194.565 169.134 194.75 169.067 194.952 169.023C195.156 168.977 195.361 168.94 195.566 168.913C195.836 168.879 196.054 168.853 196.221 168.835C196.391 168.816 196.514 168.784 196.591 168.74C196.67 168.696 196.709 168.619 196.709 168.509V168.486C196.709 168.201 196.631 167.98 196.475 167.822C196.321 167.665 196.088 167.586 195.774 167.586C195.449 167.586 195.194 167.657 195.009 167.799C194.825 167.942 194.695 168.094 194.62 168.255L193.974 168.024C194.089 167.755 194.243 167.545 194.435 167.395C194.63 167.243 194.841 167.138 195.07 167.078C195.301 167.016 195.528 166.986 195.751 166.986C195.893 166.986 196.057 167.003 196.242 167.038C196.428 167.07 196.608 167.139 196.781 167.243C196.956 167.346 197.101 167.503 197.217 167.713C197.332 167.923 197.39 168.203 197.39 168.555V171.476H196.709V170.875H196.674C196.628 170.972 196.551 171.074 196.444 171.184C196.336 171.294 196.193 171.387 196.014 171.464C195.835 171.541 195.616 171.579 195.359 171.579ZM195.462 170.968C195.732 170.968 195.959 170.915 196.143 170.809C196.33 170.703 196.47 170.567 196.565 170.399C196.661 170.232 196.709 170.056 196.709 169.871V169.248C196.68 169.283 196.617 169.314 196.519 169.343C196.422 169.37 196.311 169.394 196.184 169.415C196.059 169.435 195.937 169.452 195.817 169.467C195.7 169.481 195.605 169.492 195.532 169.502C195.355 169.525 195.189 169.562 195.035 169.614C194.883 169.664 194.76 169.74 194.666 169.842C194.574 169.942 194.528 170.079 194.528 170.252C194.528 170.489 194.615 170.668 194.79 170.789C194.967 170.908 195.191 170.968 195.462 170.968ZM200.56 167.043V167.621H198.264V167.043H200.56ZM198.933 165.982H199.614V170.206C199.614 170.398 199.642 170.543 199.698 170.639C199.755 170.733 199.829 170.797 199.917 170.829C200.007 170.86 200.103 170.875 200.203 170.875C200.278 170.875 200.339 170.872 200.387 170.864C200.435 170.854 200.474 170.847 200.503 170.841L200.641 171.453C200.595 171.47 200.531 171.487 200.448 171.504C200.365 171.524 200.26 171.533 200.133 171.533C199.941 171.533 199.753 171.492 199.568 171.409C199.385 171.326 199.233 171.2 199.112 171.031C198.993 170.862 198.933 170.648 198.933 170.391V165.982Z" fill="#545454"/>
<path d="M221.647 167.043C221.612 166.751 221.471 166.524 221.225 166.362C220.979 166.201 220.677 166.12 220.319 166.12C220.058 166.12 219.829 166.162 219.632 166.247C219.438 166.332 219.286 166.448 219.176 166.596C219.069 166.744 219.015 166.913 219.015 167.101C219.015 167.259 219.052 167.394 219.127 167.508C219.204 167.62 219.302 167.713 219.422 167.788C219.541 167.861 219.666 167.922 219.797 167.97C219.928 168.016 220.048 168.053 220.158 168.082L220.758 168.244C220.912 168.284 221.083 168.34 221.271 168.411C221.462 168.482 221.644 168.579 221.817 168.703C221.992 168.824 222.136 168.98 222.25 169.17C222.363 169.36 222.42 169.594 222.42 169.871C222.42 170.191 222.336 170.479 222.169 170.737C222.003 170.995 221.761 171.2 221.442 171.352C221.124 171.503 220.739 171.579 220.285 171.579C219.861 171.579 219.495 171.511 219.185 171.375C218.877 171.238 218.635 171.048 218.458 170.803C218.283 170.559 218.184 170.275 218.161 169.952H218.899C218.919 170.175 218.994 170.36 219.125 170.506C219.257 170.65 219.425 170.758 219.627 170.829C219.831 170.898 220.05 170.933 220.285 170.933C220.558 170.933 220.803 170.889 221.02 170.8C221.238 170.71 221.41 170.585 221.537 170.425C221.664 170.264 221.727 170.075 221.727 169.86C221.727 169.663 221.672 169.504 221.563 169.381C221.453 169.258 221.309 169.158 221.13 169.081C220.951 169.004 220.758 168.936 220.55 168.879L219.823 168.671C219.361 168.538 218.996 168.349 218.726 168.102C218.457 167.856 218.322 167.534 218.322 167.136C218.322 166.805 218.412 166.516 218.591 166.27C218.772 166.022 219.014 165.83 219.318 165.693C219.624 165.554 219.965 165.485 220.342 165.485C220.723 165.485 221.062 165.553 221.358 165.69C221.654 165.825 221.889 166.009 222.062 166.244C222.237 166.479 222.329 166.745 222.339 167.043H221.647ZM226.297 169.663V167.043H226.978V171.476H226.297V170.725H226.251C226.147 170.95 225.986 171.142 225.766 171.3C225.547 171.455 225.27 171.533 224.935 171.533C224.658 171.533 224.412 171.473 224.197 171.352C223.981 171.228 223.812 171.044 223.689 170.797C223.566 170.549 223.504 170.237 223.504 169.86V167.043H224.185V169.814C224.185 170.137 224.275 170.394 224.456 170.587C224.639 170.779 224.872 170.875 225.155 170.875C225.324 170.875 225.496 170.832 225.671 170.746C225.848 170.659 225.996 170.526 226.115 170.347C226.237 170.168 226.297 169.94 226.297 169.663ZM228.907 168.809V171.476H228.226V167.043H228.883V167.736H228.941C229.045 167.511 229.203 167.33 229.414 167.193C229.626 167.055 229.899 166.986 230.234 166.986C230.534 166.986 230.797 167.047 231.022 167.17C231.247 167.292 231.422 167.476 231.547 167.724C231.672 167.971 231.734 168.282 231.734 168.659V171.476H231.053V168.705C231.053 168.357 230.963 168.086 230.782 167.892C230.601 167.696 230.353 167.597 230.038 167.597C229.82 167.597 229.626 167.645 229.455 167.739C229.285 167.833 229.152 167.971 229.054 168.151C228.956 168.332 228.907 168.552 228.907 168.809Z" fill="#545454"/>
</svg>
