<svg width="316" height="269" viewBox="0 0 316 269" fill="none" xmlns="http://www.w3.org/2000/svg">
<g filter="url(#filter0_dd_22460_105125)">
<rect x="26" y="13.1323" width="263.709" height="216.842" rx="4.73021" fill="white"/>
<rect x="26.338" y="13.4703" width="263.033" height="216.166" rx="4.39221" stroke="#EBEAEA" stroke-width="0.675993"/>
<path d="M39.3711 33.9482L37.0531 25.5905H38.3794L40.0077 32.0629H40.0852L41.7788 25.5905H43.0929L44.7865 32.0669H44.864L46.4882 25.5905H47.8186L45.4965 33.9482H44.2274L42.4685 27.6881H42.4032L40.6443 33.9482H39.3711ZM50.9548 34.0748C50.3372 34.0748 49.8053 33.9428 49.3591 33.6789C48.9157 33.4123 48.5729 33.0382 48.3307 32.5566C48.0913 32.0724 47.9716 31.5051 47.9716 30.8549C47.9716 30.2128 48.0913 29.6469 48.3307 29.1572C48.5729 28.6675 48.9102 28.2853 49.3428 28.0105C49.7781 27.7357 50.2869 27.5983 50.8691 27.5983C51.2227 27.5983 51.5655 27.6568 51.8975 27.7738C52.2294 27.8908 52.5273 28.0744 52.7912 28.3247C53.0551 28.575 53.2632 28.9001 53.4156 29.3001C53.5679 29.6973 53.6441 30.1802 53.6441 30.7488V31.1814H48.6613V30.2672H52.4484C52.4484 29.9462 52.3831 29.6619 52.2525 29.4143C52.1219 29.164 51.9383 28.9668 51.7016 28.8226C51.4676 28.6784 51.1928 28.6063 50.8772 28.6063C50.5344 28.6063 50.2352 28.6907 49.9794 28.8593C49.7264 29.0253 49.5305 29.2429 49.3918 29.5123C49.2557 29.7789 49.1877 30.0686 49.1877 30.3815V31.0957C49.1877 31.5147 49.2612 31.8711 49.4081 32.1649C49.5577 32.4587 49.7659 32.6832 50.0325 32.8382C50.2991 32.9906 50.6106 33.0668 50.967 33.0668C51.1983 33.0668 51.4091 33.0341 51.5996 32.9688C51.79 32.9008 51.9546 32.8001 52.0933 32.6668C52.2321 32.5335 52.3382 32.3689 52.4117 32.173L53.5666 32.3812C53.4741 32.7212 53.3081 33.0192 53.0687 33.2749C52.832 33.5279 52.5341 33.7252 52.175 33.8666C51.8186 34.0054 51.4118 34.0748 50.9548 34.0748ZM54.9979 33.9482V27.6799H56.2181V33.9482H54.9979ZM55.6142 26.7128C55.402 26.7128 55.2197 26.642 55.0673 26.5006C54.9177 26.3564 54.8429 26.185 54.8429 25.9864C54.8429 25.785 54.9177 25.6136 55.0673 25.4722C55.2197 25.328 55.402 25.2559 55.6142 25.2559C55.8264 25.2559 56.0073 25.328 56.1569 25.4722C56.3093 25.6136 56.3855 25.785 56.3855 25.9864C56.3855 26.185 56.3093 26.3564 56.1569 26.5006C56.0073 26.642 55.8264 26.7128 55.6142 26.7128ZM60.4878 36.4294C59.9899 36.4294 59.5614 36.3641 59.2023 36.2336C58.8459 36.103 58.5548 35.9302 58.329 35.7153C58.1032 35.5004 57.9345 35.265 57.823 35.0093L58.8718 34.5767C58.9452 34.6964 59.0432 34.8229 59.1656 34.9562C59.2907 35.0923 59.4594 35.2079 59.6716 35.3031C59.8866 35.3983 60.1627 35.4459 60.5001 35.4459C60.9626 35.4459 61.3448 35.333 61.6468 35.1072C61.9488 34.8841 62.0998 34.5277 62.0998 34.038V32.8056H62.0222C61.9488 32.9389 61.8427 33.0872 61.7039 33.2504C61.5679 33.4136 61.3802 33.5551 61.1408 33.6748C60.9013 33.7945 60.5898 33.8544 60.2062 33.8544C59.7111 33.8544 59.2649 33.7388 58.8677 33.5075C58.4732 33.2735 58.1603 32.9294 57.9291 32.475C57.7005 32.018 57.5863 31.4562 57.5863 30.7896C57.5863 30.1231 57.6992 29.5517 57.925 29.0756C58.1535 28.5995 58.4664 28.2349 58.8636 27.9819C59.2608 27.7262 59.7111 27.5983 60.2144 27.5983C60.6034 27.5983 60.9177 27.6636 61.1571 27.7942C61.3965 27.9221 61.5829 28.0717 61.7162 28.2431C61.8522 28.4145 61.9569 28.5655 62.0304 28.6961H62.1202V27.6799H63.3159V34.087C63.3159 34.6257 63.1907 35.0678 62.9404 35.4133C62.6901 35.7588 62.3514 36.0146 61.9243 36.1805C61.4999 36.3465 61.021 36.4294 60.4878 36.4294ZM60.4756 32.8423C60.8265 32.8423 61.1231 32.7607 61.3652 32.5975C61.6101 32.4315 61.7951 32.1948 61.9202 31.8874C62.0481 31.5772 62.112 31.2059 62.112 30.7733C62.112 30.3516 62.0494 29.9802 61.9243 29.6592C61.7991 29.3382 61.6155 29.0879 61.3734 28.9083C61.1312 28.726 60.832 28.6349 60.4756 28.6349C60.1083 28.6349 59.8022 28.7301 59.5574 28.9205C59.3125 29.1083 59.1275 29.364 59.0024 29.6878C58.8799 30.0115 58.8187 30.3734 58.8187 30.7733C58.8187 31.1841 58.8813 31.5446 59.0064 31.8547C59.1316 32.1649 59.3166 32.407 59.5614 32.5811C59.809 32.7553 60.1137 32.8423 60.4756 32.8423ZM66.1725 30.2264V33.9482H64.9523V25.5905H66.1562V28.7002H66.2338C66.3807 28.3628 66.6051 28.0948 66.9071 27.8962C67.2091 27.6976 67.6036 27.5983 68.0906 27.5983C68.5204 27.5983 68.8959 27.6867 69.2169 27.8636C69.5407 28.0404 69.791 28.3043 69.9678 28.6553C70.1474 29.0035 70.2371 29.4388 70.2371 29.9612V33.9482H69.0169V30.1081C69.0169 29.6483 68.8986 29.2919 68.6619 29.0389C68.4252 28.7832 68.096 28.6553 67.6743 28.6553C67.3859 28.6553 67.1275 28.7165 66.8989 28.8389C66.6731 28.9614 66.4949 29.1409 66.3643 29.3776C66.2365 29.6116 66.1725 29.8945 66.1725 30.2264ZM74.7914 27.6799V28.6594H71.3676V27.6799H74.7914ZM72.2858 26.1782H73.506V32.1077C73.506 32.3444 73.5413 32.5226 73.6121 32.6423C73.6828 32.7593 73.7739 32.8396 73.8855 32.8831C73.9997 32.9239 74.1235 32.9443 74.2568 32.9443C74.3548 32.9443 74.4405 32.9375 74.5139 32.9239C74.5874 32.9103 74.6445 32.8994 74.6853 32.8913L74.9057 33.8993C74.835 33.9265 74.7343 33.9537 74.6037 33.9809C74.4731 34.0108 74.3099 34.0271 74.114 34.0299C73.793 34.0353 73.4937 33.9782 73.2162 33.8585C72.9387 33.7388 72.7143 33.5538 72.5429 33.3035C72.3715 33.0532 72.2858 32.7389 72.2858 32.3608V26.1782Z" fill="black"/>
<path d="M40.2847 43.4731H41.1182V48.3933C41.1182 48.8324 41.0375 49.2055 40.8762 49.5124C40.7149 49.8194 40.4875 50.0524 40.194 50.2114C39.9005 50.3705 39.5543 50.4501 39.1555 50.4501C38.7791 50.4501 38.4441 50.3817 38.1506 50.2451C37.8571 50.1061 37.6263 49.909 37.4583 49.6536C37.2903 49.3981 37.2063 49.0946 37.2063 48.7428H38.0263C38.0263 48.9377 38.0745 49.108 38.1708 49.2536C38.2694 49.397 38.4038 49.509 38.5741 49.5897C38.7444 49.6704 38.9382 49.7107 39.1555 49.7107C39.3952 49.7107 39.5991 49.6603 39.7672 49.5595C39.9352 49.4586 40.0629 49.3108 40.1503 49.1158C40.2399 48.9187 40.2847 48.6778 40.2847 48.3933V43.4731ZM45.9342 48.2454V45.1938H46.7273V50.356H45.9342V49.4822H45.8804C45.7594 49.7443 45.5712 49.9672 45.3158 50.151C45.0604 50.3324 44.7377 50.4232 44.3479 50.4232C44.0252 50.4232 43.7385 50.3526 43.4875 50.2114C43.2366 50.0681 43.0394 49.853 42.896 49.5662C42.7526 49.2772 42.6809 48.9131 42.6809 48.4739V45.1938H43.4741V48.4202C43.4741 48.7966 43.5794 49.0968 43.79 49.3208C44.0028 49.5449 44.2739 49.6569 44.6033 49.6569C44.8005 49.6569 45.001 49.6065 45.2049 49.5057C45.411 49.4049 45.5835 49.2503 45.7224 49.0419C45.8636 48.8335 45.9342 48.568 45.9342 48.2454ZM48.9731 43.4731V50.356H48.18V43.4731H48.9731ZM50.9366 52.2918C50.8022 52.2918 50.6823 52.2806 50.577 52.2581C50.4717 52.238 50.3989 52.2178 50.3586 52.1977L50.5602 51.4986C50.7529 51.5479 50.9232 51.5658 51.0711 51.5524C51.2189 51.5389 51.35 51.4729 51.4643 51.3541C51.5808 51.2376 51.6872 51.0483 51.7836 50.7861L51.9314 50.3828L50.0225 45.1938H50.8829L52.3078 49.3074H52.3616L53.7866 45.1938H54.6469L52.4557 51.1088C52.3571 51.3754 52.235 51.5961 52.0894 51.7708C51.9438 51.9478 51.7746 52.0789 51.5819 52.164C51.3915 52.2492 51.1764 52.2918 50.9366 52.2918ZM58.3421 50.356V49.751L60.614 47.2641C60.8806 46.9728 61.1001 46.7196 61.2727 46.5045C61.4452 46.2872 61.5729 46.0833 61.6558 45.8929C61.7409 45.7002 61.7835 45.4985 61.7835 45.2879C61.7835 45.046 61.7253 44.8365 61.6087 44.6595C61.4945 44.4825 61.3376 44.3458 61.1382 44.2495C60.9388 44.1531 60.7148 44.1049 60.4661 44.1049C60.2017 44.1049 59.9709 44.1598 59.7738 44.2696C59.5788 44.3772 59.4276 44.5284 59.3201 44.7233C59.2148 44.9182 59.1621 45.1468 59.1621 45.4089H58.369C58.369 45.0056 58.462 44.6516 58.6479 44.3469C58.8339 44.0422 59.0871 43.8047 59.4074 43.6344C59.7301 43.4642 60.0919 43.379 60.493 43.379C60.8963 43.379 61.2536 43.4642 61.5651 43.6344C61.8765 43.8047 62.1207 44.0344 62.2977 44.3234C62.4747 44.6124 62.5632 44.9339 62.5632 45.2879C62.5632 45.5411 62.5173 45.7887 62.4254 46.0307C62.3358 46.2704 62.179 46.5381 61.9549 46.8339C61.7331 47.1274 61.425 47.4859 61.0307 47.9093L59.4847 49.5628V49.6166H62.6842V50.356H58.3421ZM66.3172 50.4501C65.8108 50.4501 65.3795 50.3123 65.0233 50.0367C64.667 49.7589 64.3948 49.3567 64.2066 48.8302C64.0184 48.3014 63.9243 47.6629 63.9243 46.9145C63.9243 46.1707 64.0184 45.5355 64.2066 45.009C64.3971 44.4802 64.6704 44.0769 65.0266 43.7991C65.3851 43.519 65.8153 43.379 66.3172 43.379C66.819 43.379 67.2481 43.519 67.6043 43.7991C67.9628 44.0769 68.2362 44.4802 68.4244 45.009C68.6148 45.5355 68.71 46.1707 68.71 46.9145C68.71 47.6629 68.6159 48.3014 68.4277 48.8302C68.2395 49.3567 67.9673 49.7589 67.6111 50.0367C67.2548 50.3123 66.8235 50.4501 66.3172 50.4501ZM66.3172 49.7107C66.819 49.7107 67.2089 49.4687 67.4867 48.9848C67.7645 48.5008 67.9034 47.8107 67.9034 46.9145C67.9034 46.3186 67.8396 45.8111 67.7119 45.3921C67.5864 44.9731 67.4049 44.6539 67.1674 44.4343C66.9322 44.2147 66.6488 44.1049 66.3172 44.1049C65.8198 44.1049 65.431 44.3503 65.151 44.8409C64.8709 45.3294 64.7309 46.0206 64.7309 46.9145C64.7309 47.5105 64.7936 48.0169 64.9191 48.4336C65.0446 48.8503 65.2249 49.1674 65.4602 49.3847C65.6977 49.602 65.9833 49.7107 66.3172 49.7107ZM69.9871 50.356V49.751L72.259 47.2641C72.5256 46.9728 72.7452 46.7196 72.9177 46.5045C73.0902 46.2872 73.2179 46.0833 73.3008 45.8929C73.386 45.7002 73.4285 45.4985 73.4285 45.2879C73.4285 45.046 73.3703 44.8365 73.2538 44.6595C73.1395 44.4825 72.9827 44.3458 72.7833 44.2495C72.5839 44.1531 72.3598 44.1049 72.1111 44.1049C71.8467 44.1049 71.616 44.1598 71.4188 44.2696C71.2239 44.3772 71.0726 44.5284 70.9651 44.7233C70.8598 44.9182 70.8071 45.1468 70.8071 45.4089H70.014C70.014 45.0056 70.107 44.6516 70.2929 44.3469C70.4789 44.0422 70.7321 43.8047 71.0525 43.6344C71.3751 43.4642 71.737 43.379 72.138 43.379C72.5413 43.379 72.8987 43.4642 73.2101 43.6344C73.5215 43.8047 73.7657 44.0344 73.9427 44.3234C74.1197 44.6124 74.2082 44.9339 74.2082 45.2879C74.2082 45.5411 74.1623 45.7887 74.0704 46.0307C73.9808 46.2704 73.824 46.5381 73.5999 46.8339C73.3781 47.1274 73.0701 47.4859 72.6757 47.9093L71.1298 49.5628V49.6166H74.3292V50.356H69.9871ZM75.408 48.9444V48.2588L78.4327 43.4731H78.9301V44.5351H78.594L76.3087 48.1513V48.2051H80.382V48.9444H75.408ZM78.6478 50.356V48.7361V48.4168V43.4731H79.4409V50.356H78.6478Z" fill="#545C65"/>
<path d="M243.668 32.0601H251.78" stroke="black" stroke-width="1.01399" stroke-linecap="square" stroke-linejoin="round"/>
<path d="M247.727 36.1163V28.0044" stroke="black" stroke-width="1.01399" stroke-linecap="square" stroke-linejoin="round"/>
<path d="M39.3859 72.2525C39.144 72.2487 38.902 72.2026 38.66 72.1143C38.418 72.0259 38.1972 71.8771 37.9975 71.6678C37.7977 71.4565 37.6374 71.1713 37.5164 70.8122C37.3954 70.4512 37.3349 69.9979 37.3349 69.4525C37.3349 68.9302 37.3839 68.4674 37.4818 68.0641C37.5798 67.6589 37.7219 67.318 37.9082 67.0414C38.0945 66.763 38.3191 66.5517 38.5822 66.4077C38.8473 66.2637 39.1459 66.1916 39.4781 66.1916C39.8084 66.1916 40.1023 66.2579 40.3596 66.3904C40.6189 66.521 40.8301 66.7034 40.9934 66.9377C41.1566 67.172 41.2622 67.4418 41.3102 67.7472H40.6073C40.542 67.4822 40.4153 67.2623 40.2271 67.0875C40.0389 66.9128 39.7892 66.8254 39.4781 66.8254C39.0211 66.8254 38.661 67.0241 38.3979 67.4217C38.1367 67.8192 38.0052 68.3771 38.0032 69.0953H38.0493C38.1569 68.9321 38.2846 68.7929 38.4325 68.6776C38.5822 68.5605 38.7474 68.4702 38.9279 68.4069C39.1084 68.3435 39.2995 68.3118 39.5012 68.3118C39.8392 68.3118 40.1484 68.3963 40.4287 68.5653C40.7091 68.7324 40.9338 68.9638 41.1028 69.2595C41.2718 69.5534 41.3563 69.8904 41.3563 70.2706C41.3563 70.6355 41.2747 70.9697 41.1115 71.2731C40.9482 71.5746 40.7187 71.8147 40.423 71.9933C40.1292 72.17 39.7835 72.2564 39.3859 72.2525ZM39.3859 71.6188C39.6279 71.6188 39.8449 71.5583 40.037 71.4373C40.2309 71.3163 40.3836 71.154 40.495 70.9505C40.6083 70.7469 40.665 70.5203 40.665 70.2706C40.665 70.0267 40.6102 69.8049 40.5008 69.6052C40.3932 69.4036 40.2444 69.2432 40.0543 69.1241C39.8661 69.0051 39.651 68.9455 39.409 68.9455C39.2266 68.9455 39.0566 68.982 38.8991 69.055C38.7416 69.1261 38.6034 69.224 38.4843 69.3488C38.3672 69.4737 38.275 69.6167 38.2078 69.7781C38.1405 69.9374 38.1069 70.1055 38.1069 70.2822C38.1069 70.5165 38.1617 70.7354 38.2711 70.939C38.3825 71.1425 38.5342 71.3067 38.7263 71.4315C38.9202 71.5564 39.1401 71.6188 39.3859 71.6188ZM44.4134 72.2525C43.9794 72.2525 43.6097 72.1344 43.3044 71.8982C42.999 71.6601 42.7657 71.3154 42.6044 70.8641C42.443 70.4108 42.3624 69.8635 42.3624 69.2221C42.3624 68.5845 42.443 68.0401 42.6044 67.5888C42.7676 67.1355 43.0019 66.7899 43.3072 66.5517C43.6145 66.3117 43.9832 66.1916 44.4134 66.1916C44.8436 66.1916 45.2113 66.3117 45.5167 66.5517C45.824 66.7899 46.0583 67.1355 46.2196 67.5888C46.3828 68.0401 46.4644 68.5845 46.4644 69.2221C46.4644 69.8635 46.3838 70.4108 46.2225 70.8641C46.0611 71.3154 45.8278 71.6601 45.5225 71.8982C45.2171 72.1344 44.8474 72.2525 44.4134 72.2525ZM44.4134 71.6188C44.8436 71.6188 45.1777 71.4114 45.4159 70.9966C45.654 70.5818 45.7731 69.9903 45.7731 69.2221C45.7731 68.7113 45.7183 68.2763 45.6089 67.9172C45.5013 67.558 45.3458 67.2844 45.1422 67.0962C44.9406 66.908 44.6976 66.8139 44.4134 66.8139C43.9871 66.8139 43.6539 67.0241 43.4138 67.4447C43.1738 67.8634 43.0537 68.4558 43.0537 69.2221C43.0537 69.7329 43.1075 70.1669 43.2151 70.5241C43.3226 70.8813 43.4772 71.1531 43.6788 71.3394C43.8824 71.5256 44.1273 71.6188 44.4134 71.6188Z" fill="#545454"/>
<path d="M39.2707 96.7726C38.9327 96.7726 38.6283 96.7053 38.3576 96.5709C38.0868 96.4365 37.8698 96.2521 37.7065 96.0178C37.5433 95.7835 37.454 95.5166 37.4386 95.217H38.13C38.1569 95.4839 38.2779 95.7048 38.4929 95.8796C38.71 96.0524 38.9692 96.1388 39.2707 96.1388C39.5127 96.1388 39.7278 96.0822 39.916 95.9689C40.1061 95.8555 40.2549 95.7 40.3625 95.5022C40.472 95.3025 40.5267 95.0768 40.5267 94.8252C40.5267 94.5679 40.47 94.3384 40.3567 94.1368C40.2453 93.9332 40.0917 93.7728 39.8958 93.6557C39.6999 93.5385 39.4762 93.479 39.2246 93.4771C39.0441 93.4752 38.8588 93.503 38.6687 93.5606C38.4785 93.6163 38.322 93.6883 38.1991 93.7767L37.5308 93.696L37.888 90.7923H40.953V91.4261H38.4872L38.2798 93.166H38.3143C38.4353 93.07 38.587 92.9903 38.7695 92.9269C38.9519 92.8635 39.1421 92.8318 39.3399 92.8318C39.7009 92.8318 40.0226 92.9182 40.3049 93.0911C40.5891 93.262 40.8119 93.4963 40.9732 93.794C41.1364 94.0916 41.218 94.4315 41.218 94.8137C41.218 95.1901 41.1335 95.5262 40.9645 95.8219C40.7975 96.1158 40.567 96.3481 40.2732 96.5191C39.9794 96.6881 39.6452 96.7726 39.2707 96.7726ZM44.2521 96.7726C43.8565 96.7726 43.507 96.7025 43.2035 96.5623C42.902 96.4202 42.6668 96.2252 42.4978 95.9775C42.3288 95.7278 42.2452 95.4436 42.2472 95.1248C42.2452 94.8752 42.2942 94.6447 42.3941 94.4335C42.4939 94.2203 42.6303 94.0427 42.8031 93.9005C42.9779 93.7565 43.1728 93.6653 43.3879 93.6269V93.5923C43.1056 93.5193 42.8809 93.3609 42.7138 93.117C42.5467 92.8712 42.4642 92.5918 42.4661 92.2787C42.4642 91.9791 42.54 91.7112 42.6937 91.475C42.8473 91.2388 43.0585 91.0525 43.3274 90.9162C43.5982 90.7798 43.9064 90.7117 44.2521 90.7117C44.5939 90.7117 44.8993 90.7798 45.1681 90.9162C45.437 91.0525 45.6482 91.2388 45.8019 91.475C45.9574 91.7112 46.0362 91.9791 46.0381 92.2787C46.0362 92.5918 45.9507 92.8712 45.7817 93.117C45.6146 93.3609 45.3928 93.5193 45.1163 93.5923V93.6269C45.3295 93.6653 45.5215 93.7565 45.6924 93.9005C45.8633 94.0427 45.9997 94.2203 46.1015 94.4335C46.2033 94.6447 46.2551 94.8752 46.257 95.1248C46.2551 95.4436 46.1687 95.7278 45.9978 95.9775C45.8288 96.2252 45.5935 96.4202 45.292 96.5623C44.9924 96.7025 44.6458 96.7726 44.2521 96.7726ZM44.2521 96.1388C44.519 96.1388 44.7495 96.0956 44.9434 96.0092C45.1374 95.9228 45.2872 95.8008 45.3928 95.6433C45.4985 95.4859 45.5522 95.3015 45.5541 95.0903C45.5522 94.8675 45.4946 94.6706 45.3813 94.4997C45.268 94.3288 45.1134 94.1944 44.9175 94.0964C44.7236 93.9985 44.5017 93.9495 44.2521 93.9495C44.0005 93.9495 43.7758 93.9985 43.578 94.0964C43.3821 94.1944 43.2275 94.3288 43.1142 94.4997C43.0028 94.6706 42.9481 94.8675 42.95 95.0903C42.9481 95.3015 42.999 95.4859 43.1027 95.6433C43.2083 95.8008 43.3591 95.9228 43.555 96.0092C43.7509 96.0956 43.9832 96.1388 44.2521 96.1388ZM44.2521 93.3388C44.4633 93.3388 44.6506 93.2966 44.8138 93.2121C44.979 93.1276 45.1086 93.0095 45.2027 92.8577C45.2968 92.706 45.3448 92.5284 45.3467 92.3248C45.3448 92.1251 45.2978 91.9513 45.2056 91.8034C45.1134 91.6536 44.9857 91.5384 44.8225 91.4577C44.6592 91.3752 44.4691 91.3339 44.2521 91.3339C44.0312 91.3339 43.8382 91.3752 43.6731 91.4577C43.5079 91.5384 43.3802 91.6536 43.29 91.8034C43.1997 91.9513 43.1555 92.1251 43.1574 92.3248C43.1555 92.5284 43.2007 92.706 43.2928 92.8577C43.3869 93.0095 43.5166 93.1276 43.6817 93.2121C43.8469 93.2966 44.037 93.3388 44.2521 93.3388Z" fill="#545454"/>
<path d="M39.2707 121.292C38.9327 121.292 38.6283 121.225 38.3576 121.09C38.0868 120.956 37.8698 120.772 37.7065 120.537C37.5433 120.303 37.454 120.036 37.4386 119.737H38.13C38.1569 120.003 38.2779 120.224 38.4929 120.399C38.71 120.572 38.9692 120.658 39.2707 120.658C39.5127 120.658 39.7278 120.602 39.916 120.488C40.1061 120.375 40.2549 120.22 40.3625 120.022C40.472 119.822 40.5267 119.596 40.5267 119.345C40.5267 119.087 40.47 118.858 40.3567 118.656C40.2453 118.453 40.0917 118.292 39.8958 118.175C39.6999 118.058 39.4762 117.999 39.2246 117.997C39.0441 117.995 38.8588 118.023 38.6687 118.08C38.4785 118.136 38.322 118.208 38.1991 118.296L37.5308 118.216L37.888 115.312H40.953V115.946H38.4872L38.2798 117.686H38.3143C38.4353 117.589 38.587 117.51 38.7695 117.446C38.9519 117.383 39.1421 117.351 39.3399 117.351C39.7009 117.351 40.0226 117.438 40.3049 117.611C40.5891 117.782 40.8119 118.016 40.9732 118.313C41.1364 118.611 41.218 118.951 41.218 119.333C41.218 119.71 41.1335 120.046 40.9645 120.341C40.7975 120.635 40.567 120.868 40.2732 121.039C39.9794 121.208 39.6452 121.292 39.2707 121.292ZM44.3212 121.292C44.0793 121.288 43.8373 121.242 43.5953 121.154C43.3533 121.065 43.1325 120.917 42.9328 120.707C42.733 120.496 42.5727 120.211 42.4517 119.852C42.3307 119.491 42.2702 119.037 42.2702 118.492C42.2702 117.97 42.3192 117.507 42.4171 117.104C42.5151 116.698 42.6572 116.358 42.8435 116.081C43.0297 115.803 43.2544 115.591 43.5175 115.447C43.7825 115.303 44.0812 115.231 44.4134 115.231C44.7437 115.231 45.0375 115.297 45.2949 115.43C45.5541 115.561 45.7654 115.743 45.9286 115.977C46.0919 116.212 46.1975 116.481 46.2455 116.787H45.5426C45.4773 116.522 45.3506 116.302 45.1624 116.127C44.9742 115.952 44.7245 115.865 44.4134 115.865C43.9563 115.865 43.5963 116.064 43.3332 116.461C43.072 116.859 42.9404 117.417 42.9385 118.135H42.9846C43.0921 117.972 43.2199 117.832 43.3677 117.717C43.5175 117.6 43.6827 117.51 43.8632 117.446C44.0437 117.383 44.2348 117.351 44.4365 117.351C44.7744 117.351 45.0836 117.436 45.364 117.605C45.6444 117.772 45.8691 118.003 46.0381 118.299C46.2071 118.593 46.2916 118.93 46.2916 119.31C46.2916 119.675 46.21 120.009 46.0467 120.313C45.8835 120.614 45.654 120.854 45.3583 121.033C45.0644 121.21 44.7188 121.296 44.3212 121.292ZM44.3212 120.658C44.5632 120.658 44.7802 120.598 44.9723 120.477C45.1662 120.356 45.3189 120.194 45.4303 119.99C45.5436 119.786 45.6002 119.56 45.6002 119.31C45.6002 119.066 45.5455 118.844 45.436 118.645C45.3285 118.443 45.1797 118.283 44.9895 118.164C44.8013 118.045 44.5862 117.985 44.3443 117.985C44.1618 117.985 43.9919 118.022 43.8344 118.095C43.6769 118.166 43.5386 118.264 43.4196 118.388C43.3024 118.513 43.2103 118.656 43.143 118.818C43.0758 118.977 43.0422 119.145 43.0422 119.322C43.0422 119.556 43.0969 119.775 43.2064 119.979C43.3178 120.182 43.4695 120.346 43.6616 120.471C43.8555 120.596 44.0754 120.658 44.3212 120.658Z" fill="#545454"/>
<path d="M39.2707 145.812C38.9327 145.812 38.6283 145.745 38.3576 145.61C38.0868 145.476 37.8698 145.292 37.7065 145.057C37.5433 144.823 37.454 144.556 37.4386 144.257H38.13C38.1569 144.523 38.2779 144.744 38.4929 144.919C38.71 145.092 38.9692 145.178 39.2707 145.178C39.5127 145.178 39.7278 145.122 39.916 145.008C40.1061 144.895 40.2549 144.74 40.3625 144.542C40.472 144.342 40.5267 144.116 40.5267 143.865C40.5267 143.607 40.47 143.378 40.3567 143.176C40.2453 142.973 40.0917 142.812 39.8958 142.695C39.6999 142.578 39.4762 142.519 39.2246 142.517C39.0441 142.515 38.8588 142.543 38.6687 142.6C38.4785 142.656 38.322 142.728 38.1991 142.816L37.5308 142.736L37.888 139.832H40.953V140.466H38.4872L38.2798 142.206H38.3143C38.4353 142.11 38.587 142.03 38.7695 141.966C38.9519 141.903 39.1421 141.871 39.3399 141.871C39.7009 141.871 40.0226 141.958 40.3049 142.131C40.5891 142.302 40.8119 142.536 40.9732 142.834C41.1364 143.131 41.218 143.471 41.218 143.853C41.218 144.23 41.1335 144.566 40.9645 144.861C40.7975 145.155 40.567 145.388 40.2732 145.559C39.9794 145.728 39.6452 145.812 39.2707 145.812ZM42.2241 144.522V143.934L44.8167 139.832H45.243V140.742H44.955L42.9961 143.842V143.888H46.4875V144.522H42.2241ZM45.0011 145.731V144.343V144.069V139.832H45.6809V145.731H45.0011Z" fill="#545454"/>
<path d="M39.2707 170.332C38.9327 170.332 38.6283 170.265 38.3576 170.13C38.0868 169.996 37.8698 169.812 37.7065 169.577C37.5433 169.343 37.454 169.076 37.4386 168.777H38.13C38.1569 169.044 38.2779 169.264 38.4929 169.439C38.71 169.612 38.9692 169.698 39.2707 169.698C39.5127 169.698 39.7278 169.642 39.916 169.528C40.1061 169.415 40.2549 169.26 40.3625 169.062C40.472 168.862 40.5267 168.636 40.5267 168.385C40.5267 168.127 40.47 167.898 40.3567 167.696C40.2453 167.493 40.0917 167.332 39.8958 167.215C39.6999 167.098 39.4762 167.039 39.2246 167.037C39.0441 167.035 38.8588 167.063 38.6687 167.12C38.4785 167.176 38.322 167.248 38.1991 167.336L37.5308 167.256L37.888 164.352H40.953V164.986H38.4872L38.2798 166.726H38.3143C38.4353 166.63 38.587 166.55 38.7695 166.486C38.9519 166.423 39.1421 166.391 39.3399 166.391C39.7009 166.391 40.0226 166.478 40.3049 166.651C40.5891 166.822 40.8119 167.056 40.9732 167.354C41.1364 167.651 41.218 167.991 41.218 168.373C41.218 168.75 41.1335 169.086 40.9645 169.382C40.7975 169.675 40.567 169.908 40.2732 170.079C39.9794 170.248 39.6452 170.332 39.2707 170.332ZM42.3624 170.251V169.733L44.3097 167.601C44.5382 167.352 44.7264 167.135 44.8743 166.95C45.0222 166.764 45.1316 166.589 45.2027 166.426C45.2757 166.261 45.3122 166.088 45.3122 165.907C45.3122 165.7 45.2622 165.52 45.1624 165.369C45.0644 165.217 44.93 165.1 44.7591 165.017C44.5882 164.935 44.3961 164.893 44.183 164.893C43.9563 164.893 43.7585 164.941 43.5895 165.035C43.4225 165.127 43.2928 165.256 43.2007 165.423C43.1104 165.591 43.0653 165.786 43.0653 166.011H42.3854C42.3854 165.665 42.4651 165.362 42.6245 165.101C42.7839 164.84 43.0009 164.636 43.2755 164.49C43.5521 164.344 43.8622 164.271 44.206 164.271C44.5517 164.271 44.858 164.344 45.1249 164.49C45.3919 164.636 45.6012 164.833 45.7529 165.081C45.9046 165.328 45.9805 165.604 45.9805 165.907C45.9805 166.124 45.9411 166.337 45.8624 166.544C45.7856 166.75 45.6511 166.979 45.4591 167.233C45.269 167.484 45.0049 167.791 44.6669 168.154L43.3418 169.572V169.618H46.0842V170.251H42.3624Z" fill="#545454"/>
<path d="M39.2707 194.852C38.9327 194.852 38.6283 194.784 38.3576 194.65C38.0868 194.516 37.8698 194.331 37.7065 194.097C37.5433 193.863 37.454 193.596 37.4386 193.296H38.13C38.1569 193.563 38.2779 193.784 38.4929 193.959C38.71 194.131 38.9692 194.218 39.2707 194.218C39.5127 194.218 39.7278 194.161 39.916 194.048C40.1061 193.935 40.2549 193.779 40.3625 193.581C40.472 193.382 40.5267 193.156 40.5267 192.904C40.5267 192.647 40.47 192.418 40.3567 192.216C40.2453 192.012 40.0917 191.852 39.8958 191.735C39.6999 191.618 39.4762 191.558 39.2246 191.556C39.0441 191.554 38.8588 191.582 38.6687 191.64C38.4785 191.695 38.322 191.767 38.1991 191.856L37.5308 191.775L37.888 188.871H40.953V189.505H38.4872L38.2798 191.245H38.3143C38.4353 191.149 38.587 191.069 38.7695 191.006C38.9519 190.943 39.1421 190.911 39.3399 190.911C39.7009 190.911 40.0226 190.997 40.3049 191.17C40.5891 191.341 40.8119 191.575 40.9732 191.873C41.1364 192.171 41.218 192.511 41.218 192.893C41.218 193.269 41.1335 193.605 40.9645 193.901C40.7975 194.195 40.567 194.427 40.2732 194.598C39.9794 194.767 39.6452 194.852 39.2707 194.852ZM44.2867 194.852C43.8526 194.852 43.483 194.734 43.1776 194.497C42.8723 194.259 42.6389 193.914 42.4776 193.463C42.3163 193.01 42.2356 192.463 42.2356 191.821C42.2356 191.184 42.3163 190.639 42.4776 190.188C42.6408 189.735 42.8751 189.389 43.1805 189.151C43.4878 188.911 43.8565 188.791 44.2867 188.791C44.7168 188.791 45.0846 188.911 45.3899 189.151C45.6972 189.389 45.9315 189.735 46.0928 190.188C46.2561 190.639 46.3377 191.184 46.3377 191.821C46.3377 192.463 46.257 193.01 46.0957 193.463C45.9344 193.914 45.7011 194.259 45.3957 194.497C45.0904 194.734 44.7207 194.852 44.2867 194.852ZM44.2867 194.218C44.7168 194.218 45.051 194.011 45.2891 193.596C45.5273 193.181 45.6463 192.589 45.6463 191.821C45.6463 191.31 45.5916 190.875 45.4821 190.516C45.3746 190.157 45.219 189.883 45.0155 189.695C44.8138 189.507 44.5709 189.413 44.2867 189.413C43.8603 189.413 43.5271 189.623 43.2871 190.044C43.047 190.463 42.927 191.055 42.927 191.821C42.927 192.332 42.9808 192.766 43.0883 193.123C43.1959 193.48 43.3504 193.752 43.5521 193.938C43.7557 194.125 44.0005 194.218 44.2867 194.218Z" fill="#545454"/>
<path d="M59.9844 64.4868H255.845" stroke="#999999" stroke-width="0.135199" stroke-dasharray="1.35 1.35"/>
<path d="M59.9844 89.4526H255.845" stroke="#999999" stroke-width="0.135199" stroke-dasharray="1.35 1.35"/>
<path d="M59.9844 114.418H255.845" stroke="#999999" stroke-width="0.135199" stroke-dasharray="1.35 1.35"/>
<path d="M59.9844 139.384H255.845" stroke="#999999" stroke-width="0.135199" stroke-dasharray="1.35 1.35"/>
<path d="M59.9844 164.349H255.845" stroke="#999999" stroke-width="0.135199" stroke-dasharray="1.35 1.35"/>
<path d="M59.9844 189.315H255.845" stroke="#999999" stroke-width="0.135199" stroke-dasharray="1.35 1.35"/>
<path d="M61.3143 216.158H60.5654L62.7316 210.259H63.4691L65.6353 216.158H64.8863L63.1234 211.192H63.0773L61.3143 216.158ZM61.5909 213.854H64.6098V214.487H61.5909V213.854ZM69.2505 214.349V211.734H69.9304V216.158H69.2505V215.409H69.2044C69.1007 215.634 68.9394 215.825 68.7205 215.982C68.5016 216.138 68.225 216.216 67.8909 216.216C67.6143 216.216 67.3685 216.155 67.1534 216.034C66.9383 215.911 66.7693 215.727 66.6464 215.481C66.5235 215.234 66.4621 214.921 66.4621 214.545V211.734H67.1419V214.499C67.1419 214.822 67.2322 215.079 67.4127 215.271C67.5951 215.463 67.8275 215.559 68.1098 215.559C68.2788 215.559 68.4507 215.516 68.6254 215.429C68.8021 215.343 68.95 215.21 69.0691 215.032C69.19 214.853 69.2505 214.626 69.2505 214.349ZM72.9615 217.91C72.6331 217.91 72.3508 217.867 72.1146 217.783C71.8784 217.7 71.6816 217.591 71.5241 217.454C71.3685 217.32 71.2447 217.176 71.1525 217.022L71.6941 216.642C71.7555 216.723 71.8333 216.815 71.9274 216.919C72.0215 217.024 72.1502 217.116 72.3134 217.192C72.4785 217.271 72.6946 217.31 72.9615 217.31C73.3187 217.31 73.6135 217.224 73.8459 217.051C74.0783 216.878 74.1945 216.608 74.1945 216.239V215.34H74.1368C74.0869 215.421 74.0159 215.521 73.9237 215.64C73.8334 215.757 73.7028 215.861 73.5319 215.954C73.3629 216.044 73.1344 216.089 72.8463 216.089C72.4891 216.089 72.1684 216.005 71.8842 215.836C71.6019 215.667 71.3781 215.421 71.213 215.098C71.0497 214.775 70.9681 214.384 70.9681 213.923C70.9681 213.47 71.0478 213.075 71.2072 212.739C71.3666 212.401 71.5884 212.14 71.8727 211.955C72.1569 211.769 72.4853 211.676 72.8578 211.676C73.1459 211.676 73.3744 211.724 73.5434 211.82C73.7143 211.914 73.8449 212.022 73.9352 212.143C74.0274 212.262 74.0984 212.36 74.1484 212.436H74.2175V211.734H74.8743V216.285C74.8743 216.665 74.7879 216.974 74.615 217.213C74.4441 217.453 74.2137 217.628 73.9237 217.74C73.6356 217.853 73.3149 217.91 72.9615 217.91ZM72.9385 215.478C73.2112 215.478 73.4416 215.416 73.6298 215.291C73.8181 215.166 73.9611 214.987 74.0591 214.752C74.157 214.518 74.206 214.238 74.206 213.911C74.206 213.593 74.158 213.311 74.0619 213.067C73.9659 212.823 73.8238 212.632 73.6356 212.494C73.4474 212.356 73.215 212.287 72.9385 212.287C72.6504 212.287 72.4104 212.36 72.2183 212.506C72.0282 212.651 71.8851 212.847 71.7891 213.093C71.695 213.339 71.648 213.612 71.648 213.911C71.648 214.219 71.696 214.49 71.792 214.727C71.8899 214.961 72.034 215.145 72.2241 215.28C72.4161 215.412 72.6543 215.478 72.9385 215.478ZM80.4628 210.259V216.158H79.7484V211.008H79.7138L78.2735 211.964V211.238L79.7484 210.259H80.4628ZM84.1183 216.239C83.8763 216.235 83.6344 216.189 83.3924 216.101C83.1504 216.012 82.9296 215.863 82.7298 215.654C82.5301 215.443 82.3697 215.158 82.2488 214.799C82.1278 214.437 82.0673 213.984 82.0673 213.439C82.0673 212.917 82.1162 212.454 82.2142 212.05C82.3121 211.645 82.4542 211.304 82.6405 211.028C82.8268 210.749 83.0515 210.538 83.3146 210.394C83.5796 210.25 83.8782 210.178 84.2105 210.178C84.5408 210.178 84.8346 210.244 85.092 210.377C85.3512 210.507 85.5625 210.69 85.7257 210.924C85.8889 211.158 85.9946 211.428 86.0426 211.734H85.3397C85.2744 211.469 85.1477 211.249 84.9595 211.074C84.7713 210.899 84.5216 210.812 84.2105 210.812C83.7534 210.812 83.3933 211.01 83.1302 211.408C82.8691 211.806 82.7375 212.363 82.7356 213.082H82.7817C82.8892 212.918 83.0169 212.779 83.1648 212.664C83.3146 212.547 83.4798 212.457 83.6603 212.393C83.8408 212.33 84.0319 212.298 84.2335 212.298C84.5715 212.298 84.8807 212.383 85.1611 212.552C85.4415 212.719 85.6662 212.95 85.8352 213.246C86.0042 213.54 86.0887 213.877 86.0887 214.257C86.0887 214.622 86.0071 214.956 85.8438 215.259C85.6806 215.561 85.4511 215.801 85.1553 215.98C84.8615 216.156 84.5158 216.243 84.1183 216.239ZM84.1183 215.605C84.3603 215.605 84.5773 215.545 84.7693 215.424C84.9633 215.303 85.116 215.14 85.2274 214.937C85.3407 214.733 85.3973 214.507 85.3973 214.257C85.3973 214.013 85.3426 213.791 85.2331 213.592C85.1256 213.39 84.9767 213.23 84.7866 213.11C84.5984 212.991 84.3833 212.932 84.1413 212.932C83.9589 212.932 83.7889 212.968 83.6315 213.041C83.474 213.112 83.3357 213.21 83.2167 213.335C83.0995 213.46 83.0073 213.603 82.9401 213.764C82.8729 213.924 82.8393 214.092 82.8393 214.268C82.8393 214.503 82.894 214.722 83.0035 214.925C83.1149 215.129 83.2666 215.293 83.4586 215.418C83.6526 215.543 83.8725 215.605 84.1183 215.605Z" fill="#545454"/>
<path d="M124.209 216.158H123.46L125.626 210.259H126.363L128.53 216.158H127.781L126.018 211.192H125.972L124.209 216.158ZM124.485 213.854H127.504V214.487H124.485V213.854ZM132.145 214.349V211.734H132.825V216.158H132.145V215.409H132.099C131.995 215.634 131.834 215.825 131.615 215.982C131.396 216.138 131.119 216.216 130.785 216.216C130.509 216.216 130.263 216.155 130.048 216.034C129.833 215.911 129.664 215.727 129.541 215.481C129.418 215.234 129.356 214.921 129.356 214.545V211.734H130.036V214.499C130.036 214.822 130.127 215.079 130.307 215.271C130.49 215.463 130.722 215.559 131.004 215.559C131.173 215.559 131.345 215.516 131.52 215.429C131.697 215.343 131.844 215.21 131.963 215.032C132.084 214.853 132.145 214.626 132.145 214.349ZM135.856 217.91C135.528 217.91 135.245 217.867 135.009 217.783C134.773 217.7 134.576 217.591 134.419 217.454C134.263 217.32 134.139 217.176 134.047 217.022L134.588 216.642C134.65 216.723 134.728 216.815 134.822 216.919C134.916 217.024 135.045 217.116 135.208 217.192C135.373 217.271 135.589 217.31 135.856 217.31C136.213 217.31 136.508 217.224 136.74 217.051C136.973 216.878 137.089 216.608 137.089 216.239V215.34H137.031C136.981 215.421 136.91 215.521 136.818 215.64C136.728 215.757 136.597 215.861 136.426 215.954C136.257 216.044 136.029 216.089 135.741 216.089C135.384 216.089 135.063 216.005 134.779 215.836C134.496 215.667 134.273 215.421 134.107 215.098C133.944 214.775 133.863 214.384 133.863 213.923C133.863 213.47 133.942 213.075 134.102 212.739C134.261 212.401 134.483 212.14 134.767 211.955C135.051 211.769 135.38 211.676 135.752 211.676C136.04 211.676 136.269 211.724 136.438 211.82C136.609 211.914 136.739 212.022 136.83 212.143C136.922 212.262 136.993 212.36 137.043 212.436H137.112V211.734H137.769V216.285C137.769 216.665 137.682 216.974 137.509 217.213C137.339 217.453 137.108 217.628 136.818 217.74C136.53 217.853 136.209 217.91 135.856 217.91ZM135.833 215.478C136.106 215.478 136.336 215.416 136.524 215.291C136.712 215.166 136.856 214.987 136.953 214.752C137.051 214.518 137.1 214.238 137.1 213.911C137.1 213.593 137.052 213.311 136.956 213.067C136.86 212.823 136.718 212.632 136.53 212.494C136.342 212.356 136.109 212.287 135.833 212.287C135.545 212.287 135.305 212.36 135.113 212.506C134.923 212.651 134.78 212.847 134.684 213.093C134.589 213.339 134.542 213.612 134.542 213.911C134.542 214.219 134.59 214.49 134.686 214.727C134.784 214.961 134.928 215.145 135.119 215.28C135.311 215.412 135.549 215.478 135.833 215.478ZM141.283 216.158V215.64L143.23 213.508C143.459 213.258 143.647 213.041 143.795 212.857C143.943 212.671 144.052 212.496 144.123 212.333C144.196 212.168 144.233 211.995 144.233 211.814C144.233 211.607 144.183 211.427 144.083 211.275C143.985 211.124 143.851 211.007 143.68 210.924C143.509 210.841 143.317 210.8 143.104 210.8C142.877 210.8 142.679 210.847 142.51 210.941C142.343 211.034 142.214 211.163 142.121 211.33C142.031 211.497 141.986 211.693 141.986 211.918H141.306C141.306 211.572 141.386 211.269 141.545 211.008C141.705 210.746 141.922 210.543 142.196 210.397C142.473 210.251 142.783 210.178 143.127 210.178C143.472 210.178 143.779 210.251 144.046 210.397C144.313 210.543 144.522 210.74 144.674 210.987C144.825 211.235 144.901 211.511 144.901 211.814C144.901 212.031 144.862 212.243 144.783 212.451C144.706 212.656 144.572 212.886 144.38 213.139C144.19 213.391 143.926 213.698 143.588 214.061L142.263 215.478V215.524H145.005V216.158H141.283ZM148.119 216.239C147.685 216.239 147.315 216.121 147.01 215.885C146.704 215.646 146.471 215.302 146.31 214.85C146.149 214.397 146.068 213.85 146.068 213.208C146.068 212.571 146.149 212.026 146.31 211.575C146.473 211.122 146.707 210.776 147.013 210.538C147.32 210.298 147.689 210.178 148.119 210.178C148.549 210.178 148.917 210.298 149.222 210.538C149.529 210.776 149.764 211.122 149.925 211.575C150.088 212.026 150.17 212.571 150.17 213.208C150.17 213.85 150.089 214.397 149.928 214.85C149.767 215.302 149.533 215.646 149.228 215.885C148.923 216.121 148.553 216.239 148.119 216.239ZM148.119 215.605C148.549 215.605 148.883 215.398 149.121 214.983C149.359 214.568 149.479 213.977 149.479 213.208C149.479 212.698 149.424 212.263 149.314 211.903C149.207 211.544 149.051 211.271 148.848 211.082C148.646 210.894 148.403 210.8 148.119 210.8C147.693 210.8 147.359 211.01 147.119 211.431C146.879 211.85 146.759 212.442 146.759 213.208C146.759 213.719 146.813 214.153 146.921 214.51C147.028 214.868 147.183 215.139 147.384 215.326C147.588 215.512 147.833 215.605 148.119 215.605Z" fill="#545454"/>
<path d="M188.177 216.158H187.428L189.595 210.259H190.332L192.498 216.158H191.749L189.987 211.192H189.94L188.177 216.158ZM188.454 213.854H191.473V214.487H188.454V213.854ZM196.114 214.349V211.734H196.793V216.158H196.114V215.409H196.068C195.964 215.634 195.803 215.825 195.584 215.982C195.365 216.138 195.088 216.216 194.754 216.216C194.477 216.216 194.232 216.155 194.017 216.034C193.801 215.911 193.632 215.727 193.51 215.481C193.387 215.234 193.325 214.921 193.325 214.545V211.734H194.005V214.499C194.005 214.822 194.095 215.079 194.276 215.271C194.458 215.463 194.691 215.559 194.973 215.559C195.142 215.559 195.314 215.516 195.489 215.429C195.665 215.343 195.813 215.21 195.932 215.032C196.053 214.853 196.114 214.626 196.114 214.349ZM199.825 217.91C199.496 217.91 199.214 217.867 198.978 217.783C198.742 217.7 198.545 217.591 198.387 217.454C198.232 217.32 198.108 217.176 198.016 217.022L198.557 216.642C198.619 216.723 198.696 216.815 198.79 216.919C198.885 217.024 199.013 217.116 199.177 217.192C199.342 217.271 199.558 217.31 199.825 217.31C200.182 217.31 200.477 217.224 200.709 217.051C200.941 216.878 201.058 216.608 201.058 216.239V215.34H201C200.95 215.421 200.879 215.521 200.787 215.64C200.697 215.757 200.566 215.861 200.395 215.954C200.226 216.044 199.997 216.089 199.709 216.089C199.352 216.089 199.032 216.005 198.747 215.836C198.465 215.667 198.241 215.421 198.076 215.098C197.913 214.775 197.831 214.384 197.831 213.923C197.831 213.47 197.911 213.075 198.07 212.739C198.23 212.401 198.452 212.14 198.736 211.955C199.02 211.769 199.348 211.676 199.721 211.676C200.009 211.676 200.238 211.724 200.407 211.82C200.577 211.914 200.708 212.022 200.798 212.143C200.89 212.262 200.962 212.36 201.011 212.436H201.081V211.734H201.737V216.285C201.737 216.665 201.651 216.974 201.478 217.213C201.307 217.453 201.077 217.628 200.787 217.74C200.499 217.853 200.178 217.91 199.825 217.91ZM199.802 215.478C200.074 215.478 200.305 215.416 200.493 215.291C200.681 215.166 200.824 214.987 200.922 214.752C201.02 214.518 201.069 214.238 201.069 213.911C201.069 213.593 201.021 213.311 200.925 213.067C200.829 212.823 200.687 212.632 200.499 212.494C200.311 212.356 200.078 212.287 199.802 212.287C199.514 212.287 199.273 212.36 199.081 212.506C198.891 212.651 198.748 212.847 198.652 213.093C198.558 213.339 198.511 213.612 198.511 213.911C198.511 214.219 198.559 214.49 198.655 214.727C198.753 214.961 198.897 215.145 199.087 215.28C199.279 215.412 199.517 215.478 199.802 215.478ZM205.252 216.158V215.64L207.199 213.508C207.428 213.258 207.616 213.041 207.764 212.857C207.912 212.671 208.021 212.496 208.092 212.333C208.165 212.168 208.202 211.995 208.202 211.814C208.202 211.607 208.152 211.427 208.052 211.275C207.954 211.124 207.819 211.007 207.649 210.924C207.478 210.841 207.286 210.8 207.072 210.8C206.846 210.8 206.648 210.847 206.479 210.941C206.312 211.034 206.182 211.163 206.09 211.33C206 211.497 205.955 211.693 205.955 211.918H205.275C205.275 211.572 205.355 211.269 205.514 211.008C205.673 210.746 205.89 210.543 206.165 210.397C206.442 210.251 206.752 210.178 207.095 210.178C207.441 210.178 207.747 210.251 208.014 210.397C208.281 210.543 208.491 210.74 208.642 210.987C208.794 211.235 208.87 211.511 208.87 211.814C208.87 212.031 208.831 212.243 208.752 212.451C208.675 212.656 208.541 212.886 208.349 213.139C208.158 213.391 207.894 213.698 207.556 214.061L206.231 215.478V215.524H208.974V216.158H205.252ZM209.898 214.948V214.361L212.491 210.259H212.917V211.169H212.629L210.67 214.268V214.315H214.162V214.948H209.898ZM212.675 216.158V214.77V214.496V210.259H213.355V216.158H212.675Z" fill="#545454"/>
<path d="M252.186 216.158H251.437L253.603 210.259H254.341L256.507 216.158H255.758L253.995 211.192H253.949L252.186 216.158ZM252.462 213.854H255.481V214.487H252.462V213.854ZM260.122 214.349V211.734H260.802V216.158H260.122V215.409H260.076C259.972 215.634 259.811 215.825 259.592 215.982C259.373 216.138 259.096 216.216 258.762 216.216C258.486 216.216 258.24 216.155 258.025 216.034C257.81 215.911 257.641 215.727 257.518 215.481C257.395 215.234 257.334 214.921 257.334 214.545V211.734H258.013V214.499C258.013 214.822 258.104 215.079 258.284 215.271C258.467 215.463 258.699 215.559 258.981 215.559C259.15 215.559 259.322 215.516 259.497 215.429C259.674 215.343 259.821 215.21 259.941 215.032C260.062 214.853 260.122 214.626 260.122 214.349ZM263.833 217.91C263.505 217.91 263.222 217.867 262.986 217.783C262.75 217.7 262.553 217.591 262.396 217.454C262.24 217.32 262.116 217.176 262.024 217.022L262.566 216.642C262.627 216.723 262.705 216.815 262.799 216.919C262.893 217.024 263.022 217.116 263.185 217.192C263.35 217.271 263.566 217.31 263.833 217.31C264.19 217.31 264.485 217.224 264.717 217.051C264.95 216.878 265.066 216.608 265.066 216.239V215.34H265.008C264.958 215.421 264.887 215.521 264.795 215.64C264.705 215.757 264.574 215.861 264.403 215.954C264.234 216.044 264.006 216.089 263.718 216.089C263.361 216.089 263.04 216.005 262.756 215.836C262.473 215.667 262.25 215.421 262.084 215.098C261.921 214.775 261.84 214.384 261.84 213.923C261.84 213.47 261.919 213.075 262.079 212.739C262.238 212.401 262.46 212.14 262.744 211.955C263.028 211.769 263.357 211.676 263.729 211.676C264.017 211.676 264.246 211.724 264.415 211.82C264.586 211.914 264.716 212.022 264.807 212.143C264.899 212.262 264.97 212.36 265.02 212.436H265.089V211.734H265.746V216.285C265.746 216.665 265.659 216.974 265.487 217.213C265.316 217.453 265.085 217.628 264.795 217.74C264.507 217.853 264.186 217.91 263.833 217.91ZM263.81 215.478C264.083 215.478 264.313 215.416 264.501 215.291C264.69 215.166 264.833 214.987 264.931 214.752C265.028 214.518 265.077 214.238 265.077 213.911C265.077 213.593 265.029 213.311 264.933 213.067C264.837 212.823 264.695 212.632 264.507 212.494C264.319 212.356 264.087 212.287 263.81 212.287C263.522 212.287 263.282 212.36 263.09 212.506C262.9 212.651 262.757 212.847 262.661 213.093C262.566 213.339 262.519 213.612 262.519 213.911C262.519 214.219 262.567 214.49 262.663 214.727C262.761 214.961 262.905 215.145 263.096 215.28C263.288 215.412 263.526 215.478 263.81 215.478ZM269.26 216.158V215.64L271.207 213.508C271.436 213.258 271.624 213.041 271.772 212.857C271.92 212.671 272.029 212.496 272.1 212.333C272.173 212.168 272.21 211.995 272.21 211.814C272.21 211.607 272.16 211.427 272.06 211.275C271.962 211.124 271.828 211.007 271.657 210.924C271.486 210.841 271.294 210.8 271.081 210.8C270.854 210.8 270.656 210.847 270.487 210.941C270.32 211.034 270.191 211.163 270.098 211.33C270.008 211.497 269.963 211.693 269.963 211.918H269.283C269.283 211.572 269.363 211.269 269.522 211.008C269.682 210.746 269.899 210.543 270.173 210.397C270.45 210.251 270.76 210.178 271.104 210.178C271.449 210.178 271.756 210.251 272.023 210.397C272.29 210.543 272.499 210.74 272.651 210.987C272.802 211.235 272.878 211.511 272.878 211.814C272.878 212.031 272.839 212.243 272.76 212.451C272.683 212.656 272.549 212.886 272.357 213.139C272.167 213.391 271.903 213.698 271.565 214.061L270.24 215.478V215.524H272.982V216.158H269.26ZM276.061 216.239C275.666 216.239 275.316 216.169 275.013 216.029C274.711 215.886 274.476 215.692 274.307 215.444C274.138 215.194 274.055 214.91 274.056 214.591C274.055 214.341 274.103 214.111 274.203 213.9C274.303 213.687 274.44 213.509 274.612 213.367C274.787 213.223 274.982 213.132 275.197 213.093V213.059C274.915 212.986 274.69 212.827 274.523 212.583C274.356 212.337 274.273 212.058 274.275 211.745C274.273 211.445 274.349 211.178 274.503 210.941C274.657 210.705 274.868 210.519 275.137 210.382C275.407 210.246 275.716 210.178 276.061 210.178C276.403 210.178 276.709 210.246 276.977 210.382C277.246 210.519 277.458 210.705 277.611 210.941C277.767 211.178 277.845 211.445 277.847 211.745C277.845 212.058 277.76 212.337 277.591 212.583C277.424 212.827 277.202 212.986 276.926 213.059V213.093C277.139 213.132 277.331 213.223 277.502 213.367C277.673 213.509 277.809 213.687 277.911 213.9C278.013 214.111 278.064 214.341 278.066 214.591C278.064 214.91 277.978 215.194 277.807 215.444C277.638 215.692 277.403 215.886 277.101 216.029C276.802 216.169 276.455 216.239 276.061 216.239ZM276.061 215.605C276.328 215.605 276.559 215.562 276.753 215.475C276.947 215.389 277.096 215.267 277.202 215.11C277.308 214.952 277.362 214.768 277.363 214.557C277.362 214.334 277.304 214.137 277.191 213.966C277.077 213.795 276.923 213.661 276.727 213.563C276.533 213.465 276.311 213.416 276.061 213.416C275.81 213.416 275.585 213.465 275.387 213.563C275.191 213.661 275.037 213.795 274.924 213.966C274.812 214.137 274.757 214.334 274.759 214.557C274.757 214.768 274.808 214.952 274.912 215.11C275.018 215.267 275.168 215.389 275.364 215.475C275.56 215.562 275.793 215.605 276.061 215.605ZM276.061 212.805C276.273 212.805 276.46 212.763 276.623 212.678C276.788 212.594 276.918 212.476 277.012 212.324C277.106 212.172 277.154 211.995 277.156 211.791C277.154 211.591 277.107 211.418 277.015 211.27C276.923 211.12 276.795 211.005 276.632 210.924C276.469 210.841 276.278 210.8 276.061 210.8C275.841 210.8 275.648 210.841 275.482 210.924C275.317 211.005 275.19 211.12 275.099 211.27C275.009 211.418 274.965 211.591 274.967 211.791C274.965 211.995 275.01 212.172 275.102 212.324C275.196 212.476 275.326 212.594 275.491 212.678C275.656 212.763 275.846 212.805 276.061 212.805Z" fill="#545454"/>
<path fill-rule="evenodd" clip-rule="evenodd" d="M60.3417 189.637C60.3417 189.637 60.0021 112.638 60.3417 111.99C62.8716 107.163 66.4166 102.517 68.9386 102.184C73.2294 101.617 75.6753 109.312 80.6057 109.312C85.5362 109.312 90.5835 102.71 96.8784 102.184C103.173 101.657 107.084 106.635 112.626 106.635C118.168 106.635 124.52 87.8925 130.715 87.8925C136.911 87.8925 142.849 117.345 151.125 117.345C159.4 117.345 161.079 92.3877 166.283 92.3877C171.487 92.3877 174.953 101.213 179.952 101.648C184.951 102.083 184.951 109.312 189.163 109.312C193.375 109.312 199.405 85.5371 206.042 85.5371C212.679 85.5371 220.346 102.424 225.09 102.424C229.835 102.424 227.234 90.57 232.85 90.57C238.466 90.57 234.337 101.113 239.955 101.648C245.573 102.184 250.149 106.635 255.613 106.635C257.19 106.635 259.353 105.672 260.93 102.96C262.507 100.247 263.929 95.8882 263.929 95.8882H264.621C264.621 95.8882 264.621 97.8561 264.621 98.4247C264.621 104.639 264.621 189.637 264.621 189.637H60.3417Z" fill="url(#paint0_linear_22460_105125)"/>
<path d="M60.1719 111.99C60.1719 111.99 64.5032 102.751 68.8193 102.184C73.1353 101.617 75.5956 109.312 80.5551 109.312C85.5145 109.312 90.5915 102.71 96.9234 102.184C103.255 101.657 107.189 106.635 112.763 106.635C118.338 106.635 124.727 87.8925 130.959 87.8925C137.191 87.8925 143.164 117.345 151.488 117.345C159.813 117.345 161.501 92.3877 166.736 92.3877C171.971 92.3877 175.457 101.749 180.485 102.184C185.513 102.619 185.179 109.312 189.75 109.312C194.321 109.312 199.432 85.5371 206.108 85.5371C212.784 85.5371 219.7 102.184 224.473 102.184C229.245 102.184 227.406 90.57 233.055 90.57C238.704 90.57 235.311 102.184 240.841 102.184C246.371 102.184 250.478 106.635 255.974 106.635C261.47 106.635 264.621 95.9103 264.621 95.9103" stroke="black" stroke-width="1.35199"/>
<path d="M266.677 94.8207C266.677 95.6561 265.886 96.5157 264.672 96.5157C263.458 96.5157 262.666 95.6561 262.666 94.8207C262.666 93.9853 263.458 93.1258 264.672 93.1258C265.886 93.1258 266.677 93.9853 266.677 94.8207Z" fill="black" stroke="black" stroke-width="2.02798"/>
</g>
<defs>
<filter id="filter0_dd_22460_105125" x="0.202641" y="0.233644" width="315.306" height="268.437" filterUnits="userSpaceOnUse" color-interpolation-filters="sRGB">
<feFlood flood-opacity="0" result="BackgroundImageFix"/>
<feColorMatrix in="SourceAlpha" type="matrix" values="0 0 0 0 0 0 0 0 0 0 0 0 0 0 0 0 0 0 127 0" result="hardAlpha"/>
<feOffset dy="12.8987"/>
<feGaussianBlur stdDeviation="12.8987"/>
<feColorMatrix type="matrix" values="0 0 0 0 0 0 0 0 0 0 0 0 0 0 0 0 0 0 0.08 0"/>
<feBlend mode="normal" in2="BackgroundImageFix" result="effect1_dropShadow_22460_105125"/>
<feColorMatrix in="SourceAlpha" type="matrix" values="0 0 0 0 0 0 0 0 0 0 0 0 0 0 0 0 0 0 127 0" result="hardAlpha"/>
<feOffset/>
<feGaussianBlur stdDeviation="3.22467"/>
<feColorMatrix type="matrix" values="0 0 0 0 0 0 0 0 0 0 0 0 0 0 0 0 0 0 0.04 0"/>
<feBlend mode="normal" in2="effect1_dropShadow_22460_105125" result="effect2_dropShadow_22460_105125"/>
<feBlend mode="normal" in="SourceGraphic" in2="effect2_dropShadow_22460_105125" result="shape"/>
</filter>
<linearGradient id="paint0_linear_22460_105125" x1="60.1719" y1="85.5371" x2="60.1719" y2="189.637" gradientUnits="userSpaceOnUse">
<stop stop-color="#DDF1B4"/>
<stop offset="1" stop-color="#DADEFF" stop-opacity="0.01"/>
</linearGradient>
</defs>
</svg>
