<svg width="2103" height="971" viewBox="0 0 2103 971" fill="none" xmlns="http://www.w3.org/2000/svg">
<g clip-path="url(#clip0_131_3018)">
<g opacity="0.7">
<path d="M61.2766 14.1416H14.1406V61.2775M61.2766 14.1416V61.2775M61.2766 14.1416H108.412M14.1406 61.2775H61.2766M14.1406 61.2775V108.413M61.2766 61.2775V108.413M61.2766 61.2775H108.412M108.412 14.1416V61.2775M108.412 14.1416H155.548M61.2766 108.413H14.1406M61.2766 108.413V155.549M61.2766 108.413H108.412M108.412 61.2775V108.413M108.412 61.2775H155.548M14.1406 108.413V155.549M61.2766 155.549H14.1406M61.2766 155.549V202.685M61.2766 155.549H108.412M108.412 108.413V155.549M108.412 108.413H155.548M14.1406 155.549V202.685M61.2766 202.685H14.1406M61.2766 202.685V249.821M61.2766 202.685H108.412M108.412 155.549V202.685M108.412 155.549H155.548M14.1406 202.685V249.821M61.2766 249.821H14.1406M61.2766 249.821V296.957M61.2766 249.821H108.412M108.412 202.685V249.821M108.412 202.685H155.548M14.1406 249.821V296.957M61.2766 296.957H14.1406M61.2766 296.957V344.093M61.2766 296.957H108.412M108.412 249.821V296.957M108.412 249.821H155.548M14.1406 296.957V344.093M61.2766 344.093H14.1406M61.2766 344.093V391.229M61.2766 344.093H108.412M108.412 296.957V344.093M108.412 296.957H155.548M14.1406 344.093V391.229M61.2766 391.229H14.1406M61.2766 391.229V438.365M61.2766 391.229H108.412M108.412 344.093V391.229M108.412 344.093H155.548M14.1406 391.229V438.365M61.2766 438.365H14.1406M61.2766 438.365V485.501M61.2766 438.365H108.412M108.412 391.229V438.365M108.412 391.229H155.548M14.1406 438.365V485.501M61.2766 485.501H14.1406M61.2766 485.501V532.637M61.2766 485.501H108.412M108.412 438.365V485.501M108.412 438.365H155.548M14.1406 485.501V532.637M61.2766 532.637H14.1406M61.2766 532.637V579.773M61.2766 532.637H108.412M108.412 485.501V532.637M108.412 485.501H155.548M14.1406 532.637V579.773M61.2766 579.773H14.1406M61.2766 579.773V626.909M61.2766 579.773H108.412M108.412 532.637V579.773M108.412 532.637H155.548M14.1406 579.773V626.909M61.2766 626.909H14.1406M61.2766 626.909V674.045M61.2766 626.909H108.412M108.412 579.773V626.909M108.412 579.773H155.548M14.1406 626.909V674.045M61.2766 674.045H14.1406M61.2766 674.045V721.181M61.2766 674.045H108.412M108.412 626.909V674.045M108.412 626.909H155.548M14.1406 674.045V721.181M61.2766 721.181H14.1406M61.2766 721.181V768.316M61.2766 721.181H108.412M108.412 674.045V721.181M108.412 674.045H155.548M14.1406 721.181V768.316M61.2766 768.316H14.1406M61.2766 768.316V815.452M61.2766 768.316H108.412M108.412 721.181V768.316M108.412 721.181H155.548M14.1406 768.316V815.452M61.2766 815.452H14.1406M61.2766 815.452V862.588M61.2766 815.452H108.412M108.412 768.316V815.452M108.412 768.316H155.548M14.1406 815.452V862.588M61.2766 862.588H14.1406M61.2766 862.588V909.724M61.2766 862.588H108.412M108.412 815.452V862.588M108.412 815.452H155.548M14.1406 862.588V909.724M61.2766 909.724H14.1406M61.2766 909.724V956.86M61.2766 909.724H108.412M108.412 862.588V909.724M108.412 862.588H155.548M14.1406 909.724V956.86H61.2766M61.2766 956.86H108.412M108.412 909.724V956.86M108.412 909.724H155.548M108.412 956.86H155.548M155.548 14.1416V61.2775M155.548 14.1416H202.684M155.548 61.2775V108.413M155.548 61.2775H202.684M155.548 108.413V155.549M155.548 108.413H202.684M155.548 155.549V202.685M155.548 155.549H202.684M155.548 202.685V249.821M155.548 202.685H202.684M155.548 249.821V296.957M155.548 249.821H202.684M155.548 296.957V344.093M155.548 296.957H202.684M155.548 344.093V391.229M155.548 344.093H202.684M155.548 391.229V438.365M155.548 391.229H202.684M155.548 438.365V485.501M155.548 438.365H202.684M155.548 485.501V532.637M155.548 485.501H202.684M155.548 532.637V579.773M155.548 532.637H202.684M155.548 579.773V626.909M155.548 579.773H202.684M155.548 626.909V674.045M155.548 626.909H202.684M155.548 674.045V721.181M155.548 674.045H202.684M155.548 721.181V768.316M155.548 721.181H202.684M155.548 768.316V815.452M155.548 768.316H202.684M155.548 815.452V862.588M155.548 815.452H202.684M155.548 862.588V909.724M155.548 862.588H202.684M155.548 909.724V956.86M155.548 909.724H202.684M155.548 956.86H202.684M202.684 14.1416V61.2775M202.684 14.1416H249.82M202.684 61.2775V108.413M202.684 61.2775H249.82M202.684 108.413V155.549M202.684 108.413H249.82M202.684 155.549V202.685M202.684 155.549H249.82M202.684 202.685V249.821M202.684 202.685H249.82M202.684 249.821V296.957M202.684 249.821H249.82M202.684 296.957V344.093M202.684 296.957H249.82M202.684 344.093V391.229M202.684 344.093H249.82M202.684 391.229V438.365M202.684 391.229H249.82M202.684 438.365V485.501M202.684 438.365H249.82M202.684 485.501V532.637M202.684 485.501H249.82M202.684 532.637V579.773M202.684 532.637H249.82M202.684 579.773V626.909M202.684 579.773H249.82M202.684 626.909V674.045M202.684 626.909H249.82M202.684 674.045V721.181M202.684 674.045H249.82M202.684 721.181V768.316M202.684 721.181H249.82M202.684 768.316V815.452M202.684 768.316H249.82M202.684 815.452V862.588M202.684 815.452H249.82M202.684 862.588V909.724M202.684 862.588H249.82M202.684 909.724V956.86M202.684 909.724H249.82M202.684 956.86H249.82M249.82 14.1416V61.2775M249.82 14.1416H296.956M249.82 61.2775V108.413M249.82 61.2775H296.956M249.82 108.413V155.549M249.82 108.413H296.956M249.82 155.549V202.685M249.82 155.549H296.956M249.82 202.685V249.821M249.82 202.685H296.956M249.82 249.821V296.957M249.82 249.821H296.956M249.82 296.957V344.093M249.82 296.957H296.956M249.82 344.093V391.229M249.82 344.093H296.956M249.82 391.229V438.365M249.82 391.229H296.956M249.82 438.365V485.501M249.82 438.365H296.956M249.82 485.501V532.637M249.82 485.501H296.956M249.82 532.637V579.773M249.82 532.637H296.956M249.82 579.773V626.909M249.82 579.773H296.956M249.82 626.909V674.045M249.82 626.909H296.956M249.82 674.045V721.181M249.82 674.045H296.956M249.82 721.181V768.316M249.82 721.181H296.956M249.82 768.316V815.452M249.82 768.316H296.956M249.82 815.452V862.588M249.82 815.452H296.956M249.82 862.588V909.724M249.82 862.588H296.956M249.82 909.724V956.86M249.82 909.724H296.956M249.82 956.86H296.956M296.956 14.1416V61.2775M296.956 14.1416H344.092M296.956 61.2775V108.413M296.956 61.2775H344.092M296.956 108.413V155.549M296.956 108.413H344.092M296.956 155.549V202.685M296.956 155.549H344.092M296.956 202.685V249.821M296.956 202.685H344.092M296.956 249.821V296.957M296.956 249.821H344.092M296.956 296.957V344.093M296.956 296.957H344.092M296.956 344.093V391.229M296.956 344.093H344.092M296.956 391.229V438.365M296.956 391.229H344.092M296.956 438.365V485.501M296.956 438.365H344.092M296.956 485.501V532.637M296.956 485.501H344.092M296.956 532.637V579.773M296.956 532.637H344.092M296.956 579.773V626.909M296.956 579.773H344.092M296.956 626.909V674.045M296.956 626.909H344.092M296.956 674.045V721.181M296.956 674.045H344.092M296.956 721.181V768.316M296.956 721.181H344.092M296.956 768.316V815.452M296.956 768.316H344.092M296.956 815.452V862.588M296.956 815.452H344.092M296.956 862.588V909.724M296.956 862.588H344.092M296.956 909.724V956.86M296.956 909.724H344.092M296.956 956.86H344.092M344.092 14.1416V61.2775M344.092 14.1416H391.228M344.092 61.2775V108.413M344.092 61.2775H391.228M344.092 108.413V155.549M344.092 108.413H391.228M344.092 155.549V202.685M344.092 155.549H391.228M344.092 202.685V249.821M344.092 202.685H391.228M344.092 249.821V296.957M344.092 249.821H391.228M344.092 296.957V344.093M344.092 296.957H391.228M344.092 344.093V391.229M344.092 344.093H391.228M344.092 391.229V438.365M344.092 391.229H391.228M344.092 438.365V485.501M344.092 438.365H391.228M344.092 485.501V532.637M344.092 485.501H391.228M344.092 532.637V579.773M344.092 532.637H391.228M344.092 579.773V626.909M344.092 579.773H391.228M344.092 626.909V674.045M344.092 626.909H391.228M344.092 674.045V721.181M344.092 674.045H391.228M344.092 721.181V768.316M344.092 721.181H391.228M344.092 768.316V815.452M344.092 768.316H391.228M344.092 815.452V862.588M344.092 815.452H391.228M344.092 862.588V909.724M344.092 862.588H391.228M344.092 909.724V956.86M344.092 909.724H391.228M344.092 956.86H391.228M391.228 14.1416V61.2775M391.228 14.1416H438.364M391.228 61.2775V108.413M391.228 61.2775H438.364M391.228 108.413V155.549M391.228 108.413H438.364M391.228 155.549V202.685M391.228 155.549H438.364M391.228 202.685V249.821M391.228 202.685H438.364M391.228 249.821V296.957M391.228 249.821H438.364M391.228 296.957V344.093M391.228 296.957H438.364M391.228 344.093V391.229M391.228 344.093H438.364M391.228 391.229V438.365M391.228 391.229H438.364M391.228 438.365V485.501M391.228 438.365H438.364M391.228 485.501V532.637M391.228 485.501H438.364M391.228 532.637V579.773M391.228 532.637H438.364M391.228 579.773V626.909M391.228 579.773H438.364M391.228 626.909V674.045M391.228 626.909H438.364M391.228 674.045V721.181M391.228 674.045H438.364M391.228 721.181V768.316M391.228 721.181H438.364M391.228 768.316V815.452M391.228 768.316H438.364M391.228 815.452V862.588M391.228 815.452H438.364M391.228 862.588V909.724M391.228 862.588H438.364M391.228 909.724V956.86M391.228 909.724H438.364M391.228 956.86H438.364M438.364 14.1416V61.2775M438.364 14.1416H485.5M438.364 61.2775V108.413M438.364 61.2775H485.5M438.364 108.413V155.549M438.364 108.413H485.5M438.364 155.549V202.685M438.364 155.549H485.5M438.364 202.685V249.821M438.364 202.685H485.5M438.364 249.821V296.957M438.364 249.821H485.5M438.364 296.957V344.093M438.364 296.957H485.5M438.364 344.093V391.229M438.364 344.093H485.5M438.364 391.229V438.365M438.364 391.229H485.5M438.364 438.365V485.501M438.364 438.365H485.5M438.364 485.501V532.637M438.364 485.501H485.5M438.364 532.637V579.773M438.364 532.637H485.5M438.364 579.773V626.909M438.364 579.773H485.5M438.364 626.909V674.045M438.364 626.909H485.5M438.364 674.045V721.181M438.364 674.045H485.5M438.364 721.181V768.316M438.364 721.181H485.5M438.364 768.316V815.452M438.364 768.316H485.5M438.364 815.452V862.588M438.364 815.452H485.5M438.364 862.588V909.724M438.364 862.588H485.5M438.364 909.724V956.86M438.364 909.724H485.5M438.364 956.86H485.5M485.5 14.1416V61.2775M485.5 14.1416H532.636M485.5 61.2775V108.413M485.5 61.2775H532.636M485.5 108.413V155.549M485.5 108.413H532.636M485.5 155.549V202.685M485.5 155.549H532.636M485.5 202.685V249.821M485.5 202.685H532.636M485.5 249.821V296.957M485.5 249.821H532.636M485.5 296.957V344.093M485.5 296.957H532.636M485.5 344.093V391.229M485.5 344.093H532.636M485.5 391.229V438.365M485.5 391.229H532.636M485.5 438.365V485.501M485.5 438.365H532.636M485.5 485.501V532.637M485.5 485.501H532.636M485.5 532.637V579.773M485.5 532.637H532.636M485.5 579.773V626.909M485.5 579.773H532.636M485.5 626.909V674.045M485.5 626.909H532.636M485.5 674.045V721.181M485.5 674.045H532.636M485.5 721.181V768.316M485.5 721.181H532.636M485.5 768.316V815.452M485.5 768.316H532.636M485.5 815.452V862.588M485.5 815.452H532.636M485.5 862.588V909.724M485.5 862.588H532.636M485.5 909.724V956.86M485.5 909.724H532.636M485.5 956.86H532.636M532.636 14.1416V61.2775M532.636 14.1416H579.772M532.636 61.2775V108.413M532.636 61.2775H579.772M532.636 108.413V155.549M532.636 108.413H579.772M532.636 155.549V202.685M532.636 155.549H579.772M532.636 202.685V249.821M532.636 202.685H579.772M532.636 249.821V296.957M532.636 249.821H579.772M532.636 296.957V344.093M532.636 296.957H579.772M532.636 344.093V391.229M532.636 344.093H579.772M532.636 391.229V438.365M532.636 391.229H579.772M532.636 438.365V485.501M532.636 438.365H579.772M532.636 485.501V532.637M532.636 485.501H579.772M532.636 532.637V579.773M532.636 532.637H579.772M532.636 579.773V626.909M532.636 579.773H579.772M532.636 626.909V674.045M532.636 626.909H579.772M532.636 674.045V721.181M532.636 674.045H579.772M532.636 721.181V768.316M532.636 721.181H579.772M532.636 768.316V815.452M532.636 768.316H579.772M532.636 815.452V862.588M532.636 815.452H579.772M532.636 862.588V909.724M532.636 862.588H579.772M532.636 909.724V956.86M532.636 909.724H579.772M532.636 956.86H579.772M579.772 14.1416V61.2775M579.772 14.1416H626.908M579.772 61.2775V108.413M579.772 61.2775H626.908M579.772 108.413V155.549M579.772 108.413H626.908M579.772 155.549V202.685M579.772 155.549H626.908M579.772 202.685V249.821M579.772 202.685H626.908M579.772 249.821V296.957M579.772 249.821H626.908M579.772 296.957V344.093M579.772 296.957H626.908M579.772 344.093V391.229M579.772 344.093H626.908M579.772 391.229V438.365M579.772 391.229H626.908M579.772 438.365V485.501M579.772 438.365H626.908M579.772 485.501V532.637M579.772 485.501H626.908M579.772 532.637V579.773M579.772 532.637H626.908M579.772 579.773V626.909M579.772 579.773H626.908M579.772 626.909V674.045M579.772 626.909H626.908M579.772 674.045V721.181M579.772 674.045H626.908M579.772 721.181V768.316M579.772 721.181H626.908M579.772 768.316V815.452M579.772 768.316H626.908M579.772 815.452V862.588M579.772 815.452H626.908M579.772 862.588V909.724M579.772 862.588H626.908M579.772 909.724V956.86M579.772 909.724H626.908M579.772 956.86H626.908M626.908 14.1416V61.2775M626.908 14.1416H674.044M626.908 61.2775V108.413M626.908 61.2775H674.044M626.908 108.413V155.549M626.908 108.413H674.044M626.908 155.549V202.685M626.908 155.549H674.044M626.908 202.685V249.821M626.908 202.685H674.044M626.908 249.821V296.957M626.908 249.821H674.044M626.908 296.957V344.093M626.908 296.957H674.044M626.908 344.093V391.229M626.908 344.093H674.044M626.908 391.229V438.365M626.908 391.229H674.044M626.908 438.365V485.501M626.908 438.365H674.044M626.908 485.501V532.637M626.908 485.501H674.044M626.908 532.637V579.773M626.908 532.637H674.044M626.908 579.773V626.909M626.908 579.773H674.044M626.908 626.909V674.045M626.908 626.909H674.044M626.908 674.045V721.181M626.908 674.045H674.044M626.908 721.181V768.316M626.908 721.181H674.044M626.908 768.316V815.452M626.908 768.316H674.044M626.908 815.452V862.588M626.908 815.452H674.044M626.908 862.588V909.724M626.908 862.588H674.044M626.908 909.724V956.86M626.908 909.724H674.044M626.908 956.86H674.044M674.044 14.1416V61.2775M674.044 14.1416H721.18M674.044 61.2775V108.413M674.044 61.2775H721.18M674.044 108.413V155.549M674.044 108.413H721.18M674.044 155.549V202.685M674.044 155.549H721.18M674.044 202.685V249.821M674.044 202.685H721.18M674.044 249.821V296.957M674.044 249.821H721.18M674.044 296.957V344.093M674.044 296.957H721.18M674.044 344.093V391.229M674.044 344.093H721.18M674.044 391.229V438.365M674.044 391.229H721.18M674.044 438.365V485.501M674.044 438.365H721.18M674.044 485.501V532.637M674.044 485.501H721.18M674.044 532.637V579.773M674.044 532.637H721.18M674.044 579.773V626.909M674.044 579.773H721.18M674.044 626.909V674.045M674.044 626.909H721.18M674.044 674.045V721.181M674.044 674.045H721.18M674.044 721.181V768.316M674.044 721.181H721.18M674.044 768.316V815.452M674.044 768.316H721.18M674.044 815.452V862.588M674.044 815.452H721.18M674.044 862.588V909.724M674.044 862.588H721.18M674.044 909.724V956.86M674.044 909.724H721.18M674.044 956.86H721.18M721.18 14.1416V61.2775M721.18 14.1416H768.316M721.18 61.2775V108.413M721.18 61.2775H768.316M721.18 108.413V155.549M721.18 108.413H768.316M721.18 155.549V202.685M721.18 155.549H768.316M721.18 202.685V249.821M721.18 202.685H768.316M721.18 249.821V296.957M721.18 249.821H768.316M721.18 296.957V344.093M721.18 296.957H768.316M721.18 344.093V391.229M721.18 344.093H768.316M721.18 391.229V438.365M721.18 391.229H768.316M721.18 438.365V485.501M721.18 438.365H768.316M721.18 485.501V532.637M721.18 485.501H768.316M721.18 532.637V579.773M721.18 532.637H768.316M721.18 579.773V626.909M721.18 579.773H768.316M721.18 626.909V674.045M721.18 626.909H768.316M721.18 674.045V721.181M721.18 674.045H768.316M721.18 721.181V768.316M721.18 721.181H768.316M721.18 768.316V815.452M721.18 768.316H768.316M721.18 815.452V862.588M721.18 815.452H768.316M721.18 862.588V909.724M721.18 862.588H768.316M721.18 909.724V956.86M721.18 909.724H768.316M721.18 956.86H768.316M768.316 14.1416V61.2775M768.316 14.1416H815.452M768.316 61.2775V108.413M768.316 61.2775H815.452M768.316 108.413V155.549M768.316 108.413H815.452M768.316 155.549V202.685M768.316 155.549H815.452M768.316 202.685V249.821M768.316 202.685H815.452M768.316 249.821V296.957M768.316 249.821H815.452M768.316 296.957V344.093M768.316 296.957H815.452M768.316 344.093V391.229M768.316 344.093H815.452M768.316 391.229V438.365M768.316 391.229H815.452M768.316 438.365V485.501M768.316 438.365H815.452M768.316 485.501V532.637M768.316 485.501H815.452M768.316 532.637V579.773M768.316 532.637H815.452M768.316 579.773V626.909M768.316 579.773H815.452M768.316 626.909V674.045M768.316 626.909H815.452M768.316 674.045V721.181M768.316 674.045H815.452M768.316 721.181V768.316M768.316 721.181H815.452M768.316 768.316V815.452M768.316 768.316H815.452M768.316 815.452V862.588M768.316 815.452H815.452M768.316 862.588V909.724M768.316 862.588H815.452M768.316 909.724V956.86M768.316 909.724H815.452M768.316 956.86H815.452M815.452 14.1416V61.2775M815.452 14.1416H862.587M815.452 61.2775V108.413M815.452 61.2775H862.587M815.452 108.413V155.549M815.452 108.413H862.587M815.452 155.549V202.685M815.452 155.549H862.587M815.452 202.685V249.821M815.452 202.685H862.587M815.452 249.821V296.957M815.452 249.821H862.587M815.452 296.957V344.093M815.452 296.957H862.587M815.452 344.093V391.229M815.452 344.093H862.587M815.452 391.229V438.365M815.452 391.229H862.587M815.452 438.365V485.501M815.452 438.365H862.587M815.452 485.501V532.637M815.452 485.501H862.587M815.452 532.637V579.773M815.452 532.637H862.587M815.452 579.773V626.909M815.452 579.773H862.587M815.452 626.909V674.045M815.452 626.909H862.587M815.452 674.045V721.181M815.452 674.045H862.587M815.452 721.181V768.316M815.452 721.181H862.587M815.452 768.316V815.452M815.452 768.316H862.587M815.452 815.452V862.588M815.452 815.452H862.587M815.452 862.588V909.724M815.452 862.588H862.587M815.452 909.724V956.86M815.452 909.724H862.587M815.452 956.86H862.587M862.587 14.1416V61.2775M862.587 14.1416H909.723M862.587 61.2775V108.413M862.587 61.2775H909.723M862.587 108.413V155.549M862.587 108.413H909.723M862.587 155.549V202.685M862.587 155.549H909.723M862.587 202.685V249.821M862.587 202.685H909.723M862.587 249.821V296.957M862.587 249.821H909.723M862.587 296.957V344.093M862.587 296.957H909.723M862.587 344.093V391.229M862.587 344.093H909.723M862.587 391.229V438.365M862.587 391.229H909.723M862.587 438.365V485.501M862.587 438.365H909.723M862.587 485.501V532.637M862.587 485.501H909.723M862.587 532.637V579.773M862.587 532.637H909.723M862.587 579.773V626.909M862.587 579.773H909.723M862.587 626.909V674.045M862.587 626.909H909.723M862.587 674.045V721.181M862.587 674.045H909.723M862.587 721.181V768.316M862.587 721.181H909.723M862.587 768.316V815.452M862.587 768.316H909.723M862.587 815.452V862.588M862.587 815.452H909.723M862.587 862.588V909.724M862.587 862.588H909.723M862.587 909.724V956.86M862.587 909.724H909.723M862.587 956.86H909.723M909.723 14.1416V61.2775M909.723 14.1416H956.859M909.723 61.2775V108.413M909.723 61.2775H956.859M909.723 108.413V155.549M909.723 108.413H956.859M909.723 155.549V202.685M909.723 155.549H956.859M909.723 202.685V249.821M909.723 202.685H956.859M909.723 249.821V296.957M909.723 249.821H956.859M909.723 296.957V344.093M909.723 296.957H956.859M909.723 344.093V391.229M909.723 344.093H956.859M909.723 391.229V438.365M909.723 391.229H956.859M909.723 438.365V485.501M909.723 438.365H956.859M909.723 485.501V532.637M909.723 485.501H956.859M909.723 532.637V579.773M909.723 532.637H956.859M909.723 579.773V626.909M909.723 579.773H956.859M909.723 626.909V674.045M909.723 626.909H956.859M909.723 674.045V721.181M909.723 674.045H956.859M909.723 721.181V768.316M909.723 721.181H956.859M909.723 768.316V815.452M909.723 768.316H956.859M909.723 815.452V862.588M909.723 815.452H956.859M909.723 862.588V909.724M909.723 862.588H956.859M909.723 909.724V956.86M909.723 909.724H956.859M909.723 956.86H956.859M956.859 14.1416V61.2775M956.859 14.1416H1004M956.859 61.2775V108.413M956.859 61.2775H1004M956.859 108.413V155.549M956.859 108.413H1004M956.859 155.549V202.685M956.859 155.549H1004M956.859 202.685V249.821M956.859 202.685H1004M956.859 249.821V296.957M956.859 249.821H1004M956.859 296.957V344.093M956.859 296.957H1004M956.859 344.093V391.229M956.859 344.093H1004M956.859 391.229V438.365M956.859 391.229H1004M956.859 438.365V485.501M956.859 438.365H1004M956.859 485.501V532.637M956.859 485.501H1004M956.859 532.637V579.773M956.859 532.637H1004M956.859 579.773V626.909M956.859 579.773H1004M956.859 626.909V674.045M956.859 626.909H1004M956.859 674.045V721.181M956.859 674.045H1004M956.859 721.181V768.316M956.859 721.181H1004M956.859 768.316V815.452M956.859 768.316H1004M956.859 815.452V862.588M956.859 815.452H1004M956.859 862.588V909.724M956.859 862.588H1004M956.859 909.724V956.86M956.859 909.724H1004M956.859 956.86H1004M1004 14.1416V61.2775M1004 14.1416H1051.13M1004 61.2775V108.413M1004 61.2775H1051.13M1004 108.413V155.549M1004 108.413H1051.13M1004 155.549V202.685M1004 155.549H1051.13M1004 202.685V249.821M1004 202.685H1051.13M1004 249.821V296.957M1004 249.821H1051.13M1004 296.957V344.093M1004 296.957H1051.13M1004 344.093V391.229M1004 344.093H1051.13M1004 391.229V438.365M1004 391.229H1051.13M1004 438.365V485.501M1004 438.365H1051.13M1004 485.501V532.637M1004 485.501H1051.13M1004 532.637V579.773M1004 532.637H1051.13M1004 579.773V626.909M1004 579.773H1051.13M1004 626.909V674.045M1004 626.909H1051.13M1004 674.045V721.181M1004 674.045H1051.13M1004 721.181V768.316M1004 721.181H1051.13M1004 768.316V815.452M1004 768.316H1051.13M1004 815.452V862.588M1004 815.452H1051.13M1004 862.588V909.724M1004 862.588H1051.13M1004 909.724V956.86M1004 909.724H1051.13M1004 956.86H1051.13M1051.13 14.1416V61.2775M1051.13 14.1416H1098.27M1051.13 61.2775V108.413M1051.13 61.2775H1098.27M1051.13 108.413V155.549M1051.13 108.413H1098.27M1051.13 155.549V202.685M1051.13 155.549H1098.27M1051.13 202.685V249.821M1051.13 202.685H1098.27M1051.13 249.821V296.957M1051.13 249.821H1098.27M1051.13 296.957V344.093M1051.13 296.957H1098.27M1051.13 344.093V391.229M1051.13 344.093H1098.27M1051.13 391.229V438.365M1051.13 391.229H1098.27M1051.13 438.365V485.501M1051.13 438.365H1098.27M1051.13 485.501V532.637M1051.13 485.501H1098.27M1051.13 532.637V579.773M1051.13 532.637H1098.27M1051.13 579.773V626.909M1051.13 579.773H1098.27M1051.13 626.909V674.045M1051.13 626.909H1098.27M1051.13 674.045V721.181M1051.13 674.045H1098.27M1051.13 721.181V768.316M1051.13 721.181H1098.27M1051.13 768.316V815.452M1051.13 768.316H1098.27M1051.13 815.452V862.588M1051.13 815.452H1098.27M1051.13 862.588V909.724M1051.13 862.588H1098.27M1051.13 909.724V956.86M1051.13 909.724H1098.27M1051.13 956.86H1098.27M1098.27 14.1416V61.2775M1098.27 14.1416H1145.4M1098.27 61.2775V108.413M1098.27 61.2775H1145.4M1098.27 108.413V155.549M1098.27 108.413H1145.4M1098.27 155.549V202.685M1098.27 155.549H1145.4M1098.27 202.685V249.821M1098.27 202.685H1145.4M1098.27 249.821V296.957M1098.27 249.821H1145.4M1098.27 296.957V344.093M1098.27 296.957H1145.4M1098.27 344.093V391.229M1098.27 344.093H1145.4M1098.27 391.229V438.365M1098.27 391.229H1145.4M1098.27 438.365V485.501M1098.27 438.365H1145.4M1098.27 485.501V532.637M1098.27 485.501H1145.4M1098.27 532.637V579.773M1098.27 532.637H1145.4M1098.27 579.773V626.909M1098.27 579.773H1145.4M1098.27 626.909V674.045M1098.27 626.909H1145.4M1098.27 674.045V721.181M1098.27 674.045H1145.4M1098.27 721.181V768.316M1098.27 721.181H1145.4M1098.27 768.316V815.452M1098.27 768.316H1145.4M1098.27 815.452V862.588M1098.27 815.452H1145.4M1098.27 862.588V909.724M1098.27 862.588H1145.4M1098.27 909.724V956.86M1098.27 909.724H1145.4M1098.27 956.86H1145.4M1145.4 14.1416V61.2775M1145.4 14.1416H1192.54M1145.4 61.2775V108.413M1145.4 61.2775H1192.54M1145.4 108.413V155.549M1145.4 108.413H1192.54M1145.4 155.549V202.685M1145.4 155.549H1192.54M1145.4 202.685V249.821M1145.4 202.685H1192.54M1145.4 249.821V296.957M1145.4 249.821H1192.54M1145.4 296.957V344.093M1145.4 296.957H1192.54M1145.4 344.093V391.229M1145.4 344.093H1192.54M1145.4 391.229V438.365M1145.4 391.229H1192.54M1145.4 438.365V485.501M1145.4 438.365H1192.54M1145.4 485.501V532.637M1145.4 485.501H1192.54M1145.4 532.637V579.773M1145.4 532.637H1192.54M1145.4 579.773V626.909M1145.4 579.773H1192.54M1145.4 626.909V674.045M1145.4 626.909H1192.54M1145.4 674.045V721.181M1145.4 674.045H1192.54M1145.4 721.181V768.316M1145.4 721.181H1192.54M1145.4 768.316V815.452M1145.4 768.316H1192.54M1145.4 815.452V862.588M1145.4 815.452H1192.54M1145.4 862.588V909.724M1145.4 862.588H1192.54M1145.4 909.724V956.86M1145.4 909.724H1192.54M1145.4 956.86H1192.54M1192.54 14.1416V61.2775M1192.54 14.1416H1239.67M1192.54 61.2775V108.413M1192.54 61.2775H1239.67M1192.54 108.413V155.549M1192.54 108.413H1239.67M1192.54 155.549V202.685M1192.54 155.549H1239.67M1192.54 202.685V249.821M1192.54 202.685H1239.67M1192.54 249.821V296.957M1192.54 249.821H1239.67M1192.54 296.957V344.093M1192.54 296.957H1239.67M1192.54 344.093V391.229M1192.54 344.093H1239.67M1192.54 391.229V438.365M1192.54 391.229H1239.67M1192.54 438.365V485.501M1192.54 438.365H1239.67M1192.54 485.501V532.637M1192.54 485.501H1239.67M1192.54 532.637V579.773M1192.54 532.637H1239.67M1192.54 579.773V626.909M1192.54 579.773H1239.67M1192.54 626.909V674.045M1192.54 626.909H1239.67M1192.54 674.045V721.181M1192.54 674.045H1239.67M1192.54 721.181V768.316M1192.54 721.181H1239.67M1192.54 768.316V815.452M1192.54 768.316H1239.67M1192.54 815.452V862.588M1192.54 815.452H1239.67M1192.54 862.588V909.724M1192.54 862.588H1239.67M1192.54 909.724V956.86M1192.54 909.724H1239.67M1192.54 956.86H1239.67M1239.67 14.1416V61.2775M1239.67 14.1416H1286.81M1239.67 61.2775V108.413M1239.67 61.2775H1286.81M1239.67 108.413V155.549M1239.67 108.413H1286.81M1239.67 155.549V202.685M1239.67 155.549H1286.81M1239.67 202.685V249.821M1239.67 202.685H1286.81M1239.67 249.821V296.957M1239.67 249.821H1286.81M1239.67 296.957V344.093M1239.67 296.957H1286.81M1239.67 344.093V391.229M1239.67 344.093H1286.81M1239.67 391.229V438.365M1239.67 391.229H1286.81M1239.67 438.365V485.501M1239.67 438.365H1286.81M1239.67 485.501V532.637M1239.67 485.501H1286.81M1239.67 532.637V579.773M1239.67 532.637H1286.81M1239.67 579.773V626.909M1239.67 579.773H1286.81M1239.67 626.909V674.045M1239.67 626.909H1286.81M1239.67 674.045V721.181M1239.67 674.045H1286.81M1239.67 721.181V768.316M1239.67 721.181H1286.81M1239.67 768.316V815.452M1239.67 768.316H1286.81M1239.67 815.452V862.588M1239.67 815.452H1286.81M1239.67 862.588V909.724M1239.67 862.588H1286.81M1239.67 909.724V956.86M1239.67 909.724H1286.81M1239.67 956.86H1286.81M1286.81 14.1416V61.2775M1286.81 14.1416H1333.95M1286.81 61.2775V108.413M1286.81 61.2775H1333.95M1286.81 108.413V155.549M1286.81 108.413H1333.95M1286.81 155.549V202.685M1286.81 155.549H1333.95M1286.81 202.685V249.821M1286.81 202.685H1333.95M1286.81 249.821V296.957M1286.81 249.821H1333.95M1286.81 296.957V344.093M1286.81 296.957H1333.95M1286.81 344.093V391.229M1286.81 344.093H1333.95M1286.81 391.229V438.365M1286.81 391.229H1333.95M1286.81 438.365V485.501M1286.81 438.365H1333.95M1286.81 485.501V532.637M1286.81 485.501H1333.95M1286.81 532.637V579.773M1286.81 532.637H1333.95M1286.81 579.773V626.909M1286.81 579.773H1333.95M1286.81 626.909V674.045M1286.81 626.909H1333.95M1286.81 674.045V721.181M1286.81 674.045H1333.95M1286.81 721.181V768.316M1286.81 721.181H1333.95M1286.81 768.316V815.452M1286.81 768.316H1333.95M1286.81 815.452V862.588M1286.81 815.452H1333.95M1286.81 862.588V909.724M1286.81 862.588H1333.95M1286.81 909.724V956.86M1286.81 909.724H1333.95M1286.81 956.86H1333.95M1333.95 14.1416V61.2775M1333.95 14.1416H1381.08M1333.95 61.2775V108.413M1333.95 61.2775H1381.08M1333.95 108.413V155.549M1333.95 108.413H1381.08M1333.95 155.549V202.685M1333.95 155.549H1381.08M1333.95 202.685V249.821M1333.95 202.685H1381.08M1333.95 249.821V296.957M1333.95 249.821H1381.08M1333.95 296.957V344.093M1333.95 296.957H1381.08M1333.95 344.093V391.229M1333.95 344.093H1381.08M1333.95 391.229V438.365M1333.95 391.229H1381.08M1333.95 438.365V485.501M1333.95 438.365H1381.08M1333.95 485.501V532.637M1333.95 485.501H1381.08M1333.95 532.637V579.773M1333.95 532.637H1381.08M1333.95 579.773V626.909M1333.95 579.773H1381.08M1333.95 626.909V674.045M1333.95 626.909H1381.08M1333.95 674.045V721.181M1333.95 674.045H1381.08M1333.95 721.181V768.316M1333.95 721.181H1381.08M1333.95 768.316V815.452M1333.95 768.316H1381.08M1333.95 815.452V862.588M1333.95 815.452H1381.08M1333.95 862.588V909.724M1333.95 862.588H1381.08M1333.95 909.724V956.86M1333.95 909.724H1381.08M1333.95 956.86H1381.08M1381.08 14.1416V61.2775M1381.08 14.1416H1428.22M1381.08 61.2775V108.413M1381.08 61.2775H1428.22M1381.08 108.413V155.549M1381.08 108.413H1428.22M1381.08 155.549V202.685M1381.08 155.549H1428.22M1381.08 202.685V249.821M1381.08 202.685H1428.22M1381.08 249.821V296.957M1381.08 249.821H1428.22M1381.08 296.957V344.093M1381.08 296.957H1428.22M1381.08 344.093V391.229M1381.08 344.093H1428.22M1381.08 391.229V438.365M1381.08 391.229H1428.22M1381.08 438.365V485.501M1381.08 438.365H1428.22M1381.08 485.501V532.637M1381.08 485.501H1428.22M1381.08 532.637V579.773M1381.08 532.637H1428.22M1381.08 579.773V626.909M1381.08 579.773H1428.22M1381.08 626.909V674.045M1381.08 626.909H1428.22M1381.08 674.045V721.181M1381.08 674.045H1428.22M1381.08 721.181V768.316M1381.08 721.181H1428.22M1381.08 768.316V815.452M1381.08 768.316H1428.22M1381.08 815.452V862.588M1381.08 815.452H1428.22M1381.08 862.588V909.724M1381.08 862.588H1428.22M1381.08 909.724V956.86M1381.08 909.724H1428.22M1381.08 956.86H1428.22M1428.22 14.1416V61.2775M1428.22 14.1416H1475.35M1428.22 61.2775V108.413M1428.22 61.2775H1475.35M1428.22 108.413V155.549M1428.22 108.413H1475.35M1428.22 155.549V202.685M1428.22 155.549H1475.35M1428.22 202.685V249.821M1428.22 202.685H1475.35M1428.22 249.821V296.957M1428.22 249.821H1475.35M1428.22 296.957V344.093M1428.22 296.957H1475.35M1428.22 344.093V391.229M1428.22 344.093H1475.35M1428.22 391.229V438.365M1428.22 391.229H1475.35M1428.22 438.365V485.501M1428.22 438.365H1475.35M1428.22 485.501V532.637M1428.22 485.501H1475.35M1428.22 532.637V579.773M1428.22 532.637H1475.35M1428.22 579.773V626.909M1428.22 579.773H1475.35M1428.22 626.909V674.045M1428.22 626.909H1475.35M1428.22 674.045V721.181M1428.22 674.045H1475.35M1428.22 721.181V768.316M1428.22 721.181H1475.35M1428.22 768.316V815.452M1428.22 768.316H1475.35M1428.22 815.452V862.588M1428.22 815.452H1475.35M1428.22 862.588V909.724M1428.22 862.588H1475.35M1428.22 909.724V956.86M1428.22 909.724H1475.35M1428.22 956.86H1475.35M1475.35 14.1416V61.2775M1475.35 14.1416H1522.49M1475.35 61.2775V108.413M1475.35 61.2775H1522.49M1475.35 108.413V155.549M1475.35 108.413H1522.49M1475.35 155.549V202.685M1475.35 155.549H1522.49M1475.35 202.685V249.821M1475.35 202.685H1522.49M1475.35 249.821V296.957M1475.35 249.821H1522.49M1475.35 296.957V344.093M1475.35 296.957H1522.49M1475.35 344.093V391.229M1475.35 344.093H1522.49M1475.35 391.229V438.365M1475.35 391.229H1522.49M1475.35 438.365V485.501M1475.35 438.365H1522.49M1475.35 485.501V532.637M1475.35 485.501H1522.49M1475.35 532.637V579.773M1475.35 532.637H1522.49M1475.35 579.773V626.909M1475.35 579.773H1522.49M1475.35 626.909V674.045M1475.35 626.909H1522.49M1475.35 674.045V721.181M1475.35 674.045H1522.49M1475.35 721.181V768.316M1475.35 721.181H1522.49M1475.35 768.316V815.452M1475.35 768.316H1522.49M1475.35 815.452V862.588M1475.35 815.452H1522.49M1475.35 862.588V909.724M1475.35 862.588H1522.49M1475.35 909.724V956.86M1475.35 909.724H1522.49M1475.35 956.86H1522.49M1522.49 14.1416V61.2775M1522.49 14.1416H1569.63M1522.49 61.2775V108.413M1522.49 61.2775H1569.63M1522.49 108.413V155.549M1522.49 108.413H1569.63M1522.49 155.549V202.685M1522.49 155.549H1569.63M1522.49 202.685V249.821M1522.49 202.685H1569.63M1522.49 249.821V296.957M1522.49 249.821H1569.63M1522.49 296.957V344.093M1522.49 296.957H1569.63M1522.49 344.093V391.229M1522.49 344.093H1569.63M1522.49 391.229V438.365M1522.49 391.229H1569.63M1522.49 438.365V485.501M1522.49 438.365H1569.63M1522.49 485.501V532.637M1522.49 485.501H1569.63M1522.49 532.637V579.773M1522.49 532.637H1569.63M1522.49 579.773V626.909M1522.49 579.773H1569.63M1522.49 626.909V674.045M1522.49 626.909H1569.63M1522.49 674.045V721.181M1522.49 674.045H1569.63M1522.49 721.181V768.316M1522.49 721.181H1569.63M1522.49 768.316V815.452M1522.49 768.316H1569.63M1522.49 815.452V862.588M1522.49 815.452H1569.63M1522.49 862.588V909.724M1522.49 862.588H1569.63M1522.49 909.724V956.86M1522.49 909.724H1569.63M1522.49 956.86H1569.63M1569.63 14.1416V61.2775M1569.63 14.1416H1616.76M1569.63 61.2775V108.413M1569.63 61.2775H1616.76M1569.63 108.413V155.549M1569.63 108.413H1616.76M1569.63 155.549V202.685M1569.63 155.549H1616.76M1569.63 202.685V249.821M1569.63 202.685H1616.76M1569.63 249.821V296.957M1569.63 249.821H1616.76M1569.63 296.957V344.093M1569.63 296.957H1616.76M1569.63 344.093V391.229M1569.63 344.093H1616.76M1569.63 391.229V438.365M1569.63 391.229H1616.76M1569.63 438.365V485.501M1569.63 438.365H1616.76M1569.63 485.501V532.637M1569.63 485.501H1616.76M1569.63 532.637V579.773M1569.63 532.637H1616.76M1569.63 579.773V626.909M1569.63 579.773H1616.76M1569.63 626.909V674.045M1569.63 626.909H1616.76M1569.63 674.045V721.181M1569.63 674.045H1616.76M1569.63 721.181V768.316M1569.63 721.181H1616.76M1569.63 768.316V815.452M1569.63 768.316H1616.76M1569.63 815.452V862.588M1569.63 815.452H1616.76M1569.63 862.588V909.724M1569.63 862.588H1616.76M1569.63 909.724V956.86M1569.63 909.724H1616.76M1569.63 956.86H1616.76M1616.76 14.1416V61.2775M1616.76 14.1416H1663.9M1616.76 61.2775V108.413M1616.76 61.2775H1663.9M1616.76 108.413V155.549M1616.76 108.413H1663.9M1616.76 155.549V202.685M1616.76 155.549H1663.9M1616.76 202.685V249.821M1616.76 202.685H1663.9M1616.76 249.821V296.957M1616.76 249.821H1663.9M1616.76 296.957V344.093M1616.76 296.957H1663.9M1616.76 344.093V391.229M1616.76 344.093H1663.9M1616.76 391.229V438.365M1616.76 391.229H1663.9M1616.76 438.365V485.501M1616.76 438.365H1663.9M1616.76 485.501V532.637M1616.76 485.501H1663.9M1616.76 532.637V579.773M1616.76 532.637H1663.9M1616.76 579.773V626.909M1616.76 579.773H1663.9M1616.76 626.909V674.045M1616.76 626.909H1663.9M1616.76 674.045V721.181M1616.76 674.045H1663.9M1616.76 721.181V768.316M1616.76 721.181H1663.9M1616.76 768.316V815.452M1616.76 768.316H1663.9M1616.76 815.452V862.588M1616.76 815.452H1663.9M1616.76 862.588V909.724M1616.76 862.588H1663.9M1616.76 909.724V956.86M1616.76 909.724H1663.9M1616.76 956.86H1663.9M1663.9 14.1416V61.2775M1663.9 14.1416H1711.03M1663.9 61.2775V108.413M1663.9 61.2775H1711.03M1663.9 108.413V155.549M1663.9 108.413H1711.03M1663.9 155.549V202.685M1663.9 155.549H1711.03M1663.9 202.685V249.821M1663.9 202.685H1711.03M1663.9 249.821V296.957M1663.9 249.821H1711.03M1663.9 296.957V344.093M1663.9 296.957H1711.03M1663.9 344.093V391.229M1663.9 344.093H1711.03M1663.9 391.229V438.365M1663.9 391.229H1711.03M1663.9 438.365V485.501M1663.9 438.365H1711.03M1663.9 485.501V532.637M1663.9 485.501H1711.03M1663.9 532.637V579.773M1663.9 532.637H1711.03M1663.9 579.773V626.909M1663.9 579.773H1711.03M1663.9 626.909V674.045M1663.9 626.909H1711.03M1663.9 674.045V721.181M1663.9 674.045H1711.03M1663.9 721.181V768.316M1663.9 721.181H1711.03M1663.9 768.316V815.452M1663.9 768.316H1711.03M1663.9 815.452V862.588M1663.9 815.452H1711.03M1663.9 862.588V909.724M1663.9 862.588H1711.03M1663.9 909.724V956.86M1663.9 909.724H1711.03M1663.9 956.86H1711.03M1711.03 14.1416V61.2775M1711.03 14.1416H1758.17M1711.03 61.2775V108.413M1711.03 61.2775H1758.17M1711.03 108.413V155.549M1711.03 108.413H1758.17M1711.03 155.549V202.685M1711.03 155.549H1758.17M1711.03 202.685V249.821M1711.03 202.685H1758.17M1711.03 249.821V296.957M1711.03 249.821H1758.17M1711.03 296.957V344.093M1711.03 296.957H1758.17M1711.03 344.093V391.229M1711.03 344.093H1758.17M1711.03 391.229V438.365M1711.03 391.229H1758.17M1711.03 438.365V485.501M1711.03 438.365H1758.17M1711.03 485.501V532.637M1711.03 485.501H1758.17M1711.03 532.637V579.773M1711.03 532.637H1758.17M1711.03 579.773V626.909M1711.03 579.773H1758.17M1711.03 626.909V674.045M1711.03 626.909H1758.17M1711.03 674.045V721.181M1711.03 674.045H1758.17M1711.03 721.181V768.316M1711.03 721.181H1758.17M1711.03 768.316V815.452M1711.03 768.316H1758.17M1711.03 815.452V862.588M1711.03 815.452H1758.17M1711.03 862.588V909.724M1711.03 862.588H1758.17M1711.03 909.724V956.86M1711.03 909.724H1758.17M1711.03 956.86H1758.17M1758.17 14.1416V61.2775M1758.17 14.1416H1805.31M1758.17 61.2775V108.413M1758.17 61.2775H1805.31M1758.17 108.413V155.549M1758.17 108.413H1805.31M1758.17 155.549V202.685M1758.17 155.549H1805.31M1758.17 202.685V249.821M1758.17 202.685H1805.31M1758.17 249.821V296.957M1758.17 249.821H1805.31M1758.17 296.957V344.093M1758.17 296.957H1805.31M1758.17 344.093V391.229M1758.17 344.093H1805.31M1758.17 391.229V438.365M1758.17 391.229H1805.31M1758.17 438.365V485.501M1758.17 438.365H1805.31M1758.17 485.501V532.637M1758.17 485.501H1805.31M1758.17 532.637V579.773M1758.17 532.637H1805.31M1758.17 579.773V626.909M1758.17 579.773H1805.31M1758.17 626.909V674.045M1758.17 626.909H1805.31M1758.17 674.045V721.181M1758.17 674.045H1805.31M1758.17 721.181V768.316M1758.17 721.181H1805.31M1758.17 768.316V815.452M1758.17 768.316H1805.31M1758.17 815.452V862.588M1758.17 815.452H1805.31M1758.17 862.588V909.724M1758.17 862.588H1805.31M1758.17 909.724V956.86M1758.17 909.724H1805.31M1758.17 956.86H1805.31M1805.31 14.1416V61.2775M1805.31 14.1416H1852.44M1805.31 61.2775V108.413M1805.31 61.2775H1852.44M1805.31 108.413V155.549M1805.31 108.413H1852.44M1805.31 155.549V202.685M1805.31 155.549H1852.44M1805.31 202.685V249.821M1805.31 202.685H1852.44M1805.31 249.821V296.957M1805.31 249.821H1852.44M1805.31 296.957V344.093M1805.31 296.957H1852.44M1805.31 344.093V391.229M1805.31 344.093H1852.44M1805.31 391.229V438.365M1805.31 391.229H1852.44M1805.31 438.365V485.501M1805.31 438.365H1852.44M1805.31 485.501V532.637M1805.31 485.501H1852.44M1805.31 532.637V579.773M1805.31 532.637H1852.44M1805.31 579.773V626.909M1805.31 579.773H1852.44M1805.31 626.909V674.045M1805.31 626.909H1852.44M1805.31 674.045V721.181M1805.31 674.045H1852.44M1805.31 721.181V768.316M1805.31 721.181H1852.44M1805.31 768.316V815.452M1805.31 768.316H1852.44M1805.31 815.452V862.588M1805.31 815.452H1852.44M1805.31 862.588V909.724M1805.31 862.588H1852.44M1805.31 909.724V956.86M1805.31 909.724H1852.44M1805.31 956.86H1852.44M1852.44 14.1416V61.2775M1852.44 14.1416H1899.58M1852.44 61.2775V108.413M1852.44 61.2775H1899.58M1852.44 108.413V155.549M1852.44 108.413H1899.58M1852.44 155.549V202.685M1852.44 155.549H1899.58M1852.44 202.685V249.821M1852.44 202.685H1899.58M1852.44 249.821V296.957M1852.44 249.821H1899.58M1852.44 296.957V344.093M1852.44 296.957H1899.58M1852.44 344.093V391.229M1852.44 344.093H1899.58M1852.44 391.229V438.365M1852.44 391.229H1899.58M1852.44 438.365V485.501M1852.44 438.365H1899.58M1852.44 485.501V532.637M1852.44 485.501H1899.58M1852.44 532.637V579.773M1852.44 532.637H1899.58M1852.44 579.773V626.909M1852.44 579.773H1899.58M1852.44 626.909V674.045M1852.44 626.909H1899.58M1852.44 674.045V721.181M1852.44 674.045H1899.58M1852.44 721.181V768.316M1852.44 721.181H1899.58M1852.44 768.316V815.452M1852.44 768.316H1899.58M1852.44 815.452V862.588M1852.44 815.452H1899.58M1852.44 862.588V909.724M1852.44 862.588H1899.58M1852.44 909.724V956.86M1852.44 909.724H1899.58M1852.44 956.86H1899.58M1899.58 14.1416V61.2775M1899.58 14.1416H1946.71M1899.58 61.2775V108.413M1899.58 61.2775H1946.71M1899.58 108.413V155.549M1899.58 108.413H1946.71M1899.58 155.549V202.685M1899.58 155.549H1946.71M1899.58 202.685V249.821M1899.58 202.685H1946.71M1899.58 249.821V296.957M1899.58 249.821H1946.71M1899.58 296.957V344.093M1899.58 296.957H1946.71M1899.58 344.093V391.229M1899.58 344.093H1946.71M1899.58 391.229V438.365M1899.58 391.229H1946.71M1899.58 438.365V485.501M1899.58 438.365H1946.71M1899.58 485.501V532.637M1899.58 485.501H1946.71M1899.58 532.637V579.773M1899.58 532.637H1946.71M1899.58 579.773V626.909M1899.58 579.773H1946.71M1899.58 626.909V674.045M1899.58 626.909H1946.71M1899.58 674.045V721.181M1899.58 674.045H1946.71M1899.58 721.181V768.316M1899.58 721.181H1946.71M1899.58 768.316V815.452M1899.58 768.316H1946.71M1899.58 815.452V862.588M1899.58 815.452H1946.71M1899.58 862.588V909.724M1899.58 862.588H1946.71M1899.58 909.724V956.86M1899.58 909.724H1946.71M1899.58 956.86H1946.71M1946.71 14.1416V61.2775M1946.71 14.1416H1993.85M1946.71 61.2775V108.413M1946.71 61.2775H1993.85M1946.71 108.413V155.549M1946.71 108.413H1993.85M1946.71 155.549V202.685M1946.71 155.549H1993.85M1946.71 202.685V249.821M1946.71 202.685H1993.85M1946.71 249.821V296.957M1946.71 249.821H1993.85M1946.71 296.957V344.093M1946.71 296.957H1993.85M1946.71 344.093V391.229M1946.71 344.093H1993.85M1946.71 391.229V438.365M1946.71 391.229H1993.85M1946.71 438.365V485.501M1946.71 438.365H1993.85M1946.71 485.501V532.637M1946.71 485.501H1993.85M1946.71 532.637V579.773M1946.71 532.637H1993.85M1946.71 579.773V626.909M1946.71 579.773H1993.85M1946.71 626.909V674.045M1946.71 626.909H1993.85M1946.71 674.045V721.181M1946.71 674.045H1993.85M1946.71 721.181V768.316M1946.71 721.181H1993.85M1946.71 768.316V815.452M1946.71 768.316H1993.85M1946.71 815.452V862.588M1946.71 815.452H1993.85M1946.71 862.588V909.724M1946.71 862.588H1993.85M1946.71 909.724V956.86M1946.71 909.724H1993.85M1946.71 956.86H1993.85M1993.85 14.1416V61.2775M1993.85 14.1416H2040.99M1993.85 61.2775V108.413M1993.85 61.2775H2040.99M1993.85 108.413V155.549M1993.85 108.413H2040.99M1993.85 155.549V202.685M1993.85 155.549H2040.99M1993.85 202.685V249.821M1993.85 202.685H2040.99M1993.85 249.821V296.957M1993.85 249.821H2040.99M1993.85 296.957V344.093M1993.85 296.957H2040.99M1993.85 344.093V391.229M1993.85 344.093H2040.99M1993.85 391.229V438.365M1993.85 391.229H2040.99M1993.85 438.365V485.501M1993.85 438.365H2040.99M1993.85 485.501V532.637M1993.85 485.501H2040.99M1993.85 532.637V579.773M1993.85 532.637H2040.99M1993.85 579.773V626.909M1993.85 579.773H2040.99M1993.85 626.909V674.045M1993.85 626.909H2040.99M1993.85 674.045V721.181M1993.85 674.045H2040.99M1993.85 721.181V768.316M1993.85 721.181H2040.99M1993.85 768.316V815.452M1993.85 768.316H2040.99M1993.85 815.452V862.588M1993.85 815.452H2040.99M1993.85 862.588V909.724M1993.85 862.588H2040.99M1993.85 909.724V956.86M1993.85 909.724H2040.99M1993.85 956.86H2040.99M2040.99 14.1416V61.2775M2040.99 14.1416H2088.12V61.2775M2040.99 61.2775V108.413M2040.99 61.2775H2088.12M2040.99 108.413V155.549M2040.99 108.413H2088.12M2040.99 155.549V202.685M2040.99 155.549H2088.12M2040.99 202.685V249.821M2040.99 202.685H2088.12M2040.99 249.821V296.957M2040.99 249.821H2088.12M2040.99 296.957V344.093M2040.99 296.957H2088.12M2040.99 344.093V391.229M2040.99 344.093H2088.12M2040.99 391.229V438.365M2040.99 391.229H2088.12M2040.99 438.365V485.501M2040.99 438.365H2088.12M2040.99 485.501V532.637M2040.99 485.501H2088.12M2040.99 532.637V579.773M2040.99 532.637H2088.12M2040.99 579.773V626.909M2040.99 579.773H2088.12M2040.99 626.909V674.045M2040.99 626.909H2088.12M2040.99 674.045V721.181M2040.99 674.045H2088.12M2040.99 721.181V768.316M2040.99 721.181H2088.12M2040.99 768.316V815.452M2040.99 768.316H2088.12M2040.99 815.452V862.588M2040.99 815.452H2088.12M2040.99 862.588V909.724M2040.99 862.588H2088.12M2040.99 909.724V956.86M2040.99 909.724H2088.12M2040.99 956.86H2088.12V909.724M2088.12 61.2775V108.413M2088.12 108.413V155.549M2088.12 155.549V202.685M2088.12 202.685V249.821M2088.12 249.821V296.957M2088.12 296.957V344.093M2088.12 344.093V391.229M2088.12 391.229V438.365M2088.12 438.365V485.501M2088.12 485.501V532.637M2088.12 532.637V579.773M2088.12 579.773V626.909M2088.12 626.909V674.045M2088.12 674.045V721.181M2088.12 721.181V768.316M2088.12 768.316V815.452M2088.12 815.452V862.588M2088.12 862.588V909.724" stroke="url(#paint0_radial_131_3018)" stroke-opacity="0.4" stroke-width="0.50324"/>
</g>
<g opacity="0.8">
<path d="M202.685 188.544V202.684M202.685 202.684V216.825M202.685 202.684H188.544M202.685 202.684H216.825M202.685 565.631V579.772M202.685 579.772V593.913M202.685 579.772H188.544M202.685 579.772H216.825M202.685 942.718V956.859M202.685 956.859V971M202.685 956.859H188.544M202.685 956.859H216.825M579.772 188.544V202.684M579.772 202.684V216.825M579.772 202.684H565.631M579.772 202.684H593.913M579.772 565.631V579.772M579.772 579.772V593.913M579.772 579.772H565.631M579.772 579.772H593.913M579.772 942.718V956.859M579.772 956.859V971M579.772 956.859H565.631M579.772 956.859H593.913M956.859 188.544V202.684M956.859 202.684V216.825M956.859 202.684H942.719M956.859 202.684H971M956.859 565.631V579.772M956.859 579.772V593.913M956.859 579.772H942.719M956.859 579.772H971M956.859 942.718V956.859M956.859 956.859V971M956.859 956.859H942.719M956.859 956.859H971M1333.95 188.544V202.684M1333.95 202.684V216.825M1333.95 202.684H1319.81M1333.95 202.684H1348.09M1333.95 565.631V579.772M1333.95 579.772V593.913M1333.95 579.772H1319.81M1333.95 579.772H1348.09M1333.95 942.718V956.859M1333.95 956.859V971M1333.95 956.859H1319.81M1333.95 956.859H1348.09M1711.03 188.544V202.684M1711.03 202.684V216.825M1711.03 202.684H1696.89M1711.03 202.684H1725.18M1711.03 565.631V579.772M1711.03 579.772V593.913M1711.03 579.772H1696.89M1711.03 579.772H1725.18M1711.03 942.718V956.859M1711.03 956.859V971M1711.03 956.859H1696.89M1711.03 956.859H1725.18M2088.12 188.544V202.684M2088.12 202.684V216.825M2088.12 202.684H2073.98M2088.12 202.684H2102.26M2088.12 565.631V579.772M2088.12 579.772V593.913M2088.12 579.772H2073.98M2088.12 579.772H2102.26M2088.12 942.718V956.859M2088.12 956.859V971M2088.12 956.859H2073.98M2088.12 956.859H2102.26M202.685 0V14.1408M202.685 14.1408V28.2816M202.685 14.1408H188.544M202.685 14.1408H216.825M202.685 377.088V391.228M202.685 391.228V405.369M202.685 391.228H188.544M202.685 391.228H216.825M202.685 754.175V768.315M202.685 768.315V782.456M202.685 768.315H188.544M202.685 768.315H216.825M579.772 0V14.1408M579.772 14.1408V28.2816M579.772 14.1408H565.631M579.772 14.1408H593.913M579.772 377.088V391.228M579.772 391.228V405.369M579.772 391.228H565.631M579.772 391.228H593.913M579.772 754.175V768.315M579.772 768.315V782.456M579.772 768.315H565.631M579.772 768.315H593.913M956.859 0V14.1408M956.859 14.1408V28.2816M956.859 14.1408H942.719M956.859 14.1408H971M956.859 377.088V391.228M956.859 391.228V405.369M956.859 391.228H942.719M956.859 391.228H971M956.859 754.175V768.315M956.859 768.315V782.456M956.859 768.315H942.719M956.859 768.315H971M1333.95 0V14.1408M1333.95 14.1408V28.2816M1333.95 14.1408H1319.81M1333.95 14.1408H1348.09M1333.95 377.088V391.228M1333.95 391.228V405.369M1333.95 391.228H1319.81M1333.95 391.228H1348.09M1333.95 754.175V768.315M1333.95 768.315V782.456M1333.95 768.315H1319.81M1333.95 768.315H1348.09M1711.03 0V14.1408M1711.03 14.1408V28.2816M1711.03 14.1408H1696.89M1711.03 14.1408H1725.18M1711.03 377.088V391.228M1711.03 391.228V405.369M1711.03 391.228H1696.89M1711.03 391.228H1725.18M1711.03 754.175V768.315M1711.03 768.315V782.456M1711.03 768.315H1696.89M1711.03 768.315H1725.18M2088.12 0V14.1408M2088.12 14.1408V28.2816M2088.12 14.1408H2073.98M2088.12 14.1408H2102.26M2088.12 377.088V391.228M2088.12 391.228V405.369M2088.12 391.228H2073.98M2088.12 391.228H2102.26M2088.12 754.175V768.315M2088.12 768.315V782.456M2088.12 768.315H2073.98M2088.12 768.315H2102.26M14.1408 188.544V202.684M14.1408 202.684V216.825M14.1408 202.684H0M14.1408 202.684H28.2816M14.1408 565.631V579.772M14.1408 579.772V593.913M14.1408 579.772H0M14.1408 579.772H28.2816M14.1408 942.718V956.859M14.1408 956.859V971M14.1408 956.859H0M14.1408 956.859H28.2816M391.228 188.544V202.684M391.228 202.684V216.825M391.228 202.684H377.088M391.228 202.684H405.369M391.228 565.631V579.772M391.228 579.772V593.913M391.228 579.772H377.088M391.228 579.772H405.369M391.228 942.718V956.859M391.228 956.859V971M391.228 956.859H377.088M391.228 956.859H405.369M768.316 188.544V202.684M768.316 202.684V216.825M768.316 202.684H754.175M768.316 202.684H782.457M768.316 565.631V579.772M768.316 579.772V593.913M768.316 579.772H754.175M768.316 579.772H782.457M768.316 942.718V956.859M768.316 956.859V971M768.316 956.859H754.175M768.316 956.859H782.457M1145.4 188.544V202.684M1145.4 202.684V216.825M1145.4 202.684H1131.26M1145.4 202.684H1159.54M1145.4 565.631V579.772M1145.4 579.772V593.913M1145.4 579.772H1131.26M1145.4 579.772H1159.54M1145.4 942.718V956.859M1145.4 956.859V971M1145.4 956.859H1131.26M1145.4 956.859H1159.54M1522.49 188.544V202.684M1522.49 202.684V216.825M1522.49 202.684H1508.35M1522.49 202.684H1536.63M1522.49 565.631V579.772M1522.49 579.772V593.913M1522.49 579.772H1508.35M1522.49 579.772H1536.63M1522.49 942.718V956.859M1522.49 956.859V971M1522.49 956.859H1508.35M1522.49 956.859H1536.63M1899.58 188.544V202.684M1899.58 202.684V216.825M1899.58 202.684H1885.44M1899.58 202.684H1913.72M1899.58 565.631V579.772M1899.58 579.772V593.913M1899.58 579.772H1885.44M1899.58 579.772H1913.72M1899.58 942.718V956.859M1899.58 956.859V971M1899.58 956.859H1885.44M1899.58 956.859H1913.72M14.1408 6.95162e-05V14.1408M14.1408 14.1408V28.2816M14.1408 14.1408H0M14.1408 14.1408H28.2816M14.1408 377.088V391.228M14.1408 391.228V405.369M14.1408 391.228H0M14.1408 391.228H28.2816M14.1408 754.175V768.315M14.1408 768.315V782.456M14.1408 768.315H0M14.1408 768.315H28.2816M391.228 0V14.1408M391.228 14.1408V28.2816M391.228 14.1408H377.088M391.228 14.1408H405.369M391.228 377.088V391.228M391.228 391.228V405.369M391.228 391.228H377.088M391.228 391.228H405.369M391.228 754.175V768.315M391.228 768.315V782.456M391.228 768.315H377.088M391.228 768.315H405.369M768.316 0V14.1408M768.316 14.1408V28.2816M768.316 14.1408H754.175M768.316 14.1408H782.457M768.316 377.088V391.228M768.316 391.228V405.369M768.316 391.228H754.175M768.316 391.228H782.457M768.316 754.175V768.315M768.316 768.315V782.456M768.316 768.315H754.175M768.316 768.315H782.457M1145.4 0V14.1408M1145.4 14.1408V28.2816M1145.4 14.1408H1131.26M1145.4 14.1408H1159.54M1145.4 377.088V391.228M1145.4 391.228V405.369M1145.4 391.228H1131.26M1145.4 391.228H1159.54M1145.4 754.175V768.315M1145.4 768.315V782.456M1145.4 768.315H1131.26M1145.4 768.315H1159.54M1522.49 0V14.1408M1522.49 14.1408V28.2816M1522.49 14.1408H1508.35M1522.49 14.1408H1536.63M1522.49 377.088V391.228M1522.49 391.228V405.369M1522.49 391.228H1508.35M1522.49 391.228H1536.63M1522.49 754.175V768.315M1522.49 768.315V782.456M1522.49 768.315H1508.35M1522.49 768.315H1536.63M1899.58 0V14.1408M1899.58 14.1408V28.2816M1899.58 14.1408H1885.44M1899.58 14.1408H1913.72M1899.58 377.088V391.228M1899.58 391.228V405.369M1899.58 391.228H1885.44M1899.58 391.228H1913.72M1899.58 754.175V768.315M1899.58 768.315V782.456M1899.58 768.315H1885.44M1899.58 768.315H1913.72" stroke="url(#paint1_radial_131_3018)" stroke-opacity="0.4" stroke-width="1.00648"/>
</g>
</g>
<defs>
<radialGradient id="paint0_radial_131_3018" cx="0" cy="0" r="1" gradientUnits="userSpaceOnUse" gradientTransform="translate(1051.13 485.501) rotate(95.5612) scale(331.56 729.431)">
<stop/>
<stop offset="1" stop-opacity="0"/>
</radialGradient>
<radialGradient id="paint1_radial_131_3018" cx="0" cy="0" r="1" gradientUnits="userSpaceOnUse" gradientTransform="translate(1051.13 485.5) rotate(90) scale(485.5 1051.13)">
<stop/>
<stop offset="1" stop-opacity="0"/>
</radialGradient>
<clipPath id="clip0_131_3018">
<rect width="2103" height="971" fill="white"/>
</clipPath>
</defs>
</svg>
