<svg width="356" height="165" viewBox="0 0 356 165" fill="none" xmlns="http://www.w3.org/2000/svg">
<g filter="url(#filter0_dd_22460_105158)">
<mask id="path-1-inside-1_22460_105158" fill="white">
<path d="M29.6328 23.4006C29.6328 18.6254 33.5038 14.7544 38.279 14.7544H317.465C322.24 14.7544 326.111 18.6254 326.111 23.4006V112.404C326.111 117.179 322.24 121.05 317.465 121.05H38.279C33.5039 121.05 29.6328 117.179 29.6328 112.404V23.4006Z"/>
</mask>
<path d="M29.6328 23.4006C29.6328 18.6254 33.5038 14.7544 38.279 14.7544H317.465C322.24 14.7544 326.111 18.6254 326.111 23.4006V112.404C326.111 117.179 322.24 121.05 317.465 121.05H38.279C33.5039 121.05 29.6328 117.179 29.6328 112.404V23.4006Z" fill="white"/>
<path d="M29.6328 14.7544H326.111H29.6328ZM326.111 112.404C326.111 117.634 321.872 121.874 316.642 121.874H39.1026C33.8726 121.874 29.6328 117.634 29.6328 112.404C29.6328 116.724 33.5038 120.227 38.279 120.227H317.465C322.24 120.227 326.111 116.724 326.111 112.404ZM29.6328 121.05V14.7544V121.05ZM326.111 14.7544V121.05V14.7544Z" fill="#EBEAEA" mask="url(#path-1-inside-1_22460_105158)"/>
<path d="M49.9553 39.035V38.1343H56.2442V39.035H53.6074V46.5195H52.592V39.035H49.9553ZM58.6466 42.7363V46.5195H57.6803V38.1343H58.6466V41.2132H58.7285C58.8759 40.8884 59.097 40.6305 59.3918 40.4394C59.6893 40.2456 60.0851 40.1487 60.5791 40.1487C61.0077 40.1487 61.383 40.2347 61.7051 40.4066C62.0272 40.5759 62.2769 40.8366 62.4543 41.1887C62.6345 41.5381 62.7246 41.983 62.7246 42.5234V46.5195H61.7583V42.5889C61.7583 42.0894 61.6286 41.7032 61.3693 41.4302C61.1128 41.1546 60.7565 41.0167 60.3007 41.0167C59.9841 41.0167 59.7002 41.0836 59.4491 41.2173C59.2007 41.3511 59.0042 41.5462 58.8595 41.8028C58.7175 42.0594 58.6466 42.3706 58.6466 42.7363ZM68.4557 43.9483V40.2306H69.4219V46.5195H68.4557V45.455H68.3901C68.2427 45.7744 68.0135 46.0459 67.7023 46.2698C67.3911 46.4909 66.9981 46.6014 66.5231 46.6014C66.1301 46.6014 65.7807 46.5154 65.475 46.3435C65.1692 46.1688 64.929 45.9067 64.7543 45.5574C64.5797 45.2052 64.4923 44.7617 64.4923 44.2267V40.2306H65.4586V44.1612C65.4586 44.6197 65.5869 44.9855 65.8434 45.2585C66.1028 45.5314 66.433 45.6679 66.8343 45.6679C67.0745 45.6679 67.3188 45.6065 67.5672 45.4837C67.8183 45.3608 68.0285 45.1725 68.1977 44.9186C68.3697 44.6648 68.4557 44.3413 68.4557 43.9483ZM71.1917 46.5195V40.2306H72.1252V41.1805H72.1907C72.3054 40.8693 72.5128 40.6168 72.8131 40.423C73.1133 40.2292 73.4518 40.1323 73.8285 40.1323C73.8994 40.1323 73.9882 40.1337 74.0946 40.1364C74.2011 40.1391 74.2816 40.1432 74.3362 40.1487V41.1313C74.3034 41.1232 74.2284 41.1109 74.111 41.0945C73.9963 41.0754 73.8749 41.0658 73.7466 41.0658C73.4409 41.0658 73.1679 41.13 72.9277 41.2583C72.6902 41.3838 72.5019 41.5585 72.3627 41.7824C72.2262 42.0034 72.158 42.2559 72.158 42.5398V46.5195H71.1917ZM79.9362 41.6391L79.0682 41.8847C79.0136 41.74 78.9331 41.5995 78.8267 41.463C78.723 41.3238 78.581 41.2091 78.4009 41.1191C78.2207 41.029 77.9901 40.984 77.7089 40.984C77.324 40.984 77.0033 41.0727 76.7467 41.2501C76.4929 41.4248 76.366 41.6472 76.366 41.9175C76.366 42.1577 76.4533 42.3474 76.628 42.4866C76.8027 42.6258 77.0757 42.7418 77.4469 42.8346L78.3804 43.0639C78.9427 43.2004 79.3617 43.4092 79.6374 43.6903C79.913 43.9687 80.0509 44.3277 80.0509 44.7671C80.0509 45.1274 79.9472 45.4495 79.7397 45.7334C79.535 46.0173 79.2484 46.2411 78.8799 46.4049C78.5114 46.5687 78.0829 46.6506 77.5943 46.6506C76.9528 46.6506 76.4219 46.5113 76.0016 46.2329C75.5812 45.9545 75.3151 45.5478 75.2032 45.0128L76.1203 44.7835C76.2076 45.122 76.3728 45.3758 76.6157 45.5451C76.8614 45.7143 77.1821 45.7989 77.5779 45.7989C78.0283 45.7989 78.3858 45.7034 78.6506 45.5123C78.9181 45.3185 79.0519 45.0865 79.0519 44.8163C79.0519 44.5979 78.9754 44.415 78.8226 44.2676C78.6697 44.1175 78.435 44.0056 78.1183 43.9319L77.0702 43.6862C76.4943 43.5498 76.0712 43.3382 75.8009 43.0516C75.5334 42.7623 75.3997 42.4006 75.3997 41.9666C75.3997 41.6118 75.4993 41.2979 75.6986 41.0249C75.9006 40.7519 76.1749 40.5377 76.5215 40.3821C76.8709 40.2265 77.2667 40.1487 77.7089 40.1487C78.3313 40.1487 78.8199 40.2852 79.1747 40.5581C79.5323 40.8311 79.7861 41.1914 79.9362 41.6391ZM83.8801 46.6506C83.3561 46.6506 82.8934 46.5182 82.4922 46.2534C82.0909 45.9859 81.777 45.6092 81.5504 45.1234C81.3239 44.6348 81.2106 44.0575 81.2106 43.3914C81.2106 42.7309 81.3239 42.1577 81.5504 41.6718C81.777 41.1859 82.0923 40.8106 82.4962 40.5459C82.9002 40.2811 83.367 40.1487 83.8965 40.1487C84.306 40.1487 84.6294 40.2169 84.8669 40.3534C85.1071 40.4872 85.29 40.64 85.4155 40.812C85.5438 40.9812 85.6434 41.1204 85.7144 41.2296H85.7963V38.1343H86.7626V46.5195H85.8291V45.5533H85.7144C85.6434 45.6679 85.5425 45.8126 85.4114 45.9873C85.2804 46.1592 85.0934 46.3134 84.8505 46.4499C84.6076 46.5837 84.2841 46.6506 83.8801 46.6506ZM84.0112 45.7825C84.3988 45.7825 84.7263 45.6816 84.9938 45.4796C85.2613 45.2748 85.4647 44.9923 85.6039 44.632C85.7431 44.269 85.8127 43.85 85.8127 43.3751C85.8127 42.9056 85.7444 42.4948 85.608 42.1427C85.4715 41.7878 85.2695 41.5121 85.002 41.3156C84.7345 41.1163 84.4042 41.0167 84.0112 41.0167C83.6017 41.0167 83.2605 41.1218 82.9876 41.332C82.7173 41.5394 82.514 41.8219 82.3775 42.1795C82.2438 42.5344 82.1769 42.9329 82.1769 43.3751C82.1769 43.8227 82.2451 44.2294 82.3816 44.5952C82.5208 44.9582 82.7255 45.2475 82.9958 45.4632C83.2687 45.6761 83.6072 45.7825 84.0112 45.7825ZM90.5171 46.6669C90.1186 46.6669 89.7569 46.5919 89.4321 46.4417C89.1073 46.2889 88.8493 46.0692 88.6583 45.7825C88.4672 45.4932 88.3717 45.1438 88.3717 44.7344C88.3717 44.3741 88.4426 44.082 88.5846 43.8582C88.7265 43.6316 88.9162 43.4542 89.1537 43.3259C89.3912 43.1976 89.6532 43.1021 89.9398 43.0393C90.2291 42.9738 90.5198 42.922 90.8119 42.8837C91.194 42.8346 91.5038 42.7978 91.7413 42.7732C91.9815 42.7459 92.1562 42.7009 92.2654 42.6381C92.3773 42.5753 92.4333 42.4661 92.4333 42.3105V42.2778C92.4333 41.8738 92.3227 41.5599 92.1016 41.3361C91.8833 41.1122 91.5516 41.0003 91.1067 41.0003C90.6454 41.0003 90.2837 41.1013 90.0217 41.3033C89.7596 41.5053 89.5754 41.7209 89.4689 41.9502L88.5518 41.6227C88.7156 41.2405 88.934 40.943 89.2069 40.7301C89.4826 40.5145 89.7828 40.3643 90.1077 40.2797C90.4352 40.1924 90.7573 40.1487 91.0739 40.1487C91.2759 40.1487 91.5079 40.1733 91.77 40.2224C92.0347 40.2688 92.29 40.3657 92.5356 40.5131C92.784 40.6605 92.9901 40.883 93.1539 41.1805C93.3176 41.478 93.3995 41.8765 93.3995 42.376V46.5195H92.4333V45.6679H92.3841C92.3186 45.8044 92.2094 45.9504 92.0566 46.106C91.9037 46.2616 91.7004 46.394 91.4465 46.5032C91.1927 46.6123 90.8829 46.6669 90.5171 46.6669ZM90.6645 45.7989C91.0466 45.7989 91.3687 45.7239 91.6308 45.5737C91.8955 45.4236 92.0948 45.2298 92.2285 44.9923C92.365 44.7549 92.4333 44.5051 92.4333 44.2431V43.3587C92.3923 43.4078 92.3022 43.4529 92.163 43.4938C92.0266 43.532 91.8682 43.5661 91.6881 43.5962C91.5107 43.6235 91.3373 43.648 91.1681 43.6699C91.0016 43.689 90.8665 43.7053 90.7628 43.719C90.5116 43.7517 90.2769 43.805 90.0585 43.8787C89.8429 43.9496 89.6682 44.0575 89.5345 44.2021C89.4034 44.3441 89.3379 44.5379 89.3379 44.7835C89.3379 45.1193 89.4621 45.3731 89.7105 45.5451C89.9616 45.7143 90.2796 45.7989 90.6645 45.7989ZM95.5603 48.8779C95.3966 48.8779 95.2505 48.8642 95.1222 48.8369C94.994 48.8124 94.9052 48.7878 94.8561 48.7632L95.1018 47.9116C95.3365 47.9717 95.544 47.9935 95.7241 47.9771C95.9043 47.9607 96.0639 47.8802 96.2032 47.7356C96.3451 47.5936 96.4747 47.363 96.5921 47.0436L96.7723 46.5523L94.4467 40.2306H95.4948L97.2308 45.2421H97.2963L99.0324 40.2306H100.081L97.411 47.4367C97.2909 47.7615 97.1421 48.0304 96.9647 48.2433C96.7873 48.4589 96.5812 48.6186 96.3465 48.7223C96.1144 48.826 95.8524 48.8779 95.5603 48.8779ZM102.403 45.3731L102.338 45.8153C102.291 46.1265 102.22 46.4595 102.125 46.8143C102.032 47.1692 101.935 47.5035 101.834 47.8174C101.733 48.1313 101.65 48.3811 101.584 48.5667H100.847C100.883 48.392 100.929 48.1614 100.986 47.8748C101.044 47.5882 101.101 47.2674 101.158 46.9126C101.218 46.5605 101.268 46.2002 101.306 45.8317L101.355 45.3731H102.403ZM110.777 38.1343H111.792V44.1284C111.792 44.6634 111.694 45.1179 111.498 45.4918C111.301 45.8658 111.024 46.1497 110.666 46.3435C110.309 46.5373 109.887 46.6342 109.401 46.6342C108.943 46.6342 108.535 46.5509 108.177 46.3844C107.82 46.2152 107.538 45.975 107.334 45.6638C107.129 45.3526 107.027 44.9828 107.027 44.5542H108.026C108.026 44.7917 108.084 44.9992 108.202 45.1766C108.322 45.3513 108.486 45.4878 108.693 45.586C108.9 45.6843 109.137 45.7334 109.401 45.7334C109.693 45.7334 109.942 45.672 110.147 45.5492C110.351 45.4263 110.507 45.2462 110.613 45.0087C110.722 44.7685 110.777 44.4751 110.777 44.1284V38.1343ZM117.66 43.9483V40.2306H118.626V46.5195H117.66V45.455H117.594C117.447 45.7744 117.217 46.0459 116.906 46.2698C116.595 46.4909 116.202 46.6014 115.727 46.6014C115.334 46.6014 114.985 46.5154 114.679 46.3435C114.373 46.1688 114.133 45.9067 113.958 45.5574C113.784 45.2052 113.696 44.7617 113.696 44.2267V40.2306H114.663V44.1612C114.663 44.6197 114.791 44.9855 115.047 45.2585C115.307 45.5314 115.637 45.6679 116.038 45.6679C116.278 45.6679 116.523 45.6065 116.771 45.4837C117.022 45.3608 117.232 45.1725 117.402 44.9186C117.574 44.6648 117.66 44.3413 117.66 43.9483ZM121.362 38.1343V46.5195H120.396V38.1343H121.362ZM123.754 48.8779C123.59 48.8779 123.444 48.8642 123.316 48.8369C123.188 48.8124 123.099 48.7878 123.05 48.7632L123.296 47.9116C123.53 47.9717 123.738 47.9935 123.918 47.9771C124.098 47.9607 124.258 47.8802 124.397 47.7356C124.539 47.5936 124.669 47.363 124.786 47.0436L124.966 46.5523L122.64 40.2306H123.689L125.425 45.2421H125.49L127.226 40.2306H128.274L125.605 47.4367C125.485 47.7615 125.336 48.0304 125.158 48.2433C124.981 48.4589 124.775 48.6186 124.54 48.7223C124.308 48.826 124.046 48.8779 123.754 48.8779ZM132.776 46.5195V45.7825L135.544 42.7527C135.869 42.3979 136.136 42.0894 136.346 41.8274C136.557 41.5626 136.712 41.3142 136.813 41.0822C136.917 40.8475 136.969 40.6018 136.969 40.3452C136.969 40.0504 136.898 39.7952 136.756 39.5796C136.617 39.3639 136.425 39.1974 136.183 39.0801C135.94 38.9627 135.667 38.904 135.364 38.904C135.042 38.904 134.76 38.9709 134.52 39.1046C134.283 39.2357 134.099 39.4199 133.968 39.6574C133.839 39.8949 133.775 40.1733 133.775 40.4926H132.809C132.809 40.0013 132.922 39.57 133.149 39.1988C133.375 38.8276 133.684 38.5383 134.074 38.3308C134.467 38.1234 134.908 38.0196 135.396 38.0196C135.888 38.0196 136.323 38.1234 136.703 38.3308C137.082 38.5383 137.379 38.818 137.595 39.1701C137.811 39.5223 137.919 39.914 137.919 40.3452C137.919 40.6537 137.863 40.9553 137.751 41.2501C137.642 41.5422 137.45 41.8683 137.177 42.2286C136.907 42.5862 136.532 43.0229 136.052 43.5388L134.168 45.5533V45.6188H138.066V46.5195H132.776ZM142.377 46.6342C141.897 46.6342 141.464 46.5386 141.079 46.3476C140.695 46.1565 140.386 45.8945 140.154 45.5615C139.922 45.2284 139.795 44.849 139.773 44.4232H140.756C140.794 44.8026 140.966 45.1165 141.272 45.3649C141.58 45.6106 141.949 45.7334 142.377 45.7334C142.721 45.7334 143.027 45.6529 143.294 45.4918C143.565 45.3308 143.776 45.1097 143.929 44.8286C144.085 44.5447 144.162 44.224 144.162 43.8664C144.162 43.5006 144.082 43.1744 143.921 42.8878C143.763 42.5985 143.544 42.3706 143.266 42.2041C142.987 42.0376 142.669 41.953 142.312 41.9502C142.055 41.9475 141.792 41.9871 141.522 42.069C141.251 42.1481 141.029 42.2505 140.854 42.376L139.904 42.2614L140.412 38.1343H144.768V39.035H141.264L140.969 41.508H141.018C141.19 41.3716 141.406 41.2583 141.665 41.1682C141.924 41.0781 142.194 41.0331 142.476 41.0331C142.989 41.0331 143.446 41.1559 143.847 41.4016C144.251 41.6445 144.568 41.9775 144.797 42.4006C145.029 42.8237 145.145 43.3068 145.145 43.85C145.145 44.385 145.025 44.8627 144.785 45.283C144.547 45.7007 144.22 46.0309 143.802 46.2739C143.385 46.5141 142.91 46.6342 142.377 46.6342Z" fill="#545C65"/>
<path d="M50.5829 73.4023V62.6213H54.4257C55.261 62.6213 55.9541 62.7652 56.5051 63.053C57.0596 63.3407 57.4737 63.7391 57.7474 64.2479C58.0212 64.7533 58.158 65.3376 58.158 66.0009C58.158 66.6607 58.0194 67.2415 57.7422 67.7433C57.4684 68.2417 57.0543 68.6295 56.4998 68.9067C55.9488 69.184 55.2557 69.3226 54.4205 69.3226H51.5094V67.9223H54.2731C54.7995 67.9223 55.2276 67.8469 55.5575 67.696C55.8909 67.5451 56.1348 67.3257 56.2893 67.0379C56.4437 66.7502 56.5209 66.4045 56.5209 66.0009C56.5209 65.5938 56.4419 65.2411 56.284 64.9428C56.1296 64.6445 55.8857 64.4164 55.5523 64.2585C55.2224 64.097 54.789 64.0163 54.252 64.0163H52.2095V73.4023H50.5829ZM55.905 68.5382L58.5686 73.4023H56.7156L54.1046 68.5382H55.905ZM63.3946 73.5655C62.5979 73.5655 61.9118 73.3953 61.3363 73.0549C60.7642 72.711 60.3221 72.2284 60.0097 71.6073C59.7009 70.9826 59.5465 70.2509 59.5465 69.4121C59.5465 68.5839 59.7009 67.8539 60.0097 67.2222C60.3221 66.5905 60.7572 66.0974 61.3152 65.743C61.8767 65.3885 62.533 65.2113 63.284 65.2113C63.7403 65.2113 64.1825 65.2867 64.6106 65.4376C65.0388 65.5885 65.423 65.8254 65.7635 66.1483C66.1039 66.4712 66.3724 66.8906 66.5689 67.4064C66.7654 67.9188 66.8637 68.5417 66.8637 69.2752V69.8332H60.4361V68.6541H65.3213C65.3213 68.2399 65.237 67.8732 65.0686 67.5538C64.9001 67.231 64.6632 66.9765 64.3579 66.7905C64.0561 66.6045 63.7017 66.5115 63.2946 66.5115C62.8524 66.5115 62.4663 66.6203 62.1364 66.8379C61.8101 67.052 61.5574 67.3327 61.3784 67.6802C61.2029 68.0241 61.1152 68.3979 61.1152 68.8014V69.7227C61.1152 70.2631 61.2099 70.7229 61.3995 71.1019C61.5925 71.4809 61.8609 71.7704 62.2049 71.9705C62.5488 72.167 62.9506 72.2653 63.4104 72.2653C63.7087 72.2653 63.9807 72.2232 64.2263 72.1389C64.472 72.0512 64.6843 71.9214 64.8633 71.7494C65.0423 71.5774 65.1791 71.3651 65.2739 71.1124L66.7637 71.3809C66.6443 71.8196 66.4303 72.2039 66.1214 72.5338C65.8161 72.8601 65.4318 73.1146 64.9686 73.2971C64.5088 73.476 63.9842 73.5655 63.3946 73.5655ZM68.6101 76.4345V65.3166H70.1472V66.6273H70.2788C70.3701 66.4589 70.5017 66.2641 70.6736 66.043C70.8456 65.8219 71.0842 65.6289 71.3896 65.464C71.6949 65.2955 72.0985 65.2113 72.6003 65.2113C73.2531 65.2113 73.8356 65.3762 74.348 65.7061C74.8604 66.036 75.2622 66.5115 75.5535 67.1327C75.8483 67.7539 75.9957 68.5014 75.9957 69.3752C75.9957 70.2491 75.8501 70.9984 75.5588 71.6231C75.2675 72.2442 74.8674 72.7233 74.3586 73.0602C73.8497 73.3936 73.2689 73.5603 72.6161 73.5603C72.1248 73.5603 71.723 73.4778 71.4106 73.3129C71.1018 73.1479 70.8596 72.9549 70.6842 72.7338C70.5087 72.5127 70.3736 72.3162 70.2788 72.1442H70.1841V76.4345H68.6101ZM70.1525 69.3595C70.1525 69.928 70.2349 70.4263 70.3999 70.8545C70.5648 71.2826 70.8035 71.6178 71.1158 71.8599C71.4282 72.0986 71.8107 72.2179 72.2634 72.2179C72.7337 72.2179 73.1267 72.0933 73.4426 71.8441C73.7584 71.5915 73.9971 71.2493 74.1585 70.8176C74.3235 70.386 74.4059 69.8999 74.4059 69.3595C74.4059 68.826 74.3252 68.347 74.1638 67.9223C74.0059 67.4977 73.7672 67.1625 73.4478 66.9169C73.132 66.6712 72.7372 66.5484 72.2634 66.5484C71.8072 66.5484 71.4211 66.6659 71.1053 66.9011C70.7929 67.1362 70.5561 67.4643 70.3946 67.8855C70.2332 68.3066 70.1525 68.7979 70.1525 69.3595ZM82.5233 68.1645V69.5279H77.7434V68.1645H82.5233ZM88.4692 65.3166V66.58H83.8999V65.3166H88.4692ZM85.1528 73.4023V64.3795C85.1528 63.8742 85.2633 63.4548 85.4844 63.1214C85.7055 62.7845 85.9985 62.5336 86.3635 62.3686C86.7285 62.2002 87.1251 62.1159 87.5532 62.1159C87.8691 62.1159 88.1393 62.1423 88.3639 62.1949C88.5885 62.244 88.7552 62.2897 88.864 62.3318L88.4955 63.6057C88.4218 63.5846 88.3271 63.5601 88.2112 63.532C88.0954 63.5004 87.9551 63.4846 87.7901 63.4846C87.4076 63.4846 87.1338 63.5794 86.9689 63.7689C86.8075 63.9584 86.7267 64.2321 86.7267 64.5901V73.4023H85.1528ZM93.1806 73.5655C92.4226 73.5655 91.7611 73.3918 91.196 73.0444C90.631 72.6969 90.1923 72.2109 89.88 71.5862C89.5676 70.9615 89.4115 70.2316 89.4115 69.3963C89.4115 68.5575 89.5676 67.8241 89.88 67.1959C90.1923 66.5677 90.631 66.0799 91.196 65.7324C91.7611 65.385 92.4226 65.2113 93.1806 65.2113C93.9387 65.2113 94.6002 65.385 95.1652 65.7324C95.7302 66.0799 96.1689 66.5677 96.4813 67.1959C96.7936 67.8241 96.9498 68.5575 96.9498 69.3963C96.9498 70.2316 96.7936 70.9615 96.4813 71.5862C96.1689 72.2109 95.7302 72.6969 95.1652 73.0444C94.6002 73.3918 93.9387 73.5655 93.1806 73.5655ZM93.1859 72.2442C93.6772 72.2442 94.0843 72.1144 94.4072 71.8547C94.7301 71.595 94.9687 71.2493 95.1231 70.8176C95.281 70.386 95.36 69.9104 95.36 69.391C95.36 68.8751 95.281 68.4014 95.1231 67.9697C94.9687 67.5345 94.7301 67.1853 94.4072 66.9221C94.0843 66.6589 93.6772 66.5273 93.1859 66.5273C92.6911 66.5273 92.2805 66.6589 91.9541 66.9221C91.6312 67.1853 91.3908 67.5345 91.2329 67.9697C91.0785 68.4014 91.0013 68.8751 91.0013 69.391C91.0013 69.9104 91.0785 70.386 91.2329 70.8176C91.3908 71.2493 91.6312 71.595 91.9541 71.8547C92.2805 72.1144 92.6911 72.2442 93.1859 72.2442ZM102.113 73.5655C101.33 73.5655 100.656 73.3883 100.091 73.0339C99.5297 72.6759 99.098 72.1828 98.7962 71.5546C98.4944 70.9264 98.3435 70.207 98.3435 69.3963C98.3435 68.5751 98.4979 67.8504 98.8067 67.2222C99.1156 66.5905 99.5507 66.0974 100.112 65.743C100.674 65.3885 101.335 65.2113 102.097 65.2113C102.711 65.2113 103.258 65.3253 103.739 65.5534C104.22 65.7781 104.608 66.0939 104.903 66.501C105.201 66.9081 105.378 67.3836 105.434 67.9276H103.902C103.818 67.5486 103.625 67.2222 103.323 66.9485C103.025 66.6747 102.625 66.5379 102.123 66.5379C101.684 66.5379 101.3 66.6537 100.97 66.8853C100.644 67.1134 100.389 67.4398 100.207 67.8644C100.025 68.2856 99.9333 68.7839 99.9333 69.3595C99.9333 69.949 100.023 70.4579 100.202 70.8861C100.381 71.3142 100.633 71.6459 100.96 71.881C101.29 72.1161 101.677 72.2337 102.123 72.2337C102.421 72.2337 102.692 72.1793 102.934 72.0705C103.18 71.9582 103.385 71.7985 103.55 71.5915C103.718 71.3844 103.836 71.1352 103.902 70.844H105.434C105.378 71.3669 105.208 71.8336 104.924 72.2442C104.639 72.6548 104.259 72.9777 103.781 73.2128C103.308 73.448 102.751 73.5655 102.113 73.5655ZM112.24 70.0491V65.3166H113.819V73.4023H112.271V72.0021H112.187C112.001 72.4337 111.703 72.7935 111.292 73.0812C110.885 73.3655 110.378 73.5076 109.771 73.5076C109.251 73.5076 108.792 73.3936 108.391 73.1655C107.995 72.9338 107.683 72.5917 107.454 72.1389C107.23 71.6862 107.118 71.1265 107.118 70.4597V65.3166H108.692V70.2702C108.692 70.8211 108.844 71.2598 109.15 71.5862C109.455 71.9126 109.851 72.0758 110.339 72.0758C110.634 72.0758 110.927 72.0021 111.218 71.8547C111.513 71.7073 111.757 71.4844 111.95 71.1861C112.147 70.8878 112.243 70.5088 112.24 70.0491ZM121.993 67.2906L120.566 67.5433C120.507 67.3608 120.412 67.1871 120.282 67.0222C120.156 66.8572 119.984 66.7221 119.766 66.6168C119.548 66.5115 119.276 66.4589 118.95 66.4589C118.504 66.4589 118.132 66.5589 117.834 66.7589C117.536 66.9555 117.387 67.2099 117.387 67.5223C117.387 67.7925 117.487 68.0101 117.687 68.175C117.887 68.34 118.21 68.4751 118.655 68.5804L119.94 68.8751C120.684 69.0471 121.238 69.3121 121.603 69.67C121.968 70.028 122.151 70.493 122.151 71.065C122.151 71.5494 122.01 71.981 121.73 72.36C121.452 72.7355 121.065 73.0303 120.566 73.2444C120.071 73.4585 119.498 73.5655 118.845 73.5655C117.939 73.5655 117.201 73.3725 116.629 72.9865C116.057 72.5969 115.706 72.0442 115.576 71.3283L117.097 71.0966C117.192 71.4932 117.387 71.7933 117.681 71.9968C117.976 72.1968 118.361 72.2969 118.834 72.2969C119.35 72.2969 119.763 72.1898 120.071 71.9758C120.38 71.7582 120.535 71.4932 120.535 71.1809C120.535 70.9282 120.44 70.7159 120.25 70.5439C120.064 70.3719 119.778 70.2421 119.392 70.1543L118.024 69.8543C117.269 69.6823 116.711 69.4086 116.35 69.0331C115.992 68.6576 115.813 68.182 115.813 67.6065C115.813 67.1292 115.946 66.7116 116.213 66.3536C116.479 65.9956 116.848 65.7166 117.318 65.5166C117.788 65.3131 118.327 65.2113 118.934 65.2113C119.808 65.2113 120.496 65.4008 120.998 65.7798C121.5 66.1553 121.831 66.6589 121.993 67.2906ZM127.366 73.5655C126.57 73.5655 125.883 73.3953 125.308 73.0549C124.736 72.711 124.294 72.2284 123.981 71.6073C123.673 70.9826 123.518 70.2509 123.518 69.4121C123.518 68.5839 123.673 67.8539 123.981 67.2222C124.294 66.5905 124.729 66.0974 125.287 65.743C125.848 65.3885 126.505 65.2113 127.256 65.2113C127.712 65.2113 128.154 65.2867 128.582 65.4376C129.01 65.5885 129.395 65.8254 129.735 66.1483C130.076 66.4712 130.344 66.8906 130.541 67.4064C130.737 67.9188 130.835 68.5417 130.835 69.2752V69.8332H124.408V68.6541H129.293C129.293 68.2399 129.209 67.8732 129.04 67.5538C128.872 67.231 128.635 66.9765 128.33 66.7905C128.028 66.6045 127.673 66.5115 127.266 66.5115C126.824 66.5115 126.438 66.6203 126.108 66.8379C125.782 67.052 125.529 67.3327 125.35 67.6802C125.175 68.0241 125.087 68.3979 125.087 68.8014V69.7227C125.087 70.2631 125.182 70.7229 125.371 71.1019C125.564 71.4809 125.833 71.7704 126.177 71.9705C126.52 72.167 126.922 72.2653 127.382 72.2653C127.68 72.2653 127.952 72.2232 128.198 72.1389C128.444 72.0512 128.656 71.9214 128.835 71.7494C129.014 71.5774 129.151 71.3651 129.246 71.1124L130.735 71.3809C130.616 71.8196 130.402 72.2039 130.093 72.5338C129.788 72.8601 129.403 73.1146 128.94 73.2971C128.48 73.476 127.956 73.5655 127.366 73.5655ZM135.609 73.5603C134.956 73.5603 134.373 73.3936 133.861 73.0602C133.352 72.7233 132.952 72.2442 132.661 71.6231C132.373 70.9984 132.229 70.2491 132.229 69.3752C132.229 68.5014 132.375 67.7539 132.666 67.1327C132.961 66.5115 133.364 66.036 133.877 65.7061C134.389 65.3762 134.97 65.2113 135.619 65.2113C136.121 65.2113 136.525 65.2955 136.83 65.464C137.139 65.6289 137.377 65.8219 137.546 66.043C137.718 66.2641 137.851 66.4589 137.946 66.6273H138.041V62.6213H139.615V73.4023H138.078V72.1442H137.946C137.851 72.3162 137.714 72.5127 137.535 72.7338C137.36 72.9549 137.118 73.1479 136.809 73.3129C136.5 73.4778 136.1 73.5603 135.609 73.5603ZM135.956 72.2179C136.409 72.2179 136.791 72.0986 137.104 71.8599C137.419 71.6178 137.658 71.2826 137.82 70.8545C137.985 70.4263 138.067 69.928 138.067 69.3595C138.067 68.7979 137.986 68.3066 137.825 67.8855C137.663 67.4643 137.427 67.1362 137.114 66.9011C136.802 66.6659 136.416 66.5484 135.956 66.5484C135.482 66.5484 135.087 66.6712 134.772 66.9169C134.456 67.1625 134.217 67.4977 134.056 67.9223C133.898 68.347 133.819 68.826 133.819 69.3595C133.819 69.8999 133.9 70.386 134.061 70.8176C134.222 71.2493 134.461 71.5915 134.777 71.8441C135.096 72.0933 135.489 72.2179 135.956 72.2179ZM148.022 73.4023L145.031 62.6213H146.742L148.843 70.9703H148.943L151.127 62.6213H152.822L155.007 70.9756H155.107L157.202 62.6213H158.918L155.923 73.4023H154.286L152.017 65.3271H151.933L149.664 73.4023H148.022ZM162.885 73.5655C162.127 73.5655 161.465 73.3918 160.9 73.0444C160.335 72.6969 159.897 72.2109 159.584 71.5862C159.272 70.9615 159.116 70.2316 159.116 69.3963C159.116 68.5575 159.272 67.8241 159.584 67.1959C159.897 66.5677 160.335 66.0799 160.9 65.7324C161.465 65.385 162.127 65.2113 162.885 65.2113C163.643 65.2113 164.305 65.385 164.87 65.7324C165.435 66.0799 165.873 66.5677 166.186 67.1959C166.498 67.8241 166.654 68.5575 166.654 69.3963C166.654 70.2316 166.498 70.9615 166.186 71.5862C165.873 72.2109 165.435 72.6969 164.87 73.0444C164.305 73.3918 163.643 73.5655 162.885 73.5655ZM162.89 72.2442C163.382 72.2442 163.789 72.1144 164.112 71.8547C164.434 71.595 164.673 71.2493 164.827 70.8176C164.985 70.386 165.064 69.9104 165.064 69.391C165.064 68.8751 164.985 68.4014 164.827 67.9697C164.673 67.5345 164.434 67.1853 164.112 66.9221C163.789 66.6589 163.382 66.5273 162.89 66.5273C162.395 66.5273 161.985 66.6589 161.658 66.9221C161.336 67.1853 161.095 67.5345 160.937 67.9697C160.783 68.4014 160.706 68.8751 160.706 69.391C160.706 69.9104 160.783 70.386 160.937 70.8176C161.095 71.2493 161.336 71.595 161.658 71.8547C161.985 72.1144 162.395 72.2442 162.89 72.2442ZM168.411 73.4023V65.3166H169.932V66.601H170.017C170.164 66.1658 170.424 65.8237 170.796 65.5745C171.171 65.3218 171.596 65.1955 172.07 65.1955C172.168 65.1955 172.284 65.199 172.417 65.206C172.554 65.213 172.661 65.2218 172.738 65.2323V66.7379C172.675 66.7203 172.563 66.701 172.401 66.68C172.24 66.6554 172.078 66.6431 171.917 66.6431C171.545 66.6431 171.213 66.7221 170.922 66.88C170.634 67.0344 170.406 67.2503 170.238 67.5275C170.069 67.8013 169.985 68.1136 169.985 68.4645V73.4023H168.411ZM175.548 70.6597L175.537 68.7383H175.811L179.033 65.3166H180.917L177.243 69.2121H176.996L175.548 70.6597ZM174.1 73.4023V62.6213H175.674V73.4023H174.1ZM179.207 73.4023L176.311 69.5595L177.396 68.4593L181.139 73.4023H179.207Z" fill="black"/>
<path d="M53.0506 97.3993C52.7067 97.3939 52.3628 97.3283 52.0188 97.2028C51.6749 97.0772 51.361 96.8657 51.0771 96.5682C50.7933 96.2679 50.5653 95.8626 50.3934 95.3521C50.2214 94.839 50.1354 94.1948 50.1354 93.4196C50.1354 92.6771 50.205 92.0193 50.3442 91.4461C50.4834 90.8702 50.6854 90.3857 50.9502 89.9926C51.215 89.5968 51.5343 89.2966 51.9083 89.0918C52.285 88.8871 52.7094 88.7848 53.1816 88.7848C53.6511 88.7848 54.0687 88.8789 54.4345 89.0673C54.803 89.2529 55.1033 89.5122 55.3353 89.8452C55.5673 90.1782 55.7174 90.5617 55.7856 90.9957H54.7866C54.6938 90.619 54.5137 90.3065 54.2462 90.0581C53.9787 89.8097 53.6238 89.6855 53.1816 89.6855C52.532 89.6855 52.0202 89.968 51.6462 90.5331C51.275 91.0981 51.088 91.891 51.0853 92.9119H51.1508C51.3037 92.6799 51.4852 92.482 51.6954 92.3182C51.9083 92.1517 52.143 92.0234 52.3996 91.9333C52.6562 91.8433 52.9278 91.7982 53.2144 91.7982C53.6948 91.7982 54.1343 91.9183 54.5328 92.1585C54.9313 92.396 55.2506 92.7249 55.4909 93.1453C55.7311 93.5629 55.8512 94.0419 55.8512 94.5824C55.8512 95.101 55.7351 95.576 55.5031 96.0072C55.2711 96.4358 54.9449 96.777 54.5246 97.0308C54.107 97.2819 53.6156 97.4048 53.0506 97.3993ZM53.0506 96.4986C53.3945 96.4986 53.703 96.4126 53.9759 96.2406C54.2516 96.0686 54.4686 95.838 54.6269 95.5487C54.788 95.2593 54.8685 94.9372 54.8685 94.5824C54.8685 94.2357 54.7907 93.9205 54.6351 93.6366C54.4823 93.35 54.2707 93.1221 54.0005 92.9528C53.733 92.7836 53.4273 92.699 53.0834 92.699C52.8241 92.699 52.5825 92.7508 52.3587 92.8546C52.1348 92.9556 51.9383 93.0948 51.7691 93.2722C51.6026 93.4496 51.4716 93.653 51.376 93.8823C51.2805 94.1088 51.2327 94.3476 51.2327 94.5988C51.2327 94.9318 51.3105 95.2429 51.4661 95.5323C51.6244 95.8216 51.84 96.055 52.113 96.2324C52.3887 96.4098 52.7012 96.4986 53.0506 96.4986ZM60.1963 97.3993C59.5794 97.3993 59.054 97.2314 58.62 96.8957C58.186 96.5572 57.8543 96.0673 57.625 95.4258C57.3958 94.7816 57.2811 94.0037 57.2811 93.092C57.2811 92.1858 57.3958 91.412 57.625 90.7705C57.8571 90.1264 58.1901 89.635 58.6241 89.2966C59.0608 88.9554 59.5849 88.7848 60.1963 88.7848C60.8077 88.7848 61.3304 88.9554 61.7644 89.2966C62.2012 89.635 62.5342 90.1264 62.7635 90.7705C62.9955 91.412 63.1115 92.1858 63.1115 93.092C63.1115 94.0037 62.9968 94.7816 62.7676 95.4258C62.5383 96.0673 62.2066 96.5572 61.7726 96.8957C61.3386 97.2314 60.8132 97.3993 60.1963 97.3993ZM60.1963 96.4986C60.8077 96.4986 61.2827 96.2038 61.6211 95.6142C61.9596 95.0246 62.1288 94.1839 62.1288 93.092C62.1288 92.366 62.051 91.7477 61.8955 91.2373C61.7426 90.7269 61.5215 90.3379 61.2322 90.0704C60.9456 89.8029 60.6003 89.6692 60.1963 89.6692C59.5903 89.6692 59.1168 89.968 58.7756 90.5658C58.4344 91.1609 58.2638 92.0029 58.2638 93.092C58.2638 93.8181 58.3402 94.435 58.493 94.9427C58.6459 95.4504 58.8656 95.8366 59.1522 96.1014C59.4416 96.3662 59.7896 96.4986 60.1963 96.4986ZM72.3811 92.4042L71.5131 92.6498C71.4585 92.5052 71.378 92.3646 71.2715 92.2281C71.1678 92.0889 71.0259 91.9743 70.8457 91.8842C70.6656 91.7941 70.4349 91.7491 70.1538 91.7491C69.7689 91.7491 69.4482 91.8378 69.1916 92.0152C68.9378 92.1899 68.8108 92.4124 68.8108 92.6826C68.8108 92.9228 68.8982 93.1125 69.0729 93.2517C69.2476 93.3909 69.5205 93.5069 69.8917 93.5997L70.8253 93.829C71.3876 93.9655 71.8065 94.1743 72.0822 94.4555C72.3579 94.7339 72.4958 95.0928 72.4958 95.5323C72.4958 95.8926 72.392 96.2147 72.1846 96.4986C71.9799 96.7824 71.6933 97.0063 71.3248 97.17C70.9563 97.3338 70.5277 97.4157 70.0391 97.4157C69.3977 97.4157 68.8668 97.2765 68.4464 96.9981C68.0261 96.7196 67.76 96.3129 67.648 95.7779L68.5652 95.5487C68.6525 95.8871 68.8177 96.141 69.0606 96.3102C69.3063 96.4794 69.627 96.5641 70.0228 96.5641C70.4731 96.5641 70.8307 96.4685 71.0955 96.2775C71.363 96.0837 71.4967 95.8516 71.4967 95.5814C71.4967 95.363 71.4203 95.1802 71.2675 95.0328C71.1146 94.8826 70.8799 94.7707 70.5632 94.697L69.5151 94.4514C68.9391 94.3149 68.516 94.1033 68.2458 93.8167C67.9783 93.5274 67.8446 93.1657 67.8446 92.7317C67.8446 92.3769 67.9442 92.063 68.1435 91.79C68.3454 91.5171 68.6198 91.3028 68.9664 91.1472C69.3158 90.9916 69.7116 90.9138 70.1538 90.9138C70.7761 90.9138 71.2647 91.0503 71.6196 91.3233C71.9771 91.5962 72.231 91.9565 72.3811 92.4042ZM76.5871 97.4157C75.9811 97.4157 75.4584 97.2819 75.0189 97.0144C74.5822 96.7442 74.2451 96.3675 74.0076 95.8844C73.7729 95.3985 73.6555 94.8335 73.6555 94.1893C73.6555 93.5451 73.7729 92.9774 74.0076 92.4861C74.2451 91.992 74.5754 91.6072 74.9984 91.3315C75.4243 91.053 75.921 90.9138 76.4888 90.9138C76.8163 90.9138 77.1398 90.9684 77.4592 91.0776C77.7785 91.1868 78.0692 91.3642 78.3313 91.6099C78.5933 91.8528 78.8021 92.1749 78.9577 92.5762C79.1133 92.9774 79.1911 93.4715 79.1911 94.0583V94.4677H74.3433V93.6325H78.2084C78.2084 93.2777 78.1375 92.961 77.9955 92.6826C77.8563 92.4042 77.6571 92.1845 77.3977 92.0234C77.1412 91.8624 76.8382 91.7818 76.4888 91.7818C76.1039 91.7818 75.7709 91.8774 75.4898 92.0684C75.2114 92.2568 74.9971 92.5025 74.847 92.8054C74.6968 93.1084 74.6218 93.4332 74.6218 93.7799V94.3367C74.6218 94.8117 74.7036 95.2143 74.8674 95.5446C75.0339 95.8721 75.2646 96.1219 75.5594 96.2938C75.8542 96.4631 76.1967 96.5477 76.5871 96.5477C76.8409 96.5477 77.0702 96.5122 77.2749 96.4412C77.4824 96.3675 77.6611 96.2583 77.8113 96.1137C77.9614 95.9663 78.0774 95.7834 78.1593 95.565L79.0928 95.8271C78.9945 96.1437 78.8294 96.4221 78.5974 96.6623C78.3654 96.8998 78.0788 97.0854 77.7376 97.2192C77.3964 97.3502 77.0129 97.4157 76.5871 97.4157ZM83.2158 97.4157C82.6262 97.4157 82.1185 97.2765 81.6927 96.9981C81.2669 96.7196 80.9394 96.3361 80.7101 95.8475C80.4808 95.359 80.3662 94.8008 80.3662 94.173C80.3662 93.5342 80.4835 92.9706 80.7183 92.482C80.9557 91.9907 81.286 91.6072 81.7091 91.3315C82.1349 91.053 82.6317 90.9138 83.1995 90.9138C83.6416 90.9138 84.0402 90.9957 84.395 91.1595C84.7499 91.3233 85.0406 91.5526 85.2671 91.8474C85.4937 92.1421 85.6342 92.4861 85.6888 92.8791H84.7226C84.6489 92.5925 84.4851 92.3387 84.2312 92.1176C83.9801 91.8938 83.6416 91.7818 83.2158 91.7818C82.8391 91.7818 82.5089 91.8801 82.225 92.0766C81.9438 92.2704 81.7241 92.5448 81.5658 92.8996C81.4102 93.2517 81.3324 93.6653 81.3324 94.1402C81.3324 94.6261 81.4089 95.0491 81.5617 95.4094C81.7173 95.7698 81.9357 96.0495 82.2168 96.2488C82.5007 96.4481 82.8337 96.5477 83.2158 96.5477C83.467 96.5477 83.6949 96.504 83.8996 96.4167C84.1043 96.3293 84.2776 96.2038 84.4196 96.04C84.5615 95.8762 84.6625 95.6797 84.7226 95.4504H85.6888C85.6342 95.8216 85.4991 96.156 85.2835 96.4535C85.0706 96.7483 84.7881 96.983 84.436 97.1577C84.0866 97.3297 83.6799 97.4157 83.2158 97.4157ZM91.556 92.4042L90.688 92.6498C90.6335 92.5052 90.5529 92.3646 90.4465 92.2281C90.3428 92.0889 90.2008 91.9743 90.0207 91.8842C89.8405 91.7941 89.6099 91.7491 89.3287 91.7491C88.9438 91.7491 88.6231 91.8378 88.3665 92.0152C88.1127 92.1899 87.9858 92.4124 87.9858 92.6826C87.9858 92.9228 88.0731 93.1125 88.2478 93.2517C88.4225 93.3909 88.6955 93.5069 89.0667 93.5997L90.0002 93.829C90.5625 93.9655 90.9815 94.1743 91.2572 94.4555C91.5328 94.7339 91.6707 95.0928 91.6707 95.5323C91.6707 95.8926 91.567 96.2147 91.3595 96.4986C91.1548 96.7824 90.8682 97.0063 90.4997 97.17C90.1312 97.3338 89.7027 97.4157 89.2141 97.4157C88.5726 97.4157 88.0417 97.2765 87.6214 96.9981C87.201 96.7196 86.9349 96.3129 86.823 95.7779L87.7401 95.5487C87.8274 95.8871 87.9926 96.141 88.2355 96.3102C88.4812 96.4794 88.8019 96.5641 89.1977 96.5641C89.6481 96.5641 90.0057 96.4685 90.2704 96.2775C90.5379 96.0837 90.6717 95.8516 90.6717 95.5814C90.6717 95.363 90.5952 95.1802 90.4424 95.0328C90.2895 94.8826 90.0548 94.7707 89.7382 94.697L88.69 94.4514C88.1141 94.3149 87.691 94.1033 87.4207 93.8167C87.1532 93.5274 87.0195 93.1657 87.0195 92.7317C87.0195 92.3769 87.1191 92.063 87.3184 91.79C87.5204 91.5171 87.7947 91.3028 88.1413 91.1472C88.4907 90.9916 88.8865 90.9138 89.3287 90.9138C89.9511 90.9138 90.4397 91.0503 90.7945 91.3233C91.1521 91.5962 91.4059 91.9565 91.556 92.4042ZM99.971 92.6417V93.5424H96.3024V92.6417H99.971ZM107.682 97.3993C107.338 97.3939 106.994 97.3283 106.65 97.2028C106.306 97.0772 105.992 96.8657 105.708 96.5682C105.424 96.2679 105.196 95.8626 105.024 95.3521C104.852 94.839 104.767 94.1948 104.767 93.4196C104.767 92.6771 104.836 92.0193 104.975 91.4461C105.115 90.8702 105.317 90.3857 105.581 89.9926C105.846 89.5968 106.165 89.2966 106.539 89.0918C106.916 88.8871 107.341 88.7848 107.813 88.7848C108.282 88.7848 108.7 88.8789 109.066 89.0673C109.434 89.2529 109.734 89.5122 109.966 89.8452C110.198 90.1782 110.348 90.5617 110.417 90.9957H109.418C109.325 90.619 109.145 90.3065 108.877 90.0581C108.61 89.8097 108.255 89.6855 107.813 89.6855C107.163 89.6855 106.651 89.968 106.277 90.5331C105.906 91.0981 105.719 91.891 105.716 92.9119H105.782C105.935 92.6799 106.116 92.482 106.326 92.3182C106.539 92.1517 106.774 92.0234 107.031 91.9333C107.287 91.8433 107.559 91.7982 107.845 91.7982C108.326 91.7982 108.765 91.9183 109.164 92.1585C109.562 92.396 109.882 92.7249 110.122 93.1453C110.362 93.5629 110.482 94.0419 110.482 94.5824C110.482 95.101 110.366 95.576 110.134 96.0072C109.902 96.4358 109.576 96.777 109.156 97.0308C108.738 97.2819 108.247 97.4048 107.682 97.3993ZM107.682 96.4986C108.026 96.4986 108.334 96.4126 108.607 96.2406C108.883 96.0686 109.1 95.838 109.258 95.5487C109.419 95.2593 109.5 94.9372 109.5 94.5824C109.5 94.2357 109.422 93.9205 109.266 93.6366C109.113 93.35 108.902 93.1221 108.632 92.9528C108.364 92.7836 108.058 92.699 107.714 92.699C107.455 92.699 107.214 92.7508 106.99 92.8546C106.766 92.9556 106.569 93.0948 106.4 93.2722C106.234 93.4496 106.103 93.653 106.007 93.8823C105.912 94.1088 105.864 94.3476 105.864 94.5988C105.864 94.9318 105.942 95.2429 106.097 95.5323C106.255 95.8216 106.471 96.055 106.744 96.2324C107.02 96.4098 107.332 96.4986 107.682 96.4986ZM114.877 97.3993C114.533 97.3939 114.189 97.3283 113.845 97.2028C113.501 97.0772 113.187 96.8657 112.903 96.5682C112.619 96.2679 112.391 95.8626 112.219 95.3521C112.047 94.839 111.961 94.1948 111.961 93.4196C111.961 92.6771 112.031 92.0193 112.17 91.4461C112.309 90.8702 112.511 90.3857 112.776 89.9926C113.041 89.5968 113.36 89.2966 113.734 89.0918C114.111 88.8871 114.535 88.7848 115.008 88.7848C115.477 88.7848 115.895 88.8789 116.26 89.0673C116.629 89.2529 116.929 89.5122 117.161 89.8452C117.393 90.1782 117.543 90.5617 117.612 90.9957H116.613C116.52 90.619 116.34 90.3065 116.072 90.0581C115.805 89.8097 115.45 89.6855 115.008 89.6855C114.358 89.6855 113.846 89.968 113.472 90.5331C113.101 91.0981 112.914 91.891 112.911 92.9119H112.977C113.13 92.6799 113.311 92.482 113.521 92.3182C113.734 92.1517 113.969 92.0234 114.226 91.9333C114.482 91.8433 114.754 91.7982 115.04 91.7982C115.521 91.7982 115.96 91.9183 116.359 92.1585C116.757 92.396 117.077 92.7249 117.317 93.1453C117.557 93.5629 117.677 94.0419 117.677 94.5824C117.677 95.101 117.561 95.576 117.329 96.0072C117.097 96.4358 116.771 96.777 116.35 97.0308C115.933 97.2819 115.442 97.4048 114.877 97.3993ZM114.877 96.4986C115.22 96.4986 115.529 96.4126 115.802 96.2406C116.078 96.0686 116.295 95.838 116.453 95.5487C116.614 95.2593 116.694 94.9372 116.694 94.5824C116.694 94.2357 116.617 93.9205 116.461 93.6366C116.308 93.35 116.097 93.1221 115.826 92.9528C115.559 92.7836 115.253 92.699 114.909 92.699C114.65 92.699 114.408 92.7508 114.185 92.8546C113.961 92.9556 113.764 93.0948 113.595 93.2722C113.428 93.4496 113.297 93.653 113.202 93.8823C113.106 94.1088 113.059 94.3476 113.059 94.5988C113.059 94.9318 113.136 95.2429 113.292 95.5323C113.45 95.8216 113.666 96.055 113.939 96.2324C114.215 96.4098 114.527 96.4986 114.877 96.4986ZM125.101 97.4157C124.512 97.4157 124.004 97.2765 123.578 96.9981C123.152 96.7196 122.825 96.3361 122.595 95.8475C122.366 95.359 122.251 94.8008 122.251 94.173C122.251 93.5342 122.369 92.9706 122.604 92.482C122.841 91.9907 123.171 91.6072 123.594 91.3315C124.02 91.053 124.517 90.9138 125.085 90.9138C125.527 90.9138 125.926 90.9957 126.28 91.1595C126.635 91.3233 126.926 91.5526 127.152 91.8474C127.379 92.1421 127.52 92.4861 127.574 92.8791H126.608C126.534 92.5925 126.37 92.3387 126.117 92.1176C125.865 91.8938 125.527 91.7818 125.101 91.7818C124.724 91.7818 124.394 91.8801 124.11 92.0766C123.829 92.2704 123.609 92.5448 123.451 92.8996C123.296 93.2517 123.218 93.6653 123.218 94.1402C123.218 94.6261 123.294 95.0491 123.447 95.4094C123.603 95.7698 123.821 96.0495 124.102 96.2488C124.386 96.4481 124.719 96.5477 125.101 96.5477C125.352 96.5477 125.58 96.504 125.785 96.4167C125.99 96.3293 126.163 96.2038 126.305 96.04C126.447 95.8762 126.548 95.6797 126.608 95.4504H127.574C127.52 95.8216 127.384 96.156 127.169 96.4535C126.956 96.7483 126.673 96.983 126.321 97.1577C125.972 97.3297 125.565 97.4157 125.101 97.4157ZM130.837 97.4321C130.439 97.4321 130.077 97.357 129.752 97.2069C129.428 97.054 129.17 96.8343 128.979 96.5477C128.787 96.2583 128.692 95.909 128.692 95.4995C128.692 95.1392 128.763 94.8472 128.905 94.6233C129.047 94.3968 129.236 94.2194 129.474 94.0911C129.711 93.9628 129.973 93.8672 130.26 93.8045C130.549 93.7389 130.84 93.6871 131.132 93.6489C131.514 93.5997 131.824 93.5629 132.062 93.5383C132.302 93.511 132.476 93.466 132.586 93.4032C132.698 93.3404 132.754 93.2312 132.754 93.0757V93.0429C132.754 92.6389 132.643 92.325 132.422 92.1012C132.204 91.8774 131.872 91.7655 131.427 91.7655C130.966 91.7655 130.604 91.8665 130.342 92.0684C130.08 92.2704 129.896 92.4861 129.789 92.7154L128.872 92.3878C129.036 92.0057 129.254 91.7081 129.527 91.4952C129.803 91.2796 130.103 91.1295 130.428 91.0449C130.755 90.9575 131.078 90.9138 131.394 90.9138C131.596 90.9138 131.828 90.9384 132.09 90.9875C132.355 91.0339 132.61 91.1308 132.856 91.2782C133.104 91.4256 133.31 91.6481 133.474 91.9456C133.638 92.2431 133.72 92.6417 133.72 93.1412V97.2847H132.754V96.433H132.704C132.639 96.5695 132.53 96.7156 132.377 96.8711C132.224 97.0267 132.021 97.1591 131.767 97.2683C131.513 97.3775 131.203 97.4321 130.837 97.4321ZM130.985 96.5641C131.367 96.5641 131.689 96.489 131.951 96.3389C132.216 96.1887 132.415 95.9949 132.549 95.7575C132.685 95.52 132.754 95.2702 132.754 95.0082V94.1238C132.713 94.173 132.623 94.218 132.483 94.2589C132.347 94.2971 132.189 94.3313 132.008 94.3613C131.831 94.3886 131.658 94.4132 131.488 94.435C131.322 94.4541 131.187 94.4705 131.083 94.4841C130.832 94.5169 130.597 94.5701 130.379 94.6438C130.163 94.7148 129.988 94.8226 129.855 94.9673C129.724 95.1092 129.658 95.303 129.658 95.5487C129.658 95.8844 129.782 96.1382 130.031 96.3102C130.282 96.4794 130.6 96.5641 130.985 96.5641ZM136.45 88.8994V97.2847H135.483V88.8994H136.45ZM140.774 97.4157C140.207 97.4157 139.708 97.2806 139.28 97.0103C138.854 96.7401 138.521 96.3621 138.281 95.8762C138.043 95.3903 137.925 94.8226 137.925 94.173C137.925 93.5179 138.043 92.946 138.281 92.4574C138.521 91.9688 138.854 91.5894 139.28 91.3192C139.708 91.049 140.207 90.9138 140.774 90.9138C141.342 90.9138 141.839 91.049 142.265 91.3192C142.693 91.5894 143.026 91.9688 143.264 92.4574C143.504 92.946 143.624 93.5179 143.624 94.173C143.624 94.8226 143.504 95.3903 143.264 95.8762C143.026 96.3621 142.693 96.7401 142.265 97.0103C141.839 97.2806 141.342 97.4157 140.774 97.4157ZM140.774 96.5477C141.206 96.5477 141.561 96.4371 141.839 96.216C142.117 95.9949 142.323 95.7042 142.457 95.3439C142.591 94.9836 142.658 94.5933 142.658 94.173C142.658 93.7526 142.591 93.3609 142.457 92.9979C142.323 92.6348 142.117 92.3414 141.839 92.1176C141.561 91.8938 141.206 91.7818 140.774 91.7818C140.343 91.7818 139.988 91.8938 139.71 92.1176C139.431 92.3414 139.225 92.6348 139.092 92.9979C138.958 93.3609 138.891 93.7526 138.891 94.173C138.891 94.5933 138.958 94.9836 139.092 95.3439C139.225 95.7042 139.431 95.9949 139.71 96.216C139.988 96.4371 140.343 96.5477 140.774 96.5477ZM145.099 97.2847V90.9957H146.033V91.9456H146.098C146.213 91.6344 146.42 91.382 146.72 91.1882C147.021 90.9944 147.359 90.8975 147.736 90.8975C147.807 90.8975 147.896 90.8988 148.002 90.9016C148.108 90.9043 148.189 90.9084 148.244 90.9138V91.8965C148.211 91.8883 148.136 91.876 148.018 91.8596C147.904 91.8405 147.782 91.831 147.654 91.831C147.348 91.831 147.075 91.8951 146.835 92.0234C146.598 92.149 146.409 92.3237 146.27 92.5475C146.134 92.7686 146.065 93.0211 146.065 93.3049V97.2847H145.099ZM149.389 97.2847V90.9957H150.355V97.2847H149.389ZM149.88 89.9476C149.692 89.9476 149.53 89.8834 149.393 89.7551C149.259 89.6268 149.192 89.4726 149.192 89.2925C149.192 89.1123 149.259 88.9581 149.393 88.8298C149.53 88.7015 149.692 88.6374 149.88 88.6374C150.069 88.6374 150.23 88.7015 150.363 88.8298C150.5 88.9581 150.568 89.1123 150.568 89.2925C150.568 89.4726 150.5 89.6268 150.363 89.7551C150.23 89.8834 150.069 89.9476 149.88 89.9476ZM154.762 97.4157C154.156 97.4157 153.633 97.2819 153.194 97.0144C152.757 96.7442 152.42 96.3675 152.182 95.8844C151.948 95.3985 151.83 94.8335 151.83 94.1893C151.83 93.5451 151.948 92.9774 152.182 92.4861C152.42 91.992 152.75 91.6072 153.173 91.3315C153.599 91.053 154.096 90.9138 154.663 90.9138C154.991 90.9138 155.314 90.9684 155.634 91.0776C155.953 91.1868 156.244 91.3642 156.506 91.6099C156.768 91.8528 156.977 92.1749 157.132 92.5762C157.288 92.9774 157.366 93.4715 157.366 94.0583V94.4677H152.518V93.6325H156.383C156.383 93.2777 156.312 92.961 156.17 92.6826C156.031 92.4042 155.832 92.1845 155.572 92.0234C155.316 91.8624 155.013 91.7818 154.663 91.7818C154.279 91.7818 153.946 91.8774 153.664 92.0684C153.386 92.2568 153.172 92.5025 153.022 92.8054C152.872 93.1084 152.796 93.4332 152.796 93.7799V94.3367C152.796 94.8117 152.878 95.2143 153.042 95.5446C153.209 95.8721 153.439 96.1219 153.734 96.2938C154.029 96.4631 154.371 96.5477 154.762 96.5477C155.016 96.5477 155.245 96.5122 155.45 96.4412C155.657 96.3675 155.836 96.2583 155.986 96.1137C156.136 95.9663 156.252 95.7834 156.334 95.565L157.268 95.8271C157.169 96.1437 157.004 96.4221 156.772 96.6623C156.54 96.8998 156.253 97.0854 155.912 97.2192C155.571 97.3502 155.188 97.4157 154.762 97.4157ZM163.29 92.4042L162.422 92.6498C162.368 92.5052 162.287 92.3646 162.181 92.2281C162.077 92.0889 161.935 91.9743 161.755 91.8842C161.575 91.7941 161.344 91.7491 161.063 91.7491C160.678 91.7491 160.357 91.8378 160.101 92.0152C159.847 92.1899 159.72 92.4124 159.72 92.6826C159.72 92.9228 159.807 93.1125 159.982 93.2517C160.157 93.3909 160.43 93.5069 160.801 93.5997L161.734 93.829C162.297 93.9655 162.716 94.1743 162.991 94.4555C163.267 94.7339 163.405 95.0928 163.405 95.5323C163.405 95.8926 163.301 96.2147 163.094 96.4986C162.889 96.7824 162.602 97.0063 162.234 97.17C161.865 97.3338 161.437 97.4157 160.948 97.4157C160.307 97.4157 159.776 97.2765 159.356 96.9981C158.935 96.7196 158.669 96.3129 158.557 95.7779L159.474 95.5487C159.562 95.8871 159.727 96.141 159.97 96.3102C160.215 96.4794 160.536 96.5641 160.932 96.5641C161.382 96.5641 161.74 96.4685 162.005 96.2775C162.272 96.0837 162.406 95.8516 162.406 95.5814C162.406 95.363 162.33 95.1802 162.177 95.0328C162.024 94.8826 161.789 94.7707 161.472 94.697L160.424 94.4514C159.848 94.3149 159.425 94.1033 159.155 93.8167C158.888 93.5274 158.754 93.1657 158.754 92.7317C158.754 92.3769 158.853 92.063 159.053 91.79C159.255 91.5171 159.529 91.3028 159.876 91.1472C160.225 90.9916 160.621 90.9138 161.063 90.9138C161.685 90.9138 162.174 91.0503 162.529 91.3233C162.886 91.5962 163.14 91.9565 163.29 92.4042Z" fill="#545C65"/>
</g>
<defs>
<filter id="filter0_dd_22460_105158" x="0.444281" y="0.160129" width="354.858" height="164.673" filterUnits="userSpaceOnUse" color-interpolation-filters="sRGB">
<feFlood flood-opacity="0" result="BackgroundImageFix"/>
<feColorMatrix in="SourceAlpha" type="matrix" values="0 0 0 0 0 0 0 0 0 0 0 0 0 0 0 0 0 0 127 0" result="hardAlpha"/>
<feOffset dy="14.5943"/>
<feGaussianBlur stdDeviation="14.5943"/>
<feColorMatrix type="matrix" values="0 0 0 0 0 0 0 0 0 0 0 0 0 0 0 0 0 0 0.08 0"/>
<feBlend mode="normal" in2="BackgroundImageFix" result="effect1_dropShadow_22460_105158"/>
<feColorMatrix in="SourceAlpha" type="matrix" values="0 0 0 0 0 0 0 0 0 0 0 0 0 0 0 0 0 0 127 0" result="hardAlpha"/>
<feOffset/>
<feGaussianBlur stdDeviation="3.64857"/>
<feColorMatrix type="matrix" values="0 0 0 0 0 0 0 0 0 0 0 0 0 0 0 0 0 0 0.04 0"/>
<feBlend mode="normal" in2="effect1_dropShadow_22460_105158" result="effect2_dropShadow_22460_105158"/>
<feBlend mode="normal" in="SourceGraphic" in2="effect2_dropShadow_22460_105158" result="shape"/>
</filter>
</defs>
</svg>
