<svg width="952" height="487" viewBox="0 0 952 487" fill="none" xmlns="http://www.w3.org/2000/svg">
<g clip-path="url(#clip0_133_2878)">
<rect width="952" height="487" fill="black"/>
<mask id="mask0_133_2878" style="mask-type:luminance" maskUnits="userSpaceOnUse" x="0" y="0" width="952" height="487">
<path d="M952 0H0V487H952V0Z" fill="white"/>
</mask>
<g mask="url(#mask0_133_2878)">
<g opacity="0.32">
<path d="M317.094 702.07C332.914 659.41 396.684 575.92 525.164 583.3C685.754 592.52 739.724 491.98 794.544 385.04C849.364 278.1 1000.35 296.1 1050.36 255.07C1115.78 201.4 1118.65 137.38 1125.57 96" stroke="#CFE5AC" stroke-width="0.65"/>
<path d="M297.711 688.969C313.531 646.309 377.301 562.829 505.781 570.199C666.371 579.419 720.341 478.879 775.161 371.939C829.981 264.999 980.971 282.999 1030.98 241.969C1096.4 188.299 1099.27 124.279 1106.19 82.8994" stroke="#CFE5AC" stroke-width="0.65"/>
<path d="M290.359 665.74C306.179 623.08 369.949 539.6 498.429 546.97C659.029 556.19 712.989 455.65 767.809 348.71C822.629 241.77 973.619 259.77 1023.63 218.74C1089.05 165.07 1091.92 101.05 1098.84 59.6699" stroke="#CFE5AC" stroke-width="0.65"/>
<path d="M276.148 648.559C291.968 605.899 355.738 522.419 484.218 529.789C644.818 539.009 698.778 438.469 753.598 331.529C808.418 224.589 959.408 242.589 1009.42 201.559C1074.83 147.889 1077.71 83.8693 1084.63 42.4893" stroke="#CFE5AC" stroke-width="0.65"/>
<path d="M264.859 621.979C280.679 579.319 344.449 495.839 472.929 503.209C633.529 512.429 687.489 411.889 742.309 304.949C797.129 198.009 948.119 216.009 998.129 174.979C1063.55 121.309 1066.42 57.2892 1073.34 15.9092" stroke="#CFE5AC" stroke-width="0.65"/>
<path d="M248.602 600.37C264.422 557.71 328.192 474.22 456.672 481.6C617.262 490.82 671.232 390.28 726.052 283.34C780.872 176.4 931.862 194.4 981.872 153.37C1047.29 99.6998 1050.16 35.6798 1057.08 -5.7002" stroke="#CFE5AC" stroke-width="0.65"/>
<path d="M240.703 579.269C256.523 536.609 320.293 453.129 448.773 460.499C609.373 469.719 663.333 369.179 718.153 262.239C772.973 155.299 923.963 173.299 973.973 132.269C1039.39 78.5992 1042.26 14.5792 1049.18 -26.8008" stroke="#CFE5AC" stroke-width="0.65"/>
<path d="M224.961 557.259C240.781 514.599 304.551 431.119 433.031 438.489C593.621 447.709 647.591 347.169 702.411 240.229C757.231 133.289 908.221 151.289 958.231 110.259C1023.65 56.5895 1026.52 -7.4306 1033.44 -48.8105" stroke="#CFE5AC" stroke-width="0.65"/>
<path d="M202.094 522.74C218.304 480.22 282.814 397.31 411.214 405.85C571.724 416.51 626.584 316.46 682.364 210.02C738.144 103.58 888.964 122.93 939.344 82.35C1005.23 29.27 1008.68 -34.72 1015.97 -76.04" stroke="#CFE5AC" stroke-width="0.65"/>
<path d="M169.281 501.8C185.491 459.28 250.001 376.38 378.401 384.91C538.911 395.57 593.771 295.52 649.551 189.08C705.331 82.6295 856.151 101.99 906.531 61.4095C972.431 8.32956 975.871 -55.6705 983.161 -96.9805" stroke="#CFE5AC" stroke-width="0.65"/>
<path d="M332.352 717.16C348.172 674.5 411.942 591.01 540.422 598.39C701.012 607.61 754.982 507.07 809.802 400.13C864.622 293.19 1015.61 311.19 1065.62 270.16C1131.04 216.49 1133.91 152.47 1140.83 111.09" stroke="#CFE5AC" stroke-width="0.65"/>
<path d="M350.672 732.359C366.492 689.699 430.262 606.209 558.742 613.589C719.332 622.809 773.302 522.269 828.122 415.329C882.942 308.389 1033.93 326.389 1083.94 285.359C1149.36 231.689 1152.23 167.669 1159.15 126.289" stroke="#CFE5AC" stroke-width="0.65"/>
<path d="M363.5 755.149C379.32 712.489 443.09 629.009 571.57 636.379C732.16 645.599 786.13 545.059 840.95 438.119C895.77 331.179 1046.76 349.179 1096.77 308.149C1162.19 254.479 1165.06 190.459 1171.98 149.079" stroke="#CFE5AC" stroke-width="0.65"/>
<path d="M385.133 773.57C400.953 730.91 464.723 647.43 593.203 654.8C753.793 664.02 807.763 563.48 862.583 456.54C917.403 349.6 1068.39 367.6 1118.4 326.57C1183.82 272.9 1186.69 208.88 1193.61 167.5" stroke="#CFE5AC" stroke-width="0.65"/>
</g>
</g>
</g>
<defs>
<clipPath id="clip0_133_2878">
<rect width="952" height="487" fill="white"/>
</clipPath>
</defs>
</svg>
