<svg width="168" height="56" viewBox="0 0 168 56" fill="none" xmlns="http://www.w3.org/2000/svg">
<path d="M153.846 0.0626816H13.3189C12.8066 0.0626816 12.3005 0.0626816 11.7897 0.0654754C11.362 0.0682691 10.9377 0.0763851 10.506 0.0832158C9.56799 0.0942538 8.63221 0.176774 7.70676 0.33006C6.78262 0.486682 5.88742 0.78196 5.05145 1.20591C4.2165 1.63344 3.45359 2.18898 2.79038 2.85236C2.12369 3.51388 1.56795 4.27851 1.14454 5.11684C0.719956 5.9535 0.425548 6.85007 0.271485 7.77556C0.115957 8.69989 0.0322658 9.63488 0.0211628 10.5721C0.00819972 11.0004 0.00683078 11.4301 0 11.8585V44.1465C0.00683078 44.5802 0.00819972 45.0004 0.0211628 45.4343C0.0322692 46.3715 0.11596 47.3064 0.271485 48.2307C0.425123 49.1567 0.719548 50.0538 1.14454 50.8908C1.56776 51.7264 2.12358 52.4879 2.79038 53.1458C3.45107 53.8121 4.21448 54.368 5.05145 54.7923C5.88741 55.2174 6.78251 55.5144 7.70676 55.6734C8.63237 55.8255 9.56805 55.908 10.506 55.9204C10.9377 55.9299 11.362 55.9354 11.7897 55.9354C12.3005 55.9381 12.8067 55.9381 13.3189 55.9381H153.846C154.348 55.9381 154.858 55.9381 155.36 55.9354C155.786 55.9354 156.222 55.9299 156.648 55.9204C157.584 55.9087 158.518 55.8261 159.442 55.6734C160.369 55.5133 161.267 55.2163 162.107 54.7923C162.943 54.3678 163.706 53.8119 164.366 53.1458C165.031 52.4854 165.588 51.7244 166.017 50.8908C166.439 50.0532 166.73 49.1562 166.882 48.2307C167.037 47.3063 167.124 46.3715 167.141 45.4343C167.146 45.0004 167.146 44.5802 167.146 44.1465C167.157 43.639 167.157 43.1343 167.157 42.6186V13.3836C167.157 12.872 167.157 12.3646 167.146 11.8585C167.146 11.4301 167.146 11.0004 167.141 10.5721C167.124 9.63474 167.037 8.69996 166.882 7.77551C166.73 6.85055 166.438 5.95406 166.017 5.11678C165.154 3.43644 163.787 2.06865 162.107 1.20578C161.267 0.782871 160.369 0.487671 159.442 0.329934C158.518 0.175973 157.584 0.0934239 156.648 0.0830203C156.222 0.0762035 155.786 0.0680177 155.36 0.0652938C154.858 0.0625 154.348 0.0625 153.846 0.0625V0.0626816Z" fill="#A6A6A6"/>
<path d="M11.7957 54.7161C11.3701 54.7161 10.9548 54.7106 10.5325 54.7011C9.65778 54.6897 8.78507 54.6136 7.92156 54.4733C7.11638 54.3346 6.33638 54.0767 5.60728 53.7079C4.88487 53.3423 4.22597 52.8628 3.65583 52.2879C3.07743 51.7197 2.59589 51.0608 2.23029 50.3371C1.86066 49.6088 1.60485 48.8281 1.47178 48.0222C1.32808 47.1563 1.25033 46.2807 1.2392 45.403C1.23034 45.1084 1.21875 44.1275 1.21875 44.1275V11.8587C1.21875 11.8587 1.2311 10.8928 1.23927 10.6091C1.24992 9.7328 1.32722 8.85859 1.4705 7.99403C1.60381 7.18595 1.85982 6.403 2.22965 5.67226C2.59391 4.94911 3.07277 4.28966 3.64768 3.71948C4.22195 3.14388 4.88295 2.66193 5.60659 2.29121C6.33402 1.92366 7.11254 1.66753 7.91609 1.53139C8.78244 1.38969 9.65818 1.31309 10.536 1.30221L11.7964 1.28516H155.352L156.628 1.3029C157.498 1.31323 158.366 1.38915 159.224 1.53002C160.036 1.66787 160.822 1.92579 161.558 2.2953C163.008 3.04242 164.187 4.22443 164.931 5.67567C165.295 6.40136 165.547 7.17793 165.679 7.97902C165.824 8.85068 165.905 9.73176 165.922 10.6152C165.926 11.0108 165.926 11.4358 165.926 11.8587C165.937 12.3825 165.937 12.8811 165.937 13.3838V42.6188C165.937 43.1262 165.937 43.6214 165.926 44.1207C165.926 44.575 165.926 44.9911 165.92 45.4194C165.904 46.2871 165.824 47.1524 165.682 48.0085C165.551 48.8202 165.297 49.607 164.927 50.3413C164.559 51.0571 164.08 51.7103 163.509 52.277C162.938 52.855 162.278 53.3373 161.554 53.7053C160.82 54.0768 160.035 54.3358 159.224 54.4733C158.36 54.6143 157.488 54.6905 156.613 54.7011C156.204 54.7106 155.775 54.7161 155.359 54.7161L153.845 54.7189L11.7957 54.7161Z" fill="black"/>
<path d="M34.6038 28.422C34.6188 27.2561 34.9285 26.1129 35.504 25.0989C36.0796 24.0848 36.9023 23.2328 37.8956 22.6221C37.2646 21.7209 36.4321 20.9792 35.4643 20.456C34.4965 19.9328 33.42 19.6425 32.3204 19.6081C29.9747 19.3618 27.7006 21.0117 26.5053 21.0117C25.2868 21.0117 23.4465 19.6325 21.4646 19.6733C20.1828 19.7147 18.9335 20.0875 17.8385 20.7553C16.7435 21.423 15.8401 22.3631 15.2165 23.4838C12.5149 28.1612 14.53 35.0353 17.1179 38.8161C18.4127 40.6675 19.9259 42.7355 21.9059 42.6622C23.8435 42.5818 24.5671 41.4267 26.906 41.4267C29.2231 41.4267 29.902 42.6622 31.9222 42.6156C34.0013 42.5818 35.3112 40.756 36.5605 38.8871C37.4908 37.5679 38.2067 36.1099 38.6816 34.5672C37.4737 34.0563 36.4429 33.2012 35.7178 32.1084C34.9926 31.0156 34.6052 29.7335 34.6038 28.422V28.422Z" fill="white"/>
<path d="M30.789 17.1211C31.9226 15.7603 32.4811 14.0111 32.3458 12.2451C30.6139 12.427 29.0141 13.2548 27.8652 14.5634C27.3035 15.2027 26.8732 15.9465 26.5991 16.7521C26.325 17.5578 26.2123 18.4096 26.2676 19.2589C27.1338 19.2678 27.9908 19.08 28.774 18.7097C29.5572 18.3395 30.2462 17.7963 30.789 17.1211Z" fill="white"/>
<path d="M59.0981 37.9734H52.4861L50.8983 42.662H48.0977L54.3605 25.3154H57.2702L63.533 42.662H60.6846L59.0981 37.9734ZM53.1709 35.8098H58.412L55.8283 28.2006H55.756L53.1709 35.8098Z" fill="white"/>
<path d="M77.0577 36.3387C77.0577 40.2688 74.9542 42.7939 71.7798 42.7939C70.9757 42.8359 70.1759 42.6507 69.4722 42.2594C68.7685 41.8681 68.1891 41.2865 67.8006 40.5812H67.7405V46.8454H65.1445V30.0145H67.6573V32.1181H67.7051C68.1115 31.4162 68.7006 30.8376 69.4097 30.4439C70.1188 30.0502 70.9214 29.8561 71.732 29.8822C74.9418 29.8822 77.0577 32.4195 77.0577 36.3387ZM74.3894 36.3387C74.3894 33.7782 73.0662 32.0949 71.0472 32.0949C69.0638 32.0949 67.7296 33.8137 67.7296 36.3387C67.7296 38.887 69.0638 40.5935 71.0472 40.5935C73.0662 40.5935 74.3894 38.9224 74.3894 36.3387Z" fill="white"/>
<path d="M90.9756 36.3387C90.9756 40.2688 88.8721 42.7939 85.6978 42.7939C84.8936 42.8359 84.0939 42.6507 83.3902 42.2594C82.6864 41.8681 82.1071 41.2865 81.7185 40.5812H81.6585V46.8454H79.0625V30.0145H81.5752V32.118H81.623C82.0294 31.4162 82.6185 30.8376 83.3276 30.4439C84.0367 30.0502 84.8393 29.8561 85.65 29.8822C88.8598 29.8822 90.9756 32.4195 90.9756 36.3387ZM88.3074 36.3387C88.3074 33.7782 86.9841 32.0949 84.9652 32.0949C82.9817 32.0949 81.6476 33.8137 81.6476 36.3387C81.6476 38.887 82.9817 40.5935 84.9652 40.5935C86.9841 40.5935 88.3074 38.9224 88.3074 36.3387H88.3074Z" fill="white"/>
<path d="M100.177 37.829C100.369 39.5492 102.04 40.6786 104.324 40.6786C106.512 40.6786 108.086 39.5491 108.086 37.9981C108.086 36.6516 107.137 35.8454 104.889 35.293L102.641 34.7514C99.4553 33.982 97.9766 32.4923 97.9766 30.0751C97.9766 27.0821 100.585 25.0264 104.288 25.0264C107.954 25.0264 110.467 27.0821 110.551 30.0751H107.931C107.774 28.344 106.343 27.299 104.252 27.299C102.16 27.299 100.729 28.3563 100.729 29.895C100.729 31.1214 101.643 31.843 103.879 32.3954L105.79 32.8647C109.349 33.7064 110.828 35.1361 110.828 37.6733C110.828 40.9186 108.243 42.9512 104.132 42.9512C100.285 42.9512 97.6873 40.9664 97.5195 37.8288L100.177 37.829Z" fill="white"/>
<path d="M116.431 27.0225V30.0154H118.836V32.0712H116.431V39.0433C116.431 40.1265 116.913 40.6312 117.97 40.6312C118.256 40.6262 118.541 40.6062 118.824 40.5711V42.6146C118.349 42.7034 117.866 42.7437 117.382 42.7347C114.822 42.7347 113.823 41.7729 113.823 39.3202V32.0712H111.984V30.0154H113.823V27.0225H116.431Z" fill="white"/>
<path d="M120.227 36.3391C120.227 32.3599 122.57 29.8594 126.225 29.8594C129.892 29.8594 132.224 32.3598 132.224 36.3391C132.224 40.3292 129.904 42.8188 126.225 42.8188C122.547 42.8188 120.227 40.3292 120.227 36.3391ZM129.579 36.3391C129.579 33.6094 128.328 31.9984 126.225 31.9984C124.121 31.9984 122.872 33.6217 122.872 36.3391C122.872 39.0796 124.121 40.6784 126.225 40.6784C128.328 40.6784 129.579 39.0796 129.579 36.3391H129.579Z" fill="white"/>
<path d="M134.367 30.0144H136.843V32.167H136.903C137.071 31.4947 137.465 30.9006 138.019 30.4845C138.573 30.0684 139.253 29.8556 139.945 29.8821C140.244 29.881 140.543 29.9135 140.835 29.9789V32.4071C140.457 32.2917 140.063 32.2387 139.668 32.2503C139.291 32.235 138.915 32.3014 138.566 32.4452C138.217 32.5889 137.903 32.8064 137.646 33.0829C137.389 33.3593 137.195 33.6881 137.077 34.0466C136.959 34.4051 136.92 34.785 136.963 35.16V42.6614H134.367L134.367 30.0144Z" fill="white"/>
<path d="M152.803 38.9473C152.454 41.2432 150.218 42.8188 147.357 42.8188C143.678 42.8188 141.395 40.3537 141.395 36.3991C141.395 32.4322 143.69 29.8594 147.248 29.8594C150.747 29.8594 152.948 32.263 152.948 36.0976V36.987H144.015V37.1439C143.974 37.6094 144.032 38.0782 144.186 38.5194C144.34 38.9606 144.586 39.364 144.908 39.7028C145.23 40.0417 145.62 40.3081 146.052 40.4846C146.485 40.661 146.95 40.7433 147.417 40.7262C148.031 40.7836 148.646 40.6416 149.173 40.3211C149.699 40.0006 150.107 39.5188 150.338 38.9473L152.803 38.9473ZM144.027 35.1727H150.35C150.373 34.7542 150.31 34.3354 150.164 33.9426C150.018 33.5498 149.792 33.1914 149.5 32.89C149.209 32.5886 148.859 32.3507 148.471 32.1911C148.084 32.0316 147.667 31.9539 147.248 31.9629C146.825 31.9604 146.406 32.0416 146.015 32.2019C145.624 32.3622 145.268 32.5983 144.969 32.8967C144.669 33.1952 144.432 33.5499 144.27 33.9406C144.109 34.3312 144.026 34.75 144.027 35.1727V35.1727Z" fill="white"/>
<path d="M52.8427 12.2595C53.3869 12.2204 53.9331 12.3026 54.4417 12.5002C54.9503 12.6978 55.4088 13.0057 55.7839 13.4019C56.1591 13.7981 56.4417 14.2726 56.6113 14.7913C56.7809 15.3099 56.8332 15.8597 56.7646 16.401C56.7646 19.0638 55.3255 20.5945 52.8427 20.5945H49.832V12.2595H52.8427ZM51.1266 19.4157H52.6981C53.087 19.439 53.4762 19.3752 53.8373 19.2291C54.1985 19.0829 54.5225 18.8581 54.7858 18.5709C55.0491 18.2838 55.2451 17.9415 55.3594 17.5691C55.4738 17.1967 55.5036 16.8034 55.4468 16.418C55.4995 16.0341 55.4666 15.6433 55.3505 15.2736C55.2344 14.9039 55.038 14.5644 54.7753 14.2795C54.5126 13.9947 54.1901 13.7714 53.831 13.6258C53.4719 13.4802 53.085 13.4159 52.6981 13.4373H51.1266V19.4157Z" fill="white"/>
<path d="M58.2289 17.4463C58.1893 17.0329 58.2366 16.6158 58.3677 16.2218C58.4988 15.8278 58.7108 15.4655 58.9901 15.1582C59.2694 14.851 59.6098 14.6054 59.9896 14.4374C60.3693 14.2694 60.78 14.1826 61.1952 14.1826C61.6105 14.1826 62.0211 14.2694 62.4009 14.4374C62.7806 14.6054 63.1211 14.851 63.4004 15.1582C63.6797 15.4655 63.8916 15.8278 64.0227 16.2218C64.1538 16.6158 64.2011 17.0329 64.1616 17.4463C64.2018 17.8601 64.1551 18.2777 64.0244 18.6724C63.8936 19.067 63.6818 19.43 63.4024 19.7378C63.1231 20.0457 62.7824 20.2918 62.4022 20.4602C62.0221 20.6285 61.611 20.7155 61.1952 20.7155C60.7795 20.7155 60.3683 20.6285 59.9882 20.4602C59.6081 20.2918 59.2674 20.0457 58.988 19.7378C58.7086 19.43 58.4968 19.067 58.366 18.6724C58.2353 18.2777 58.1886 17.8601 58.2289 17.4463V17.4463ZM62.8847 17.4463C62.8847 16.0828 62.2722 15.2855 61.1973 15.2855C60.1182 15.2855 59.5112 16.0828 59.5112 17.4463C59.5112 18.8207 60.1183 19.6119 61.1973 19.6119C62.2722 19.6119 62.8847 18.8152 62.8847 17.4463H62.8847Z" fill="white"/>
<path d="M72.0446 20.5938H70.7568L69.4568 15.9611H69.3586L68.064 20.5938H66.7885L65.0547 14.3037H66.3138L67.4406 19.1034H67.5334L68.8266 14.3037H70.0175L71.3107 19.1034H71.4089L72.5302 14.3037H73.7716L72.0446 20.5938Z" fill="white"/>
<path d="M75.2344 14.3034H76.4294V15.3026H76.5221C76.6795 14.9437 76.9449 14.6429 77.2814 14.442C77.6179 14.2411 78.0086 14.1502 78.3992 14.182C78.7053 14.159 79.0126 14.2051 79.2984 14.317C79.5842 14.4289 79.8411 14.6036 80.0502 14.8283C80.2593 15.053 80.4152 15.3218 80.5063 15.6149C80.5973 15.908 80.6213 16.2179 80.5764 16.5215V20.5934H79.335V16.8332C79.335 15.8224 78.8958 15.3197 77.9777 15.3197C77.7699 15.31 77.5624 15.3454 77.3696 15.4234C77.1767 15.5013 77.003 15.6201 76.8604 15.7715C76.7177 15.9229 76.6095 16.1034 76.5431 16.3005C76.4767 16.4977 76.4537 16.7068 76.4757 16.9137V20.5935H75.2344L75.2344 14.3034Z" fill="white"/>
<path d="M82.5508 11.8486H83.7922V20.5942H82.5508V11.8486Z" fill="white"/>
<path d="M85.514 17.4464C85.4745 17.033 85.5218 16.6159 85.6529 16.2219C85.784 15.8278 85.9961 15.4656 86.2754 15.1583C86.5547 14.851 86.8952 14.6054 87.2749 14.4374C87.6547 14.2694 88.0654 14.1826 88.4807 14.1826C88.896 14.1826 89.3067 14.2694 89.6864 14.4374C90.0662 14.6054 90.4067 14.851 90.686 15.1583C90.9653 15.4656 91.1773 15.8278 91.3084 16.2219C91.4396 16.6159 91.4869 17.033 91.4474 17.4464C91.4876 17.8602 91.4408 18.2778 91.3101 18.6725C91.1793 19.0672 90.9674 19.4301 90.688 19.738C90.4086 20.0458 90.0679 20.2919 89.6877 20.4602C89.3076 20.6286 88.8964 20.7156 88.4807 20.7156C88.0649 20.7156 87.6538 20.6286 87.2736 20.4602C86.8935 20.2919 86.5528 20.0458 86.2734 19.738C85.994 19.4301 85.7821 19.0672 85.6513 18.6725C85.5205 18.2778 85.4738 17.8602 85.514 17.4464V17.4464ZM90.1698 17.4464C90.1698 16.0829 89.5573 15.2856 88.4824 15.2856C87.4033 15.2856 86.7963 16.0829 86.7963 17.4464C86.7963 18.8208 87.4034 19.612 88.4824 19.612C89.5573 19.612 90.1698 18.8153 90.1698 17.4464H90.1698Z" fill="white"/>
<path d="M92.7578 18.8153C92.7578 17.683 93.6009 17.0303 95.0973 16.9375L96.8011 16.8393V16.2964C96.8011 15.632 96.3619 15.2569 95.5134 15.2569C94.8204 15.2569 94.3402 15.5113 94.2024 15.956H93.0006C93.1275 14.8756 94.1438 14.1826 95.5707 14.1826C97.1476 14.1826 98.0371 14.9677 98.0371 16.2964V20.5941H96.8421V19.7101H96.7439C96.5445 20.0272 96.2646 20.2857 95.9326 20.4592C95.6007 20.6327 95.2287 20.715 94.8545 20.6977C94.5904 20.7252 94.3236 20.697 94.0711 20.615C93.8186 20.533 93.586 20.399 93.3885 20.2217C93.191 20.0443 93.0328 19.8275 92.9241 19.5853C92.8155 19.343 92.7589 19.0807 92.7578 18.8153V18.8153ZM96.8011 18.2778V17.7519L95.2651 17.8501C94.3989 17.9081 94.006 18.2027 94.006 18.7573C94.006 19.3234 94.4971 19.6528 95.1724 19.6528C95.3703 19.6729 95.5701 19.6529 95.7601 19.5941C95.9501 19.5353 96.1263 19.4389 96.2783 19.3106C96.4302 19.1823 96.5548 19.0247 96.6447 18.8473C96.7345 18.6699 96.7877 18.4762 96.8011 18.2778V18.2778Z" fill="white"/>
<path d="M99.668 17.4464C99.668 15.4589 100.69 14.1998 102.279 14.1998C102.672 14.1816 103.062 14.2758 103.404 14.4712C103.745 14.6666 104.024 14.9552 104.208 15.3033H104.301V11.8486H105.542V20.5942H104.352V19.6004H104.254C104.056 19.9461 103.768 20.2311 103.42 20.4246C103.071 20.618 102.677 20.7125 102.279 20.6978C100.679 20.6979 99.668 19.4388 99.668 17.4464ZM100.95 17.4464C100.95 18.7806 101.579 19.5834 102.631 19.5834C103.677 19.5834 104.324 18.769 104.324 17.4519C104.324 16.1409 103.67 15.315 102.631 15.315C101.586 15.315 100.95 16.1232 100.95 17.4464H100.95Z" fill="white"/>
<path d="M110.682 17.4463C110.642 17.0329 110.69 16.6158 110.821 16.2218C110.952 15.8278 111.164 15.4655 111.443 15.1582C111.722 14.851 112.063 14.6054 112.443 14.4374C112.822 14.2694 113.233 14.1826 113.648 14.1826C114.064 14.1826 114.474 14.2694 114.854 14.4374C115.234 14.6054 115.574 14.851 115.853 15.1582C116.133 15.4655 116.345 15.8278 116.476 16.2218C116.607 16.6158 116.654 17.0329 116.615 17.4463C116.655 17.8601 116.608 18.2777 116.478 18.6724C116.347 19.067 116.135 19.43 115.856 19.7378C115.576 20.0457 115.235 20.2918 114.855 20.4602C114.475 20.6285 114.064 20.7155 113.648 20.7155C113.233 20.7155 112.821 20.6285 112.441 20.4602C112.061 20.2918 111.72 20.0457 111.441 19.7378C111.162 19.43 110.95 19.067 110.819 18.6724C110.688 18.2777 110.642 17.8601 110.682 17.4463V17.4463ZM115.338 17.4463C115.338 16.0828 114.725 15.2855 113.65 15.2855C112.571 15.2855 111.964 16.0828 111.964 17.4463C111.964 18.8207 112.571 19.6119 113.65 19.6119C114.725 19.6119 115.338 18.8152 115.338 17.4463Z" fill="white"/>
<path d="M118.281 14.3034H119.476V15.3026H119.569C119.726 14.9437 119.992 14.6429 120.328 14.442C120.665 14.2411 121.055 14.1502 121.446 14.182C121.752 14.159 122.059 14.2051 122.345 14.317C122.631 14.4289 122.888 14.6036 123.097 14.8283C123.306 15.053 123.462 15.3218 123.553 15.6149C123.644 15.908 123.668 16.2179 123.623 16.5215V20.5934H122.382V16.8332C122.382 15.8224 121.943 15.3197 121.025 15.3197C120.817 15.31 120.609 15.3454 120.416 15.4234C120.224 15.5013 120.05 15.6201 119.907 15.7715C119.765 15.9229 119.656 16.1034 119.59 16.3005C119.524 16.4977 119.501 16.7068 119.523 16.9137V20.5935H118.281V14.3034Z" fill="white"/>
<path d="M130.632 12.7383V14.333H131.995V15.3786H130.632V18.613C130.632 19.2719 130.903 19.5604 131.521 19.5604C131.68 19.5599 131.838 19.5503 131.995 19.5317V20.5657C131.772 20.6056 131.546 20.6268 131.319 20.6292C129.939 20.6292 129.389 20.1435 129.389 18.9308V15.3785H128.391V14.3329H129.389V12.7383H130.632Z" fill="white"/>
<path d="M133.695 11.8486H134.926V15.3149H135.024C135.189 14.9527 135.462 14.6501 135.805 14.4485C136.148 14.2469 136.545 14.156 136.942 14.1882C137.246 14.1716 137.551 14.2224 137.833 14.337C138.116 14.4516 138.37 14.6272 138.577 14.8511C138.783 15.0751 138.938 15.342 139.03 15.6327C139.122 15.9235 139.149 16.2309 139.108 16.5331V20.5942H137.866V16.8394C137.866 15.8347 137.398 15.3258 136.521 15.3258C136.307 15.3083 136.093 15.3377 135.892 15.4118C135.691 15.4859 135.509 15.603 135.358 15.7549C135.207 15.9068 135.091 16.0898 135.018 16.2911C134.946 16.4925 134.918 16.7073 134.937 16.9205V20.5942H133.695L133.695 11.8486Z" fill="white"/>
<path d="M146.342 18.8958C146.173 19.4707 145.808 19.968 145.309 20.3007C144.811 20.6333 144.212 20.7802 143.616 20.7156C143.202 20.7266 142.79 20.6472 142.409 20.483C142.029 20.3188 141.688 20.0738 141.412 19.7649C141.135 19.456 140.929 19.0906 140.808 18.6941C140.687 18.2977 140.654 17.8796 140.71 17.469C140.655 17.057 140.689 16.6381 140.81 16.2404C140.931 15.8428 141.136 15.4757 141.411 15.1641C141.686 14.8525 142.024 14.6036 142.404 14.4343C142.784 14.265 143.195 14.1792 143.611 14.1827C145.361 14.1827 146.417 15.3785 146.417 17.3537V17.7868H141.975V17.8564C141.956 18.0872 141.985 18.3196 142.06 18.5385C142.136 18.7575 142.256 18.9582 142.414 19.1279C142.572 19.2975 142.763 19.4324 142.976 19.5237C143.189 19.6151 143.419 19.6609 143.65 19.6584C143.947 19.694 144.248 19.6405 144.514 19.5048C144.781 19.369 145.001 19.157 145.147 18.8958L146.342 18.8958ZM141.975 16.8687H145.152C145.168 16.6576 145.139 16.4456 145.068 16.2462C144.997 16.0468 144.885 15.8646 144.739 15.7111C144.593 15.5577 144.417 15.4364 144.221 15.3551C144.026 15.2739 143.815 15.2344 143.604 15.2393C143.389 15.2366 143.176 15.2769 142.977 15.3578C142.778 15.4388 142.598 15.5587 142.446 15.7106C142.294 15.8624 142.174 16.0431 142.093 16.242C142.012 16.4409 141.972 16.654 141.975 16.8687H141.975Z" fill="white"/>
</svg>
