<svg width="110" height="36" viewBox="0 0 110 36" fill="none" xmlns="http://www.w3.org/2000/svg">
<g clip-path="url(#clip0_23696_115000)">
<path d="M101.24 0.000117H8.76466C8.42757 0.000117 8.09453 0.000117 7.75834 0.001917C7.47691 0.003717 7.19773 0.008946 6.9136 0.013347C6.29635 0.0204586 5.68054 0.0736256 5.07154 0.172386C4.46339 0.273296 3.8743 0.463541 3.32417 0.736686C2.77473 1.01214 2.27268 1.37007 1.83625 1.79748C1.39752 2.22369 1.03181 2.71633 0.753179 3.25646C0.473777 3.79552 0.280038 4.37316 0.178654 4.96945C0.076307 5.56498 0.021233 6.16739 0.0139265 6.77125C0.00539594 7.04719 0.00449508 7.32405 0 7.60002V28.4029C0.00449508 28.6823 0.00539594 28.953 0.0139265 29.2326C0.0212352 29.8364 0.0763092 30.4388 0.178654 31.0343C0.279758 31.6309 0.473508 32.2089 0.753179 32.7481C1.03169 33.2865 1.39745 33.7772 1.83625 34.201C2.27102 34.6303 2.7734 34.9885 3.32417 35.2618C3.87429 35.5357 4.46332 35.7271 5.07154 35.8296C5.68064 35.9275 6.29639 35.9807 6.9136 35.9887C7.19773 35.9948 7.47691 35.9983 7.75834 35.9983C8.09452 36.0001 8.42759 36.0001 8.76466 36.0001H101.24C101.571 36.0001 101.906 36.0001 102.237 35.9983C102.517 35.9983 102.804 35.9948 103.084 35.9887C103.7 35.9812 104.315 35.928 104.923 35.8296C105.533 35.7264 106.124 35.5351 106.677 35.2618C107.227 34.9883 107.729 34.6302 108.163 34.201C108.601 33.7755 108.968 33.2852 109.25 32.7481C109.527 32.2085 109.719 31.6306 109.819 31.0343C109.921 30.4387 109.978 29.8365 109.989 29.2326C109.993 28.953 109.993 28.6823 109.993 28.4029C110 28.0759 110 27.7507 110 27.4184V8.58263C110 8.25305 110 7.92609 109.993 7.60002C109.993 7.32405 109.993 7.04719 109.989 6.77121C109.978 6.1673 109.921 5.56503 109.819 4.96941C109.719 4.37347 109.527 3.79587 109.25 3.25643C108.682 2.17379 107.782 1.29254 106.677 0.736605C106.124 0.464128 105.533 0.273933 104.923 0.172305C104.315 0.0731095 103.7 0.019924 103.084 0.013221C102.804 0.008829 102.517 0.003555 102.237 0.0018C101.906 0 101.571 0 101.24 0V0.000117Z" fill="black"/>
<path d="M7.76501 35.2126C7.48493 35.2126 7.21163 35.2091 6.93375 35.203C6.3581 35.1956 5.7838 35.1466 5.21556 35.0562C4.6857 34.9668 4.17241 34.8006 3.69262 34.5631C3.21723 34.3275 2.78363 34.0185 2.40844 33.6481C2.02782 33.2821 1.71094 32.8575 1.47035 32.3913C1.22711 31.922 1.05877 31.419 0.971199 30.8998C0.876631 30.3419 0.825466 29.7778 0.818145 29.2123C0.812317 29.0225 0.804688 28.3905 0.804688 28.3905V7.6C0.804688 7.6 0.812814 6.97774 0.818191 6.79492C0.825201 6.23033 0.876069 5.66709 0.970353 5.11005C1.05808 4.58942 1.22655 4.08497 1.46992 3.61416C1.70963 3.14825 2.02475 2.72337 2.40308 2.35601C2.78098 1.98516 3.21597 1.67464 3.69217 1.43579C4.17086 1.19898 4.68318 1.03396 5.21197 0.946241C5.78208 0.85495 6.35837 0.805594 6.93601 0.798587L7.76546 0.787598H102.234L103.074 0.799028C103.646 0.805687 104.217 0.854603 104.782 0.945359C105.316 1.03418 105.834 1.20035 106.318 1.43842C107.272 1.91979 108.048 2.68134 108.538 3.61636C108.778 4.08392 108.943 4.58425 109.03 5.10039C109.125 5.66199 109.179 6.22966 109.19 6.79888C109.192 7.05376 109.192 7.32754 109.192 7.6C109.2 7.9375 109.2 8.25874 109.2 8.58261V27.4184C109.2 27.7454 109.2 28.0644 109.192 28.3861C109.192 28.6788 109.192 28.9469 109.189 29.2228C109.178 29.7819 109.126 30.3394 109.032 30.891C108.946 31.4139 108.779 31.9209 108.535 32.394C108.293 32.8552 107.978 33.276 107.602 33.6411C107.226 34.0135 106.792 34.3242 106.315 34.5614C105.833 34.8008 105.316 34.9676 104.782 35.0562C104.214 35.147 103.64 35.1961 103.064 35.203C102.795 35.2091 102.513 35.2126 102.239 35.2126L101.242 35.2144L7.76501 35.2126Z" fill="white"/>
<path d="M22.9731 17.9006C22.9834 17.1195 23.1953 16.3535 23.5891 15.6741C23.983 14.9947 24.546 14.4238 25.2257 14.0147C24.7939 13.4109 24.2243 12.914 23.562 12.5634C22.8997 12.2129 22.163 12.0184 21.4105 11.9953C19.8053 11.8303 18.2492 12.9357 17.4312 12.9357C16.5973 12.9357 15.3379 12.0117 13.9817 12.039C13.1045 12.0667 12.2496 12.3165 11.5003 12.7639C10.751 13.2113 10.1328 13.8412 9.70601 14.592C7.85731 17.7258 9.23627 22.3315 11.0072 24.8646C11.8932 26.105 12.9288 27.4906 14.2837 27.4415C15.6096 27.3876 16.1048 26.6137 17.7053 26.6137C19.2909 26.6137 19.7555 27.4415 21.138 27.4102C22.5608 27.3876 23.4572 26.1643 24.3121 24.9122C24.9488 24.0283 25.4386 23.0515 25.7636 22.0179C24.937 21.6756 24.2316 21.1026 23.7354 20.3705C23.2392 19.6383 22.974 18.7793 22.9731 17.9006Z" fill="black"/>
<path d="M20.3612 10.3294C21.137 9.41763 21.5192 8.24571 21.4266 7.0625C20.2415 7.18437 19.1467 7.73895 18.3605 8.61574C17.976 9.04407 17.6816 9.54238 17.494 10.0822C17.3064 10.622 17.2293 11.1927 17.2672 11.7617C17.86 11.7677 18.4464 11.6419 18.9824 11.3938C19.5183 11.1457 19.9898 10.7817 20.3612 10.3294Z" fill="black"/>
<path d="M38.8835 24.4264H34.5324L33.4875 27.4472H31.6445L35.7659 16.271H37.6806L41.8019 27.4472H39.9276L38.8835 24.4264ZM34.9831 23.0324H38.4321L36.7318 18.1299H36.6842L34.9831 23.0324Z" fill="black"/>
<path d="M50.7029 23.3733C50.7029 25.9054 49.3186 27.5323 47.2297 27.5323C46.7005 27.5594 46.1743 27.44 45.7112 27.1879C45.2481 26.9358 44.8668 26.5611 44.6111 26.1067H44.5716V30.1426H42.8633V19.2987H44.5168V20.6539H44.5483C44.8157 20.2017 45.2034 19.829 45.67 19.5753C46.1367 19.3216 46.6648 19.1966 47.1982 19.2134C49.3106 19.2134 50.7029 20.8482 50.7029 23.3733ZM48.947 23.3733C48.947 21.7236 48.0762 20.639 46.7476 20.639C45.4424 20.639 44.5644 21.7464 44.5644 23.3733C44.5644 25.0151 45.4424 26.1146 46.7476 26.1146C48.0762 26.1146 48.9469 25.0379 48.9469 23.3733H48.947Z" fill="black"/>
<path d="M59.8635 23.3733C59.8635 25.9054 58.4788 27.5323 56.3899 27.5323C55.8607 27.5594 55.3344 27.44 54.8713 27.1879C54.4082 26.9358 54.027 26.5611 53.7713 26.1067H53.7318V30.1426H52.0234V19.2987H53.677V20.6539H53.7084C53.9759 20.2017 54.3635 19.829 54.8302 19.5753C55.2968 19.3216 55.8249 19.1966 56.3584 19.2134C58.4707 19.2134 59.8635 20.8482 59.8635 23.3733ZM58.1071 23.3733C58.1071 21.7236 57.2364 20.639 55.9078 20.639C54.6025 20.639 53.7246 21.7464 53.7246 23.3733C53.7246 25.0151 54.6025 26.1146 55.9078 26.1146C57.2364 26.1146 58.1071 25.0379 58.1071 23.3733Z" fill="black"/>
<path d="M65.9167 24.3331C66.0433 25.4414 67.143 26.1691 68.6457 26.1691C70.0856 26.1691 71.1216 25.4413 71.1216 24.442C71.1216 23.5745 70.4968 23.0551 69.0174 22.6991L67.538 22.3502C65.4419 21.8545 64.4687 20.8947 64.4687 19.3373C64.4687 17.409 66.1851 16.0845 68.6215 16.0845C71.0345 16.0845 72.688 17.409 72.7437 19.3373H71.0192C70.916 18.222 69.9743 17.5487 68.5981 17.5487C67.222 17.5487 66.2803 18.2299 66.2803 19.2213C66.2803 20.0114 66.8817 20.4764 68.3531 20.8323L69.6107 21.1346C71.9528 21.6769 72.925 22.598 72.925 24.2328C72.925 26.3237 71.2248 27.6333 68.5191 27.6333C65.9876 27.6333 64.2784 26.3545 64.168 24.333L65.9167 24.3331Z" fill="black"/>
<path d="M76.614 17.3706V19.2989H78.1966V20.6234H76.614V25.1155C76.614 25.8134 76.9309 26.1386 77.6266 26.1386C77.8145 26.1354 78.002 26.1224 78.1885 26.0999V27.4165C77.8757 27.4737 77.5578 27.4996 77.2397 27.4938C75.5547 27.4938 74.8976 26.8742 74.8976 25.2939V20.6234H73.6875V19.2989H74.8976V17.3706H76.614Z" fill="black"/>
<path d="M79.1133 23.373C79.1133 20.8093 80.6555 19.1982 83.0604 19.1982C85.4735 19.1982 87.0085 20.8092 87.0085 23.373C87.0085 25.9439 85.4815 27.5478 83.0604 27.5478C80.6402 27.5478 79.1133 25.9438 79.1133 23.373ZM85.2679 23.373C85.2679 21.6144 84.4447 20.5764 83.0604 20.5764C81.6762 20.5764 80.853 21.6223 80.853 23.373C80.853 25.1388 81.6762 26.1688 83.0604 26.1688C84.4447 26.1688 85.2679 25.1388 85.2679 23.373H85.2679Z" fill="black"/>
<path d="M88.4141 19.2986H90.0434V20.6855H90.0829C90.1932 20.2523 90.4523 19.8695 90.8169 19.6014C91.1814 19.3333 91.6292 19.1963 92.0848 19.2133C92.2816 19.2127 92.478 19.2336 92.6701 19.2757V20.8402C92.4215 20.7658 92.1623 20.7317 91.9025 20.7391C91.6543 20.7293 91.4069 20.7721 91.1773 20.8647C90.9476 20.9573 90.7411 21.0975 90.572 21.2756C90.4029 21.4537 90.2751 21.6655 90.1975 21.8965C90.1199 22.1275 90.0943 22.3722 90.1224 22.6138V27.4469H88.4141L88.4141 19.2986Z" fill="black"/>
<path d="M100.546 25.0535C100.317 26.5327 98.8453 27.5478 96.9629 27.5478C94.5418 27.5478 93.0391 25.9597 93.0391 23.4117C93.0391 20.8559 94.5499 19.1982 96.8911 19.1982C99.1937 19.1982 100.642 20.7469 100.642 23.2175V23.7905H94.7635V23.8916C94.7364 24.1915 94.7748 24.4936 94.876 24.7778C94.9773 25.0621 95.1392 25.322 95.351 25.5403C95.5627 25.7586 95.8195 25.9303 96.1042 26.0439C96.3889 26.1576 96.6951 26.2107 97.0024 26.1996C97.4061 26.2366 97.8112 26.1451 98.1575 25.9386C98.5038 25.7321 98.7727 25.4217 98.9244 25.0535L100.546 25.0535ZM94.7716 22.6216H98.9324C98.9478 22.3519 98.906 22.0821 98.8098 21.829C98.7136 21.5759 98.5649 21.3451 98.3733 21.1509C98.1816 20.9567 97.951 20.8034 97.6959 20.7006C97.4408 20.5978 97.1668 20.5477 96.8911 20.5535C96.6129 20.5519 96.3371 20.6042 96.0797 20.7075C95.8223 20.8108 95.5883 20.9629 95.3912 21.1552C95.1942 21.3475 95.038 21.576 94.9316 21.8277C94.8253 22.0794 94.7709 22.3492 94.7716 22.6216V22.6216Z" fill="black"/>
<path d="M34.7742 7.85863C35.1323 7.83347 35.4917 7.88644 35.8264 8.01373C36.1611 8.14102 36.4628 8.33946 36.7097 8.59472C36.9566 8.84998 37.1426 9.15571 37.2542 9.48985C37.3658 9.824 37.4002 10.1782 37.3551 10.527C37.3551 12.2426 36.408 13.2288 34.7742 13.2288H32.793V7.85863H34.7742ZM33.6449 12.4693H34.679C34.9349 12.4843 35.1911 12.4432 35.4287 12.3491C35.6664 12.2549 35.8796 12.1101 36.0529 11.9251C36.2261 11.74 36.3551 11.5195 36.4303 11.2796C36.5056 11.0396 36.5252 10.7863 36.4879 10.5379C36.5225 10.2906 36.5009 10.0388 36.4245 9.80059C36.3481 9.56239 36.2188 9.34369 36.0459 9.16015C35.8731 8.97662 35.6609 8.83279 35.4245 8.73898C35.1882 8.64516 34.9336 8.60369 34.679 8.61752H33.6449V12.4693Z" fill="black"/>
<path d="M38.3178 11.2004C38.2918 10.9341 38.3229 10.6654 38.4092 10.4115C38.4954 10.1576 38.6349 9.92423 38.8187 9.72624C39.0025 9.52826 39.2266 9.37007 39.4765 9.26182C39.7264 9.15357 39.9966 9.09766 40.2699 9.09766C40.5431 9.09766 40.8134 9.15357 41.0633 9.26182C41.3132 9.37007 41.5372 9.52826 41.721 9.72624C41.9048 9.92423 42.0443 10.1576 42.1306 10.4115C42.2168 10.6654 42.2479 10.9341 42.2219 11.2004C42.2484 11.467 42.2177 11.7361 42.1316 11.9904C42.0456 12.2446 41.9062 12.4785 41.7223 12.6768C41.5385 12.8752 41.3143 13.0337 41.0642 13.1422C40.814 13.2507 40.5435 13.3067 40.2699 13.3067C39.9963 13.3067 39.7257 13.2507 39.4756 13.1422C39.2254 13.0337 39.0012 12.8752 38.8174 12.6768C38.6335 12.4785 38.4941 12.2446 38.4081 11.9904C38.3221 11.7361 38.2913 11.467 38.3178 11.2004ZM41.3817 11.2004C41.3817 10.3219 40.9786 9.80821 40.2712 9.80821C39.5611 9.80821 39.1617 10.3219 39.1617 11.2004C39.1617 12.0859 39.5612 12.5957 40.2712 12.5957C40.9786 12.5957 41.3817 12.0824 41.3817 11.2004H41.3817Z" fill="black"/>
<path d="M47.4123 13.2284H46.5649L45.7094 10.2436H45.6447L44.7928 13.2284H43.9535L42.8125 9.17578H43.6411L44.3826 12.2682H44.4436L45.2946 9.17578H46.0783L46.9293 12.2682H46.994L47.7319 9.17578H48.5488L47.4123 13.2284Z" fill="black"/>
<path d="M49.5078 9.17548H50.2942V9.81928H50.3552C50.4588 9.58805 50.6335 9.39421 50.8549 9.26479C51.0763 9.13536 51.3334 9.0768 51.5905 9.09725C51.7919 9.08243 51.9941 9.11216 52.1822 9.18424C52.3703 9.25633 52.5394 9.36892 52.6769 9.51368C52.8145 9.65844 52.9171 9.83166 52.977 10.0205C53.037 10.2093 53.0527 10.409 53.0232 10.6046V13.2281H52.2063V10.8054C52.2063 10.1541 51.9172 9.83027 51.3131 9.83027C51.1763 9.82403 51.0398 9.84682 50.9129 9.89706C50.786 9.94731 50.6717 10.0238 50.5778 10.1214C50.484 10.2189 50.4127 10.3352 50.369 10.4622C50.3253 10.5892 50.3102 10.724 50.3247 10.8573V13.2281H49.5078L49.5078 9.17548Z" fill="black"/>
<path d="M54.3242 7.59375H55.1411V13.2284H54.3242V7.59375Z" fill="black"/>
<path d="M56.2748 11.2C56.2488 10.9336 56.28 10.6649 56.3663 10.411C56.4525 10.1572 56.5921 9.92375 56.7759 9.72577C56.9597 9.52778 57.1837 9.36959 57.4336 9.26134C57.6836 9.15309 57.9538 9.09717 58.2271 9.09717C58.5004 9.09717 58.7706 9.15309 59.0206 9.26134C59.2705 9.36959 59.4945 9.52778 59.6783 9.72577C59.8621 9.92375 60.0017 10.1572 60.0879 10.411C60.1742 10.6649 60.2054 10.9336 60.1794 11.2C60.2058 11.4666 60.1751 11.7357 60.089 11.99C60.0029 12.2442 59.8635 12.4781 59.6796 12.6764C59.4958 12.8748 59.2716 13.0333 59.0214 13.1418C58.7713 13.2503 58.5007 13.3063 58.2271 13.3063C57.9535 13.3063 57.6829 13.2503 57.4328 13.1418C57.1826 13.0333 56.9584 12.8748 56.7746 12.6764C56.5907 12.4781 56.4513 12.2442 56.3652 11.99C56.2791 11.7357 56.2484 11.4666 56.2748 11.2ZM59.3387 11.2C59.3387 10.3215 58.9356 9.8078 58.2282 9.8078C57.5181 9.8078 57.1187 10.3215 57.1187 11.2C57.1187 12.0855 57.5182 12.5953 58.2282 12.5953C58.9356 12.5952 59.3387 12.082 59.3387 11.2H59.3387Z" fill="black"/>
<path d="M61.043 12.0819C61.043 11.3524 61.5977 10.9319 62.5825 10.8721L63.7037 10.8088V10.459C63.7037 10.031 63.4147 9.7893 62.8563 9.7893C62.4003 9.7893 62.0843 9.95322 61.9936 10.2397H61.2028C61.2862 9.54365 61.955 9.09717 62.894 9.09717C63.9318 9.09717 64.5171 9.60297 64.5171 10.459V13.228H63.7307V12.6585H63.666C63.5348 12.8628 63.3506 13.0293 63.1322 13.1411C62.9138 13.2529 62.6689 13.3059 62.4227 13.2948C62.249 13.3125 62.0733 13.2943 61.9072 13.2415C61.741 13.1887 61.588 13.1023 61.458 12.9881C61.328 12.8738 61.2239 12.7341 61.1524 12.5781C61.0809 12.422 61.0437 12.253 61.043 12.0819ZM63.7037 11.7356V11.3968L62.6929 11.4601C62.1229 11.4975 61.8644 11.6873 61.8644 12.0446C61.8644 12.4093 62.1875 12.6216 62.6319 12.6216C62.7621 12.6345 62.8937 12.6216 63.0187 12.5837C63.1437 12.5458 63.2597 12.4837 63.3597 12.4011C63.4597 12.3184 63.5417 12.2169 63.6008 12.1026C63.6599 11.9883 63.6949 11.8635 63.7037 11.7356Z" fill="black"/>
<path d="M65.5898 11.2004C65.5898 9.91979 66.2622 9.10856 67.308 9.10856C67.5667 9.09689 67.8235 9.15755 68.0482 9.28346C68.273 9.40936 68.4565 9.59531 68.5774 9.81956H68.6384V7.59375H69.4553V13.2284H68.6725V12.5881H68.6079C68.4777 12.8109 68.2878 12.9945 68.0587 13.1191C67.8296 13.2438 67.57 13.3047 67.308 13.2952C66.255 13.2952 65.5898 12.484 65.5898 11.2004ZM66.4337 11.2004C66.4337 12.0599 66.8475 12.5772 67.5397 12.5772C68.2282 12.5772 68.6537 12.0525 68.6537 11.2039C68.6537 10.3592 68.2237 9.82706 67.5397 9.82706C66.852 9.82706 66.4337 10.3478 66.4337 11.2004H66.4337Z" fill="black"/>
<path d="M72.8335 11.2004C72.8074 10.9341 72.8385 10.6654 72.9248 10.4115C73.0111 10.1576 73.1506 9.92423 73.3344 9.72624C73.5182 9.52826 73.7422 9.37007 73.9921 9.26182C74.242 9.15357 74.5122 9.09766 74.7855 9.09766C75.0588 9.09766 75.329 9.15357 75.5789 9.26182C75.8288 9.37007 76.0528 9.52826 76.2366 9.72624C76.4204 9.92423 76.5599 10.1576 76.6462 10.4115C76.7324 10.6654 76.7635 10.9341 76.7375 11.2004C76.764 11.467 76.7333 11.7361 76.6473 11.9904C76.5612 12.2446 76.4218 12.4785 76.238 12.6768C76.0541 12.8752 75.8299 13.0337 75.5798 13.1422C75.3296 13.2507 75.0591 13.3067 74.7855 13.3067C74.5119 13.3067 74.2413 13.2507 73.9912 13.1422C73.741 13.0337 73.5168 12.8752 73.333 12.6768C73.1492 12.4785 73.0097 12.2446 72.9237 11.9904C72.8377 11.7361 72.8069 11.467 72.8335 11.2004ZM75.8973 11.2004C75.8973 10.3219 75.4942 9.80821 74.7868 9.80821C74.0768 9.80821 73.6773 10.3219 73.6773 11.2004C73.6773 12.0859 74.0768 12.5957 74.7868 12.5957C75.4942 12.5957 75.8973 12.0824 75.8973 11.2004Z" fill="black"/>
<path d="M77.8359 9.17548H78.6223V9.81928H78.6834C78.7869 9.58805 78.9616 9.39421 79.183 9.26479C79.4044 9.13536 79.6616 9.0768 79.9186 9.09725C80.12 9.08243 80.3222 9.11216 80.5103 9.18424C80.6984 9.25633 80.8675 9.36892 81.0051 9.51368C81.1427 9.65844 81.2452 9.83166 81.3052 10.0205C81.3651 10.2093 81.3809 10.409 81.3513 10.6046V13.2281H80.5344V10.8054C80.5344 10.1541 80.2454 9.83027 79.6412 9.83027C79.5045 9.82403 79.368 9.84682 79.241 9.89706C79.1141 9.94731 78.9998 10.0238 78.906 10.1214C78.8121 10.2189 78.7409 10.3352 78.6972 10.4622C78.6535 10.5892 78.6384 10.724 78.6528 10.8573V13.2281H77.8359V9.17548Z" fill="black"/>
<path d="M85.9671 8.1665V9.19394H86.8639V9.86763H85.9671V11.9515C85.9671 12.376 86.1457 12.5619 86.5524 12.5619C86.6565 12.5616 86.7605 12.5554 86.8639 12.5435V13.2097C86.7172 13.2354 86.5686 13.249 86.4195 13.2505C85.5111 13.2505 85.1493 12.9376 85.1493 12.1563V9.86759H84.4922V9.19391H85.1493V8.1665H85.9671Z" fill="black"/>
<path d="M87.9766 7.59375H88.7863V9.82705H88.8509C88.9595 9.59367 89.139 9.39873 89.3648 9.26882C89.5907 9.13891 89.8519 9.08033 90.113 9.10108C90.3134 9.0904 90.5137 9.12315 90.6996 9.19699C90.8856 9.27083 91.0526 9.38394 91.1887 9.52824C91.3249 9.67254 91.4268 9.84449 91.4873 10.0318C91.5478 10.2191 91.5653 10.4172 91.5386 10.6119V13.2284H90.7209V10.8092C90.7209 10.1619 90.4129 9.83408 89.8357 9.83408C89.6953 9.8228 89.5541 9.8417 89.4219 9.88945C89.2898 9.9372 89.1699 10.0126 89.0706 10.1105C88.9713 10.2084 88.8951 10.3263 88.8472 10.456C88.7994 10.5857 88.781 10.7241 88.7935 10.8615V13.2284H87.9766L87.9766 7.59375Z" fill="black"/>
<path d="M96.3054 12.1339C96.1944 12.5042 95.9539 12.8246 95.626 13.039C95.2981 13.2533 94.9037 13.3479 94.5118 13.3063C94.2391 13.3134 93.9681 13.2622 93.7176 13.1564C93.4671 13.0507 93.2431 12.8928 93.0612 12.6938C92.8792 12.4947 92.7437 12.2593 92.664 12.0039C92.5843 11.7485 92.5624 11.4791 92.5997 11.2145C92.5634 10.9491 92.5857 10.6792 92.6652 10.423C92.7447 10.1668 92.8795 9.93028 93.0605 9.72952C93.2415 9.52875 93.4644 9.3684 93.7141 9.25931C93.9639 9.15022 94.2347 9.09495 94.5082 9.09724C95.6599 9.09724 96.3547 9.86764 96.3547 11.1402V11.4193H93.4318V11.4641C93.419 11.6129 93.4381 11.7626 93.4879 11.9036C93.5376 12.0447 93.617 12.174 93.7208 12.2834C93.8245 12.3927 93.9505 12.4795 94.0906 12.5384C94.2307 12.5972 94.3818 12.6268 94.5342 12.6251C94.7296 12.6481 94.9276 12.6137 95.1029 12.5262C95.2783 12.4387 95.4231 12.3021 95.519 12.1338L96.3054 12.1339ZM93.4318 10.8278H95.5226C95.5329 10.6918 95.514 10.5552 95.4671 10.4267C95.4203 10.2983 95.3465 10.1808 95.2506 10.082C95.1546 9.9831 95.0386 9.90497 94.91 9.85262C94.7813 9.80026 94.6429 9.77482 94.5037 9.77795C94.3624 9.77621 94.2222 9.80218 94.0913 9.85433C93.9604 9.90649 93.8415 9.98376 93.7417 10.0816C93.6418 10.1794 93.5629 10.2959 93.5097 10.424C93.4565 10.5522 93.43 10.6895 93.4318 10.8278H93.4318Z" fill="black"/>
</g>
<defs>
<clipPath id="clip0_23696_115000">
<rect width="110" height="36" fill="white"/>
</clipPath>
</defs>
</svg>
