<svg width="70" height="70" viewBox="0 0 70 70" fill="none" xmlns="http://www.w3.org/2000/svg">
<rect width="70" height="70" rx="12" fill="#F3F4F6"/>
<path d="M44.5667 30.5061C44.5667 30.5061 44.2378 32.6988 37.4405 41.4694C31.0599 49.7358 40.2911 56.0288 41.3874 56.7523C41.4532 56.7962 41.5189 56.7962 41.6066 56.7523C43.0977 55.8314 59.6961 45.1531 44.5667 30.5061Z" stroke="#193BFF" stroke-width="2" stroke-miterlimit="10" stroke-linecap="round" stroke-linejoin="round"/>
<path d="M39.3015 25.6614C39.3015 20.6183 37.3281 16.0137 35.3547 13.3825C34.6969 12.7247 33.6005 12.9439 33.3813 13.821C32.5042 17.11 29.873 24.1265 23.5143 32.4587C15.4014 42.9835 22.8565 54.3854 30.5308 56.578C34.6969 57.6744 29.4345 54.3854 28.7767 47.5881C28.1189 39.0367 39.3015 32.678 39.3015 25.6614Z" stroke="#193BFF" stroke-width="2" stroke-miterlimit="10" stroke-linecap="round" stroke-linejoin="round"/>
</svg>
