<svg width="70" height="70" viewBox="0 0 70 70" fill="none" xmlns="http://www.w3.org/2000/svg">
<rect width="70" height="70" rx="12" fill="#F3F4F6"/>
<path d="M47.4961 24.9168C47.3711 24.8959 47.2253 24.8959 47.1003 24.9168C44.2253 24.8126 41.9336 22.4584 41.9336 19.5418C41.9336 16.5626 44.3294 14.1667 47.3086 14.1667C50.2878 14.1667 52.6836 16.5834 52.6836 19.5418C52.6628 22.4584 50.3711 24.8126 47.4961 24.9168Z" stroke="#193BFF" stroke-width="2" stroke-linecap="round" stroke-linejoin="round"/>
<path d="M45.3477 40.0833C48.2018 40.5624 51.3477 40.0624 53.556 38.5833C56.4935 36.6249 56.4935 33.4166 53.556 31.4583C51.3268 29.9791 48.1393 29.4791 45.2852 29.9791" stroke="#193BFF" stroke-width="2" stroke-linecap="round" stroke-linejoin="round"/>
<path d="M22.4336 24.9168C22.5586 24.8959 22.7044 24.8959 22.8294 24.9168C25.7044 24.8126 27.9961 22.4584 27.9961 19.5418C27.9961 16.5626 25.6003 14.1667 22.6211 14.1667C19.6419 14.1667 17.2461 16.5834 17.2461 19.5418C17.2669 22.4584 19.5586 24.8126 22.4336 24.9168Z" stroke="#193BFF" stroke-width="2" stroke-linecap="round" stroke-linejoin="round"/>
<path d="M24.5794 40.0833C21.7253 40.5624 18.5794 40.0624 16.3711 38.5833C13.4336 36.6249 13.4336 33.4166 16.3711 31.4583C18.6003 29.9791 21.7878 29.4791 24.6419 29.9791" stroke="#193BFF" stroke-width="2" stroke-linecap="round" stroke-linejoin="round"/>
<path d="M35 40.4793C34.875 40.4584 34.7292 40.4584 34.6042 40.4793C31.7292 40.3751 29.4375 38.0209 29.4375 35.1043C29.4375 32.1251 31.8333 29.7292 34.8125 29.7292C37.7917 29.7292 40.1875 32.1459 40.1875 35.1043C40.1667 38.0209 37.875 40.3959 35 40.4793Z" stroke="#193BFF" stroke-width="2" stroke-linecap="round" stroke-linejoin="round"/>
<path d="M28.9375 47.0417C26 49.0001 26 52.2084 28.9375 54.1667C32.2708 56.3959 37.7292 56.3959 41.0625 54.1667C44 52.2084 44 49.0001 41.0625 47.0417C37.75 44.8334 32.2708 44.8334 28.9375 47.0417Z" stroke="#193BFF" stroke-width="2" stroke-linecap="round" stroke-linejoin="round"/>
</svg>
