<svg width="266" height="274" viewBox="0 0 266 274" fill="none" xmlns="http://www.w3.org/2000/svg">
<rect x="0.377841" y="1.09085" width="265.244" height="272.239" rx="11.6222" fill="white"/>
<rect x="0.377841" y="1.09085" width="265.244" height="272.239" rx="11.6222" stroke="#E5E7EB" stroke-width="0.755682"/>
<path d="M15.7856 30.804L12.4323 18.713H14.351L16.7066 28.0764H16.8188L19.2688 18.713H21.1698L23.6199 28.0823H23.7321L26.0818 18.713H28.0064L24.6472 30.804H22.8111L20.2666 21.7476H20.1721L17.6276 30.804H15.7856ZM31.7878 30.987C30.8943 30.987 30.1249 30.7961 29.4794 30.4143C28.8378 30.0286 28.3419 29.4874 27.9916 28.7908C27.6453 28.0902 27.4721 27.2696 27.4721 26.3289C27.4721 25.4 27.6453 24.5814 27.9916 23.8729C28.3419 23.1645 28.83 22.6115 29.4558 22.214C30.0855 21.8165 30.8215 21.6177 31.6638 21.6177C32.1754 21.6177 32.6713 21.7023 33.1515 21.8716C33.6317 22.0408 34.0627 22.3065 34.4444 22.6686C34.8262 23.0307 35.1273 23.501 35.3477 24.0796C35.5681 24.6542 35.6783 25.3528 35.6783 26.1754V26.8012H28.4698V25.4788H33.9485C33.9485 25.0143 33.8541 24.603 33.6652 24.2449C33.4762 23.8828 33.2106 23.5974 32.8681 23.3888C32.5297 23.1802 32.1321 23.0759 31.6756 23.0759C31.1797 23.0759 30.7467 23.1979 30.3768 23.442C30.0107 23.682 29.7273 23.9969 29.5266 24.3866C29.3298 24.7723 29.2314 25.1914 29.2314 25.6441V26.6772C29.2314 27.2833 29.3377 27.7989 29.5502 28.224C29.7667 28.6491 30.0678 28.9738 30.4535 29.1981C30.8392 29.4185 31.2899 29.5287 31.8055 29.5287C32.14 29.5287 32.445 29.4815 32.7205 29.3871C32.9961 29.2887 33.2342 29.143 33.4349 28.9502C33.6356 28.7573 33.7891 28.5192 33.8954 28.2358L35.5662 28.5369C35.4323 29.0289 35.1923 29.4599 34.8459 29.8298C34.5035 30.1959 34.0725 30.4812 33.553 30.6859C33.0374 30.8866 32.449 30.987 31.7878 30.987ZM36.8812 30.804V21.7358H38.6465V30.804H36.8812ZM37.7727 20.3366C37.4657 20.3366 37.202 20.2342 36.9816 20.0296C36.7651 19.821 36.6569 19.573 36.6569 19.2857C36.6569 18.9945 36.7651 18.7465 36.9816 18.5418C37.202 18.3332 37.4657 18.2289 37.7727 18.2289C38.0797 18.2289 38.3414 18.3332 38.5579 18.5418C38.7783 18.7465 38.8885 18.9945 38.8885 19.2857C38.8885 19.573 38.7783 19.821 38.5579 20.0296C38.3414 20.2342 38.0797 20.3366 37.7727 20.3366ZM44.0676 34.3934C43.3473 34.3934 42.7274 34.299 42.2079 34.1101C41.6923 33.9211 41.2712 33.6712 40.9445 33.3603C40.6178 33.0494 40.3738 32.7089 40.2124 32.3389L41.7297 31.7131C41.836 31.8863 41.9776 32.0693 42.1548 32.2622C42.3358 32.459 42.5798 32.6263 42.8868 32.764C43.1978 32.9018 43.5972 32.9706 44.0853 32.9706C44.7544 32.9706 45.3074 32.8073 45.7443 32.4806C46.1811 32.1579 46.3996 31.6423 46.3996 30.9338V29.1509H46.2874C46.1811 29.3438 46.0276 29.5583 45.8269 29.7944C45.6301 30.0306 45.3585 30.2352 45.0122 30.4084C44.6658 30.5816 44.2152 30.6682 43.6602 30.6682C42.9439 30.6682 42.2984 30.5009 41.7238 30.1663C41.1531 29.8279 40.7005 29.33 40.3659 28.6727C40.0353 28.0115 39.87 27.1987 39.87 26.2344C39.87 25.2702 40.0333 24.4436 40.36 23.7549C40.6906 23.0661 41.1433 22.5387 41.7179 22.1727C42.2925 21.8027 42.9439 21.6177 43.672 21.6177C44.2349 21.6177 44.6894 21.7122 45.0358 21.9011C45.3822 22.0861 45.6518 22.3025 45.8446 22.5505C46.0414 22.7985 46.1929 23.0169 46.2992 23.2058H46.4291V21.7358H48.1589V31.0047C48.1589 31.784 47.9778 32.4236 47.6157 32.9234C47.2536 33.4233 46.7636 33.7932 46.1457 34.0333C45.5317 34.2734 44.839 34.3934 44.0676 34.3934ZM44.0499 29.204C44.5576 29.204 44.9866 29.086 45.3369 28.8498C45.6911 28.6097 45.9588 28.2673 46.1398 27.8226C46.3248 27.3739 46.4173 26.8366 46.4173 26.2108C46.4173 25.6008 46.3268 25.0635 46.1457 24.5991C45.9647 24.1347 45.699 23.7726 45.3487 23.5128C44.9984 23.2491 44.5655 23.1173 44.0499 23.1173C43.5185 23.1173 43.0757 23.255 42.7215 23.5305C42.3673 23.8021 42.0997 24.1721 41.9186 24.6404C41.7415 25.1088 41.6529 25.6323 41.6529 26.2108C41.6529 26.8051 41.7435 27.3266 41.9245 27.7753C42.1056 28.224 42.3732 28.5743 42.7274 28.8262C43.0856 29.0781 43.5264 29.204 44.0499 29.204ZM51.5358 25.4197V30.804H49.7706V18.713H51.5122V23.2117H51.6244C51.8369 22.7237 52.1616 22.336 52.5985 22.0487C53.0354 21.7614 53.6061 21.6177 54.3106 21.6177C54.9325 21.6177 55.4756 21.7456 55.9401 22.0014C56.4084 22.2573 56.7705 22.639 57.0263 23.1468C57.2861 23.6506 57.416 24.2803 57.416 25.036V30.804H55.6508V25.2485C55.6508 24.5834 55.4796 24.0678 55.1371 23.7017C54.7947 23.3318 54.3185 23.1468 53.7084 23.1468C53.2912 23.1468 52.9173 23.2353 52.5867 23.4124C52.26 23.5896 52.0022 23.8493 51.8133 24.1917C51.6283 24.5302 51.5358 24.9395 51.5358 25.4197ZM63.2489 21.7358V23.1527H58.2957V21.7358H63.2489ZM59.624 19.5632H61.3892V28.1414C61.3892 28.4838 61.4404 28.7416 61.5427 28.9148C61.6451 29.084 61.7769 29.2001 61.9383 29.2631C62.1036 29.3221 62.2827 29.3516 62.4755 29.3516C62.6172 29.3516 62.7412 29.3418 62.8475 29.3221C62.9537 29.3024 63.0364 29.2867 63.0954 29.2749L63.4142 30.7331C63.3119 30.7725 63.1663 30.8118 62.9773 30.8512C62.7884 30.8945 62.5523 30.9181 62.2689 30.922C61.8045 30.9299 61.3715 30.8472 60.9701 30.6741C60.5686 30.5009 60.2439 30.2333 59.9959 29.8712C59.748 29.5091 59.624 29.0545 59.624 28.5074V19.5632Z" fill="#101010"/>
<path d="M244.555 19.703L249.656 24.8039L244.555 29.9047" stroke="#101010" stroke-width="1.51136" stroke-linecap="round" stroke-linejoin="round"/>
<path d="M16.5209 47.056H17.5857V53.3419C17.5857 53.9029 17.4827 54.3795 17.2766 54.7717C17.0705 55.1638 16.7799 55.4615 16.405 55.6647C16.03 55.868 15.5877 55.9696 15.0782 55.9696C14.5973 55.9696 14.1694 55.8823 13.7944 55.7077C13.4194 55.5302 13.1246 55.2783 12.9099 54.952C12.6952 54.6257 12.5879 54.2378 12.5879 53.7884H13.6356C13.6356 54.0374 13.6971 54.255 13.8202 54.441C13.9461 54.6242 14.1179 54.7674 14.3354 54.8704C14.553 54.9735 14.8006 55.025 15.0782 55.025C15.3845 55.025 15.645 54.9606 15.8597 54.8318C16.0743 54.703 16.2375 54.514 16.3491 54.265C16.4636 54.0131 16.5209 53.7054 16.5209 53.3419V47.056ZM23.8896 53.153V49.2543H24.9029V55.8494H23.8896V54.733H23.8209C23.6664 55.0679 23.4259 55.3527 23.0996 55.5875C22.7733 55.8193 22.3611 55.9352 21.863 55.9352C21.4509 55.9352 21.0845 55.8451 20.7639 55.6647C20.4433 55.4815 20.1914 55.2067 20.0082 54.8404C19.825 54.4711 19.7334 54.006 19.7334 53.4449V49.2543H20.7467V53.3762C20.7467 53.8571 20.8812 54.2407 21.1503 54.5269C21.4222 54.8132 21.7686 54.9563 22.1894 54.9563C22.4413 54.9563 22.6974 54.8919 22.9579 54.7631C23.2213 54.6343 23.4417 54.4368 23.6191 54.1705C23.7995 53.9043 23.8896 53.5651 23.8896 53.153ZM27.9233 47.056V55.8494H26.91V47.056H27.9233ZM30.583 58.3225C30.4113 58.3225 30.2581 58.3082 30.1236 58.2796C29.9891 58.2538 29.896 58.228 29.8445 58.2023L30.1021 57.3092C30.3483 57.3722 30.5658 57.3951 30.7548 57.3779C30.9437 57.3607 31.1111 57.2763 31.2571 57.1246C31.406 56.9757 31.5419 56.7339 31.665 56.399L31.8539 55.8837L29.4151 49.2543H30.5143L32.3348 54.5097H32.4035L34.224 49.2543H35.3232L32.5237 56.8111C32.3978 57.1518 32.2418 57.4337 32.0557 57.657C31.8697 57.8831 31.6536 58.0506 31.4074 58.1593C31.1641 58.2681 30.8893 58.3225 30.583 58.3225ZM40.3463 55.8494V55.0765L43.2488 51.8992C43.5895 51.5271 43.87 51.2036 44.0904 50.9288C44.3108 50.6512 44.474 50.3907 44.5799 50.1474C44.6886 49.9012 44.743 49.6436 44.743 49.3745C44.743 49.0654 44.6686 48.7978 44.5198 48.5716C44.3738 48.3455 44.1734 48.1709 43.9186 48.0478C43.6639 47.9247 43.3776 47.8632 43.0599 47.8632C42.7221 47.8632 42.4273 47.9333 42.1754 48.0736C41.9264 48.211 41.7332 48.4042 41.5958 48.6532C41.4612 48.9022 41.394 49.1942 41.394 49.5291H40.3807C40.3807 49.0139 40.4995 48.5616 40.7371 48.1723C40.9746 47.783 41.2981 47.4796 41.7074 47.2621C42.1196 47.0445 42.5819 46.9358 43.0943 46.9358C43.6095 46.9358 44.0661 47.0445 44.4639 47.2621C44.8618 47.4796 45.1738 47.773 45.4 48.1423C45.6261 48.5115 45.7392 48.9223 45.7392 49.3745C45.7392 49.698 45.6805 50.0143 45.5631 50.3234C45.4486 50.6297 45.2482 50.9718 44.962 51.3496C44.6786 51.7246 44.285 52.1826 43.7812 52.7236L41.8062 54.8361V54.9048H45.8937V55.8494H40.3463ZM50.6863 55.9696C50.0394 55.9696 49.4884 55.7935 49.0332 55.4415C48.5781 55.0865 48.2303 54.5727 47.9899 53.9C47.7494 53.2245 47.6292 52.4087 47.6292 51.4527C47.6292 50.5023 47.7494 49.6908 47.9899 49.0182C48.2332 48.3426 48.5824 47.8274 49.0375 47.4725C49.4955 47.1147 50.0451 46.9358 50.6863 46.9358C51.3275 46.9358 51.8756 47.1147 52.3308 47.4725C52.7887 47.8274 53.138 48.3426 53.3784 49.0182C53.6217 49.6908 53.7434 50.5023 53.7434 51.4527C53.7434 52.4087 53.6231 53.2245 53.3827 53.9C53.1423 54.5727 52.7945 55.0865 52.3393 55.4415C51.8842 55.7935 51.3332 55.9696 50.6863 55.9696ZM50.6863 55.025C51.3275 55.025 51.8255 54.7158 52.1805 54.0976C52.5354 53.4793 52.7129 52.5976 52.7129 51.4527C52.7129 50.6913 52.6313 50.0429 52.4682 49.5076C52.3079 48.9724 52.076 48.5645 51.7726 48.284C51.472 48.0034 51.1099 47.8632 50.6863 47.8632C50.0508 47.8632 49.5542 48.1766 49.1964 48.8035C48.8386 49.4275 48.6597 50.3106 48.6597 51.4527C48.6597 52.2141 48.7398 52.861 48.9001 53.3934C49.0604 53.9258 49.2909 54.3308 49.5914 54.6085C49.8948 54.8862 50.2598 55.025 50.6863 55.025ZM55.5261 55.8494V55.0765L58.4286 51.8992C58.7692 51.5271 59.0497 51.2036 59.2702 50.9288C59.4906 50.6512 59.6537 50.3907 59.7596 50.1474C59.8684 49.9012 59.9228 49.6436 59.9228 49.3745C59.9228 49.0654 59.8484 48.7978 59.6995 48.5716C59.5535 48.3455 59.3532 48.1709 59.0984 48.0478C58.8436 47.9247 58.5574 47.8632 58.2397 47.8632C57.9019 47.8632 57.6071 47.9333 57.3552 48.0736C57.1062 48.211 56.9129 48.4042 56.7755 48.6532C56.641 48.9022 56.5737 49.1942 56.5737 49.5291H55.5604C55.5604 49.0139 55.6792 48.5616 55.9168 48.1723C56.1544 47.783 56.4778 47.4796 56.8872 47.2621C57.2994 47.0445 57.7616 46.9358 58.274 46.9358C58.7893 46.9358 59.2458 47.0445 59.6437 47.2621C60.0416 47.4796 60.3536 47.773 60.5797 48.1423C60.8058 48.5115 60.9189 48.9223 60.9189 49.3745C60.9189 49.698 60.8602 50.0143 60.7429 50.3234C60.6284 50.6297 60.428 50.9718 60.1418 51.3496C59.8584 51.7246 59.4648 52.1826 58.961 52.7236L56.9859 54.8361V54.9048H61.0735V55.8494H55.5261ZM62.6029 54.046V53.1701L66.4672 47.056H67.1026V48.4128H66.6733L63.7536 53.0327V53.1014H68.9575V54.046H62.6029ZM66.742 55.8494V53.7798V53.3719V47.056H67.7553V55.8494H66.742Z" fill="#545C65"/>
<path d="M37.2227 95.175H256.172" stroke="#545C65" stroke-width="0.151136"/>
<path d="M37.2227 123.338H256.172" stroke="#545C65" stroke-width="0.151136"/>
<path d="M37.2227 151.501H256.172" stroke="#545C65" stroke-width="0.151136"/>
<path d="M37.2227 179.664H256.172" stroke="#545C65" stroke-width="0.151136"/>
<path d="M37.2227 207.827H256.172" stroke="#545C65" stroke-width="0.151136"/>
<path d="M37.2227 235.99H256.172" stroke="#545C65" stroke-width="0.151136"/>
<path fill-rule="evenodd" clip-rule="evenodd" d="M37.3927 235.576C37.3927 235.576 37.0527 149.657 37.3927 148.933C39.9253 143.547 43.4742 138.363 45.9989 137.991C50.2944 137.358 52.7429 145.946 57.6788 145.946C62.6147 145.946 67.6675 138.578 73.9692 137.991C80.2709 137.404 84.1855 142.958 89.7337 142.958C95.2819 142.958 101.641 122.044 107.843 122.044C114.046 122.044 119.99 154.909 128.275 154.909C136.559 154.909 138.24 127.06 143.45 127.06C148.659 127.06 152.129 136.908 157.133 137.394C162.138 137.879 162.138 145.946 166.354 145.946C170.571 145.946 176.608 119.416 183.252 119.416C189.897 119.416 197.571 138.259 202.321 138.259C207.071 138.259 204.467 125.032 210.089 125.032C215.711 125.032 211.577 136.796 217.202 137.394C222.826 137.991 227.407 142.958 232.877 142.958C234.456 142.958 236.621 141.884 238.2 138.857C239.779 135.83 241.202 130.966 241.202 130.966H241.895C241.895 130.966 241.895 133.162 241.895 133.797C241.895 140.731 241.895 235.576 241.895 235.576H37.3927Z" fill="url(#paint0_linear_17769_50393)"/>
<path d="M37.2227 148.933C37.2227 148.933 41.5587 138.624 45.8795 137.991C50.2003 137.358 52.6632 145.946 57.6281 145.946C62.593 145.946 67.6755 138.578 74.0142 137.991C80.353 137.404 84.2906 142.958 89.8714 142.958C95.4522 142.958 101.848 122.044 108.087 122.044C114.326 122.044 120.306 154.909 128.639 154.909C136.972 154.909 138.663 127.06 143.903 127.06C149.143 127.06 152.634 137.506 157.667 137.991C162.701 138.477 162.366 145.946 166.942 145.946C171.518 145.946 176.634 119.416 183.318 119.416C190.001 119.416 196.925 137.991 201.703 137.991C206.48 137.991 204.639 125.032 210.294 125.032C215.95 125.032 212.553 137.991 218.089 137.991C223.625 137.991 227.736 142.958 233.238 142.958C238.741 142.958 241.895 130.991 241.895 130.991" stroke="#193BFF" stroke-width="1.51136"/>
<path d="M244.462 130.337C244.462 131.655 243.346 132.789 241.886 132.789C240.426 132.789 239.309 131.655 239.309 130.337C239.309 129.02 240.426 127.886 241.886 127.886C243.346 127.886 244.462 129.02 244.462 130.337Z" fill="#101010" stroke="#101010" stroke-width="2.26705"/>
<path d="M40.4566 254.198H41.2553V258.912C41.2553 259.333 41.178 259.69 41.0234 259.984C40.8688 260.278 40.6509 260.502 40.3697 260.654C40.0885 260.807 39.7568 260.883 39.3746 260.883C39.014 260.883 38.693 260.817 38.4118 260.686C38.1306 260.553 37.9094 260.364 37.7484 260.12C37.5874 259.875 37.5069 259.584 37.5069 259.247H38.2926C38.2926 259.434 38.3388 259.597 38.4311 259.736C38.5256 259.874 38.6544 259.981 38.8175 260.058C38.9807 260.136 39.1664 260.174 39.3746 260.174C39.6043 260.174 39.7997 260.126 39.9607 260.029C40.1217 259.933 40.2441 259.791 40.3278 259.604C40.4137 259.415 40.4566 259.185 40.4566 258.912V254.198ZM45.8699 258.77V255.846H46.6298V260.793H45.8699V259.955H45.8183C45.7024 260.207 45.5221 260.42 45.2773 260.596C45.0326 260.77 44.7235 260.857 44.3499 260.857C44.0408 260.857 43.766 260.789 43.5255 260.654C43.2851 260.517 43.0962 260.311 42.9588 260.036C42.8214 259.759 42.7527 259.41 42.7527 258.989V255.846H43.5126V258.938C43.5126 259.298 43.6135 259.586 43.8153 259.801C44.0193 260.015 44.2791 260.123 44.5946 260.123C44.7836 260.123 44.9757 260.074 45.1711 259.978C45.3686 259.881 45.5339 259.733 45.667 259.533C45.8022 259.334 45.8699 259.079 45.8699 258.77ZM48.7818 257.817V260.793H48.0218V255.846H48.756V256.619H48.8204C48.9363 256.368 49.1124 256.166 49.3485 256.014C49.5847 255.859 49.8895 255.782 50.2631 255.782C50.598 255.782 50.891 255.851 51.1422 255.988C51.3934 256.123 51.5887 256.329 51.7283 256.606C51.8678 256.881 51.9376 257.229 51.9376 257.65V260.793H51.1776V257.701C51.1776 257.313 51.0767 257.01 50.8749 256.793C50.6731 256.574 50.3962 256.465 50.0441 256.465C49.8015 256.465 49.5847 256.517 49.3936 256.622C49.2047 256.728 49.0555 256.881 48.946 257.083C48.8365 257.285 48.7818 257.529 48.7818 257.817ZM58.1824 254.198V260.793H57.3838V255.035H57.3452L55.735 256.104V255.292L57.3838 254.198H58.1824ZM62.1401 260.883C61.7623 260.883 61.422 260.808 61.1193 260.657C60.8166 260.507 60.574 260.301 60.3915 260.039C60.209 259.777 60.1092 259.479 60.092 259.144H60.8649C60.8949 259.442 61.0302 259.689 61.2706 259.884C61.5132 260.078 61.803 260.174 62.1401 260.174C62.4106 260.174 62.651 260.111 62.8614 259.984C63.074 259.858 63.2403 259.684 63.3606 259.463C63.4829 259.239 63.5441 258.987 63.5441 258.706C63.5441 258.418 63.4808 258.162 63.3541 257.936C63.2296 257.709 63.0579 257.529 62.8389 257.398C62.6199 257.268 62.3698 257.201 62.0886 257.199C61.8868 257.197 61.6796 257.228 61.4671 257.292C61.2545 257.354 61.0796 257.435 60.9422 257.534L60.1951 257.444L60.5944 254.198H64.0207V254.906H61.2642L61.0323 256.851H61.071C61.2062 256.744 61.3758 256.655 61.5798 256.584C61.7837 256.513 61.9963 256.477 62.2174 256.477C62.621 256.477 62.9806 256.574 63.2962 256.767C63.6139 256.958 63.8629 257.22 64.0433 257.553C64.2257 257.886 64.317 258.266 64.317 258.693C64.317 259.114 64.2225 259.489 64.0336 259.82C63.8468 260.149 63.5892 260.408 63.2607 260.599C62.9323 260.788 62.5587 260.883 62.1401 260.883Z" fill="#545C65"/>
<path d="M105.534 254.198H106.332V258.912C106.332 259.333 106.255 259.69 106.101 259.984C105.946 260.278 105.728 260.502 105.447 260.654C105.166 260.807 104.834 260.883 104.452 260.883C104.091 260.883 103.77 260.817 103.489 260.686C103.208 260.553 102.987 260.364 102.826 260.12C102.665 259.875 102.584 259.584 102.584 259.247H103.37C103.37 259.434 103.416 259.597 103.508 259.736C103.603 259.874 103.732 259.981 103.895 260.058C104.058 260.136 104.244 260.174 104.452 260.174C104.682 260.174 104.877 260.126 105.038 260.029C105.199 259.933 105.321 259.791 105.405 259.604C105.491 259.415 105.534 259.185 105.534 258.912V254.198ZM110.947 258.77V255.846H111.707V260.793H110.947V259.955H110.896C110.78 260.207 110.599 260.42 110.355 260.596C110.11 260.77 109.801 260.857 109.427 260.857C109.118 260.857 108.843 260.789 108.603 260.654C108.362 260.517 108.173 260.311 108.036 260.036C107.899 259.759 107.83 259.41 107.83 258.989V255.846H108.59V258.938C108.59 259.298 108.691 259.586 108.893 259.801C109.097 260.015 109.356 260.123 109.672 260.123C109.861 260.123 110.053 260.074 110.248 259.978C110.446 259.881 110.611 259.733 110.744 259.533C110.879 259.334 110.947 259.079 110.947 258.77ZM113.859 257.817V260.793H113.099V255.846H113.833V256.619H113.898C114.014 256.368 114.19 256.166 114.426 256.014C114.662 255.859 114.967 255.782 115.34 255.782C115.675 255.782 115.968 255.851 116.219 255.988C116.471 256.123 116.666 256.329 116.806 256.606C116.945 256.881 117.015 257.229 117.015 257.65V260.793H116.255V257.701C116.255 257.313 116.154 257.01 115.952 256.793C115.75 256.574 115.473 256.465 115.121 256.465C114.879 256.465 114.662 256.517 114.471 256.622C114.282 256.728 114.133 256.881 114.023 257.083C113.914 257.285 113.859 257.529 113.859 257.817ZM120.941 260.793V260.213L123.118 257.83C123.373 257.551 123.584 257.308 123.749 257.102C123.914 256.894 124.037 256.699 124.116 256.516C124.198 256.332 124.239 256.138 124.239 255.936C124.239 255.705 124.183 255.504 124.071 255.334C123.962 255.165 123.811 255.034 123.62 254.941C123.429 254.849 123.215 254.803 122.976 254.803C122.723 254.803 122.502 254.856 122.313 254.961C122.126 255.064 121.981 255.209 121.878 255.395C121.777 255.582 121.727 255.801 121.727 256.052H120.967C120.967 255.666 121.056 255.327 121.234 255.035C121.412 254.743 121.655 254.515 121.962 254.352C122.271 254.189 122.618 254.107 123.002 254.107C123.388 254.107 123.731 254.189 124.029 254.352C124.328 254.515 124.562 254.735 124.731 255.012C124.901 255.289 124.986 255.597 124.986 255.936C124.986 256.179 124.942 256.416 124.854 256.648C124.768 256.878 124.618 257.134 124.403 257.418C124.19 257.699 123.895 258.043 123.517 258.448L122.036 260.033V260.084H125.102V260.793H120.941ZM128.493 260.883C128.115 260.883 127.774 260.808 127.472 260.657C127.169 260.507 126.926 260.301 126.744 260.039C126.561 259.777 126.462 259.479 126.444 259.144H127.217C127.247 259.442 127.383 259.689 127.623 259.884C127.866 260.078 128.155 260.174 128.493 260.174C128.763 260.174 129.003 260.111 129.214 259.984C129.426 259.858 129.593 259.684 129.713 259.463C129.835 259.239 129.897 258.987 129.897 258.706C129.897 258.418 129.833 258.162 129.707 257.936C129.582 257.709 129.41 257.529 129.191 257.398C128.972 257.268 128.722 257.201 128.441 257.199C128.239 257.197 128.032 257.228 127.82 257.292C127.607 257.354 127.432 257.435 127.295 257.534L126.548 257.444L126.947 254.198H130.373V254.906H127.617L127.385 256.851H127.423C127.559 256.744 127.728 256.655 127.932 256.584C128.136 256.513 128.349 256.477 128.57 256.477C128.973 256.477 129.333 256.574 129.649 256.767C129.966 256.958 130.215 257.22 130.396 257.553C130.578 257.886 130.669 258.266 130.669 258.693C130.669 259.114 130.575 259.489 130.386 259.82C130.199 260.149 129.942 260.408 129.613 260.599C129.285 260.788 128.911 260.883 128.493 260.883Z" fill="#545C65"/>
<path d="M172.036 254.198H172.834V258.912C172.834 259.333 172.757 259.69 172.602 259.984C172.448 260.278 172.23 260.502 171.949 260.654C171.667 260.807 171.336 260.883 170.954 260.883C170.593 260.883 170.272 260.817 169.991 260.686C169.71 260.553 169.488 260.364 169.327 260.12C169.166 259.875 169.086 259.584 169.086 259.247H169.872C169.872 259.434 169.918 259.597 170.01 259.736C170.105 259.874 170.233 259.981 170.397 260.058C170.56 260.136 170.745 260.174 170.954 260.174C171.183 260.174 171.379 260.126 171.54 260.029C171.701 259.933 171.823 259.791 171.907 259.604C171.993 259.415 172.036 259.185 172.036 258.912V254.198ZM177.449 258.77V255.846H178.209V260.793H177.449V259.955H177.397C177.281 260.207 177.101 260.42 176.856 260.596C176.612 260.77 176.302 260.857 175.929 260.857C175.62 260.857 175.345 260.789 175.105 260.654C174.864 260.517 174.675 260.311 174.538 260.036C174.4 259.759 174.332 259.41 174.332 258.989V255.846H175.092V258.938C175.092 259.298 175.193 259.586 175.394 259.801C175.598 260.015 175.858 260.123 176.174 260.123C176.363 260.123 176.555 260.074 176.75 259.978C176.948 259.881 177.113 259.733 177.246 259.533C177.381 259.334 177.449 259.079 177.449 258.77ZM180.361 257.817V260.793H179.601V255.846H180.335V256.619H180.399C180.515 256.368 180.691 256.166 180.928 256.014C181.164 255.859 181.469 255.782 181.842 255.782C182.177 255.782 182.47 255.851 182.721 255.988C182.972 256.123 183.168 256.329 183.307 256.606C183.447 256.881 183.517 257.229 183.517 257.65V260.793H182.757V257.701C182.757 257.313 182.656 257.01 182.454 256.793C182.252 256.574 181.975 256.465 181.623 256.465C181.381 256.465 181.164 256.517 180.973 256.622C180.784 256.728 180.634 256.881 180.525 257.083C180.416 257.285 180.361 257.529 180.361 257.817ZM189.671 260.883C189.246 260.883 188.867 260.81 188.535 260.664C188.204 260.518 187.941 260.315 187.746 260.055C187.552 259.793 187.447 259.489 187.43 259.144H188.241C188.259 259.356 188.332 259.54 188.46 259.695C188.589 259.847 188.758 259.965 188.966 260.049C189.174 260.132 189.405 260.174 189.658 260.174C189.942 260.174 190.193 260.125 190.412 260.026C190.631 259.927 190.803 259.79 190.927 259.614C191.052 259.438 191.114 259.234 191.114 259.002C191.114 258.76 191.054 258.546 190.934 258.361C190.813 258.175 190.637 258.029 190.405 257.923C190.174 257.818 189.89 257.766 189.555 257.766H189.027V257.057H189.555C189.817 257.057 190.047 257.01 190.244 256.915C190.444 256.821 190.6 256.688 190.711 256.516C190.825 256.344 190.882 256.143 190.882 255.911C190.882 255.687 190.833 255.493 190.734 255.328C190.635 255.163 190.496 255.034 190.315 254.941C190.137 254.849 189.927 254.803 189.684 254.803C189.457 254.803 189.242 254.845 189.04 254.929C188.84 255.01 188.677 255.129 188.551 255.286C188.424 255.441 188.355 255.627 188.345 255.846H187.572C187.585 255.501 187.689 255.198 187.884 254.938C188.079 254.676 188.335 254.472 188.65 254.326C188.968 254.18 189.317 254.107 189.697 254.107C190.105 254.107 190.455 254.19 190.747 254.355C191.039 254.519 191.263 254.734 191.42 255.003C191.577 255.271 191.655 255.561 191.655 255.872C191.655 256.243 191.557 256.56 191.362 256.822C191.169 257.084 190.906 257.265 190.573 257.366V257.418C190.989 257.486 191.315 257.664 191.549 257.949C191.783 258.233 191.9 258.584 191.9 259.002C191.9 259.361 191.802 259.683 191.607 259.968C191.413 260.252 191.149 260.475 190.814 260.638C190.48 260.801 190.098 260.883 189.671 260.883ZM195.368 260.883C194.883 260.883 194.469 260.751 194.128 260.487C193.787 260.22 193.526 259.835 193.346 259.331C193.165 258.824 193.075 258.212 193.075 257.495C193.075 256.782 193.165 256.174 193.346 255.669C193.528 255.163 193.79 254.776 194.131 254.51C194.475 254.242 194.887 254.107 195.368 254.107C195.849 254.107 196.26 254.242 196.601 254.51C196.945 254.776 197.207 255.163 197.387 255.669C197.569 256.174 197.661 256.782 197.661 257.495C197.661 258.212 197.571 258.824 197.39 259.331C197.21 259.835 196.949 260.22 196.608 260.487C196.266 260.751 195.853 260.883 195.368 260.883ZM195.368 260.174C195.849 260.174 196.222 259.942 196.489 259.479C196.755 259.015 196.888 258.354 196.888 257.495C196.888 256.924 196.827 256.438 196.704 256.036C196.584 255.635 196.41 255.329 196.183 255.119C195.957 254.908 195.686 254.803 195.368 254.803C194.891 254.803 194.519 255.038 194.25 255.508C193.982 255.976 193.848 256.638 193.848 257.495C193.848 258.066 193.908 258.551 194.028 258.951C194.148 259.35 194.321 259.654 194.547 259.862C194.774 260.07 195.048 260.174 195.368 260.174Z" fill="#545C65"/>
<path d="M238.789 254.198H239.588V258.912C239.588 259.333 239.51 259.69 239.356 259.984C239.201 260.278 238.983 260.502 238.702 260.654C238.421 260.807 238.089 260.883 237.707 260.883C237.346 260.883 237.025 260.817 236.744 260.686C236.463 260.553 236.242 260.364 236.081 260.12C235.92 259.875 235.839 259.584 235.839 259.247H236.625C236.625 259.434 236.671 259.597 236.763 259.736C236.858 259.874 236.987 259.981 237.15 260.058C237.313 260.136 237.499 260.174 237.707 260.174C237.937 260.174 238.132 260.126 238.293 260.029C238.454 259.933 238.576 259.791 238.66 259.604C238.746 259.415 238.789 259.185 238.789 258.912V254.198ZM244.202 258.77V255.846H244.962V260.793H244.202V259.955H244.151C244.035 260.207 243.854 260.42 243.61 260.596C243.365 260.77 243.056 260.857 242.682 260.857C242.373 260.857 242.098 260.789 241.858 260.654C241.617 260.517 241.429 260.311 241.291 260.036C241.154 259.759 241.085 259.41 241.085 258.989V255.846H241.845V258.938C241.845 259.298 241.946 259.586 242.148 259.801C242.352 260.015 242.611 260.123 242.927 260.123C243.116 260.123 243.308 260.074 243.503 259.978C243.701 259.881 243.866 259.733 243.999 259.533C244.135 259.334 244.202 259.079 244.202 258.77ZM247.114 254.198V260.793H246.354V254.198H247.114ZM253.105 260.883C252.727 260.883 252.386 260.808 252.084 260.657C251.781 260.507 251.538 260.301 251.356 260.039C251.174 259.777 251.074 259.479 251.057 259.144H251.829C251.859 259.442 251.995 259.689 252.235 259.884C252.478 260.078 252.768 260.174 253.105 260.174C253.375 260.174 253.616 260.111 253.826 259.984C254.038 259.858 254.205 259.684 254.325 259.463C254.447 259.239 254.509 258.987 254.509 258.706C254.509 258.418 254.445 258.162 254.319 257.936C254.194 257.709 254.022 257.529 253.803 257.398C253.584 257.268 253.334 257.201 253.053 257.199C252.851 257.197 252.644 257.228 252.432 257.292C252.219 257.354 252.044 257.435 251.907 257.534L251.16 257.444L251.559 254.198H254.985V254.906H252.229L251.997 256.851H252.035C252.171 256.744 252.34 256.655 252.544 256.584C252.748 256.513 252.961 256.477 253.182 256.477C253.585 256.477 253.945 256.574 254.261 256.767C254.578 256.958 254.827 257.22 255.008 257.553C255.19 257.886 255.281 258.266 255.281 258.693C255.281 259.114 255.187 259.489 254.998 259.82C254.811 260.149 254.554 260.408 254.225 260.599C253.897 260.788 253.523 260.883 253.105 260.883Z" fill="#545C65"/>
<path d="M14.9623 101.434C14.6918 101.43 14.4213 101.378 14.1508 101.279C13.8803 101.181 13.6334 101.014 13.4101 100.78C13.1869 100.544 13.0076 100.225 12.8724 99.8238C12.7371 99.4202 12.6695 98.9135 12.6695 98.3038C12.6695 97.7199 12.7242 97.2025 12.8337 96.7517C12.9432 96.2987 13.1021 95.9177 13.3103 95.6085C13.5186 95.2972 13.7697 95.0611 14.0638 94.9001C14.3601 94.739 14.6939 94.6585 15.0653 94.6585C15.4346 94.6585 15.7631 94.7326 16.0507 94.8807C16.3406 95.0267 16.5767 95.2307 16.7592 95.4926C16.9417 95.7545 17.0597 96.0561 17.1134 96.3975H16.3277C16.2547 96.1012 16.113 95.8554 15.9026 95.66C15.6922 95.4647 15.4131 95.367 15.0653 95.367C14.5544 95.367 14.1519 95.5892 13.8578 96.0336C13.5658 96.478 13.4187 97.1016 13.4166 97.9045H13.4681C13.5883 97.7221 13.7311 97.5664 13.8964 97.4376C14.0638 97.3066 14.2485 97.2057 14.4503 97.1349C14.6521 97.0641 14.8657 97.0286 15.0911 97.0286C15.4689 97.0286 15.8146 97.1231 16.128 97.312C16.4415 97.4988 16.6926 97.7575 16.8816 98.0881C17.0705 98.4166 17.1649 98.7933 17.1649 99.2184C17.1649 99.6263 17.0737 99.9998 16.8912 100.339C16.7087 100.676 16.4522 100.944 16.1216 101.144C15.7931 101.342 15.4067 101.438 14.9623 101.434ZM14.9623 100.725C15.2328 100.725 15.4754 100.658 15.6901 100.523C15.9069 100.387 16.0776 100.206 16.2021 99.9784C16.3287 99.7508 16.3921 99.4975 16.3921 99.2184C16.3921 98.9457 16.3309 98.6978 16.2085 98.4745C16.0883 98.2491 15.9219 98.0698 15.7094 97.9367C15.499 97.8036 15.2586 97.7371 14.9881 97.7371C14.7841 97.7371 14.5941 97.7779 14.4181 97.8595C14.242 97.9389 14.0875 98.0484 13.9544 98.1879C13.8234 98.3275 13.7204 98.4874 13.6452 98.6677C13.5701 98.8459 13.5325 99.0338 13.5325 99.2313C13.5325 99.4932 13.5937 99.7379 13.7161 99.9655C13.8406 100.193 14.0102 100.377 14.2249 100.516C14.4417 100.656 14.6875 100.725 14.9623 100.725ZM20.5824 101.434C20.0972 101.434 19.684 101.302 19.3426 101.038C19.0013 100.772 18.7404 100.386 18.5601 99.8818C18.3798 99.3751 18.2896 98.7633 18.2896 98.0462C18.2896 97.3335 18.3798 96.7249 18.5601 96.2204C18.7426 95.7137 19.0045 95.3273 19.3458 95.0611C19.6893 94.7927 20.1015 94.6585 20.5824 94.6585C21.0633 94.6585 21.4744 94.7927 21.8158 95.0611C22.1593 95.3273 22.4212 95.7137 22.6015 96.2204C22.784 96.7249 22.8752 97.3335 22.8752 98.0462C22.8752 98.7633 22.785 99.3751 22.6047 99.8818C22.4244 100.386 22.1635 100.772 21.8222 101.038C21.4809 101.302 21.0676 101.434 20.5824 101.434ZM20.5824 100.725C21.0633 100.725 21.4368 100.494 21.7031 100.03C21.9693 99.5662 22.1024 98.905 22.1024 98.0462C22.1024 97.4752 22.0412 96.9889 21.9188 96.5875C21.7986 96.186 21.6247 95.8801 21.3971 95.6697C21.1717 95.4593 20.9001 95.3541 20.5824 95.3541C20.1058 95.3541 19.7333 95.5892 19.465 96.0593C19.1966 96.5274 19.0625 97.1896 19.0625 98.0462C19.0625 98.6173 19.1226 99.1025 19.2428 99.5018C19.363 99.9011 19.5358 100.205 19.7612 100.413C19.9888 100.621 20.2625 100.725 20.5824 100.725Z" fill="#545C65"/>
<path d="M14.8335 127.548C14.4556 127.548 14.1154 127.472 13.8127 127.322C13.51 127.172 13.2674 126.966 13.0849 126.704C12.9024 126.442 12.8026 126.144 12.7854 125.809H13.5583C13.5883 126.107 13.7236 126.354 13.964 126.549C14.2066 126.743 14.4964 126.839 14.8335 126.839C15.104 126.839 15.3444 126.776 15.5548 126.649C15.7674 126.522 15.9337 126.349 16.054 126.127C16.1763 125.904 16.2375 125.652 16.2375 125.371C16.2375 125.083 16.1742 124.826 16.0475 124.601C15.923 124.373 15.7513 124.194 15.5323 124.063C15.3133 123.932 15.0632 123.866 14.782 123.864C14.5802 123.861 14.373 123.893 14.1605 123.957C13.9479 124.019 13.773 124.1 13.6356 124.199L12.8885 124.108L13.2878 120.862H16.7141V121.571H13.9576L13.7257 123.516H13.7644C13.8996 123.408 14.0692 123.319 14.2732 123.249C14.4771 123.178 14.6896 123.142 14.9108 123.142C15.3144 123.142 15.674 123.239 15.9895 123.432C16.3073 123.623 16.5563 123.885 16.7366 124.218C16.9191 124.551 17.0104 124.931 17.0104 125.358C17.0104 125.779 16.9159 126.154 16.727 126.485C16.5402 126.813 16.2826 127.073 15.9541 127.264C15.6257 127.453 15.2521 127.548 14.8335 127.548ZM20.4021 127.548C19.9598 127.548 19.5691 127.469 19.2299 127.312C18.8929 127.154 18.6299 126.936 18.441 126.659C18.252 126.38 18.1586 126.062 18.1608 125.706C18.1586 125.427 18.2134 125.169 18.325 124.933C18.4367 124.694 18.5891 124.496 18.7823 124.337C18.9777 124.176 19.1956 124.074 19.436 124.031V123.992C19.1204 123.911 18.8692 123.734 18.6825 123.461C18.4957 123.186 18.4034 122.874 18.4055 122.524C18.4034 122.189 18.4882 121.89 18.6599 121.626C18.8317 121.361 19.0678 121.153 19.3684 121.001C19.6711 120.848 20.0156 120.772 20.4021 120.772C20.7842 120.772 21.1256 120.848 21.4261 121.001C21.7267 121.153 21.9628 121.361 22.1346 121.626C22.3085 121.89 22.3965 122.189 22.3986 122.524C22.3965 122.874 22.3009 123.186 22.112 123.461C21.9252 123.734 21.6773 123.911 21.3681 123.992V124.031C21.6064 124.074 21.8211 124.176 22.0122 124.337C22.2033 124.496 22.3557 124.694 22.4695 124.933C22.5832 125.169 22.6412 125.427 22.6434 125.706C22.6412 126.062 22.5446 126.38 22.3535 126.659C22.1646 126.936 21.9016 127.154 21.5646 127.312C21.2297 127.469 20.8422 127.548 20.4021 127.548ZM20.4021 126.839C20.7005 126.839 20.9581 126.791 21.1749 126.694C21.3918 126.598 21.5592 126.461 21.6773 126.285C21.7954 126.109 21.8555 125.903 21.8576 125.667C21.8555 125.418 21.7911 125.198 21.6644 125.007C21.5377 124.816 21.3649 124.665 21.146 124.556C20.9291 124.446 20.6812 124.392 20.4021 124.392C20.1208 124.392 19.8697 124.446 19.6485 124.556C19.4296 124.665 19.2567 124.816 19.1301 125.007C19.0056 125.198 18.9444 125.418 18.9465 125.667C18.9444 125.903 19.0013 126.109 19.1172 126.285C19.2353 126.461 19.4038 126.598 19.6228 126.694C19.8418 126.791 20.1015 126.839 20.4021 126.839ZM20.4021 123.709C20.6382 123.709 20.8475 123.662 21.03 123.567C21.2146 123.473 21.3596 123.341 21.4648 123.171C21.5699 123.002 21.6236 122.803 21.6258 122.576C21.6236 122.352 21.571 122.158 21.468 121.993C21.3649 121.825 21.2222 121.696 21.0397 121.606C20.8572 121.514 20.6447 121.468 20.4021 121.468C20.1552 121.468 19.9394 121.514 19.7548 121.606C19.5702 121.696 19.4274 121.825 19.3265 121.993C19.2256 122.158 19.1762 122.352 19.1784 122.576C19.1762 122.803 19.2267 123.002 19.3297 123.171C19.4349 123.341 19.5798 123.473 19.7645 123.567C19.9491 123.662 20.1616 123.709 20.4021 123.709Z" fill="#545C65"/>
<path d="M14.8335 153.661C14.4556 153.661 14.1154 153.586 13.8127 153.436C13.51 153.286 13.2674 153.079 13.0849 152.818C12.9024 152.556 12.8026 152.257 12.7854 151.922H13.5583C13.5883 152.221 13.7236 152.468 13.964 152.663C14.2066 152.856 14.4964 152.953 14.8335 152.953C15.104 152.953 15.3444 152.889 15.5548 152.763C15.7674 152.636 15.9337 152.462 16.054 152.241C16.1763 152.018 16.2375 151.766 16.2375 151.484C16.2375 151.197 16.1742 150.94 16.0475 150.715C15.923 150.487 15.7513 150.308 15.5323 150.177C15.3133 150.046 15.0632 149.979 14.782 149.977C14.5802 149.975 14.373 150.006 14.1605 150.071C13.9479 150.133 13.773 150.213 13.6356 150.312L12.8885 150.222L13.2878 146.976H16.7141V147.684H13.9576L13.7257 149.629H13.7644C13.8996 149.522 14.0692 149.433 14.2732 149.362C14.4771 149.291 14.6896 149.256 14.9108 149.256C15.3144 149.256 15.674 149.353 15.9895 149.546C16.3073 149.737 16.5563 149.999 16.7366 150.331C16.9191 150.664 17.0104 151.044 17.0104 151.471C17.0104 151.892 16.9159 152.268 16.727 152.599C16.5402 152.927 16.2826 153.187 15.9541 153.378C15.6257 153.567 15.2521 153.661 14.8335 153.661ZM20.4794 153.661C20.2089 153.657 19.9384 153.605 19.6679 153.507C19.3974 153.408 19.1505 153.242 18.9272 153.008C18.7039 152.771 18.5247 152.453 18.3894 152.051C18.2542 151.647 18.1866 151.141 18.1866 150.531C18.1866 149.947 18.2413 149.43 18.3508 148.979C18.4603 148.526 18.6191 148.145 18.8274 147.836C19.0356 147.525 19.2868 147.288 19.5809 147.127C19.8772 146.966 20.211 146.886 20.5824 146.886C20.9517 146.886 21.2801 146.96 21.5678 147.108C21.8576 147.254 22.0938 147.458 22.2763 147.72C22.4587 147.982 22.5768 148.283 22.6305 148.625H21.8447C21.7717 148.329 21.6301 148.083 21.4197 147.887C21.2093 147.692 20.9302 147.594 20.5824 147.594C20.0715 147.594 19.6689 147.816 19.3748 148.261C19.0829 148.705 18.9358 149.329 18.9336 150.132H18.9852C19.1054 149.949 19.2482 149.794 19.4135 149.665C19.5809 149.534 19.7655 149.433 19.9673 149.362C20.1691 149.291 20.3828 149.256 20.6082 149.256C20.986 149.256 21.3317 149.35 21.6451 149.539C21.9585 149.726 22.2097 149.985 22.3986 150.315C22.5875 150.644 22.682 151.021 22.682 151.446C22.682 151.854 22.5908 152.227 22.4083 152.566C22.2258 152.903 21.9693 153.172 21.6386 153.371C21.3102 153.569 20.9238 153.666 20.4794 153.661ZM20.4794 152.953C20.7499 152.953 20.9925 152.885 21.2071 152.75C21.424 152.615 21.5946 152.433 21.7192 152.206C21.8458 151.978 21.9091 151.725 21.9091 151.446C21.9091 151.173 21.848 150.925 21.7256 150.702C21.6054 150.476 21.439 150.297 21.2265 150.164C21.0161 150.031 20.7756 149.964 20.5051 149.964C20.3012 149.964 20.1112 150.005 19.9351 150.087C19.7591 150.166 19.6045 150.276 19.4714 150.415C19.3405 150.555 19.2374 150.715 19.1623 150.895C19.0871 151.073 19.0496 151.261 19.0496 151.459C19.0496 151.72 19.1108 151.965 19.2331 152.193C19.3576 152.42 19.5272 152.604 19.7419 152.743C19.9588 152.883 20.2046 152.953 20.4794 152.953Z" fill="#545C65"/>
<path d="M14.8335 179.775C14.4556 179.775 14.1154 179.7 13.8127 179.549C13.51 179.399 13.2674 179.193 13.0849 178.931C12.9024 178.669 12.8026 178.371 12.7854 178.036H13.5583C13.5883 178.334 13.7236 178.581 13.964 178.777C14.2066 178.97 14.4964 179.066 14.8335 179.066C15.104 179.066 15.3444 179.003 15.5548 178.876C15.7674 178.75 15.9337 178.576 16.054 178.355C16.1763 178.131 16.2375 177.879 16.2375 177.598C16.2375 177.31 16.1742 177.054 16.0475 176.828C15.923 176.601 15.7513 176.422 15.5323 176.291C15.3133 176.16 15.0632 176.093 14.782 176.091C14.5802 176.089 14.373 176.12 14.1605 176.184C13.9479 176.247 13.773 176.327 13.6356 176.426L12.8885 176.336L13.2878 173.09H16.7141V173.798H13.9576L13.7257 175.743H13.7644C13.8996 175.636 14.0692 175.547 14.2732 175.476C14.4771 175.405 14.6896 175.37 14.9108 175.37C15.3144 175.37 15.674 175.466 15.9895 175.659C16.3073 175.85 16.5563 176.112 16.7366 176.445C16.9191 176.778 17.0104 177.158 17.0104 177.585C17.0104 178.006 16.9159 178.382 16.727 178.712C16.5402 179.041 16.2826 179.3 15.9541 179.491C15.6257 179.68 15.2521 179.775 14.8335 179.775ZM18.135 178.332V177.675L21.0332 173.09H21.5098V174.107H21.1878L18.9981 177.572V177.624H22.901V178.332H18.135ZM21.2393 179.685V178.133V177.827V173.09H21.9993V179.685H21.2393Z" fill="#545C65"/>
<path d="M14.8335 205.889C14.4556 205.889 14.1154 205.813 13.8127 205.663C13.51 205.513 13.2674 205.307 13.0849 205.045C12.9024 204.783 12.8026 204.484 12.7854 204.15H13.5583C13.5883 204.448 13.7236 204.695 13.964 204.89C14.2066 205.083 14.4964 205.18 14.8335 205.18C15.104 205.18 15.3444 205.117 15.5548 204.99C15.7674 204.863 15.9337 204.69 16.054 204.468C16.1763 204.245 16.2375 203.993 16.2375 203.712C16.2375 203.424 16.1742 203.167 16.0475 202.942C15.923 202.714 15.7513 202.535 15.5323 202.404C15.3133 202.273 15.0632 202.207 14.782 202.205C14.5802 202.202 14.373 202.234 14.1605 202.298C13.9479 202.36 13.773 202.441 13.6356 202.539L12.8885 202.449L13.2878 199.203H16.7141V199.912H13.9576L13.7257 201.857H13.7644C13.8996 201.749 14.0692 201.66 14.2732 201.589C14.4771 201.519 14.6896 201.483 14.9108 201.483C15.3144 201.483 15.674 201.58 15.9895 201.773C16.3073 201.964 16.5563 202.226 16.7366 202.559C16.9191 202.892 17.0104 203.272 17.0104 203.699C17.0104 204.12 16.9159 204.495 16.727 204.826C16.5402 205.154 16.2826 205.414 15.9541 205.605C15.6257 205.794 15.2521 205.889 14.8335 205.889ZM18.2896 205.798V205.219L20.4665 202.836C20.722 202.557 20.9323 202.314 21.0976 202.108C21.263 201.9 21.3853 201.704 21.4648 201.522C21.5463 201.337 21.5871 201.144 21.5871 200.942C21.5871 200.71 21.5313 200.51 21.4197 200.34C21.3102 200.17 21.1599 200.039 20.9688 199.947C20.7778 199.855 20.5631 199.809 20.3248 199.809C20.0715 199.809 19.8503 199.861 19.6614 199.966C19.4746 200.07 19.3297 200.214 19.2267 200.401C19.1258 200.588 19.0753 200.807 19.0753 201.058H18.3154C18.3154 200.672 18.4045 200.333 18.5826 200.041C18.7608 199.749 19.0034 199.521 19.3104 199.358C19.6196 199.195 19.9663 199.113 20.3506 199.113C20.737 199.113 21.0794 199.195 21.3778 199.358C21.6762 199.521 21.9102 199.741 22.0798 200.018C22.2494 200.295 22.3342 200.603 22.3342 200.942C22.3342 201.185 22.2902 201.422 22.2022 201.654C22.1163 201.884 21.966 202.14 21.7514 202.424C21.5388 202.705 21.2436 203.048 20.8658 203.454L19.3845 205.038V205.09H22.4501V205.798H18.2896Z" fill="#545C65"/>
<path d="M14.8335 232.002C14.4556 232.002 14.1154 231.927 13.8127 231.777C13.51 231.626 13.2674 231.42 13.0849 231.158C12.9024 230.896 12.8026 230.598 12.7854 230.263H13.5583C13.5883 230.562 13.7236 230.808 13.964 231.004C14.2066 231.197 14.4964 231.294 14.8335 231.294C15.104 231.294 15.3444 231.23 15.5548 231.104C15.7674 230.977 15.9337 230.803 16.054 230.582C16.1763 230.359 16.2375 230.106 16.2375 229.825C16.2375 229.537 16.1742 229.281 16.0475 229.056C15.923 228.828 15.7513 228.649 15.5323 228.518C15.3133 228.387 15.0632 228.32 14.782 228.318C14.5802 228.316 14.373 228.347 14.1605 228.411C13.9479 228.474 13.773 228.554 13.6356 228.653L12.8885 228.563L13.2878 225.317H16.7141V226.025H13.9576L13.7257 227.97H13.7644C13.8996 227.863 14.0692 227.774 14.2732 227.703C14.4771 227.632 14.6896 227.597 14.9108 227.597C15.3144 227.597 15.674 227.693 15.9895 227.887C16.3073 228.078 16.5563 228.34 16.7366 228.672C16.9191 229.005 17.0104 229.385 17.0104 229.812C17.0104 230.233 16.9159 230.609 16.727 230.939C16.5402 231.268 16.2826 231.528 15.9541 231.719C15.6257 231.908 15.2521 232.002 14.8335 232.002ZM20.4407 232.002C19.9555 232.002 19.5423 231.87 19.2009 231.606C18.8596 231.34 18.5987 230.954 18.4184 230.45C18.2381 229.943 18.1479 229.331 18.1479 228.614C18.1479 227.902 18.2381 227.293 18.4184 226.788C18.6009 226.282 18.8628 225.895 19.2041 225.629C19.5476 225.361 19.9598 225.227 20.4407 225.227C20.9216 225.227 21.3327 225.361 21.6741 225.629C22.0176 225.895 22.2795 226.282 22.4598 226.788C22.6423 227.293 22.7335 227.902 22.7335 228.614C22.7335 229.331 22.6434 229.943 22.463 230.45C22.2827 230.954 22.0219 231.34 21.6805 231.606C21.3392 231.87 20.9259 232.002 20.4407 232.002ZM20.4407 231.294C20.9216 231.294 21.2952 231.062 21.5614 230.598C21.8276 230.134 21.9607 229.473 21.9607 228.614C21.9607 228.043 21.8995 227.557 21.7771 227.156C21.6569 226.754 21.483 226.448 21.2554 226.238C21.03 226.027 20.7584 225.922 20.4407 225.922C19.9641 225.922 19.5916 226.157 19.3233 226.627C19.0549 227.095 18.9208 227.758 18.9208 228.614C18.9208 229.185 18.9809 229.671 19.1011 230.07C19.2213 230.469 19.3941 230.773 19.6196 230.981C19.8471 231.189 20.1208 231.294 20.4407 231.294Z" fill="#545C65"/>
<rect x="217.257" y="99.5227" width="45.4261" height="19.3125" rx="9.65625" stroke="#545C65" stroke-width="0.755682"/>
<path d="M231.712 112.769C231.335 112.769 230.994 112.694 230.692 112.544C230.389 112.393 230.146 112.187 229.964 111.925C229.781 111.664 229.681 111.365 229.664 111.03H230.437C230.467 111.329 230.602 111.575 230.843 111.771C231.086 111.964 231.375 112.061 231.712 112.061C231.983 112.061 232.223 111.997 232.434 111.871C232.646 111.744 232.813 111.57 232.933 111.349C233.055 111.126 233.116 110.873 233.116 110.592C233.116 110.305 233.053 110.048 232.926 109.823C232.802 109.595 232.63 109.416 232.411 109.285C232.192 109.154 231.942 109.087 231.661 109.085C231.459 109.083 231.252 109.114 231.039 109.179C230.827 109.241 230.652 109.321 230.514 109.42L229.767 109.33L230.167 106.084H233.593V106.792H230.836L230.605 108.737H230.643C230.779 108.63 230.948 108.541 231.152 108.47C231.356 108.399 231.569 108.364 231.79 108.364C232.193 108.364 232.553 108.46 232.868 108.654C233.186 108.845 233.435 109.107 233.616 109.439C233.798 109.772 233.889 110.152 233.889 110.579C233.889 111 233.795 111.376 233.606 111.706C233.419 112.035 233.161 112.295 232.833 112.486C232.505 112.675 232.131 112.769 231.712 112.769ZM237.281 112.769C236.839 112.769 236.448 112.691 236.109 112.534C235.772 112.375 235.509 112.157 235.32 111.88C235.131 111.601 235.038 111.284 235.04 110.927C235.038 110.648 235.092 110.39 235.204 110.154C235.316 109.916 235.468 109.717 235.661 109.559C235.857 109.398 236.074 109.296 236.315 109.253V109.214C235.999 109.132 235.748 108.955 235.561 108.683C235.375 108.408 235.282 108.095 235.284 107.746C235.282 107.411 235.367 107.111 235.539 106.847C235.711 106.583 235.947 106.375 236.247 106.222C236.55 106.07 236.895 105.994 237.281 105.994C237.663 105.994 238.004 106.07 238.305 106.222C238.606 106.375 238.842 106.583 239.013 106.847C239.187 107.111 239.275 107.411 239.278 107.746C239.275 108.095 239.18 108.408 238.991 108.683C238.804 108.955 238.556 109.132 238.247 109.214V109.253C238.485 109.296 238.7 109.398 238.891 109.559C239.082 109.717 239.235 109.916 239.348 110.154C239.462 110.39 239.52 110.648 239.522 110.927C239.52 111.284 239.424 111.601 239.232 111.88C239.044 112.157 238.781 112.375 238.443 112.534C238.109 112.691 237.721 112.769 237.281 112.769ZM237.281 112.061C237.579 112.061 237.837 112.012 238.054 111.916C238.271 111.819 238.438 111.683 238.556 111.507C238.674 111.331 238.734 111.125 238.737 110.889C238.734 110.639 238.67 110.419 238.543 110.228C238.417 110.037 238.244 109.887 238.025 109.778C237.808 109.668 237.56 109.613 237.281 109.613C237 109.613 236.749 109.668 236.527 109.778C236.308 109.887 236.136 110.037 236.009 110.228C235.884 110.419 235.823 110.639 235.825 110.889C235.823 111.125 235.88 111.331 235.996 111.507C236.114 111.683 236.283 111.819 236.502 111.916C236.721 112.012 236.98 112.061 237.281 112.061ZM237.281 108.931C237.517 108.931 237.726 108.883 237.909 108.789C238.094 108.694 238.238 108.562 238.344 108.393C238.449 108.223 238.503 108.025 238.505 107.797C238.503 107.574 238.45 107.38 238.347 107.214C238.244 107.047 238.101 106.918 237.919 106.828C237.736 106.735 237.524 106.689 237.281 106.689C237.034 106.689 236.818 106.735 236.634 106.828C236.449 106.918 236.306 107.047 236.205 107.214C236.105 107.38 236.055 107.574 236.057 107.797C236.055 108.025 236.106 108.223 236.209 108.393C236.314 108.562 236.459 108.694 236.643 108.789C236.828 108.883 237.041 108.931 237.281 108.931ZM241.478 110.876L241.465 109.935H241.619L243.783 107.733H244.724L242.418 110.064H242.354L241.478 110.876ZM240.769 112.679V106.084H241.529V112.679H240.769ZM243.912 112.679L241.98 110.232L242.521 109.703L244.878 112.679H243.912ZM247.495 114.637C247.128 114.637 246.812 114.59 246.548 114.495C246.284 114.403 246.064 114.28 245.888 114.128C245.714 113.978 245.576 113.817 245.472 113.645L246.078 113.22C246.147 113.31 246.234 113.413 246.339 113.529C246.444 113.647 246.588 113.749 246.77 113.835C246.955 113.923 247.196 113.967 247.495 113.967C247.894 113.967 248.224 113.87 248.483 113.677C248.743 113.484 248.873 113.181 248.873 112.769V111.764H248.809C248.753 111.855 248.673 111.966 248.57 112.099C248.469 112.23 248.323 112.347 248.132 112.45C247.943 112.551 247.688 112.602 247.366 112.602C246.967 112.602 246.608 112.507 246.29 112.318C245.975 112.129 245.725 111.855 245.54 111.494C245.358 111.133 245.266 110.695 245.266 110.18C245.266 109.673 245.355 109.232 245.534 108.857C245.712 108.479 245.96 108.187 246.278 107.981C246.595 107.772 246.962 107.668 247.379 107.668C247.701 107.668 247.956 107.722 248.145 107.829C248.336 107.934 248.482 108.055 248.583 108.19C248.686 108.323 248.766 108.433 248.822 108.518H248.899V107.733H249.633V112.821C249.633 113.246 249.536 113.591 249.343 113.858C249.152 114.126 248.894 114.322 248.57 114.447C248.248 114.574 247.89 114.637 247.495 114.637ZM247.469 111.919C247.774 111.919 248.031 111.849 248.242 111.71C248.452 111.57 248.612 111.369 248.722 111.107C248.831 110.846 248.886 110.532 248.886 110.167C248.886 109.811 248.832 109.496 248.725 109.224C248.618 108.951 248.459 108.737 248.248 108.583C248.038 108.428 247.778 108.351 247.469 108.351C247.147 108.351 246.879 108.433 246.664 108.596C246.451 108.759 246.291 108.978 246.184 109.253C246.079 109.527 246.026 109.832 246.026 110.167C246.026 110.511 246.08 110.814 246.187 111.078C246.297 111.34 246.458 111.547 246.67 111.697C246.885 111.845 247.151 111.919 247.469 111.919Z" fill="#101010"/>
<defs>
<linearGradient id="paint0_linear_17769_50393" x1="37.2227" y1="119.416" x2="37.2227" y2="235.576" gradientUnits="userSpaceOnUse">
<stop stop-color="#9DA6FE"/>
<stop offset="1" stop-color="#DADEFF" stop-opacity="0.01"/>
</linearGradient>
</defs>
</svg>
