<svg width="70" height="70" viewBox="0 0 70 70" fill="none" xmlns="http://www.w3.org/2000/svg">
<rect width="70" height="70" rx="12" fill="#F3F4F6"/>
<path d="M14.3085 19.5833C15.9752 12.3749 26.8294 12.3749 28.4752 19.5833C29.4544 23.8124 26.7669 27.3958 24.4335 29.6249C22.7252 31.2499 20.0377 31.2291 18.3294 29.6249C16.0169 27.3958 13.3294 23.8124 14.3085 19.5833Z" stroke="#193BFF" stroke-width="2"/>
<path d="M41.3944 44.5833C43.061 37.3749 53.9777 37.3749 55.6444 44.5833C56.6235 48.8124 53.936 52.3958 51.5819 54.6249C49.8735 56.2499 47.1652 56.2291 45.4569 54.6249C43.1027 52.3958 40.4152 48.8124 41.3944 44.5833Z" stroke="#193BFF" stroke-width="2"/>
<path d="M35.0025 20.4165H40.5858C44.44 20.4165 46.2316 25.1873 43.3358 27.729L26.69 42.2915C23.7941 44.8123 25.5858 49.5832 29.4191 49.5832H35.0025" stroke="#193BFF" stroke-width="2" stroke-linecap="round" stroke-linejoin="round"/>
<path d="M21.4346 21.4582H21.4587" stroke="#193BFF" stroke-width="2" stroke-linecap="round" stroke-linejoin="round"/>
<path d="M48.5088 46.4582H48.5329" stroke="#193BFF" stroke-width="2" stroke-linecap="round" stroke-linejoin="round"/>
</svg>
