<svg width="266" height="383" viewBox="0 0 266 383" fill="none" xmlns="http://www.w3.org/2000/svg">
<rect x="0.5" y="0.999878" width="265" height="217.373" rx="11.5" fill="#FBFFF4"/>
<rect x="0.5" y="0.999878" width="265" height="217.373" rx="11.5" stroke="#E5E7EB"/>
<path d="M15.7856 30.5908L12.4323 18.4999H14.351L16.7066 27.8633H16.8188L19.2688 18.4999H21.1698L23.6199 27.8692H23.7321L26.0818 18.4999H28.0064L24.6472 30.5908H22.8111L20.2666 21.5344H20.1721L17.6276 30.5908H15.7856ZM31.6992 30.7738C30.8491 30.7738 30.1071 30.579 29.4735 30.1894C28.8398 29.7997 28.3478 29.2546 27.9975 28.554C27.6472 27.8534 27.4721 27.0348 27.4721 26.0981C27.4721 25.1574 27.6472 24.3348 27.9975 23.6303C28.3478 22.9258 28.8398 22.3787 29.4735 21.989C30.1071 21.5994 30.8491 21.4046 31.6992 21.4046C32.5493 21.4046 33.2912 21.5994 33.9249 21.989C34.5586 22.3787 35.0506 22.9258 35.4009 23.6303C35.7511 24.3348 35.9263 25.1574 35.9263 26.0981C35.9263 27.0348 35.7511 27.8534 35.4009 28.554C35.0506 29.2546 34.5586 29.7997 33.9249 30.1894C33.2912 30.579 32.5493 30.7738 31.6992 30.7738ZM31.7051 29.292C32.2561 29.292 32.7127 29.1464 33.0748 28.8551C33.4369 28.5639 33.7045 28.1762 33.8777 27.6921C34.0548 27.208 34.1434 26.6747 34.1434 26.0922C34.1434 25.5136 34.0548 24.9822 33.8777 24.4981C33.7045 24.0101 33.4369 23.6185 33.0748 23.3233C32.7127 23.0281 32.2561 22.8805 31.7051 22.8805C31.1501 22.8805 30.6897 23.0281 30.3236 23.3233C29.9615 23.6185 29.6919 24.0101 29.5148 24.4981C29.3416 24.9822 29.255 25.5136 29.255 26.0922C29.255 26.6747 29.3416 27.208 29.5148 27.6921C29.6919 28.1762 29.9615 28.5639 30.3236 28.8551C30.6897 29.1464 31.1501 29.292 31.7051 29.292ZM37.141 30.5908V21.5226H38.8472V22.9632H38.9416C39.1069 22.4751 39.3982 22.0914 39.8154 21.8119C40.2365 21.5285 40.7128 21.3869 41.2441 21.3869C41.3543 21.3869 41.4842 21.3908 41.6338 21.3987C41.7873 21.4065 41.9073 21.4164 41.9939 21.4282V23.1167C41.923 23.097 41.7971 23.0753 41.616 23.0517C41.435 23.0242 41.2539 23.0104 41.0729 23.0104C40.6557 23.0104 40.2838 23.0989 39.9571 23.2761C39.6343 23.4492 39.3785 23.6913 39.1896 24.0022C39.0007 24.3092 38.9062 24.6595 38.9062 25.0531V30.5908H37.141ZM44.3893 27.515L44.3775 25.3601H44.6845L48.2976 21.5226H50.4112L46.2903 25.8914H46.0129L44.3893 27.515ZM42.7658 30.5908V18.4999H44.531V30.5908H42.7658ZM48.4925 30.5908L45.2454 26.2811L46.4616 25.0472L50.6591 30.5908H48.4925ZM54.7106 30.7738C53.8605 30.7738 53.1185 30.579 52.4849 30.1894C51.8512 29.7997 51.3592 29.2546 51.0089 28.554C50.6586 27.8534 50.4835 27.0348 50.4835 26.0981C50.4835 25.1574 50.6586 24.3348 51.0089 23.6303C51.3592 22.9258 51.8512 22.3787 52.4849 21.989C53.1185 21.5994 53.8605 21.4046 54.7106 21.4046C55.5607 21.4046 56.3026 21.5994 56.9363 21.989C57.57 22.3787 58.062 22.9258 58.4123 23.6303C58.7625 24.3348 58.9377 25.1574 58.9377 26.0981C58.9377 27.0348 58.7625 27.8534 58.4123 28.554C58.062 29.2546 57.57 29.7997 56.9363 30.1894C56.3026 30.579 55.5607 30.7738 54.7106 30.7738ZM54.7165 29.292C55.2675 29.292 55.7241 29.1464 56.0862 28.8551C56.4483 28.5639 56.7159 28.1762 56.8891 27.6921C57.0662 27.208 57.1548 26.6747 57.1548 26.0922C57.1548 25.5136 57.0662 24.9822 56.8891 24.4981C56.7159 24.0101 56.4483 23.6185 56.0862 23.3233C55.7241 23.0281 55.2675 22.8805 54.7165 22.8805C54.1615 22.8805 53.701 23.0281 53.335 23.3233C52.9729 23.6185 52.7033 24.0101 52.5262 24.4981C52.353 24.9822 52.2664 25.5136 52.2664 26.0922C52.2664 26.6747 52.353 27.208 52.5262 27.6921C52.7033 28.1762 52.9729 28.5639 53.335 28.8551C53.701 29.1464 54.1615 29.292 54.7165 29.292ZM65.8968 26.8301V21.5226H67.6679V30.5908H65.9322V29.0204H65.8377C65.6291 29.5045 65.2946 29.908 64.8341 30.2307C64.3775 30.5495 63.8088 30.7089 63.1279 30.7089C62.5454 30.7089 62.0298 30.581 61.5811 30.3252C61.1363 30.0654 60.7861 29.6816 60.5302 29.1739C60.2783 28.6662 60.1524 28.0384 60.1524 27.2906V21.5226H61.9176V27.0781C61.9176 27.696 62.0888 28.188 62.4312 28.554C62.7737 28.9201 63.2184 29.1031 63.7655 29.1031C64.0961 29.1031 64.4247 29.0204 64.7514 28.8551C65.082 28.6898 65.3556 28.4399 65.572 28.1053C65.7925 27.7708 65.9007 27.3457 65.8968 26.8301ZM73.517 21.5226V22.9395H68.5638V21.5226H73.517ZM69.8921 19.3501H71.6573V27.9282C71.6573 28.2706 71.7085 28.5284 71.8108 28.7016C71.9132 28.8709 72.045 28.987 72.2064 29.0499C72.3717 29.109 72.5508 29.1385 72.7436 29.1385C72.8853 29.1385 73.0093 29.1287 73.1156 29.109C73.2218 29.0893 73.3045 29.0736 73.3635 29.0617L73.6823 30.52C73.58 30.5593 73.4344 30.5987 73.2455 30.6381C73.0565 30.6813 72.8204 30.705 72.537 30.7089C72.0726 30.7168 71.6396 30.6341 71.2382 30.4609C70.8367 30.2878 70.512 30.0201 70.2641 29.658C70.0161 29.2959 69.8921 28.8413 69.8921 28.2943V19.3501Z" fill="#101010"/>
<path d="M242.286 19.4899L247.387 24.5907L242.286 29.6916" stroke="#101010" stroke-width="1.51136" stroke-linecap="round" stroke-linejoin="round"/>
<path d="M13.1547 55.6362V46.8428H14.2195V50.7586H18.9082V46.8428H19.973V55.6362H18.9082V51.7033H14.2195V55.6362H13.1547ZM24.7978 55.7736C24.2024 55.7736 23.68 55.6319 23.2306 55.3486C22.784 55.0652 22.4348 54.6687 22.1829 54.1592C21.9339 53.6497 21.8094 53.0543 21.8094 52.3731C21.8094 51.6861 21.9339 51.0864 22.1829 50.574C22.4348 50.0616 22.784 49.6638 23.2306 49.3804C23.68 49.097 24.2024 48.9553 24.7978 48.9553C25.3931 48.9553 25.9141 49.097 26.3606 49.3804C26.81 49.6638 27.1593 50.0616 27.4083 50.574C27.6602 51.0864 27.7861 51.6861 27.7861 52.3731C27.7861 53.0543 27.6602 53.6497 27.4083 54.1592C27.1593 54.6687 26.81 55.0652 26.3606 55.3486C25.9141 55.6319 25.3931 55.7736 24.7978 55.7736ZM24.7978 54.8634C25.25 54.8634 25.6221 54.7474 25.9141 54.5156C26.2061 54.2837 26.4222 53.9789 26.5624 53.601C26.7027 53.2232 26.7728 52.8139 26.7728 52.3731C26.7728 51.9322 26.7027 51.5215 26.5624 51.1408C26.4222 50.7601 26.2061 50.4524 25.9141 50.2176C25.6221 49.9829 25.25 49.8656 24.7978 49.8656C24.3455 49.8656 23.9734 49.9829 23.6814 50.2176C23.3894 50.4524 23.1733 50.7601 23.0331 51.1408C22.8928 51.5215 22.8227 51.9322 22.8227 52.3731C22.8227 52.8139 22.8928 53.2232 23.0331 53.601C23.1733 53.9789 23.3894 54.2837 23.6814 54.5156C23.9734 54.7474 24.3455 54.8634 24.7978 54.8634ZM33.6403 52.9398V49.0412H34.6536V55.6362H33.6403V54.5199H33.5716C33.417 54.8548 33.1766 55.1396 32.8503 55.3743C32.524 55.6062 32.1118 55.7221 31.6137 55.7221C31.2015 55.7221 30.8351 55.6319 30.5145 55.4516C30.1939 55.2684 29.942 54.9936 29.7588 54.6272C29.5756 54.258 29.4841 53.7928 29.4841 53.2318V49.0412H30.4974V53.1631C30.4974 53.644 30.6319 54.0275 30.901 54.3138C31.1729 54.6 31.5192 54.7432 31.94 54.7432C32.1919 54.7432 32.4481 54.6787 32.7086 54.5499C32.9719 54.4211 33.1923 54.2236 33.3698 53.9574C33.5501 53.6912 33.6403 53.352 33.6403 52.9398ZM36.6607 55.6362V49.0412H37.6396V50.0373H37.7083C37.8285 49.711 38.0461 49.4462 38.3609 49.243C38.6758 49.0398 39.0308 48.9381 39.4258 48.9381C39.5002 48.9381 39.5932 48.9396 39.7049 48.9424C39.8165 48.9453 39.9009 48.9496 39.9582 48.9553V49.9858C39.9238 49.9772 39.8451 49.9643 39.722 49.9471C39.6018 49.9271 39.4744 49.9171 39.3399 49.9171C39.0193 49.9171 38.7331 49.9844 38.4812 50.1189C38.2321 50.2506 38.0346 50.4338 37.8886 50.6685C37.7455 50.9003 37.674 51.1651 37.674 51.4628V55.6362H36.6607ZM45.982 50.5182L45.0717 50.7758C45.0145 50.6241 44.93 50.4767 44.8184 50.3336C44.7096 50.1876 44.5608 50.0674 44.3718 49.9729C44.1829 49.8785 43.941 49.8312 43.6462 49.8312C43.2426 49.8312 42.9063 49.9242 42.6372 50.1103C42.371 50.2935 42.2379 50.5268 42.2379 50.8102C42.2379 51.0621 42.3295 51.261 42.5127 51.407C42.6959 51.553 42.9821 51.6746 43.3714 51.7719L44.3504 52.0124C44.94 52.1555 45.3794 52.3745 45.6685 52.6693C45.9576 52.9613 46.1022 53.3377 46.1022 53.7985C46.1022 54.1764 45.9934 54.5142 45.7759 54.8119C45.5612 55.1095 45.2606 55.3443 44.8742 55.516C44.4878 55.6878 44.0384 55.7736 43.526 55.7736C42.8533 55.7736 42.2966 55.6276 41.8558 55.3357C41.4149 55.0437 41.1359 54.6172 41.0185 54.0562L41.9803 53.8157C42.0719 54.1707 42.2451 54.4369 42.4998 54.6143C42.7574 54.7918 43.0938 54.8805 43.5088 54.8805C43.9811 54.8805 44.3561 54.7804 44.6338 54.58C44.9143 54.3768 45.0545 54.1335 45.0545 53.8501C45.0545 53.6211 44.9744 53.4293 44.8141 53.2747C44.6538 53.1173 44.4076 52.9999 44.0756 52.9226L42.9764 52.665C42.3724 52.5219 41.9288 52.3001 41.6454 51.9995C41.3649 51.6961 41.2246 51.3168 41.2246 50.8617C41.2246 50.4896 41.3291 50.1604 41.538 49.8742C41.7499 49.5879 42.0375 49.3632 42.4011 49.2001C42.7674 49.0369 43.1825 48.9553 43.6462 48.9553C44.2988 48.9553 44.8112 49.0984 45.1833 49.3847C45.5583 49.6709 45.8245 50.0488 45.982 50.5182ZM50.8872 46.4307L48.0534 56.9587H47.126L49.9598 46.4307H50.8872ZM58.2815 55.7736C57.732 55.7736 57.2468 55.6348 56.826 55.3571C56.4052 55.0766 56.076 54.6816 55.8385 54.1721C55.6009 53.6597 55.4821 53.0543 55.4821 52.3559C55.4821 51.6632 55.6009 51.0621 55.8385 50.5526C56.076 50.043 56.4066 49.6495 56.8303 49.3718C57.2539 49.0941 57.7434 48.9553 58.2987 48.9553C58.7281 48.9553 59.0673 49.0269 59.3163 49.17C59.5682 49.3103 59.76 49.4706 59.8917 49.6509C60.0262 49.8284 60.1307 49.9743 60.2051 50.0888H60.291V46.8428H61.3043V55.6362H60.3253V54.6229H60.2051C60.1307 54.7432 60.0248 54.8949 59.8874 55.0781C59.75 55.2584 59.5539 55.4201 59.2991 55.5632C59.0444 55.7035 58.7052 55.7736 58.2815 55.7736ZM58.4189 54.8634C58.8254 54.8634 59.1689 54.7575 59.4494 54.5456C59.7299 54.331 59.9432 54.0347 60.0892 53.6569C60.2351 53.2762 60.3081 52.8368 60.3081 52.3387C60.3081 51.8464 60.2366 51.4156 60.0935 51.0463C59.9503 50.6742 59.7385 50.3851 59.458 50.179C59.1775 49.97 58.8311 49.8656 58.4189 49.8656C57.9896 49.8656 57.6318 49.9758 57.3455 50.1962C57.0621 50.4137 56.8489 50.71 56.7058 51.085C56.5655 51.4571 56.4954 51.875 56.4954 52.3387C56.4954 52.8081 56.5669 53.2347 56.7101 53.6182C56.856 53.9989 57.0707 54.3023 57.3541 54.5285C57.6404 54.7517 57.9953 54.8634 58.4189 54.8634ZM65.3927 55.7908C64.9748 55.7908 64.5955 55.7121 64.2549 55.5547C63.9142 55.3944 63.6437 55.1639 63.4434 54.8634C63.243 54.56 63.1428 54.1936 63.1428 53.7642C63.1428 53.3864 63.2172 53.0801 63.3661 52.8454C63.5149 52.6078 63.7139 52.4217 63.9629 52.2872C64.2119 52.1527 64.4867 52.0525 64.7873 51.9866C65.0907 51.9179 65.3955 51.8635 65.7018 51.8235C66.1026 51.7719 66.4274 51.7333 66.6765 51.7075C66.9284 51.6789 67.1116 51.6317 67.2261 51.5659C67.3434 51.5 67.4021 51.3855 67.4021 51.2224V51.188C67.4021 50.7644 67.2862 50.4352 67.0543 50.2005C66.8253 49.9658 66.4775 49.8484 66.011 49.8484C65.5272 49.8484 65.1479 49.9543 64.8731 50.1661C64.5984 50.3779 64.4051 50.6041 64.2935 50.8445L63.3317 50.501C63.5035 50.1003 63.7325 49.7883 64.0187 49.565C64.3078 49.3389 64.6227 49.1814 64.9633 49.0927C65.3068 49.0011 65.6446 48.9553 65.9766 48.9553C66.1884 48.9553 66.4317 48.9811 66.7065 49.0326C66.9842 49.0813 67.2518 49.1829 67.5094 49.3375C67.7699 49.492 67.986 49.7253 68.1578 50.0373C68.3295 50.3493 68.4154 50.7672 68.4154 51.2911V55.6362H67.4021V54.7432H67.3506C67.2819 54.8863 67.1674 55.0394 67.0071 55.2026C66.8468 55.3657 66.6335 55.5046 66.3673 55.6191C66.1011 55.7336 65.7762 55.7908 65.3927 55.7908ZM65.5472 54.8805C65.948 54.8805 66.2858 54.8018 66.5605 54.6444C66.8382 54.487 67.0472 54.2837 67.1874 54.0347C67.3305 53.7857 67.4021 53.5238 67.4021 53.249V52.3215C67.3592 52.3731 67.2647 52.4203 67.1187 52.4632C66.9756 52.5033 66.8096 52.5391 66.6207 52.5706C66.4346 52.5992 66.2528 52.625 66.0754 52.6479C65.9008 52.6679 65.7591 52.6851 65.6503 52.6994C65.387 52.7337 65.1408 52.7895 64.9118 52.8668C64.6857 52.9413 64.5025 53.0543 64.3622 53.206C64.2248 53.3549 64.1561 53.5581 64.1561 53.8157C64.1561 54.1678 64.2863 54.434 64.5468 54.6143C64.8102 54.7918 65.1436 54.8805 65.5472 54.8805ZM70.8325 58.1094C70.6608 58.1094 70.5076 58.0951 70.3731 58.0664C70.2386 58.0407 70.1455 58.0149 70.094 57.9891L70.3516 57.0961C70.5978 57.159 70.8153 57.1819 71.0043 57.1648C71.1932 57.1476 71.3606 57.0632 71.5066 56.9114C71.6555 56.7626 71.7914 56.5207 71.9145 56.1858L72.1034 55.6706L69.6646 49.0412H70.7638L72.5843 54.2966H72.653L74.4735 49.0412H75.5727L72.7732 56.598C72.6473 56.9386 72.4913 57.2206 72.3052 57.4439C72.1192 57.67 71.9031 57.8374 71.6569 57.9462C71.4136 58.055 71.1388 58.1094 70.8325 58.1094Z" fill="#545C65"/>
<path d="M12.6684 86.2699V85.3307L15.9933 80.0785H16.7334V81.461H16.2638L13.8857 85.2255V85.2856H18.4428V86.2699H12.6684ZM16.3164 87.7727V85.9844L16.3239 85.5561V80.0785H17.4247V87.7727H16.3164Z" fill="#545C65"/>
<path d="M15.5087 119.014C14.9927 119.014 14.5319 118.925 14.1261 118.748C13.7229 118.57 13.4035 118.323 13.1681 118.007C12.9352 117.689 12.8099 117.321 12.7924 116.903H13.9721C13.9871 117.131 14.0635 117.329 14.2012 117.496C14.3415 117.662 14.5243 117.789 14.7498 117.88C14.9752 117.97 15.2256 118.015 15.5011 118.015C15.8042 118.015 16.0722 117.962 16.3051 117.857C16.5406 117.752 16.7247 117.605 16.8574 117.418C16.9901 117.227 17.0565 117.008 17.0565 116.76C17.0565 116.502 16.9901 116.275 16.8574 116.08C16.7272 115.882 16.5356 115.727 16.2826 115.614C16.0321 115.502 15.7291 115.445 15.3734 115.445H14.7235V114.498H15.3734C15.6589 114.498 15.9094 114.447 16.1248 114.344C16.3427 114.242 16.513 114.099 16.6357 113.916C16.7585 113.731 16.8198 113.514 16.8198 113.266C16.8198 113.028 16.766 112.822 16.6583 112.646C16.5531 112.468 16.4028 112.329 16.2075 112.229C16.0146 112.129 15.7867 112.079 15.5237 112.079C15.2732 112.079 15.039 112.125 14.8211 112.218C14.6057 112.308 14.4304 112.438 14.2952 112.609C14.1599 112.776 14.0873 112.978 14.0773 113.214H12.9539C12.9665 112.798 13.0892 112.432 13.3221 112.117C13.5576 111.801 13.8681 111.554 14.2538 111.376C14.6396 111.199 15.0678 111.11 15.5387 111.11C16.0321 111.11 16.4579 111.206 16.8161 111.399C17.1767 111.589 17.4548 111.844 17.6501 112.162C17.848 112.48 17.9457 112.828 17.9432 113.206C17.9457 113.637 17.8254 114.002 17.5825 114.303C17.342 114.604 17.0215 114.805 16.6207 114.908V114.968C17.1317 115.046 17.5274 115.249 17.8079 115.577C18.0909 115.905 18.2312 116.312 18.2287 116.798C18.2312 117.221 18.1135 117.6 17.8755 117.936C17.6401 118.272 17.3183 118.536 16.91 118.729C16.5017 118.919 16.0346 119.014 15.5087 119.014Z" fill="#545C65"/>
<path d="M12.83 150.045V149.204L15.4335 146.506C15.7115 146.213 15.9407 145.957 16.121 145.736C16.3039 145.513 16.4404 145.302 16.5305 145.101C16.6207 144.901 16.6658 144.688 16.6658 144.463C16.6658 144.207 16.6057 143.987 16.4855 143.801C16.3652 143.614 16.2012 143.47 15.9933 143.369C15.7854 143.267 15.5512 143.215 15.2908 143.215C15.0152 143.215 14.7748 143.272 14.5694 143.384C14.364 143.497 14.2063 143.656 14.0961 143.861C13.9858 144.067 13.9307 144.307 13.9307 144.583H12.8224C12.8224 144.114 12.9301 143.705 13.1455 143.354C13.3609 143.004 13.6565 142.732 14.0322 142.539C14.4079 142.344 14.8349 142.246 15.3133 142.246C15.7967 142.246 16.2225 142.342 16.5907 142.535C16.9613 142.726 17.2506 142.986 17.4585 143.317C17.6664 143.645 17.7703 144.016 17.7703 144.429C17.7703 144.714 17.7165 144.994 17.6088 145.267C17.5036 145.54 17.3195 145.844 17.0565 146.18C16.7935 146.513 16.4279 146.917 15.9595 147.393L14.4304 148.993V149.05H17.8943V150.045H12.83Z" fill="#545C65"/>
<path d="M15.7491 173.488V181.182H14.5845V174.652H14.5394L12.6985 175.854V174.742L14.6183 173.488H15.7491Z" fill="#545C65"/>
<rect x="31.1797" y="188.225" width="110.452" height="9.33398" rx="4.66699" transform="rotate(-90 31.1797 188.225)" fill="#E5E7EB"/>
<rect x="31.1797" y="188.225" width="44.1808" height="9.33398" rx="4.66699" transform="rotate(-90 31.1797 188.225)" fill="#AADC44"/>
<rect x="64.6953" y="188.225" width="110.452" height="9.33398" rx="4.66699" transform="rotate(-90 64.6953 188.225)" fill="#E5E7EB"/>
<rect x="64.6953" y="188.225" width="77.3165" height="9.33398" rx="4.66699" transform="rotate(-90 64.6953 188.225)" fill="#AADC44"/>
<rect x="98.2109" y="188.225" width="110.452" height="9.33398" rx="4.66699" transform="rotate(-90 98.2109 188.225)" fill="#E5E7EB"/>
<rect x="98.2109" y="188.225" width="55.226" height="9.33398" rx="4.66699" transform="rotate(-90 98.2109 188.225)" fill="#AADC44"/>
<rect x="131.727" y="188.225" width="110.452" height="9.33398" rx="4.66699" transform="rotate(-90 131.727 188.225)" fill="#E5E7EB"/>
<rect x="131.727" y="188.225" width="99.4069" height="9.33398" rx="4.66699" transform="rotate(-90 131.727 188.225)" fill="#AADC44"/>
<rect x="165.242" y="188.225" width="110.452" height="9.33398" rx="4.66699" transform="rotate(-90 165.242 188.225)" fill="#E5E7EB"/>
<rect x="165.242" y="188.225" width="77.3165" height="9.33398" rx="4.66699" transform="rotate(-90 165.242 188.225)" fill="#AADC44"/>
<rect x="198.758" y="188.225" width="110.452" height="9.33398" rx="4.66699" transform="rotate(-90 198.758 188.225)" fill="#E5E7EB"/>
<rect x="198.758" y="188.225" width="11.0452" height="9.33398" rx="4.66699" transform="rotate(-90 198.758 188.225)" fill="#AADC44"/>
<rect x="232.273" y="188.225" width="110.452" height="9.33398" rx="4.66699" transform="rotate(-90 232.273 188.225)" fill="#E5E7EB"/>
<rect x="232.273" y="188.225" width="22.0904" height="9.33398" rx="4.66699" transform="rotate(-90 232.273 188.225)" fill="#AADC44"/>
<path d="M26.49 198.186H27.4432L29.6845 203.661H29.7618L32.0031 198.186H32.9563V204.781H32.2092V199.771H32.1448L30.0838 204.781H29.3625L27.3015 199.771H27.2371V204.781H26.49V198.186ZM36.4639 204.885C36.0174 204.885 35.6256 204.778 35.2885 204.566C34.9536 204.353 34.6917 204.056 34.5028 203.674C34.316 203.292 34.2226 202.845 34.2226 202.334C34.2226 201.819 34.316 201.369 34.5028 200.985C34.6917 200.601 34.9536 200.302 35.2885 200.09C35.6256 199.877 36.0174 199.771 36.4639 199.771C36.9104 199.771 37.3012 199.877 37.6361 200.09C37.9731 200.302 38.235 200.601 38.4218 200.985C38.6107 201.369 38.7052 201.819 38.7052 202.334C38.7052 202.845 38.6107 203.292 38.4218 203.674C38.235 204.056 37.9731 204.353 37.6361 204.566C37.3012 204.778 36.9104 204.885 36.4639 204.885ZM36.4639 204.202C36.8031 204.202 37.0822 204.115 37.3012 203.941C37.5201 203.767 37.6822 203.538 37.7874 203.255C37.8926 202.972 37.9452 202.665 37.9452 202.334C37.9452 202.004 37.8926 201.695 37.7874 201.41C37.6822 201.124 37.5201 200.894 37.3012 200.718C37.0822 200.542 36.8031 200.453 36.4639 200.453C36.1247 200.453 35.8456 200.542 35.6266 200.718C35.4077 200.894 35.2456 201.124 35.1404 201.41C35.0352 201.695 34.9826 202.004 34.9826 202.334C34.9826 202.665 35.0352 202.972 35.1404 203.255C35.2456 203.538 35.4077 203.767 35.6266 203.941C35.8456 204.115 36.1247 204.202 36.4639 204.202ZM40.6252 201.806V204.781H39.8653V199.835H40.5995V200.608H40.6639C40.7798 200.357 40.9559 200.155 41.192 200.003C41.4282 199.848 41.733 199.771 42.1066 199.771C42.4415 199.771 42.7345 199.84 42.9857 199.977C43.2369 200.112 43.4322 200.318 43.5718 200.595C43.7113 200.87 43.7811 201.218 43.7811 201.639V204.781H43.0211V201.69C43.0211 201.301 42.9202 200.999 42.7184 200.782C42.5166 200.563 42.2397 200.453 41.8876 200.453C41.645 200.453 41.4282 200.506 41.2371 200.611C41.0482 200.716 40.899 200.87 40.7895 201.072C40.68 201.274 40.6252 201.518 40.6252 201.806Z" fill="#545C65"/>
<path d="M63.42 198.895V198.186H68.3663V198.895H66.2924V204.781H65.4938V198.895H63.42ZM71.9399 202.759V199.835H72.6999V204.781H71.9399V203.944H71.8884C71.7725 204.195 71.5921 204.409 71.3474 204.585C71.1027 204.759 70.7935 204.846 70.42 204.846C70.1108 204.846 69.836 204.778 69.5956 204.643C69.3551 204.506 69.1662 204.3 69.0288 204.025C68.8914 203.748 68.8227 203.399 68.8227 202.978V199.835H69.5827V202.927C69.5827 203.287 69.6836 203.575 69.8854 203.79C70.0893 204.004 70.3491 204.112 70.6647 204.112C70.8536 204.112 71.0458 204.063 71.2411 203.967C71.4386 203.87 71.6039 203.722 71.737 203.522C71.8723 203.323 71.9399 203.068 71.9399 202.759ZM76.1657 204.885C75.6891 204.885 75.278 204.779 74.9323 204.569C74.5888 204.356 74.3237 204.06 74.1369 203.68C73.9523 203.298 73.86 202.854 73.86 202.347C73.86 201.84 73.9523 201.394 74.1369 201.007C74.3237 200.619 74.5835 200.316 74.9162 200.099C75.2511 199.88 75.6418 199.771 76.0884 199.771C76.346 199.771 76.6004 199.814 76.8516 199.9C77.1028 199.985 77.3314 200.125 77.5375 200.318C77.7436 200.509 77.9078 200.763 78.0302 201.078C78.1525 201.394 78.2137 201.782 78.2137 202.244V202.566H74.401V201.909H77.4409C77.4409 201.63 77.3851 201.381 77.2734 201.162C77.1639 200.943 77.0072 200.77 76.8033 200.643C76.6015 200.517 76.3632 200.453 76.0884 200.453C75.7857 200.453 75.5238 200.529 75.3026 200.679C75.0837 200.827 74.9151 201.02 74.7971 201.259C74.679 201.497 74.62 201.752 74.62 202.025V202.463C74.62 202.836 74.6844 203.153 74.8132 203.413C74.9441 203.671 75.1255 203.867 75.3574 204.002C75.5892 204.135 75.8587 204.202 76.1657 204.202C76.3653 204.202 76.5457 204.174 76.7067 204.118C76.8698 204.06 77.0104 203.974 77.1285 203.861C77.2466 203.745 77.3378 203.601 77.4022 203.429L78.1364 203.635C78.0592 203.884 77.9293 204.103 77.7468 204.292C77.5643 204.479 77.3389 204.625 77.0706 204.73C76.8022 204.833 76.5006 204.885 76.1657 204.885Z" fill="#545C65"/>
<path d="M99.4327 204.781L97.6294 198.186H98.4409L99.8191 203.558H99.8835L101.288 198.186H102.189L103.593 203.558H103.658L105.036 198.186H105.847L104.044 204.781H103.22L101.764 199.526H101.713L100.257 204.781H99.4327ZM108.353 204.885C107.876 204.885 107.465 204.779 107.119 204.569C106.776 204.356 106.511 204.06 106.324 203.68C106.139 203.298 106.047 202.854 106.047 202.347C106.047 201.84 106.139 201.394 106.324 201.007C106.511 200.619 106.771 200.316 107.103 200.099C107.438 199.88 107.829 199.771 108.275 199.771C108.533 199.771 108.787 199.814 109.039 199.9C109.29 199.985 109.518 200.125 109.725 200.318C109.931 200.509 110.095 200.763 110.217 201.078C110.34 201.394 110.401 201.782 110.401 202.244V202.566H106.588V201.909H109.628C109.628 201.63 109.572 201.381 109.461 201.162C109.351 200.943 109.194 200.77 108.99 200.643C108.789 200.517 108.55 200.453 108.275 200.453C107.973 200.453 107.711 200.529 107.49 200.679C107.271 200.827 107.102 201.02 106.984 201.259C106.866 201.497 106.807 201.752 106.807 202.025V202.463C106.807 202.836 106.871 203.153 107 203.413C107.131 203.671 107.313 203.867 107.544 204.002C107.776 204.135 108.046 204.202 108.353 204.202C108.552 204.202 108.733 204.174 108.894 204.118C109.057 204.06 109.198 203.974 109.316 203.861C109.434 203.745 109.525 203.601 109.589 203.429L110.324 203.635C110.246 203.884 110.116 204.103 109.934 204.292C109.751 204.479 109.526 204.625 109.258 204.73C108.989 204.833 108.688 204.885 108.353 204.885ZM113.425 204.885C113.012 204.885 112.649 204.78 112.333 204.572C112.017 204.362 111.771 204.066 111.592 203.683C111.414 203.299 111.325 202.845 111.325 202.321C111.325 201.802 111.414 201.351 111.592 200.969C111.771 200.587 112.018 200.291 112.336 200.083C112.654 199.875 113.021 199.771 113.438 199.771C113.76 199.771 114.014 199.824 114.201 199.932C114.39 200.037 114.533 200.157 114.632 200.292C114.733 200.426 114.811 200.535 114.867 200.621H114.932V198.186H115.692V204.781H114.957V204.022H114.867C114.811 204.112 114.732 204.225 114.629 204.363C114.526 204.498 114.379 204.619 114.188 204.727C113.997 204.832 113.742 204.885 113.425 204.885ZM113.528 204.202C113.833 204.202 114.09 204.122 114.301 203.964C114.511 203.803 114.671 203.58 114.78 203.297C114.89 203.011 114.945 202.682 114.945 202.308C114.945 201.939 114.891 201.616 114.784 201.339C114.676 201.06 114.517 200.843 114.307 200.689C114.097 200.532 113.837 200.453 113.528 200.453C113.206 200.453 112.937 200.536 112.723 200.701C112.51 200.865 112.35 201.087 112.243 201.368C112.138 201.647 112.085 201.961 112.085 202.308C112.085 202.66 112.139 202.98 112.246 203.268C112.356 203.554 112.517 203.781 112.729 203.951C112.944 204.118 113.21 204.202 113.528 204.202Z" fill="#545C65"/>
<path d="M135.817 198.895V198.186H140.763V198.895H138.689V204.781H137.891V198.895H135.817ZM142.653 201.806V204.781H141.893V198.186H142.653V200.608H142.717C142.833 200.353 143.007 200.15 143.239 199.999C143.473 199.847 143.784 199.771 144.173 199.771C144.51 199.771 144.805 199.838 145.058 199.974C145.312 200.107 145.508 200.312 145.648 200.589C145.789 200.864 145.86 201.213 145.86 201.639V204.781H145.1V201.69C145.1 201.297 144.998 200.993 144.794 200.779C144.592 200.562 144.312 200.453 143.954 200.453C143.705 200.453 143.481 200.506 143.284 200.611C143.089 200.716 142.934 200.87 142.82 201.072C142.709 201.274 142.653 201.518 142.653 201.806ZM150.368 202.759V199.835H151.128V204.781H150.368V203.944H150.316C150.2 204.195 150.02 204.409 149.775 204.585C149.53 204.759 149.221 204.846 148.848 204.846C148.539 204.846 148.264 204.778 148.023 204.643C147.783 204.506 147.594 204.3 147.457 204.025C147.319 203.748 147.25 203.399 147.25 202.978V199.835H148.01V202.927C148.01 203.287 148.111 203.575 148.313 203.79C148.517 204.004 148.777 204.112 149.092 204.112C149.281 204.112 149.474 204.063 149.669 203.967C149.866 203.87 150.032 203.722 150.165 203.522C150.3 203.323 150.368 203.068 150.368 202.759Z" fill="#545C65"/>
<path d="M171.139 204.781V198.186H175.094V198.895H171.938V201.123H174.798V201.832H171.938V204.781H171.139ZM176.305 204.781V199.835H177.04V200.582H177.091C177.181 200.338 177.345 200.139 177.581 199.987C177.817 199.834 178.083 199.758 178.379 199.758C178.435 199.758 178.505 199.759 178.589 199.761C178.672 199.763 178.736 199.767 178.779 199.771V200.544C178.753 200.537 178.694 200.528 178.601 200.515C178.511 200.5 178.416 200.492 178.315 200.492C178.074 200.492 177.86 200.543 177.671 200.643C177.484 200.742 177.336 200.88 177.226 201.056C177.119 201.23 177.065 201.428 177.065 201.651V204.781H176.305ZM179.679 204.781V199.835H180.439V204.781H179.679ZM180.066 199.011C179.918 199.011 179.79 198.96 179.683 198.859C179.577 198.759 179.525 198.637 179.525 198.496C179.525 198.354 179.577 198.233 179.683 198.132C179.79 198.031 179.918 197.98 180.066 197.98C180.214 197.98 180.341 198.031 180.446 198.132C180.553 198.233 180.607 198.354 180.607 198.496C180.607 198.637 180.553 198.759 180.446 198.859C180.341 198.96 180.214 199.011 180.066 199.011Z" fill="#545C65"/>
<path d="M204.187 199.835C204.148 199.509 203.992 199.256 203.717 199.075C203.442 198.895 203.105 198.805 202.706 198.805C202.414 198.805 202.158 198.852 201.939 198.946C201.722 199.041 201.553 199.171 201.43 199.336C201.31 199.501 201.25 199.689 201.25 199.9C201.25 200.076 201.292 200.227 201.376 200.354C201.462 200.478 201.571 200.582 201.704 200.666C201.837 200.748 201.977 200.815 202.123 200.869C202.269 200.92 202.403 200.962 202.525 200.994L203.195 201.175C203.367 201.22 203.558 201.282 203.768 201.362C203.981 201.441 204.184 201.549 204.377 201.687C204.572 201.822 204.733 201.996 204.86 202.209C204.987 202.421 205.05 202.682 205.05 202.991C205.05 203.347 204.957 203.669 204.77 203.957C204.585 204.245 204.315 204.473 203.958 204.643C203.604 204.813 203.174 204.897 202.667 204.897C202.195 204.897 201.786 204.821 201.44 204.669C201.097 204.516 200.826 204.304 200.629 204.031C200.433 203.759 200.323 203.442 200.297 203.081H201.121C201.143 203.33 201.226 203.536 201.372 203.699C201.521 203.861 201.707 203.981 201.933 204.06C202.16 204.137 202.405 204.176 202.667 204.176C202.972 204.176 203.246 204.127 203.488 204.028C203.731 203.927 203.923 203.788 204.065 203.609C204.206 203.429 204.277 203.219 204.277 202.978C204.277 202.759 204.216 202.581 204.094 202.444C203.971 202.306 203.81 202.195 203.61 202.109C203.411 202.023 203.195 201.948 202.963 201.883L202.152 201.651C201.636 201.503 201.229 201.292 200.928 201.017C200.627 200.742 200.477 200.383 200.477 199.938C200.477 199.569 200.577 199.247 200.777 198.972C200.978 198.695 201.249 198.481 201.588 198.328C201.93 198.174 202.311 198.096 202.731 198.096C203.156 198.096 203.534 198.172 203.865 198.325C204.195 198.475 204.457 198.681 204.651 198.943C204.846 199.205 204.949 199.502 204.96 199.835H204.187ZM207.715 204.897C207.402 204.897 207.118 204.838 206.862 204.72C206.607 204.6 206.404 204.427 206.253 204.202C206.103 203.974 206.028 203.699 206.028 203.377C206.028 203.094 206.084 202.864 206.196 202.688C206.307 202.51 206.456 202.371 206.643 202.27C206.83 202.169 207.036 202.094 207.261 202.044C207.489 201.993 207.718 201.952 207.947 201.922C208.248 201.883 208.492 201.854 208.678 201.835C208.867 201.814 209.005 201.778 209.091 201.729C209.179 201.679 209.223 201.593 209.223 201.471V201.445C209.223 201.128 209.136 200.881 208.962 200.705C208.79 200.529 208.529 200.441 208.179 200.441C207.816 200.441 207.532 200.52 207.326 200.679C207.12 200.838 206.975 201.007 206.891 201.188L206.17 200.93C206.299 200.63 206.47 200.396 206.685 200.228C206.902 200.058 207.138 199.94 207.393 199.874C207.651 199.805 207.904 199.771 208.153 199.771C208.312 199.771 208.495 199.79 208.701 199.829C208.909 199.865 209.11 199.941 209.303 200.057C209.498 200.173 209.661 200.348 209.789 200.582C209.918 200.816 209.983 201.13 209.983 201.523V204.781H209.223V204.112H209.184C209.132 204.219 209.047 204.334 208.926 204.456C208.806 204.579 208.646 204.683 208.446 204.769C208.247 204.854 208.003 204.897 207.715 204.897ZM207.831 204.215C208.132 204.215 208.385 204.156 208.591 204.038C208.8 203.92 208.956 203.767 209.062 203.58C209.169 203.394 209.223 203.197 209.223 202.991V202.295C209.19 202.334 209.12 202.37 209.01 202.402C208.903 202.432 208.778 202.459 208.636 202.482C208.497 202.504 208.361 202.523 208.227 202.54C208.097 202.555 207.99 202.568 207.909 202.579C207.711 202.605 207.527 202.646 207.355 202.704C207.185 202.76 207.048 202.845 206.943 202.959C206.84 203.07 206.788 203.223 206.788 203.416C206.788 203.68 206.886 203.88 207.081 204.015C207.279 204.148 207.529 204.215 207.831 204.215ZM213.521 199.835V200.479H210.957V199.835H213.521ZM211.705 198.65H212.465V203.365C212.465 203.579 212.496 203.74 212.558 203.848C212.622 203.953 212.704 204.024 212.803 204.06C212.904 204.095 213.01 204.112 213.121 204.112C213.205 204.112 213.274 204.107 213.328 204.099C213.381 204.088 213.424 204.079 213.456 204.073L213.611 204.756C213.559 204.775 213.487 204.794 213.395 204.814C213.303 204.835 213.186 204.846 213.044 204.846C212.829 204.846 212.619 204.8 212.413 204.707C212.209 204.615 212.039 204.474 211.904 204.286C211.771 204.097 211.705 203.858 211.705 203.571V198.65Z" fill="#545C65"/>
<path d="M237.557 199.835C237.518 199.509 237.361 199.256 237.087 199.075C236.812 198.895 236.475 198.805 236.075 198.805C235.783 198.805 235.528 198.852 235.309 198.946C235.092 199.041 234.923 199.171 234.8 199.336C234.68 199.501 234.62 199.689 234.62 199.9C234.62 200.076 234.662 200.227 234.745 200.354C234.831 200.478 234.941 200.582 235.074 200.666C235.207 200.748 235.347 200.815 235.493 200.869C235.639 200.92 235.773 200.962 235.895 200.994L236.565 201.175C236.737 201.22 236.928 201.282 237.138 201.362C237.351 201.441 237.553 201.549 237.747 201.687C237.942 201.822 238.103 201.996 238.23 202.209C238.356 202.421 238.42 202.682 238.42 202.991C238.42 203.347 238.326 203.669 238.14 203.957C237.955 204.245 237.684 204.473 237.328 204.643C236.974 204.813 236.543 204.897 236.037 204.897C235.564 204.897 235.155 204.821 234.81 204.669C234.466 204.516 234.196 204.304 233.998 204.031C233.803 203.759 233.692 203.442 233.667 203.081H234.491C234.513 203.33 234.596 203.536 234.742 203.699C234.89 203.861 235.077 203.981 235.303 204.06C235.53 204.137 235.775 204.176 236.037 204.176C236.342 204.176 236.615 204.127 236.858 204.028C237.101 203.927 237.293 203.788 237.434 203.609C237.576 203.429 237.647 203.219 237.647 202.978C237.647 202.759 237.586 202.581 237.463 202.444C237.341 202.306 237.18 202.195 236.98 202.109C236.781 202.023 236.565 201.948 236.333 201.883L235.522 201.651C235.006 201.503 234.598 201.292 234.298 201.017C233.997 200.742 233.847 200.383 233.847 199.938C233.847 199.569 233.947 199.247 234.146 198.972C234.348 198.695 234.619 198.481 234.958 198.328C235.299 198.174 235.68 198.096 236.101 198.096C236.526 198.096 236.904 198.172 237.235 198.325C237.565 198.475 237.827 198.681 238.02 198.943C238.216 199.205 238.319 199.502 238.33 199.835H237.557ZM242.747 202.759V199.835H243.507V204.781H242.747V203.944H242.695C242.579 204.195 242.399 204.409 242.154 204.585C241.91 204.759 241.601 204.846 241.227 204.846C240.918 204.846 240.643 204.778 240.403 204.643C240.162 204.506 239.973 204.3 239.836 204.025C239.698 203.748 239.63 203.399 239.63 202.978V199.835H240.39V202.927C240.39 203.287 240.491 203.575 240.692 203.79C240.896 204.004 241.156 204.112 241.472 204.112C241.661 204.112 241.853 204.063 242.048 203.967C242.246 203.87 242.411 203.722 242.544 203.522C242.679 203.323 242.747 203.068 242.747 202.759ZM245.659 201.806V204.781H244.899V199.835H245.633V200.608H245.697C245.813 200.357 245.989 200.155 246.226 200.003C246.462 199.848 246.767 199.771 247.14 199.771C247.475 199.771 247.768 199.84 248.019 199.977C248.27 200.112 248.466 200.318 248.605 200.595C248.745 200.87 248.815 201.218 248.815 201.639V204.781H248.055V201.69C248.055 201.301 247.954 200.999 247.752 200.782C247.55 200.563 247.273 200.453 246.921 200.453C246.679 200.453 246.462 200.506 246.271 200.611C246.082 200.716 245.933 200.87 245.823 201.072C245.714 201.274 245.659 201.518 245.659 201.806Z" fill="#545C65"/>
<rect x="0.5" y="227.372" width="265" height="44.8163" rx="9.90816" fill="white"/>
<rect x="0.5" y="227.372" width="265" height="44.8163" rx="9.90816" stroke="#E5E7EB"/>
<g filter="url(#filter0_d_17769_50434)">
<path d="M26.463 252.229C26.463 255.127 24.1106 257.48 21.212 257.48C18.3134 257.48 15.9609 255.127 15.9609 252.229C15.9609 249.33 18.3134 246.978 21.212 246.978C24.1106 246.978 26.463 249.33 26.463 252.229Z" stroke="#193BFF" stroke-width="1.35027" stroke-linecap="round" stroke-linejoin="round"/>
<path d="M21.2109 249.078V252.079" stroke="#193BFF" stroke-width="1.35027" stroke-linecap="round" stroke-linejoin="round"/>
<path d="M19.4102 245.477H23.0109" stroke="#193BFF" stroke-width="1.35027" stroke-miterlimit="10" stroke-linecap="round" stroke-linejoin="round"/>
</g>
<path d="M43.185 256.478H40.2179V247.313H43.279C44.1771 247.313 44.9483 247.496 45.5927 247.863C46.2372 248.227 46.731 248.751 47.0741 249.434C47.4202 250.114 47.5932 250.93 47.5932 251.882C47.5932 252.837 47.4187 253.657 47.0696 254.344C46.7235 255.03 46.2223 255.558 45.5659 255.928C44.9095 256.295 44.1159 256.478 43.185 256.478ZM41.6008 255.27H43.1089C43.8071 255.27 44.3874 255.139 44.8498 254.876C45.3123 254.611 45.6584 254.227 45.8881 253.726C46.1178 253.222 46.2327 252.607 46.2327 251.882C46.2327 251.163 46.1178 250.553 45.8881 250.052C45.6614 249.551 45.3227 249.17 44.8722 248.911C44.4217 248.651 43.8623 248.521 43.194 248.521H41.6008V255.27ZM53.5599 253.628V249.604H54.9025V256.478H53.5868V255.288H53.5152C53.3571 255.655 53.1034 255.961 52.7544 256.205C52.4083 256.447 51.9772 256.568 51.461 256.568C51.0194 256.568 50.6286 256.471 50.2885 256.277C49.9513 256.08 49.6858 255.789 49.4919 255.404C49.3009 255.019 49.2054 254.544 49.2054 253.977V249.604H50.5436V253.816C50.5436 254.284 50.6734 254.657 50.9329 254.934C51.1925 255.212 51.5296 255.351 51.9443 255.351C52.195 255.351 52.4441 255.288 52.6917 255.163C52.9423 255.037 53.1497 254.848 53.3138 254.594C53.4809 254.341 53.5629 254.018 53.5599 253.628ZM56.7005 256.478V249.604H57.9939V250.696H58.0655C58.1908 250.326 58.4116 250.035 58.7278 249.824C59.047 249.609 59.4081 249.501 59.8108 249.501C59.8944 249.501 59.9928 249.504 60.1062 249.51C60.2226 249.516 60.3136 249.524 60.3792 249.533V250.813C60.3255 250.798 60.23 250.781 60.0928 250.763C59.9555 250.743 59.8183 250.732 59.6811 250.732C59.3648 250.732 59.0829 250.799 58.8352 250.933C58.5906 251.065 58.3966 251.248 58.2534 251.484C58.1102 251.717 58.0386 251.982 58.0386 252.281V256.478H56.7005ZM63.4761 256.631C63.0405 256.631 62.6467 256.55 62.2946 256.389C61.9426 256.225 61.6636 255.988 61.4578 255.677C61.2549 255.367 61.1534 254.987 61.1534 254.536C61.1534 254.148 61.228 253.829 61.3772 253.578C61.5264 253.328 61.7278 253.129 61.9814 252.983C62.235 252.837 62.5184 252.727 62.8317 252.652C63.1449 252.577 63.4642 252.521 63.7894 252.482C64.2011 252.434 64.5353 252.395 64.7919 252.366C65.0485 252.333 65.2349 252.281 65.3513 252.209C65.4676 252.137 65.5258 252.021 65.5258 251.86V251.829C65.5258 251.438 65.4154 251.135 65.1946 250.92C64.9768 250.705 64.6516 250.598 64.219 250.598C63.7685 250.598 63.4135 250.698 63.1539 250.898C62.8973 251.095 62.7198 251.314 62.6213 251.556L61.3638 251.269C61.5129 250.851 61.7307 250.514 62.0172 250.258C62.3066 249.998 62.6392 249.81 63.0152 249.694C63.3911 249.574 63.7864 249.515 64.2011 249.515C64.4756 249.515 64.7665 249.548 65.0738 249.613C65.3841 249.676 65.6735 249.792 65.942 249.962C66.2135 250.132 66.4358 250.376 66.6088 250.692C66.7819 251.005 66.8684 251.412 66.8684 251.914V256.478H65.5616V255.539H65.5079C65.4214 255.712 65.2916 255.882 65.1186 256.049C64.9455 256.216 64.7232 256.355 64.4517 256.465C64.1802 256.575 63.855 256.631 63.4761 256.631ZM63.767 255.556C64.137 255.556 64.4532 255.483 64.7158 255.337C64.9813 255.191 65.1827 255 65.32 254.764C65.4602 254.526 65.5303 254.271 65.5303 253.999V253.113C65.4826 253.161 65.3901 253.205 65.2528 253.247C65.1186 253.286 64.9649 253.32 64.7919 253.35C64.6188 253.377 64.4503 253.402 64.2862 253.426C64.1221 253.447 63.9848 253.465 63.8744 253.48C63.6149 253.513 63.3777 253.568 63.1628 253.646C62.951 253.723 62.781 253.835 62.6527 253.981C62.5274 254.124 62.4647 254.315 62.4647 254.554C62.4647 254.885 62.587 255.136 62.8317 255.306C63.0763 255.473 63.3881 255.556 63.767 255.556ZM71.8595 249.604V250.678H68.1047V249.604H71.8595ZM69.1117 247.957H70.4498V254.46C70.4498 254.72 70.4886 254.915 70.5661 255.046C70.6437 255.175 70.7437 255.263 70.866 255.31C70.9913 255.355 71.1271 255.377 71.2732 255.377C71.3807 255.377 71.4746 255.37 71.5552 255.355C71.6357 255.34 71.6984 255.328 71.7432 255.319L71.9848 256.425C71.9073 256.455 71.7969 256.484 71.6537 256.514C71.5104 256.547 71.3314 256.565 71.1166 256.568C70.7646 256.574 70.4364 256.511 70.132 256.38C69.8277 256.249 69.5816 256.046 69.3936 255.771C69.2057 255.497 69.1117 255.152 69.1117 254.737V247.957ZM73.3397 256.478V249.604H74.6778V256.478H73.3397ZM74.0155 248.544C73.7828 248.544 73.5829 248.466 73.4158 248.311C73.2517 248.153 73.1697 247.965 73.1697 247.747C73.1697 247.526 73.2517 247.338 73.4158 247.183C73.5829 247.025 73.7828 246.946 74.0155 246.946C74.2482 246.946 74.4466 247.025 74.6107 247.183C74.7778 247.338 74.8613 247.526 74.8613 247.747C74.8613 247.965 74.7778 248.153 74.6107 248.311C74.4466 248.466 74.2482 248.544 74.0155 248.544ZM79.3736 256.617C78.7291 256.617 78.1667 256.469 77.6864 256.174C77.206 255.879 76.8331 255.465 76.5676 254.934C76.302 254.403 76.1692 253.783 76.1692 253.073C76.1692 252.36 76.302 251.736 76.5676 251.202C76.8331 250.668 77.206 250.253 77.6864 249.958C78.1667 249.662 78.7291 249.515 79.3736 249.515C80.018 249.515 80.5804 249.662 81.0608 249.958C81.5411 250.253 81.9141 250.668 82.1796 251.202C82.4451 251.736 82.5779 252.36 82.5779 253.073C82.5779 253.783 82.4451 254.403 82.1796 254.934C81.9141 255.465 81.5411 255.879 81.0608 256.174C80.5804 256.469 80.018 256.617 79.3736 256.617ZM79.3781 255.494C79.7957 255.494 80.1418 255.383 80.4163 255.163C80.6908 254.942 80.8937 254.648 81.025 254.281C81.1592 253.914 81.2264 253.51 81.2264 253.068C81.2264 252.63 81.1592 252.227 81.025 251.86C80.8937 251.49 80.6908 251.193 80.4163 250.969C80.1418 250.746 79.7957 250.634 79.3781 250.634C78.9574 250.634 78.6083 250.746 78.3308 250.969C78.0563 251.193 77.852 251.49 77.7177 251.86C77.5864 252.227 77.5208 252.63 77.5208 253.068C77.5208 253.51 77.5864 253.914 77.7177 254.281C77.852 254.648 78.0563 254.942 78.3308 255.163C78.6083 255.383 78.9574 255.494 79.3781 255.494ZM85.4097 252.397V256.478H84.0715V249.604H85.356V250.723H85.441C85.5991 250.359 85.8468 250.067 86.1839 249.846C86.524 249.625 86.9522 249.515 87.4683 249.515C87.9367 249.515 88.347 249.613 88.699 249.81C89.0511 250.004 89.3241 250.294 89.518 250.678C89.7119 251.063 89.8089 251.539 89.8089 252.106V256.478H88.4708V252.267C88.4708 251.769 88.341 251.38 88.0814 251.099C87.8219 250.816 87.4653 250.674 87.0118 250.674C86.7015 250.674 86.4256 250.741 86.1839 250.875C85.9452 251.01 85.7558 251.206 85.6155 251.466C85.4783 251.723 85.4097 252.033 85.4097 252.397Z" fill="#545C65"/>
<path d="M159.453 241.064V251.281H157.906V242.61H157.846L155.402 244.207V242.73L157.951 241.064H159.453ZM165.589 251.42C164.964 251.42 164.402 251.301 163.903 251.061C163.407 250.818 163.011 250.486 162.715 250.063C162.419 249.641 162.261 249.159 162.241 248.617H163.738C163.775 249.056 163.969 249.417 164.322 249.699C164.674 249.982 165.097 250.123 165.589 250.123C165.981 250.123 166.329 250.033 166.632 249.854C166.938 249.671 167.177 249.42 167.35 249.101C167.526 248.781 167.614 248.417 167.614 248.008C167.614 247.592 167.525 247.221 167.345 246.896C167.165 246.57 166.918 246.314 166.602 246.127C166.289 245.941 165.93 245.846 165.524 245.843C165.215 245.843 164.904 245.896 164.591 246.003C164.279 246.109 164.026 246.249 163.833 246.422L162.421 246.212L162.995 241.064H168.612V242.386H164.277L163.953 245.244H164.012C164.212 245.051 164.476 244.89 164.806 244.76C165.138 244.631 165.494 244.566 165.873 244.566C166.495 244.566 167.049 244.714 167.535 245.01C168.023 245.306 168.408 245.71 168.687 246.222C168.97 246.731 169.109 247.316 169.106 247.978C169.109 248.64 168.96 249.23 168.657 249.749C168.358 250.268 167.942 250.677 167.41 250.976C166.881 251.272 166.274 251.42 165.589 251.42ZM175.463 245.524V246.821H170.933V245.524H175.463ZM180.851 251.42C180.166 251.42 179.554 251.302 179.015 251.066C178.479 250.83 178.055 250.502 177.743 250.083C177.433 249.661 177.267 249.172 177.244 248.617H178.81C178.83 248.919 178.932 249.182 179.115 249.405C179.301 249.624 179.544 249.794 179.843 249.914C180.142 250.033 180.475 250.093 180.841 250.093C181.243 250.093 181.599 250.023 181.908 249.884C182.221 249.744 182.465 249.55 182.642 249.3C182.818 249.047 182.906 248.756 182.906 248.427C182.906 248.085 182.818 247.784 182.642 247.524C182.469 247.261 182.214 247.055 181.878 246.906C181.546 246.756 181.143 246.681 180.671 246.681H179.808V245.424H180.671C181.05 245.424 181.383 245.356 181.669 245.219C181.958 245.083 182.184 244.893 182.347 244.651C182.51 244.405 182.592 244.117 182.592 243.788C182.592 243.472 182.52 243.197 182.377 242.964C182.238 242.728 182.038 242.544 181.779 242.411C181.522 242.278 181.22 242.211 180.871 242.211C180.538 242.211 180.227 242.273 179.938 242.396C179.652 242.515 179.419 242.688 179.239 242.915C179.06 243.137 178.963 243.405 178.95 243.718H177.458C177.475 243.166 177.638 242.68 177.947 242.261C178.26 241.842 178.672 241.514 179.184 241.278C179.697 241.042 180.265 240.924 180.891 240.924C181.546 240.924 182.111 241.052 182.587 241.308C183.066 241.561 183.435 241.899 183.694 242.321C183.957 242.743 184.087 243.206 184.083 243.708C184.087 244.28 183.927 244.765 183.604 245.164C183.285 245.564 182.859 245.831 182.327 245.968V246.047C183.006 246.151 183.531 246.42 183.904 246.856C184.28 247.291 184.466 247.832 184.462 248.477C184.466 249.039 184.31 249.543 183.994 249.989C183.681 250.434 183.254 250.785 182.711 251.041C182.169 251.294 181.549 251.42 180.851 251.42ZM189.905 251.45C189.117 251.447 188.443 251.239 187.885 250.827C187.326 250.414 186.899 249.814 186.603 249.026C186.307 248.238 186.159 247.288 186.159 246.177C186.159 245.07 186.307 244.123 186.603 243.339C186.902 242.554 187.331 241.955 187.89 241.543C188.452 241.13 189.124 240.924 189.905 240.924C190.687 240.924 191.357 241.132 191.916 241.548C192.474 241.96 192.902 242.559 193.198 243.344C193.497 244.125 193.647 245.07 193.647 246.177C193.647 247.291 193.499 248.243 193.203 249.031C192.907 249.816 192.479 250.416 191.921 250.832C191.362 251.244 190.69 251.45 189.905 251.45ZM189.905 250.118C190.597 250.118 191.137 249.781 191.527 249.106C191.919 248.43 192.115 247.454 192.115 246.177C192.115 245.329 192.025 244.612 191.846 244.027C191.67 243.438 191.415 242.993 191.083 242.69C190.753 242.384 190.361 242.231 189.905 242.231C189.217 242.231 188.676 242.57 188.284 243.249C187.891 243.927 187.694 244.903 187.69 246.177C187.69 247.029 187.778 247.749 187.955 248.337C188.134 248.923 188.389 249.367 188.718 249.669C189.047 249.969 189.443 250.118 189.905 250.118ZM199.154 251.281V243.618H200.586V244.865H200.681C200.84 244.443 201.102 244.114 201.464 243.877C201.827 243.638 202.261 243.518 202.766 243.518C203.278 243.518 203.707 243.638 204.053 243.877C204.402 244.117 204.66 244.446 204.826 244.865H204.906C205.089 244.456 205.38 244.13 205.779 243.887C206.178 243.641 206.654 243.518 207.206 243.518C207.901 243.518 208.468 243.736 208.907 244.172C209.35 244.607 209.571 245.264 209.571 246.142V251.281H208.079V246.282C208.079 245.763 207.938 245.387 207.655 245.154C207.372 244.922 207.035 244.805 206.642 244.805C206.157 244.805 205.779 244.955 205.51 245.254C205.241 245.55 205.106 245.931 205.106 246.397V251.281H203.619V246.187C203.619 245.771 203.489 245.437 203.23 245.184C202.971 244.932 202.633 244.805 202.217 244.805C201.935 244.805 201.674 244.88 201.434 245.03C201.198 245.176 201.007 245.381 200.86 245.643C200.717 245.906 200.646 246.21 200.646 246.556V251.281H199.154ZM211.57 251.281V243.618H213.062V251.281H211.57ZM212.323 242.436C212.064 242.436 211.841 242.349 211.655 242.176C211.472 242 211.38 241.79 211.38 241.548C211.38 241.302 211.472 241.092 211.655 240.919C211.841 240.743 212.064 240.655 212.323 240.655C212.583 240.655 212.804 240.743 212.987 240.919C213.173 241.092 213.266 241.302 213.266 241.548C213.266 241.79 213.173 242 212.987 242.176C212.804 242.349 212.583 242.436 212.323 242.436ZM216.56 246.731V251.281H215.068V243.618H216.5V244.865H216.595C216.771 244.459 217.047 244.133 217.423 243.887C217.802 243.641 218.279 243.518 218.855 243.518C219.377 243.518 219.834 243.628 220.227 243.847C220.619 244.064 220.923 244.386 221.14 244.815C221.356 245.244 221.464 245.775 221.464 246.407V251.281H219.972V246.586C219.972 246.031 219.828 245.597 219.538 245.284C219.249 244.968 218.851 244.81 218.346 244.81C218 244.81 217.692 244.885 217.423 245.035C217.157 245.184 216.946 245.404 216.789 245.693C216.636 245.979 216.56 246.325 216.56 246.731ZM228.318 248.103V243.618H229.815V251.281H228.348V249.954H228.268C228.092 250.363 227.81 250.704 227.42 250.976C227.035 251.246 226.554 251.38 225.979 251.38C225.486 251.38 225.051 251.272 224.672 251.056C224.296 250.837 224 250.512 223.784 250.083C223.571 249.654 223.464 249.124 223.464 248.492V243.618H224.956V248.312C224.956 248.835 225.101 249.25 225.39 249.56C225.679 249.869 226.055 250.023 226.517 250.023C226.797 250.023 227.075 249.954 227.351 249.814C227.63 249.674 227.861 249.463 228.044 249.18C228.23 248.898 228.322 248.539 228.318 248.103ZM235.396 243.618V244.815H231.211V243.618H235.396ZM232.333 241.782H233.825V249.031C233.825 249.32 233.868 249.538 233.954 249.684C234.041 249.827 234.152 249.925 234.289 249.979C234.428 250.028 234.58 250.053 234.743 250.053C234.862 250.053 234.967 250.045 235.057 250.028C235.147 250.012 235.217 249.999 235.266 249.989L235.536 251.221C235.449 251.254 235.326 251.287 235.167 251.321C235.007 251.357 234.807 251.377 234.568 251.38C234.176 251.387 233.81 251.317 233.47 251.171C233.131 251.025 232.857 250.798 232.647 250.492C232.438 250.186 232.333 249.802 232.333 249.34V241.782ZM240.266 251.435C239.511 251.435 238.861 251.274 238.316 250.951C237.774 250.625 237.355 250.168 237.059 249.579C236.766 248.987 236.62 248.294 236.62 247.499C236.62 246.714 236.766 246.023 237.059 245.424C237.355 244.825 237.767 244.358 238.296 244.022C238.828 243.686 239.45 243.518 240.162 243.518C240.594 243.518 241.013 243.59 241.419 243.733C241.825 243.876 242.189 244.1 242.511 244.406C242.834 244.712 243.088 245.11 243.275 245.598C243.461 246.084 243.554 246.674 243.554 247.369V247.898H237.463V246.781H242.092C242.092 246.388 242.012 246.041 241.853 245.738C241.693 245.432 241.469 245.191 241.179 245.015C240.893 244.839 240.557 244.75 240.172 244.75C239.753 244.75 239.387 244.853 239.074 245.06C238.765 245.263 238.525 245.529 238.356 245.858C238.189 246.184 238.106 246.538 238.106 246.92V247.794C238.106 248.306 238.196 248.741 238.376 249.101C238.559 249.46 238.813 249.734 239.139 249.924C239.465 250.11 239.846 250.203 240.281 250.203C240.564 250.203 240.822 250.163 241.055 250.083C241.287 250 241.489 249.877 241.658 249.714C241.828 249.551 241.958 249.35 242.047 249.111L243.459 249.365C243.346 249.781 243.143 250.145 242.851 250.458C242.561 250.767 242.197 251.008 241.758 251.181C241.322 251.35 240.825 251.435 240.266 251.435ZM250.951 245.489L249.599 245.728C249.542 245.555 249.453 245.391 249.33 245.234C249.21 245.078 249.047 244.95 248.841 244.85C248.635 244.75 248.377 244.701 248.067 244.701C247.645 244.701 247.293 244.795 247.01 244.985C246.727 245.171 246.586 245.412 246.586 245.708C246.586 245.964 246.681 246.171 246.87 246.327C247.06 246.483 247.366 246.611 247.788 246.711L249.005 246.99C249.71 247.153 250.236 247.404 250.582 247.744C250.928 248.083 251.101 248.524 251.101 249.066C251.101 249.525 250.968 249.934 250.702 250.293C250.439 250.649 250.071 250.928 249.599 251.131C249.13 251.334 248.586 251.435 247.968 251.435C247.11 251.435 246.41 251.252 245.867 250.887C245.325 250.517 244.993 249.994 244.87 249.315L246.311 249.096C246.401 249.471 246.586 249.756 246.865 249.949C247.145 250.138 247.509 250.233 247.958 250.233C248.447 250.233 248.837 250.132 249.13 249.929C249.423 249.722 249.569 249.471 249.569 249.175C249.569 248.936 249.479 248.735 249.3 248.572C249.123 248.409 248.852 248.286 248.487 248.203L247.189 247.918C246.474 247.755 245.946 247.496 245.603 247.14C245.264 246.784 245.094 246.333 245.094 245.788C245.094 245.336 245.221 244.94 245.473 244.601C245.726 244.262 246.075 243.997 246.521 243.808C246.967 243.615 247.477 243.518 248.053 243.518C248.881 243.518 249.532 243.698 250.008 244.057C250.484 244.413 250.798 244.89 250.951 245.489Z" fill="#101010"/>
<path d="M155.192 261.877V256.024H155.824V256.7H155.902C155.95 256.626 156.016 256.532 156.101 256.417C156.188 256.301 156.312 256.197 156.473 256.107C156.635 256.014 156.855 255.968 157.132 255.968C157.491 255.968 157.807 256.058 158.08 256.237C158.354 256.416 158.567 256.67 158.721 256.999C158.874 257.328 158.951 257.716 158.951 258.163C158.951 258.614 158.874 259.005 158.721 259.336C158.567 259.664 158.355 259.919 158.083 260.1C157.811 260.28 157.498 260.369 157.144 260.369C156.87 260.369 156.651 260.324 156.487 260.234C156.322 260.141 156.196 260.037 156.107 259.92C156.018 259.802 155.95 259.704 155.902 259.627H155.846V261.877H155.192ZM155.835 258.152C155.835 258.474 155.883 258.757 155.977 259.003C156.071 259.247 156.209 259.438 156.39 259.577C156.571 259.713 156.792 259.782 157.055 259.782C157.328 259.782 157.556 259.71 157.739 259.566C157.924 259.42 158.063 259.224 158.155 258.978C158.249 258.73 158.296 258.455 158.296 258.152C158.296 257.853 158.25 257.583 158.158 257.343C158.067 257.101 157.93 256.91 157.745 256.769C157.562 256.627 157.332 256.556 157.055 256.556C156.789 256.556 156.565 256.623 156.384 256.758C156.203 256.891 156.066 257.078 155.974 257.318C155.882 257.556 155.835 257.834 155.835 258.152ZM161.733 260.369C161.323 260.369 160.969 260.279 160.672 260.098C160.376 259.915 160.148 259.66 159.987 259.333C159.828 259.004 159.749 258.621 159.749 258.185C159.749 257.749 159.828 257.365 159.987 257.032C160.148 256.698 160.371 256.437 160.658 256.251C160.946 256.062 161.282 255.968 161.667 255.968C161.888 255.968 162.107 256.005 162.324 256.079C162.54 256.153 162.736 256.273 162.914 256.439C163.091 256.604 163.233 256.822 163.338 257.093C163.443 257.365 163.496 257.699 163.496 258.097V258.374H160.214V257.808H162.831C162.831 257.568 162.783 257.354 162.687 257.165C162.592 256.977 162.457 256.828 162.282 256.719C162.108 256.61 161.903 256.556 161.667 256.556C161.406 256.556 161.181 256.62 160.99 256.75C160.802 256.877 160.657 257.044 160.555 257.249C160.454 257.454 160.403 257.674 160.403 257.908V258.285C160.403 258.607 160.458 258.879 160.569 259.103C160.682 259.324 160.838 259.494 161.038 259.61C161.237 259.724 161.469 259.782 161.733 259.782C161.905 259.782 162.06 259.758 162.199 259.71C162.339 259.66 162.46 259.586 162.562 259.488C162.663 259.388 162.742 259.264 162.797 259.117L163.429 259.294C163.363 259.508 163.251 259.697 163.094 259.859C162.937 260.02 162.743 260.146 162.512 260.236C162.281 260.325 162.021 260.369 161.733 260.369ZM164.491 260.281V256.024H165.123V256.667H165.167C165.245 256.456 165.385 256.285 165.588 256.154C165.792 256.023 166.021 255.957 166.276 255.957C166.324 255.957 166.384 255.958 166.456 255.96C166.528 255.962 166.582 255.964 166.619 255.968V256.633C166.597 256.628 166.546 256.619 166.467 256.608C166.389 256.595 166.307 256.589 166.22 256.589C166.013 256.589 165.829 256.632 165.666 256.719C165.505 256.804 165.378 256.922 165.283 257.074C165.191 257.224 165.145 257.395 165.145 257.587V260.281H164.491ZM171.197 260.369C170.842 260.369 170.529 260.28 170.258 260.1C169.986 259.919 169.774 259.664 169.62 259.336C169.467 259.005 169.39 258.614 169.39 258.163C169.39 257.716 169.467 257.328 169.62 256.999C169.774 256.67 169.987 256.416 170.26 256.237C170.534 256.058 170.85 255.968 171.208 255.968C171.485 255.968 171.704 256.014 171.865 256.107C172.028 256.197 172.152 256.301 172.237 256.417C172.323 256.532 172.391 256.626 172.439 256.7H172.494V254.605H173.148V260.281H172.516V259.627H172.439C172.391 259.704 172.322 259.802 172.234 259.92C172.145 260.037 172.018 260.141 171.854 260.234C171.69 260.324 171.471 260.369 171.197 260.369ZM171.286 259.782C171.548 259.782 171.77 259.713 171.951 259.577C172.132 259.438 172.27 259.247 172.364 259.003C172.458 258.757 172.505 258.474 172.505 258.152C172.505 257.834 172.459 257.556 172.367 257.318C172.274 257.078 172.138 256.891 171.957 256.758C171.776 256.623 171.552 256.556 171.286 256.556C171.009 256.556 170.778 256.627 170.593 256.769C170.41 256.91 170.272 257.101 170.18 257.343C170.09 257.583 170.044 257.853 170.044 258.152C170.044 258.455 170.09 258.73 170.183 258.978C170.277 259.224 170.416 259.42 170.599 259.566C170.783 259.71 171.012 259.782 171.286 259.782ZM175.69 260.38C175.42 260.38 175.175 260.33 174.955 260.228C174.735 260.125 174.561 259.976 174.432 259.782C174.302 259.586 174.238 259.349 174.238 259.072C174.238 258.828 174.286 258.631 174.382 258.479C174.478 258.326 174.606 258.206 174.767 258.119C174.928 258.032 175.105 257.967 175.299 257.925C175.495 257.881 175.692 257.845 175.889 257.82C176.148 257.786 176.358 257.761 176.518 257.745C176.681 257.726 176.799 257.696 176.873 257.653C176.949 257.611 176.987 257.537 176.987 257.432V257.409C176.987 257.136 176.912 256.923 176.762 256.772C176.615 256.62 176.39 256.545 176.089 256.545C175.777 256.545 175.532 256.613 175.354 256.75C175.177 256.886 175.052 257.032 174.98 257.188L174.359 256.966C174.47 256.707 174.618 256.506 174.803 256.362C174.99 256.216 175.193 256.114 175.413 256.057C175.634 255.998 175.852 255.968 176.067 255.968C176.203 255.968 176.361 255.985 176.538 256.018C176.717 256.049 176.89 256.115 177.056 256.215C177.224 256.315 177.364 256.465 177.475 256.667C177.586 256.868 177.641 257.138 177.641 257.476V260.281H176.987V259.704H176.954C176.909 259.797 176.835 259.895 176.732 260.001C176.628 260.106 176.491 260.196 176.319 260.27C176.147 260.343 175.937 260.38 175.69 260.38ZM175.79 259.793C176.048 259.793 176.266 259.742 176.444 259.64C176.623 259.539 176.758 259.408 176.848 259.247C176.941 259.086 176.987 258.917 176.987 258.74V258.141C176.959 258.174 176.898 258.205 176.804 258.232C176.712 258.258 176.604 258.281 176.482 258.302C176.362 258.32 176.245 258.337 176.13 258.352C176.018 258.365 175.926 258.376 175.856 258.385C175.686 258.407 175.527 258.443 175.379 258.493C175.233 258.541 175.115 258.614 175.025 258.712C174.936 258.808 174.892 258.939 174.892 259.106C174.892 259.333 174.976 259.505 175.144 259.621C175.314 259.736 175.529 259.793 175.79 259.793ZM179.104 261.877C178.993 261.877 178.894 261.868 178.807 261.849C178.72 261.833 178.66 261.816 178.627 261.799L178.793 261.223C178.952 261.264 179.093 261.278 179.214 261.267C179.336 261.256 179.445 261.202 179.539 261.104C179.635 261.008 179.723 260.852 179.802 260.635L179.924 260.303L178.35 256.024H179.059L180.234 259.416H180.279L181.454 256.024H182.163L180.356 260.901C180.275 261.121 180.174 261.303 180.054 261.447C179.934 261.593 179.795 261.702 179.636 261.772C179.479 261.842 179.301 261.877 179.104 261.877Z" fill="#9CA3AF"/>
<rect x="0.5" y="281.189" width="265" height="46.0243" rx="9.57664" fill="white"/>
<rect x="0.5" y="281.189" width="265" height="46.0243" rx="9.57664" stroke="#E5E7EB"/>
<rect x="13.4336" y="294.124" width="20.1533" height="20.1533" rx="3.35888" fill="white"/>
<path d="M29.0702 301.268L27.1836 308.842C27.0492 309.407 26.5454 309.799 25.9632 309.799H18.6073C17.7619 309.799 17.1573 308.971 17.4093 308.159L19.7661 300.59C19.9284 300.064 20.4155 299.7 20.9641 299.7H27.8498C28.3816 299.7 28.8239 300.025 29.0086 300.473C29.115 300.713 29.1373 300.988 29.0702 301.268Z" stroke="#193BFF" stroke-width="1.25958" stroke-miterlimit="10"/>
<path d="M25.75 309.799H28.4259C29.1481 309.799 29.7135 309.189 29.6631 308.467L29.1089 300.842" stroke="#193BFF" stroke-width="1.25958" stroke-miterlimit="10" stroke-linecap="round" stroke-linejoin="round"/>
<path d="M22.2109 301.055L22.7931 298.636" stroke="#193BFF" stroke-width="1.25958" stroke-miterlimit="10" stroke-linecap="round" stroke-linejoin="round"/>
<path d="M25.9648 301.06L26.4911 298.631" stroke="#193BFF" stroke-width="1.25958" stroke-miterlimit="10" stroke-linecap="round" stroke-linejoin="round"/>
<path d="M21.1016 304.201H25.5801" stroke="#193BFF" stroke-width="1.25958" stroke-miterlimit="10" stroke-linecap="round" stroke-linejoin="round"/>
<path d="M20.543 306.44H25.0215" stroke="#193BFF" stroke-width="1.25958" stroke-miterlimit="10" stroke-linecap="round" stroke-linejoin="round"/>
<path d="M44.0119 308.701H41.244V300.151H44.0995C44.9373 300.151 45.6567 300.322 46.2579 300.665C46.859 301.004 47.3196 301.493 47.6397 302.13C47.9626 302.764 48.124 303.526 48.124 304.413C48.124 305.304 47.9612 306.069 47.6355 306.71C47.3127 307.35 46.8451 307.842 46.2328 308.187C45.6205 308.53 44.8802 308.701 44.0119 308.701ZM42.534 307.574H43.9409C44.5921 307.574 45.1335 307.451 45.5649 307.206C45.9963 306.959 46.3191 306.601 46.5334 306.133C46.7477 305.663 46.8549 305.09 46.8549 304.413C46.8549 303.743 46.7477 303.174 46.5334 302.706C46.3219 302.238 46.006 301.884 45.5857 301.641C45.1655 301.399 44.6436 301.278 44.0202 301.278H42.534V307.574ZM49.6279 308.701V302.289H50.8762V308.701H49.6279ZM50.2583 301.299C50.0412 301.299 49.8548 301.227 49.6989 301.082C49.5458 300.935 49.4693 300.759 49.4693 300.556C49.4693 300.35 49.5458 300.175 49.6989 300.03C49.8548 299.882 50.0412 299.809 50.2583 299.809C50.4754 299.809 50.6605 299.882 50.8136 300.03C50.9694 300.175 51.0473 300.35 51.0473 300.556C51.0473 300.759 50.9694 300.935 50.8136 301.082C50.6605 301.227 50.4754 301.299 50.2583 301.299ZM55.6072 302.289V303.29H51.9835V302.289H55.6072ZM52.9771 308.701V301.545C52.9771 301.145 53.0648 300.812 53.2401 300.548C53.4155 300.28 53.6479 300.081 53.9373 299.951C54.2268 299.817 54.5413 299.75 54.8808 299.75C55.1313 299.75 55.3456 299.771 55.5237 299.813C55.7018 299.852 55.834 299.888 55.9203 299.921L55.6281 300.932C55.5696 300.915 55.4945 300.896 55.4026 300.873C55.3108 300.848 55.1995 300.836 55.0687 300.836C54.7653 300.836 54.5482 300.911 54.4174 301.061C54.2894 301.211 54.2254 301.429 54.2254 301.712V308.701H52.9771ZM59.9469 302.289V303.29H56.3232V302.289H59.9469ZM57.3168 308.701V301.545C57.3168 301.145 57.4044 300.812 57.5798 300.548C57.7551 300.28 57.9875 300.081 58.277 299.951C58.5664 299.817 58.8809 299.75 59.2204 299.75C59.4709 299.75 59.6852 299.771 59.8634 299.813C60.0415 299.852 60.1737 299.888 60.26 299.921L59.9677 300.932C59.9093 300.915 59.8341 300.896 59.7423 300.873C59.6504 300.848 59.5391 300.836 59.4083 300.836C59.1049 300.836 58.8879 300.911 58.7571 301.061C58.629 301.211 58.565 301.429 58.565 301.712V308.701H57.3168ZM61.2348 308.701V302.289H62.483V308.701H61.2348ZM61.8651 301.299C61.6481 301.299 61.4616 301.227 61.3057 301.082C61.1527 300.935 61.0761 300.759 61.0761 300.556C61.0761 300.35 61.1527 300.175 61.3057 300.03C61.4616 299.882 61.6481 299.809 61.8651 299.809C62.0822 299.809 62.2673 299.882 62.4204 300.03C62.5762 300.175 62.6542 300.35 62.6542 300.556C62.6542 300.759 62.5762 300.935 62.4204 301.082C62.2673 301.227 62.0822 301.299 61.8651 301.299ZM66.8634 308.83C66.2427 308.83 65.7083 308.69 65.2603 308.409C64.815 308.125 64.4726 307.734 64.2333 307.236C63.9939 306.737 63.8742 306.167 63.8742 305.524C63.8742 304.873 63.9967 304.298 64.2416 303.8C64.4865 303.299 64.8317 302.908 65.277 302.627C65.7223 302.346 66.2469 302.205 66.8508 302.205C67.3379 302.205 67.7721 302.295 68.1534 302.476C68.5346 302.655 68.8422 302.905 69.076 303.228C69.3125 303.551 69.4531 303.928 69.4976 304.359H68.2828C68.216 304.059 68.0629 303.8 67.8236 303.583C67.587 303.366 67.2697 303.257 66.8717 303.257C66.5238 303.257 66.2191 303.349 65.9574 303.533C65.6986 303.714 65.4968 303.972 65.3521 304.309C65.2074 304.643 65.135 305.038 65.135 305.495C65.135 305.962 65.206 306.366 65.3479 306.705C65.4899 307.045 65.6903 307.308 65.9491 307.494C66.2107 307.681 66.5182 307.774 66.8717 307.774C67.1083 307.774 67.3226 307.731 67.5146 307.645C67.7094 307.556 67.8723 307.429 68.0031 307.265C68.1367 307.101 68.2299 306.903 68.2828 306.672H69.4976C69.4531 307.087 69.3181 307.457 69.0927 307.782C68.8672 308.108 68.5653 308.364 68.1868 308.551C67.811 308.737 67.3699 308.83 66.8634 308.83ZM74.8945 306.042V302.289H76.1469V308.701H74.9196V307.59H74.8528C74.7053 307.933 74.4687 308.218 74.1431 308.446C73.8202 308.672 73.4181 308.784 72.9366 308.784C72.5247 308.784 72.1601 308.694 71.8428 308.513C71.5283 308.329 71.2806 308.058 71.0997 307.699C70.9216 307.34 70.8325 306.896 70.8325 306.367V302.289H72.0807V306.217C72.0807 306.654 72.2018 307.002 72.4439 307.261C72.6861 307.519 73.0006 307.649 73.3874 307.649C73.6212 307.649 73.8536 307.59 74.0846 307.474C74.3184 307.357 74.5118 307.18 74.6649 306.943C74.8208 306.707 74.8973 306.406 74.8945 306.042ZM79.0724 300.151V308.701H77.8241V300.151H79.0724ZM83.745 302.289V303.29H80.2424V302.289H83.745ZM81.1817 300.752H82.4299V306.818C82.4299 307.06 82.4661 307.243 82.5385 307.365C82.6108 307.485 82.7041 307.567 82.8182 307.611C82.9351 307.653 83.0617 307.674 83.1981 307.674C83.2983 307.674 83.3859 307.667 83.4611 307.653C83.5362 307.639 83.5947 307.628 83.6364 307.62L83.8619 308.651C83.7895 308.679 83.6865 308.706 83.5529 308.734C83.4193 308.765 83.2524 308.782 83.052 308.784C82.7236 308.79 82.4174 308.732 82.1335 308.609C81.8496 308.487 81.62 308.297 81.4447 308.041C81.2694 307.785 81.1817 307.464 81.1817 307.077V300.752ZM85.9148 311.106C85.7283 311.106 85.5586 311.09 85.4055 311.06C85.2524 311.032 85.1383 311.001 85.0632 310.968L85.3637 309.945C85.592 310.006 85.7951 310.033 85.9732 310.024C86.1514 310.016 86.3086 309.949 86.445 309.824C86.5841 309.699 86.7066 309.494 86.8124 309.21L86.9668 308.784L84.6206 302.289H85.9565L87.5805 307.265H87.6473L89.2713 302.289H90.6114L87.9688 309.557C87.8463 309.891 87.6905 310.173 87.5012 310.404C87.3119 310.638 87.0865 310.813 86.8249 310.93C86.5633 311.047 86.2599 311.106 85.9148 311.106Z" fill="#545C65"/>
<path d="M156.92 309.201V298.208H160.945C161.725 298.208 162.371 298.337 162.883 298.595C163.395 298.849 163.777 299.194 164.032 299.631C164.286 300.064 164.413 300.552 164.413 301.096C164.413 301.554 164.329 301.94 164.16 302.255C163.992 302.567 163.767 302.817 163.484 303.007C163.205 303.193 162.897 303.329 162.561 303.415V303.522C162.926 303.54 163.282 303.658 163.629 303.876C163.98 304.091 164.269 304.397 164.499 304.794C164.728 305.191 164.842 305.674 164.842 306.243C164.842 306.805 164.71 307.31 164.445 307.757C164.184 308.201 163.779 308.553 163.232 308.814C162.684 309.072 161.985 309.201 161.133 309.201H156.92ZM158.578 307.779H160.972C161.766 307.779 162.335 307.625 162.679 307.317C163.022 307.009 163.194 306.625 163.194 306.163C163.194 305.816 163.107 305.497 162.931 305.207C162.756 304.918 162.505 304.687 162.18 304.515C161.858 304.343 161.475 304.257 161.031 304.257H158.578V307.779ZM158.578 302.964H160.8C161.172 302.964 161.507 302.892 161.804 302.749C162.105 302.606 162.343 302.406 162.518 302.148C162.697 301.887 162.786 301.579 162.786 301.225C162.786 300.77 162.627 300.389 162.309 300.081C161.99 299.774 161.502 299.62 160.843 299.62H158.578V302.964ZM170.234 309.367C169.421 309.367 168.722 309.194 168.135 308.847C167.552 308.496 167.101 308.004 166.782 307.371C166.467 306.734 166.31 305.988 166.31 305.132C166.31 304.288 166.467 303.544 166.782 302.899C167.101 302.255 167.545 301.753 168.114 301.391C168.686 301.03 169.355 300.849 170.121 300.849C170.586 300.849 171.037 300.926 171.474 301.08C171.91 301.234 172.302 301.475 172.649 301.804C172.996 302.134 173.27 302.561 173.47 303.087C173.671 303.61 173.771 304.245 173.771 304.993V305.562H167.217V304.359H172.198C172.198 303.937 172.112 303.563 171.941 303.238C171.769 302.908 171.527 302.649 171.216 302.459C170.908 302.27 170.547 302.175 170.132 302.175C169.681 302.175 169.287 302.286 168.951 302.508C168.618 302.726 168.36 303.012 168.178 303.366C167.999 303.717 167.91 304.098 167.91 304.51V305.449C167.91 306 168.006 306.469 168.199 306.855C168.396 307.242 168.67 307.537 169.021 307.741C169.371 307.941 169.781 308.042 170.25 308.042C170.554 308.042 170.831 307.999 171.082 307.913C171.332 307.823 171.549 307.691 171.731 307.516C171.914 307.34 172.053 307.124 172.15 306.866L173.669 307.14C173.547 307.587 173.329 307.979 173.014 308.315C172.703 308.648 172.311 308.908 171.839 309.094C171.37 309.276 170.835 309.367 170.234 309.367ZM179.008 312.464C178.353 312.464 177.79 312.379 177.318 312.207C176.849 312.035 176.466 311.808 176.169 311.525C175.872 311.242 175.65 310.933 175.503 310.596L176.883 310.028C176.979 310.185 177.108 310.351 177.269 310.527C177.434 310.706 177.656 310.858 177.935 310.983C178.217 311.108 178.581 311.171 179.024 311.171C179.633 311.171 180.135 311.022 180.533 310.725C180.93 310.432 181.128 309.963 181.128 309.319V307.698H181.026C180.93 307.873 180.79 308.068 180.608 308.283C180.429 308.498 180.182 308.684 179.867 308.841C179.552 308.999 179.142 309.077 178.638 309.077C177.987 309.077 177.4 308.925 176.877 308.621C176.359 308.313 175.947 307.861 175.643 307.263C175.342 306.662 175.192 305.923 175.192 305.046C175.192 304.17 175.34 303.418 175.637 302.792C175.938 302.166 176.35 301.686 176.872 301.354C177.394 301.017 177.987 300.849 178.649 300.849C179.16 300.849 179.574 300.935 179.889 301.107C180.203 301.275 180.449 301.472 180.624 301.697C180.803 301.923 180.941 302.121 181.037 302.293H181.155V300.956H182.728V309.383C182.728 310.092 182.563 310.673 182.234 311.128C181.905 311.582 181.459 311.919 180.898 312.137C180.339 312.355 179.71 312.464 179.008 312.464ZM178.992 307.746C179.454 307.746 179.844 307.639 180.162 307.424C180.484 307.206 180.728 306.895 180.892 306.49C181.06 306.082 181.145 305.594 181.145 305.025C181.145 304.47 181.062 303.982 180.898 303.56C180.733 303.137 180.492 302.808 180.173 302.572C179.855 302.332 179.461 302.212 178.992 302.212C178.509 302.212 178.107 302.338 177.784 302.588C177.462 302.835 177.219 303.171 177.054 303.597C176.893 304.023 176.813 304.499 176.813 305.025C176.813 305.565 176.895 306.039 177.06 306.447C177.224 306.855 177.468 307.174 177.79 307.403C178.115 307.632 178.516 307.746 178.992 307.746ZM184.88 309.201V300.956H186.485V309.201H184.88ZM185.691 299.684C185.412 299.684 185.172 299.591 184.972 299.405C184.775 299.216 184.676 298.99 184.676 298.729C184.676 298.464 184.775 298.239 184.972 298.053C185.172 297.863 185.412 297.768 185.691 297.768C185.97 297.768 186.208 297.863 186.405 298.053C186.605 298.239 186.705 298.464 186.705 298.729C186.705 298.99 186.605 299.216 186.405 299.405C186.208 299.591 185.97 299.684 185.691 299.684ZM190.249 304.306V309.201H188.644V300.956H190.185V302.298H190.287C190.476 301.862 190.773 301.511 191.178 301.246C191.586 300.981 192.099 300.849 192.718 300.849C193.28 300.849 193.772 300.967 194.194 301.203C194.617 301.436 194.944 301.783 195.177 302.245C195.409 302.706 195.526 303.277 195.526 303.957V309.201H193.921V304.15C193.921 303.553 193.765 303.086 193.454 302.749C193.142 302.409 192.715 302.239 192.171 302.239C191.799 302.239 191.468 302.32 191.178 302.481C190.892 302.642 190.664 302.878 190.496 303.189C190.332 303.497 190.249 303.869 190.249 304.306ZM199.283 304.306V309.201H197.678V300.956H199.218V302.298H199.32C199.51 301.862 199.807 301.511 200.211 301.246C200.619 300.981 201.133 300.849 201.752 300.849C202.314 300.849 202.806 300.967 203.228 301.203C203.65 301.436 203.978 301.783 204.21 302.245C204.443 302.706 204.559 303.277 204.559 303.957V309.201H202.954V304.15C202.954 303.553 202.799 303.086 202.487 302.749C202.176 302.409 201.748 302.239 201.204 302.239C200.832 302.239 200.501 302.32 200.211 302.481C199.925 302.642 199.698 302.878 199.53 303.189C199.365 303.497 199.283 303.869 199.283 304.306ZM210.265 309.367C209.452 309.367 208.753 309.194 208.166 308.847C207.583 308.496 207.132 308.004 206.813 307.371C206.499 306.734 206.341 305.988 206.341 305.132C206.341 304.288 206.499 303.544 206.813 302.899C207.132 302.255 207.576 301.753 208.145 301.391C208.717 301.03 209.386 300.849 210.152 300.849C210.617 300.849 211.068 300.926 211.505 301.08C211.941 301.234 212.333 301.475 212.68 301.804C213.027 302.134 213.301 302.561 213.501 303.087C213.702 303.61 213.802 304.245 213.802 304.993V305.562H207.248V304.359H212.229C212.229 303.937 212.143 303.563 211.972 303.238C211.8 302.908 211.558 302.649 211.247 302.459C210.939 302.27 210.578 302.175 210.163 302.175C209.712 302.175 209.318 302.286 208.982 302.508C208.649 302.726 208.391 303.012 208.209 303.366C208.03 303.717 207.941 304.098 207.941 304.51V305.449C207.941 306 208.037 306.469 208.23 306.855C208.427 307.242 208.701 307.537 209.052 307.741C209.402 307.941 209.812 308.042 210.281 308.042C210.585 308.042 210.862 307.999 211.113 307.913C211.363 307.823 211.58 307.691 211.762 307.516C211.945 307.34 212.084 307.124 212.181 306.866L213.7 307.14C213.578 307.587 213.36 307.979 213.045 308.315C212.734 308.648 212.342 308.908 211.87 309.094C211.401 309.276 210.866 309.367 210.265 309.367ZM215.583 309.201V300.956H217.134V302.266H217.22C217.37 301.822 217.635 301.473 218.014 301.219C218.397 300.962 218.83 300.833 219.313 300.833C219.413 300.833 219.531 300.837 219.667 300.844C219.807 300.851 219.916 300.86 219.995 300.871V302.406C219.93 302.388 219.816 302.368 219.651 302.347C219.487 302.322 219.322 302.309 219.157 302.309C218.778 302.309 218.44 302.39 218.143 302.551C217.849 302.708 217.617 302.928 217.445 303.211C217.273 303.49 217.187 303.808 217.187 304.166V309.201H215.583Z" fill="#101010"/>
<rect x="0.5" y="336.213" width="265" height="46" rx="9.5" fill="white"/>
<rect x="0.5" y="336.213" width="265" height="46" rx="9.5" stroke="#E5E7EB"/>
<g filter="url(#filter1_d_17769_50434)">
<path d="M19.6094 353.776V355.407" stroke="#193BFF" stroke-width="1.2233" stroke-miterlimit="10" stroke-linecap="round" stroke-linejoin="round"/>
<path d="M23.9609 353.776V355.407" stroke="#193BFF" stroke-width="1.2233" stroke-miterlimit="10" stroke-linecap="round" stroke-linejoin="round"/>
<path d="M17.1641 357.631H26.4068" stroke="#193BFF" stroke-width="1.2233" stroke-miterlimit="10" stroke-linecap="round" stroke-linejoin="round"/>
<path d="M26.6809 357.31V361.931C26.6809 363.563 25.8654 364.65 23.9625 364.65H19.613C17.7101 364.65 16.8945 363.563 16.8945 361.931V357.31C16.8945 355.679 17.7101 354.592 19.613 354.592H23.9625C25.8654 354.592 26.6809 355.679 26.6809 357.31Z" stroke="#193BFF" stroke-width="1.2233" stroke-miterlimit="10" stroke-linecap="round" stroke-linejoin="round"/>
<path d="M21.7845 360.137H21.7894" stroke="#193BFF" stroke-width="1.63107" stroke-linecap="round" stroke-linejoin="round"/>
<path d="M19.7689 360.137H19.7737" stroke="#193BFF" stroke-width="1.63107" stroke-linecap="round" stroke-linejoin="round"/>
<path d="M19.7734 361.768H19.7783" stroke="#193BFF" stroke-width="1.63107" stroke-linecap="round" stroke-linejoin="round"/>
</g>
<path d="M39.0099 363.713V355.409H44.1591V356.488H40.2628V359.018H43.7902V360.092H40.2628V363.713H39.0099ZM45.5245 363.713V357.485H46.6962V358.475H46.7611C46.8746 358.139 47.0747 357.876 47.3612 357.684C47.6504 357.489 47.9775 357.392 48.3424 357.392C48.4181 357.392 48.5073 357.395 48.61 357.4C48.7154 357.406 48.7978 357.412 48.8573 357.42V358.58C48.8086 358.566 48.7221 358.552 48.5978 358.535C48.4735 358.516 48.3491 358.507 48.2248 358.507C47.9383 358.507 47.6828 358.568 47.4585 358.689C47.2368 358.808 47.0611 358.975 46.9314 359.188C46.8017 359.399 46.7368 359.64 46.7368 359.91V363.713H45.5245ZM52.3675 363.839C51.7539 363.839 51.2255 363.708 50.7822 363.445C50.3416 363.181 50.001 362.809 49.7604 362.33C49.5226 361.849 49.4036 361.286 49.4036 360.64C49.4036 360.002 49.5226 359.44 49.7604 358.953C50.001 358.466 50.3362 358.087 50.7659 357.814C51.1984 357.541 51.7039 357.404 52.2823 357.404C52.6337 357.404 52.9743 357.462 53.3041 357.579C53.6338 357.695 53.9298 357.877 54.192 358.126C54.4542 358.375 54.661 358.698 54.8123 359.095C54.9637 359.49 55.0394 359.969 55.0394 360.534V360.964H50.0888V360.056H53.8514C53.8514 359.737 53.7865 359.454 53.6568 359.208C53.5271 358.96 53.3446 358.764 53.1094 358.621C52.877 358.477 52.604 358.406 52.2904 358.406C51.9499 358.406 51.6525 358.489 51.3984 358.657C51.1471 358.822 50.9525 359.038 50.8146 359.306C50.6794 359.571 50.6119 359.859 50.6119 360.169V360.879C50.6119 361.295 50.6849 361.649 50.8308 361.941C50.9795 362.233 51.1863 362.456 51.4512 362.61C51.7161 362.762 52.0255 362.837 52.3796 362.837C52.6094 362.837 52.8189 362.805 53.0081 362.74C53.1973 362.672 53.3608 362.572 53.4987 362.44C53.6365 362.307 53.7419 362.144 53.8149 361.949L54.9624 362.156C54.8705 362.494 54.7056 362.79 54.4677 363.044C54.2325 363.295 53.9366 363.491 53.5798 363.632C53.2257 363.77 52.8216 363.839 52.3675 363.839ZM60.589 366.048V362.744H60.516C60.443 362.876 60.3376 363.028 60.1998 363.198C60.0646 363.368 59.8781 363.517 59.6402 363.644C59.4024 363.771 59.0942 363.835 58.7158 363.835C58.2131 363.835 57.7644 363.706 57.3697 363.449C56.9778 363.19 56.6696 362.821 56.4453 362.343C56.2236 361.861 56.1128 361.284 56.1128 360.611C56.1128 359.938 56.225 359.363 56.4493 358.884C56.6764 358.406 56.9872 358.039 57.3819 357.785C57.7765 357.531 58.2239 357.404 58.7239 357.404C59.1104 357.404 59.4213 357.469 59.6565 357.599C59.8943 357.726 60.0781 357.875 60.2079 358.045C60.3403 358.215 60.443 358.365 60.516 358.495H60.6174V357.485H61.8013V366.048H60.589ZM58.9834 362.801C59.3321 362.801 59.6267 362.709 59.8673 362.525C60.1106 362.339 60.2944 362.08 60.4187 361.751C60.5457 361.421 60.6093 361.037 60.6093 360.599C60.6093 360.167 60.5471 359.788 60.4228 359.464C60.2984 359.14 60.116 358.887 59.8754 358.706C59.6348 358.525 59.3375 358.434 58.9834 358.434C58.6185 358.434 58.3144 358.529 58.0711 358.718C57.8279 358.907 57.6441 359.165 57.5197 359.492C57.3981 359.819 57.3373 360.188 57.3373 360.599C57.3373 361.015 57.3994 361.39 57.5238 361.722C57.6481 362.055 57.8319 362.318 58.0752 362.513C58.3212 362.705 58.6239 362.801 58.9834 362.801ZM67.3762 361.13V357.485H68.5926V363.713H67.4006V362.635H67.3357C67.1924 362.967 66.9627 363.244 66.6464 363.466C66.3329 363.685 65.9423 363.794 65.4747 363.794C65.0746 363.794 64.7205 363.706 64.4124 363.531C64.1069 363.352 63.8664 363.089 63.6907 362.74C63.5177 362.391 63.4312 361.96 63.4312 361.447V357.485H64.6435V361.301C64.6435 361.725 64.7611 362.063 64.9962 362.314C65.2314 362.566 65.5368 362.691 65.9125 362.691C66.1396 362.691 66.3653 362.635 66.5897 362.521C66.8167 362.407 67.0046 362.236 67.1532 362.006C67.3046 361.776 67.3789 361.484 67.3762 361.13ZM72.9055 363.839C72.292 363.839 71.7635 363.708 71.3202 363.445C70.8797 363.181 70.5391 362.809 70.2985 362.33C70.0606 361.849 69.9417 361.286 69.9417 360.64C69.9417 360.002 70.0606 359.44 70.2985 358.953C70.5391 358.466 70.8742 358.087 71.304 357.814C71.7365 357.541 72.242 357.404 72.8204 357.404C73.1718 357.404 73.5124 357.462 73.8421 357.579C74.1719 357.695 74.4679 357.877 74.7301 358.126C74.9923 358.375 75.199 358.698 75.3504 359.095C75.5018 359.49 75.5775 359.969 75.5775 360.534V360.964H70.6269V360.056H74.3895C74.3895 359.737 74.3246 359.454 74.1949 359.208C74.0651 358.96 73.8827 358.764 73.6475 358.621C73.4151 358.477 73.1421 358.406 72.8285 358.406C72.4879 358.406 72.1906 358.489 71.9365 358.657C71.6851 358.822 71.4905 359.038 71.3527 359.306C71.2175 359.571 71.15 359.859 71.15 360.169V360.879C71.15 361.295 71.2229 361.649 71.3689 361.941C71.5176 362.233 71.7243 362.456 71.9892 362.61C72.2541 362.762 72.5636 362.837 72.9177 362.837C73.1475 362.837 73.357 362.805 73.5462 362.74C73.7354 362.672 73.8989 362.572 74.0368 362.44C74.1746 362.307 74.28 362.144 74.353 361.949L75.5004 362.156C75.4085 362.494 75.2436 362.79 75.0058 363.044C74.7706 363.295 74.4746 363.491 74.1178 363.632C73.7638 363.77 73.3597 363.839 72.9055 363.839ZM78.1348 360.015V363.713H76.9225V357.485H78.0862V358.499H78.1632C78.3065 358.169 78.5308 357.904 78.8363 357.704C79.1444 357.504 79.5323 357.404 79.9999 357.404C80.4243 357.404 80.7959 357.493 81.1149 357.672C81.4339 357.848 81.6812 358.11 81.8569 358.458C82.0326 358.807 82.1204 359.238 82.1204 359.752V363.713H80.9081V359.898C80.9081 359.446 80.7905 359.094 80.5554 358.84C80.3202 358.583 79.9972 358.454 79.5864 358.454C79.3052 358.454 79.0552 358.515 78.8363 358.637C78.62 358.758 78.4484 358.937 78.3214 359.172C78.197 359.404 78.1348 359.686 78.1348 360.015ZM86.3695 363.839C85.7668 363.839 85.2478 363.702 84.8126 363.429C84.3801 363.153 84.0477 362.774 83.8152 362.29C83.5827 361.806 83.4665 361.252 83.4665 360.628C83.4665 359.995 83.5854 359.437 83.8233 358.953C84.0612 358.466 84.3963 358.087 84.8288 357.814C85.2613 357.541 85.7708 357.404 86.3574 357.404C86.8304 357.404 87.2521 357.492 87.6224 357.668C87.9927 357.841 88.2914 358.084 88.5184 358.398C88.7482 358.711 88.8847 359.077 88.9279 359.496H87.7481C87.6832 359.204 87.5345 358.953 87.3021 358.742C87.0723 358.531 86.7642 358.426 86.3776 358.426C86.0398 358.426 85.7438 358.515 85.4897 358.694C85.2383 358.869 85.0424 359.121 84.9018 359.448C84.7612 359.772 84.691 360.156 84.691 360.599C84.691 361.053 84.7599 361.445 84.8977 361.775C85.0356 362.105 85.2302 362.36 85.4816 362.541C85.7357 362.722 86.0344 362.813 86.3776 362.813C86.6074 362.813 86.8155 362.771 87.002 362.687C87.1912 362.601 87.3494 362.478 87.4764 362.318C87.6062 362.159 87.6967 361.967 87.7481 361.743H88.9279C88.8847 362.145 88.7536 362.505 88.5346 362.821C88.3157 363.137 88.0224 363.386 87.6548 363.567C87.2899 363.748 86.8615 363.839 86.3695 363.839ZM90.9907 366.048C90.8096 366.048 90.6447 366.034 90.496 366.004C90.3473 365.977 90.2365 365.947 90.1635 365.915L90.4555 364.921C90.6771 364.981 90.8744 365.006 91.0474 364.998C91.2204 364.99 91.3731 364.925 91.5056 364.804C91.6407 364.682 91.7597 364.483 91.8624 364.208L92.0124 363.794L89.7338 357.485H91.0312L92.6084 362.318H92.6733L94.2505 357.485H95.552L92.9855 364.544C92.8665 364.869 92.7152 365.143 92.5314 365.367C92.3476 365.594 92.1286 365.765 91.8745 365.878C91.6205 365.992 91.3258 366.048 90.9907 366.048Z" fill="#545C65"/>
<path d="M160.752 360.862C160.084 360.862 159.483 360.734 158.95 360.478C158.42 360.219 157.997 359.864 157.681 359.412C157.365 358.961 157.196 358.445 157.175 357.866H158.774C158.813 358.335 159.021 358.721 159.398 359.023C159.774 359.325 160.226 359.476 160.752 359.476C161.171 359.476 161.543 359.38 161.866 359.188C162.193 358.993 162.449 358.724 162.634 358.383C162.822 358.042 162.916 357.653 162.916 357.216C162.916 356.772 162.82 356.375 162.628 356.027C162.436 355.679 162.172 355.405 161.834 355.206C161.5 355.007 161.116 354.906 160.682 354.902C160.352 354.902 160.02 354.959 159.686 355.073C159.351 355.186 159.081 355.336 158.875 355.52L157.366 355.297L157.98 349.795H163.982V351.208H159.35L159.003 354.262H159.067C159.28 354.056 159.563 353.884 159.915 353.745C160.27 353.607 160.65 353.537 161.056 353.537C161.72 353.537 162.312 353.695 162.831 354.012C163.353 354.328 163.764 354.76 164.062 355.307C164.364 355.851 164.514 356.477 164.51 357.184C164.514 357.891 164.354 358.522 164.03 359.076C163.711 359.631 163.266 360.068 162.698 360.388C162.133 360.704 161.484 360.862 160.752 360.862ZM173.517 360.873C172.856 360.873 172.266 360.704 171.747 360.366C171.232 360.025 170.827 359.54 170.532 358.911C170.24 358.278 170.095 357.52 170.095 356.635C170.095 355.75 170.242 354.993 170.537 354.364C170.836 353.735 171.244 353.253 171.763 352.919C172.282 352.585 172.87 352.418 173.528 352.418C174.036 352.418 174.445 352.503 174.754 352.674C175.067 352.841 175.308 353.036 175.479 353.26C175.653 353.484 175.788 353.681 175.884 353.852H175.98V349.795H177.574V360.713H176.017V359.439H175.884C175.788 359.613 175.65 359.812 175.468 360.036C175.291 360.26 175.045 360.455 174.733 360.622C174.42 360.789 174.015 360.873 173.517 360.873ZM173.869 359.514C174.328 359.514 174.715 359.393 175.031 359.151C175.351 358.906 175.593 358.566 175.756 358.133C175.923 357.699 176.007 357.194 176.007 356.619C176.007 356.05 175.925 355.552 175.762 355.126C175.598 354.699 175.358 354.367 175.042 354.129C174.726 353.891 174.335 353.772 173.869 353.772C173.389 353.772 172.989 353.896 172.67 354.145C172.35 354.394 172.108 354.733 171.944 355.163C171.785 355.593 171.705 356.078 171.705 356.619C171.705 357.166 171.786 357.658 171.95 358.095C172.113 358.533 172.355 358.879 172.675 359.135C172.998 359.387 173.396 359.514 173.869 359.514ZM182.232 360.894C181.713 360.894 181.244 360.798 180.825 360.606C180.405 360.411 180.073 360.128 179.828 359.759C179.586 359.389 179.465 358.936 179.465 358.399C179.465 357.937 179.554 357.557 179.732 357.258C179.91 356.96 180.15 356.724 180.452 356.549C180.754 356.375 181.091 356.244 181.465 356.155C181.838 356.066 182.218 355.999 182.605 355.952C183.096 355.895 183.494 355.849 183.8 355.814C184.105 355.775 184.327 355.712 184.466 355.627C184.605 355.542 184.674 355.403 184.674 355.211V355.174C184.674 354.708 184.542 354.348 184.279 354.092C184.02 353.836 183.633 353.708 183.117 353.708C182.581 353.708 182.158 353.827 181.848 354.065C181.543 354.3 181.331 354.561 181.214 354.849L179.716 354.508C179.894 354.01 180.153 353.608 180.494 353.303C180.839 352.994 181.235 352.77 181.683 352.631C182.131 352.489 182.602 352.418 183.096 352.418C183.423 352.418 183.769 352.457 184.135 352.535C184.505 352.61 184.85 352.748 185.17 352.951C185.493 353.153 185.758 353.443 185.964 353.82C186.17 354.193 186.273 354.678 186.273 355.275V360.713H184.717V359.593H184.653C184.55 359.8 184.395 360.002 184.189 360.201C183.983 360.4 183.718 360.566 183.394 360.697C183.071 360.829 182.684 360.894 182.232 360.894ZM182.579 359.615C183.019 359.615 183.396 359.528 183.709 359.354C184.025 359.179 184.265 358.952 184.429 358.671C184.596 358.387 184.679 358.083 184.679 357.76V356.704C184.622 356.761 184.512 356.814 184.349 356.864C184.189 356.91 184.006 356.951 183.8 356.987C183.593 357.019 183.393 357.049 183.197 357.077C183.002 357.102 182.838 357.123 182.707 357.141C182.398 357.18 182.115 357.246 181.859 357.338C181.607 357.431 181.404 357.564 181.251 357.738C181.102 357.909 181.027 358.136 181.027 358.421C181.027 358.815 181.173 359.114 181.465 359.316C181.756 359.515 182.127 359.615 182.579 359.615ZM189.111 363.784C188.873 363.784 188.656 363.764 188.46 363.725C188.265 363.69 188.119 363.65 188.023 363.608L188.407 362.302C188.698 362.38 188.958 362.414 189.185 362.403C189.413 362.392 189.614 362.307 189.788 362.147C189.966 361.987 190.122 361.726 190.257 361.363L190.454 360.82L187.458 352.524H189.164L191.238 358.879H191.323L193.397 352.524H195.108L191.734 361.806C191.577 362.232 191.378 362.593 191.137 362.888C190.895 363.187 190.607 363.411 190.273 363.56C189.939 363.709 189.551 363.784 189.111 363.784ZM202.743 354.524L201.298 354.779C201.237 354.595 201.141 354.419 201.01 354.252C200.882 354.085 200.708 353.948 200.487 353.841C200.267 353.735 199.992 353.681 199.661 353.681C199.21 353.681 198.833 353.783 198.531 353.985C198.229 354.184 198.078 354.442 198.078 354.758C198.078 355.032 198.179 355.252 198.382 355.419C198.584 355.586 198.911 355.723 199.363 355.83L200.663 356.128C201.417 356.302 201.978 356.571 202.348 356.933C202.718 357.296 202.902 357.767 202.902 358.346C202.902 358.836 202.76 359.274 202.476 359.657C202.195 360.038 201.802 360.336 201.298 360.553C200.797 360.77 200.216 360.878 199.554 360.878C198.638 360.878 197.889 360.683 197.31 360.292C196.731 359.897 196.375 359.338 196.244 358.613L197.785 358.378C197.881 358.78 198.078 359.083 198.376 359.29C198.675 359.492 199.064 359.593 199.544 359.593C200.066 359.593 200.484 359.485 200.797 359.268C201.109 359.048 201.266 358.78 201.266 358.463C201.266 358.207 201.17 357.992 200.978 357.818C200.79 357.644 200.5 357.513 200.109 357.424L198.723 357.12C197.959 356.946 197.394 356.668 197.028 356.288C196.665 355.908 196.484 355.426 196.484 354.843C196.484 354.36 196.619 353.937 196.889 353.575C197.159 353.212 197.532 352.93 198.008 352.727C198.485 352.521 199.03 352.418 199.645 352.418C200.53 352.418 201.227 352.61 201.735 352.994C202.243 353.374 202.579 353.884 202.743 354.524Z" fill="#101010"/>
<path d="M156.673 371.248V365.619H157.281V366.269H157.356C157.402 366.198 157.466 366.107 157.548 365.997C157.631 365.885 157.75 365.786 157.905 365.699C158.061 365.61 158.273 365.565 158.539 365.565C158.884 365.565 159.188 365.652 159.451 365.824C159.714 365.996 159.919 366.241 160.067 366.557C160.214 366.873 160.288 367.246 160.288 367.677C160.288 368.11 160.214 368.486 160.067 368.804C159.919 369.12 159.715 369.366 159.454 369.54C159.192 369.712 158.891 369.798 158.55 369.798C158.287 369.798 158.076 369.755 157.918 369.668C157.76 369.579 157.638 369.478 157.553 369.366C157.468 369.253 157.402 369.159 157.356 369.084H157.302V371.248H156.673ZM157.292 367.666C157.292 367.975 157.337 368.248 157.428 368.484C157.518 368.719 157.651 368.903 157.825 369.036C157.999 369.167 158.212 369.233 158.465 369.233C158.728 369.233 158.947 369.164 159.123 369.025C159.301 368.885 159.434 368.697 159.523 368.46C159.614 368.222 159.659 367.957 159.659 367.666C159.659 367.378 159.614 367.119 159.526 366.888C159.439 366.655 159.306 366.471 159.128 366.336C158.952 366.199 158.731 366.13 158.465 366.13C158.209 366.13 157.994 366.195 157.82 366.325C157.645 366.453 157.514 366.632 157.425 366.864C157.336 367.093 157.292 367.36 157.292 367.666ZM162.964 369.798C162.57 369.798 162.229 369.711 161.943 369.537C161.659 369.361 161.439 369.116 161.285 368.801C161.132 368.485 161.056 368.117 161.056 367.698C161.056 367.278 161.132 366.909 161.285 366.589C161.439 366.267 161.654 366.017 161.93 365.837C162.207 365.656 162.531 365.565 162.9 365.565C163.113 365.565 163.324 365.601 163.532 365.672C163.74 365.743 163.929 365.859 164.1 366.019C164.27 366.177 164.406 366.386 164.508 366.648C164.609 366.909 164.659 367.23 164.659 367.613V367.879H161.503V367.335H164.02C164.02 367.104 163.974 366.898 163.881 366.717C163.79 366.536 163.661 366.393 163.492 366.288C163.325 366.183 163.128 366.13 162.9 366.13C162.65 366.13 162.433 366.193 162.25 366.317C162.069 366.44 161.929 366.6 161.831 366.797C161.734 366.994 161.685 367.206 161.685 367.431V367.794C161.685 368.103 161.738 368.365 161.845 368.58C161.953 368.793 162.103 368.956 162.295 369.068C162.487 369.178 162.71 369.233 162.964 369.233C163.129 369.233 163.279 369.21 163.412 369.164C163.547 369.116 163.663 369.045 163.761 368.951C163.859 368.855 163.934 368.736 163.988 368.593L164.596 368.764C164.532 368.97 164.424 369.151 164.273 369.308C164.122 369.462 163.935 369.583 163.713 369.67C163.491 369.756 163.241 369.798 162.964 369.798ZM165.616 369.713V365.619H166.224V366.237H166.267C166.341 366.035 166.477 365.87 166.672 365.744C166.867 365.618 167.088 365.555 167.333 365.555C167.379 365.555 167.437 365.556 167.506 365.557C167.576 365.559 167.628 365.562 167.664 365.565V366.205C167.642 366.2 167.593 366.192 167.517 366.181C167.442 366.169 167.363 366.162 167.28 366.162C167.081 366.162 166.903 366.204 166.747 366.288C166.592 366.369 166.469 366.483 166.379 366.629C166.29 366.773 166.245 366.937 166.245 367.122V369.713H165.616ZM171.448 369.713L170.201 365.619H170.862L171.747 368.753H171.789L172.664 365.619H173.335L174.199 368.743H174.242L175.127 365.619H175.788L174.54 369.713H173.922L173.026 366.568H172.962L172.066 369.713H171.448ZM178.197 369.798C177.802 369.798 177.462 369.711 177.176 369.537C176.891 369.361 176.672 369.116 176.517 368.801C176.364 368.485 176.288 368.117 176.288 367.698C176.288 367.278 176.364 366.909 176.517 366.589C176.672 366.267 176.887 366.017 177.162 365.837C177.44 365.656 177.763 365.565 178.133 365.565C178.346 365.565 178.556 365.601 178.764 365.672C178.972 365.743 179.162 365.859 179.332 366.019C179.503 366.177 179.639 366.386 179.74 366.648C179.841 366.909 179.892 367.23 179.892 367.613V367.879H176.736V367.335H179.252C179.252 367.104 179.206 366.898 179.114 366.717C179.023 366.536 178.893 366.393 178.724 366.288C178.557 366.183 178.36 366.13 178.133 366.13C177.882 366.13 177.665 366.193 177.482 366.317C177.301 366.44 177.161 366.6 177.064 366.797C176.966 366.994 176.917 367.206 176.917 367.431V367.794C176.917 368.103 176.97 368.365 177.077 368.58C177.185 368.793 177.336 368.956 177.528 369.068C177.719 369.178 177.942 369.233 178.197 369.233C178.362 369.233 178.511 369.21 178.644 369.164C178.779 369.116 178.896 369.045 178.994 368.951C179.091 368.855 179.167 368.736 179.22 368.593L179.828 368.764C179.764 368.97 179.656 369.151 179.505 369.308C179.354 369.462 179.168 369.583 178.946 369.67C178.723 369.756 178.474 369.798 178.197 369.798ZM182.565 369.798C182.171 369.798 181.831 369.711 181.545 369.537C181.26 369.361 181.041 369.116 180.886 368.801C180.733 368.485 180.657 368.117 180.657 367.698C180.657 367.278 180.733 366.909 180.886 366.589C181.041 366.267 181.256 366.017 181.531 365.837C181.808 365.656 182.132 365.565 182.501 365.565C182.715 365.565 182.925 365.601 183.133 365.672C183.341 365.743 183.53 365.859 183.701 366.019C183.872 366.177 184.008 366.386 184.109 366.648C184.21 366.909 184.261 367.23 184.261 367.613V367.879H181.105V367.335H183.621C183.621 367.104 183.575 366.898 183.482 366.717C183.392 366.536 183.262 366.393 183.093 366.288C182.926 366.183 182.729 366.13 182.501 366.13C182.251 366.13 182.034 366.193 181.851 366.317C181.67 366.44 181.53 366.6 181.433 366.797C181.335 366.994 181.286 367.206 181.286 367.431V367.794C181.286 368.103 181.339 368.365 181.446 368.58C181.554 368.793 181.704 368.956 181.896 369.068C182.088 369.178 182.311 369.233 182.565 369.233C182.731 369.233 182.88 369.21 183.013 369.164C183.148 369.116 183.265 369.045 183.362 368.951C183.46 368.855 183.536 368.736 183.589 368.593L184.197 368.764C184.133 368.97 184.025 369.151 183.874 369.308C183.723 369.462 183.537 369.583 183.314 369.67C183.092 369.756 182.843 369.798 182.565 369.798ZM185.804 368.22L185.793 367.442H185.921L187.713 365.619H188.491L186.582 367.549H186.529L185.804 368.22ZM185.218 369.713V364.254H185.847V369.713H185.218ZM187.819 369.713L186.22 367.687L186.668 367.25L188.619 369.713H187.819Z" fill="#9CA3AF"/>
<defs>
<filter id="filter0_d_17769_50434" x="6.80554" y="238.876" width="28.8069" height="28.8057" filterUnits="userSpaceOnUse" color-interpolation-filters="sRGB">
<feFlood flood-opacity="0" result="BackgroundImageFix"/>
<feColorMatrix in="SourceAlpha" type="matrix" values="0 0 0 0 0 0 0 0 0 0 0 0 0 0 0 0 0 0 127 0" result="hardAlpha"/>
<feOffset dy="1.80036"/>
<feGaussianBlur stdDeviation="1.80036"/>
<feComposite in2="hardAlpha" operator="out"/>
<feColorMatrix type="matrix" values="0 0 0 0 0.0666667 0 0 0 0 0.0941176 0 0 0 0 0.152941 0 0 0 0.04 0"/>
<feBlend mode="normal" in2="BackgroundImageFix" result="effect1_dropShadow_17769_50434"/>
<feBlend mode="normal" in="SourceGraphic" in2="effect1_dropShadow_17769_50434" result="shape"/>
</filter>
<filter id="filter1_d_17769_50434" x="8.73786" y="347.796" width="26.0985" height="26.0971" filterUnits="userSpaceOnUse" color-interpolation-filters="sRGB">
<feFlood flood-opacity="0" result="BackgroundImageFix"/>
<feColorMatrix in="SourceAlpha" type="matrix" values="0 0 0 0 0 0 0 0 0 0 0 0 0 0 0 0 0 0 127 0" result="hardAlpha"/>
<feOffset dy="1.63107"/>
<feGaussianBlur stdDeviation="1.63107"/>
<feComposite in2="hardAlpha" operator="out"/>
<feColorMatrix type="matrix" values="0 0 0 0 0.0666667 0 0 0 0 0.0941176 0 0 0 0 0.152941 0 0 0 0.04 0"/>
<feBlend mode="normal" in2="BackgroundImageFix" result="effect1_dropShadow_17769_50434"/>
<feBlend mode="normal" in="SourceGraphic" in2="effect1_dropShadow_17769_50434" result="shape"/>
</filter>
</defs>
</svg>
