<svg width="70" height="70" viewBox="0 0 70 70" fill="none" xmlns="http://www.w3.org/2000/svg">
<rect width="70" height="70" rx="12" fill="#F3F4F6"/>
<path d="M53.7805 24.05L47.3832 50.1167C46.9276 52.0625 45.2191 53.4111 43.2449 53.4111H18.301C15.4345 53.4111 13.3844 50.5596 14.2386 47.7661L22.2305 21.7189C22.781 19.908 24.4326 18.6555 26.2929 18.6555H49.6422C51.4456 18.6555 52.9452 19.7729 53.5717 21.3142C53.9324 22.1426 54.0083 23.0867 53.7805 24.05Z" stroke="#193BFF" stroke-width="2" stroke-miterlimit="10"/>
<path d="M42.668 53.4111H51.7481C54.1986 53.4111 56.1172 51.3219 55.9463 48.8494L54.0657 22.7444" stroke="#193BFF" stroke-width="2" stroke-miterlimit="10" stroke-linecap="round" stroke-linejoin="round"/>
<path d="M30.3984 23.7666L32.4429 15.5889" stroke="#193BFF" stroke-width="2" stroke-miterlimit="10" stroke-linecap="round" stroke-linejoin="round"/>
<path d="M43.6875 23.7666L44.7097 15.5889" stroke="#193BFF" stroke-width="2" stroke-miterlimit="10" stroke-linecap="round" stroke-linejoin="round"/>
<path d="M26.3125 33.9888H41.6458" stroke="#193BFF" stroke-width="2" stroke-miterlimit="10" stroke-linecap="round" stroke-linejoin="round"/>
<path d="M24.2656 42.1667H39.599" stroke="#193BFF" stroke-width="2" stroke-miterlimit="10" stroke-linecap="round" stroke-linejoin="round"/>
</svg>
