<svg width="20" height="20" viewBox="0 0 20 20" fill="none" xmlns="http://www.w3.org/2000/svg">
<path d="M13.8212 1.6665H6.17753C3.68984 1.6665 1.66602 3.69033 1.66602 6.17802V13.8218C1.66602 16.3093 3.68984 18.3332 6.17753 18.3332H13.8213C16.3089 18.3332 18.3327 16.3093 18.3327 13.8218V6.17802C18.3327 3.69033 16.3089 1.6665 13.8212 1.6665ZM9.99935 14.557C7.48648 14.557 5.44218 12.5127 5.44218 9.99984C5.44218 7.48697 7.48648 5.44267 9.99935 5.44267C12.5122 5.44267 14.5565 7.48697 14.5565 9.99984C14.5565 12.5127 12.5122 14.557 9.99935 14.557ZM14.6655 6.5174C13.9229 6.5174 13.3189 5.91341 13.3189 5.17081C13.3189 4.42822 13.9229 3.8241 14.6655 3.8241C15.4081 3.8241 16.0122 4.42822 16.0122 5.17081C16.0122 5.91341 15.4081 6.5174 14.6655 6.5174Z" fill="black"/>
<path d="M10 6.41992C8.02604 6.41992 6.41992 8.02591 6.41992 10C6.41992 11.974 8.02604 13.5801 10 13.5801C11.9741 13.5801 13.5801 11.974 13.5801 10C13.5801 8.02591 11.9741 6.41992 10 6.41992Z" fill="black"/>
<path d="M14.6664 4.80127C14.4627 4.80127 14.2969 4.96708 14.2969 5.17079C14.2969 5.37449 14.4627 5.5403 14.6664 5.5403C14.8702 5.5403 15.036 5.37462 15.036 5.17079C15.036 4.96695 14.8702 4.80127 14.6664 4.80127Z" fill="black"/>
</svg>
