<svg width="20" height="20" viewBox="0 0 20 20" fill="none" xmlns="http://www.w3.org/2000/svg">
<path d="M8.71926 18.999C8.52841 18.9992 8.3373 18.9997 8.14646 19C6.90568 18.9153 5.80093 18.4914 4.86168 17.6834C4.01269 16.9527 3.44738 16.0406 3.16111 14.9636C3.07034 14.6216 3.01577 14.2737 3 13.9205C3 13.7232 3 13.5257 3 13.3284C3.06025 12.2529 3.4179 11.2816 4.06519 10.4169C4.72798 9.5316 5.5943 8.90863 6.64449 8.54495C7.44357 8.26804 8.26903 8.18306 9.11234 8.2808C9.19018 8.28974 9.1863 8.33159 9.18604 8.38467C9.18526 8.61003 9.18578 8.83538 9.18578 9.06048C9.18578 9.7618 9.18526 10.4634 9.1863 11.1647C9.1863 11.229 9.19819 11.2734 9.09553 11.2443C7.80846 10.8801 6.43192 11.63 6.04582 12.9007C5.65456 14.1887 6.37787 15.5562 7.66132 15.9551C9.16613 16.4226 10.7017 15.4561 10.9078 13.9103C10.9184 13.8307 10.9158 13.7492 10.9195 13.6686C10.9453 13.6114 10.9321 13.5512 10.9321 13.4925C10.9329 9.71229 10.9334 5.93233 10.9298 2.15212C10.9298 2.03038 10.9572 1.99925 11.0826 2.00001C12.0175 2.00614 12.9526 2.00359 13.8874 2.00359C13.8792 2.54132 13.9777 3.06093 14.197 3.55196C14.805 4.91378 15.8461 5.74322 17.3375 6.00737C17.5539 6.04565 17.774 6.05126 17.9928 6.0653C17.9946 6.62141 17.9964 7.17777 17.9979 7.73388C17.999 8.1458 17.9992 8.55771 18 8.96962C17.5588 8.99208 17.1246 8.93313 16.693 8.85452C15.716 8.67613 14.8215 8.30071 14.002 7.74868C13.9738 7.7298 13.9441 7.71346 13.9092 7.69228C13.8784 7.73771 13.8939 7.78492 13.8939 7.82755C13.8929 9.72786 13.89 11.6282 13.8944 13.5285C13.8965 14.3429 13.7434 15.1226 13.3971 15.8622C12.8479 17.0361 11.9771 17.9 10.8023 18.4684C10.1447 18.7864 9.44594 18.9464 8.719 18.999H8.71926Z" fill="black"/>
</svg>
