<svg width="24" height="24" viewBox="0 0 24 24" fill="none" xmlns="http://www.w3.org/2000/svg">
<path d="M13.2937 3.95994C13.7354 3.51114 14.2616 3.15422 14.842 2.90977C15.4223 2.66532 16.0453 2.53818 16.6751 2.53568C17.3048 2.53318 17.9288 2.65537 18.511 2.8952C19.0933 3.13503 19.6223 3.48775 20.0676 3.93304C20.5129 4.37832 20.8656 4.90735 21.1054 5.48962C21.3453 6.07189 21.4675 6.69587 21.465 7.3256C21.4625 7.95532 21.3353 8.57831 21.0909 9.15866C20.8464 9.739 20.4895 10.2652 20.0407 10.7069L17.0107 13.7369L15.5957 12.3239L18.6257 9.29294C19.1455 8.77339 19.4377 8.06861 19.4379 7.33365C19.438 6.5987 19.1463 5.89377 18.6267 5.37394C18.1071 4.85412 17.4024 4.56198 16.6674 4.56179C15.9325 4.56161 15.2275 4.85339 14.7077 5.37294L11.6767 8.40394L10.2627 6.98994L13.2937 3.95994ZM15.4137 9.99994L9.9987 15.4139L8.5847 13.9999L13.9987 8.58595L15.4137 9.99994ZM8.4037 11.6759L5.3737 14.7069C4.85388 15.2268 4.56184 15.9318 4.56184 16.6669C4.56184 17.4021 4.85388 18.1071 5.3737 18.6269C5.89353 19.1468 6.59856 19.4388 7.3337 19.4388C8.06885 19.4388 8.77388 19.1468 9.2937 18.6269L12.3237 15.5959L13.7377 17.0099L10.7077 20.0399C9.81299 20.9348 8.59946 21.4376 7.33406 21.4376C6.06866 21.4377 4.85504 20.9352 3.9602 20.0404C3.06536 19.1457 2.56259 17.9322 2.5625 16.6668C2.56241 15.4014 3.065 14.1878 3.9597 13.2929L6.9897 10.2629L8.4037 11.6759Z" fill="black"/>
</svg>
