<svg width="20" height="20" viewBox="0 0 20 20" fill="none" xmlns="http://www.w3.org/2000/svg">
<g clip-path="url(#clip0_20333_58765)">
<path d="M17.2727 0H2.72727C2.00396 0 1.31026 0.287337 0.7988 0.7988C0.287337 1.31026 0 2.00396 0 2.72727L0 17.2727C0 17.996 0.287337 18.6897 0.7988 19.2012C1.31026 19.7127 2.00396 20 2.72727 20H17.2727C17.996 20 18.6897 19.7127 19.2012 19.2012C19.7127 18.6897 20 17.996 20 17.2727V2.72727C20 2.00396 19.7127 1.31026 19.2012 0.7988C18.6897 0.287337 17.996 0 17.2727 0ZM16.25 6.28295C16.2497 6.36695 16.2162 6.44742 16.1568 6.50681C16.0974 6.5662 16.0169 6.5997 15.933 6.6H15.4659C15.418 6.61884 15.3735 6.64532 15.3341 6.67841C15.2035 6.80345 15.1072 6.95998 15.0545 7.13295C15.055 7.13673 15.055 7.14054 15.0545 7.14432C15.0352 7.19545 13.0477 12.1943 12.3705 13.8489L12.3636 13.8636C12.3101 13.9829 12.2409 14.0944 12.158 14.1955C12.1063 14.2632 12.0403 14.3187 11.9646 14.358C11.889 14.3973 11.8056 14.4194 11.7205 14.4227C11.3341 14.4227 11.1409 13.9841 11.0773 13.8386C10.8807 13.4091 10.5307 12.5739 10.0307 11.3636C9.65 12.2216 9.16477 13.3023 8.89432 13.8511V13.858C8.76591 14.1023 8.55341 14.4261 8.22386 14.4261C7.83523 14.4261 7.65568 13.9886 7.59886 13.8455V13.8398C7.26023 12.9807 6.74432 11.7716 6.25 10.6023C5.70568 9.33636 4.59318 6.63068 4.56591 6.6H4.06705C3.98305 6.5997 3.90258 6.5662 3.84319 6.50681C3.7838 6.44742 3.7503 6.36695 3.75 6.28295V5.88409C3.7506 5.80029 3.78423 5.72012 3.84359 5.66097C3.90295 5.60182 3.98325 5.56848 4.06705 5.56818H6.93182C7.01581 5.56848 7.09628 5.60198 7.15567 5.66137C7.21507 5.72077 7.24856 5.80123 7.24886 5.88523V6.28409C7.24827 6.36789 7.21463 6.44806 7.15527 6.50721C7.09591 6.56636 7.01562 6.5997 6.93182 6.6H6.36364C6.37159 6.62727 6.38295 6.66023 6.39773 6.7C6.80909 7.8125 8.03296 10.6818 8.54432 11.8739L9.43182 9.92386C9.32841 9.67159 7.9625 6.67955 7.90909 6.6H7.63409C7.5501 6.5997 7.46963 6.5662 7.41024 6.50681C7.35084 6.44742 7.31735 6.36695 7.31705 6.28295V5.88409C7.31764 5.80029 7.35127 5.72012 7.41063 5.66097C7.47 5.60182 7.55029 5.56848 7.63409 5.56818H9.69886C9.78286 5.56848 9.86333 5.60198 9.92272 5.66137C9.98211 5.72077 10.0156 5.80123 10.0159 5.88523V6.28409C10.0156 6.36808 9.98211 6.44855 9.92272 6.50795C9.86333 6.56734 9.78286 6.60084 9.69886 6.60114H9.63068C9.67045 6.69773 10.2818 8.06818 10.2818 8.06818C10.2818 8.06818 10.9261 6.63977 10.9375 6.60114H10.6659C10.5819 6.60084 10.5014 6.56734 10.4421 6.50795C10.3827 6.44855 10.3492 6.36808 10.3489 6.28409V5.88409C10.3495 5.80029 10.3831 5.72012 10.4425 5.66097C10.5018 5.60182 10.5821 5.56848 10.6659 5.56818H12.6136C12.6976 5.56848 12.7781 5.60198 12.8375 5.66137C12.8969 5.72077 12.9304 5.80123 12.9307 5.88523V6.28409C12.9301 6.36789 12.8965 6.44806 12.8371 6.50721C12.7777 6.56636 12.6974 6.5997 12.6136 6.6H12.3136C12.3136 6.60682 10.8875 9.42955 10.8875 9.42955L11.9705 11.8648C11.9705 11.8648 13.9773 6.60455 13.9773 6.6H13.3125C13.2285 6.5997 13.148 6.5662 13.0886 6.50681C13.0293 6.44742 12.9958 6.36695 12.9955 6.28295V5.88409C12.9961 5.80029 13.0297 5.72012 13.089 5.66097C13.1484 5.60182 13.2287 5.56848 13.3125 5.56818H15.933C16.0168 5.56848 16.097 5.60182 16.1564 5.66097C16.2158 5.72012 16.2494 5.80029 16.25 5.88409V6.28295Z" fill="black"/>
</g>
<defs>
<clipPath id="clip0_20333_58765">
<rect width="20" height="20" fill="white"/>
</clipPath>
</defs>
</svg>
