<svg width="776" height="272" viewBox="0 0 776 272" fill="none" xmlns="http://www.w3.org/2000/svg">
<g clip-path="url(#clip0_23696_180844)">
<rect width="776" height="272" fill="#F8F8F8"/>
<path opacity="0.3" d="M-328.781 279.182C-198.061 231.784 37.3783 188.223 264.767 151.998C373.994 134.596 491.194 116.565 604.846 106.207C718.499 95.8487 809.777 98.2912 817.064 116C824.859 135.01 653.326 137.723 575.288 161.5C499.46 184.608 418.208 228.522 456.983 244.791C475.287 252.464 589.519 260.42 647.084 256.997C709.899 253.269 777.258 247.267 844.208 239.313C980.424 223.127 1099.72 199.553 1222.39 177.198C1345.07 154.843 1483.34 134.724 1619.33 125.047C1742.28 116.299 1854.35 115.254 1923.14 124.191C1932.57 125.416 1945.09 124 1953.84 120.519C1962.58 117.039 1962.55 112.364 1952.71 111.089C1829.02 95.0239 1584.3 106.202 1355.4 141.013C1220.86 161.469 1103.72 187.31 970.837 208.29C903.156 218.973 901.059 212.569 831.717 219.178C797.277 222.459 763.47 225.132 730.757 227.125C698.043 229.118 662.36 231.331 638.116 230.471C591.928 228.838 656.268 210.359 687.466 201.092C731.936 187.884 777.827 174.758 817.064 161.5C831.717 156.549 870.831 126.987 858.972 107.886C844.208 75.5428 778.213 68.8562 663.828 75.5428C554.808 81.9121 432.389 99.0259 322.288 116C64.541 155.739 -204.485 203.262 -352.714 257.001C-363.636 260.958 -365.332 278.073 -358.834 280.343C-355.342 281.548 -340.042 283.252 -328.84 279.18L-328.781 279.182Z" fill="#87AA14" fill-opacity="0.5"/>
</g>
<defs>
<clipPath id="clip0_23696_180844">
<rect width="776" height="272" fill="white"/>
</clipPath>
</defs>
</svg>
