<svg width="369" height="576" viewBox="0 0 369 576" fill="none" xmlns="http://www.w3.org/2000/svg">
<g clip-path="url(#clip0_23696_180846)">
<rect width="369" height="576" fill="#F8F8F8"/>
<path opacity="0.3" d="M-751.781 564.077C-621.061 516.679 -385.622 473.117 -158.233 436.893C-49.0056 419.491 68.1936 401.46 181.846 391.102C295.499 380.743 386.777 383.186 394.064 400.895C401.859 419.905 230.326 422.617 152.288 446.395C76.4599 469.502 -4.79207 513.417 33.9828 529.685C52.2872 537.359 166.519 545.315 224.084 541.891C286.899 538.164 354.258 532.162 421.208 524.208C557.424 508.022 676.721 484.448 799.394 462.093C922.067 439.738 1060.34 419.619 1196.33 409.941C1319.28 401.194 1431.35 400.149 1500.14 409.085C1509.57 410.311 1522.09 408.894 1530.84 405.414C1539.58 401.933 1539.55 397.258 1529.71 395.983C1406.02 379.918 1161.3 391.097 932.395 425.907C797.865 446.363 680.719 472.204 547.837 493.184C480.156 503.867 478.059 497.463 408.717 504.072C374.277 507.353 340.47 510.027 307.757 512.02C275.043 514.013 239.36 516.225 215.116 515.366C168.928 513.732 233.268 495.254 264.466 485.986C308.936 472.778 354.827 459.653 394.064 446.395C408.717 441.444 447.831 411.881 435.972 392.781C421.208 360.437 355.213 353.751 240.828 360.437C131.808 366.807 9.38903 383.92 -100.712 400.895C-358.459 440.634 -627.485 488.157 -775.714 541.895C-786.636 545.852 -788.332 562.967 -781.834 565.237C-778.342 566.443 -763.042 568.146 -751.84 564.075L-751.781 564.077Z" fill="#87AA14" fill-opacity="0.5"/>
</g>
<defs>
<clipPath id="clip0_23696_180846">
<rect width="369" height="576" fill="white"/>
</clipPath>
</defs>
</svg>
