<svg width="1920" height="551" viewBox="0 0 1920 551" fill="none" xmlns="http://www.w3.org/2000/svg">
<g clip-path="url(#clip0_22982_113018)">
<rect width="1920" height="551" fill="#F8F8F8"/>
<path d="M628.229 53.3242H597.152V84.4011M628.229 53.3242V84.4011M628.229 53.3242H659.306M628.229 84.4011H597.152M628.229 84.4011V115.478M628.229 84.4011H659.306M597.152 84.4011V115.478M628.229 115.478H597.152M628.229 115.478V146.555M628.229 115.478H659.306M597.152 115.478V146.555M628.229 146.555H597.152M628.229 146.555V177.632M628.229 146.555H659.306M597.152 146.555V177.632M628.229 177.632H597.152M628.229 177.632V208.709M628.229 177.632H659.306M597.152 177.632V208.709M628.229 208.709H597.152M628.229 208.709V239.786M628.229 208.709H659.306M597.152 208.709V239.786M628.229 239.786H597.152M628.229 239.786V270.862M628.229 239.786H659.306M597.152 239.786V270.862M628.229 270.862H597.152M628.229 270.862V301.939M628.229 270.862H659.306M597.152 270.862V301.939M628.229 301.939H597.152M628.229 301.939V333.016M628.229 301.939H659.306M597.152 301.939V333.016M628.229 333.016H597.152M628.229 333.016V364.093M628.229 333.016H659.306M597.152 333.016V364.093M628.229 364.093H597.152M628.229 364.093V395.17M628.229 364.093H659.306M597.152 364.093V395.17M628.229 395.17H597.152M628.229 395.17V426.247M628.229 395.17H659.306M597.152 395.17V426.247M628.229 426.247H597.152M628.229 426.247V457.324M628.229 426.247H659.306M597.152 426.247V457.324M628.229 457.324H597.152M628.229 457.324V488.401M628.229 457.324H659.306M597.152 457.324V488.401M628.229 488.401H597.152M628.229 488.401V519.478M628.229 488.401H659.306M597.152 488.401V519.478M628.229 519.478H597.152M628.229 519.478V550.555M628.229 519.478H659.306M597.152 519.478V550.555M628.229 550.555H597.152M628.229 550.555V581.631M628.229 550.555H659.306M597.152 550.555V581.631M628.229 581.631H597.152M628.229 581.631V612.708M628.229 581.631H659.306M597.152 581.631V612.708M628.229 612.708H597.152M628.229 612.708V643.785M628.229 612.708H659.306M597.152 612.708V643.785M628.229 643.785H597.152M628.229 643.785V674.862M628.229 643.785H659.306M597.152 643.785V674.862H628.229M628.229 674.862H659.306M659.306 53.3242V84.4011M659.306 53.3242H690.383M659.306 84.4011V115.478M659.306 84.4011H690.383M659.306 115.478V146.555M659.306 115.478H690.383M659.306 146.555V177.632M659.306 146.555H690.383M659.306 177.632V208.709M659.306 177.632H690.383M659.306 208.709V239.786M659.306 208.709H690.383M659.306 239.786V270.862M659.306 239.786H690.383M659.306 270.862V301.939M659.306 270.862H690.383M659.306 301.939V333.016M659.306 301.939H690.383M659.306 333.016V364.093M659.306 333.016H690.383M659.306 364.093V395.17M659.306 364.093H690.383M659.306 395.17V426.247M659.306 395.17H690.383M659.306 426.247V457.324M659.306 426.247H690.383M659.306 457.324V488.401M659.306 457.324H690.383M659.306 488.401V519.478M659.306 488.401H690.383M659.306 519.478V550.555M659.306 519.478H690.383M659.306 550.555V581.631M659.306 550.555H690.383M659.306 581.631V612.708M659.306 581.631H690.383M659.306 612.708V643.785M659.306 612.708H690.383M659.306 643.785V674.862M659.306 643.785H690.383M659.306 674.862H690.383M690.383 53.3242V84.4011M690.383 53.3242H721.46M690.383 84.4011V115.478M690.383 84.4011H721.46M690.383 115.478V146.555M690.383 115.478H721.46M690.383 146.555V177.632M690.383 146.555H721.46M690.383 177.632V208.709M690.383 177.632H721.46M690.383 208.709V239.786M690.383 208.709H721.46M690.383 239.786V270.862M690.383 239.786H721.46M690.383 270.862V301.939M690.383 270.862H721.46M690.383 301.939V333.016M690.383 301.939H721.46M690.383 333.016V364.093M690.383 333.016H721.46M690.383 364.093V395.17M690.383 364.093H721.46M690.383 395.17V426.247M690.383 395.17H721.46M690.383 426.247V457.324M690.383 426.247H721.46M690.383 457.324V488.401M690.383 457.324H721.46M690.383 488.401V519.478M690.383 488.401H721.46M690.383 519.478V550.555M690.383 519.478H721.46M690.383 550.555V581.631M690.383 550.555H721.46M690.383 581.631V612.708M690.383 581.631H721.46M690.383 612.708V643.785M690.383 612.708H721.46M690.383 643.785V674.862M690.383 643.785H721.46M690.383 674.862H721.46M721.46 53.3242V84.4011M721.46 53.3242H752.537M721.46 84.4011V115.478M721.46 84.4011H752.537M721.46 115.478V146.555M721.46 115.478H752.537M721.46 146.555V177.632M721.46 146.555H752.537M721.46 177.632V208.709M721.46 177.632H752.537M721.46 208.709V239.786M721.46 208.709H752.537M721.46 239.786V270.862M721.46 239.786H752.537M721.46 270.862V301.939M721.46 270.862H752.537M721.46 301.939V333.016M721.46 301.939H752.537M721.46 333.016V364.093M721.46 333.016H752.537M721.46 364.093V395.17M721.46 364.093H752.537M721.46 395.17V426.247M721.46 395.17H752.537M721.46 426.247V457.324M721.46 426.247H752.537M721.46 457.324V488.401M721.46 457.324H752.537M721.46 488.401V519.478M721.46 488.401H752.537M721.46 519.478V550.555M721.46 519.478H752.537M721.46 550.555V581.631M721.46 550.555H752.537M721.46 581.631V612.708M721.46 581.631H752.537M721.46 612.708V643.785M721.46 612.708H752.537M721.46 643.785V674.862M721.46 643.785H752.537M721.46 674.862H752.537M752.537 53.3242V84.4011M752.537 53.3242H783.614M752.537 84.4011V115.478M752.537 84.4011H783.614M752.537 115.478V146.555M752.537 115.478H783.614M752.537 146.555V177.632M752.537 146.555H783.614M752.537 177.632V208.709M752.537 177.632H783.614M752.537 208.709V239.786M752.537 208.709H783.614M752.537 239.786V270.862M752.537 239.786H783.614M752.537 270.862V301.939M752.537 270.862H783.614M752.537 301.939V333.016M752.537 301.939H783.614M752.537 333.016V364.093M752.537 333.016H783.614M752.537 364.093V395.17M752.537 364.093H783.614M752.537 395.17V426.247M752.537 395.17H783.614M752.537 426.247V457.324M752.537 426.247H783.614M752.537 457.324V488.401M752.537 457.324H783.614M752.537 488.401V519.478M752.537 488.401H783.614M752.537 519.478V550.555M752.537 519.478H783.614M752.537 550.555V581.631M752.537 550.555H783.614M752.537 581.631V612.708M752.537 581.631H783.614M752.537 612.708V643.785M752.537 612.708H783.614M752.537 643.785V674.862M752.537 643.785H783.614M752.537 674.862H783.614M783.614 53.3242V84.4011M783.614 53.3242H814.691M783.614 84.4011V115.478M783.614 84.4011H814.691M783.614 115.478V146.555M783.614 115.478H814.691M783.614 146.555V177.632M783.614 146.555H814.691M783.614 177.632V208.709M783.614 177.632H814.691M783.614 208.709V239.786M783.614 208.709H814.691M783.614 239.786V270.862M783.614 239.786H814.691M783.614 270.862V301.939M783.614 270.862H814.691M783.614 301.939V333.016M783.614 301.939H814.691M783.614 333.016V364.093M783.614 333.016H814.691M783.614 364.093V395.17M783.614 364.093H814.691M783.614 395.17V426.247M783.614 395.17H814.691M783.614 426.247V457.324M783.614 426.247H814.691M783.614 457.324V488.401M783.614 457.324H814.691M783.614 488.401V519.478M783.614 488.401H814.691M783.614 519.478V550.555M783.614 519.478H814.691M783.614 550.555V581.631M783.614 550.555H814.691M783.614 581.631V612.708M783.614 581.631H814.691M783.614 612.708V643.785M783.614 612.708H814.691M783.614 643.785V674.862M783.614 643.785H814.691M783.614 674.862H814.691M814.691 53.3242V84.4011M814.691 53.3242H845.768M814.691 84.4011V115.478M814.691 84.4011H845.768M814.691 115.478V146.555M814.691 115.478H845.768M814.691 146.555V177.632M814.691 146.555H845.768M814.691 177.632V208.709M814.691 177.632H845.768M814.691 208.709V239.786M814.691 208.709H845.768M814.691 239.786V270.862M814.691 239.786H845.768M814.691 270.862V301.939M814.691 270.862H845.768M814.691 301.939V333.016M814.691 301.939H845.768M814.691 333.016V364.093M814.691 333.016H845.768M814.691 364.093V395.17M814.691 364.093H845.768M814.691 395.17V426.247M814.691 395.17H845.768M814.691 426.247V457.324M814.691 426.247H845.768M814.691 457.324V488.401M814.691 457.324H845.768M814.691 488.401V519.478M814.691 488.401H845.768M814.691 519.478V550.555M814.691 519.478H845.768M814.691 550.555V581.631M814.691 550.555H845.768M814.691 581.631V612.708M814.691 581.631H845.768M814.691 612.708V643.785M814.691 612.708H845.768M814.691 643.785V674.862M814.691 643.785H845.768M814.691 674.862H845.768M845.768 53.3242V84.4011M845.768 53.3242H876.844M845.768 84.4011V115.478M845.768 84.4011H876.844M845.768 115.478V146.555M845.768 115.478H876.844M845.768 146.555V177.632M845.768 146.555H876.844M845.768 177.632V208.709M845.768 177.632H876.844M845.768 208.709V239.786M845.768 208.709H876.844M845.768 239.786V270.862M845.768 239.786H876.844M845.768 270.862V301.939M845.768 270.862H876.844M845.768 301.939V333.016M845.768 301.939H876.844M845.768 333.016V364.093M845.768 333.016H876.844M845.768 364.093V395.17M845.768 364.093H876.844M845.768 395.17V426.247M845.768 395.17H876.844M845.768 426.247V457.324M845.768 426.247H876.844M845.768 457.324V488.401M845.768 457.324H876.844M845.768 488.401V519.478M845.768 488.401H876.844M845.768 519.478V550.555M845.768 519.478H876.844M845.768 550.555V581.631M845.768 550.555H876.844M845.768 581.631V612.708M845.768 581.631H876.844M845.768 612.708V643.785M845.768 612.708H876.844M845.768 643.785V674.862M845.768 643.785H876.844M845.768 674.862H876.844M876.844 53.3242V84.4011M876.844 53.3242H907.921M876.844 84.4011V115.478M876.844 84.4011H907.921M876.844 115.478V146.555M876.844 115.478H907.921M876.844 146.555V177.632M876.844 146.555H907.921M876.844 177.632V208.709M876.844 177.632H907.921M876.844 208.709V239.786M876.844 208.709H907.921M876.844 239.786V270.862M876.844 239.786H907.921M876.844 270.862V301.939M876.844 270.862H907.921M876.844 301.939V333.016M876.844 301.939H907.921M876.844 333.016V364.093M876.844 333.016H907.921M876.844 364.093V395.17M876.844 364.093H907.921M876.844 395.17V426.247M876.844 395.17H907.921M876.844 426.247V457.324M876.844 426.247H907.921M876.844 457.324V488.401M876.844 457.324H907.921M876.844 488.401V519.478M876.844 488.401H907.921M876.844 519.478V550.555M876.844 519.478H907.921M876.844 550.555V581.631M876.844 550.555H907.921M876.844 581.631V612.708M876.844 581.631H907.921M876.844 612.708V643.785M876.844 612.708H907.921M876.844 643.785V674.862M876.844 643.785H907.921M876.844 674.862H907.921M907.921 53.3242V84.4011M907.921 53.3242H938.998M907.921 84.4011V115.478M907.921 84.4011H938.998M907.921 115.478V146.555M907.921 115.478H938.998M907.921 146.555V177.632M907.921 146.555H938.998M907.921 177.632V208.709M907.921 177.632H938.998M907.921 208.709V239.786M907.921 208.709H938.998M907.921 239.786V270.862M907.921 239.786H938.998M907.921 270.862V301.939M907.921 270.862H938.998M907.921 301.939V333.016M907.921 301.939H938.998M907.921 333.016V364.093M907.921 333.016H938.998M907.921 364.093V395.17M907.921 364.093H938.998M907.921 395.17V426.247M907.921 395.17H938.998M907.921 426.247V457.324M907.921 426.247H938.998M907.921 457.324V488.401M907.921 457.324H938.998M907.921 488.401V519.478M907.921 488.401H938.998M907.921 519.478V550.555M907.921 519.478H938.998M907.921 550.555V581.631M907.921 550.555H938.998M907.921 581.631V612.708M907.921 581.631H938.998M907.921 612.708V643.785M907.921 612.708H938.998M907.921 643.785V674.862M907.921 643.785H938.998M907.921 674.862H938.998M938.998 53.3242V84.4011M938.998 53.3242H970.075M938.998 84.4011V115.478M938.998 84.4011H970.075M938.998 115.478V146.555M938.998 115.478H970.075M938.998 146.555V177.632M938.998 146.555H970.075M938.998 177.632V208.709M938.998 177.632H970.075M938.998 208.709V239.786M938.998 208.709H970.075M938.998 239.786V270.862M938.998 239.786H970.075M938.998 270.862V301.939M938.998 270.862H970.075M938.998 301.939V333.016M938.998 301.939H970.075M938.998 333.016V364.093M938.998 333.016H970.075M938.998 364.093V395.17M938.998 364.093H970.075M938.998 395.17V426.247M938.998 395.17H970.075M938.998 426.247V457.324M938.998 426.247H970.075M938.998 457.324V488.401M938.998 457.324H970.075M938.998 488.401V519.478M938.998 488.401H970.075M938.998 519.478V550.555M938.998 519.478H970.075M938.998 550.555V581.631M938.998 550.555H970.075M938.998 581.631V612.708M938.998 581.631H970.075M938.998 612.708V643.785M938.998 612.708H970.075M938.998 643.785V674.862M938.998 643.785H970.075M938.998 674.862H970.075M970.075 53.3242V84.4011M970.075 53.3242H1001.15M970.075 84.4011V115.478M970.075 84.4011H1001.15M970.075 115.478V146.555M970.075 115.478H1001.15M970.075 146.555V177.632M970.075 146.555H1001.15M970.075 177.632V208.709M970.075 177.632H1001.15M970.075 208.709V239.786M970.075 208.709H1001.15M970.075 239.786V270.862M970.075 239.786H1001.15M970.075 270.862V301.939M970.075 270.862H1001.15M970.075 301.939V333.016M970.075 301.939H1001.15M970.075 333.016V364.093M970.075 333.016H1001.15M970.075 364.093V395.17M970.075 364.093H1001.15M970.075 395.17V426.247M970.075 395.17H1001.15M970.075 426.247V457.324M970.075 426.247H1001.15M970.075 457.324V488.401M970.075 457.324H1001.15M970.075 488.401V519.478M970.075 488.401H1001.15M970.075 519.478V550.555M970.075 519.478H1001.15M970.075 550.555V581.631M970.075 550.555H1001.15M970.075 581.631V612.708M970.075 581.631H1001.15M970.075 612.708V643.785M970.075 612.708H1001.15M970.075 643.785V674.862M970.075 643.785H1001.15M970.075 674.862H1001.15M1001.15 53.3242V84.4011M1001.15 53.3242H1032.23M1001.15 84.4011V115.478M1001.15 84.4011H1032.23M1001.15 115.478V146.555M1001.15 115.478H1032.23M1001.15 146.555V177.632M1001.15 146.555H1032.23M1001.15 177.632V208.709M1001.15 177.632H1032.23M1001.15 208.709V239.786M1001.15 208.709H1032.23M1001.15 239.786V270.862M1001.15 239.786H1032.23M1001.15 270.862V301.939M1001.15 270.862H1032.23M1001.15 301.939V333.016M1001.15 301.939H1032.23M1001.15 333.016V364.093M1001.15 333.016H1032.23M1001.15 364.093V395.17M1001.15 364.093H1032.23M1001.15 395.17V426.247M1001.15 395.17H1032.23M1001.15 426.247V457.324M1001.15 426.247H1032.23M1001.15 457.324V488.401M1001.15 457.324H1032.23M1001.15 488.401V519.478M1001.15 488.401H1032.23M1001.15 519.478V550.555M1001.15 519.478H1032.23M1001.15 550.555V581.631M1001.15 550.555H1032.23M1001.15 581.631V612.708M1001.15 581.631H1032.23M1001.15 612.708V643.785M1001.15 612.708H1032.23M1001.15 643.785V674.862M1001.15 643.785H1032.23M1001.15 674.862H1032.23M1032.23 53.3242V84.4011M1032.23 53.3242H1063.31M1032.23 84.4011V115.478M1032.23 84.4011H1063.31M1032.23 115.478V146.555M1032.23 115.478H1063.31M1032.23 146.555V177.632M1032.23 146.555H1063.31M1032.23 177.632V208.709M1032.23 177.632H1063.31M1032.23 208.709V239.786M1032.23 208.709H1063.31M1032.23 239.786V270.862M1032.23 239.786H1063.31M1032.23 270.862V301.939M1032.23 270.862H1063.31M1032.23 301.939V333.016M1032.23 301.939H1063.31M1032.23 333.016V364.093M1032.23 333.016H1063.31M1032.23 364.093V395.17M1032.23 364.093H1063.31M1032.23 395.17V426.247M1032.23 395.17H1063.31M1032.23 426.247V457.324M1032.23 426.247H1063.31M1032.23 457.324V488.401M1032.23 457.324H1063.31M1032.23 488.401V519.478M1032.23 488.401H1063.31M1032.23 519.478V550.555M1032.23 519.478H1063.31M1032.23 550.555V581.631M1032.23 550.555H1063.31M1032.23 581.631V612.708M1032.23 581.631H1063.31M1032.23 612.708V643.785M1032.23 612.708H1063.31M1032.23 643.785V674.862M1032.23 643.785H1063.31M1032.23 674.862H1063.31M1063.31 53.3242V84.4011M1063.31 53.3242H1094.38M1063.31 84.4011V115.478M1063.31 84.4011H1094.38M1063.31 115.478V146.555M1063.31 115.478H1094.38M1063.31 146.555V177.632M1063.31 146.555H1094.38M1063.31 177.632V208.709M1063.31 177.632H1094.38M1063.31 208.709V239.786M1063.31 208.709H1094.38M1063.31 239.786V270.862M1063.31 239.786H1094.38M1063.31 270.862V301.939M1063.31 270.862H1094.38M1063.31 301.939V333.016M1063.31 301.939H1094.38M1063.31 333.016V364.093M1063.31 333.016H1094.38M1063.31 364.093V395.17M1063.31 364.093H1094.38M1063.31 395.17V426.247M1063.31 395.17H1094.38M1063.31 426.247V457.324M1063.31 426.247H1094.38M1063.31 457.324V488.401M1063.31 457.324H1094.38M1063.31 488.401V519.478M1063.31 488.401H1094.38M1063.31 519.478V550.555M1063.31 519.478H1094.38M1063.31 550.555V581.631M1063.31 550.555H1094.38M1063.31 581.631V612.708M1063.31 581.631H1094.38M1063.31 612.708V643.785M1063.31 612.708H1094.38M1063.31 643.785V674.862M1063.31 643.785H1094.38M1063.31 674.862H1094.38M1094.38 53.3242V84.4011M1094.38 53.3242H1125.46M1094.38 84.4011V115.478M1094.38 84.4011H1125.46M1094.38 115.478V146.555M1094.38 115.478H1125.46M1094.38 146.555V177.632M1094.38 146.555H1125.46M1094.38 177.632V208.709M1094.38 177.632H1125.46M1094.38 208.709V239.786M1094.38 208.709H1125.46M1094.38 239.786V270.862M1094.38 239.786H1125.46M1094.38 270.862V301.939M1094.38 270.862H1125.46M1094.38 301.939V333.016M1094.38 301.939H1125.46M1094.38 333.016V364.093M1094.38 333.016H1125.46M1094.38 364.093V395.17M1094.38 364.093H1125.46M1094.38 395.17V426.247M1094.38 395.17H1125.46M1094.38 426.247V457.324M1094.38 426.247H1125.46M1094.38 457.324V488.401M1094.38 457.324H1125.46M1094.38 488.401V519.478M1094.38 488.401H1125.46M1094.38 519.478V550.555M1094.38 519.478H1125.46M1094.38 550.555V581.631M1094.38 550.555H1125.46M1094.38 581.631V612.708M1094.38 581.631H1125.46M1094.38 612.708V643.785M1094.38 612.708H1125.46M1094.38 643.785V674.862M1094.38 643.785H1125.46M1094.38 674.862H1125.46M1125.46 53.3242V84.4011M1125.46 53.3242H1156.54M1125.46 84.4011V115.478M1125.46 84.4011H1156.54M1125.46 115.478V146.555M1125.46 115.478H1156.54M1125.46 146.555V177.632M1125.46 146.555H1156.54M1125.46 177.632V208.709M1125.46 177.632H1156.54M1125.46 208.709V239.786M1125.46 208.709H1156.54M1125.46 239.786V270.862M1125.46 239.786H1156.54M1125.46 270.862V301.939M1125.46 270.862H1156.54M1125.46 301.939V333.016M1125.46 301.939H1156.54M1125.46 333.016V364.093M1125.46 333.016H1156.54M1125.46 364.093V395.17M1125.46 364.093H1156.54M1125.46 395.17V426.247M1125.46 395.17H1156.54M1125.46 426.247V457.324M1125.46 426.247H1156.54M1125.46 457.324V488.401M1125.46 457.324H1156.54M1125.46 488.401V519.478M1125.46 488.401H1156.54M1125.46 519.478V550.555M1125.46 519.478H1156.54M1125.46 550.555V581.631M1125.46 550.555H1156.54M1125.46 581.631V612.708M1125.46 581.631H1156.54M1125.46 612.708V643.785M1125.46 612.708H1156.54M1125.46 643.785V674.862M1125.46 643.785H1156.54M1125.46 674.862H1156.54M1156.54 53.3242V84.4011M1156.54 53.3242H1187.61M1156.54 84.4011V115.478M1156.54 84.4011H1187.61M1156.54 115.478V146.555M1156.54 115.478H1187.61M1156.54 146.555V177.632M1156.54 146.555H1187.61M1156.54 177.632V208.709M1156.54 177.632H1187.61M1156.54 208.709V239.786M1156.54 208.709H1187.61M1156.54 239.786V270.862M1156.54 239.786H1187.61M1156.54 270.862V301.939M1156.54 270.862H1187.61M1156.54 301.939V333.016M1156.54 301.939H1187.61M1156.54 333.016V364.093M1156.54 333.016H1187.61M1156.54 364.093V395.17M1156.54 364.093H1187.61M1156.54 395.17V426.247M1156.54 395.17H1187.61M1156.54 426.247V457.324M1156.54 426.247H1187.61M1156.54 457.324V488.401M1156.54 457.324H1187.61M1156.54 488.401V519.478M1156.54 488.401H1187.61M1156.54 519.478V550.555M1156.54 519.478H1187.61M1156.54 550.555V581.631M1156.54 550.555H1187.61M1156.54 581.631V612.708M1156.54 581.631H1187.61M1156.54 612.708V643.785M1156.54 612.708H1187.61M1156.54 643.785V674.862M1156.54 643.785H1187.61M1156.54 674.862H1187.61M1187.61 53.3242V84.4011M1187.61 53.3242H1218.69M1187.61 84.4011V115.478M1187.61 84.4011H1218.69M1187.61 115.478V146.555M1187.61 115.478H1218.69M1187.61 146.555V177.632M1187.61 146.555H1218.69M1187.61 177.632V208.709M1187.61 177.632H1218.69M1187.61 208.709V239.786M1187.61 208.709H1218.69M1187.61 239.786V270.862M1187.61 239.786H1218.69M1187.61 270.862V301.939M1187.61 270.862H1218.69M1187.61 301.939V333.016M1187.61 301.939H1218.69M1187.61 333.016V364.093M1187.61 333.016H1218.69M1187.61 364.093V395.17M1187.61 364.093H1218.69M1187.61 395.17V426.247M1187.61 395.17H1218.69M1187.61 426.247V457.324M1187.61 426.247H1218.69M1187.61 457.324V488.401M1187.61 457.324H1218.69M1187.61 488.401V519.478M1187.61 488.401H1218.69M1187.61 519.478V550.555M1187.61 519.478H1218.69M1187.61 550.555V581.631M1187.61 550.555H1218.69M1187.61 581.631V612.708M1187.61 581.631H1218.69M1187.61 612.708V643.785M1187.61 612.708H1218.69M1187.61 643.785V674.862M1187.61 643.785H1218.69M1187.61 674.862H1218.69M1218.69 53.3242V84.4011M1218.69 53.3242H1249.77M1218.69 84.4011V115.478M1218.69 84.4011H1249.77M1218.69 115.478V146.555M1218.69 115.478H1249.77M1218.69 146.555V177.632M1218.69 146.555H1249.77M1218.69 177.632V208.709M1218.69 177.632H1249.77M1218.69 208.709V239.786M1218.69 208.709H1249.77M1218.69 239.786V270.862M1218.69 239.786H1249.77M1218.69 270.862V301.939M1218.69 270.862H1249.77M1218.69 301.939V333.016M1218.69 301.939H1249.77M1218.69 333.016V364.093M1218.69 333.016H1249.77M1218.69 364.093V395.17M1218.69 364.093H1249.77M1218.69 395.17V426.247M1218.69 395.17H1249.77M1218.69 426.247V457.324M1218.69 426.247H1249.77M1218.69 457.324V488.401M1218.69 457.324H1249.77M1218.69 488.401V519.478M1218.69 488.401H1249.77M1218.69 519.478V550.555M1218.69 519.478H1249.77M1218.69 550.555V581.631M1218.69 550.555H1249.77M1218.69 581.631V612.708M1218.69 581.631H1249.77M1218.69 612.708V643.785M1218.69 612.708H1249.77M1218.69 643.785V674.862M1218.69 643.785H1249.77M1218.69 674.862H1249.77M1249.77 53.3242V84.4011M1249.77 53.3242H1280.84M1249.77 84.4011V115.478M1249.77 84.4011H1280.84M1249.77 115.478V146.555M1249.77 115.478H1280.84M1249.77 146.555V177.632M1249.77 146.555H1280.84M1249.77 177.632V208.709M1249.77 177.632H1280.84M1249.77 208.709V239.786M1249.77 208.709H1280.84M1249.77 239.786V270.862M1249.77 239.786H1280.84M1249.77 270.862V301.939M1249.77 270.862H1280.84M1249.77 301.939V333.016M1249.77 301.939H1280.84M1249.77 333.016V364.093M1249.77 333.016H1280.84M1249.77 364.093V395.17M1249.77 364.093H1280.84M1249.77 395.17V426.247M1249.77 395.17H1280.84M1249.77 426.247V457.324M1249.77 426.247H1280.84M1249.77 457.324V488.401M1249.77 457.324H1280.84M1249.77 488.401V519.478M1249.77 488.401H1280.84M1249.77 519.478V550.555M1249.77 519.478H1280.84M1249.77 550.555V581.631M1249.77 550.555H1280.84M1249.77 581.631V612.708M1249.77 581.631H1280.84M1249.77 612.708V643.785M1249.77 612.708H1280.84M1249.77 643.785V674.862M1249.77 643.785H1280.84M1249.77 674.862H1280.84M1280.84 53.3242V84.4011M1280.84 53.3242H1311.92M1280.84 84.4011V115.478M1280.84 84.4011H1311.92M1280.84 115.478V146.555M1280.84 115.478H1311.92M1280.84 146.555V177.632M1280.84 146.555H1311.92M1280.84 177.632V208.709M1280.84 177.632H1311.92M1280.84 208.709V239.786M1280.84 208.709H1311.92M1280.84 239.786V270.862M1280.84 239.786H1311.92M1280.84 270.862V301.939M1280.84 270.862H1311.92M1280.84 301.939V333.016M1280.84 301.939H1311.92M1280.84 333.016V364.093M1280.84 333.016H1311.92M1280.84 364.093V395.17M1280.84 364.093H1311.92M1280.84 395.17V426.247M1280.84 395.17H1311.92M1280.84 426.247V457.324M1280.84 426.247H1311.92M1280.84 457.324V488.401M1280.84 457.324H1311.92M1280.84 488.401V519.478M1280.84 488.401H1311.92M1280.84 519.478V550.555M1280.84 519.478H1311.92M1280.84 550.555V581.631M1280.84 550.555H1311.92M1280.84 581.631V612.708M1280.84 581.631H1311.92M1280.84 612.708V643.785M1280.84 612.708H1311.92M1280.84 643.785V674.862M1280.84 643.785H1311.92M1280.84 674.862H1311.92M1311.92 53.3242V84.4011M1311.92 53.3242H1343M1311.92 84.4011V115.478M1311.92 84.4011H1343M1311.92 115.478V146.555M1311.92 115.478H1343M1311.92 146.555V177.632M1311.92 146.555H1343M1311.92 177.632V208.709M1311.92 177.632H1343M1311.92 208.709V239.786M1311.92 208.709H1343M1311.92 239.786V270.862M1311.92 239.786H1343M1311.92 270.862V301.939M1311.92 270.862H1343M1311.92 301.939V333.016M1311.92 301.939H1343M1311.92 333.016V364.093M1311.92 333.016H1343M1311.92 364.093V395.17M1311.92 364.093H1343M1311.92 395.17V426.247M1311.92 395.17H1343M1311.92 426.247V457.324M1311.92 426.247H1343M1311.92 457.324V488.401M1311.92 457.324H1343M1311.92 488.401V519.478M1311.92 488.401H1343M1311.92 519.478V550.555M1311.92 519.478H1343M1311.92 550.555V581.631M1311.92 550.555H1343M1311.92 581.631V612.708M1311.92 581.631H1343M1311.92 612.708V643.785M1311.92 612.708H1343M1311.92 643.785V674.862M1311.92 643.785H1343M1311.92 674.862H1343M1343 53.3242V84.4011M1343 53.3242H1374.07M1343 84.4011V115.478M1343 84.4011H1374.07M1343 115.478V146.555M1343 115.478H1374.07M1343 146.555V177.632M1343 146.555H1374.07M1343 177.632V208.709M1343 177.632H1374.07M1343 208.709V239.786M1343 208.709H1374.07M1343 239.786V270.862M1343 239.786H1374.07M1343 270.862V301.939M1343 270.862H1374.07M1343 301.939V333.016M1343 301.939H1374.07M1343 333.016V364.093M1343 333.016H1374.07M1343 364.093V395.17M1343 364.093H1374.07M1343 395.17V426.247M1343 395.17H1374.07M1343 426.247V457.324M1343 426.247H1374.07M1343 457.324V488.401M1343 457.324H1374.07M1343 488.401V519.478M1343 488.401H1374.07M1343 519.478V550.555M1343 519.478H1374.07M1343 550.555V581.631M1343 550.555H1374.07M1343 581.631V612.708M1343 581.631H1374.07M1343 612.708V643.785M1343 612.708H1374.07M1343 643.785V674.862M1343 643.785H1374.07M1343 674.862H1374.07M1374.07 53.3242V84.4011M1374.07 53.3242H1405.15M1374.07 84.4011V115.478M1374.07 84.4011H1405.15M1374.07 115.478V146.555M1374.07 115.478H1405.15M1374.07 146.555V177.632M1374.07 146.555H1405.15M1374.07 177.632V208.709M1374.07 177.632H1405.15M1374.07 208.709V239.786M1374.07 208.709H1405.15M1374.07 239.786V270.862M1374.07 239.786H1405.15M1374.07 270.862V301.939M1374.07 270.862H1405.15M1374.07 301.939V333.016M1374.07 301.939H1405.15M1374.07 333.016V364.093M1374.07 333.016H1405.15M1374.07 364.093V395.17M1374.07 364.093H1405.15M1374.07 395.17V426.247M1374.07 395.17H1405.15M1374.07 426.247V457.324M1374.07 426.247H1405.15M1374.07 457.324V488.401M1374.07 457.324H1405.15M1374.07 488.401V519.478M1374.07 488.401H1405.15M1374.07 519.478V550.555M1374.07 519.478H1405.15M1374.07 550.555V581.631M1374.07 550.555H1405.15M1374.07 581.631V612.708M1374.07 581.631H1405.15M1374.07 612.708V643.785M1374.07 612.708H1405.15M1374.07 643.785V674.862M1374.07 643.785H1405.15M1374.07 674.862H1405.15M1405.15 53.3242V84.4011M1405.15 53.3242H1436.23M1405.15 84.4011V115.478M1405.15 84.4011H1436.23M1405.15 115.478V146.555M1405.15 115.478H1436.23M1405.15 146.555V177.632M1405.15 146.555H1436.23M1405.15 177.632V208.709M1405.15 177.632H1436.23M1405.15 208.709V239.786M1405.15 208.709H1436.23M1405.15 239.786V270.862M1405.15 239.786H1436.23M1405.15 270.862V301.939M1405.15 270.862H1436.23M1405.15 301.939V333.016M1405.15 301.939H1436.23M1405.15 333.016V364.093M1405.15 333.016H1436.23M1405.15 364.093V395.17M1405.15 364.093H1436.23M1405.15 395.17V426.247M1405.15 395.17H1436.23M1405.15 426.247V457.324M1405.15 426.247H1436.23M1405.15 457.324V488.401M1405.15 457.324H1436.23M1405.15 488.401V519.478M1405.15 488.401H1436.23M1405.15 519.478V550.555M1405.15 519.478H1436.23M1405.15 550.555V581.631M1405.15 550.555H1436.23M1405.15 581.631V612.708M1405.15 581.631H1436.23M1405.15 612.708V643.785M1405.15 612.708H1436.23M1405.15 643.785V674.862M1405.15 643.785H1436.23M1405.15 674.862H1436.23M1436.23 53.3242V84.4011M1436.23 53.3242H1467.31M1436.23 84.4011V115.478M1436.23 84.4011H1467.31M1436.23 115.478V146.555M1436.23 115.478H1467.31M1436.23 146.555V177.632M1436.23 146.555H1467.31M1436.23 177.632V208.709M1436.23 177.632H1467.31M1436.23 208.709V239.786M1436.23 208.709H1467.31M1436.23 239.786V270.862M1436.23 239.786H1467.31M1436.23 270.862V301.939M1436.23 270.862H1467.31M1436.23 301.939V333.016M1436.23 301.939H1467.31M1436.23 333.016V364.093M1436.23 333.016H1467.31M1436.23 364.093V395.17M1436.23 364.093H1467.31M1436.23 395.17V426.247M1436.23 395.17H1467.31M1436.23 426.247V457.324M1436.23 426.247H1467.31M1436.23 457.324V488.401M1436.23 457.324H1467.31M1436.23 488.401V519.478M1436.23 488.401H1467.31M1436.23 519.478V550.555M1436.23 519.478H1467.31M1436.23 550.555V581.631M1436.23 550.555H1467.31M1436.23 581.631V612.708M1436.23 581.631H1467.31M1436.23 612.708V643.785M1436.23 612.708H1467.31M1436.23 643.785V674.862M1436.23 643.785H1467.31M1436.23 674.862H1467.31M1467.31 53.3242V84.4011M1467.31 53.3242H1498.38M1467.31 84.4011V115.478M1467.31 84.4011H1498.38M1467.31 115.478V146.555M1467.31 115.478H1498.38M1467.31 146.555V177.632M1467.31 146.555H1498.38M1467.31 177.632V208.709M1467.31 177.632H1498.38M1467.31 208.709V239.786M1467.31 208.709H1498.38M1467.31 239.786V270.862M1467.31 239.786H1498.38M1467.31 270.862V301.939M1467.31 270.862H1498.38M1467.31 301.939V333.016M1467.31 301.939H1498.38M1467.31 333.016V364.093M1467.31 333.016H1498.38M1467.31 364.093V395.17M1467.31 364.093H1498.38M1467.31 395.17V426.247M1467.31 395.17H1498.38M1467.31 426.247V457.324M1467.31 426.247H1498.38M1467.31 457.324V488.401M1467.31 457.324H1498.38M1467.31 488.401V519.478M1467.31 488.401H1498.38M1467.31 519.478V550.555M1467.31 519.478H1498.38M1467.31 550.555V581.631M1467.31 550.555H1498.38M1467.31 581.631V612.708M1467.31 581.631H1498.38M1467.31 612.708V643.785M1467.31 612.708H1498.38M1467.31 643.785V674.862M1467.31 643.785H1498.38M1467.31 674.862H1498.38M1498.38 53.3242V84.4011M1498.38 53.3242H1529.46M1498.38 84.4011V115.478M1498.38 84.4011H1529.46M1498.38 115.478V146.555M1498.38 115.478H1529.46M1498.38 146.555V177.632M1498.38 146.555H1529.46M1498.38 177.632V208.709M1498.38 177.632H1529.46M1498.38 208.709V239.786M1498.38 208.709H1529.46M1498.38 239.786V270.862M1498.38 239.786H1529.46M1498.38 270.862V301.939M1498.38 270.862H1529.46M1498.38 301.939V333.016M1498.38 301.939H1529.46M1498.38 333.016V364.093M1498.38 333.016H1529.46M1498.38 364.093V395.17M1498.38 364.093H1529.46M1498.38 395.17V426.247M1498.38 395.17H1529.46M1498.38 426.247V457.324M1498.38 426.247H1529.46M1498.38 457.324V488.401M1498.38 457.324H1529.46M1498.38 488.401V519.478M1498.38 488.401H1529.46M1498.38 519.478V550.555M1498.38 519.478H1529.46M1498.38 550.555V581.631M1498.38 550.555H1529.46M1498.38 581.631V612.708M1498.38 581.631H1529.46M1498.38 612.708V643.785M1498.38 612.708H1529.46M1498.38 643.785V674.862M1498.38 643.785H1529.46M1498.38 674.862H1529.46M1529.46 53.3242V84.4011M1529.46 53.3242H1560.54M1529.46 84.4011V115.478M1529.46 84.4011H1560.54M1529.46 115.478V146.555M1529.46 115.478H1560.54M1529.46 146.555V177.632M1529.46 146.555H1560.54M1529.46 177.632V208.709M1529.46 177.632H1560.54M1529.46 208.709V239.786M1529.46 208.709H1560.54M1529.46 239.786V270.862M1529.46 239.786H1560.54M1529.46 270.862V301.939M1529.46 270.862H1560.54M1529.46 301.939V333.016M1529.46 301.939H1560.54M1529.46 333.016V364.093M1529.46 333.016H1560.54M1529.46 364.093V395.17M1529.46 364.093H1560.54M1529.46 395.17V426.247M1529.46 395.17H1560.54M1529.46 426.247V457.324M1529.46 426.247H1560.54M1529.46 457.324V488.401M1529.46 457.324H1560.54M1529.46 488.401V519.478M1529.46 488.401H1560.54M1529.46 519.478V550.555M1529.46 519.478H1560.54M1529.46 550.555V581.631M1529.46 550.555H1560.54M1529.46 581.631V612.708M1529.46 581.631H1560.54M1529.46 612.708V643.785M1529.46 612.708H1560.54M1529.46 643.785V674.862M1529.46 643.785H1560.54M1529.46 674.862H1560.54M1560.54 53.3242V84.4011M1560.54 53.3242H1591.61M1560.54 84.4011V115.478M1560.54 84.4011H1591.61M1560.54 115.478V146.555M1560.54 115.478H1591.61M1560.54 146.555V177.632M1560.54 146.555H1591.61M1560.54 177.632V208.709M1560.54 177.632H1591.61M1560.54 208.709V239.786M1560.54 208.709H1591.61M1560.54 239.786V270.862M1560.54 239.786H1591.61M1560.54 270.862V301.939M1560.54 270.862H1591.61M1560.54 301.939V333.016M1560.54 301.939H1591.61M1560.54 333.016V364.093M1560.54 333.016H1591.61M1560.54 364.093V395.17M1560.54 364.093H1591.61M1560.54 395.17V426.247M1560.54 395.17H1591.61M1560.54 426.247V457.324M1560.54 426.247H1591.61M1560.54 457.324V488.401M1560.54 457.324H1591.61M1560.54 488.401V519.478M1560.54 488.401H1591.61M1560.54 519.478V550.555M1560.54 519.478H1591.61M1560.54 550.555V581.631M1560.54 550.555H1591.61M1560.54 581.631V612.708M1560.54 581.631H1591.61M1560.54 612.708V643.785M1560.54 612.708H1591.61M1560.54 643.785V674.862M1560.54 643.785H1591.61M1560.54 674.862H1591.61M1591.61 53.3242V84.4011M1591.61 53.3242H1622.69M1591.61 84.4011V115.478M1591.61 84.4011H1622.69M1591.61 115.478V146.555M1591.61 115.478H1622.69M1591.61 146.555V177.632M1591.61 146.555H1622.69M1591.61 177.632V208.709M1591.61 177.632H1622.69M1591.61 208.709V239.786M1591.61 208.709H1622.69M1591.61 239.786V270.862M1591.61 239.786H1622.69M1591.61 270.862V301.939M1591.61 270.862H1622.69M1591.61 301.939V333.016M1591.61 301.939H1622.69M1591.61 333.016V364.093M1591.61 333.016H1622.69M1591.61 364.093V395.17M1591.61 364.093H1622.69M1591.61 395.17V426.247M1591.61 395.17H1622.69M1591.61 426.247V457.324M1591.61 426.247H1622.69M1591.61 457.324V488.401M1591.61 457.324H1622.69M1591.61 488.401V519.478M1591.61 488.401H1622.69M1591.61 519.478V550.555M1591.61 519.478H1622.69M1591.61 550.555V581.631M1591.61 550.555H1622.69M1591.61 581.631V612.708M1591.61 581.631H1622.69M1591.61 612.708V643.785M1591.61 612.708H1622.69M1591.61 643.785V674.862M1591.61 643.785H1622.69M1591.61 674.862H1622.69M1622.69 53.3242V84.4011M1622.69 53.3242H1653.77M1622.69 84.4011V115.478M1622.69 84.4011H1653.77M1622.69 115.478V146.555M1622.69 115.478H1653.77M1622.69 146.555V177.632M1622.69 146.555H1653.77M1622.69 177.632V208.709M1622.69 177.632H1653.77M1622.69 208.709V239.786M1622.69 208.709H1653.77M1622.69 239.786V270.862M1622.69 239.786H1653.77M1622.69 270.862V301.939M1622.69 270.862H1653.77M1622.69 301.939V333.016M1622.69 301.939H1653.77M1622.69 333.016V364.093M1622.69 333.016H1653.77M1622.69 364.093V395.17M1622.69 364.093H1653.77M1622.69 395.17V426.247M1622.69 395.17H1653.77M1622.69 426.247V457.324M1622.69 426.247H1653.77M1622.69 457.324V488.401M1622.69 457.324H1653.77M1622.69 488.401V519.478M1622.69 488.401H1653.77M1622.69 519.478V550.555M1622.69 519.478H1653.77M1622.69 550.555V581.631M1622.69 550.555H1653.77M1622.69 581.631V612.708M1622.69 581.631H1653.77M1622.69 612.708V643.785M1622.69 612.708H1653.77M1622.69 643.785V674.862M1622.69 643.785H1653.77M1622.69 674.862H1653.77M1653.77 53.3242V84.4011M1653.77 53.3242H1684.84M1653.77 84.4011V115.478M1653.77 84.4011H1684.84M1653.77 115.478V146.555M1653.77 115.478H1684.84M1653.77 146.555V177.632M1653.77 146.555H1684.84M1653.77 177.632V208.709M1653.77 177.632H1684.84M1653.77 208.709V239.786M1653.77 208.709H1684.84M1653.77 239.786V270.862M1653.77 239.786H1684.84M1653.77 270.862V301.939M1653.77 270.862H1684.84M1653.77 301.939V333.016M1653.77 301.939H1684.84M1653.77 333.016V364.093M1653.77 333.016H1684.84M1653.77 364.093V395.17M1653.77 364.093H1684.84M1653.77 395.17V426.247M1653.77 395.17H1684.84M1653.77 426.247V457.324M1653.77 426.247H1684.84M1653.77 457.324V488.401M1653.77 457.324H1684.84M1653.77 488.401V519.478M1653.77 488.401H1684.84M1653.77 519.478V550.555M1653.77 519.478H1684.84M1653.77 550.555V581.631M1653.77 550.555H1684.84M1653.77 581.631V612.708M1653.77 581.631H1684.84M1653.77 612.708V643.785M1653.77 612.708H1684.84M1653.77 643.785V674.862M1653.77 643.785H1684.84M1653.77 674.862H1684.84M1684.84 53.3242V84.4011M1684.84 53.3242H1715.92M1684.84 84.4011V115.478M1684.84 84.4011H1715.92M1684.84 115.478V146.555M1684.84 115.478H1715.92M1684.84 146.555V177.632M1684.84 146.555H1715.92M1684.84 177.632V208.709M1684.84 177.632H1715.92M1684.84 208.709V239.786M1684.84 208.709H1715.92M1684.84 239.786V270.862M1684.84 239.786H1715.92M1684.84 270.862V301.939M1684.84 270.862H1715.92M1684.84 301.939V333.016M1684.84 301.939H1715.92M1684.84 333.016V364.093M1684.84 333.016H1715.92M1684.84 364.093V395.17M1684.84 364.093H1715.92M1684.84 395.17V426.247M1684.84 395.17H1715.92M1684.84 426.247V457.324M1684.84 426.247H1715.92M1684.84 457.324V488.401M1684.84 457.324H1715.92M1684.84 488.401V519.478M1684.84 488.401H1715.92M1684.84 519.478V550.555M1684.84 519.478H1715.92M1684.84 550.555V581.631M1684.84 550.555H1715.92M1684.84 581.631V612.708M1684.84 581.631H1715.92M1684.84 612.708V643.785M1684.84 612.708H1715.92M1684.84 643.785V674.862M1684.84 643.785H1715.92M1684.84 674.862H1715.92M1715.92 53.3242V84.4011M1715.92 53.3242H1747M1715.92 84.4011V115.478M1715.92 84.4011H1747M1715.92 115.478V146.555M1715.92 115.478H1747M1715.92 146.555V177.632M1715.92 146.555H1747M1715.92 177.632V208.709M1715.92 177.632H1747M1715.92 208.709V239.786M1715.92 208.709H1747M1715.92 239.786V270.862M1715.92 239.786H1747M1715.92 270.862V301.939M1715.92 270.862H1747M1715.92 301.939V333.016M1715.92 301.939H1747M1715.92 333.016V364.093M1715.92 333.016H1747M1715.92 364.093V395.17M1715.92 364.093H1747M1715.92 395.17V426.247M1715.92 395.17H1747M1715.92 426.247V457.324M1715.92 426.247H1747M1715.92 457.324V488.401M1715.92 457.324H1747M1715.92 488.401V519.478M1715.92 488.401H1747M1715.92 519.478V550.555M1715.92 519.478H1747M1715.92 550.555V581.631M1715.92 550.555H1747M1715.92 581.631V612.708M1715.92 581.631H1747M1715.92 612.708V643.785M1715.92 612.708H1747M1715.92 643.785V674.862M1715.92 643.785H1747M1715.92 674.862H1747M1747 53.3242V84.4011M1747 53.3242H1778.07M1747 84.4011V115.478M1747 84.4011H1778.07M1747 115.478V146.555M1747 115.478H1778.07M1747 146.555V177.632M1747 146.555H1778.07M1747 177.632V208.709M1747 177.632H1778.07M1747 208.709V239.786M1747 208.709H1778.07M1747 239.786V270.862M1747 239.786H1778.07M1747 270.862V301.939M1747 270.862H1778.07M1747 301.939V333.016M1747 301.939H1778.07M1747 333.016V364.093M1747 333.016H1778.07M1747 364.093V395.17M1747 364.093H1778.07M1747 395.17V426.247M1747 395.17H1778.07M1747 426.247V457.324M1747 426.247H1778.07M1747 457.324V488.401M1747 457.324H1778.07M1747 488.401V519.478M1747 488.401H1778.07M1747 519.478V550.555M1747 519.478H1778.07M1747 550.555V581.631M1747 550.555H1778.07M1747 581.631V612.708M1747 581.631H1778.07M1747 612.708V643.785M1747 612.708H1778.07M1747 643.785V674.862M1747 643.785H1778.07M1747 674.862H1778.07M1778.07 53.3242V84.4011M1778.07 53.3242H1809.15M1778.07 84.4011V115.478M1778.07 84.4011H1809.15M1778.07 115.478V146.555M1778.07 115.478H1809.15M1778.07 146.555V177.632M1778.07 146.555H1809.15M1778.07 177.632V208.709M1778.07 177.632H1809.15M1778.07 208.709V239.786M1778.07 208.709H1809.15M1778.07 239.786V270.862M1778.07 239.786H1809.15M1778.07 270.862V301.939M1778.07 270.862H1809.15M1778.07 301.939V333.016M1778.07 301.939H1809.15M1778.07 333.016V364.093M1778.07 333.016H1809.15M1778.07 364.093V395.17M1778.07 364.093H1809.15M1778.07 395.17V426.247M1778.07 395.17H1809.15M1778.07 426.247V457.324M1778.07 426.247H1809.15M1778.07 457.324V488.401M1778.07 457.324H1809.15M1778.07 488.401V519.478M1778.07 488.401H1809.15M1778.07 519.478V550.555M1778.07 519.478H1809.15M1778.07 550.555V581.631M1778.07 550.555H1809.15M1778.07 581.631V612.708M1778.07 581.631H1809.15M1778.07 612.708V643.785M1778.07 612.708H1809.15M1778.07 643.785V674.862M1778.07 643.785H1809.15M1778.07 674.862H1809.15M1809.15 53.3242V84.4011M1809.15 53.3242H1840.23M1809.15 84.4011V115.478M1809.15 84.4011H1840.23M1809.15 115.478V146.555M1809.15 115.478H1840.23M1809.15 146.555V177.632M1809.15 146.555H1840.23M1809.15 177.632V208.709M1809.15 177.632H1840.23M1809.15 208.709V239.786M1809.15 208.709H1840.23M1809.15 239.786V270.862M1809.15 239.786H1840.23M1809.15 270.862V301.939M1809.15 270.862H1840.23M1809.15 301.939V333.016M1809.15 301.939H1840.23M1809.15 333.016V364.093M1809.15 333.016H1840.23M1809.15 364.093V395.17M1809.15 364.093H1840.23M1809.15 395.17V426.247M1809.15 395.17H1840.23M1809.15 426.247V457.324M1809.15 426.247H1840.23M1809.15 457.324V488.401M1809.15 457.324H1840.23M1809.15 488.401V519.478M1809.15 488.401H1840.23M1809.15 519.478V550.555M1809.15 519.478H1840.23M1809.15 550.555V581.631M1809.15 550.555H1840.23M1809.15 581.631V612.708M1809.15 581.631H1840.23M1809.15 612.708V643.785M1809.15 612.708H1840.23M1809.15 643.785V674.862M1809.15 643.785H1840.23M1809.15 674.862H1840.23M1840.23 53.3242V84.4011M1840.23 53.3242H1871.31M1840.23 84.4011V115.478M1840.23 84.4011H1871.31M1840.23 115.478V146.555M1840.23 115.478H1871.31M1840.23 146.555V177.632M1840.23 146.555H1871.31M1840.23 177.632V208.709M1840.23 177.632H1871.31M1840.23 208.709V239.786M1840.23 208.709H1871.31M1840.23 239.786V270.862M1840.23 239.786H1871.31M1840.23 270.862V301.939M1840.23 270.862H1871.31M1840.23 301.939V333.016M1840.23 301.939H1871.31M1840.23 333.016V364.093M1840.23 333.016H1871.31M1840.23 364.093V395.17M1840.23 364.093H1871.31M1840.23 395.17V426.247M1840.23 395.17H1871.31M1840.23 426.247V457.324M1840.23 426.247H1871.31M1840.23 457.324V488.401M1840.23 457.324H1871.31M1840.23 488.401V519.478M1840.23 488.401H1871.31M1840.23 519.478V550.555M1840.23 519.478H1871.31M1840.23 550.555V581.631M1840.23 550.555H1871.31M1840.23 581.631V612.708M1840.23 581.631H1871.31M1840.23 612.708V643.785M1840.23 612.708H1871.31M1840.23 643.785V674.862M1840.23 643.785H1871.31M1840.23 674.862H1871.31M1871.31 53.3242V84.4011M1871.31 53.3242H1902.38M1871.31 84.4011V115.478M1871.31 84.4011H1902.38M1871.31 115.478V146.555M1871.31 115.478H1902.38M1871.31 146.555V177.632M1871.31 146.555H1902.38M1871.31 177.632V208.709M1871.31 177.632H1902.38M1871.31 208.709V239.786M1871.31 208.709H1902.38M1871.31 239.786V270.862M1871.31 239.786H1902.38M1871.31 270.862V301.939M1871.31 270.862H1902.38M1871.31 301.939V333.016M1871.31 301.939H1902.38M1871.31 333.016V364.093M1871.31 333.016H1902.38M1871.31 364.093V395.17M1871.31 364.093H1902.38M1871.31 395.17V426.247M1871.31 395.17H1902.38M1871.31 426.247V457.324M1871.31 426.247H1902.38M1871.31 457.324V488.401M1871.31 457.324H1902.38M1871.31 488.401V519.478M1871.31 488.401H1902.38M1871.31 519.478V550.555M1871.31 519.478H1902.38M1871.31 550.555V581.631M1871.31 550.555H1902.38M1871.31 581.631V612.708M1871.31 581.631H1902.38M1871.31 612.708V643.785M1871.31 612.708H1902.38M1871.31 643.785V674.862M1871.31 643.785H1902.38M1871.31 674.862H1902.38M1902.38 53.3242V84.4011M1902.38 53.3242H1933.46M1902.38 84.4011V115.478M1902.38 84.4011H1933.46M1902.38 115.478V146.555M1902.38 115.478H1933.46M1902.38 146.555V177.632M1902.38 146.555H1933.46M1902.38 177.632V208.709M1902.38 177.632H1933.46M1902.38 208.709V239.786M1902.38 208.709H1933.46M1902.38 239.786V270.862M1902.38 239.786H1933.46M1902.38 270.862V301.939M1902.38 270.862H1933.46M1902.38 301.939V333.016M1902.38 301.939H1933.46M1902.38 333.016V364.093M1902.38 333.016H1933.46M1902.38 364.093V395.17M1902.38 364.093H1933.46M1902.38 395.17V426.247M1902.38 395.17H1933.46M1902.38 426.247V457.324M1902.38 426.247H1933.46M1902.38 457.324V488.401M1902.38 457.324H1933.46M1902.38 488.401V519.478M1902.38 488.401H1933.46M1902.38 519.478V550.555M1902.38 519.478H1933.46M1902.38 550.555V581.631M1902.38 550.555H1933.46M1902.38 581.631V612.708M1902.38 581.631H1933.46M1902.38 612.708V643.785M1902.38 612.708H1933.46M1902.38 643.785V674.862M1902.38 643.785H1933.46M1902.38 674.862H1933.46M1933.46 53.3242V84.4011M1933.46 53.3242H1964.54V84.4011M1933.46 84.4011V115.478M1933.46 84.4011H1964.54M1933.46 115.478V146.555M1933.46 115.478H1964.54M1933.46 146.555V177.632M1933.46 146.555H1964.54M1933.46 177.632V208.709M1933.46 177.632H1964.54M1933.46 208.709V239.786M1933.46 208.709H1964.54M1933.46 239.786V270.862M1933.46 239.786H1964.54M1933.46 270.862V301.939M1933.46 270.862H1964.54M1933.46 301.939V333.016M1933.46 301.939H1964.54M1933.46 333.016V364.093M1933.46 333.016H1964.54M1933.46 364.093V395.17M1933.46 364.093H1964.54M1933.46 395.17V426.247M1933.46 395.17H1964.54M1933.46 426.247V457.324M1933.46 426.247H1964.54M1933.46 457.324V488.401M1933.46 457.324H1964.54M1933.46 488.401V519.478M1933.46 488.401H1964.54M1933.46 519.478V550.555M1933.46 519.478H1964.54M1933.46 550.555V581.631M1933.46 550.555H1964.54M1933.46 581.631V612.708M1933.46 581.631H1964.54M1933.46 612.708V643.785M1933.46 612.708H1964.54M1933.46 643.785V674.862M1933.46 643.785H1964.54M1933.46 674.862H1964.54V643.785M1964.54 84.4011V115.478M1964.54 115.478V146.555M1964.54 146.555V177.632M1964.54 177.632V208.709M1964.54 208.709V239.786M1964.54 239.786V270.862M1964.54 270.862V301.939M1964.54 301.939V333.016M1964.54 333.016V364.093M1964.54 364.093V395.17M1964.54 395.17V426.247M1964.54 426.247V457.324M1964.54 457.324V488.401M1964.54 488.401V519.478M1964.54 519.478V550.555M1964.54 550.555V581.631M1964.54 581.631V612.708M1964.54 612.708V643.785" stroke="url(#paint0_radial_22982_113018)" stroke-opacity="0.8" stroke-width="0.331788"/>
<g style="mix-blend-mode:soft-light" opacity="0.8">
<path d="M721.459 168.308V177.631M721.459 177.631V186.954M721.459 177.631H712.136M721.459 177.631H730.782M721.459 416.923V426.246M721.459 426.246V435.569M721.459 426.246H712.136M721.459 426.246H730.782M721.459 665.538V674.861M721.459 674.861V684.184M721.459 674.861H712.136M721.459 674.861H730.782M970.074 168.308V177.631M970.074 177.631V186.954M970.074 177.631H960.751M970.074 177.631H979.397M970.074 416.923V426.246M970.074 426.246V435.569M970.074 426.246H960.751M970.074 426.246H979.397M970.074 665.538V674.861M970.074 674.861V684.184M970.074 674.861H960.751M970.074 674.861H979.397M1218.69 168.308V177.631M1218.69 177.631V186.954M1218.69 177.631H1209.37M1218.69 177.631H1228.01M1218.69 416.923V426.246M1218.69 426.246V435.569M1218.69 426.246H1209.37M1218.69 426.246H1228.01M1218.69 665.538V674.861M1218.69 674.861V684.184M1218.69 674.861H1209.37M1218.69 674.861H1228.01M1467.3 168.308V177.631M1467.3 177.631V186.954M1467.3 177.631H1457.98M1467.3 177.631H1476.63M1467.3 416.923V426.246M1467.3 426.246V435.569M1467.3 426.246H1457.98M1467.3 426.246H1476.63M1467.3 665.538V674.861M1467.3 674.861V684.184M1467.3 674.861H1457.98M1467.3 674.861H1476.63M1715.92 168.308V177.631M1715.92 177.631V186.954M1715.92 177.631H1706.6M1715.92 177.631H1725.24M1715.92 416.923V426.246M1715.92 426.246V435.569M1715.92 426.246H1706.6M1715.92 426.246H1725.24M1715.92 665.538V674.861M1715.92 674.861V684.184M1715.92 674.861H1706.6M1715.92 674.861H1725.24M1964.53 168.308V177.631M1964.53 177.631V186.954M1964.53 177.631H1955.21M1964.53 177.631H1973.86M1964.53 416.923V426.246M1964.53 426.246V435.569M1964.53 426.246H1955.21M1964.53 426.246H1973.86M1964.53 665.538V674.861M1964.53 674.861V684.184M1964.53 674.861H1955.21M1964.53 674.861H1973.86M721.459 44V53.3231M721.459 53.3231V62.6461M721.459 53.3231H712.136M721.459 53.3231H730.782M721.459 292.615V301.938M721.459 301.938V311.261M721.459 301.938H712.136M721.459 301.938H730.782M721.459 541.23V550.553M721.459 550.553V559.876M721.459 550.553H712.136M721.459 550.553H730.782M970.074 44V53.3231M970.074 53.3231V62.6461M970.074 53.3231H960.751M970.074 53.3231H979.397M970.074 292.615V301.938M970.074 301.938V311.261M970.074 301.938H960.751M970.074 301.938H979.397M970.074 541.23V550.553M970.074 550.553V559.876M970.074 550.553H960.751M970.074 550.553H979.397M1218.69 44V53.3231M1218.69 53.3231V62.6461M1218.69 53.3231H1209.37M1218.69 53.3231H1228.01M1218.69 292.615V301.938M1218.69 301.938V311.261M1218.69 301.938H1209.37M1218.69 301.938H1228.01M1218.69 541.23V550.553M1218.69 550.553V559.876M1218.69 550.553H1209.37M1218.69 550.553H1228.01M1467.3 44V53.3231M1467.3 53.3231V62.6461M1467.3 53.3231H1457.98M1467.3 53.3231H1476.63M1467.3 292.615V301.938M1467.3 301.938V311.261M1467.3 301.938H1457.98M1467.3 301.938H1476.63M1467.3 541.23V550.553M1467.3 550.553V559.876M1467.3 550.553H1457.98M1467.3 550.553H1476.63M1715.92 44V53.3231M1715.92 53.3231V62.6461M1715.92 53.3231H1706.6M1715.92 53.3231H1725.24M1715.92 292.615V301.938M1715.92 301.938V311.261M1715.92 301.938H1706.6M1715.92 301.938H1725.24M1715.92 541.23V550.553M1715.92 550.553V559.876M1715.92 550.553H1706.6M1715.92 550.553H1725.24M1964.53 44V53.3231M1964.53 53.3231V62.6461M1964.53 53.3231H1955.21M1964.53 53.3231H1973.86M1964.53 292.615V301.938M1964.53 301.938V311.261M1964.53 301.938H1955.21M1964.53 301.938H1973.86M1964.53 541.23V550.553M1964.53 550.553V559.876M1964.53 550.553H1955.21M1964.53 550.553H1973.86M597.151 168.308V177.631M597.151 177.631V186.954M597.151 177.631H587.828M597.151 177.631H606.474M597.151 416.923V426.246M597.151 426.246V435.569M597.151 426.246H587.828M597.151 426.246H606.474M597.151 665.538V674.861M597.151 674.861V684.184M597.151 674.861H587.828M597.151 674.861H606.474M845.766 168.308V177.631M845.766 177.631V186.954M845.766 177.631H836.443M845.766 177.631H855.089M845.766 416.923V426.246M845.766 426.246V435.569M845.766 426.246H836.443M845.766 426.246H855.089M845.766 665.538V674.861M845.766 674.861V684.184M845.766 674.861H836.443M845.766 674.861H855.089M1094.38 168.308V177.631M1094.38 177.631V186.954M1094.38 177.631H1085.06M1094.38 177.631H1103.7M1094.38 416.923V426.246M1094.38 426.246V435.569M1094.38 426.246H1085.06M1094.38 426.246H1103.7M1094.38 665.538V674.861M1094.38 674.861V684.184M1094.38 674.861H1085.06M1094.38 674.861H1103.7M1343 168.308V177.631M1343 177.631V186.954M1343 177.631H1333.67M1343 177.631H1352.32M1343 416.923V426.246M1343 426.246V435.569M1343 426.246H1333.67M1343 426.246H1352.32M1343 665.538V674.861M1343 674.861V684.184M1343 674.861H1333.67M1343 674.861H1352.32M1591.61 168.308V177.631M1591.61 177.631V186.954M1591.61 177.631H1582.29M1591.61 177.631H1600.94M1591.61 416.923V426.246M1591.61 426.246V435.569M1591.61 426.246H1582.29M1591.61 426.246H1600.94M1591.61 665.538V674.861M1591.61 674.861V684.184M1591.61 674.861H1582.29M1591.61 674.861H1600.94M1840.23 168.308V177.631M1840.23 177.631V186.954M1840.23 177.631H1830.9M1840.23 177.631H1849.55M1840.23 416.923V426.246M1840.23 426.246V435.569M1840.23 426.246H1830.9M1840.23 426.246H1849.55M1840.23 665.538V674.861M1840.23 674.861V684.184M1840.23 674.861H1830.9M1840.23 674.861H1849.55M597.151 44V53.3231M597.151 53.3231V62.6462M597.151 53.3231H587.828M597.151 53.3231H606.474M597.151 292.615V301.938M597.151 301.938V311.261M597.151 301.938H587.828M597.151 301.938H606.474M597.151 541.23V550.553M597.151 550.553V559.876M597.151 550.553H587.828M597.151 550.553H606.474M845.766 44V53.3231M845.766 53.3231V62.6461M845.766 53.3231H836.443M845.766 53.3231H855.089M845.766 292.615V301.938M845.766 301.938V311.261M845.766 301.938H836.443M845.766 301.938H855.089M845.766 541.23V550.553M845.766 550.553V559.876M845.766 550.553H836.443M845.766 550.553H855.089M1094.38 44V53.3231M1094.38 53.3231V62.6461M1094.38 53.3231H1085.06M1094.38 53.3231H1103.7M1094.38 292.615V301.938M1094.38 301.938V311.261M1094.38 301.938H1085.06M1094.38 301.938H1103.7M1094.38 541.23V550.553M1094.38 550.553V559.876M1094.38 550.553H1085.06M1094.38 550.553H1103.7M1343 44V53.3231M1343 53.3231V62.6461M1343 53.3231H1333.67M1343 53.3231H1352.32M1343 292.615V301.938M1343 301.938V311.261M1343 301.938H1333.67M1343 301.938H1352.32M1343 541.23V550.553M1343 550.553V559.876M1343 550.553H1333.67M1343 550.553H1352.32M1591.61 44V53.3231M1591.61 53.3231V62.6461M1591.61 53.3231H1582.29M1591.61 53.3231H1600.94M1591.61 292.615V301.938M1591.61 301.938V311.261M1591.61 301.938H1582.29M1591.61 301.938H1600.94M1591.61 541.23V550.553M1591.61 550.553V559.876M1591.61 550.553H1582.29M1591.61 550.553H1600.94M1840.23 44V53.3231M1840.23 53.3231V62.6461M1840.23 53.3231H1830.9M1840.23 53.3231H1849.55M1840.23 292.615V301.938M1840.23 301.938V311.261M1840.23 301.938H1830.9M1840.23 301.938H1849.55M1840.23 541.23V550.553M1840.23 550.553V559.876M1840.23 550.553H1830.9M1840.23 550.553H1849.55" stroke="url(#paint1_radial_22982_113018)" stroke-opacity="0.4" stroke-width="0.663576"/>
</g>
<g style="mix-blend-mode:multiply">
<path d="M2842.02 1545.18C2842.02 1545.18 1557.96 1751.42 -116.16 196.794C-116.16 196.794 533.315 1847.54 2622.34 2217.51L2842.02 1545.18Z" fill="url(#paint2_radial_22982_113018)"/>
<path d="M3234.02 1405.93C3234.02 1405.93 1554.52 2335.59 -116.131 196.685C-116.131 196.685 1395.6 1318.87 2854.76 466.505L3234.02 1405.93Z" fill="url(#paint3_radial_22982_113018)"/>
<path d="M2586.79 541.474C1387.37 1916.24 -115.9 195.915 -115.9 195.915L-45.6635 118.591C-45.6635 118.591 1355.5 1126.26 2203.18 193.083L2586.79 541.474Z" fill="url(#paint4_radial_22982_113018)"/>
<path d="M2344.71 178.831C1314.54 1150.46 -45.3457 117.834 -45.3457 117.834L24.9132 40.4345C24.9132 40.4345 1173.56 785.893 2032.02 -105.356L2344.74 178.839L2344.71 178.831Z" fill="url(#paint5_radial_22982_113018)"/>
</g>
</g>
<defs>
<radialGradient id="paint0_radial_22982_113018" cx="0" cy="0" r="1" gradientUnits="userSpaceOnUse" gradientTransform="translate(1280.84 364.093) rotate(95.5612) scale(218.599 480.917)">
<stop stop-color="white"/>
<stop offset="1" stop-opacity="0"/>
</radialGradient>
<radialGradient id="paint1_radial_22982_113018" cx="0" cy="0" r="1" gradientUnits="userSpaceOnUse" gradientTransform="translate(1280.84 364.092) rotate(90) scale(320.092 693.015)">
<stop/>
<stop offset="1" stop-opacity="0"/>
</radialGradient>
<radialGradient id="paint2_radial_22982_113018" cx="0" cy="0" r="1" gradientUnits="userSpaceOnUse" gradientTransform="translate(1964.93 -734.729) rotate(-137.748) scale(2651.54 2432.69)">
<stop offset="0.5" stop-color="#B0BEC5"/>
<stop offset="1" stop-color="white"/>
</radialGradient>
<radialGradient id="paint3_radial_22982_113018" cx="0" cy="0" r="1" gradientUnits="userSpaceOnUse" gradientTransform="translate(2593.17 -1650.58) rotate(-137.763) scale(3639.76 3337.9)">
<stop offset="0.5" stop-color="#B0BEC5"/>
<stop offset="1" stop-color="white"/>
</radialGradient>
<radialGradient id="paint4_radial_22982_113018" cx="0" cy="0" r="1" gradientUnits="userSpaceOnUse" gradientTransform="translate(1330.74 -721.097) rotate(-137.752) scale(1974.48 1811.31)">
<stop offset="0.5" stop-color="#CCD5D9"/>
<stop offset="1" stop-color="white"/>
</radialGradient>
<radialGradient id="paint5_radial_22982_113018" cx="0" cy="0" r="1" gradientUnits="userSpaceOnUse" gradientTransform="translate(1344.73 -332.466) rotate(-137.733) scale(1543.19 1416.42)">
<stop stop-color="#F5F7F8"/>
<stop offset="0.29" stop-color="#EAEFF1"/>
<stop offset="0.76" stop-color="#F0F2F4"/>
<stop offset="1" stop-color="white"/>
</radialGradient>
<clipPath id="clip0_22982_113018">
<rect width="1920" height="551" fill="white"/>
</clipPath>
</defs>
</svg>
