<svg width="16" height="17" viewBox="0 0 16 17" fill="none" xmlns="http://www.w3.org/2000/svg">
<rect y="0.0927734" width="16" height="16" rx="7.95349" fill="#D4D5D4"/>
<path d="M6.79392 5.48256C7.21993 5.48256 7.62851 5.6518 7.92975 5.95304C8.23099 6.25428 8.40022 6.66285 8.40022 7.08887C8.40022 7.51489 8.23099 7.92346 7.92975 8.2247C7.62851 8.52594 7.21993 8.69518 6.79392 8.69518C6.3679 8.69518 5.95933 8.52594 5.65808 8.2247C5.35684 7.92346 5.18761 7.51489 5.18761 7.08887C5.18761 6.66285 5.35684 6.25428 5.65808 5.95304C5.95933 5.6518 6.3679 5.48256 6.79392 5.48256ZM6.79392 9.49833C7.86613 9.49833 10.0065 10.0364 10.0065 11.1046V11.9078H3.5813V11.1046C3.5813 10.0364 5.7217 9.49833 6.79392 9.49833ZM9.91015 5.62713C10.7213 6.5106 10.7213 7.73541 9.91015 8.5466L9.2355 7.86793C9.57283 7.39407 9.57283 6.77966 9.2355 6.3058L9.91015 5.62713ZM11.2394 4.27783C12.8176 5.90422 12.8055 8.33778 11.2394 9.89991L10.5848 9.24534C11.6972 7.96833 11.6972 6.14517 10.5848 4.9324L11.2394 4.27783Z" fill="black"/>
</svg>
