<svg width="383" height="295" viewBox="0 0 383 295" fill="none" xmlns="http://www.w3.org/2000/svg">
<g clip-path="url(#clip0_20438_51200)">
<rect width="382.829" height="294.37" fill="black"/>
<path opacity="0.3" d="M-903.215 -108.813C-759.043 -272.265 -482.598 -376.216 -213.259 -449.976C-83.882 -485.414 55.1952 -520.517 192.924 -522.094C330.653 -523.67 445.585 -475.914 461.79 -392.32C479.15 -302.597 393.881 -212.011 305.999 -135.015C220.608 -60.1841 84.8038 28.811 139.74 118.479C165.67 160.779 235.674 174.235 306.165 181.739C383.089 189.968 464.773 189.659 545.162 180.292C708.721 161.225 848.192 101.714 992.368 49.109C1136.54 -3.49548 1301.09 -39.6539 1466.99 -29.1611C1616.97 -19.6698 1756.45 20.5426 1845.92 88.8574C1858.18 98.2224 1873.24 96.7946 1882.76 84.4503C1892.29 72.106 1890.37 50.7963 1877.57 41.0394C1716.71 -81.7755 1415.69 -129.059 1143.89 -62.3502C984.147 -23.156 848.27 47.546 690.798 89.7889C610.591 111.294 525.471 123.551 441.555 125.828C399.877 126.954 358.745 125.566 318.704 121.516C278.664 117.466 235.005 113.226 204.393 99.5821C146.077 73.6063 218.984 15.2507 254.212 -14.4446C304.43 -56.7645 356.453 -98.1384 400.116 -142.787C483.361 -227.902 533.322 -320.697 510.852 -412.465C490.837 -494.317 409.631 -564.284 269.514 -579.728C135.968 -594.464 -9.99391 -565.633 -140.633 -532.493C-446.461 -454.908 -772.418 -343.997 -935.904 -158.688C-947.951 -145.046 -949.29 -128.534 -940.267 -115.586C-935.424 -108.696 -915.64 -94.7939 -903.289 -108.846L-903.215 -108.813Z" fill="#87AA14" fill-opacity="0.5"/>
</g>
<defs>
<clipPath id="clip0_20438_51200">
<rect width="382.829" height="294.37" fill="white"/>
</clipPath>
</defs>
</svg>
