<svg width="16" height="16" viewBox="0 0 16 16" fill="none" xmlns="http://www.w3.org/2000/svg">
<rect width="16" height="16" rx="7.95349" fill="#E6EFD9"/>
<path d="M11.5506 4.02344H4.44927C4.33627 4.02344 4.22789 4.07178 4.14799 4.15783C4.06808 4.24389 4.02319 4.3606 4.02319 4.48229V9.98855C4.02319 10.1102 4.06808 10.227 4.14799 10.313C4.22789 10.3991 4.33627 10.4474 4.44927 10.4474H5.72751V11.9769L7.81779 10.4474H11.5506C11.6636 10.4474 11.772 10.3991 11.8519 10.313C11.9318 10.227 11.9767 10.1102 11.9767 9.98855V4.48229C11.9767 4.3606 11.9318 4.24389 11.8519 4.15783C11.772 4.07178 11.6636 4.02344 11.5506 4.02344ZM6.29562 7.84723C6.18326 7.84723 6.07342 7.81135 5.98 7.74412C5.88657 7.6769 5.81376 7.58134 5.77076 7.46955C5.72776 7.35776 5.71651 7.23474 5.73843 7.11607C5.76035 6.99739 5.81446 6.88837 5.89391 6.80281C5.97336 6.71725 6.07458 6.65898 6.18479 6.63537C6.29499 6.61177 6.40922 6.62388 6.51302 6.67019C6.61683 6.71649 6.70556 6.79491 6.76798 6.89552C6.83041 6.99613 6.86372 7.11442 6.86372 7.23542C6.86372 7.39768 6.80387 7.5533 6.69733 7.66804C6.59079 7.78277 6.44629 7.84723 6.29562 7.84723ZM7.99994 7.84723C7.88758 7.84723 7.77774 7.81135 7.68431 7.74412C7.59089 7.6769 7.51807 7.58134 7.47508 7.46955C7.43208 7.35776 7.42083 7.23474 7.44275 7.11607C7.46467 6.99739 7.51877 6.88837 7.59823 6.80281C7.67768 6.71725 7.7789 6.65898 7.88911 6.63537C7.99931 6.61177 8.11353 6.62388 8.21734 6.67019C8.32115 6.71649 8.40988 6.79491 8.4723 6.89552C8.53472 6.99613 8.56804 7.11442 8.56804 7.23542C8.56804 7.39768 8.50819 7.5533 8.40165 7.66804C8.29511 7.78277 8.15061 7.84723 7.99994 7.84723ZM9.70426 7.84723C9.5919 7.84723 9.48206 7.81135 9.38863 7.74412C9.29521 7.6769 9.22239 7.58134 9.17939 7.46955C9.1364 7.35776 9.12515 7.23474 9.14707 7.11607C9.16899 6.99739 9.22309 6.88837 9.30254 6.80281C9.382 6.71725 9.48322 6.65898 9.59342 6.63537C9.70363 6.61177 9.81785 6.62388 9.92166 6.67019C10.0255 6.71649 10.1142 6.79491 10.1766 6.89552C10.239 6.99613 10.2724 7.11442 10.2724 7.23542C10.2724 7.39768 10.2125 7.5533 10.106 7.66804C9.99943 7.78277 9.85493 7.84723 9.70426 7.84723Z" fill="black"/>
</svg>
