<svg width="194" height="210" viewBox="0 0 194 210" fill="none" xmlns="http://www.w3.org/2000/svg">
<g id="Group 1437253706">
<path id="Vector" d="M136.03 0.970072C136.03 0.970072 135.76 0.970072 135.25 0.960072C134.73 0.940072 133.97 0.900072 132.96 0.970072C130.96 1.08007 127.97 1.46007 124.44 2.93007C120.95 4.40007 116.87 7.01007 113.62 11.3601C112.01 13.5301 110.66 16.1301 109.84 19.0901C109.05 22.0501 108.78 25.3301 109.16 28.7101C109.59 32.0801 110.62 35.5601 112.51 38.7601C113.45 40.3601 114.56 41.9101 115.91 43.2701C117.22 44.6801 118.77 45.9201 120.51 46.8701C122.25 47.8101 124.24 48.4101 126.28 48.3201C128.3 48.2501 130.39 47.5401 131.87 46.0701C133.36 44.6001 134.1 42.4501 134.1 40.3101C134.11 38.1501 133.36 36.0001 132.07 34.1801C129.47 30.5301 125.28 28.0801 120.81 26.7501C116.3 25.4401 111.35 25.4001 106.61 26.5501C104.25 27.1601 101.94 28.0701 99.7705 29.2701C97.6005 30.4801 95.6305 32.0601 93.9005 33.8801C93.4905 34.3601 93.0205 34.7901 92.6605 35.3001L91.5305 36.8201C90.8705 37.9001 90.2005 38.9801 89.6905 40.1601C88.6305 42.4801 87.8905 44.9701 87.5205 47.5301C86.8505 52.6501 87.4705 57.9301 89.5405 62.5301C91.5405 67.1401 94.9505 71.1001 99.2005 73.4801C101.32 74.6601 103.66 75.4301 106.04 75.5601C108.41 75.7101 110.78 75.1001 112.79 73.9401C114.8 72.7901 116.48 71.0501 117.36 68.9701C118.23 66.8801 118.22 64.5001 117.46 62.4301C116.72 60.3401 115.32 58.5501 113.7 57.1101C112.07 55.6801 110.16 54.6001 108.17 53.9001C104.14 52.5801 99.8405 52.6501 96.0005 53.6901C92.1505 54.7401 88.7105 56.7201 86.0105 59.2601C83.3205 61.8101 81.4305 64.9401 80.2905 68.1301C77.9805 74.5701 78.5705 81.1001 80.5505 86.1001C82.5905 91.1401 85.8305 94.7201 88.7905 97.0901C91.7805 99.4801 94.4905 100.77 96.3605 101.5C97.3005 101.86 98.0205 102.11 98.5205 102.25C99.0105 102.4 99.2605 102.5 99.2605 102.5C99.2605 102.5 99.0005 102.44 98.5005 102.31C98.0005 102.19 97.2705 101.95 96.3105 101.61C94.4305 100.91 91.6805 99.6401 88.6505 97.2601C85.6505 94.9001 82.3605 91.3001 80.2705 86.2201C78.2405 81.1701 77.6105 74.5601 79.9305 68.0201C81.0805 64.7701 82.9905 61.5901 85.7205 58.9801C88.4605 56.3901 91.9505 54.3601 95.8705 53.2901C99.7805 52.2301 104.16 52.1401 108.31 53.4801C110.36 54.2001 112.32 55.3001 114 56.7701C115.67 58.2401 117.12 60.0901 117.9 62.2801C118.69 64.4501 118.72 66.9601 117.8 69.1701C116.87 71.3801 115.12 73.1801 113.03 74.3901C110.94 75.5901 108.47 76.2301 106.01 76.0801C103.55 75.9501 101.13 75.1601 98.9505 73.9401C94.5905 71.5001 91.1105 67.4501 89.0705 62.7501C86.9605 58.0501 86.3305 52.6801 87.0105 47.4701C87.3905 44.8601 88.1405 42.3201 89.2305 39.9601C89.7505 38.7601 90.4405 37.6601 91.1105 36.5501L92.2605 34.9901C92.6305 34.4601 93.1105 34.0201 93.5305 33.5401C95.3005 31.6801 97.3205 30.0701 99.5305 28.8401C101.74 27.6201 104.09 26.7001 106.5 26.0701C111.33 24.9001 116.37 24.9401 120.97 26.2801C125.53 27.6401 129.8 30.1301 132.49 33.9101C133.82 35.7901 134.61 38.0501 134.59 40.3101C134.59 42.5601 133.81 44.8301 132.21 46.4001C130.62 47.9701 128.42 48.7101 126.31 48.7701C124.18 48.8501 122.1 48.2201 120.32 47.2501C118.53 46.2701 116.95 44.9901 115.62 43.5601C114.24 42.1601 113.12 40.5801 112.17 38.9601C110.26 35.7001 109.23 32.1601 108.81 28.7501C108.44 25.3201 108.72 22.0001 109.54 19.0001C110.38 16.0101 111.76 13.3701 113.4 11.1801C116.71 6.79007 120.85 4.19007 124.38 2.73007C127.95 1.27007 130.97 0.930072 132.97 0.850072C133.98 0.800072 134.75 0.850072 135.27 0.890072C135.79 0.920072 136.05 0.950072 136.05 0.950072L136.03 0.970072Z" fill="#263238"/>
<path id="Vector_2" d="M169.429 101.03H29.2188V209.17H169.429V101.03Z" fill="#BBBBBB"/>
<g id="Group">
<path id="Vector_3" d="M29.2188 101.029L55.1087 125.179H192.949L169.429 101.029H29.2188Z" fill="#BBBBBB"/>
<path id="Vector_4" d="M29.2188 101.03C31.7487 101.03 89.6587 100.92 169.429 100.77H169.539L169.619 100.85C177.129 108.56 184.929 116.57 192.899 124.75C192.979 124.83 193.059 124.92 193.139 125L193.569 125.44H192.949C136.429 125.4 86.2687 125.36 55.1187 125.34H55.0588L55.0187 125.3C38.8187 110.05 30.0787 101.83 29.2287 101.03C30.0887 101.82 38.8887 109.97 55.2287 125.07L55.1187 125.03C86.2687 125.01 136.429 124.97 192.949 124.93L192.759 125.37C192.679 125.29 192.599 125.21 192.519 125.12C184.549 116.93 176.759 108.92 169.249 101.21L169.429 101.29C89.6587 101.14 31.7487 101.04 29.2188 101.03Z" fill="#263238"/>
</g>
<g id="Group_2">
<path id="Vector_5" d="M71.3293 150.89C69.8493 150.89 68.4893 152.23 68.4693 153.71C68.4393 155.19 69.7493 156.57 71.2293 156.63C72.7093 156.68 74.1193 155.4 74.1993 153.92C74.2793 152.44 73.0293 151.01 71.5493 150.9" fill="#263238"/>
<path id="Vector_6" d="M104.439 150.89C102.959 150.89 101.599 152.23 101.579 153.71C101.549 155.19 102.859 156.57 104.339 156.63C105.819 156.68 107.229 155.4 107.309 153.92C107.389 152.44 106.139 151.01 104.659 150.9" fill="#263238"/>
<path id="Vector_7" d="M104.65 176.779C104.5 176.839 104.28 174.069 101.87 170.559C100.69 168.819 98.92 166.969 96.57 165.479C94.24 163.979 91.27 162.909 88.07 162.789C84.87 162.729 81.85 163.639 79.44 165.009C77.01 166.369 75.15 168.119 73.87 169.789C71.28 173.159 70.9 175.909 70.76 175.839C70.74 175.839 70.77 175.669 70.84 175.369C70.93 175.069 70.99 174.599 71.21 174.039C71.57 172.899 72.31 171.299 73.58 169.559C74.84 167.819 76.73 165.999 79.2 164.579C81.66 163.149 84.77 162.189 88.08 162.259C91.39 162.379 94.44 163.509 96.82 165.069C99.21 166.629 101 168.549 102.16 170.349C103.34 172.149 103.98 173.789 104.28 174.949C104.47 175.519 104.51 175.989 104.57 176.299C104.62 176.609 104.64 176.769 104.63 176.779H104.65Z" fill="#263238"/>
</g>
<path id="Vector_8" opacity="0.5" d="M29.5312 102.22L54.3313 133.65H169.431V125.18H55.1112L29.5312 102.22Z" fill="black"/>
<path id="Vector_9" d="M141.78 208.919C141.64 208.919 141.52 190.109 141.52 166.909C141.52 143.709 141.64 124.899 141.78 124.899C141.92 124.899 142.04 143.709 142.04 166.909C142.04 190.109 141.92 208.919 141.78 208.919Z" fill="#263238"/>
<path id="Vector_10" d="M163.79 184.41H151.43V198.38H163.79V184.41Z" fill="#F5F5F5"/>
<g id="Group_3">
<path id="Vector_11" d="M29.2197 101.03L0.429688 125.18H29.2197V101.03Z" fill="#BBBBBB"/>
<g id="Group_4" opacity="0.4">
<path id="Vector_12" d="M29.2197 101.03L0.429688 125.18H29.2197V101.03Z" fill="black"/>
</g>
</g>
</g>
</svg>
