<?xml version="1.0" encoding="UTF-8"?> <svg xmlns="http://www.w3.org/2000/svg" width="200" height="27" viewBox="0 0 200 27" fill="none"><path d="M190.308 26.3151C184.673 26.3151 180.928 22.6051 180.928 16.9351C180.928 11.3001 184.638 7.59009 190.308 7.59009C195.943 7.59009 199.688 11.3001 199.688 16.9351C199.688 22.6051 195.943 26.3151 190.308 26.3151ZM190.308 22.2901C193.283 22.2901 195.208 20.2601 195.208 16.9351C195.208 13.6801 193.248 11.6151 190.308 11.6151C187.368 11.6151 185.408 13.6801 185.408 16.9351C185.408 20.2251 187.368 22.2901 190.308 22.2901Z" fill="#000"></path><path d="M173.331 10.7051V0.485107H177.706V26.0001H173.331V23.0601C172.211 25.0551 170.111 26.3151 167.521 26.3151C162.481 26.3151 159.121 22.7101 159.121 16.9351C159.121 11.3351 162.376 7.59011 167.556 7.59011C170.251 7.59011 172.246 8.71011 173.331 10.7051ZM168.466 22.3251C171.441 22.3251 173.436 20.2601 173.436 16.9351C173.436 13.7151 171.476 11.5801 168.466 11.5801C165.526 11.5801 163.601 13.6451 163.601 16.9351C163.601 20.1901 165.456 22.3251 168.466 22.3251Z" fill="#000"></path><path d="M149.414 7.59009C153.614 7.59009 156.099 10.1451 156.099 14.5551V26.0001H151.724V15.9551C151.724 12.9451 150.219 11.6151 147.874 11.6151C144.829 11.6151 143.359 13.8901 143.359 16.9351V26.0001H138.984V7.90509H143.079L143.219 11.0201C144.479 8.88509 146.439 7.59009 149.414 7.59009Z" fill="#000"></path><path d="M126.358 26.3151C120.723 26.3151 116.978 22.6051 116.978 16.9351C116.978 11.3001 120.688 7.59009 126.358 7.59009C131.993 7.59009 135.738 11.3001 135.738 16.9351C135.738 22.6051 131.993 26.3151 126.358 26.3151ZM126.358 22.2901C129.333 22.2901 131.258 20.2601 131.258 16.9351C131.258 13.6801 129.298 11.6151 126.358 11.6151C123.418 11.6151 121.458 13.6801 121.458 16.9351C121.458 20.2251 123.418 22.2901 126.358 22.2901Z" fill="#000"></path><path d="M107.482 7.59009C110.772 7.59009 113.992 9.20009 113.992 14.4151V26.0001H109.652V14.9751C109.652 12.8051 108.007 11.6151 106.117 11.6151C103.422 11.6151 101.742 13.1551 101.742 16.1301V26.0001H97.4019V14.9751C97.4019 12.8051 95.7919 11.6151 93.8669 11.6151C91.1719 11.6151 89.4919 13.1551 89.4919 16.1301V26.0001H85.1169V7.90509H89.1069L89.1769 10.8451C90.3319 8.95509 92.3619 7.59009 95.1619 7.59009C97.5769 7.59009 100.027 8.50009 101.042 11.3001C102.127 8.99009 104.192 7.59009 107.482 7.59009Z" fill="#000"></path><path d="M72.4907 26.3151C66.8557 26.3151 63.1107 22.6051 63.1107 16.9351C63.1107 11.3001 66.8207 7.59009 72.4907 7.59009C78.1257 7.59009 81.8707 11.3001 81.8707 16.9351C81.8707 22.6051 78.1257 26.3151 72.4907 26.3151ZM72.4907 22.2901C75.4657 22.2901 77.3907 20.2601 77.3907 16.9351C77.3907 13.6801 75.4307 11.6151 72.4907 11.6151C69.5507 11.6151 67.5907 13.6801 67.5907 16.9351C67.5907 20.2251 69.5507 22.2901 72.4907 22.2901Z" fill="#000"></path><path d="M55.514 10.7051V0.485107H59.889V26.0001H55.514V23.0601C54.394 25.0551 52.294 26.3151 49.704 26.3151C44.664 26.3151 41.304 22.7101 41.304 16.9351C41.304 11.3351 44.559 7.59011 49.739 7.59011C52.434 7.59011 54.429 8.71011 55.514 10.7051ZM50.649 22.3251C53.624 22.3251 55.619 20.2601 55.619 16.9351C55.619 13.7151 53.659 11.5801 50.649 11.5801C47.709 11.5801 45.784 13.6451 45.784 16.9351C45.784 20.1901 47.639 22.3251 50.649 22.3251Z" fill="#000"></path><path d="M31.5968 7.59009C35.7968 7.59009 38.2817 10.1451 38.2817 14.5551V26.0001H33.9067V15.9551C33.9067 12.9451 32.4017 11.6151 30.0567 11.6151C27.0117 11.6151 25.5417 13.8901 25.5417 16.9351V26.0001H21.1667V7.90509H25.2617L25.4017 11.0201C26.6617 8.88509 28.6217 7.59009 31.5968 7.59009Z" fill="#000"></path><path d="M17.655 16.4801C17.655 17.0401 17.62 17.4951 17.515 18.0551H4.42498C4.70498 20.9251 6.13998 22.5001 9.25498 22.5001C11.705 22.5001 13.28 21.2051 13.875 19.2451L17.515 20.4001C16.29 24.3901 13.28 26.3151 9.14998 26.3151C3.86498 26.3151 0.0149841 23.1651 0.0149841 17.1451C0.0149841 11.0901 4.07498 7.59009 9.21999 7.59009C14.33 7.59009 17.655 10.9151 17.655 16.4801ZM9.18498 11.3001C7.11998 11.3001 5.36998 12.3501 4.66998 14.5901H13.28C12.93 12.5251 11.425 11.3001 9.18498 11.3001Z" fill="#000"></path></svg> 