<svg width="1920" height="789" viewBox="0 0 1920 789" fill="none" xmlns="http://www.w3.org/2000/svg">
<g clip-path="url(#clip0_15117_25836)">
<path opacity="0.3" d="M-193.22 368.907C-58.0558 265.51 201.117 199.752 453.628 153.093C574.922 130.675 705.309 108.469 834.433 107.472C963.557 106.475 1071.31 136.685 1086.5 189.565C1102.78 246.322 1022.83 303.626 940.443 352.333C860.387 399.67 733.068 455.967 784.571 512.69C808.882 539.448 874.512 547.96 940.599 552.707C1012.72 557.912 1089.3 557.717 1164.66 551.792C1318 539.73 1448.76 502.084 1583.93 468.807C1719.1 435.53 1873.36 412.657 2028.89 419.294C2169.5 425.298 2300.27 450.736 2384.15 493.951C2395.65 499.875 2409.77 498.972 2418.69 491.163C2427.62 483.355 2425.83 469.874 2413.83 463.702C2263.02 386.011 1980.8 356.1 1725.98 398.299C1576.22 423.093 1448.83 467.818 1301.2 494.54C1226 508.144 1146.2 515.898 1067.53 517.338C1028.46 518.05 989.894 517.172 952.355 514.61C914.816 512.048 873.884 509.367 845.185 500.736C790.513 484.304 858.865 447.389 891.892 428.604C938.972 401.833 987.745 375.66 1028.68 347.416C1106.72 293.574 1153.56 234.873 1132.5 176.822C1113.73 125.043 1037.6 80.783 906.237 71.0135C781.036 61.6918 644.193 79.9298 521.716 100.894C234.996 149.973 -70.5952 220.134 -223.867 337.358C-235.161 345.987 -236.417 356.432 -227.958 364.623C-223.417 368.982 -204.869 377.776 -193.29 368.887L-193.22 368.907Z" fill="#87AA14" fill-opacity="0.5"/>
</g>
<defs>
<clipPath id="clip0_15117_25836">
<rect width="1920" height="789" fill="white"/>
</clipPath>
</defs>
</svg>
