<svg width="834" height="354" viewBox="0 0 834 354" fill="none" xmlns="http://www.w3.org/2000/svg">
<g clip-path="url(#clip0_22982_144933)">
<path opacity="0.3" d="M-932.903 214.609C-799.961 151.426 -541.866 112.276 -289.987 84.9057C-168.996 71.7555 -38.889 58.7903 90.4611 58.9431C219.811 59.0959 328.498 78.4341 344.99 111.251C362.661 146.473 283.941 181.46 202.561 211.111C123.487 239.929 -2.72617 274.01 50.2402 309.421C75.241 326.126 141.203 331.785 207.532 335.117C279.914 338.768 356.639 339.104 432.009 335.886C585.356 329.336 715.463 306.818 850.093 287.03C984.723 267.242 1138.74 254.006 1294.73 259.041C1435.76 263.595 1567.39 280.118 1652.47 307.362C1664.13 311.097 1678.26 310.622 1687.01 305.843C1695.77 301.063 1693.65 292.71 1681.48 288.819C1528.51 239.84 1245.03 219.646 990.727 244.242C841.272 258.693 714.712 285.613 567.435 301.27C492.421 309.24 412.65 313.563 333.859 313.985C294.726 314.193 256.068 313.42 218.395 311.611C180.722 309.801 139.647 307.897 110.684 302.385C55.5107 291.89 123.108 269.452 155.748 258.023C202.276 241.736 250.515 225.83 290.851 208.595C367.752 175.739 413.272 139.69 390.77 103.639C370.725 71.4827 293.381 43.6375 161.529 36.8082C35.8599 30.2928 -100.809 40.7638 -223.02 53.0074C-509.117 81.6714 -813.615 123.269 -964.367 194.902C-975.476 200.175 -976.483 206.631 -967.811 211.751C-963.156 214.475 -944.361 220.028 -932.973 214.596L-932.903 214.609Z" fill="#87AA14" fill-opacity="0.5"/>
</g>
<defs>
<clipPath id="clip0_22982_144933">
<rect width="834" height="354" fill="white"/>
</clipPath>
</defs>
</svg>
