<svg width="185" height="29" viewBox="0 0 185 29" fill="none" xmlns="http://www.w3.org/2000/svg">
<g clip-path="url(#clip0_20562_24668)">
<circle cx="14.5" cy="14.5" r="14.5" fill="black"/>
<path d="M22.5556 14.0181C22.5556 14.5288 22.5238 14.9438 22.4286 15.4546H10.5528C10.8068 18.0721 12.1087 19.5085 14.9348 19.5085C17.1575 19.5085 18.5864 18.3275 19.1262 16.5399L22.4286 17.5933C21.3172 21.2323 18.5864 22.9879 14.8395 22.9879C10.0448 22.9879 6.55188 20.115 6.55188 14.6246C6.55188 9.10226 10.2353 5.91016 14.903 5.91016C19.539 5.91016 22.5556 8.94266 22.5556 14.0181ZM14.8713 9.29379C12.9978 9.29379 11.4101 10.2514 10.7751 12.2944H18.5864C18.2689 10.411 16.9035 9.29379 14.8713 9.29379Z" fill="white"/>
</g>
<path d="M177.634 24.1127C173.44 24.1127 170.652 21.3513 170.652 17.1312C170.652 12.9371 173.414 10.1758 177.634 10.1758C181.828 10.1758 184.615 12.9371 184.615 17.1312C184.615 21.3513 181.828 24.1127 177.634 24.1127ZM177.634 21.1169C179.848 21.1169 181.281 19.606 181.281 17.1312C181.281 14.7085 179.822 13.1716 177.634 13.1716C175.445 13.1716 173.987 14.7085 173.987 17.1312C173.987 19.5799 175.445 21.1169 177.634 21.1169Z" fill="black"/>
<path d="M164.998 12.4934V4.88672H168.254V23.8773H164.998V21.6891C164.164 23.174 162.601 24.1118 160.674 24.1118C156.923 24.1118 154.422 21.4286 154.422 17.1303C154.422 12.9623 156.844 10.1749 160.7 10.1749C162.706 10.1749 164.191 11.0085 164.998 12.4934ZM161.377 21.1421C163.591 21.1421 165.076 19.6051 165.076 17.1303C165.076 14.7337 163.617 13.1446 161.377 13.1446C159.189 13.1446 157.756 14.6816 157.756 17.1303C157.756 19.553 159.137 21.1421 161.377 21.1421Z" fill="black"/>
<path d="M147.197 10.1758C150.323 10.1758 152.172 12.0774 152.172 15.3598V23.8782H148.916V16.4018C148.916 14.1615 147.796 13.1716 146.05 13.1716C143.784 13.1716 142.69 14.8648 142.69 17.1312V23.8782H139.434V10.4102H142.482L142.586 12.7287C143.524 11.1396 144.982 10.1758 147.197 10.1758Z" fill="black"/>
<path d="M130.036 24.1127C125.842 24.1127 123.055 21.3513 123.055 17.1312C123.055 12.9371 125.816 10.1758 130.036 10.1758C134.23 10.1758 137.017 12.9371 137.017 17.1312C137.017 21.3513 134.23 24.1127 130.036 24.1127ZM130.036 21.1169C132.25 21.1169 133.683 19.606 133.683 17.1312C133.683 14.7085 132.224 13.1716 130.036 13.1716C127.848 13.1716 126.389 14.7085 126.389 17.1312C126.389 19.5799 127.848 21.1169 130.036 21.1169Z" fill="black"/>
<path d="M115.987 10.1758C118.436 10.1758 120.832 11.3741 120.832 15.2556V23.8782H117.602V15.6724C117.602 14.0573 116.378 13.1716 114.971 13.1716C112.965 13.1716 111.715 14.3178 111.715 16.532V23.8782H108.484V15.6724C108.484 14.0573 107.286 13.1716 105.853 13.1716C103.848 13.1716 102.597 14.3178 102.597 16.532V23.8782H99.3408V10.4102H102.311L102.363 12.5985C103.222 11.1917 104.733 10.1758 106.817 10.1758C108.615 10.1758 110.438 10.8531 111.194 12.9371C112.001 11.2178 113.538 10.1758 115.987 10.1758Z" fill="black"/>
<path d="M89.9431 24.1127C85.749 24.1127 82.9617 21.3513 82.9617 17.1312C82.9617 12.9371 85.723 10.1758 89.9431 10.1758C94.1372 10.1758 96.9246 12.9371 96.9246 17.1312C96.9246 21.3513 94.1372 24.1127 89.9431 24.1127ZM89.9431 21.1169C92.1574 21.1169 93.5902 19.606 93.5902 17.1312C93.5902 14.7085 92.1314 13.1716 89.9431 13.1716C87.7549 13.1716 86.2961 14.7085 86.2961 17.1312C86.2961 19.5799 87.7549 21.1169 89.9431 21.1169Z" fill="black"/>
<path d="M77.3075 12.4934V4.88672H80.5637V23.8773H77.3075V21.6891C76.4739 23.174 74.9109 24.1118 72.9831 24.1118C69.2319 24.1118 66.7311 21.4286 66.7311 17.1303C66.7311 12.9623 69.1538 10.1749 73.0092 10.1749C75.0151 10.1749 76.4999 11.0085 77.3075 12.4934ZM73.6865 21.1421C75.9008 21.1421 77.3856 19.6051 77.3856 17.1303C77.3856 14.7337 75.9268 13.1446 73.6865 13.1446C71.4983 13.1446 70.0655 14.6816 70.0655 17.1303C70.0655 19.553 71.4462 21.1421 73.6865 21.1421Z" fill="black"/>
<path d="M59.5061 10.1758C62.6322 10.1758 64.4817 12.0774 64.4817 15.3598V23.8782H61.2254V16.4018C61.2254 14.1615 60.1053 13.1716 58.3599 13.1716C56.0936 13.1716 54.9994 14.8648 54.9994 17.1312V23.8782H51.7432V10.4102H54.791L54.8952 12.7287C55.8331 11.1396 57.2919 10.1758 59.5061 10.1758Z" fill="black"/>
<path d="M49.1293 16.7925C49.1293 17.2093 49.1033 17.548 49.0251 17.9648H39.2823C39.4907 20.1009 40.5588 21.2732 42.8773 21.2732C44.7008 21.2732 45.873 20.3093 46.3159 18.8505L49.0251 19.7102C48.1134 22.6799 45.873 24.1127 42.7991 24.1127C38.8655 24.1127 36 21.7681 36 17.2875C36 12.7808 39.0218 10.1758 42.8512 10.1758C46.6545 10.1758 49.1293 12.6506 49.1293 16.7925ZM42.8252 12.9371C41.2882 12.9371 39.9857 13.7186 39.4647 15.3858H45.873C45.6125 13.8489 44.4924 12.9371 42.8252 12.9371Z" fill="black"/>
<defs>
<clipPath id="clip0_20562_24668">
<rect width="29" height="29" rx="2.25556" fill="white"/>
</clipPath>
</defs>
</svg>
