<svg width="20" height="20" viewBox="0 0 20 20" fill="none" xmlns="http://www.w3.org/2000/svg">
<path d="M13.8221 1.6665H6.17851C3.69082 1.6665 1.66699 3.69033 1.66699 6.17802V13.8218C1.66699 16.3093 3.69082 18.3332 6.17851 18.3332H13.8223C16.3098 18.3332 18.3337 16.3093 18.3337 13.8218V6.17802C18.3337 3.69033 16.3098 1.6665 13.8221 1.6665ZM10.0003 14.557C7.48746 14.557 5.44316 12.5127 5.44316 9.99984C5.44316 7.48697 7.48746 5.44267 10.0003 5.44267C12.5132 5.44267 14.5575 7.48697 14.5575 9.99984C14.5575 12.5127 12.5132 14.557 10.0003 14.557ZM14.6665 6.5174C13.9239 6.5174 13.3199 5.91341 13.3199 5.17081C13.3199 4.42822 13.9239 3.8241 14.6665 3.8241C15.4091 3.8241 16.0132 4.42822 16.0132 5.17081C16.0132 5.91341 15.4091 6.5174 14.6665 6.5174Z" fill="#101010"/>
<path d="M10 6.41992C8.02604 6.41992 6.41992 8.02591 6.41992 10C6.41992 11.974 8.02604 13.5801 10 13.5801C11.9741 13.5801 13.5801 11.974 13.5801 10C13.5801 8.02591 11.9741 6.41992 10 6.41992Z" fill="#101010"/>
<path d="M14.6664 4.80127C14.4627 4.80127 14.2969 4.96708 14.2969 5.17079C14.2969 5.37449 14.4627 5.5403 14.6664 5.5403C14.8702 5.5403 15.036 5.37462 15.036 5.17079C15.036 4.96695 14.8702 4.80127 14.6664 4.80127Z" fill="#101010"/>
</svg>
