<svg width="157" height="21" viewBox="0 0 157 21" fill="none" xmlns="http://www.w3.org/2000/svg">
<path d="M149.246 20.3553C144.838 20.3553 141.909 17.4534 141.909 13.0184C141.909 8.61086 144.811 5.70898 149.246 5.70898C153.654 5.70898 156.583 8.61086 156.583 13.0184C156.583 17.4534 153.654 20.3553 149.246 20.3553ZM149.246 17.207C151.573 17.207 153.079 15.6192 153.079 13.0184C153.079 10.4724 151.546 8.85725 149.246 8.85725C146.946 8.85725 145.413 10.4724 145.413 13.0184C145.413 15.5918 146.946 17.207 149.246 17.207Z" fill="black"/>
<path d="M135.967 8.14572V0.151855H139.389V20.1091H135.967V17.8095C135.091 19.37 133.449 20.3555 131.423 20.3555C127.481 20.3555 124.853 17.5358 124.853 13.0187C124.853 8.63849 127.399 5.70923 131.45 5.70923C133.558 5.70923 135.119 6.58527 135.967 8.14572ZM132.162 17.2346C134.489 17.2346 136.049 15.6194 136.049 13.0187C136.049 10.5001 134.516 8.83012 132.162 8.83012C129.862 8.83012 128.357 10.4453 128.357 13.0187C128.357 15.5647 129.808 17.2346 132.162 17.2346Z" fill="black"/>
<path d="M117.26 5.70898C120.545 5.70898 122.489 7.70745 122.489 11.1569V20.1089H119.067V12.2519C119.067 9.89755 117.889 8.85725 116.055 8.85725C113.673 8.85725 112.524 10.6367 112.524 13.0184V20.1089H109.102V5.95537H112.305L112.414 8.39185C113.4 6.7219 114.933 5.70898 117.26 5.70898Z" fill="black"/>
<path d="M99.2255 20.3553C94.8179 20.3553 91.8887 17.4534 91.8887 13.0184C91.8887 8.61086 94.7906 5.70898 99.2255 5.70898C103.633 5.70898 106.562 8.61086 106.562 13.0184C106.562 17.4534 103.633 20.3553 99.2255 20.3553ZM99.2255 17.207C101.552 17.207 103.058 15.6192 103.058 13.0184C103.058 10.4724 101.525 8.85725 99.2255 8.85725C96.9259 8.85725 95.3928 10.4724 95.3928 13.0184C95.3928 15.5918 96.9259 17.207 99.2255 17.207Z" fill="black"/>
<path d="M84.4612 5.70898C87.0346 5.70898 89.5532 6.96829 89.5532 11.0473V20.1089H86.1585V11.4854C86.1585 9.78804 84.8718 8.85725 83.3935 8.85725C81.2855 8.85725 79.9715 10.0618 79.9715 12.3888V20.1089H76.5768V11.4854C76.5768 9.78804 75.3175 8.85725 73.8118 8.85725C71.7039 8.85725 70.3898 10.0618 70.3898 12.3888V20.1089H66.9678V5.95537H70.0887L70.1434 8.25497C71.0468 6.77666 72.6347 5.70898 74.8248 5.70898C76.7137 5.70898 78.6301 6.42077 79.424 8.61086C80.2726 6.80403 81.8878 5.70898 84.4612 5.70898Z" fill="black"/>
<path d="M57.0927 20.3553C52.6851 20.3553 49.7559 17.4534 49.7559 13.0184C49.7559 8.61086 52.6577 5.70898 57.0927 5.70898C61.5003 5.70898 64.4295 8.61086 64.4295 13.0184C64.4295 17.4534 61.5003 20.3553 57.0927 20.3553ZM57.0927 17.207C59.4197 17.207 60.9254 15.6192 60.9254 13.0184C60.9254 10.4724 59.3923 8.85725 57.0927 8.85725C54.7931 8.85725 53.26 10.4724 53.26 13.0184C53.26 15.5918 54.7931 17.207 57.0927 17.207Z" fill="black"/>
<path d="M43.813 8.14572V0.151855H47.235V20.1091H43.813V17.8095C42.937 19.37 41.2944 20.3555 39.2685 20.3555C35.3264 20.3555 32.6982 17.5358 32.6982 13.0187C32.6982 8.63849 35.2442 5.70923 39.2959 5.70923C41.4039 5.70923 42.9643 6.58527 43.813 8.14572ZM40.0077 17.2346C42.3347 17.2346 43.8951 15.6194 43.8951 13.0187C43.8951 10.5001 42.3621 8.83012 40.0077 8.83012C37.7081 8.83012 36.2024 10.4453 36.2024 13.0187C36.2024 15.5647 37.6533 17.2346 40.0077 17.2346Z" fill="black"/>
<path d="M25.1054 5.70898C28.3905 5.70898 30.3342 7.70745 30.3342 11.1569V20.1089H26.9122V12.2519C26.9122 9.89755 25.735 8.85725 23.9008 8.85725C21.5191 8.85725 20.3693 10.6367 20.3693 13.0184V20.1089H16.9473V5.95537H20.1503L20.2598 8.39185C21.2453 6.7219 22.7784 5.70898 25.1054 5.70898Z" fill="black"/>
<path d="M14.2009 12.6625C14.2009 13.1006 14.1736 13.4565 14.0914 13.8945H3.85273C4.07174 16.1393 5.19416 17.3713 7.63065 17.3713C9.54698 17.3713 10.7789 16.3583 11.2443 14.8253L14.0914 15.7287C13.1333 18.8496 10.7789 20.3553 7.54852 20.3553C3.41471 20.3553 0.40332 17.8914 0.40332 13.1827C0.40332 8.44661 3.57896 5.70898 7.60327 5.70898C11.6002 5.70898 14.2009 8.30973 14.2009 12.6625ZM7.57589 8.61086C5.9607 8.61086 4.59189 9.43215 4.04436 11.1842H10.7789C10.5052 9.56903 9.32797 8.61086 7.57589 8.61086Z" fill="black"/>
</svg>
