<svg width="219" height="60" viewBox="0 0 219 60" fill="none" xmlns="http://www.w3.org/2000/svg">
<path d="M199.808 41.3148C194.173 41.3148 190.428 37.6048 190.428 31.9348C190.428 26.2998 194.138 22.5898 199.808 22.5898C205.443 22.5898 209.188 26.2998 209.188 31.9348C209.188 37.6048 205.443 41.3148 199.808 41.3148ZM199.808 37.2898C202.783 37.2898 204.708 35.2598 204.708 31.9348C204.708 28.6798 202.748 26.6148 199.808 26.6148C196.868 26.6148 194.908 28.6798 194.908 31.9348C194.908 35.2248 196.868 37.2898 199.808 37.2898Z" fill="black"/>
<path d="M182.832 25.7044V15.4844H187.207V40.9994H182.832V38.0594C181.712 40.0544 179.612 41.3144 177.022 41.3144C171.982 41.3144 168.622 37.7094 168.622 31.9344C168.622 26.3344 171.877 22.5894 177.057 22.5894C179.752 22.5894 181.747 23.7094 182.832 25.7044ZM177.967 37.3244C180.942 37.3244 182.937 35.2594 182.937 31.9344C182.937 28.7144 180.977 26.5794 177.967 26.5794C175.027 26.5794 173.102 28.6444 173.102 31.9344C173.102 35.1894 174.957 37.3244 177.967 37.3244Z" fill="black"/>
<path d="M158.914 22.5898C163.114 22.5898 165.599 25.1448 165.599 29.5548V40.9998H161.224V30.9548C161.224 27.9448 159.719 26.6148 157.374 26.6148C154.329 26.6148 152.859 28.8898 152.859 31.9348V40.9998H148.484V22.9048H152.579L152.719 26.0198C153.979 23.8848 155.939 22.5898 158.914 22.5898Z" fill="black"/>
<path d="M135.858 41.3148C130.223 41.3148 126.478 37.6048 126.478 31.9348C126.478 26.2998 130.188 22.5898 135.858 22.5898C141.493 22.5898 145.238 26.2998 145.238 31.9348C145.238 37.6048 141.493 41.3148 135.858 41.3148ZM135.858 37.2898C138.833 37.2898 140.758 35.2598 140.758 31.9348C140.758 28.6798 138.798 26.6148 135.858 26.6148C132.918 26.6148 130.958 28.6798 130.958 31.9348C130.958 35.2248 132.918 37.2898 135.858 37.2898Z" fill="black"/>
<path d="M116.982 22.5898C120.272 22.5898 123.492 24.1998 123.492 29.4148V40.9998H119.152V29.9748C119.152 27.8048 117.507 26.6148 115.617 26.6148C112.922 26.6148 111.242 28.1548 111.242 31.1298V40.9998H106.902V29.9748C106.902 27.8048 105.292 26.6148 103.367 26.6148C100.672 26.6148 98.9922 28.1548 98.9922 31.1298V40.9998H94.6172V22.9048H98.6072L98.6772 25.8448C99.8322 23.9548 101.862 22.5898 104.662 22.5898C107.077 22.5898 109.527 23.4998 110.542 26.2998C111.627 23.9898 113.692 22.5898 116.982 22.5898Z" fill="black"/>
<path d="M81.9908 41.3148C76.3558 41.3148 72.6108 37.6048 72.6108 31.9348C72.6108 26.2998 76.3208 22.5898 81.9908 22.5898C87.6258 22.5898 91.3708 26.2998 91.3708 31.9348C91.3708 37.6048 87.6258 41.3148 81.9908 41.3148ZM81.9908 37.2898C84.9658 37.2898 86.8908 35.2598 86.8908 31.9348C86.8908 28.6798 84.9308 26.6148 81.9908 26.6148C79.0508 26.6148 77.0908 28.6798 77.0908 31.9348C77.0908 35.2248 79.0508 37.2898 81.9908 37.2898Z" fill="black"/>
<path d="M65.0142 25.7044V15.4844H69.3892V40.9994H65.0142V38.0594C63.8942 40.0544 61.7942 41.3144 59.2042 41.3144C54.1642 41.3144 50.8042 37.7094 50.8042 31.9344C50.8042 26.3344 54.0592 22.5894 59.2392 22.5894C61.9342 22.5894 63.9292 23.7094 65.0142 25.7044ZM60.1492 37.3244C63.1242 37.3244 65.1192 35.2594 65.1192 31.9344C65.1192 28.7144 63.1592 26.5794 60.1492 26.5794C57.2092 26.5794 55.2842 28.6444 55.2842 31.9344C55.2842 35.1894 57.1392 37.3244 60.1492 37.3244Z" fill="black"/>
<path d="M41.097 22.5898C45.297 22.5898 47.782 25.1448 47.782 29.5548V40.9998H43.407V30.9548C43.407 27.9448 41.902 26.6148 39.557 26.6148C36.512 26.6148 35.042 28.8898 35.042 31.9348V40.9998H30.667V22.9048H34.762L34.902 26.0198C36.162 23.8848 38.122 22.5898 41.097 22.5898Z" fill="black"/>
<path d="M27.1551 31.4798C27.1551 32.0398 27.1201 32.4948 27.0151 33.0548H13.9251C14.2051 35.9248 15.6401 37.4998 18.7551 37.4998C21.2051 37.4998 22.7801 36.2048 23.3751 34.2448L27.0151 35.3998C25.7901 39.3898 22.7801 41.3148 18.6501 41.3148C13.3651 41.3148 9.51514 38.1648 9.51514 32.1448C9.51514 26.0898 13.5751 22.5898 18.7201 22.5898C23.8301 22.5898 27.1551 25.9148 27.1551 31.4798ZM18.6851 26.2998C16.6201 26.2998 14.8701 27.3498 14.1701 29.5898H22.7801C22.4301 27.5248 20.9251 26.2998 18.6851 26.2998Z" fill="black"/>
</svg>
