<svg width="99" height="16" viewBox="0 0 99 16" fill="none" xmlns="http://www.w3.org/2000/svg">
<g clip-path="url(#clip0_20760_2574)">
<circle cx="7.74541" cy="7.73955" r="7.74541" fill="black"/>
<path d="M12.0486 7.48334C12.0486 7.75616 12.0317 7.97782 11.9808 8.25064H5.63716C5.77285 9.64884 6.46828 10.4161 7.97786 10.4161C9.16516 10.4161 9.92844 9.78524 10.2168 8.83038L11.9808 9.39307C11.3871 11.3369 9.92844 12.2747 7.92697 12.2747C5.36577 12.2747 3.5 10.7401 3.5 7.80731C3.5 4.85746 5.46754 3.15234 7.96089 3.15234C10.4373 3.15234 12.0486 4.7722 12.0486 7.48334ZM7.94393 4.95977C6.9432 4.95977 6.09512 5.4713 5.75589 6.56258H9.92844C9.75882 5.55656 9.02947 4.95977 7.94393 4.95977Z" fill="white"/>
</g>
<path d="M94.8855 12.8762C92.6452 12.8762 91.1562 11.4012 91.1562 9.14698C91.1562 6.90665 92.6313 5.43164 94.8855 5.43164C97.1258 5.43164 98.6148 6.90665 98.6148 9.14698C98.6148 11.4012 97.1258 12.8762 94.8855 12.8762ZM94.8855 11.276C96.0683 11.276 96.8336 10.4689 96.8336 9.14698C96.8336 7.85288 96.0544 7.03188 94.8855 7.03188C93.7166 7.03188 92.9374 7.85288 92.9374 9.14698C92.9374 10.455 93.7166 11.276 94.8855 11.276Z" fill="black"/>
<path d="M88.1378 6.66869V2.60547H89.8772V12.7496H88.1378V11.5807C87.6925 12.3739 86.8576 12.8748 85.8279 12.8748C83.8241 12.8748 82.4883 11.4416 82.4883 9.14559C82.4883 6.91916 83.7824 5.43024 85.8418 5.43024C86.9133 5.43024 87.7065 5.87553 88.1378 6.66869ZM86.2036 11.2885C87.3864 11.2885 88.1796 10.4675 88.1796 9.14559C88.1796 7.86539 87.4003 7.01657 86.2036 7.01657C85.0348 7.01657 84.2694 7.83756 84.2694 9.14559C84.2694 10.4397 85.0069 11.2885 86.2036 11.2885Z" fill="black"/>
<path d="M78.6272 5.43164C80.297 5.43164 81.285 6.44745 81.285 8.20075V12.751H79.5456V8.75736C79.5456 7.56066 78.9472 7.03188 78.0149 7.03188C76.8043 7.03188 76.2199 7.93637 76.2199 9.14698V12.751H74.4805V5.55688H76.1085L76.1642 6.79532C76.6651 5.9465 77.4444 5.43164 78.6272 5.43164Z" fill="black"/>
<path d="M69.4617 12.8762C67.2213 12.8762 65.7324 11.4012 65.7324 9.14698C65.7324 6.90665 67.2074 5.43164 69.4617 5.43164C71.702 5.43164 73.1909 6.90665 73.1909 9.14698C73.1909 11.4012 71.702 12.8762 69.4617 12.8762ZM69.4617 11.276C70.6445 11.276 71.4098 10.4689 71.4098 9.14698C71.4098 7.85288 70.6306 7.03188 69.4617 7.03188C68.2928 7.03188 67.5136 7.85288 67.5136 9.14698C67.5136 10.455 68.2928 11.276 69.4617 11.276Z" fill="black"/>
<path d="M61.9562 5.43164C63.2643 5.43164 64.5445 6.07174 64.5445 8.14509V12.751H62.819V8.36774C62.819 7.505 62.165 7.03188 61.4135 7.03188C60.3421 7.03188 59.6741 7.64415 59.6741 8.82694V12.751H57.9487V8.36774C57.9487 7.505 57.3086 7.03188 56.5432 7.03188C55.4718 7.03188 54.8038 7.64415 54.8038 8.82694V12.751H53.0645V5.55688H54.6508L54.6786 6.72575C55.1378 5.97433 55.9449 5.43164 57.0581 5.43164C58.0182 5.43164 58.9923 5.79343 59.3958 6.90665C59.8272 5.98825 60.6482 5.43164 61.9562 5.43164Z" fill="black"/>
<path d="M48.0457 12.8762C45.8053 12.8762 44.3164 11.4012 44.3164 9.14698C44.3164 6.90665 45.7914 5.43164 48.0457 5.43164C50.286 5.43164 51.7749 6.90665 51.7749 9.14698C51.7749 11.4012 50.286 12.8762 48.0457 12.8762ZM48.0457 11.276C49.2285 11.276 49.9938 10.4689 49.9938 9.14698C49.9938 7.85288 49.2145 7.03188 48.0457 7.03188C46.8768 7.03188 46.0975 7.85288 46.0975 9.14698C46.0975 10.455 46.8768 11.276 48.0457 11.276Z" fill="black"/>
<path d="M41.296 6.66869V2.60547H43.0354V12.7496H41.296V11.5807C40.8508 12.3739 40.0158 12.8748 38.9861 12.8748C36.9823 12.8748 35.6465 11.4416 35.6465 9.14559C35.6465 6.91916 36.9406 5.43024 39 5.43024C40.0715 5.43024 40.8647 5.87553 41.296 6.66869ZM39.3618 11.2885C40.5446 11.2885 41.3378 10.4675 41.3378 9.14559C41.3378 7.86539 40.5585 7.01657 39.3618 7.01657C38.193 7.01657 37.4276 7.83756 37.4276 9.14559C37.4276 10.4397 38.1651 11.2885 39.3618 11.2885Z" fill="black"/>
<path d="M31.7873 5.43164C33.4572 5.43164 34.4451 6.44745 34.4451 8.20075V12.751H32.7057V8.75736C32.7057 7.56066 32.1074 7.03188 31.1751 7.03188C29.9645 7.03188 29.38 7.93637 29.38 9.14698V12.751H27.6406V5.55688H29.2687L29.3244 6.79532C29.8253 5.9465 30.6046 5.43164 31.7873 5.43164Z" fill="black"/>
<path d="M26.2437 8.96609C26.2437 9.18873 26.2298 9.36963 26.188 9.59227H20.9838C21.0951 10.7333 21.6656 11.3595 22.9041 11.3595C23.8781 11.3595 24.5043 10.8446 24.7409 10.0654L26.188 10.5246C25.701 12.1109 24.5043 12.8762 22.8623 12.8762C20.7611 12.8762 19.2305 11.6239 19.2305 9.23047C19.2305 6.82315 20.8446 5.43164 22.8902 5.43164C24.9218 5.43164 26.2437 6.75358 26.2437 8.96609ZM22.8762 6.90665C22.0552 6.90665 21.3595 7.3241 21.0812 8.21467H24.5043C24.3652 7.39368 23.7668 6.90665 22.8762 6.90665Z" fill="black"/>
<defs>
<clipPath id="clip0_20760_2574">
<rect y="-0.00585938" width="15.4908" height="15.4908" rx="1.20484" fill="white"/>
</clipPath>
</defs>
</svg>
