<svg width="20" height="20" viewBox="0 0 20 20" fill="none" xmlns="http://www.w3.org/2000/svg">
<path d="M17.6745 5.34732H18.3337V3.40283H12.1001L10.0286 11.0417H9.97194L7.91923 3.40283H1.66699V5.34727H2.3073C2.45532 5.37136 2.59266 5.43948 2.70141 5.54275C2.81016 5.64602 2.88529 5.77965 2.91699 5.92623V14.1182C2.88332 14.2595 2.80657 14.3869 2.69734 14.4826C2.58811 14.5784 2.45181 14.6379 2.3073 14.6528H1.66699V16.5973H6.66699V14.6528H5.41699V6.04174H5.48993L8.37124 16.5973H10.6312L13.5502 6.04174H13.6115V14.6528H12.3615V16.5973H18.3337V14.6528H17.6745C17.5333 14.6345 17.4011 14.5734 17.2955 14.4779C17.1899 14.3823 17.116 14.2568 17.0837 14.1182V5.92628C17.1143 5.78236 17.1867 5.65066 17.2918 5.54768C17.3969 5.4447 17.53 5.375 17.6745 5.34732Z" fill="#101010"/>
</svg>
