<svg width="16" height="16" viewBox="0 0 16 16" fill="none" xmlns="http://www.w3.org/2000/svg">
<path d="M12.6667 11.696L15 14.666H2.66667C2.48986 14.666 2.32029 14.5958 2.19526 14.4708C2.07024 14.3457 2 14.1762 2 13.9993L2 1.99935C2 1.82254 2.07024 1.65297 2.19526 1.52794C2.32029 1.40292 2.48986 1.33268 2.66667 1.33268H12C12.1768 1.33268 12.3464 1.40292 12.4714 1.52794C12.5964 1.65297 12.6667 1.82254 12.6667 1.99935V11.696ZM6.66667 11.3327H8V9.99935H6.66667V11.3327ZM6.66667 8.66602H8V7.33268H6.66667L6.66667 8.66602ZM6.66667 5.99935H8V4.66602H6.66667V5.99935Z" fill="black"/>
</svg>
