<svg width="1920" height="505" viewBox="0 0 1920 505" fill="none" xmlns="http://www.w3.org/2000/svg">
<path opacity="0.3" d="M6.71936 391.43C129.3 292.089 514.245 118.172 744.599 74.1482C855.25 52.997 1035.48 39.254 1153.49 38.8335C1271.49 38.413 1419.02 67.679 1433.39 118.84C1448.79 173.751 1352.83 260.609 1277.98 307.326C1205.25 352.73 1089.4 406.593 1137 461.619C1159.46 487.577 1219.53 496.077 1279.97 500.942C1345.93 506.275 1415.92 506.409 1484.75 501C1624.78 489.99 1743.94 454.164 1867.17 422.578C1990.4 390.992 2131.19 369.539 2273.4 376.606C2401.96 382.999 2521.72 408.129 2598.78 450.239C2609.34 456.011 2622.23 455.198 2630.32 447.69C2638.41 440.182 2636.65 427.149 2625.62 421.135C2487.07 345.43 2228.86 315.341 1996.35 355.046C1859.71 378.373 1743.69 421.054 1609.01 446.254C1540.41 459.083 1467.54 466.239 1395.65 467.3C1359.95 467.824 1324.7 466.814 1290.36 464.18C1256.03 461.547 1218.6 458.783 1192.29 450.323C1142.17 434.215 1204.3 398.833 1234.31 380.821C1277.09 355.151 1321.43 330.066 1358.58 302.947C1429.41 251.249 1495.1 162.901 1475.31 106.72C1457.69 56.6088 1338.93 13.8991 1218.78 3.90668C1104.26 -5.6271 918.093 4.25445 806.348 23.9962C544.749 70.2143 117.421 248.19 -21.5817 360.816C-31.8247 369.107 -32.8756 379.194 -25.0687 387.144C-20.8784 391.375 -3.84528 399.951 6.6554 391.41L6.71936 391.43Z" fill="#87AA14" fill-opacity="0.5"/>
</svg>
