<svg width="20" height="20" viewBox="0 0 20 20" fill="none" xmlns="http://www.w3.org/2000/svg">
<path d="M15.1843 2.84453C13.9582 1.6551 12.2614 1 10.4065 1C7.57306 1 5.83036 2.17371 4.86737 3.15827C3.68056 4.37162 3 5.98272 3 7.57854C3 9.58221 3.82936 11.1201 5.21822 11.6922C5.31146 11.7308 5.40528 11.7503 5.49726 11.7503C5.79026 11.7503 6.02241 11.5566 6.10284 11.2458C6.14972 11.0675 6.25836 10.6277 6.30559 10.4367C6.4067 10.0597 6.32501 9.87829 6.10451 9.61571C5.70282 9.13541 5.51576 8.56746 5.51576 7.8283C5.51576 5.63276 7.13356 3.29934 10.132 3.29934C12.5112 3.29934 13.9891 4.66579 13.9891 6.86539C13.9891 8.25344 13.6932 9.5389 13.1558 10.4851C12.7824 11.1426 12.1257 11.9264 11.1176 11.9264C10.6817 11.9264 10.2901 11.7454 10.043 11.4299C9.80961 11.1317 9.73268 10.7464 9.82656 10.3449C9.93261 9.89129 10.0772 9.41809 10.2172 8.96061C10.4724 8.12508 10.7137 7.33593 10.7137 6.70632C10.7137 5.62939 10.0585 4.90579 9.08355 4.90579C7.84446 4.90579 6.87372 6.17755 6.87372 7.80107C6.87372 8.5973 7.08312 9.19283 7.17792 9.42151C7.02182 10.0898 6.09411 14.0632 5.91814 14.8125C5.8164 15.2499 5.20346 18.7044 6.21798 18.9799C7.35785 19.2894 8.37674 15.9249 8.48043 15.5447C8.56448 15.2355 8.85857 14.0663 9.0388 13.3476C9.58906 13.8832 10.4751 14.2453 11.3372 14.2453C12.9624 14.2453 14.424 13.5062 15.4527 12.1644C16.4505 10.8629 17 9.04891 17 7.0568C17 5.49941 16.3382 3.96407 15.1843 2.84453Z" fill="#101010"/>
</svg>
