<svg width="24" height="24" viewBox="0 0 24 24" fill="none" xmlns="http://www.w3.org/2000/svg">
<g clip-path="url(#clip0_20438_44502)">
<path d="M16.6779 3.34452C13.0017 -0.331638 7.02073 -0.331638 3.34452 3.34452C-0.331638 7.02032 -0.331638 13.0016 3.34452 16.6779C5.18263 18.5159 7.59674 19.435 10.0112 19.435C12.0781 19.435 14.1418 18.7559 15.847 17.409L21.5255 23.0874L23.0874 21.5255L17.409 15.847C20.3294 12.1497 20.0894 6.75573 16.6779 3.34452ZM15.1159 15.1159C12.3013 17.9306 7.72116 17.9306 4.90646 15.1159C2.09181 12.3012 2.09181 7.72111 4.90646 4.90646C6.3138 3.49916 8.16267 2.79548 10.0112 2.79548C11.8597 2.79548 13.7086 3.49915 15.1159 4.90646C17.9306 7.72111 17.9306 12.3012 15.1159 15.1159Z" fill="black"/>
</g>
<defs>
<clipPath id="clip0_20438_44502">
<rect width="24" height="24" fill="white"/>
</clipPath>
</defs>
</svg>
