<svg width="776" height="229" viewBox="0 0 776 229" fill="none" xmlns="http://www.w3.org/2000/svg">
<g clip-path="url(#clip0_20958_99566)">
<rect width="776" height="229" fill="#F8F8F8"/>
<g opacity="0.5">
<path d="M-50.9737 431.835C-17.5372 391.781 83.3451 325.964 219.382 383.127C389.429 454.581 486.248 366.573 586.442 271.975C686.636 177.377 842.937 254.637 912.702 229.439C1003.95 196.48 1031.57 128.377 1054.89 86.3044" stroke="#EEEEEE" stroke-width="1.77359"/>
<path d="M-50.0357 403.909C-16.5992 363.855 84.2831 298.039 220.32 355.201C390.367 426.655 487.186 338.647 587.38 244.049C687.574 149.452 843.875 226.711 913.64 201.513C1004.89 168.554 1032.51 100.451 1055.83 58.3786" stroke="#EEEEEE" stroke-width="1.77359"/>
<path d="M-58.8109 379.899C-25.3744 339.846 75.508 274.029 211.545 331.192C381.592 402.645 478.411 314.637 578.605 220.04C678.799 125.442 835.1 202.701 904.865 177.503C996.117 144.544 1023.73 76.4413 1047.06 34.3689" stroke="#EEEEEE" stroke-width="1.77359"/>
<path d="M-60.842 346.849C-27.4055 306.795 73.4768 240.978 209.514 298.141C379.56 369.594 476.379 281.587 576.574 186.989C676.768 92.3911 833.069 169.65 902.834 144.452C994.086 111.493 1021.7 43.3905 1045.02 1.31809" stroke="#EEEEEE" stroke-width="1.77359"/>
<path d="M-70.1429 317.265C-36.7064 277.211 64.1759 211.394 200.213 268.557C370.26 340.01 467.079 252.003 567.273 157.405C667.467 62.8071 823.768 140.066 893.533 114.868C984.785 81.9095 1012.4 13.8065 1035.72 -28.2659" stroke="#EEEEEE" stroke-width="1.77359"/>
<path d="M-70.6059 291.444C-37.1694 251.391 63.7129 185.574 199.75 242.737C369.797 314.19 466.616 226.182 566.81 131.585C667.004 36.9868 823.305 114.246 893.07 89.048C984.322 56.0892 1011.94 -12.0138 1035.26 -54.0862" stroke="#EEEEEE" stroke-width="1.77359"/>
<path d="M-79.1817 261.628C-45.7452 221.574 55.1371 155.757 191.174 212.92C361.221 284.374 458.04 196.366 558.234 101.768C658.428 7.17036 814.729 84.4297 884.494 59.2316C975.746 26.2728 1003.36 -41.8302 1026.68 -83.9026" stroke="#EEEEEE" stroke-width="1.77359"/>
<path d="M-80.9018 233.64C-47.4653 193.586 53.417 127.769 189.454 184.932C359.501 256.385 456.32 168.378 556.514 73.7799C656.708 -20.8179 813.009 56.4414 882.774 31.2433C974.026 -1.7155 1001.64 -69.8185 1024.96 -111.891" stroke="#EEEEEE" stroke-width="1.77359"/>
<path d="M11.1115 556.739C44.548 516.686 145.43 450.869 281.468 508.032C451.514 579.485 548.333 491.477 648.527 396.88C748.721 302.282 905.022 379.541 974.787 354.343C1066.04 321.384 1093.65 253.281 1116.98 211.209" stroke="#EEEEEE" stroke-width="1.77359"/>
<path d="M30.0043 583.444C63.4408 543.391 164.323 477.574 300.36 534.737C470.407 606.19 567.226 518.182 667.42 423.585C767.614 328.987 923.915 406.246 993.68 381.048C1084.93 348.089 1112.55 279.986 1135.87 237.914" stroke="#EEEEEE" stroke-width="1.77359"/>
</g>
</g>
<defs>
<clipPath id="clip0_20958_99566">
<rect width="776" height="229" fill="white"/>
</clipPath>
</defs>
</svg>
