<svg width="343" height="274" viewBox="0 0 343 274" fill="none" xmlns="http://www.w3.org/2000/svg">
<g clip-path="url(#clip0_20329_72082)">
<rect width="343" height="273.675" fill="#F8F8F8"/>
<g opacity="0.5">
<path d="M-233.05 453.415C-199.613 413.361 -98.7309 347.545 37.3062 404.707C207.353 476.161 304.172 388.153 404.366 293.555C504.56 198.957 660.861 276.217 730.626 251.019C821.878 218.06 849.493 149.957 872.816 107.884" stroke="#EEEEEE" stroke-width="1.77359"/>
<path d="M-248.974 431.834C-215.537 391.78 -114.655 325.964 21.3824 383.126C191.429 454.58 288.248 366.572 388.442 271.974C488.636 177.376 644.937 254.636 714.702 229.438C805.954 196.479 833.569 128.376 856.892 86.3034" stroke="#EEEEEE" stroke-width="1.77359"/>
<path d="M-248.036 403.908C-214.599 363.854 -113.717 298.038 22.3204 355.2C192.367 426.654 289.186 338.646 389.38 244.048C489.574 149.451 645.875 226.71 715.64 201.512C806.892 168.553 834.507 100.45 857.83 58.3777" stroke="#EEEEEE" stroke-width="1.77359"/>
<path d="M-256.811 379.899C-223.374 339.846 -122.492 274.029 13.5455 331.192C183.592 402.645 280.411 314.637 380.605 220.04C480.799 125.442 637.1 202.701 706.865 177.503C798.117 144.544 825.732 76.4413 849.055 34.3689" stroke="#EEEEEE" stroke-width="1.77359"/>
<path d="M-258.842 346.85C-225.405 306.796 -124.523 240.979 11.5143 298.142C181.561 369.595 278.38 281.588 378.574 186.99C478.768 92.392 635.069 169.651 704.834 144.453C796.086 111.494 823.701 43.3914 847.024 1.31907" stroke="#EEEEEE" stroke-width="1.77359"/>
<path d="M-268.143 317.264C-234.706 277.21 -133.824 211.393 2.21348 268.556C172.26 340.009 269.079 252.002 369.273 157.404C469.467 62.8061 625.768 140.065 695.533 114.867C786.785 81.9085 814.4 13.8055 837.723 -28.2669" stroke="#EEEEEE" stroke-width="1.77359"/>
<path d="M-268.605 291.443C-235.169 251.39 -134.287 185.573 1.75058 242.736C171.797 314.189 268.616 226.181 368.81 131.584C469.005 36.9858 625.305 114.245 695.07 89.0471C786.322 56.0882 813.937 -12.0148 837.26 -54.0872" stroke="#EEEEEE" stroke-width="1.77359"/>
<path d="M-277.182 261.629C-243.745 221.575 -142.863 155.758 -6.82559 212.921C163.221 284.375 260.04 196.367 360.234 101.769C460.428 7.17133 616.729 84.4307 686.494 59.2326C777.746 26.2738 805.361 -41.8293 828.684 -83.9016" stroke="#EEEEEE" stroke-width="1.77359"/>
<path d="M-278.902 233.639C-245.465 193.585 -144.583 127.768 -8.5458 184.931C161.501 256.384 258.32 168.377 358.514 73.7789C458.708 -20.8189 615.009 56.4404 684.774 31.2424C776.026 -1.71648 803.641 -69.8195 826.964 -111.892" stroke="#EEEEEE" stroke-width="1.77359"/>
<path d="M-222.336 475.565C-188.9 435.512 -88.0176 369.695 48.0196 426.858C218.066 498.311 314.885 410.303 415.079 315.706C515.274 221.108 671.574 298.367 741.339 273.169C832.591 240.21 860.207 172.107 883.53 130.035" stroke="#EEEEEE" stroke-width="1.77359"/>
<path d="M-208.351 499.007C-174.915 458.953 -74.0322 393.136 62.005 450.299C232.051 521.752 328.87 433.745 429.065 339.147C529.259 244.549 685.56 321.809 755.325 296.611C846.577 263.652 874.192 195.549 897.515 153.476" stroke="#EEEEEE" stroke-width="1.77359"/>
<path d="M-203.218 528.549C-169.782 488.495 -68.8994 422.678 67.1378 479.841C237.184 551.294 334.003 463.287 434.197 368.689C534.392 274.091 690.692 351.351 760.457 326.153C851.709 293.194 879.325 225.091 902.648 183.018" stroke="#EEEEEE" stroke-width="1.77359"/>
<path d="M-186.888 556.739C-153.452 516.686 -52.5693 450.869 83.4679 508.032C253.514 579.485 350.333 491.477 450.528 396.88C550.722 302.282 707.022 379.541 776.787 354.343C868.04 321.384 895.655 253.281 918.978 211.209" stroke="#EEEEEE" stroke-width="1.77359"/>
<path d="M-167.996 583.444C-134.559 543.391 -33.6767 477.574 102.36 534.737C272.407 606.19 369.226 518.182 469.42 423.585C569.614 328.987 725.915 406.246 795.68 381.048C886.932 348.089 914.547 279.986 937.87 237.914" stroke="#EEEEEE" stroke-width="1.77359"/>
</g>
</g>
<defs>
<clipPath id="clip0_20329_72082">
<rect width="343" height="273.675" fill="white"/>
</clipPath>
</defs>
</svg>
