<svg width="25" height="24" viewBox="0 0 25 24" fill="none" xmlns="http://www.w3.org/2000/svg">
<path d="M12.3555 2.5C7.11747 2.5 2.85547 6.762 2.85547 12C2.85547 17.238 7.11747 21.5 12.3555 21.5C17.5935 21.5 21.8555 17.238 21.8555 12C21.8555 6.762 17.5935 2.5 12.3555 2.5ZM12.3555 19.6C8.16547 19.6 4.75547 16.19 4.75547 12C4.75547 7.81 8.16547 4.4 12.3555 4.4C16.5455 4.4 19.9555 7.81 19.9555 12C19.9555 16.19 16.5455 19.6 12.3555 19.6Z" fill="#5D5D5D"/>
<path d="M11.0185 14.1501V14.027C11.0216 13.4556 11.0753 13.0011 11.1795 12.6633C11.2868 12.3256 11.4383 12.0541 11.634 11.8489C11.8297 11.6406 12.068 11.4496 12.349 11.276C12.5415 11.1561 12.7135 11.0251 12.8651 10.883C13.0197 10.7378 13.1413 10.5768 13.2296 10.4001C13.318 10.2201 13.3622 10.0197 13.3622 9.79874C13.3622 9.54937 13.3038 9.33315 13.187 9.15006C13.0702 8.96698 12.9124 8.82494 12.7135 8.72393C12.5178 8.62292 12.2985 8.57241 12.0554 8.57241C11.8313 8.57241 11.6182 8.62134 11.4162 8.71919C11.2173 8.81389 11.0516 8.95909 10.919 9.1548C10.7896 9.34735 10.717 9.59198 10.7012 9.8887H9.01562C9.03141 9.28895 9.17661 8.78706 9.45123 8.38302C9.72901 7.97898 10.0952 7.67595 10.5497 7.47393C11.0074 7.27191 11.5125 7.1709 12.0649 7.1709C12.6678 7.1709 13.1981 7.27664 13.6558 7.48813C14.1166 7.69962 14.4749 8.00108 14.7306 8.39249C14.9894 8.78075 15.1188 9.24161 15.1188 9.77506C15.1188 10.1349 15.0604 10.4569 14.9437 10.741C14.83 11.0251 14.6675 11.2776 14.456 11.4985C14.2445 11.7195 13.9935 11.9168 13.7031 12.0904C13.4474 12.2482 13.2375 12.4124 13.0734 12.5828C12.9124 12.7533 12.7925 12.9537 12.7135 13.1842C12.6378 13.4114 12.5983 13.6924 12.5952 14.027V14.1501H11.0185ZM11.8423 17.1046C11.5582 17.1046 11.3136 17.0036 11.1084 16.8016C10.9033 16.5996 10.8007 16.3533 10.8007 16.0629C10.8007 15.7789 10.9033 15.5358 11.1084 15.3338C11.3136 15.1318 11.5582 15.0307 11.8423 15.0307C12.1233 15.0307 12.3663 15.1318 12.5715 15.3338C12.7798 15.5358 12.884 15.7789 12.884 16.0629C12.884 16.2555 12.8351 16.4307 12.7372 16.5885C12.6425 16.7463 12.5163 16.8726 12.3584 16.9673C12.2038 17.0588 12.0317 17.1046 11.8423 17.1046Z" fill="#81838C"/>
</svg>
