<svg width="25" height="24" viewBox="0 0 25 24" fill="none" xmlns="http://www.w3.org/2000/svg">
<path d="M12.3555 2.5C7.11747 2.5 2.85547 6.762 2.85547 12C2.85547 17.238 7.11747 21.5 12.3555 21.5C17.5935 21.5 21.8555 17.238 21.8555 12C21.8555 6.762 17.5935 2.5 12.3555 2.5ZM12.3555 19.6C8.16547 19.6 4.75547 16.19 4.75547 12C4.75547 7.81 8.16547 4.4 12.3555 4.4C16.5455 4.4 19.9555 7.81 19.9555 12C19.9555 16.19 16.5455 19.6 12.3555 19.6Z" fill="#5D5D5D"/>
<path d="M11.4062 11.05H13.3063V16.75H11.4062V11.05ZM11.4062 7.25H13.3063V9.15H11.4062V7.25Z" fill="#5D5D5D"/>
</svg>
