<svg width="353" height="216" viewBox="0 0 353 216" fill="none" xmlns="http://www.w3.org/2000/svg">
<path d="M340.708 167.627L347.771 170.418L347.605 170.843L340.395 167.987C340.501 167.869 340.607 167.745 340.714 167.621L340.708 167.627Z" fill="url(#paint0_linear_17491_23906)"/>
<path d="M348.032 175.003L338.215 170.128C338.392 169.975 338.569 169.816 338.741 169.65L348.493 174.495C348.34 174.667 348.192 174.838 348.032 175.003Z" fill="url(#paint1_linear_17491_23906)"/>
<path d="M335.359 172.312L340.856 175.046L340.655 175.452L334.91 172.596C335.058 172.501 335.212 172.407 335.359 172.312Z" fill="url(#paint2_linear_17491_23906)"/>
<path d="M328.574 175.547C328.876 175.453 329.171 175.358 329.467 175.252L340.395 180.681C340.147 180.805 339.899 180.929 339.645 181.041L328.58 175.547H328.574Z" fill="url(#paint3_linear_17491_23906)"/>
<path d="M337.758 143.38L328.98 133.56L329.241 133.33L330.706 134.51L337.19 141.763C337.427 142.336 337.61 142.878 337.758 143.386V143.38Z" fill="url(#paint4_linear_17491_23906)"/>
<path d="M335.067 146.832L330.303 141.503C330.303 141.267 330.291 141.037 330.285 140.801L335.404 146.531L335.061 146.832H335.067Z" fill="url(#paint5_linear_17491_23906)"/>
<path d="M336.403 155.903L329.074 147.7C329.163 147.464 329.252 147.234 329.334 146.998L336.693 155.23C336.598 155.455 336.51 155.679 336.403 155.897V155.903Z" fill="url(#paint6_linear_17491_23906)"/>
<path d="M330.786 156.493L326.844 152.079C326.932 151.943 327.009 151.808 327.092 151.672L331.129 156.186L330.786 156.487V156.493Z" fill="url(#paint7_linear_17491_23906)"/>
<path d="M193.569 52.8291C175.418 38.7426 151.935 31.4662 127.247 34.3225C77.3676 40.0999 41.4079 85.67 47.413 135.448C53.359 184.736 97.919 220.221 147.496 214.886C159.459 213.6 170.63 210.053 180.625 204.712C196.873 196.037 215.633 192.898 233.607 196.958C240.416 198.498 247.591 198.958 254.92 198.168C290.614 194.326 316.431 162.323 312.589 126.679C308.665 90.303 277.067 67.2933 244.636 68.8218C226.236 69.6893 208.115 64.1066 193.569 52.8232V52.8291Z" fill="#E9E9E9"/>
<path d="M201.448 78.8188C187.15 67.7243 168.65 61.9882 149.205 64.2425C109.917 68.7924 81.5883 104.69 86.3163 143.899C90.9983 182.724 126.1 210.679 165.151 206.477C174.573 205.462 183.373 202.67 191.246 198.463C204.049 191.629 218.825 189.156 232.981 192.355C238.341 193.565 243.998 193.931 249.772 193.311C277.889 190.283 298.227 165.073 295.195 137C292.104 108.349 267.214 90.226 241.669 91.424C227.176 92.109 212.897 87.712 201.442 78.8188H201.448Z" fill="#DFDFDF"/>
<path d="M58.4189 143.154C61.3151 167.19 73.3667 188.736 92.357 203.826L93.238 202.716C74.5429 187.862 62.6745 166.647 59.8197 142.983C56.9354 119.088 63.6261 95.447 78.6507 76.4213C93.669 57.4131 115.113 45.4156 139.033 42.6479C139.766 42.5594 140.493 42.4826 141.226 42.4177C164.123 40.3168 186.636 46.8791 204.841 61.007C219.393 72.2963 237.692 78.0324 256.375 77.1531C272.386 76.4036 288.079 81.573 300.562 91.712C313.583 102.287 321.763 117.442 323.589 134.378C327.39 169.574 301.803 201.294 266.553 205.088C259.454 205.867 252.362 205.448 245.47 203.89L245.157 205.265C252.202 206.853 259.454 207.254 266.7 206.487C302.725 202.61 328.879 170.194 324.996 134.225C323.122 116.916 314.765 101.431 301.449 90.614C288.694 80.251 272.658 74.9696 256.304 75.7426C237.963 76.6101 219.995 70.9803 205.71 59.8916C186.63 45.0851 162.894 38.4579 138.873 41.2434C114.575 44.0583 92.795 56.2387 77.5454 75.5479C62.2844 94.869 55.4932 118.882 58.4189 143.154Z" fill="#F5F5F5"/>
<path d="M271.962 113.075C274.743 101.115 267.287 89.1692 255.309 86.3932C243.331 83.6172 231.367 91.0612 228.586 103.02C225.805 114.98 233.261 126.926 245.239 129.702C257.217 132.478 269.181 125.034 271.962 113.075Z" fill="url(#paint8_linear_17491_23906)"/>
<path d="M267.938 133.311C267.938 135.435 266.212 137.158 264.084 137.158C261.956 137.158 260.23 135.435 260.23 133.311C260.23 131.186 261.956 129.463 264.084 129.463C266.212 129.463 267.938 131.186 267.938 133.311Z" fill="#D4D4D4"/>
<path d="M271.205 138.945C271.205 140.008 270.342 140.869 269.278 140.869C268.215 140.869 267.352 140.008 267.352 138.945C267.352 137.883 268.215 137.021 269.278 137.021C270.342 137.021 271.205 137.883 271.205 138.945Z" fill="#D4D4D4"/>
<mask id="mask0_17491_23906" style="mask-type:luminance" maskUnits="userSpaceOnUse" x="237" y="94" width="26" height="28">
<path d="M262.978 94.4844H237.562V121.04H262.978V94.4844Z" fill="white"/>
</mask>
<g mask="url(#mask0_17491_23906)">
<g opacity="0.57">
<path d="M237.563 108.598C237.567 106.23 237.907 104.318 238.468 102.439C238.58 102.065 238.871 101.841 239.234 101.839C239.624 101.836 239.9 102.052 240.028 102.482C240.36 103.6 241.025 104.481 241.985 105.152C242.284 105.36 242.606 105.528 242.952 105.65C243.243 105.753 243.374 105.676 243.415 105.375C243.699 103.311 244.329 101.363 245.414 99.5667C246.509 97.7527 247.946 96.2797 249.884 95.3247C250.831 94.8587 251.835 94.5827 252.888 94.4907C253.486 94.4377 253.818 94.7167 253.865 95.3077C254.004 97.0377 254.389 98.7047 255.123 100.289C255.556 101.224 256.097 102.094 256.766 102.884C256.937 103.086 257.106 103.081 257.265 102.868C257.691 102.296 258.024 101.673 258.274 101.01C258.4 100.675 258.607 100.446 258.976 100.408C259.335 100.371 259.581 100.55 259.779 100.838C260.847 102.39 261.731 104.031 262.313 105.822C262.853 107.488 263.108 109.189 262.913 110.934C262.6 113.733 261.333 116.05 259.166 117.881C257.253 119.498 255.017 120.438 252.539 120.841C249.556 121.327 246.7 120.933 244.002 119.576C241.28 118.206 239.444 116.058 238.411 113.241C237.832 111.664 237.558 109.977 237.563 108.598Z" fill="#ACACAC"/>
<path d="M256.08 112.718C256.08 113.237 256.077 113.754 256.081 114.273C256.084 114.603 255.968 114.869 255.664 115.029C255.353 115.193 255.051 115.159 254.782 114.938C254.693 114.866 254.627 114.908 254.552 114.937C253.498 115.343 252.347 115.021 251.676 114.131C251.025 113.266 251.048 112.08 251.733 111.222C252.388 110.402 253.529 110.095 254.521 110.479C254.644 110.527 254.728 110.531 254.841 110.447C255.085 110.265 255.359 110.246 255.635 110.381C255.917 110.519 256.072 110.751 256.077 111.059C256.086 111.612 256.08 112.165 256.08 112.718Z" fill="#F6F6F6"/>
<path d="M243.946 114.002C243.913 114.193 243.95 114.367 243.902 114.537C243.796 114.921 243.447 115.167 243.05 115.127C242.67 115.088 242.371 114.774 242.349 114.389C242.348 114.362 242.348 114.334 242.348 114.306C242.348 112.558 242.348 110.81 242.348 109.061C242.348 108.744 242.481 108.499 242.765 108.346C243.034 108.201 243.308 108.215 243.565 108.378C243.815 108.536 243.93 108.775 243.931 109.063C243.935 109.561 243.931 110.058 243.934 110.555C243.934 110.621 243.911 110.692 243.968 110.774C244.214 110.577 244.456 110.383 244.7 110.191C245.086 109.886 245.582 109.915 245.864 110.259C246.154 110.613 246.091 111.07 245.701 111.392C245.357 111.676 245.009 111.957 244.656 112.23C244.541 112.318 244.551 112.369 244.647 112.463C245.106 112.911 245.561 113.362 246.01 113.819C246.299 114.113 246.321 114.527 246.081 114.842C245.859 115.133 245.435 115.228 245.095 115.062C244.993 115.012 244.912 114.935 244.832 114.857C244.544 114.577 244.253 114.298 243.946 114.002Z" fill="#F6F6F6"/>
<path d="M249.119 115.122C247.65 115.113 246.549 114.129 246.391 112.782C246.243 111.514 247.14 110.29 248.439 110.005C249.126 109.855 249.78 109.963 250.384 110.324C250.815 110.579 250.952 111.036 250.722 111.423C250.495 111.806 250.023 111.907 249.583 111.665C248.875 111.275 248.087 111.636 247.966 112.407C247.865 113.049 248.498 113.666 249.149 113.558C249.321 113.53 249.459 113.443 249.583 113.321C249.918 112.988 250.394 112.969 250.713 113.268C251.039 113.573 251.042 114.053 250.717 114.4C250.257 114.892 249.678 115.112 249.119 115.122Z" fill="#F6F6F6"/>
<path d="M258.185 111.651C258.185 112.556 258.189 113.461 258.183 114.366C258.181 114.741 257.917 115.042 257.551 115.119C257.203 115.191 256.838 115.008 256.682 114.681C256.624 114.56 256.602 114.433 256.602 114.299C256.602 112.538 256.602 110.776 256.603 109.014C256.603 108.528 256.944 108.175 257.399 108.176C257.857 108.177 258.184 108.522 258.186 109.019C258.189 109.897 258.186 110.774 258.186 111.652L258.185 111.651Z" fill="#F6F6F6"/>
<path d="M254.497 112.715C254.497 113.18 254.112 113.562 253.644 113.562C253.172 113.562 252.792 113.183 252.793 112.714C252.793 112.245 253.172 111.869 253.646 111.869C254.12 111.869 254.497 112.245 254.497 112.715Z" fill="#010101"/>
</g>
</g>
<path d="M217.636 215.078C216.549 194.754 199.698 178.607 179.07 178.607C158.442 178.607 141.591 194.754 140.504 215.078H217.636Z" fill="#A9A9A9"/>
<path d="M81.8906 215.076H134.211C134.695 206.218 137.733 198.051 142.592 191.264L100.107 160.441C89.013 175.897 82.328 194.716 81.8906 215.076Z" fill="#DFDFDF"/>
<path d="M216.535 191.264C221.394 198.051 224.432 206.224 224.916 215.076H277.236C276.799 194.716 270.114 175.897 259.02 160.441L216.535 191.264Z" fill="#BCBCBC"/>
<path d="M167.162 173.968C171.105 172.853 175.26 172.245 179.563 172.245C183.866 172.245 188.021 172.853 191.963 173.968L208.247 123.937C199.174 121.157 189.546 119.664 179.569 119.664C169.592 119.664 159.957 121.163 150.891 123.937L167.174 173.968H167.162Z" fill="#CFCFCF"/>
<path d="M194.535 174.778C202.609 177.593 209.643 182.609 214.915 189.124L257.429 158.283C245.72 142.887 229.543 131.066 210.819 124.764L194.541 174.783L194.535 174.778Z" fill="#C8C8C8"/>
<path d="M144.216 189.124C149.482 182.615 156.515 177.593 164.595 174.778L148.318 124.758C129.593 131.066 113.416 142.881 101.707 158.277L144.222 189.118L144.216 189.124Z" fill="#D7D7D7"/>
<path d="M210.162 88.06C230.086 68.1669 230.086 35.9132 210.162 16.0197C190.237 -3.87377 157.934 -3.87377 138.009 16.0197C118.085 35.9132 118.085 68.1669 138.009 88.06C157.934 107.954 190.237 107.954 210.162 88.06Z" fill="url(#paint9_linear_17491_23906)"/>
<path d="M198.82 85.421H150.236C147.582 85.421 145.33 83.486 144.94 80.866L138.775 29.2819C138.29 26.048 140.796 23.1445 144.071 23.1445H204.985C208.259 23.1445 210.765 26.048 210.281 29.2819L204.116 80.866C203.726 83.486 201.468 85.421 198.82 85.421Z" fill="#ACACAC"/>
<path d="M150.236 82.802C148.907 82.802 147.754 81.823 147.541 80.512L141.371 28.8933C141.252 28.0967 141.477 27.3236 142.003 26.7098C142.529 26.102 143.262 25.7656 144.072 25.7656H204.986C205.79 25.7656 206.528 26.102 207.054 26.7098C207.581 27.3177 207.805 28.0967 207.687 28.8933L201.516 80.512C201.304 81.823 200.151 82.802 198.821 82.802H150.236Z" fill="#ACACAC"/>
<path d="M188.457 28.3907C188.569 28.5146 188.681 28.6444 188.782 28.7802C189.591 29.8601 189.84 31.1997 189.473 32.4449L187.688 38.4702C187.144 40.3055 185.466 41.5389 183.515 41.5389H167.078C165.128 41.5389 163.449 40.3055 162.905 38.4702L161.12 32.4449C160.707 31.0463 161.073 29.5355 162.131 28.3966C161.83 28.3966 154.388 28.4143 149.134 28.4202C146.397 28.4202 144.287 30.8102 144.606 33.5248C145.83 43.7991 148.566 66.8203 149.672 76.1149C149.943 78.4046 151.882 80.134 154.193 80.134C163.378 80.157 185.696 80.163 194.875 80.134C197.186 80.134 199.125 78.3987 199.397 76.109L204.486 33.5721C204.811 30.8692 202.707 28.4851 199.982 28.4674C195.094 28.432 188.468 28.3848 188.462 28.3848L188.457 28.3907Z" fill="#A9A9A9"/>
<path d="M175.295 30.1797H165.566C164.774 30.1797 164.077 30.8819 164.26 31.5134L166.045 37.5387C166.175 37.9754 166.577 38.2586 167.073 38.2586H183.511C184.007 38.2586 184.409 37.9754 184.539 37.5387L186.324 31.5134C186.513 30.8819 185.81 30.1797 185.018 30.1797H175.289H175.295Z" fill="white"/>
<path d="M188.067 66.3652H161.008C159.996 66.3652 159.176 67.1843 159.176 68.1947V73.4351C159.176 74.4454 159.996 75.2645 161.008 75.2645H188.067C189.078 75.2645 189.899 74.4454 189.899 73.4351V68.1947C189.899 67.1843 189.078 66.3652 188.067 66.3652Z" fill="#C3C3C3"/>
<path d="M175.299 38.2581H176.83L180.884 31.0762L174.637 38.2581H175.299Z" fill="#A9A9A9"/>
<path d="M188.069 71.972H161.004C159.993 71.972 159.172 71.1517 159.172 70.1426V73.4355C159.172 74.4447 159.993 75.2649 161.004 75.2649H188.069C189.079 75.2649 189.901 74.4447 189.901 73.4355V70.1426C189.901 71.1517 189.079 71.972 188.069 71.972Z" fill="#C0C0C0"/>
<path d="M209.106 110.089C212.357 110.089 214.993 107.458 214.993 104.212C214.993 100.966 212.357 98.334 209.106 98.334C205.854 98.334 203.219 100.966 203.219 104.212C203.219 107.458 205.854 110.089 209.106 110.089Z" fill="#D4D4D4"/>
<path d="M217.733 115.081C219.358 115.081 220.676 113.765 220.676 112.142C220.676 110.519 219.358 109.203 217.733 109.203C216.107 109.203 214.789 110.519 214.789 112.142C214.789 113.765 216.107 115.081 217.733 115.081Z" fill="#D4D4D4"/>
<path d="M66.3628 157.927C81.5255 142.788 81.5255 118.243 66.3628 103.104C51.2002 87.9653 26.6167 87.9653 11.4541 103.104C-3.70864 118.243 -3.70864 142.788 11.4541 157.927C26.6167 173.066 51.2002 173.066 66.3628 157.927Z" fill="url(#paint10_linear_17491_23906)"/>
<path d="M68.7263 173.382C70.4759 171.635 70.4759 168.803 68.7263 167.056C66.9767 165.309 64.14 165.309 62.3903 167.056C60.6407 168.803 60.6407 171.635 62.3903 173.382C64.14 175.129 66.9767 175.129 68.7263 173.382Z" fill="#D4D4D4"/>
<path d="M72.119 178.485C73.3543 178.485 74.3591 177.482 74.3591 176.248C74.3591 175.015 73.3543 174.012 72.119 174.012C70.8837 174.012 69.8789 175.015 69.8789 176.248C69.8789 177.482 70.8837 178.485 72.119 178.485Z" fill="#D4D4D4"/>
<path d="M58.798 103.746H19.9717C18.1665 103.746 16.7031 105.207 16.7031 107.01V154.456C16.7031 156.259 18.1665 157.72 19.9717 157.72H58.798C60.6032 157.72 62.0665 156.259 62.0665 154.456V107.01C62.0665 105.207 60.6032 103.746 58.798 103.746Z" fill="#ACACAC"/>
<path d="M54.0626 109.068H24.7108C24.2212 109.068 23.8242 109.465 23.8242 109.954V117.206C23.8242 117.695 24.2212 118.092 24.7108 118.092H54.0626C54.5522 118.092 54.9491 117.695 54.9491 117.206V109.954C54.9491 109.465 54.5522 109.068 54.0626 109.068Z" fill="#C2C2C2"/>
<path d="M28.8291 121.102H24.3312C23.76 121.102 23.2969 121.564 23.2969 122.134V126.625C23.2969 127.196 23.76 127.658 24.3312 127.658H28.8291C29.4004 127.658 29.8635 127.196 29.8635 126.625V122.134C29.8635 121.564 29.4004 121.102 28.8291 121.102Z" fill="#C2C2C2"/>
<path d="M37.3643 121.102H32.8664C32.2951 121.102 31.832 121.564 31.832 122.134V126.625C31.832 127.196 32.2951 127.658 32.8664 127.658H37.3643C37.9356 127.658 38.3986 127.196 38.3986 126.625V122.134C38.3986 121.564 37.9356 121.102 37.3643 121.102Z" fill="#C2C2C2"/>
<path d="M45.9034 121.102H41.4054C40.8342 121.102 40.3711 121.564 40.3711 122.134V126.625C40.3711 127.196 40.8342 127.658 41.4054 127.658H45.9034C46.4746 127.658 46.9377 127.196 46.9377 126.625V122.134C46.9377 121.564 46.4746 121.102 45.9034 121.102Z" fill="#C2C2C2"/>
<path d="M54.4386 121.102H49.9407C49.3694 121.102 48.9062 121.564 48.9062 122.134V126.625C48.9062 127.196 49.3694 127.658 49.9407 127.658H54.4386C55.0099 127.658 55.473 127.196 55.473 126.625V122.134C55.473 121.564 55.0099 121.102 54.4386 121.102Z" fill="#C2C2C2"/>
<path d="M28.8291 129.346H24.3312C23.76 129.346 23.2969 129.808 23.2969 130.378V134.869C23.2969 135.44 23.76 135.902 24.3312 135.902H28.8291C29.4004 135.902 29.8635 135.44 29.8635 134.869V130.378C29.8635 129.808 29.4004 129.346 28.8291 129.346Z" fill="#C2C2C2"/>
<path d="M37.3643 129.346H32.8664C32.2951 129.346 31.832 129.808 31.832 130.378V134.869C31.832 135.44 32.2951 135.902 32.8664 135.902H37.3643C37.9356 135.902 38.3986 135.44 38.3986 134.869V130.378C38.3986 129.808 37.9356 129.346 37.3643 129.346Z" fill="#C2C2C2"/>
<path d="M45.9034 129.346H41.4054C40.8342 129.346 40.3711 129.808 40.3711 130.378V134.869C40.3711 135.44 40.8342 135.902 41.4054 135.902H45.9034C46.4746 135.902 46.9377 135.44 46.9377 134.869V130.378C46.9377 129.808 46.4746 129.346 45.9034 129.346Z" fill="#C2C2C2"/>
<path d="M54.4386 129.346H49.9407C49.3694 129.346 48.9062 129.808 48.9062 130.378V134.869C48.9062 135.44 49.3694 135.902 49.9407 135.902H54.4386C55.0099 135.902 55.473 135.44 55.473 134.869V130.378C55.473 129.808 55.0099 129.346 54.4386 129.346Z" fill="#C2C2C2"/>
<path d="M28.8291 137.596H24.3312C23.76 137.596 23.2969 138.058 23.2969 138.628V143.119C23.2969 143.69 23.76 144.152 24.3312 144.152H28.8291C29.4004 144.152 29.8635 143.69 29.8635 143.119V138.628C29.8635 138.058 29.4004 137.596 28.8291 137.596Z" fill="#C2C2C2"/>
<path d="M37.3643 137.596H32.8664C32.2951 137.596 31.832 138.058 31.832 138.628V143.119C31.832 143.69 32.2951 144.152 32.8664 144.152H37.3643C37.9356 144.152 38.3986 143.69 38.3986 143.119V138.628C38.3986 138.058 37.9356 137.596 37.3643 137.596Z" fill="#C2C2C2"/>
<path d="M45.9073 137.596H41.4093C40.8381 137.596 40.375 138.058 40.375 138.628V143.119C40.375 143.69 40.8381 144.152 41.4093 144.152H45.9073C46.4785 144.152 46.9416 143.69 46.9416 143.119V138.628C46.9416 138.058 46.4785 137.596 45.9073 137.596Z" fill="#C2C2C2"/>
<path d="M28.8291 145.84H24.3312C23.76 145.84 23.2969 146.302 23.2969 146.873V151.364C23.2969 151.934 23.76 152.396 24.3312 152.396H28.8291C29.4004 152.396 29.8635 151.934 29.8635 151.364V146.873C29.8635 146.302 29.4004 145.84 28.8291 145.84Z" fill="#C2C2C2"/>
<path d="M37.3643 145.84H32.8664C32.2951 145.84 31.832 146.302 31.832 146.873V151.364C31.832 151.934 32.2951 152.396 32.8664 152.396H37.3643C37.9356 152.396 38.3986 151.934 38.3986 151.364V146.873C38.3986 146.302 37.9356 145.84 37.3643 145.84Z" fill="#C2C2C2"/>
<path d="M45.9073 145.84H41.4093C40.8381 145.84 40.375 146.302 40.375 146.873V151.364C40.375 151.934 40.8381 152.396 41.4093 152.396H45.9073C46.4785 152.396 46.9416 151.934 46.9416 151.364V146.873C46.9416 146.302 46.4785 145.84 45.9073 145.84Z" fill="#C2C2C2"/>
<path d="M54.4404 137.596H49.9484C49.3751 137.596 48.9141 138.056 48.9141 138.628V151.027C48.9141 151.783 49.5288 152.402 50.2912 152.402H54.1094C54.866 152.402 55.4866 151.788 55.4866 151.027V138.628C55.4866 138.056 55.0256 137.596 54.4522 137.596H54.4404Z" fill="#C2C2C2"/>
<path d="M48.011 116.084V115.777C48.011 115.565 48.0545 115.371 48.1417 115.195C48.2307 115.017 48.3595 114.875 48.528 114.769C48.6985 114.661 48.9049 114.607 49.1474 114.607C49.3936 114.607 49.6 114.661 49.7667 114.769C49.9333 114.875 50.0593 115.017 50.1445 115.195C50.2297 115.371 50.2724 115.565 50.2724 115.777V116.084C50.2724 116.296 50.2288 116.491 50.1417 116.669C50.0564 116.845 49.9295 116.987 49.761 117.095C49.5943 117.201 49.3898 117.254 49.1474 117.254C48.9011 117.254 48.6938 117.201 48.5252 117.095C48.3566 116.987 48.2288 116.845 48.1417 116.669C48.0545 116.491 48.011 116.296 48.011 116.084ZM48.5905 115.777V116.084C48.5905 116.26 48.6322 116.418 48.7155 116.558C48.7989 116.697 48.9428 116.766 49.1474 116.766C49.3462 116.766 49.4864 116.697 49.5678 116.558C49.6511 116.418 49.6928 116.26 49.6928 116.084V115.777C49.6928 115.601 49.653 115.444 49.5735 115.305C49.4939 115.165 49.3519 115.095 49.1474 115.095C48.9485 115.095 48.8055 115.165 48.7184 115.305C48.6331 115.444 48.5905 115.601 48.5905 115.777ZM45.1133 112.754V112.448C45.1133 112.235 45.1568 112.041 45.2439 111.865C45.333 111.687 45.4617 111.545 45.6303 111.439C45.8008 111.331 46.0072 111.277 46.2496 111.277C46.4958 111.277 46.7023 111.331 46.8689 111.439C47.0356 111.545 47.1616 111.687 47.2468 111.865C47.332 112.041 47.3746 112.235 47.3746 112.448V112.754C47.3746 112.966 47.3311 113.162 47.2439 113.34C47.1587 113.516 47.0318 113.658 46.8633 113.766C46.6966 113.872 46.492 113.925 46.2496 113.925C46.0034 113.925 45.796 113.872 45.6275 113.766C45.4589 113.658 45.3311 113.516 45.2439 113.34C45.1568 113.162 45.1133 112.966 45.1133 112.754ZM45.6928 112.448V112.754C45.6928 112.93 45.7345 113.089 45.8178 113.229C45.9011 113.367 46.0451 113.436 46.2496 113.436C46.4485 113.436 46.5886 113.367 46.6701 113.229C46.7534 113.089 46.7951 112.93 46.7951 112.754V112.448C46.7951 112.271 46.7553 112.114 46.6758 111.976C46.5962 111.836 46.4542 111.766 46.2496 111.766C46.0508 111.766 45.9078 111.836 45.8206 111.976C45.7354 112.114 45.6928 112.271 45.6928 112.448ZM45.3292 117.175L49.3292 111.357H49.9769L45.9769 117.175H45.3292Z" fill="#ACACAC"/>
<path d="M122.5 64.2125C122.5 66.4609 120.68 68.2785 118.428 68.2785C116.176 68.2785 114.355 66.4609 114.355 64.2125C114.355 61.9641 116.176 60.1465 118.428 60.1465C120.68 60.1465 122.5 61.9641 122.5 64.2125Z" fill="white"/>
<path d="M289.141 160.581C277.84 150.596 278.544 136.427 283.987 127.492L292.073 133.978C284.436 147.569 289.389 160.658 297.227 167.067L289.141 160.581Z" fill="url(#paint11_linear_17491_23906)"/>
<path d="M325.437 132.277C337.607 143.419 325.396 164.823 306.228 165.962C302.593 166.181 295.536 165.768 289.141 160.574L297.226 167.06C317.233 182.114 340.852 163.749 338.109 146.936C337.802 145.042 336.797 141.466 333.529 138.763L325.443 132.277" fill="url(#paint12_linear_17491_23906)"/>
<path d="M299.906 140.263C308.423 127.321 319.966 127.799 325.445 132.279L333.531 138.764C324.63 132.231 313.583 137.667 308.021 146.701C300.385 160.292 305.379 173.411 313.217 179.826L305.131 173.34C293.848 163.373 294.492 149.204 299.906 140.263Z" fill="url(#paint13_linear_17491_23906)"/>
<path d="M322.218 178.722C330.085 178.256 336.77 174.373 341.091 169.191C345.051 169.239 349.011 169.268 352.971 169.298C347.906 182.328 329.382 191.988 313.211 179.826L305.125 173.34C311.526 178.533 318.577 178.94 322.212 178.728L322.218 178.722Z" fill="url(#paint14_linear_17491_23906)"/>
<path d="M330.313 182.781L322.145 178.727C322.145 178.727 322.192 178.727 322.215 178.727C322.487 178.709 322.753 178.68 323.019 178.656L330.514 182.38L330.313 182.787V182.781Z" fill="url(#paint15_linear_17491_23906)"/>
<path d="M313.627 177.771C314.401 177.996 315.152 178.173 315.879 178.309L328.137 185.378C327.641 185.361 327.139 185.325 326.636 185.272L313.621 177.771H313.627Z" fill="url(#paint16_linear_17491_23906)"/>
<path d="M330.702 165.574L323.816 157.867C323.97 157.707 324.118 157.542 324.266 157.383L331.181 165.119C331.021 165.273 330.868 165.426 330.702 165.574Z" fill="url(#paint17_linear_17491_23906)"/>
<path d="M323.803 164.719L320.363 160.871C320.487 160.783 320.6 160.682 320.724 160.594L324.14 164.418L323.797 164.719H323.803Z" fill="url(#paint18_linear_17491_23906)"/>
<path d="M322.725 170.691L316.188 163.379C316.394 163.279 316.589 163.167 316.79 163.066L323.363 170.419C323.15 170.514 322.937 170.608 322.725 170.697V170.691Z" fill="url(#paint19_linear_17491_23906)"/>
<path d="M315.344 168.731L311.98 164.966C312.14 164.919 312.306 164.871 312.465 164.824L315.686 168.43L315.344 168.731Z" fill="url(#paint20_linear_17491_23906)"/>
<path d="M311.887 172.602L305.965 165.981C306.054 165.981 306.148 165.975 306.231 165.969C306.42 165.957 306.603 165.934 306.792 165.916L312.797 172.638C312.496 172.638 312.189 172.62 311.881 172.608L311.887 172.602Z" fill="url(#paint21_linear_17491_23906)"/>
<path d="M304.326 171.01L299.344 165.434C299.592 165.487 299.846 165.54 300.088 165.581L305.231 171.335C304.929 171.235 304.628 171.123 304.326 171.01Z" fill="url(#paint22_linear_17491_23906)"/>
<path d="M323.356 130.926L328.114 136.249C327.76 136.167 327.405 136.102 327.05 136.049L321.902 130.289C322.411 130.478 322.895 130.69 323.356 130.926Z" fill="url(#paint23_linear_17491_23906)"/>
<path d="M321.008 135.524L315.605 129.481C315.801 129.463 315.99 129.451 316.185 129.445L321.35 135.223L321.008 135.524Z" fill="url(#paint24_linear_17491_23906)"/>
<path d="M311.107 130.531L317.562 137.749C317.361 137.849 317.154 137.949 316.953 138.061L310.457 130.797C310.676 130.702 310.888 130.614 311.107 130.531Z" fill="url(#paint25_linear_17491_23906)"/>
<path d="M310.704 137.371L306.727 132.922C306.851 132.833 306.981 132.751 307.105 132.662L311.041 137.065L310.698 137.365L310.704 137.371Z" fill="url(#paint26_linear_17491_23906)"/>
<path d="M303.348 135.889L310.251 143.614C310.109 143.785 309.967 143.956 309.826 144.133L302.898 136.384C303.046 136.219 303.194 136.054 303.348 135.895V135.889Z" fill="url(#paint27_linear_17491_23906)"/>
<path d="M303.997 143.915L300.262 139.737C300.35 139.607 300.439 139.477 300.528 139.348L304.334 143.608L303.991 143.909L303.997 143.915Z" fill="url(#paint28_linear_17491_23906)"/>
<path d="M298.051 144.004L305.534 152.372C305.457 152.614 305.374 152.862 305.303 153.104L297.785 144.694C297.868 144.464 297.962 144.228 298.051 144.004Z" fill="url(#paint29_linear_17491_23906)"/>
<path d="M301.217 155.075L296.465 149.764C296.494 149.575 296.53 149.38 296.565 149.191L301.554 154.774L301.211 155.075H301.217Z" fill="url(#paint30_linear_17491_23906)"/>
<path d="M296.225 156.002L304.724 165.515C304.813 165.963 304.913 166.406 305.025 166.843L296.337 157.123C296.29 156.751 296.254 156.38 296.219 156.002H296.225Z" fill="url(#paint31_linear_17491_23906)"/>
<path d="M282.391 130.579C282.438 130.466 282.485 130.348 282.538 130.242L288.555 132.709L288.413 133.051L282.391 130.579Z" fill="url(#paint32_linear_17491_23906)"/>
<path d="M281.168 134.013C281.215 133.842 281.268 133.671 281.322 133.5L290.956 136.15C290.879 136.315 290.802 136.48 290.725 136.645L281.168 134.013Z" fill="url(#paint33_linear_17491_23906)"/>
<path d="M280.451 137.442C280.469 137.318 280.487 137.194 280.504 137.07L285.505 138.445L285.404 138.805L280.445 137.442H280.451Z" fill="url(#paint34_linear_17491_23906)"/>
<path d="M280.176 141.625C280.176 141.436 280.176 141.253 280.176 141.07L288.651 143.401C288.622 143.578 288.586 143.755 288.557 143.932L280.176 141.625Z" fill="url(#paint35_linear_17491_23906)"/>
<path d="M283.617 146.229L283.516 146.589L280.573 145.78C280.549 145.644 280.531 145.515 280.508 145.379L283.611 146.235L283.617 146.229Z" fill="url(#paint36_linear_17491_23906)"/>
<path d="M281.709 149.928C281.632 149.722 281.555 149.515 281.484 149.309L288.488 151.238C288.512 151.433 288.547 151.628 288.577 151.817L281.709 149.928Z" fill="url(#paint37_linear_17491_23906)"/>
<path d="M286.913 155.247L283.957 154.521C283.863 154.373 283.78 154.226 283.691 154.072L287.001 154.887L286.913 155.247Z" fill="url(#paint38_linear_17491_23906)"/>
<path d="M287.98 159.495C287.75 159.265 287.525 159.041 287.301 158.805L291.19 159.613C291.296 159.82 291.409 160.026 291.521 160.227L287.98 159.489V159.495Z" fill="url(#paint39_linear_17491_23906)"/>
<path d="M140.446 116.511C150.05 106.921 150.05 91.3738 140.446 81.7838C130.841 72.1944 115.269 72.1944 105.665 81.7838C96.0597 91.3738 96.0597 106.921 105.665 116.511C115.269 126.1 130.841 126.1 140.446 116.511Z" fill="url(#paint40_linear_17491_23906)"/>
<path d="M134.349 89.5111C128.155 87.3281 123.048 93.1521 123.048 93.1521C123.048 93.1521 117.947 87.3281 111.747 89.5111C103.319 92.4801 104.82 104.43 123.048 113.624C141.27 104.43 142.771 92.4801 134.349 89.5111Z" fill="#ACACAC"/>
<path d="M138.52 99.6685H128.235L127.851 103.828L125.605 97.6035L123.282 100.5L121.763 93.8965L118.595 104.967L117.555 99.6745H107.578C107.696 99.9755 107.832 100.282 107.986 100.589H116.804L118.436 108.88L121.675 97.5675L122.821 102.554L125.304 99.4565L128.395 108.018L129.081 100.589H138.124C138.272 100.282 138.408 99.9755 138.532 99.6745L138.52 99.6685Z" fill="white"/>
<path d="M108.547 133.205C106.035 133.205 103.996 131.169 103.996 128.661C103.996 126.153 106.035 124.117 108.547 124.117C111.059 124.117 113.098 126.153 113.098 128.661C113.098 131.169 111.059 133.205 108.547 133.205Z" fill="#D4D4D4"/>
<path d="M101.877 137.064C100.618 137.064 99.6016 136.049 99.6016 134.792C99.6016 133.535 100.618 132.52 101.877 132.52C103.136 132.52 104.153 133.535 104.153 134.792C104.153 136.049 103.136 137.064 101.877 137.064Z" fill="#D4D4D4"/>
<defs>
<linearGradient id="paint0_linear_17491_23906" x1="347.77" y1="169.232" x2="340.394" y2="169.232" gradientUnits="userSpaceOnUse">
<stop stop-color="#CCCCCC"/>
<stop offset="1" stop-color="#B9B9B9"/>
</linearGradient>
<linearGradient id="paint1_linear_17491_23906" x1="348.492" y1="172.327" x2="338.214" y2="172.327" gradientUnits="userSpaceOnUse">
<stop stop-color="#CCCCCC"/>
<stop offset="1" stop-color="#B9B9B9"/>
</linearGradient>
<linearGradient id="paint2_linear_17491_23906" x1="340.855" y1="173.882" x2="334.91" y2="173.882" gradientUnits="userSpaceOnUse">
<stop stop-color="#CCCCCC"/>
<stop offset="1" stop-color="#B9B9B9"/>
</linearGradient>
<linearGradient id="paint3_linear_17491_23906" x1="340.393" y1="178.147" x2="328.574" y2="178.147" gradientUnits="userSpaceOnUse">
<stop stop-color="#CCCCCC"/>
<stop offset="1" stop-color="#B9B9B9"/>
</linearGradient>
<linearGradient id="paint4_linear_17491_23906" x1="337.756" y1="138.359" x2="328.98" y2="138.359" gradientUnits="userSpaceOnUse">
<stop stop-color="#CCCCCC"/>
<stop offset="1" stop-color="#B9B9B9"/>
</linearGradient>
<linearGradient id="paint5_linear_17491_23906" x1="335.403" y1="143.817" x2="330.285" y2="143.817" gradientUnits="userSpaceOnUse">
<stop stop-color="#CCCCCC"/>
<stop offset="1" stop-color="#B9B9B9"/>
</linearGradient>
<linearGradient id="paint6_linear_17491_23906" x1="336.692" y1="151.451" x2="329.074" y2="151.451" gradientUnits="userSpaceOnUse">
<stop stop-color="#CCCCCC"/>
<stop offset="1" stop-color="#B9B9B9"/>
</linearGradient>
<linearGradient id="paint7_linear_17491_23906" x1="331.128" y1="154.083" x2="326.844" y2="154.083" gradientUnits="userSpaceOnUse">
<stop stop-color="#CCCCCC"/>
<stop offset="1" stop-color="#B9B9B9"/>
</linearGradient>
<linearGradient id="paint8_linear_17491_23906" x1="240.161" y1="105.704" x2="290.963" y2="117.516" gradientUnits="userSpaceOnUse">
<stop stop-color="#E8E8E8"/>
<stop offset="1" stop-color="#D9D9D9"/>
</linearGradient>
<linearGradient id="paint9_linear_17491_23906" x1="173.999" y1="-4.00097" x2="173.822" y2="109.999" gradientUnits="userSpaceOnUse">
<stop stop-color="#D9D9D9"/>
<stop offset="1" stop-color="#B7B7B7"/>
</linearGradient>
<linearGradient id="paint10_linear_17491_23906" x1="26.1061" y1="117.735" x2="90.3247" y2="182.053" gradientUnits="userSpaceOnUse">
<stop stop-color="#E8E8E8"/>
<stop offset="1" stop-color="#D9D9D9"/>
</linearGradient>
<linearGradient id="paint11_linear_17491_23906" x1="297.224" y1="147.282" x2="280.171" y2="147.282" gradientUnits="userSpaceOnUse">
<stop stop-color="#CCCCCC"/>
<stop offset="1" stop-color="#B9B9B9"/>
</linearGradient>
<linearGradient id="paint12_linear_17491_23906" x1="338.32" y1="152.461" x2="289.138" y2="152.461" gradientUnits="userSpaceOnUse">
<stop stop-color="#CCCCCC"/>
<stop offset="1" stop-color="#B9B9B9"/>
</linearGradient>
<linearGradient id="paint13_linear_17491_23906" x1="333.525" y1="154.627" x2="296.135" y2="154.627" gradientUnits="userSpaceOnUse">
<stop stop-color="#CCCCCC"/>
<stop offset="1" stop-color="#B9B9B9"/>
</linearGradient>
<linearGradient id="paint14_linear_17491_23906" x1="352.963" y1="177.298" x2="305.123" y2="177.298" gradientUnits="userSpaceOnUse">
<stop stop-color="#CCCCCC"/>
<stop offset="1" stop-color="#B9B9B9"/>
</linearGradient>
<linearGradient id="paint15_linear_17491_23906" x1="330.513" y1="180.722" x2="322.144" y2="180.722" gradientUnits="userSpaceOnUse">
<stop stop-color="#CCCCCC"/>
<stop offset="1" stop-color="#B9B9B9"/>
</linearGradient>
<linearGradient id="paint16_linear_17491_23906" x1="328.135" y1="181.575" x2="313.62" y2="181.575" gradientUnits="userSpaceOnUse">
<stop stop-color="#CCCCCC"/>
<stop offset="1" stop-color="#B9B9B9"/>
</linearGradient>
<linearGradient id="paint17_linear_17491_23906" x1="331.18" y1="161.479" x2="323.816" y2="161.479" gradientUnits="userSpaceOnUse">
<stop stop-color="#CCCCCC"/>
<stop offset="1" stop-color="#B9B9B9"/>
</linearGradient>
<linearGradient id="paint18_linear_17491_23906" x1="324.14" y1="162.657" x2="320.363" y2="162.657" gradientUnits="userSpaceOnUse">
<stop stop-color="#CCCCCC"/>
<stop offset="1" stop-color="#B9B9B9"/>
</linearGradient>
<linearGradient id="paint19_linear_17491_23906" x1="323.362" y1="166.882" x2="316.187" y2="166.882" gradientUnits="userSpaceOnUse">
<stop stop-color="#CCCCCC"/>
<stop offset="1" stop-color="#B9B9B9"/>
</linearGradient>
<linearGradient id="paint20_linear_17491_23906" x1="315.686" y1="166.778" x2="311.98" y2="166.778" gradientUnits="userSpaceOnUse">
<stop stop-color="#CCCCCC"/>
<stop offset="1" stop-color="#B9B9B9"/>
</linearGradient>
<linearGradient id="paint21_linear_17491_23906" x1="312.796" y1="169.277" x2="305.965" y2="169.277" gradientUnits="userSpaceOnUse">
<stop stop-color="#CCCCCC"/>
<stop offset="1" stop-color="#B9B9B9"/>
</linearGradient>
<linearGradient id="paint22_linear_17491_23906" x1="305.23" y1="168.385" x2="299.343" y2="168.385" gradientUnits="userSpaceOnUse">
<stop stop-color="#CCCCCC"/>
<stop offset="1" stop-color="#B9B9B9"/>
</linearGradient>
<linearGradient id="paint23_linear_17491_23906" x1="328.113" y1="133.27" x2="321.902" y2="133.27" gradientUnits="userSpaceOnUse">
<stop stop-color="#CCCCCC"/>
<stop offset="1" stop-color="#B9B9B9"/>
</linearGradient>
<linearGradient id="paint24_linear_17491_23906" x1="321.35" y1="132.485" x2="315.605" y2="132.485" gradientUnits="userSpaceOnUse">
<stop stop-color="#CCCCCC"/>
<stop offset="1" stop-color="#B9B9B9"/>
</linearGradient>
<linearGradient id="paint25_linear_17491_23906" x1="317.56" y1="134.297" x2="310.457" y2="134.297" gradientUnits="userSpaceOnUse">
<stop stop-color="#CCCCCC"/>
<stop offset="1" stop-color="#B9B9B9"/>
</linearGradient>
<linearGradient id="paint26_linear_17491_23906" x1="311.041" y1="135.017" x2="306.726" y2="135.017" gradientUnits="userSpaceOnUse">
<stop stop-color="#CCCCCC"/>
<stop offset="1" stop-color="#B9B9B9"/>
</linearGradient>
<linearGradient id="paint27_linear_17491_23906" x1="310.25" y1="140.011" x2="302.898" y2="140.011" gradientUnits="userSpaceOnUse">
<stop stop-color="#CCCCCC"/>
<stop offset="1" stop-color="#B9B9B9"/>
</linearGradient>
<linearGradient id="paint28_linear_17491_23906" x1="304.333" y1="141.632" x2="300.262" y2="141.632" gradientUnits="userSpaceOnUse">
<stop stop-color="#CCCCCC"/>
<stop offset="1" stop-color="#B9B9B9"/>
</linearGradient>
<linearGradient id="paint29_linear_17491_23906" x1="305.533" y1="148.554" x2="297.785" y2="148.554" gradientUnits="userSpaceOnUse">
<stop stop-color="#CCCCCC"/>
<stop offset="1" stop-color="#B9B9B9"/>
</linearGradient>
<linearGradient id="paint30_linear_17491_23906" x1="301.553" y1="152.134" x2="296.465" y2="152.134" gradientUnits="userSpaceOnUse">
<stop stop-color="#CCCCCC"/>
<stop offset="1" stop-color="#B9B9B9"/>
</linearGradient>
<linearGradient id="paint31_linear_17491_23906" x1="305.024" y1="161.423" x2="296.218" y2="161.423" gradientUnits="userSpaceOnUse">
<stop stop-color="#CCCCCC"/>
<stop offset="1" stop-color="#B9B9B9"/>
</linearGradient>
<linearGradient id="paint32_linear_17491_23906" x1="288.554" y1="131.647" x2="282.39" y2="131.647" gradientUnits="userSpaceOnUse">
<stop stop-color="#CCCCCC"/>
<stop offset="1" stop-color="#B9B9B9"/>
</linearGradient>
<linearGradient id="paint33_linear_17491_23906" x1="290.954" y1="135.073" x2="281.168" y2="135.073" gradientUnits="userSpaceOnUse">
<stop stop-color="#CCCCCC"/>
<stop offset="1" stop-color="#B9B9B9"/>
</linearGradient>
<linearGradient id="paint34_linear_17491_23906" x1="285.504" y1="137.938" x2="280.445" y2="137.938" gradientUnits="userSpaceOnUse">
<stop stop-color="#CCCCCC"/>
<stop offset="1" stop-color="#B9B9B9"/>
</linearGradient>
<linearGradient id="paint35_linear_17491_23906" x1="288.65" y1="142.502" x2="280.175" y2="142.502" gradientUnits="userSpaceOnUse">
<stop stop-color="#CCCCCC"/>
<stop offset="1" stop-color="#B9B9B9"/>
</linearGradient>
<linearGradient id="paint36_linear_17491_23906" x1="283.616" y1="145.984" x2="280.508" y2="145.984" gradientUnits="userSpaceOnUse">
<stop stop-color="#CCCCCC"/>
<stop offset="1" stop-color="#B9B9B9"/>
</linearGradient>
<linearGradient id="paint37_linear_17491_23906" x1="288.576" y1="150.563" x2="281.484" y2="150.563" gradientUnits="userSpaceOnUse">
<stop stop-color="#CCCCCC"/>
<stop offset="1" stop-color="#B9B9B9"/>
</linearGradient>
<linearGradient id="paint38_linear_17491_23906" x1="287.001" y1="154.66" x2="283.691" y2="154.66" gradientUnits="userSpaceOnUse">
<stop stop-color="#CCCCCC"/>
<stop offset="1" stop-color="#B9B9B9"/>
</linearGradient>
<linearGradient id="paint39_linear_17491_23906" x1="291.52" y1="159.516" x2="287.301" y2="159.516" gradientUnits="userSpaceOnUse">
<stop stop-color="#CCCCCC"/>
<stop offset="1" stop-color="#B9B9B9"/>
</linearGradient>
<linearGradient id="paint40_linear_17491_23906" x1="114.946" y1="91.0518" x2="155.624" y2="131.793" gradientUnits="userSpaceOnUse">
<stop stop-color="#E8E8E8"/>
<stop offset="1" stop-color="#D9D9D9"/>
</linearGradient>
</defs>
</svg>
