<svg width="572" height="463" viewBox="0 0 572 463" fill="none" xmlns="http://www.w3.org/2000/svg">
<g clip-path="url(#clip0_10440_18052)">
<path opacity="0.4" d="M487.082 123.623C474.443 115.885 463.778 105.318 455.93 92.7547C421.443 37.3452 359.952 0.456055 289.829 0.456055C223.721 0.456055 165.282 33.2432 129.913 83.4274C121.806 94.8832 111.536 104.645 99.6796 112.165C45.8969 146.429 10.5243 206.986 11.7208 275.711C13.5284 379.692 99.4237 463.122 203.524 462.152C222.129 461.998 240.61 459.112 258.374 453.586C291.624 443.223 326.884 441.465 361.096 447.993C372.121 450.095 383.321 451.149 394.546 451.142C492.472 451.131 572.069 371.123 571.504 273.3C571.138 209.985 537.463 154.558 487.082 123.623Z" fill="url(#paint0_linear_10440_18052)"/>
<path d="M1.60041 225.673C-13.0794 292.28 123.451 324.95 123.23 337.99C123.009 351.029 53.0621 341.967 67.0124 377.362C79.9358 410.157 189.01 423.543 268.935 386.646C271.248 385.579 328.264 287.598 287.067 229.886C245.87 172.173 232.991 271.041 213.756 268.397C194.52 265.752 237.222 144.479 198.08 118.317C157.513 91.2106 144.537 178.313 125.53 164.85C107.525 152.098 98.6275 28.2363 48.7479 44.0434C46.8299 44.6586 44.9623 45.4209 43.162 46.3237L43.1396 46.3317C42.1243 46.8356 41.0926 47.3949 40.0443 48.0095C-17.6079 81.8977 91.37 212.835 66.3886 217.725C41.4072 222.615 9.04028 191.919 1.60041 225.673Z" fill="url(#paint1_linear_10440_18052)"/>
<path d="M359.833 390.851C375.73 386.924 403.832 375.292 412.521 358.68C420.543 343.339 405.364 326.338 410.793 311.656C416.223 296.974 456.863 283.027 466.301 265.684C477.498 245.118 444.613 232.002 457.416 217.282C470.22 202.561 517.142 182.925 519.49 166.361C521.838 149.796 502.414 151.934 516.191 120.386C527.857 93.6724 543.569 58.5858 524.463 46.0801C504.101 32.7578 483.738 61.0195 473.742 82.6208C460.867 110.448 442.537 83.7634 426.176 97.6066C411.382 110.122 418.836 171.113 407.93 184.279C397.024 197.444 372.943 190.292 358.257 212.772C343.571 235.252 370.564 265.985 363.436 282.525C356.309 299.066 331.234 295.088 321.005 318.58C310.775 342.072 359.833 390.851 359.833 390.851Z" fill="url(#paint2_linear_10440_18052)"/>
<path d="M356.881 388.724C366.158 392.503 384.257 396.862 394.547 391.771C404.046 387.072 402.67 373.198 410.651 367.888C418.631 362.578 443.763 370.307 454.691 365.125C467.648 358.981 456.11 340.659 467.752 337.985C479.395 335.312 509.69 342.482 516.823 335.136C523.955 327.79 513.579 321.852 531.771 311.205C547.176 302.189 567.603 290.487 562.658 277.427C557.391 263.51 537.125 270.161 524.391 277.25C507.985 286.382 508.541 266.585 495.455 267.544C483.618 268.411 465.313 301.261 455.173 303.853C445.033 306.445 435.694 294.23 420.323 300.062C404.953 305.895 407.223 330.815 397.732 336.432C388.241 342.049 377.271 331.058 363.738 338.989C350.205 346.92 356.881 388.724 356.881 388.724Z" fill="url(#paint3_linear_10440_18052)"/>
<path d="M266.87 387.857C266.87 387.857 219.581 274.216 173.594 211.634C127.608 149.053 87.4336 132.784 87.4336 132.784C87.4336 132.784 109.934 160.503 127.92 199.26C145.906 238.017 156.198 280.344 180.148 317.174C216.38 372.889 266.87 387.857 266.87 387.857Z" fill="url(#paint4_linear_10440_18052)"/>
<path d="M259.751 387.418C259.751 387.418 212.062 315.746 172.112 278.945C132.161 242.144 102.406 236.35 102.406 236.35C102.406 236.35 121.565 252.366 139.105 276.559C156.645 300.753 169.381 328.429 190.755 350.504C223.09 383.898 259.751 387.418 259.751 387.418Z" fill="url(#paint5_linear_10440_18052)"/>
<path d="M427.642 167.676C427.642 95.2556 368.662 36.3369 296.166 36.3369C223.671 36.3369 164.691 95.2556 164.691 167.676C164.691 233.352 213.191 287.913 276.288 297.514V352.185H232.257C227.028 352.185 222.013 354.26 218.316 357.954C214.618 361.647 212.541 366.657 212.541 371.88C212.541 377.103 214.618 382.113 218.316 385.806C222.013 389.5 227.028 391.575 232.257 391.575H276.288V435.562C276.264 438.164 276.757 440.744 277.737 443.154C278.718 445.563 280.166 447.756 281.999 449.603C283.832 451.451 286.013 452.918 288.417 453.918C290.82 454.919 293.398 455.435 296.003 455.435C298.607 455.435 301.185 454.919 303.588 453.918C305.992 452.918 308.173 451.451 310.006 449.603C311.839 447.756 313.288 445.563 314.268 443.154C315.248 440.744 315.741 438.164 315.717 435.562V391.575H359.747C364.976 391.575 369.99 389.5 373.688 385.806C377.385 382.113 379.462 377.103 379.462 371.88C379.462 366.657 377.385 361.647 373.688 357.954C369.99 354.26 364.976 352.185 359.747 352.185H315.717V297.56C378.973 288.099 427.642 233.459 427.642 167.676ZM207.408 167.676C207.408 118.778 247.224 79.0075 296.166 79.0075C345.109 79.0075 384.925 118.784 384.925 167.676C384.925 216.567 345.109 256.342 296.166 256.342C247.224 256.342 207.408 216.567 207.408 167.676Z" fill="url(#paint6_linear_10440_18052)"/>
<path d="M160.292 281.553C161.239 281.129 161.593 279.866 161.084 278.731C160.574 277.597 159.394 277.02 158.448 277.444C157.502 277.868 157.147 279.132 157.656 280.266C158.166 281.401 159.346 281.977 160.292 281.553Z" fill="#F4CAAB"/>
<path d="M321.852 210.107C325.326 215.352 331.01 230.002 323.499 235.78C315.989 241.557 311.619 236.964 308.773 229.64L314.848 210.404L321.852 210.107Z" fill="url(#paint7_linear_10440_18052)"/>
<path d="M284.307 200.011C278.487 202.759 265.671 212.436 268.958 221.12C272.246 229.803 278.46 228.054 284.868 223.215L290.128 203.758L284.307 200.011Z" fill="url(#paint8_linear_10440_18052)"/>
<path d="M318.18 209.298C321.683 217.49 318.168 248.051 313.523 255.734C308.878 263.416 294.537 268.011 284.931 264.86C275.325 261.71 264.368 254.386 264.711 245.014C265.053 235.642 276.35 203.683 286.52 201.37C292.28 200.017 318.18 209.298 318.18 209.298Z" fill="url(#paint9_linear_10440_18052)"/>
<path d="M314.377 243.814C323.909 251.878 316.107 261.629 300.146 270.911C300.132 271.943 299.737 272.934 299.038 273.694C298.339 274.455 297.385 274.931 296.357 275.033C292.455 275.743 284.178 268.946 284.928 264.86C285.679 260.775 291.674 263.143 291.674 263.143C291.674 263.143 303.025 234.219 314.377 243.814Z" fill="url(#paint10_linear_10440_18052)"/>
<path d="M268.103 231.378C255.574 233.511 256.94 245.727 265.534 261.61C264.984 262.468 264.78 263.502 264.963 264.505C265.145 265.507 265.701 266.403 266.517 267.013C269.464 269.567 280.256 267.879 281.806 264.027C283.356 260.174 276.977 259.194 276.977 259.194C276.977 259.194 283.01 228.83 268.103 231.378Z" fill="url(#paint11_linear_10440_18052)"/>
<path d="M316.897 211.497C319.573 218.391 316.199 241.517 295.081 237.519C273.963 233.521 278.997 209.078 287.228 202.191L316.897 211.497Z" fill="white"/>
<path d="M303.314 238.577C300.529 239.04 297.682 238.986 294.917 238.417C284.815 236.501 281.173 230.281 279.907 225.4C277.564 216.434 281.507 205.807 286.627 201.498C286.749 201.395 286.895 201.326 287.052 201.297C287.209 201.269 287.37 201.282 287.52 201.336L317.187 210.633C317.318 210.673 317.438 210.743 317.538 210.836C317.638 210.93 317.716 211.045 317.765 211.173C319.528 215.788 318.715 226.224 313.275 232.778C310.754 235.839 307.221 237.896 303.314 238.577ZM287.482 203.253C283.038 207.328 279.617 217.02 281.694 224.983C282.838 229.388 286.117 234.935 295.29 236.67C302.41 238.022 307.998 236.331 311.906 231.643C316.697 225.881 317.64 216.566 316.247 212.261L287.482 203.253Z" fill="url(#paint12_linear_10440_18052)"/>
<path d="M320.886 141.609C338.432 146.304 347.648 156.842 349.001 171.063C350.437 186.099 341.747 195.126 341.747 195.126C341.747 195.126 341.8 221.569 302.877 211.198C263.007 200.594 277.775 180.855 277.775 180.855C277.775 180.855 273.226 166.515 282.515 154.592C293.87 140.032 307.543 138.051 320.886 141.609Z" fill="#FED2B2"/>
<path d="M346.303 185.309C352.727 185.727 355.862 191.393 352.205 197.456C349.231 202.408 338.847 202.536 338.847 202.536L338.891 194.058L346.303 185.309Z" fill="#FED2B2"/>
<path d="M278.665 169.576C272.962 166.582 267.337 169.793 267.288 176.87C267.259 182.641 276.065 188.189 276.065 188.189L280.437 180.934L278.665 169.576Z" fill="#FED2B2"/>
<path d="M313.076 187.816L313.013 187.827C312.833 187.842 312.654 187.784 312.516 187.668C312.377 187.552 312.29 187.386 312.273 187.206C312.215 186.432 311.728 184.214 310.555 184.003C309.382 183.792 307.813 185.259 307.366 185.848C307.318 185.932 307.252 186.005 307.174 186.062C307.095 186.119 307.005 186.158 306.91 186.177C306.815 186.196 306.717 186.195 306.622 186.173C306.527 186.151 306.439 186.11 306.361 186.051C306.284 185.992 306.221 185.917 306.175 185.831C306.129 185.746 306.102 185.651 306.096 185.554C306.089 185.458 306.104 185.361 306.138 185.27C306.172 185.179 306.226 185.096 306.294 185.028C306.384 184.91 308.418 182.252 310.808 182.656C313.197 183.061 313.633 186.921 313.653 187.084C313.666 187.256 313.614 187.426 313.507 187.562C313.4 187.698 313.246 187.788 313.076 187.816Z" fill="#5D5D5D"/>
<path d="M324.292 190.378C323.493 190.52 322.672 190.464 321.9 190.214C321.304 190.049 320.748 189.763 320.266 189.374C319.785 188.986 319.387 188.503 319.099 187.956C317.808 185.423 318.952 182.078 318.927 181.944C318.966 181.831 319.026 181.727 319.104 181.637C319.183 181.547 319.278 181.474 319.385 181.421C319.492 181.368 319.608 181.337 319.727 181.329C319.846 181.321 319.966 181.336 320.079 181.375C320.306 181.45 320.494 181.613 320.602 181.826C320.71 182.04 320.729 182.287 320.655 182.515C320.655 182.515 319.752 185.309 320.691 187.122C320.866 187.462 321.11 187.762 321.408 188.002C321.706 188.242 322.051 188.416 322.421 188.514C325.863 189.585 327.836 184.862 327.92 184.662C328.01 184.439 328.185 184.26 328.407 184.166C328.629 184.072 328.879 184.07 329.102 184.161C329.325 184.251 329.503 184.426 329.597 184.648C329.691 184.87 329.693 185.119 329.603 185.343C328.912 187.074 327.033 189.879 324.292 190.378Z" fill="#5D5D5D"/>
<path d="M297.5 183.622C296.701 183.761 295.88 183.705 295.108 183.457C294.512 183.292 293.956 183.006 293.474 182.618C292.993 182.229 292.596 181.747 292.307 181.199C291.016 178.666 292.115 175.329 292.137 175.196C292.177 175.083 292.239 174.979 292.319 174.889C292.4 174.8 292.497 174.727 292.605 174.675C292.713 174.623 292.831 174.593 292.951 174.587C293.071 174.58 293.191 174.598 293.304 174.638C293.417 174.678 293.522 174.74 293.611 174.82C293.7 174.9 293.773 174.997 293.825 175.106C293.877 175.214 293.907 175.331 293.913 175.451C293.92 175.571 293.903 175.691 293.863 175.805C293.863 175.805 292.96 178.599 293.899 180.411C294.074 180.75 294.318 181.048 294.616 181.286C294.913 181.525 295.258 181.698 295.627 181.794C299.089 182.871 301.113 178.028 301.134 177.941C301.171 177.82 301.233 177.709 301.315 177.613C301.398 177.518 301.499 177.44 301.613 177.386C301.727 177.332 301.851 177.302 301.977 177.299C302.103 177.295 302.228 177.318 302.345 177.365C302.462 177.413 302.567 177.484 302.655 177.575C302.743 177.666 302.811 177.774 302.854 177.892C302.898 178.01 302.916 178.137 302.908 178.262C302.901 178.388 302.867 178.511 302.809 178.623C302.107 180.292 300.233 183.124 297.5 183.622Z" fill="#5D5D5D"/>
<path d="M281.902 264.471L281.768 264.495C281.708 264.488 281.651 264.469 281.598 264.44C281.546 264.41 281.5 264.371 281.463 264.323C281.426 264.276 281.399 264.222 281.383 264.164C281.367 264.106 281.363 264.046 281.371 263.986C281.451 263.522 281.431 263.046 281.313 262.591C281.195 262.135 280.981 261.71 280.687 261.343C279.682 260.35 278.36 259.745 276.952 259.633C276.888 259.628 276.825 259.61 276.768 259.579C276.712 259.548 276.663 259.505 276.624 259.453C276.589 259.399 276.566 259.339 276.554 259.276C276.543 259.213 276.544 259.149 276.558 259.086C276.54 258.988 278.643 248.142 276.069 238.056C275.651 236.267 274.637 234.673 273.192 233.538C271.748 232.402 269.96 231.792 268.122 231.808C268.001 231.811 267.883 231.765 267.795 231.68C267.707 231.596 267.656 231.48 267.653 231.358C267.651 231.236 267.696 231.118 267.781 231.03C267.865 230.942 267.981 230.891 268.103 230.889C268.165 230.877 275.15 230.778 276.949 237.822C279.265 246.894 277.903 256.544 277.533 258.77C279.011 258.969 280.376 259.668 281.4 260.751C281.772 261.208 282.043 261.738 282.194 262.307C282.346 262.876 282.374 263.471 282.278 264.052C282.273 264.154 282.233 264.252 282.165 264.328C282.096 264.404 282.003 264.455 281.902 264.471Z" fill="url(#paint13_linear_10440_18052)"/>
<path d="M285.011 265.307C284.962 265.325 284.911 265.335 284.859 265.335C284.741 265.315 284.635 265.248 284.565 265.15C284.495 265.052 284.467 264.931 284.487 264.812C284.541 264.313 284.713 263.835 284.991 263.416C285.268 262.998 285.641 262.653 286.08 262.409C287.8 261.469 290.34 262.196 291.386 262.569C292.295 259.755 297.204 245.668 306.036 242.694C312.348 240.567 316.771 245.353 316.807 245.347C316.888 245.436 316.93 245.554 316.924 245.674C316.919 245.795 316.865 245.908 316.776 245.989C316.687 246.07 316.569 246.112 316.449 246.107C316.328 246.101 316.215 246.048 316.134 245.958C314.889 244.677 313.308 243.771 311.573 243.345C309.838 242.919 308.018 242.989 306.321 243.547C297.149 246.637 292.16 263.12 292.107 263.286C292.09 263.348 292.06 263.406 292.018 263.455C291.977 263.504 291.925 263.543 291.867 263.571C291.809 263.598 291.746 263.612 291.681 263.613C291.617 263.613 291.554 263.599 291.495 263.573C291.495 263.573 288.289 262.228 286.509 263.198C286.193 263.378 285.926 263.632 285.729 263.937C285.532 264.243 285.413 264.592 285.38 264.954C285.359 265.042 285.313 265.122 285.248 265.185C285.182 265.247 285.1 265.29 285.011 265.307Z" fill="url(#paint14_linear_10440_18052)"/>
<path d="M317.696 238.523C317.642 238.534 317.586 238.534 317.532 238.523C317.478 238.513 317.426 238.491 317.38 238.461C313.821 236.294 313.444 231.639 313.426 231.439C313.42 231.38 313.426 231.319 313.444 231.262C313.462 231.205 313.492 231.152 313.531 231.107C313.57 231.061 313.619 231.025 313.673 230.999C313.727 230.973 313.786 230.959 313.846 230.957C313.906 230.952 313.966 230.959 314.023 230.977C314.08 230.995 314.133 231.025 314.179 231.064C314.225 231.102 314.262 231.15 314.289 231.203C314.317 231.257 314.333 231.315 314.337 231.375C314.337 231.375 314.694 235.767 317.849 237.692C317.927 237.741 317.988 237.811 318.025 237.894C318.061 237.978 318.072 238.07 318.056 238.16C318.039 238.25 317.996 238.332 317.932 238.397C317.868 238.462 317.786 238.506 317.696 238.523Z" fill="url(#paint15_linear_10440_18052)"/>
<path d="M274.853 225.712C273.623 225.945 272.352 225.821 271.19 225.355C271.134 225.333 271.084 225.3 271.041 225.258C270.998 225.217 270.964 225.167 270.94 225.112C270.916 225.058 270.904 224.999 270.903 224.939C270.902 224.879 270.913 224.82 270.935 224.764C270.981 224.654 271.068 224.565 271.178 224.518C271.289 224.47 271.413 224.467 271.525 224.509C275.795 226.223 279.797 221.85 279.833 221.797C279.915 221.71 280.027 221.658 280.147 221.652C280.266 221.646 280.383 221.686 280.473 221.764C280.562 221.844 280.616 221.957 280.622 222.077C280.628 222.197 280.587 222.314 280.507 222.404C278.994 224.045 277.025 225.197 274.853 225.712Z" fill="url(#paint16_linear_10440_18052)"/>
<path d="M313.755 215.502C323.724 217.608 319.079 233.65 310.583 231.275C302.087 228.901 304.936 213.638 313.755 215.502Z" fill="#FED2B2"/>
<path d="M288.281 208.643C278.627 205.482 273.883 221.487 282.432 223.695C290.981 225.903 296.83 211.459 288.281 208.643Z" fill="#FED2B2"/>
<path d="M342.839 161.593C339.864 161.175 337.112 159.776 335.021 157.619C333.095 155.506 331.75 152.475 328.985 151.779C325.544 150.92 322.287 154.318 318.749 154.039C314.208 153.676 311.59 147.556 307.033 147.61C304.97 147.635 303.174 148.968 301.178 149.46C296.279 150.675 291.052 145.426 292.283 140.534C293.514 135.641 300.613 133.481 304.353 136.897C305.261 137.728 308.218 132.125 317.101 132.214C321.252 132.261 325.098 135.196 326.972 138.897C327.311 139.792 327.83 140.608 328.497 141.295C329.476 142.113 330.872 142.126 332.157 142.141C335.224 142.164 338.379 142.411 341.147 143.734C343.916 145.057 346.261 147.647 346.496 150.713C346.583 151.851 346.378 153.005 346.574 154.131C347.305 158.399 352.7 159.705 357.013 160.083C353.244 161.018 349.419 161.954 345.536 161.858C344.632 161.83 343.731 161.741 342.839 161.593Z" fill="#5D5D5D"/>
<path d="M336.192 145.096C334.343 144.214 332.335 143.711 330.288 143.617C328.241 143.524 326.196 143.842 324.274 144.553C323.958 143.929 323.482 143.4 322.894 143.02C322.306 142.641 321.628 142.425 320.928 142.395C320.283 142.366 319.638 142.483 319.044 142.738C316.643 139.856 313.267 137.959 309.558 137.406C307.216 137.113 305.242 137.574 304.147 138.65C302.466 140.312 302.012 143.652 302.317 146.29C302.591 148.704 303.445 150.504 304.639 151.237C306.885 152.515 309.525 152.916 312.049 152.361C313.822 152.021 315.534 151.423 317.133 150.587C317.817 151.505 318.816 152.138 319.939 152.364C320.462 152.483 321.004 152.497 321.533 152.406C321.922 152.332 322.296 152.196 322.64 152.001C323.737 153.97 327.09 159.108 332.541 159.352C332.77 159.364 332.999 159.347 333.223 159.301C334.82 158.847 336.226 157.885 337.227 156.561C338.932 154.571 340.452 151.517 339.984 149.204C339.668 147.619 338.296 146.162 336.192 145.096Z" fill="url(#paint17_linear_10440_18052)"/>
<path d="M339.303 150.601C339.231 150.539 339.144 150.498 339.05 150.481L329.962 149.368C329.864 149.353 329.763 149.371 329.676 149.419C329.588 149.467 329.519 149.543 329.479 149.634C329.439 149.725 329.43 149.827 329.454 149.924C329.478 150.021 329.533 150.107 329.61 150.17C329.784 150.313 346.789 164.711 345.853 185.318C345.849 185.418 345.877 185.517 345.934 185.6C345.991 185.683 346.073 185.745 346.168 185.777L349.524 186.882C349.596 186.909 349.674 186.914 349.749 186.897C349.823 186.884 349.892 186.854 349.952 186.807C350.011 186.761 350.058 186.701 350.088 186.632C350.167 186.406 357.812 167.382 339.303 150.601Z" fill="url(#paint18_linear_10440_18052)"/>
<path d="M305.542 140.859C305.471 140.822 305.392 140.805 305.312 140.809C279.87 142.054 272.232 168.716 272.161 168.987C272.13 169.101 272.144 169.222 272.201 169.325C272.258 169.429 272.352 169.506 272.465 169.541L275.853 170.566C275.922 170.589 275.996 170.595 276.068 170.582C276.139 170.572 276.206 170.543 276.263 170.498C276.319 170.454 276.364 170.396 276.391 170.33C286.762 148.993 313.212 146.041 313.489 146.046C313.589 146.039 313.683 145.999 313.758 145.933C313.833 145.866 313.883 145.777 313.902 145.679C313.921 145.581 313.907 145.48 313.863 145.39C313.818 145.301 313.745 145.229 313.656 145.185L305.542 140.859Z" fill="url(#paint19_linear_10440_18052)"/>
<path d="M317.922 201.752C317.12 205.302 314.663 206.958 312.386 206.819C309.59 206.664 307.682 203.884 305.181 203.324C302.866 202.823 299.227 204.325 296.389 203.227C294.344 202.437 292.372 199.862 293.193 196.215C294.141 191.993 300.803 188.196 307.631 189.721C314.46 191.246 318.862 197.54 317.922 201.752Z" fill="url(#paint20_linear_10440_18052)"/>
<path d="M312.119 204.561C311.197 204.254 310.337 203.786 309.579 203.178C308.421 202.263 307.094 201.586 305.673 201.186C304.253 200.963 302.806 200.977 301.391 201.228C300.16 201.458 298.901 201.487 297.661 201.316C297.501 201.286 297.344 201.241 297.193 201.18C296.141 200.772 294.775 199.249 295.353 196.698C295.98 193.909 301.324 190.574 307.154 191.884C312.983 193.194 316.395 198.505 315.767 201.286C315.227 203.691 313.748 204.689 312.522 204.645C312.386 204.626 312.251 204.598 312.119 204.561Z" fill="url(#paint21_linear_10440_18052)"/>
<path d="M307.228 210.01C305.863 210.254 304.462 210.217 303.112 209.902C298.389 208.843 295.267 204.871 296.125 200.969C296.983 197.067 301.537 194.817 306.269 195.875C311.001 196.932 314.114 200.905 313.247 204.809C313.011 205.79 312.552 206.702 311.906 207.476C311.259 208.25 310.443 208.864 309.52 209.27C308.792 209.618 308.021 209.867 307.228 210.01ZM302.533 198.004C300.407 198.391 298.74 199.672 298.338 201.471C297.792 204.144 300.139 206.9 303.606 207.699C305.25 208.103 306.982 207.941 308.522 207.238C309.135 206.976 309.679 206.578 310.113 206.073C310.547 205.569 310.86 204.972 311.028 204.327C311.626 201.681 309.262 198.882 305.761 198.099C304.702 197.853 303.604 197.82 302.533 198.004Z" fill="#F4F6F8"/>
<path d="M311.891 199.446C311.281 202.177 308.067 203.777 304.654 203.024C301.241 202.27 299.028 199.435 299.638 196.703C300.247 193.972 303.462 192.372 306.876 193.134C310.291 193.897 312.503 196.723 311.891 199.446Z" fill="url(#paint22_linear_10440_18052)"/>
<path d="M160.452 444.893C160.452 444.893 148.476 443.434 147.148 441.224C145.82 439.014 141.828 431.039 141.828 431.039L156.006 427.938L159.107 434.131L164.864 435.878L160.452 444.893Z" fill="url(#paint23_linear_10440_18052)"/>
<path d="M163.789 436.541C169.423 432.444 178.814 437.677 174.193 443.381C169.572 449.085 160.426 444.91 160.426 444.91L163.789 436.541Z" fill="#FED2B2"/>
<path d="M73.9601 446.308L69.5049 444.884C69.5049 444.884 62.2894 448.378 60.254 445.198C58.2186 442.018 68.9895 432.462 72.1431 433.327C74.1304 433.94 75.8632 435.185 77.0787 436.873L73.9601 446.308Z" fill="#FED2B2"/>
<path d="M135.16 426.059C135.16 426.854 127.228 437.765 127.228 437.765L133.212 440.036L130.364 449.217C130.364 449.217 113.766 449.365 110.901 445.862C108.036 442.359 113.399 429.02 113.399 429.02C113.399 429.02 114.133 420.285 123.882 420.809C133.631 421.333 135.16 426.059 135.16 426.059Z" fill="url(#paint24_linear_10440_18052)"/>
<path d="M114.806 405.784L101.843 404.963C101.843 404.963 89.8489 403.583 83.3933 407.357C76.4048 411.419 72.9106 417.324 73.8715 427.029C74.2733 431.266 77.3657 435.564 77.3657 435.564C75.9471 436.929 74.8918 438.627 74.2953 440.503C73.6989 442.379 73.5802 444.375 73.9501 446.309C73.9501 446.309 87.7873 452.965 96.2782 451.314C104.769 449.663 106.761 443.898 107.093 440.202L160.983 439.329L151.373 410.065L114.806 405.784Z" fill="url(#paint25_linear_10440_18052)"/>
<path d="M131.922 440.508C137.565 436.42 146.947 441.652 142.326 447.348C137.705 453.043 128.559 448.885 128.559 448.885L131.922 440.508Z" fill="#FED2B2"/>
<path d="M107.112 440.639H107.06C106.946 440.626 106.841 440.568 106.769 440.478C106.697 440.388 106.663 440.273 106.676 440.159C106.676 440.071 107.549 431.047 99.2854 423.185C99.2445 423.145 99.212 423.096 99.1898 423.043C99.1677 422.99 99.1562 422.933 99.1562 422.875C99.1562 422.818 99.1677 422.76 99.1898 422.707C99.212 422.654 99.2445 422.606 99.2854 422.565C99.3686 422.485 99.4798 422.439 99.5956 422.439C99.7113 422.439 99.8225 422.485 99.9057 422.565C108.484 430.742 107.567 440.176 107.558 440.272C107.541 440.377 107.486 440.472 107.404 440.54C107.322 440.607 107.219 440.642 107.112 440.639Z" fill="url(#paint26_linear_10440_18052)"/>
<path d="M131.92 440.909C131.857 440.926 131.791 440.926 131.728 440.909L125.805 437.956C125.705 437.905 125.629 437.818 125.591 437.712C125.554 437.607 125.559 437.491 125.604 437.388L128.95 429.727C128.967 429.667 128.996 429.611 129.035 429.562C129.075 429.514 129.125 429.475 129.181 429.448C129.238 429.421 129.299 429.406 129.362 429.404C129.424 429.403 129.486 429.415 129.544 429.44C129.601 429.464 129.653 429.501 129.695 429.547C129.737 429.594 129.769 429.648 129.788 429.708C129.807 429.767 129.813 429.83 129.806 429.893C129.798 429.955 129.778 430.014 129.745 430.068L126.565 437.362L132.112 440.131C132.164 440.156 132.21 440.192 132.248 440.235C132.287 440.278 132.316 440.328 132.334 440.382C132.353 440.437 132.361 440.494 132.357 440.551C132.354 440.609 132.339 440.665 132.313 440.717C132.27 440.78 132.211 440.831 132.142 440.864C132.073 440.898 131.997 440.913 131.92 440.909Z" fill="url(#paint27_linear_10440_18052)"/>
<path d="M110.501 439.748H110.414C110.357 439.737 110.303 439.716 110.255 439.684C110.207 439.652 110.165 439.611 110.133 439.563C110.102 439.515 110.08 439.461 110.069 439.404C110.059 439.347 110.06 439.289 110.073 439.232L113.637 422.067C113.647 422.01 113.669 421.956 113.701 421.908C113.733 421.86 113.774 421.819 113.822 421.787C113.87 421.755 113.924 421.733 113.981 421.723C114.038 421.712 114.096 421.714 114.153 421.726C114.209 421.738 114.262 421.76 114.31 421.792C114.357 421.824 114.398 421.866 114.43 421.913C114.461 421.961 114.483 422.015 114.494 422.071C114.505 422.128 114.505 422.186 114.493 422.242L110.929 439.407C110.907 439.504 110.853 439.591 110.775 439.653C110.697 439.715 110.601 439.748 110.501 439.748Z" fill="url(#paint28_linear_10440_18052)"/>
<path d="M160.057 412.571C166.783 418.538 174.54 437.197 150.736 439.023C126.931 440.848 120.118 426.967 123.874 412.816L160.057 412.571Z" fill="white"/>
<path d="M146.677 440.036C137.46 440.036 130.446 437.416 126.261 432.393C122.077 427.37 120.968 420.355 123.038 412.545C123.088 412.353 123.201 412.184 123.36 412.065C123.519 411.945 123.713 411.884 123.912 411.89L160.094 411.672C160.308 411.68 160.513 411.757 160.68 411.89C164.654 415.384 169.476 423.849 167.161 430.724C165.921 434.419 162.077 439.005 150.843 439.87C149.385 440.036 148.013 440.036 146.677 440.036ZM124.558 413.637C122.863 420.626 123.938 426.872 127.598 431.274C132.018 436.577 139.994 438.944 150.669 438.132C158.81 437.503 163.929 434.751 165.475 430.165C167.397 424.435 163.44 416.878 159.727 413.419L124.558 413.637Z" fill="url(#paint29_linear_10440_18052)"/>
<path d="M173.841 403.346H173.719C173.549 403.314 173.399 403.217 173.301 403.074C173.202 402.932 173.164 402.756 173.195 402.586C174.138 397.415 171.963 394.567 171.937 394.541C171.88 394.465 171.84 394.379 171.817 394.288C171.795 394.196 171.791 394.101 171.806 394.008L173.606 384.897C173.646 384.733 173.748 384.591 173.89 384.501C174.032 384.411 174.203 384.378 174.368 384.411C174.534 384.443 174.68 384.538 174.777 384.676C174.874 384.814 174.914 384.983 174.89 385.15L173.143 393.99C173.71 394.864 175.37 397.921 174.479 402.822C174.448 402.969 174.367 403.1 174.252 403.195C174.136 403.29 173.991 403.344 173.841 403.346Z" fill="#5D5D5D"/>
<path d="M131.364 343.875C149.874 343.823 166.638 348.54 173.679 363.862C178.85 375.114 173.032 392.122 173.032 392.122C173.032 392.122 178.911 400.482 169.215 408.72C159.518 416.957 135.705 417.455 123.676 414.101C109.245 410.065 104.694 401.32 101.409 394.821C98.1248 388.322 96.6048 370.143 104.432 358.901C111.141 349.3 121.326 343.945 131.364 343.875Z" fill="#FED2B2"/>
<path d="M105.992 390.557C102.131 386.242 95.5096 387.403 95.5707 395.859C95.6319 404.315 104.743 411.024 110.622 407.294C113.033 405.766 105.992 390.557 105.992 390.557Z" fill="#FED2B2"/>
<path d="M174.273 385.002C178.545 382.992 182.135 388.356 180.667 394.13C179.2 399.904 173.871 402.682 173.871 402.682L171.172 393.65L174.273 385.002Z" fill="#FED2B2"/>
<path d="M141.553 394.934C141.495 394.942 141.436 394.942 141.378 394.934C141.295 394.912 141.217 394.873 141.149 394.821C141.081 394.768 141.024 394.702 140.982 394.627C140.94 394.553 140.913 394.47 140.903 394.385C140.893 394.299 140.9 394.213 140.924 394.13C140.924 393.982 141.946 390.531 145.012 390.295C146.689 390.156 148.2 392.82 148.506 393.344C148.551 393.42 148.58 393.504 148.592 393.592C148.603 393.679 148.597 393.768 148.573 393.853C148.549 393.938 148.509 394.017 148.454 394.086C148.398 394.155 148.33 394.212 148.252 394.254C148.175 394.296 148.089 394.321 148.001 394.329C147.914 394.337 147.825 394.328 147.741 394.301C147.657 394.273 147.579 394.23 147.513 394.172C147.446 394.114 147.392 394.044 147.353 393.964C146.733 392.811 145.606 391.588 145.143 391.606C142.994 391.772 142.217 394.453 142.208 394.48C142.164 394.617 142.076 394.736 141.957 394.818C141.839 394.9 141.697 394.941 141.553 394.934Z" fill="#5D5D5D"/>
<path d="M160.216 384.819C159.854 384.26 159.341 383.816 158.736 383.539C158.131 383.262 157.459 383.163 156.8 383.255C154.179 383.491 152.878 386.216 152.956 388.793C153.035 391.178 154.276 393.624 156.861 393.677H156.94C157.621 393.658 158.284 393.45 158.855 393.077C159.426 392.703 159.881 392.179 160.172 391.563C160.742 390.532 161.045 389.374 161.053 388.196C161.06 387.018 160.773 385.857 160.216 384.819Z" fill="#5D5D5D"/>
<path d="M130.382 384.713C127.762 384.949 126.46 387.675 126.539 390.252C126.617 392.645 127.858 395.082 130.443 395.144H130.531C131.211 395.123 131.872 394.915 132.441 394.541C133.01 394.168 133.464 393.645 133.754 393.029C134.309 391.999 134.6 390.846 134.6 389.675C134.6 388.504 134.309 387.352 133.754 386.321C133.402 385.761 132.898 385.313 132.301 385.029C131.704 384.744 131.039 384.635 130.382 384.713Z" fill="#5D5D5D"/>
<path d="M160.432 351.055C157.583 351.969 154.511 351.914 151.697 350.898C149.076 349.85 146.508 347.709 143.721 348.277C140.227 349.011 138.812 353.519 135.518 354.777C131.273 356.436 126.241 352.095 122.179 354.13C120.336 355.056 119.305 357.039 117.724 358.358C113.854 361.59 106.866 359.162 105.835 354.226C104.804 349.291 110.203 344.268 115.077 345.683C116.265 346.032 116.466 339.699 124.485 335.899C128.233 334.152 132.976 335.078 136.278 337.585C136.97 338.241 137.791 338.747 138.689 339.07C139.93 339.376 141.196 338.782 142.349 338.196C145.119 336.877 148.063 335.724 151.129 335.689C154.195 335.654 157.427 336.982 158.991 339.629C159.567 340.616 159.864 341.743 160.554 342.669C163.079 346.163 168.495 344.993 172.531 343.446C169.561 345.927 166.53 348.452 163 350.059C162.169 350.451 161.311 350.784 160.432 351.055Z" fill="#5D5D5D"/>
<path d="M157.998 347.133C157.238 345.797 155.465 344.827 153.141 344.513C151.11 344.255 149.048 344.409 147.078 344.964C145.108 345.52 143.269 346.465 141.671 347.745C141.179 347.248 140.563 346.892 139.887 346.716C139.211 346.539 138.499 346.547 137.827 346.74C137.2 346.897 136.617 347.196 136.124 347.614C132.943 345.631 129.143 344.888 125.449 345.526C123.143 345.98 121.422 347.028 120.723 348.4C119.649 350.496 120.278 353.833 121.387 356.21C122.4 358.393 123.763 359.835 125.126 360.158C125.788 360.31 126.465 360.386 127.144 360.385C131.739 360.385 135.521 356.891 136.753 355.615C137.525 356.184 138.459 356.49 139.417 356.489C139.601 356.502 139.784 356.502 139.968 356.489C140.906 356.419 141.782 355.99 142.414 355.292C143.803 356.576 147.437 359.503 151.691 359.503C152.509 359.506 153.323 359.394 154.111 359.171C155.456 358.795 156.731 357.293 157.666 355.056C158.679 352.541 159.16 349.186 157.998 347.133Z" fill="url(#paint30_linear_10440_18052)"/>
<path d="M157.927 349.57C157.868 349.54 157.802 349.524 157.735 349.524C157.669 349.524 157.603 349.54 157.543 349.57C157.486 349.608 157.438 349.658 157.404 349.717C157.369 349.776 157.348 349.842 157.342 349.911L156.897 355.667C156.888 355.756 156.907 355.846 156.953 355.923C156.999 356 157.068 356.06 157.15 356.095C160.028 357.66 162.578 359.763 164.663 362.289C168.244 366.386 172.804 373.733 174.158 385.491C174.171 385.597 174.223 385.695 174.303 385.766C174.384 385.837 174.488 385.876 174.595 385.875H178.133C178.237 385.876 178.337 385.839 178.416 385.772C178.494 385.704 178.546 385.611 178.561 385.508C178.639 385.211 182.335 358.891 157.927 349.57Z" fill="url(#paint31_linear_10440_18052)"/>
<path d="M130.449 352.06L121.417 350.514C121.339 350.497 121.259 350.497 121.181 350.514C97.4466 359.669 98.5734 387.369 98.5909 387.622C98.5954 387.735 98.6434 387.842 98.7249 387.92C98.8063 387.998 98.9148 388.042 99.0277 388.042L102.566 387.954C102.67 387.951 102.769 387.91 102.846 387.84C102.923 387.769 102.972 387.674 102.985 387.57C106.13 364.098 130.31 352.995 130.589 352.89C130.675 352.851 130.745 352.786 130.791 352.705C130.837 352.623 130.855 352.528 130.843 352.436C130.829 352.338 130.783 352.247 130.712 352.179C130.64 352.111 130.548 352.069 130.449 352.06Z" fill="url(#paint32_linear_10440_18052)"/>
<path d="M156.842 405.032C157.06 408.526 155.226 410.702 153.103 411.199C150.483 411.811 147.967 409.758 145.503 409.907C143.223 410.055 140.262 412.431 137.353 412.187C135.256 412.012 132.741 410.16 132.514 406.561C132.251 402.411 137.388 397.109 144.106 396.69C150.823 396.27 156.58 400.883 156.842 405.032Z" fill="url(#paint33_linear_10440_18052)"/>
<path d="M152.25 409.182C151.312 409.149 150.388 408.945 149.524 408.579C148.206 408.048 146.796 407.781 145.375 407.793C144.004 407.971 142.673 408.376 141.435 408.99C140.358 409.531 139.202 409.9 138.011 410.082C137.854 410.095 137.696 410.095 137.539 410.082C136.456 409.994 134.787 408.946 134.63 406.439C134.464 403.687 138.509 399.171 144.239 398.813C149.97 398.454 154.556 402.429 154.722 405.181C154.87 407.539 153.77 408.876 152.616 409.138C152.497 409.169 152.373 409.184 152.25 409.182Z" fill="url(#paint34_linear_10440_18052)"/>
<path d="M144.457 416.572C140.089 416.572 136.481 413.803 136.254 410.178C136.009 406.369 139.6 403.032 144.238 402.744C148.877 402.455 152.86 405.312 153.096 409.121C153.142 410.089 152.963 411.055 152.574 411.943C152.184 412.831 151.595 413.617 150.851 414.24C149.252 415.633 147.23 416.449 145.112 416.555L144.457 416.572ZM144.902 404.901H144.378C140.936 405.12 138.263 407.417 138.429 410.02C138.595 412.624 141.539 414.572 144.972 414.388C146.6 414.318 148.156 413.702 149.392 412.641C149.887 412.232 150.281 411.716 150.546 411.132C150.811 410.547 150.939 409.91 150.921 409.269C150.764 406.779 148.117 404.901 144.902 404.901Z" fill="#F4F6F8"/>
<path d="M150.685 404.525C150.851 407.216 148.291 409.566 144.954 409.767C141.617 409.968 138.787 407.967 138.621 405.277C138.455 402.586 141.014 400.236 144.343 400.035C147.671 399.834 150.484 401.835 150.685 404.525Z" fill="url(#paint35_linear_10440_18052)"/>
<path d="M425.182 351.342C425.182 351.342 422.256 362.525 426.051 366.641C429.845 370.757 435.732 370.453 435.732 370.453L445.753 342.572L437.825 339.967L425.182 351.342Z" fill="url(#paint36_linear_10440_18052)"/>
<path d="M436.866 276.953C441.659 276.476 446.669 267.645 453.911 270.606C461.152 273.567 461.578 268.869 470.105 270.606C478.631 272.342 478.206 276.953 483.311 276.528C488.417 276.102 493.54 274.834 495.676 280.765C497.812 286.695 501.641 288.805 505.905 286.261C505.905 286.261 502.492 291.341 497.378 291.341C497.378 291.341 500.851 292.574 502.492 299.381C507.702 320.264 491.821 332.881 491.821 332.881L430.041 330.692C430.041 330.692 421.523 321.384 422.799 312.918C424.076 304.452 421.931 306.154 421.523 299.807C421.115 293.46 425.482 290.143 427.063 285.836C428.765 281.156 432.602 277.379 436.866 276.953Z" fill="#5D5D5D"/>
<path d="M505.513 387.419C505.513 387.419 511.73 378.519 514.604 382.409C517.478 386.299 513.024 400.765 509.629 401.702C506.233 402.64 501.918 399.236 501.918 399.236L505.513 387.419Z" fill="#FED2B2"/>
<path d="M502.534 400.157C502.534 400.157 472.699 396.536 457.964 396.432C443.229 396.328 415.799 398.777 415.799 398.777L411.961 385.353L428.589 379.804L442.89 340.73H478.412L490.942 380.672L506.719 386.855L502.534 400.157Z" fill="url(#paint37_linear_10440_18052)"/>
<path d="M413.045 386.524C413.045 386.524 406.593 377.789 403.823 381.749C401.054 385.708 405.881 400.061 409.294 400.912C412.706 401.763 415.997 398.759 415.997 398.759L413.045 386.524Z" fill="#FED2B2"/>
<path d="M476.553 398.255C480.434 396.345 490.02 373.456 488.709 358.461C487.398 343.465 478.68 341.468 478.68 341.468L469.129 390.223L476.553 398.255Z" fill="url(#paint38_linear_10440_18052)"/>
<path d="M467.192 389.694H467.088C467.033 389.68 466.981 389.655 466.935 389.621C466.889 389.586 466.851 389.543 466.822 389.494C466.793 389.445 466.774 389.39 466.766 389.334C466.758 389.277 466.761 389.22 466.776 389.164L473.236 364.07C473.25 364.013 473.275 363.96 473.31 363.913C473.345 363.865 473.389 363.825 473.44 363.795C473.49 363.765 473.546 363.745 473.604 363.736C473.662 363.728 473.722 363.731 473.779 363.745C473.836 363.759 473.889 363.784 473.936 363.819C473.984 363.854 474.023 363.898 474.054 363.949C474.084 363.999 474.104 364.055 474.113 364.113C474.121 364.171 474.118 364.23 474.104 364.287L467.644 389.382C467.615 389.477 467.554 389.56 467.472 389.616C467.391 389.673 467.292 389.7 467.192 389.694Z" fill="url(#paint39_linear_10440_18052)"/>
<path d="M478.751 396.527C478.674 396.525 478.599 396.502 478.534 396.461C478.469 396.421 478.415 396.364 478.378 396.297C478.341 396.229 478.323 396.154 478.324 396.077C478.326 396 478.347 395.925 478.386 395.859C483.188 388.305 487.165 372.996 487.2 372.849C487.228 372.734 487.302 372.635 487.403 372.574C487.505 372.512 487.627 372.494 487.742 372.523C487.857 372.552 487.956 372.625 488.017 372.727C488.079 372.829 488.097 372.951 488.068 373.066C488.024 373.213 484.013 388.695 479.15 396.328C479.107 396.393 479.048 396.446 478.978 396.482C478.907 396.517 478.829 396.532 478.751 396.527Z" fill="url(#paint40_linear_10440_18052)"/>
<path d="M467.67 390.215C467.67 390.215 458.987 393.054 461.817 397.908C464.648 402.762 474.356 401.381 478.263 396.093L467.67 390.215Z" fill="#FED2B2"/>
<path d="M477.941 339.332C482.969 346.374 489.559 371.077 460.575 370.869C431.591 370.66 440.934 345.115 444.598 340.305L477.941 339.332Z" fill="white"/>
<path d="M460.925 371.694H460.517C450.444 371.625 443.845 368.56 440.919 362.594C436.881 354.371 441.327 343.066 443.854 339.741C443.932 339.636 444.033 339.551 444.149 339.491C444.264 339.43 444.392 339.397 444.523 339.393L477.883 338.464C478.025 338.461 478.166 338.492 478.293 338.556C478.42 338.619 478.53 338.713 478.612 338.829C482.085 343.726 485.376 354.623 481.295 362.473C478.135 368.577 471.266 371.694 460.925 371.694ZM445.035 341.121C442.734 344.481 438.957 354.649 442.508 361.822C445.113 367.153 451.191 369.897 460.569 369.958C470.415 370.044 476.884 367.222 479.793 361.622C483.544 354.389 480.253 344.36 477.492 340.175L445.035 341.121Z" fill="url(#paint41_linear_10440_18052)"/>
<path d="M464.378 279.289C481.197 280.548 490.488 289.561 494.995 302.846C496.33 306.66 496.79 310.727 496.339 314.743C495.888 318.76 494.538 322.623 492.39 326.047C492.39 326.047 500.205 345.045 460.914 344.941C421.623 344.837 431.583 323.702 431.583 323.702C429.451 319.923 428.325 315.66 428.313 311.321C428.3 306.982 429.402 302.712 431.513 298.921C439.788 283.943 456.399 278.69 464.378 279.289Z" fill="#FED2B2"/>
<path d="M465.476 325.526C465.334 325.525 465.196 325.478 465.083 325.392C464.97 325.306 464.889 325.185 464.851 325.048C464.66 324.362 463.887 322.443 462.776 322.443C461.569 322.443 460.501 324.049 460.171 324.657C460.133 324.733 460.08 324.801 460.016 324.857C459.952 324.913 459.877 324.955 459.796 324.982C459.716 325.009 459.63 325.019 459.546 325.012C459.461 325.006 459.378 324.983 459.302 324.944C459.149 324.867 459.031 324.733 458.976 324.57C458.921 324.408 458.932 324.23 459.007 324.075C459.068 323.954 460.492 321.167 462.741 321.141C465.085 321.141 466.032 324.614 466.075 324.727C466.118 324.894 466.094 325.071 466.008 325.22C465.922 325.369 465.781 325.479 465.615 325.526H465.476Z" fill="#5D5D5D"/>
<path d="M478.25 317.269C477.922 316.749 477.451 316.335 476.893 316.076C476.336 315.817 475.716 315.725 475.107 315.81C472.684 316.044 471.512 318.562 471.634 320.933C471.72 323.13 472.884 325.37 475.272 325.405H475.28C475.912 325.388 476.525 325.195 477.053 324.848C477.581 324.502 478.001 324.015 478.267 323.442C478.782 322.494 479.051 321.432 479.048 320.353C479.045 319.274 478.77 318.214 478.25 317.269Z" fill="#5D5D5D"/>
<path d="M449.661 316.409C447.239 316.635 446.067 319.153 446.188 321.523C446.275 323.72 447.43 325.96 449.818 325.995H449.87C450.501 325.979 451.115 325.787 451.643 325.44C452.171 325.093 452.591 324.606 452.857 324.033C453.377 323.088 453.649 322.028 453.649 320.95C453.649 319.872 453.377 318.812 452.857 317.868C452.528 317.336 452.049 316.913 451.48 316.654C450.912 316.394 450.279 316.309 449.661 316.409Z" fill="#5D5D5D"/>
<path d="M462.47 329.659C461.836 329.656 461.212 329.818 460.661 330.13C460.109 330.443 459.649 330.894 459.326 331.439C458.659 332.546 458.318 333.82 458.345 335.112C458.345 337.57 459.491 340.218 462.027 340.218C464.562 340.218 466.169 337.274 466.169 334.426C466.169 332.056 465.022 329.659 462.47 329.659Z" fill="#C83C28"/>
<path d="M457.824 275.251C465.491 274.383 478.664 279.271 482.536 280.878C486.409 282.484 492.574 285.306 495.656 289.726C498.739 294.145 500.675 298.165 499.902 301.786C499.243 304.282 498.059 306.609 496.429 308.611L491.028 297.323C491.028 297.323 471.335 288.883 467.089 283.656C467.089 283.656 468.635 291.297 472.108 293.303C472.108 293.303 462.07 292.096 455.888 283.656C450.672 289.814 443.954 294.522 436.386 297.323C436.386 297.323 432.157 302.733 431.35 307.022C430.308 312.579 429.656 315.254 429.3 316.999C429.3 316.999 424.959 303.757 427.321 296.524C429.683 289.291 437.358 277.682 457.824 275.251Z" fill="#5D5D5D"/>
<path d="M480.904 274.053C480.279 272.794 478.716 271.822 476.615 271.387C474.787 271.058 472.911 271.098 471.098 271.503C469.284 271.909 467.571 272.672 466.056 273.749C465.629 273.273 465.08 272.92 464.469 272.729C463.858 272.538 463.206 272.516 462.583 272.664C462.007 272.775 461.464 273.015 460.994 273.367C458.214 271.419 454.814 270.563 451.443 270.962C449.316 271.266 447.692 272.134 446.989 273.35C445.903 275.217 446.311 278.282 447.197 280.496C448.022 282.545 449.194 283.917 450.418 284.282C451.16 284.502 451.928 284.619 452.702 284.629C456.661 284.629 460.048 281.851 461.211 280.765C461.956 281.341 462.875 281.647 463.816 281.633H464.059C464.911 281.612 465.723 281.271 466.334 280.678C467.602 281.972 470.936 284.942 474.974 284.942C475.558 284.943 476.141 284.879 476.711 284.751C477.961 284.473 479.22 283.17 480.184 281.182C481.269 279.011 481.868 275.946 480.904 274.053Z" fill="url(#paint42_linear_10440_18052)"/>
<path d="M479.696 275.885C479.632 275.86 479.563 275.85 479.495 275.858C479.427 275.866 479.362 275.89 479.305 275.929C479.249 275.965 479.201 276.013 479.167 276.07C479.132 276.128 479.111 276.192 479.105 276.259L478.758 281.468C478.755 281.557 478.778 281.645 478.824 281.72C478.871 281.796 478.938 281.856 479.019 281.894C482.118 283.508 484.859 285.732 487.076 288.432C490.854 292.826 495.56 300.736 496.524 313.483C496.529 313.555 496.552 313.625 496.591 313.686C496.631 313.747 496.685 313.796 496.749 313.83L499.693 315.402C499.757 315.437 499.829 315.456 499.903 315.455C499.976 315.455 500.048 315.437 500.112 315.401C500.177 315.366 500.231 315.314 500.27 315.252C500.309 315.19 500.331 315.119 500.335 315.046C500.353 314.768 501.933 284.108 479.696 275.885Z" fill="url(#paint43_linear_10440_18052)"/>
<path d="M453.283 278.204L449.462 276.076C449.404 276.049 449.34 276.034 449.276 276.034C449.211 276.034 449.147 276.049 449.089 276.076C427.65 284.612 426.053 316.6 426.044 316.887C426.04 316.946 426.048 317.005 426.069 317.061C426.09 317.116 426.123 317.166 426.166 317.208C426.206 317.25 426.255 317.283 426.308 317.306C426.362 317.328 426.42 317.339 426.478 317.338L429.691 317.225C429.795 317.224 429.895 317.184 429.972 317.114C430.049 317.043 430.097 316.947 430.108 316.843C432.713 292.791 453.1 279.063 453.3 278.933C453.362 278.891 453.413 278.833 453.447 278.767C453.482 278.7 453.5 278.626 453.5 278.551C453.493 278.48 453.47 278.412 453.432 278.352C453.394 278.292 453.343 278.241 453.283 278.204Z" fill="url(#paint44_linear_10440_18052)"/>
<path d="M430.889 312.64C425.175 310.904 420.573 314.742 421.719 321.219C422.657 326.498 431.618 330.058 431.618 330.058L434.397 322.695L430.889 312.64Z" fill="#FED2B2"/>
<path d="M493.513 314.1C499.2 312.25 503.863 316.053 502.804 322.54C501.935 327.836 493.035 331.526 493.035 331.526L490.152 324.207L493.513 314.1Z" fill="#FED2B2"/>
<path d="M428.709 343.153C431.062 341.816 436.524 336.407 437.957 338.465C439.329 340.375 435.187 343.866 434.64 344.282C434.632 344.289 434.627 344.297 434.622 344.306C434.618 344.315 434.616 344.325 434.616 344.334C434.616 344.344 434.618 344.354 434.622 344.363C434.627 344.372 434.632 344.38 434.64 344.387C434.848 344.595 435.604 345.368 436.585 346.505C437.313 347.326 437.806 348.328 438.011 349.405C438.216 350.483 438.125 351.596 437.748 352.627C436.35 356.178 432.486 355.805 432.252 355.779L425.253 351.437C425.25 351.429 425.248 351.42 425.248 351.411C425.248 351.402 425.25 351.393 425.253 351.385C425.149 350.855 424.785 345.411 428.709 343.153Z" fill="#EDCAAF"/>
<path d="M433.409 356.507C433.323 356.507 433.239 356.481 433.168 356.433C433.097 356.385 433.042 356.317 433.009 356.238C432.966 356.131 432.966 356.011 433.01 355.904C433.053 355.797 433.137 355.711 433.244 355.665C433.244 355.665 437.967 353.677 437.967 349.587C437.967 346.817 434.286 345.011 434.251 344.994C434.187 344.962 434.132 344.915 434.09 344.858C434.047 344.8 434.019 344.734 434.008 344.664C433.995 344.593 434 344.521 434.025 344.454C434.049 344.386 434.091 344.327 434.147 344.282C436.465 342.154 438.584 339.402 438.054 338.698C437.411 337.83 435.675 338.698 435.657 338.698C435.607 338.725 435.552 338.741 435.495 338.746C435.438 338.751 435.38 338.744 435.326 338.726C435.272 338.709 435.222 338.68 435.179 338.642C435.136 338.605 435.101 338.559 435.076 338.507C435.024 338.405 435.015 338.286 435.051 338.177C435.087 338.068 435.164 337.978 435.267 337.926C435.362 337.874 437.663 336.753 438.74 338.203C439.817 339.654 436.717 343.049 435.163 344.533C436.309 345.211 438.827 346.991 438.827 349.613C438.827 354.267 433.782 356.386 433.565 356.473C433.516 356.495 433.463 356.507 433.409 356.507Z" fill="#5D5D5D"/>
</g>
<defs>
<linearGradient id="paint0_linear_10440_18052" x1="291.599" y1="0.456055" x2="291.599" y2="462.161" gradientUnits="userSpaceOnUse">
<stop stop-color="#FFE4E4"/>
<stop offset="1" stop-color="#FAF9EB"/>
</linearGradient>
<linearGradient id="paint1_linear_10440_18052" x1="118.709" y1="104.164" x2="151.168" y2="408.821" gradientUnits="userSpaceOnUse">
<stop stop-color="#FFDDDD"/>
<stop offset="1" stop-color="#FAF9EB"/>
</linearGradient>
<linearGradient id="paint2_linear_10440_18052" x1="454.391" y1="164.408" x2="369.047" y2="390.899" gradientUnits="userSpaceOnUse">
<stop stop-color="#FFDEDE"/>
<stop offset="1" stop-color="#FAF9EB"/>
</linearGradient>
<linearGradient id="paint3_linear_10440_18052" x1="376.412" y1="292.485" x2="459.22" y2="394.169" gradientUnits="userSpaceOnUse">
<stop offset="0.257123" stop-color="#FFD6D6"/>
<stop offset="1" stop-color="#FAF9EB"/>
</linearGradient>
<linearGradient id="paint4_linear_10440_18052" x1="177.152" y1="132.784" x2="177.152" y2="387.857" gradientUnits="userSpaceOnUse">
<stop stop-color="#FFC0C0"/>
<stop offset="1" stop-color="#FAF9EB"/>
</linearGradient>
<linearGradient id="paint5_linear_10440_18052" x1="181.078" y1="236.35" x2="181.078" y2="387.418" gradientUnits="userSpaceOnUse">
<stop stop-color="#FFC7C7"/>
<stop offset="1" stop-color="#FAF9EB"/>
</linearGradient>
<linearGradient id="paint6_linear_10440_18052" x1="155.89" y1="82.67" x2="455.989" y2="383.078" gradientUnits="userSpaceOnUse">
<stop stop-color="#FFC1C2"/>
<stop offset="0.25" stop-color="#FCA7A5"/>
<stop offset="0.54" stop-color="#F98F8C"/>
<stop offset="0.79" stop-color="#F8817C"/>
<stop offset="1" stop-color="#F77C77"/>
</linearGradient>
<linearGradient id="paint7_linear_10440_18052" x1="324.684" y1="223.043" x2="308.667" y2="225.69" gradientUnits="userSpaceOnUse">
<stop stop-color="#FFC1C2"/>
<stop offset="1" stop-color="#FE958F"/>
</linearGradient>
<linearGradient id="paint8_linear_10440_18052" x1="288.92" y1="212.223" x2="268.572" y2="215.449" gradientUnits="userSpaceOnUse">
<stop stop-color="#FFC1C2"/>
<stop offset="1" stop-color="#FE958F"/>
</linearGradient>
<linearGradient id="paint9_linear_10440_18052" x1="315.334" y1="229.453" x2="264.997" y2="237.471" gradientUnits="userSpaceOnUse">
<stop stop-color="#FFC1C2"/>
<stop offset="1" stop-color="#FE958F"/>
</linearGradient>
<linearGradient id="paint10_linear_10440_18052" x1="315.455" y1="256.302" x2="285.183" y2="260.93" gradientUnits="userSpaceOnUse">
<stop stop-color="#FFD7D8"/>
<stop offset="1" stop-color="#FFBAB7"/>
</linearGradient>
<linearGradient id="paint11_linear_10440_18052" x1="277.313" y1="248.786" x2="260.969" y2="251.549" gradientUnits="userSpaceOnUse">
<stop stop-color="#FFD7D8"/>
<stop offset="1" stop-color="#FFBAB7"/>
</linearGradient>
<linearGradient id="paint12_linear_10440_18052" x1="295.521" y1="199.756" x2="302.611" y2="238.705" gradientUnits="userSpaceOnUse">
<stop stop-color="#FFE4E4"/>
<stop offset="1" stop-color="#FAF9EB"/>
</linearGradient>
<linearGradient id="paint13_linear_10440_18052" x1="278.464" y1="247.251" x2="271.06" y2="248.553" gradientUnits="userSpaceOnUse">
<stop stop-color="#FFC1C2"/>
<stop offset="1" stop-color="#FE958F"/>
</linearGradient>
<linearGradient id="paint14_linear_10440_18052" x1="313.816" y1="250.724" x2="283.833" y2="254.774" gradientUnits="userSpaceOnUse">
<stop stop-color="#FFC1C2"/>
<stop offset="1" stop-color="#FE958F"/>
</linearGradient>
<linearGradient id="paint15_linear_10440_18052" x1="317.039" y1="234.554" x2="314.159" y2="235.048" gradientUnits="userSpaceOnUse">
<stop stop-color="#FFC1C2"/>
<stop offset="1" stop-color="#FE958F"/>
</linearGradient>
<linearGradient id="paint16_linear_10440_18052" x1="279.697" y1="223.298" x2="271.134" y2="224.162" gradientUnits="userSpaceOnUse">
<stop stop-color="#FFC1C2"/>
<stop offset="1" stop-color="#FE958F"/>
</linearGradient>
<linearGradient id="paint17_linear_10440_18052" x1="335.182" y1="145.756" x2="304.232" y2="150.323" gradientUnits="userSpaceOnUse">
<stop stop-color="#FFC1C2"/>
<stop offset="1" stop-color="#FE958F"/>
</linearGradient>
<linearGradient id="paint18_linear_10440_18052" x1="348.437" y1="166.791" x2="333.556" y2="169.339" gradientUnits="userSpaceOnUse">
<stop stop-color="#FFC1C2"/>
<stop offset="1" stop-color="#FE958F"/>
</linearGradient>
<linearGradient id="paint19_linear_10440_18052" x1="309.942" y1="152.175" x2="271.541" y2="157.402" gradientUnits="userSpaceOnUse">
<stop stop-color="#FFC1C2"/>
<stop offset="1" stop-color="#FE958F"/>
</linearGradient>
<linearGradient id="paint20_linear_10440_18052" x1="314.725" y1="197.009" x2="294.103" y2="200.106" gradientUnits="userSpaceOnUse">
<stop stop-color="#FFC1C2"/>
<stop offset="1" stop-color="#FE958F"/>
</linearGradient>
<linearGradient id="paint21_linear_10440_18052" x1="313.036" y1="197.304" x2="296.154" y2="199.803" gradientUnits="userSpaceOnUse">
<stop stop-color="#FFC1C2"/>
<stop offset="1" stop-color="#FE958F"/>
</linearGradient>
<linearGradient id="paint22_linear_10440_18052" x1="304.82" y1="192.889" x2="306.709" y2="203.263" gradientUnits="userSpaceOnUse">
<stop stop-color="#FFE4E4"/>
<stop offset="1" stop-color="#FAF9EB"/>
</linearGradient>
<linearGradient id="paint23_linear_10440_18052" x1="162.276" y1="436.511" x2="142.577" y2="435.866" gradientUnits="userSpaceOnUse">
<stop stop-color="#FFC1C2"/>
<stop offset="1" stop-color="#FE958F"/>
</linearGradient>
<linearGradient id="paint24_linear_10440_18052" x1="132.34" y1="435.163" x2="110.862" y2="434.706" gradientUnits="userSpaceOnUse">
<stop stop-color="#FFC1C2"/>
<stop offset="1" stop-color="#FE958F"/>
</linearGradient>
<linearGradient id="paint25_linear_10440_18052" x1="151.179" y1="428.412" x2="76.6229" y2="425.067" gradientUnits="userSpaceOnUse">
<stop stop-color="#FFC1C2"/>
<stop offset="1" stop-color="#FE958F"/>
</linearGradient>
<linearGradient id="paint26_linear_10440_18052" x1="106.643" y1="431.642" x2="99.4237" y2="431.562" gradientUnits="userSpaceOnUse">
<stop stop-color="#FFC1C2"/>
<stop offset="1" stop-color="#FE958F"/>
</linearGradient>
<linearGradient id="paint27_linear_10440_18052" x1="131.595" y1="435.228" x2="125.782" y2="435.146" gradientUnits="userSpaceOnUse">
<stop stop-color="#FFC1C2"/>
<stop offset="1" stop-color="#FE958F"/>
</linearGradient>
<linearGradient id="paint28_linear_10440_18052" x1="114.003" y1="430.834" x2="110.203" y2="430.811" gradientUnits="userSpaceOnUse">
<stop stop-color="#FFC1C2"/>
<stop offset="1" stop-color="#FE958F"/>
</linearGradient>
<linearGradient id="paint29_linear_10440_18052" x1="144.894" y1="411.672" x2="144.894" y2="440.036" gradientUnits="userSpaceOnUse">
<stop stop-color="#FFE4E4"/>
<stop offset="1" stop-color="#FAF9EB"/>
</linearGradient>
<linearGradient id="paint30_linear_10440_18052" x1="154.349" y1="352.479" x2="121.495" y2="350.573" gradientUnits="userSpaceOnUse">
<stop stop-color="#FFC1C2"/>
<stop offset="1" stop-color="#FE958F"/>
</linearGradient>
<linearGradient id="paint31_linear_10440_18052" x1="176.343" y1="367.905" x2="157.591" y2="367.633" gradientUnits="userSpaceOnUse">
<stop stop-color="#FFC1C2"/>
<stop offset="1" stop-color="#FE958F"/>
</linearGradient>
<linearGradient id="paint32_linear_10440_18052" x1="127.221" y1="369.484" x2="99.6097" y2="368.912" gradientUnits="userSpaceOnUse">
<stop stop-color="#FFC1C2"/>
<stop offset="1" stop-color="#FE958F"/>
</linearGradient>
<linearGradient id="paint33_linear_10440_18052" x1="154.124" y1="404.522" x2="133.303" y2="403.735" gradientUnits="userSpaceOnUse">
<stop stop-color="#FFC1C2"/>
<stop offset="1" stop-color="#FE958F"/>
</linearGradient>
<linearGradient id="paint34_linear_10440_18052" x1="152.476" y1="404.505" x2="135.292" y2="403.768" gradientUnits="userSpaceOnUse">
<stop stop-color="#FFC1C2"/>
<stop offset="1" stop-color="#FE958F"/>
</linearGradient>
<linearGradient id="paint35_linear_10440_18052" x1="144.653" y1="400.021" x2="144.653" y2="409.781" gradientUnits="userSpaceOnUse">
<stop stop-color="#FFE4E4"/>
<stop offset="1" stop-color="#FAF9EB"/>
</linearGradient>
<linearGradient id="paint36_linear_10440_18052" x1="443.321" y1="355.385" x2="424.795" y2="355.068" gradientUnits="userSpaceOnUse">
<stop stop-color="#FFC1C2"/>
<stop offset="1" stop-color="#FE958F"/>
</linearGradient>
<linearGradient id="paint37_linear_10440_18052" x1="496.075" y1="370.78" x2="415.075" y2="367.668" gradientUnits="userSpaceOnUse">
<stop stop-color="#FFC1C2"/>
<stop offset="1" stop-color="#FE958F"/>
</linearGradient>
<linearGradient id="paint38_linear_10440_18052" x1="486.618" y1="370.183" x2="469.753" y2="370.042" gradientUnits="userSpaceOnUse">
<stop stop-color="#FFC1C2"/>
<stop offset="1" stop-color="#FE958F"/>
</linearGradient>
<linearGradient id="paint39_linear_10440_18052" x1="473.291" y1="376.86" x2="466.994" y2="376.817" gradientUnits="userSpaceOnUse">
<stop stop-color="#FFC1C2"/>
<stop offset="1" stop-color="#FE958F"/>
</linearGradient>
<linearGradient id="paint40_linear_10440_18052" x1="486.985" y1="384.655" x2="478.633" y2="384.573" gradientUnits="userSpaceOnUse">
<stop stop-color="#FFC1C2"/>
<stop offset="1" stop-color="#FE958F"/>
</linearGradient>
<linearGradient id="paint41_linear_10440_18052" x1="461.239" y1="338.464" x2="461.239" y2="371.694" gradientUnits="userSpaceOnUse">
<stop stop-color="#FFE4E4"/>
<stop offset="1" stop-color="#FAF9EB"/>
</linearGradient>
<linearGradient id="paint42_linear_10440_18052" x1="477.451" y1="277.984" x2="447.551" y2="276.19" gradientUnits="userSpaceOnUse">
<stop stop-color="#FFC1C2"/>
<stop offset="1" stop-color="#FE958F"/>
</linearGradient>
<linearGradient id="paint43_linear_10440_18052" x1="497.938" y1="295.88" x2="479.444" y2="295.636" gradientUnits="userSpaceOnUse">
<stop stop-color="#FFC1C2"/>
<stop offset="1" stop-color="#FE958F"/>
</linearGradient>
<linearGradient id="paint44_linear_10440_18052" x1="450.416" y1="296.92" x2="426.917" y2="296.544" gradientUnits="userSpaceOnUse">
<stop stop-color="#FFC1C2"/>
<stop offset="1" stop-color="#FE958F"/>
</linearGradient>
<clipPath id="clip0_10440_18052">
<rect width="571.011" height="461.706" fill="white" transform="translate(0.496094 0.456055)"/>
</clipPath>
</defs>
</svg>
