<svg width="570" height="444" viewBox="0 0 570 444" fill="none" xmlns="http://www.w3.org/2000/svg">
<g clip-path="url(#clip0_10440_18247)">
<path opacity="0.4" d="M488.89 118.3C476.762 110.868 466.529 100.718 458.999 88.6518C425.911 35.4322 366.908 0 299.627 0C236.199 0 180.129 31.4934 146.191 79.6936C138.415 90.6951 128.564 100.071 117.192 107.295C65.5856 140.205 31.6439 198.365 32.7899 264.377C34.5263 364.25 116.94 444.381 216.822 443.449C234.673 443.298 252.405 440.524 269.448 435.213C301.352 425.259 335.184 423.571 368.008 429.848C378.587 431.866 389.333 432.879 400.103 432.873C494.057 432.862 570.434 356.016 569.89 262.059C569.54 201.247 537.222 148.011 488.89 118.3Z" fill="url(#paint0_linear_10440_18247)"/>
<path d="M1.88498 212.13C-15.397 267.915 98.642 305.557 97.5203 316.669C96.3987 327.781 37.4234 315.043 46.7763 346.245C55.4431 375.154 147.46 394.374 218.23 368.61C220.279 367.865 275.894 288.339 244.912 236.14C213.93 183.942 195.87 267.391 179.664 263.765C163.458 260.139 208.539 159.707 177.041 134.583C144.408 108.552 127.104 181.939 111.867 169.099C97.4323 156.929 98.7164 50.6026 55.0606 60.5246C53.3819 60.9117 51.7357 61.4283 50.1368 62.0697H50.117C49.2175 62.4259 48.2987 62.8307 47.3607 63.284C-4.18786 88.0762 79.3261 207.596 57.6819 209.988C36.0376 212.38 10.6429 183.86 1.88498 212.13Z" fill="url(#paint1_linear_10440_18247)"/>
<path d="M220.548 376.851C220.548 376.851 186.675 285.876 147.602 235.669C108.528 185.462 69.4805 172.262 69.4805 172.262C69.4805 172.262 88.9694 194.51 102.417 225.545C115.865 256.58 120.994 290.429 140.802 319.954C170.774 364.634 220.548 376.851 220.548 376.851Z" fill="url(#paint2_linear_10440_18247)"/>
<path d="M210.798 371.131C210.798 371.131 176.548 308.444 142.799 275.986C109.05 243.527 79.2266 238.029 79.2266 238.029C79.2266 238.029 95.7633 252.182 108.824 273.369C121.885 294.556 129.184 318.668 146.72 338.091C173.259 367.471 210.798 371.131 210.798 371.131Z" fill="url(#paint3_linear_10440_18247)"/>
<path d="M352.433 371.017C367.472 369.954 394.796 363.836 405.3 350.125C414.999 337.468 403.921 319.633 411.165 307.161C418.41 294.689 457.476 288.442 468.778 274.187C482.18 257.281 454.43 240.187 468.368 228.84C482.306 217.493 527.965 207.071 532.712 192.412C537.458 177.753 519.506 176.627 536.984 150.153C551.786 127.74 571.58 98.3659 556.227 84.0027C539.865 68.6939 516.931 91.1365 504.453 109.171C488.385 132.399 475.971 105.278 458.939 115.264C443.545 124.292 440.667 180.848 428.698 191.072C416.728 201.296 396.01 191.002 379.138 209.088C362.265 227.175 381.892 259.342 372.814 273.233C363.736 287.125 341.624 279.557 328.633 299.269C315.642 318.981 352.433 371.017 352.433 371.017Z" fill="url(#paint4_linear_10440_18247)"/>
<path d="M362.78 371.934C370.433 376.204 385.678 381.914 395.151 378.586C403.897 375.51 404.178 363.309 411.671 359.544C419.165 355.78 440.159 365.16 450.192 361.821C462.092 357.858 454.028 340.711 464.417 339.626C474.807 338.541 500.341 347.989 507.316 342.366C514.29 336.742 505.912 330.478 522.837 323.161C537.168 316.963 556.143 308.966 553.241 297.092C550.149 284.439 531.85 288.065 520.043 292.871C504.831 299.062 507.42 281.92 495.959 281.363C485.595 280.859 466.21 307.469 457.13 308.63C448.05 309.791 441.246 298.198 427.283 301.633C413.321 305.068 412.639 326.963 403.803 330.835C394.966 334.707 386.615 323.991 374.023 329.45C361.431 334.91 362.78 371.934 362.78 371.934Z" fill="url(#paint5_linear_10440_18247)"/>
<path d="M488.132 44.2373H399.668C394.212 44.2373 388.979 46.4048 385.121 50.2629C381.263 54.121 379.095 59.3537 379.095 64.81C379.095 70.2662 381.263 75.4989 385.121 79.357C388.979 83.2151 394.212 85.3826 399.668 85.3826H438.465L370.586 153.261C347.025 135.778 318.458 126.353 289.118 126.384C213.468 126.384 151.922 187.93 151.922 263.58C151.922 339.23 213.468 400.777 289.118 400.777C364.769 400.777 426.315 339.23 426.315 263.58C426.346 234.361 416.996 205.903 399.642 182.395L467.559 114.478V153.275C467.606 158.701 469.794 163.889 473.647 167.709C477.5 171.529 482.706 173.673 488.132 173.673C493.558 173.673 498.765 171.529 502.618 167.709C506.471 163.889 508.659 158.701 508.706 153.275V64.81C508.706 62.1082 508.174 59.4329 507.14 56.9368C506.106 54.4407 504.59 52.1727 502.68 50.2624C500.769 48.352 498.501 46.8367 496.005 45.8029C493.509 44.7691 490.833 44.2371 488.132 44.2373ZM289.118 356.209C238.047 356.209 196.497 314.658 196.497 263.586C196.497 212.514 238.047 170.965 289.118 170.965C340.19 170.965 381.741 212.514 381.741 263.586C381.741 314.658 340.19 356.209 289.118 356.209Z" fill="url(#paint6_linear_10440_18247)"/>
<path d="M351.113 399.802C345.726 395.9 336.771 400.894 341.182 406.331C345.593 411.767 354.281 407.798 354.281 407.798L351.113 399.802Z" fill="#FED2B2"/>
<path d="M457.675 409.032L461.927 407.673C461.927 407.673 468.815 411.008 470.758 407.973C472.7 404.938 462.419 395.816 459.409 396.641C457.512 397.227 455.858 398.416 454.698 400.027L457.675 409.032Z" fill="#FED2B2"/>
<path d="M365.182 386.711C361.947 388.804 348.823 398.685 348.823 398.685L353.075 408.415C353.075 408.415 368.084 405.038 378.09 400.527L365.182 386.711Z" fill="url(#paint7_linear_10440_18247)"/>
<path d="M399.308 389.687C399.308 390.446 406.871 400.86 406.871 400.86L401.126 403.003L403.811 411.783C403.811 411.783 419.695 411.917 422.388 408.582C425.081 405.246 420.003 392.506 420.003 392.506C420.003 392.506 419.311 384.209 409.998 384.668C400.684 385.126 399.308 389.687 399.308 389.687Z" fill="url(#paint8_linear_10440_18247)"/>
<path d="M418.871 365.057L431.07 369.568C431.07 369.568 442.518 368.25 448.68 371.852C455.35 375.729 458.686 381.366 457.768 390.63C457.385 394.674 454.433 398.768 454.433 398.768C455.784 400.074 456.789 401.697 457.355 403.489C457.921 405.281 458.032 407.186 457.677 409.032C457.677 409.032 444.469 415.386 436.364 413.801C428.26 412.217 426.359 406.722 426.042 403.204L374.604 402.37L383.776 374.437L418.871 365.057Z" fill="url(#paint9_linear_10440_18247)"/>
<path d="M402.36 403.495C396.982 399.593 388.019 404.587 392.429 410.024C396.84 415.46 405.57 411.491 405.57 411.491L402.36 403.495Z" fill="#FED2B2"/>
<path d="M426.051 403.62H426.092C426.202 403.607 426.302 403.552 426.37 403.466C426.439 403.38 426.471 403.271 426.459 403.161C426.459 403.078 425.626 394.465 433.513 386.96C433.553 386.923 433.586 386.877 433.608 386.827C433.63 386.777 433.643 386.723 433.644 386.668C433.647 386.557 433.606 386.449 433.53 386.368C433.454 386.288 433.349 386.241 433.238 386.237C433.127 386.234 433.019 386.275 432.938 386.352C424.75 394.156 425.626 403.161 425.634 403.253C425.646 403.355 425.695 403.448 425.772 403.516C425.849 403.584 425.948 403.621 426.051 403.62Z" fill="url(#paint10_linear_10440_18247)"/>
<path d="M367.474 376.829C361.045 382.524 353.641 400.334 376.37 402.077C399.1 403.82 405.596 390.57 402.002 377.063L367.474 376.829Z" fill="white"/>
<path d="M380.241 403.069C389.046 403.069 395.742 400.568 399.736 395.773C403.73 390.979 404.789 384.283 402.813 376.829C402.766 376.646 402.657 376.484 402.506 376.37C402.354 376.256 402.168 376.198 401.979 376.204L367.442 375.995C367.237 375.993 367.038 376.068 366.884 376.204C363.081 379.539 358.487 387.619 360.688 394.181C361.881 397.708 365.541 402.085 376.272 402.911C377.632 403.027 378.974 403.069 380.241 403.069ZM401.354 377.871C402.98 384.542 401.954 390.504 398.452 394.706C394.241 399.767 386.628 402.027 376.431 401.251C368.66 400.651 363.774 398.025 362.306 393.647C360.463 388.177 364.249 380.965 367.793 377.663L401.354 377.871Z" fill="url(#paint11_linear_10440_18247)"/>
<path d="M354.285 368.009H354.394C354.475 367.994 354.552 367.964 354.622 367.92C354.691 367.876 354.751 367.819 354.798 367.751C354.846 367.684 354.879 367.608 354.897 367.528C354.915 367.447 354.917 367.364 354.902 367.283C354.002 362.347 356.078 359.629 356.103 359.604C356.156 359.531 356.194 359.449 356.214 359.361C356.234 359.274 356.236 359.183 356.22 359.095L354.51 350.398C354.472 350.242 354.375 350.107 354.239 350.021C354.103 349.934 353.94 349.904 353.782 349.935C353.624 349.966 353.485 350.056 353.392 350.188C353.299 350.319 353.261 350.481 353.285 350.64L354.952 359.078C354.402 359.912 352.826 362.831 353.676 367.508C353.705 367.649 353.781 367.775 353.892 367.866C354.003 367.957 354.142 368.008 354.285 368.009Z" fill="#5D5D5D"/>
<path d="M394.867 311.259C377.198 311.209 361.198 315.712 354.477 330.337C349.541 341.076 355.094 357.311 355.094 357.311C355.094 357.311 349.482 365.29 358.738 373.153C367.993 381.016 390.723 381.491 402.205 378.281C415.988 374.454 420.323 366.108 423.492 359.904C426.66 353.7 428.069 336.349 420.598 325.617C414.17 316.437 404.439 311.309 394.867 311.259Z" fill="#FED2B2"/>
<path d="M419.08 355.818C422.765 351.699 429.086 352.808 429.019 360.879C428.952 368.95 420.272 375.354 414.652 371.794C412.351 370.334 419.08 355.818 419.08 355.818Z" fill="#FED2B2"/>
<path d="M353.926 350.499C349.849 348.581 346.422 353.7 347.831 359.212C349.24 364.723 354.318 367.375 354.318 367.375L356.895 358.745L353.926 350.499Z" fill="#FED2B2"/>
<path d="M385.133 359.994H385.3C385.379 359.973 385.454 359.936 385.518 359.886C385.583 359.836 385.638 359.773 385.678 359.702C385.718 359.63 385.744 359.551 385.754 359.47C385.763 359.388 385.756 359.306 385.734 359.227C385.692 359.085 384.758 355.792 381.831 355.567C380.222 355.433 378.788 357.976 378.496 358.477C378.426 358.623 378.414 358.79 378.462 358.944C378.51 359.099 378.614 359.23 378.755 359.31C378.9 359.382 379.068 359.396 379.223 359.348C379.378 359.3 379.509 359.194 379.588 359.052C380.172 357.951 381.214 356.776 381.698 356.801C383.758 356.959 384.491 359.511 384.491 359.544C384.534 359.679 384.619 359.797 384.736 359.878C384.852 359.96 384.992 360.001 385.133 359.994Z" fill="#5D5D5D"/>
<path d="M383.25 370.626C389.087 370.626 391.113 364.281 391.13 364.214C391.161 364.134 391.175 364.048 391.171 363.962C391.168 363.877 391.147 363.792 391.109 363.715C391.072 363.638 391.019 363.569 390.954 363.513C390.889 363.457 390.813 363.415 390.73 363.39C390.648 363.365 390.562 363.357 390.477 363.366C390.391 363.376 390.309 363.403 390.234 363.446C390.16 363.489 390.095 363.547 390.044 363.616C389.993 363.685 389.957 363.763 389.937 363.847C389.862 364.072 388.17 369.375 383.267 369.375H383.133C377.622 369.275 376.038 363.539 376.021 363.464C376 363.384 375.963 363.31 375.913 363.244C375.863 363.179 375.8 363.125 375.729 363.083C375.658 363.042 375.579 363.016 375.497 363.005C375.416 362.995 375.333 363 375.254 363.022C375.175 363.042 375.1 363.078 375.035 363.127C374.97 363.176 374.915 363.238 374.874 363.309C374.833 363.379 374.806 363.457 374.796 363.538C374.785 363.619 374.79 363.702 374.812 363.78C374.812 363.847 376.663 370.501 383.15 370.626H383.25Z" fill="#5D5D5D"/>
<path d="M367.323 350.34C367.661 349.803 368.145 349.374 368.718 349.102C369.291 348.83 369.929 348.727 370.558 348.806C373.06 349.031 374.302 351.632 374.227 354.092C374.152 356.368 372.968 358.703 370.5 358.753H370.417C369.768 358.734 369.137 358.535 368.594 358.178C368.051 357.822 367.617 357.323 367.34 356.735C366.807 355.754 366.526 354.656 366.523 353.54C366.52 352.423 366.795 351.324 367.323 350.34Z" fill="#5D5D5D"/>
<path d="M395.792 350.239C398.294 350.465 399.544 353.066 399.461 355.526C399.394 357.81 398.21 360.137 395.742 360.195H395.659C395.009 360.174 394.377 359.975 393.833 359.619C393.289 359.263 392.853 358.764 392.574 358.177C392.046 357.193 391.77 356.093 391.77 354.976C391.77 353.858 392.046 352.758 392.574 351.774C392.91 351.24 393.391 350.812 393.961 350.54C394.53 350.269 395.165 350.164 395.792 350.239Z" fill="#5D5D5D"/>
<path d="M351.683 318.547C351.683 318.547 360.538 330.945 380.132 329.236C399.727 327.527 403.104 318.697 398.86 310.659C395.958 305.181 386.061 302.221 378.365 307.324C368.251 314.111 356.986 319.189 351.683 318.547Z" fill="#5D5D5D"/>
<mask id="mask0_10440_18247" style="mask-type:luminance" maskUnits="userSpaceOnUse" x="351" y="304" width="50" height="26">
<path d="M351.683 318.546C351.683 318.546 360.538 330.944 380.132 329.235C399.727 327.526 403.104 318.696 398.86 310.658C395.958 305.18 386.061 302.22 378.365 307.323C368.251 314.11 356.986 319.188 351.683 318.546Z" fill="white"/>
</mask>
<g mask="url(#mask0_10440_18247)">
<path d="M374.849 325.108C379.438 325.151 383.985 324.222 388.19 322.382C388.292 322.337 388.372 322.254 388.412 322.151C388.453 322.048 388.451 321.933 388.407 321.831C388.362 321.729 388.28 321.649 388.176 321.609C388.073 321.568 387.958 321.57 387.856 321.614C371.038 329.119 352.052 318.279 351.861 318.187C351.814 318.159 351.762 318.141 351.708 318.133C351.653 318.125 351.598 318.129 351.545 318.143C351.493 318.157 351.443 318.181 351.4 318.214C351.356 318.248 351.32 318.29 351.294 318.338C351.239 318.434 351.223 318.548 351.251 318.656C351.279 318.763 351.348 318.856 351.444 318.913C351.619 318.996 362.308 325.108 374.849 325.108Z" fill="#B1833B"/>
<path d="M360.256 319.58C378.083 319.58 389.439 311.309 389.564 311.242C389.654 311.176 389.713 311.077 389.73 310.967C389.746 310.856 389.718 310.744 389.652 310.654C389.585 310.565 389.486 310.505 389.376 310.489C389.266 310.473 389.154 310.501 389.064 310.567C388.914 310.684 373.555 321.857 350.483 317.938C350.375 317.921 350.265 317.947 350.176 318.011C350.087 318.075 350.027 318.172 350.008 318.28C349.997 318.334 349.998 318.39 350.009 318.444C350.021 318.498 350.043 318.55 350.075 318.595C350.107 318.64 350.148 318.678 350.195 318.707C350.243 318.736 350.295 318.755 350.35 318.763C353.623 319.314 356.937 319.588 360.256 319.58Z" fill="#B1833B"/>
</g>
<path d="M402.362 403.912C402.426 403.915 402.489 403.901 402.546 403.87L408.199 401.052C408.296 401.005 408.37 400.922 408.406 400.82C408.442 400.719 408.437 400.607 408.391 400.51L405.197 393.189C405.146 393.1 405.064 393.033 404.966 393.001C404.868 392.969 404.762 392.974 404.668 393.016C404.574 393.057 404.499 393.132 404.456 393.225C404.414 393.319 404.408 393.425 404.438 393.523L407.474 400.527L402.179 403.17C402.129 403.194 402.085 403.227 402.049 403.268C402.013 403.309 401.985 403.357 401.967 403.409C401.949 403.461 401.942 403.516 401.945 403.571C401.949 403.626 401.963 403.679 401.987 403.728C402.028 403.789 402.085 403.837 402.151 403.869C402.216 403.901 402.289 403.916 402.362 403.912Z" fill="url(#paint12_linear_10440_18247)"/>
<path d="M422.831 402.77H422.923C422.976 402.759 423.027 402.738 423.072 402.707C423.117 402.676 423.155 402.637 423.185 402.591C423.214 402.545 423.234 402.494 423.244 402.44C423.253 402.386 423.252 402.331 423.24 402.278L419.838 385.894C419.828 385.84 419.807 385.788 419.777 385.742C419.746 385.696 419.707 385.657 419.661 385.626C419.615 385.596 419.563 385.575 419.509 385.565C419.455 385.555 419.399 385.556 419.346 385.569C419.292 385.58 419.241 385.601 419.196 385.632C419.15 385.662 419.111 385.702 419.081 385.747C419.051 385.793 419.03 385.844 419.02 385.898C419.009 385.952 419.01 386.007 419.021 386.061L422.422 402.445C422.443 402.538 422.495 402.62 422.57 402.68C422.644 402.739 422.736 402.771 422.831 402.77Z" fill="url(#paint13_linear_10440_18247)"/>
<path d="M316.381 104.351C319.512 110.012 324.136 125.493 315.965 130.799C307.794 136.105 303.71 131.038 301.402 123.297L309.215 104.078L316.381 104.351Z" fill="url(#paint14_linear_10440_18247)"/>
<path d="M278.756 90.9237C272.565 93.2632 258.636 102.131 261.285 111.302C263.934 120.472 270.464 119.186 277.429 114.752L284.415 95.2416L278.756 90.9237Z" fill="url(#paint15_linear_10440_18247)"/>
<path d="M312.701 103.221C315.629 111.904 309.521 142.939 304.122 150.433C298.722 157.928 283.656 161.46 274.068 157.444C264.481 153.427 253.851 145.022 254.97 135.445C256.089 125.867 270.287 94.0366 280.892 92.5007C286.953 91.5813 312.701 103.221 312.701 103.221Z" fill="url(#paint16_linear_10440_18247)"/>
<path d="M305.978 138.287C315.096 147.332 306.291 156.688 289.181 164.892C289.081 165.949 288.595 166.932 287.817 167.654C287.038 168.376 286.021 168.786 284.959 168.806C280.892 169.215 272.975 161.569 274.07 157.444C275.165 153.319 281.125 156.237 281.125 156.237C281.125 156.237 295.139 127.521 305.978 138.287Z" fill="url(#paint17_linear_10440_18247)"/>
<path d="M259.579 121.745C246.563 122.905 246.962 135.538 254.467 152.521C253.834 153.355 253.54 154.399 253.645 155.441C253.75 156.484 254.246 157.448 255.033 158.139C257.844 160.999 269.053 160.153 270.948 156.332C272.843 152.511 266.395 150.983 266.395 150.983C266.395 150.983 275.058 120.357 259.579 121.745Z" fill="url(#paint18_linear_10440_18247)"/>
<path d="M311.212 105.369C313.389 112.655 308.036 136.082 286.728 130.252C265.42 124.422 272.574 99.7822 281.566 93.3994L311.212 105.369Z" fill="white"/>
<path d="M295.072 132.011C292.179 132.259 289.266 131.97 286.478 131.159C276.273 128.367 273.059 121.693 272.152 116.587C270.495 107.205 275.407 96.6359 280.999 92.6401C281.132 92.5443 281.288 92.4853 281.451 92.4689C281.614 92.4525 281.778 92.4793 281.928 92.5466L311.573 104.507C311.702 104.561 311.817 104.643 311.911 104.747C312.004 104.851 312.073 104.975 312.112 105.11C313.54 109.984 311.852 120.614 305.738 126.885C302.91 129.815 299.126 131.633 295.072 132.011ZM281.712 94.51C276.815 98.3235 272.524 107.986 274 116.308C274.81 120.916 277.717 126.871 286.968 129.402C294.163 131.37 300.029 130.095 304.409 125.612C309.792 120.098 311.522 110.628 310.448 106.102L281.712 94.51Z" fill="url(#paint19_linear_10440_18247)"/>
<path d="M321.036 34.0642C338.634 40.314 347.216 51.8703 347.437 66.5567C347.667 82.0864 338.02 90.627 338.02 90.627C338.02 90.627 335.907 117.734 296.864 103.914C256.906 89.7732 273.604 70.7581 273.604 70.7581C273.604 70.7581 270.108 55.6882 280.615 44.2281C293.466 30.2341 307.651 29.3228 321.036 34.0642Z" fill="#FED2B2"/>
<path d="M347.446 40.1965C347.446 40.1965 336.798 52.0272 321.402 48.7359C306.006 45.4445 304.263 27.5624 315.796 25.0888C330.048 22.0415 336.41 42.3856 347.446 40.1965Z" fill="#5D5D5D"/>
<mask id="mask1_10440_18247" style="mask-type:luminance" maskUnits="userSpaceOnUse" x="308" y="24" width="40" height="26">
<path d="M347.446 40.1965C347.446 40.1965 336.798 52.0272 321.402 48.7359C306.006 45.4445 304.263 27.5624 315.796 25.0888C330.048 22.0415 336.41 42.3856 347.446 40.1965Z" fill="white"/>
</mask>
<g mask="url(#mask1_10440_18247)">
<path d="M338.78 42.7478C322.993 44.3361 317.366 31.8632 317.305 31.7193C317.279 31.6635 317.265 31.603 317.262 31.5414C317.26 31.4799 317.271 31.4185 317.293 31.3611C317.315 31.3037 317.349 31.2513 317.392 31.2072C317.435 31.1631 317.486 31.1281 317.543 31.1044C317.658 31.0573 317.786 31.0569 317.901 31.1031C318.016 31.1494 318.109 31.2386 318.159 31.352C318.451 32.0168 325.515 47.6844 347.306 39.7606C347.365 39.7392 347.429 39.7297 347.492 39.7327C347.555 39.7357 347.617 39.7511 347.674 39.778C347.731 39.805 347.782 39.8429 347.825 39.8896C347.867 39.9363 347.9 39.991 347.921 40.0504C347.943 40.1099 347.952 40.173 347.949 40.236C347.946 40.2991 347.931 40.361 347.904 40.4182C347.877 40.4753 347.839 40.5266 347.792 40.5691C347.746 40.6116 347.691 40.6445 347.632 40.6659C344.779 41.7239 341.805 42.4232 338.78 42.7478Z" fill="#B1833B"/>
</g>
<path d="M343.497 80.9391C350.056 81.8927 352.805 87.9574 348.55 93.873C345.087 98.7053 334.443 97.9845 334.443 97.9845L335.183 89.2988L343.497 80.9391Z" fill="#FED2B2"/>
<path d="M275.467 59.2677C269.868 55.7318 263.83 58.5624 263.208 65.8104C262.696 71.7247 271.268 78.1323 271.268 78.1323L276.343 71.0553L275.467 59.2677Z" fill="#FED2B2"/>
<path d="M309.242 80.7837L309.167 80.7912C308.983 80.7885 308.807 80.714 308.676 80.5835C308.546 80.453 308.471 80.2768 308.469 80.0923C308.463 79.2955 308.156 76.9813 306.97 76.6691C305.785 76.3568 304.057 77.7314 303.551 78.2982C303.495 78.3807 303.421 78.4501 303.336 78.5019C303.251 78.5537 303.155 78.5867 303.056 78.5986C302.957 78.6105 302.857 78.601 302.762 78.5709C302.666 78.5408 302.579 78.4907 302.505 78.4239C302.43 78.3572 302.371 78.2753 302.331 78.1838C302.291 78.0924 302.271 77.9934 302.273 77.8936C302.274 77.7938 302.297 77.6955 302.34 77.6052C302.382 77.5149 302.443 77.4348 302.52 77.3701C302.621 77.2568 304.924 74.6987 307.331 75.3102C309.737 75.9217 309.886 79.9122 309.884 80.0812C309.885 80.2577 309.82 80.4282 309.701 80.5584C309.581 80.6887 309.418 80.7692 309.242 80.7837Z" fill="#5D5D5D"/>
<path d="M320.528 84.3291C319.698 84.409 318.861 84.2838 318.09 83.9646C317.493 83.746 316.946 83.4076 316.484 82.9701C316.023 82.5326 315.655 82.0054 315.404 81.4207C314.288 78.7188 315.735 75.3839 315.721 75.2446C315.769 75.1319 315.84 75.0298 315.927 74.9443C316.015 74.8587 316.119 74.7912 316.233 74.7458C316.347 74.7004 316.469 74.6778 316.591 74.6795C316.714 74.6811 316.835 74.7069 316.948 74.7553C317.173 74.8533 317.35 75.0359 317.442 75.2637C317.533 75.4916 317.531 75.7462 317.436 75.9726C317.436 75.9726 316.291 78.7613 317.095 80.6971C317.247 81.0612 317.474 81.389 317.762 81.6591C318.049 81.9293 318.39 82.1356 318.763 82.2647C322.203 83.6353 324.613 78.9652 324.715 78.7673C324.77 78.6577 324.846 78.56 324.938 78.4797C325.031 78.3994 325.139 78.3382 325.255 78.2995C325.371 78.2608 325.494 78.2453 325.616 78.2541C325.739 78.2629 325.858 78.2956 325.968 78.3505C326.077 78.4054 326.175 78.4813 326.255 78.5739C326.335 78.6666 326.397 78.7741 326.435 78.8905C326.474 79.0068 326.49 79.1296 326.481 79.2519C326.472 79.3741 326.439 79.4935 326.384 79.6031C325.525 81.3217 323.37 84.0432 320.528 84.3291Z" fill="#5D5D5D"/>
<path d="M293.618 75.2082C292.788 75.2858 291.951 75.1608 291.18 74.8438C290.581 74.6264 290.033 74.2886 289.569 73.8512C289.106 73.4138 288.737 72.8862 288.485 72.3008C287.369 69.5989 288.816 66.264 288.803 66.134C288.904 65.9048 289.092 65.7254 289.326 65.635C289.56 65.5446 289.82 65.5508 290.049 65.6521C290.278 65.7535 290.457 65.9417 290.548 66.1754C290.638 66.409 290.632 66.669 290.531 66.8982C290.531 66.8982 289.376 69.6878 290.19 71.6227C290.342 71.9842 290.568 72.3098 290.853 72.5783C291.139 72.8469 291.478 73.0526 291.848 73.1819C295.308 74.5692 297.78 69.7709 297.799 69.6846C297.854 69.5749 297.93 69.4772 298.023 69.3969C298.116 69.3166 298.223 69.2554 298.339 69.2167C298.456 69.178 298.579 69.1626 298.701 69.1713C298.823 69.1801 298.942 69.2129 299.052 69.2677C299.162 69.3226 299.259 69.3985 299.34 69.4912C299.42 69.5838 299.481 69.6914 299.52 69.8077C299.559 69.924 299.574 70.0468 299.565 70.1691C299.557 70.2914 299.524 70.4107 299.469 70.5203C298.613 72.173 296.46 74.9223 293.618 75.2082Z" fill="#5D5D5D"/>
<path d="M305.724 86.7468C305.61 86.1093 305.322 85.5159 304.891 85.0326C304.459 84.5493 303.903 84.1952 303.282 84.0096C300.279 83.1579 297.502 85.8575 296.556 88.945C295.609 92.0326 296.587 94.5702 299.074 95.333C299.623 95.5233 300.206 95.5926 300.783 95.5363C301.751 95.4288 302.658 95.0083 303.364 94.3386C304.345 93.3598 305.072 92.1571 305.483 90.8344C305.894 89.5117 305.977 88.1088 305.724 86.7468Z" fill="#C83C28"/>
<path d="M271.002 156.796L270.872 156.809C270.811 156.798 270.752 156.775 270.7 156.741C270.648 156.707 270.603 156.663 270.568 156.611C270.533 156.559 270.509 156.501 270.497 156.44C270.484 156.379 270.485 156.316 270.497 156.255C270.618 155.787 270.638 155.298 270.556 154.821C270.474 154.345 270.292 153.89 270.022 153.489C269.071 152.394 267.766 151.665 266.335 151.431C266.269 151.421 266.206 151.397 266.151 151.36C266.095 151.324 266.048 151.275 266.013 151.219C265.978 151.163 265.956 151.099 265.949 151.033C265.943 150.967 265.951 150.9 265.975 150.838C265.965 150.736 269.01 139.792 267.198 129.243C266.916 127.375 266.007 125.659 264.62 124.376C263.232 123.094 261.45 122.322 259.565 122.188C259.442 122.179 259.327 122.124 259.245 122.032C259.162 121.941 259.118 121.821 259.122 121.698C259.125 121.636 259.14 121.576 259.166 121.521C259.193 121.465 259.23 121.416 259.275 121.374C259.321 121.333 259.374 121.301 259.432 121.281C259.489 121.26 259.551 121.251 259.612 121.254C259.686 121.247 266.854 121.717 268.12 129.085C269.75 138.573 267.554 148.353 266.993 150.605C268.493 150.928 269.838 151.756 270.803 152.951C271.142 153.451 271.374 154.017 271.482 154.612C271.59 155.207 271.573 155.817 271.432 156.405C271.415 156.509 271.363 156.605 271.285 156.675C271.207 156.746 271.107 156.789 271.002 156.796Z" fill="url(#paint20_linear_10440_18247)"/>
<path d="M274.116 157.908L273.958 157.924C273.838 157.893 273.735 157.817 273.672 157.711C273.608 157.604 273.59 157.477 273.62 157.357C273.718 156.851 273.935 156.376 274.253 155.971C274.571 155.565 274.981 155.241 275.449 155.025C277.243 154.207 279.843 155.155 280.884 155.623C282.037 152.815 288.232 138.777 297.529 136.454C304.172 134.791 308.313 140.059 308.351 140.055C308.426 140.153 308.46 140.277 308.444 140.4C308.429 140.523 308.365 140.635 308.266 140.711C308.168 140.787 308.044 140.82 307.921 140.805C307.798 140.789 307.687 140.725 307.611 140.627C306.438 139.213 304.893 138.157 303.15 137.578C301.407 136.998 299.536 136.92 297.751 137.351C288.097 139.766 281.632 156.251 281.564 156.417C281.541 156.48 281.505 156.536 281.458 156.583C281.411 156.63 281.354 156.666 281.292 156.689C281.23 156.712 281.165 156.722 281.1 156.717C281.034 156.712 280.971 156.693 280.914 156.661C280.914 156.661 277.727 155.012 275.825 155.869C275.488 156.03 275.194 156.269 274.968 156.566C274.742 156.862 274.59 157.209 274.524 157.576C274.497 157.666 274.444 157.746 274.371 157.805C274.298 157.864 274.21 157.9 274.116 157.908Z" fill="url(#paint21_linear_10440_18247)"/>
<path d="M309.819 133.135C309.762 133.142 309.705 133.137 309.651 133.122C309.596 133.107 309.545 133.08 309.5 133.045C306.021 130.534 306.016 125.732 306.023 125.525C306.022 125.463 306.033 125.402 306.056 125.344C306.079 125.287 306.114 125.235 306.158 125.192C306.202 125.149 306.254 125.115 306.312 125.093C306.37 125.071 306.431 125.062 306.493 125.065C306.616 125.066 306.733 125.117 306.82 125.205C306.906 125.293 306.954 125.411 306.953 125.534C306.953 125.534 306.968 130.064 310.044 132.296C310.119 132.352 310.176 132.429 310.207 132.518C310.238 132.606 310.241 132.702 310.217 132.792C310.193 132.883 310.142 132.964 310.071 133.025C310 133.086 309.912 133.125 309.819 133.135Z" fill="url(#paint22_linear_10440_18247)"/>
<path d="M266.947 116.492C265.667 116.632 264.374 116.4 263.222 115.825C263.166 115.799 263.116 115.762 263.074 115.716C263.033 115.67 263.002 115.616 262.982 115.558C262.962 115.499 262.954 115.437 262.959 115.376C262.963 115.314 262.98 115.254 263.009 115.199C263.065 115.09 263.162 115.006 263.279 114.966C263.395 114.927 263.523 114.934 263.635 114.986C267.871 117.093 272.321 112.94 272.373 112.888C272.464 112.807 272.583 112.765 272.705 112.768C272.827 112.771 272.944 112.821 273.031 112.906C273.116 112.996 273.161 113.116 273.158 113.239C273.155 113.362 273.102 113.479 273.013 113.564C271.328 115.123 269.216 116.142 266.947 116.492Z" fill="url(#paint23_linear_10440_18247)"/>
<path d="M307.669 109.215C317.705 112.192 311.638 128.252 303.116 125.123C294.593 121.994 298.783 106.582 307.669 109.215Z" fill="#FED2B2"/>
<path d="M282.126 100.096C272.49 96.0659 266.316 112.081 274.897 115.044C283.478 118.008 290.658 103.684 282.126 100.096Z" fill="#FED2B2"/>
<path d="M179.338 373.293C179.338 373.293 185.051 365.134 187.68 368.696C190.31 372.258 186.23 385.548 183.123 386.409C180.015 387.269 176.039 384.138 176.039 384.138L179.338 373.293Z" fill="#FED2B2"/>
<path d="M175.592 384.584C175.592 384.584 144.788 381.261 131.259 381.165C117.729 381.07 90.4385 383.556 90.4385 383.556L88.1836 372.233L104.311 365.915L117.426 330.059H150.031L161.529 366.711L179.855 373.086L175.592 384.584Z" fill="url(#paint24_linear_10440_18247)"/>
<path d="M88.1837 372.209C88.1837 372.209 82.6062 363.962 79.905 367.492C77.2039 371.022 81.1161 384.352 84.2157 385.26C87.3152 386.169 90.4387 383.531 90.4387 383.531L88.1837 372.209Z" fill="#FED2B2"/>
<path d="M148.325 382.839C151.887 381.086 160.683 360.083 159.48 346.322C158.277 332.561 150.245 330.721 150.245 330.721L141.48 375.461L148.325 382.839Z" fill="url(#paint25_linear_10440_18247)"/>
<path d="M139.733 374.965C139.699 374.972 139.664 374.972 139.63 374.965C139.529 374.939 139.442 374.874 139.389 374.785C139.335 374.695 139.319 374.589 139.343 374.487L145.279 351.46C145.292 351.409 145.315 351.361 145.346 351.319C145.378 351.277 145.417 351.242 145.463 351.215C145.508 351.189 145.558 351.171 145.61 351.164C145.662 351.157 145.714 351.16 145.765 351.173C145.867 351.201 145.953 351.267 146.007 351.358C146.06 351.449 146.076 351.557 146.052 351.659L140.116 374.686C140.091 374.768 140.041 374.84 139.972 374.89C139.903 374.941 139.819 374.967 139.733 374.965Z" fill="url(#paint26_linear_10440_18247)"/>
<path d="M150.333 381.252C150.263 381.25 150.194 381.229 150.134 381.192C150.074 381.155 150.025 381.103 149.991 381.041C149.957 380.979 149.94 380.909 149.941 380.839C149.943 380.769 149.962 380.7 149.998 380.639C154.397 373.707 158.046 359.659 158.086 359.516C158.114 359.415 158.181 359.329 158.272 359.276C158.363 359.224 158.47 359.21 158.572 359.237C158.622 359.249 158.67 359.271 158.712 359.302C158.754 359.332 158.789 359.371 158.816 359.416C158.842 359.46 158.86 359.51 158.867 359.561C158.875 359.612 158.872 359.665 158.859 359.715C158.859 359.858 155.138 374.057 150.676 381.069C150.638 381.126 150.587 381.172 150.528 381.204C150.468 381.236 150.401 381.253 150.333 381.252Z" fill="url(#paint27_linear_10440_18247)"/>
<path d="M140.174 375.46C140.174 375.46 132.166 378.066 134.796 382.52C137.425 386.974 146.309 385.707 149.895 380.846L140.174 375.46Z" fill="#FED2B2"/>
<path d="M119.418 382.632C115.88 380.831 107.386 359.7 108.812 345.979C110.238 332.259 118.238 330.521 118.238 330.521L126.35 375.341L119.418 382.632Z" fill="url(#paint28_linear_10440_18247)"/>
<path d="M128.127 374.887C128.038 374.886 127.951 374.856 127.881 374.802C127.81 374.747 127.759 374.67 127.737 374.584L122.159 351.477C122.135 351.373 122.152 351.265 122.207 351.174C122.262 351.083 122.351 351.017 122.454 350.991C122.556 350.967 122.664 350.985 122.754 351.04C122.843 351.095 122.907 351.183 122.932 351.286L128.51 374.393C128.534 374.495 128.516 374.603 128.461 374.693C128.406 374.782 128.317 374.846 128.215 374.871L128.127 374.887Z" fill="url(#paint29_linear_10440_18247)"/>
<path d="M117.442 381.022C117.374 381.021 117.306 381.003 117.246 380.97C117.186 380.937 117.136 380.888 117.1 380.83C112.733 373.731 109.251 359.508 109.219 359.365C109.206 359.314 109.204 359.261 109.211 359.209C109.219 359.157 109.238 359.108 109.265 359.063C109.293 359.018 109.329 358.98 109.372 358.949C109.414 358.919 109.463 358.898 109.514 358.886C109.616 358.862 109.724 358.88 109.814 358.935C109.903 358.991 109.967 359.079 109.992 359.181C109.992 359.317 113.474 373.42 117.777 380.408C117.805 380.452 117.823 380.502 117.832 380.554C117.841 380.605 117.839 380.658 117.827 380.709C117.815 380.76 117.794 380.809 117.763 380.851C117.733 380.894 117.694 380.93 117.649 380.958C117.587 380.997 117.516 381.019 117.442 381.022Z" fill="url(#paint30_linear_10440_18247)"/>
<path d="M127.703 375.341C127.703 375.341 135.671 378.058 132.97 382.472C130.269 386.886 121.416 385.492 117.902 380.592L127.703 375.341Z" fill="#FED2B2"/>
<path d="M149.6 328.729C154.205 335.191 160.261 357.859 133.664 357.668C107.067 357.477 115.64 334.035 119.003 329.621L149.6 328.729Z" fill="white"/>
<path d="M133.98 358.464H133.638C124.395 358.401 118.339 355.588 115.654 350.114C111.949 342.568 116.02 332.194 118.347 329.134C118.419 329.04 118.512 328.963 118.618 328.909C118.725 328.855 118.841 328.826 118.96 328.823L149.573 327.931C149.704 327.928 149.833 327.956 149.95 328.015C150.067 328.073 150.167 328.159 150.243 328.266C153.43 332.76 156.442 342.759 152.705 349.954C149.773 355.604 143.47 358.464 133.98 358.464ZM119.399 330.409C117.287 333.493 113.821 342.815 117.08 349.405C119.47 354.297 125.048 356.815 133.645 356.871H133.98C142.833 356.871 148.657 354.297 151.295 349.221C154.737 342.584 151.717 333.381 149.183 329.54L119.399 330.409Z" fill="url(#paint31_linear_10440_18247)"/>
<path d="M137.155 273.669C152.589 274.824 161.114 283.095 165.25 295.286C166.475 298.786 166.897 302.518 166.483 306.204C166.069 309.889 164.831 313.435 162.859 316.576C162.859 316.576 170.031 334.01 133.975 333.915C97.9203 333.819 107.044 314.457 107.044 314.457C105.087 310.989 104.054 307.077 104.043 303.095C104.032 299.113 105.043 295.195 106.98 291.716C114.581 277.94 129.832 273.119 137.155 273.669Z" fill="#FED2B2"/>
<path d="M106.424 304.274C101.181 302.68 96.9577 306.202 98.0094 312.146C98.87 316.991 107.093 320.258 107.093 320.258L109.643 313.501L106.424 304.274Z" fill="#FED2B2"/>
<path d="M162.701 304.274C167.944 302.68 172.167 306.202 171.116 312.146C170.255 316.991 162.032 320.258 162.032 320.258L159.482 313.501L162.701 304.274Z" fill="#FED2B2"/>
<path d="M138.155 316.099C138.024 316.099 137.898 316.055 137.794 315.976C137.691 315.897 137.616 315.786 137.581 315.661C137.406 315.031 136.697 313.27 135.677 313.27C134.561 313.27 133.589 314.736 133.286 315.302C133.211 315.436 133.087 315.535 132.94 315.58C132.794 315.625 132.636 315.612 132.498 315.543C132.361 315.475 132.256 315.356 132.203 315.212C132.151 315.068 132.157 314.909 132.218 314.768C132.274 314.657 133.573 312.099 135.645 312.075C137.796 312.075 138.665 315.262 138.704 315.366C138.725 315.441 138.73 315.52 138.72 315.597C138.71 315.675 138.684 315.749 138.645 315.817C138.606 315.884 138.553 315.943 138.491 315.99C138.429 316.037 138.358 316.072 138.282 316.091C138.24 316.099 138.197 316.101 138.155 316.099Z" fill="#5D5D5D"/>
<path d="M149.88 308.521C149.579 308.044 149.147 307.664 148.635 307.427C148.124 307.189 147.554 307.104 146.996 307.182C144.773 307.398 143.697 309.708 143.809 311.884C143.888 313.899 144.956 315.955 147.139 315.987H147.187C147.767 315.971 148.331 315.794 148.817 315.476C149.302 315.158 149.69 314.712 149.936 314.186C150.402 313.313 150.642 312.337 150.632 311.347C150.622 310.357 150.364 309.385 149.88 308.521Z" fill="#5D5D5D"/>
<path d="M123.648 307.724C121.425 307.939 120.349 310.25 120.461 312.425C120.541 314.441 121.6 316.497 123.792 316.529H123.839C124.419 316.513 124.982 316.336 125.466 316.018C125.95 315.7 126.336 315.253 126.58 314.728C127.055 313.859 127.304 312.885 127.304 311.895C127.304 310.905 127.055 309.931 126.58 309.063C126.276 308.577 125.836 308.192 125.315 307.954C124.794 307.716 124.214 307.636 123.648 307.724Z" fill="#5D5D5D"/>
<path d="M134.955 325.883C129.807 325.883 127.999 320.305 127.983 320.258C127.958 320.183 127.949 320.104 127.955 320.025C127.961 319.947 127.984 319.871 128.02 319.801C128.056 319.731 128.106 319.669 128.167 319.619C128.228 319.569 128.298 319.531 128.373 319.509C128.524 319.461 128.688 319.476 128.828 319.549C128.969 319.622 129.074 319.748 129.122 319.899C129.186 320.09 130.716 324.68 134.955 324.68H135.106C139.887 324.552 141.233 319.668 141.289 319.461C141.334 319.313 141.434 319.188 141.569 319.112C141.704 319.037 141.863 319.016 142.013 319.056C142.162 319.095 142.291 319.191 142.371 319.323C142.452 319.455 142.478 319.613 142.445 319.764C142.445 319.819 140.851 325.724 135.138 325.875L134.955 325.883Z" fill="#5D5D5D"/>
<path d="M157.102 275.668C165.088 278.773 168.237 283.523 169.082 289.417C170.41 298.732 165.529 309.824 165.529 309.824L157.102 275.668Z" fill="#5D5D5D"/>
<path d="M170.21 271.528C170.21 271.528 164.514 283.707 147.256 285.314C129.998 286.922 121.872 280.176 124.272 272.563C125.909 267.351 137.816 262.866 145.296 266.082C155.154 270.324 165.71 272.923 170.21 271.528Z" fill="#5D5D5D"/>
<mask id="mask2_10440_18247" style="mask-type:luminance" maskUnits="userSpaceOnUse" x="123" y="265" width="48" height="21">
<path d="M170.21 271.528C170.21 271.528 164.514 283.707 147.256 285.314C129.998 286.922 121.872 280.176 124.272 272.563C125.909 267.351 137.816 262.866 145.296 266.082C155.154 270.324 165.71 272.923 170.21 271.528Z" fill="white"/>
</mask>
<g mask="url(#mask2_10440_18247)">
<path d="M141.585 282.752C139.427 282.764 137.276 282.518 135.177 282.018C135.083 281.992 135.004 281.931 134.954 281.848C134.905 281.764 134.89 281.665 134.913 281.57C134.935 281.476 134.994 281.395 135.077 281.344C135.159 281.293 135.259 281.277 135.353 281.299C151.106 285.145 165.824 272.732 165.971 272.6C166.047 272.538 166.143 272.508 166.241 272.516C166.338 272.524 166.428 272.57 166.492 272.644C166.524 272.68 166.548 272.723 166.563 272.768C166.577 272.814 166.583 272.862 166.579 272.91C166.575 272.958 166.561 273.005 166.539 273.047C166.516 273.09 166.485 273.128 166.448 273.158C166.323 273.246 155.077 282.752 141.585 282.752Z" fill="#B1833B"/>
<path d="M149.89 275.948C139.334 275.948 132.353 272.593 132.273 272.542C132.185 272.499 132.118 272.423 132.086 272.331C132.055 272.239 132.061 272.138 132.104 272.05C132.147 271.962 132.222 271.895 132.315 271.864C132.407 271.832 132.508 271.838 132.596 271.881C132.742 271.955 147.82 279.222 167.17 272.123C167.215 272.106 167.263 272.097 167.311 272.099C167.359 272.1 167.406 272.111 167.45 272.131C167.494 272.15 167.533 272.179 167.566 272.214C167.599 272.249 167.624 272.291 167.64 272.336C167.673 272.429 167.669 272.531 167.628 272.62C167.587 272.709 167.512 272.779 167.42 272.813C161.806 274.879 155.872 275.94 149.89 275.948Z" fill="#B1833B"/>
</g>
<path d="M126.043 277.437C126.043 277.437 114.511 283.207 106.524 294.32C105.225 296.119 102.531 311.622 102.531 311.622L100.329 307.629C100.329 307.629 94.1112 291.215 102.098 279.683C110.085 268.151 127.372 265.464 134.03 266.822L126.043 277.437Z" fill="#5D5D5D"/>
</g>
<defs>
<linearGradient id="paint0_linear_10440_18247" x1="301.327" y1="0" x2="301.327" y2="443.457" gradientUnits="userSpaceOnUse">
<stop stop-color="#FFE4E4"/>
<stop offset="1" stop-color="#FAF9EB"/>
</linearGradient>
<linearGradient id="paint1_linear_10440_18247" x1="263.225" y1="264.862" x2="-1.56958" y2="196.773" gradientUnits="userSpaceOnUse">
<stop stop-color="#FFE2E4"/>
<stop offset="1" stop-color="#A4B8EA"/>
</linearGradient>
<linearGradient id="paint2_linear_10440_18247" x1="221.874" y1="353.383" x2="83.2092" y2="218.9" gradientUnits="userSpaceOnUse">
<stop stop-color="#FFE2E4"/>
<stop offset="1" stop-color="#A4B8EA"/>
</linearGradient>
<linearGradient id="paint3_linear_10440_18247" x1="76.7237" y1="281.946" x2="213.412" y2="328.885" gradientUnits="userSpaceOnUse">
<stop stop-color="#FFE2E4"/>
<stop offset="1" stop-color="#A4B8EA"/>
</linearGradient>
<linearGradient id="paint4_linear_10440_18247" x1="310.157" y1="280.778" x2="620.553" y2="159.62" gradientUnits="userSpaceOnUse">
<stop stop-color="#FFE2E4"/>
<stop offset="1" stop-color="#A4B8EA"/>
</linearGradient>
<linearGradient id="paint5_linear_10440_18247" x1="338.637" y1="322.967" x2="525.019" y2="336.557" gradientUnits="userSpaceOnUse">
<stop stop-color="#FFE2E4"/>
<stop offset="1" stop-color="#A4B8EA"/>
</linearGradient>
<linearGradient id="paint6_linear_10440_18247" x1="146.584" y1="406.115" x2="503.66" y2="49.0397" gradientUnits="userSpaceOnUse">
<stop stop-color="#7A8FD8"/>
<stop offset="1" stop-color="#435AC2"/>
</linearGradient>
<linearGradient id="paint7_linear_10440_18247" x1="353.737" y1="398.123" x2="369.29" y2="394.169" gradientUnits="userSpaceOnUse">
<stop stop-color="#6B86FF"/>
<stop offset="1" stop-color="#A1AEFF"/>
</linearGradient>
<linearGradient id="paint8_linear_10440_18247" x1="403.315" y1="398.917" x2="416.458" y2="396.738" gradientUnits="userSpaceOnUse">
<stop stop-color="#6B86FF"/>
<stop offset="1" stop-color="#A1AEFF"/>
</linearGradient>
<linearGradient id="paint9_linear_10440_18247" x1="388.591" y1="390.821" x2="431.336" y2="377.117" gradientUnits="userSpaceOnUse">
<stop stop-color="#6B86FF"/>
<stop offset="1" stop-color="#A1AEFF"/>
</linearGradient>
<linearGradient id="paint10_linear_10440_18247" x1="426.953" y1="395.377" x2="431.469" y2="394.984" gradientUnits="userSpaceOnUse">
<stop stop-color="#6B86FF"/>
<stop offset="1" stop-color="#A1AEFF"/>
</linearGradient>
<linearGradient id="paint11_linear_10440_18247" x1="381.949" y1="375.995" x2="381.949" y2="403.069" gradientUnits="userSpaceOnUse">
<stop stop-color="#FFE4E4"/>
<stop offset="1" stop-color="#FAF9EB"/>
</linearGradient>
<linearGradient id="paint12_linear_10440_18247" x1="403.033" y1="398.729" x2="406.657" y2="398.323" gradientUnits="userSpaceOnUse">
<stop stop-color="#6B86FF"/>
<stop offset="1" stop-color="#A1AEFF"/>
</linearGradient>
<linearGradient id="paint13_linear_10440_18247" x1="419.724" y1="394.609" x2="422.116" y2="394.498" gradientUnits="userSpaceOnUse">
<stop stop-color="#6B86FF"/>
<stop offset="1" stop-color="#A1AEFF"/>
</linearGradient>
<linearGradient id="paint14_linear_10440_18247" x1="317.208" y1="118.529" x2="306.282" y2="118.242" gradientUnits="userSpaceOnUse">
<stop stop-color="#6B86FF"/>
<stop offset="1" stop-color="#A1AEFF"/>
</linearGradient>
<linearGradient id="paint15_linear_10440_18247" x1="281.166" y1="104.48" x2="267.417" y2="103.424" gradientUnits="userSpaceOnUse">
<stop stop-color="#6B86FF"/>
<stop offset="1" stop-color="#A1AEFF"/>
</linearGradient>
<linearGradient id="paint16_linear_10440_18247" x1="304.884" y1="125.323" x2="270.83" y2="122.895" gradientUnits="userSpaceOnUse">
<stop stop-color="#6B86FF"/>
<stop offset="1" stop-color="#A1AEFF"/>
</linearGradient>
<linearGradient id="paint17_linear_10440_18247" x1="304.092" y1="152.005" x2="283.909" y2="149.607" gradientUnits="userSpaceOnUse">
<stop stop-color="#6B86FF"/>
<stop offset="1" stop-color="#A1AEFF"/>
</linearGradient>
<linearGradient id="paint18_linear_10440_18247" x1="266.566" y1="141.219" x2="255.357" y2="141.245" gradientUnits="userSpaceOnUse">
<stop stop-color="#6B86FF"/>
<stop offset="1" stop-color="#A1AEFF"/>
</linearGradient>
<linearGradient id="paint19_linear_10440_18247" x1="290.253" y1="91.5833" x2="294.328" y2="132.086" gradientUnits="userSpaceOnUse">
<stop stop-color="#FFE4E4"/>
<stop offset="1" stop-color="#FAF9EB"/>
</linearGradient>
<linearGradient id="paint20_linear_10440_18247" x1="268.469" y1="139.652" x2="263.378" y2="139.925" gradientUnits="userSpaceOnUse">
<stop stop-color="#6B86FF"/>
<stop offset="1" stop-color="#A1AEFF"/>
</linearGradient>
<linearGradient id="paint21_linear_10440_18247" x1="302.87" y1="145.903" x2="284.068" y2="141.217" gradientUnits="userSpaceOnUse">
<stop stop-color="#6B86FF"/>
<stop offset="1" stop-color="#A1AEFF"/>
</linearGradient>
<linearGradient id="paint22_linear_10440_18247" x1="309.293" y1="129.2" x2="307.31" y2="129.242" gradientUnits="userSpaceOnUse">
<stop stop-color="#6B86FF"/>
<stop offset="1" stop-color="#A1AEFF"/>
</linearGradient>
<linearGradient id="paint23_linear_10440_18247" x1="271.542" y1="114.537" x2="267.076" y2="112.336" gradientUnits="userSpaceOnUse">
<stop stop-color="#6B86FF"/>
<stop offset="1" stop-color="#A1AEFF"/>
</linearGradient>
<linearGradient id="paint24_linear_10440_18247" x1="164.465" y1="358.729" x2="117.334" y2="343.789" gradientUnits="userSpaceOnUse">
<stop stop-color="#6B86FF"/>
<stop offset="1" stop-color="#A1AEFF"/>
</linearGradient>
<linearGradient id="paint25_linear_10440_18247" x1="156.552" y1="358.126" x2="146.348" y2="357.457" gradientUnits="userSpaceOnUse">
<stop stop-color="#6B86FF"/>
<stop offset="1" stop-color="#A1AEFF"/>
</linearGradient>
<linearGradient id="paint26_linear_10440_18247" x1="144.933" y1="363.68" x2="141.135" y2="363.478" gradientUnits="userSpaceOnUse">
<stop stop-color="#6B86FF"/>
<stop offset="1" stop-color="#A1AEFF"/>
</linearGradient>
<linearGradient id="paint27_linear_10440_18247" x1="157.372" y1="370.807" x2="152.349" y2="370.423" gradientUnits="userSpaceOnUse">
<stop stop-color="#6B86FF"/>
<stop offset="1" stop-color="#A1AEFF"/>
</linearGradient>
<linearGradient id="paint28_linear_10440_18247" x1="123.379" y1="357.922" x2="113.407" y2="357.284" gradientUnits="userSpaceOnUse">
<stop stop-color="#6B86FF"/>
<stop offset="1" stop-color="#A1AEFF"/>
</linearGradient>
<linearGradient id="paint29_linear_10440_18247" x1="127.45" y1="363.551" x2="123.854" y2="363.37" gradientUnits="userSpaceOnUse">
<stop stop-color="#6B86FF"/>
<stop offset="1" stop-color="#A1AEFF"/>
</linearGradient>
<linearGradient id="paint30_linear_10440_18247" x1="116.389" y1="370.52" x2="111.532" y2="370.164" gradientUnits="userSpaceOnUse">
<stop stop-color="#6B86FF"/>
<stop offset="1" stop-color="#A1AEFF"/>
</linearGradient>
<linearGradient id="paint31_linear_10440_18247" x1="134.298" y1="327.931" x2="134.298" y2="358.464" gradientUnits="userSpaceOnUse">
<stop stop-color="#FFE4E4"/>
<stop offset="1" stop-color="#FAF9EB"/>
</linearGradient>
<clipPath id="clip0_10440_18247">
<rect width="569.793" height="443.456" fill="white" transform="translate(0.101562)"/>
</clipPath>
</defs>
</svg>
