<svg width="337" height="172" viewBox="0 0 337 172" fill="none" xmlns="http://www.w3.org/2000/svg">
<path d="M156.618 14.3902L156.156 14.4307L157.479 29.5497L157.941 29.5092L156.618 14.3902Z" fill="#5D5D5D"/>
<path d="M167.149 23.8592L166.973 13.7425L167.204 13.7383L167.381 23.855L167.149 23.8592Z" fill="#5D5D5D"/>
<path d="M172.325 23.8592L172.094 23.855L172.271 13.7383L172.503 13.7425L172.325 23.8592Z" fill="#5D5D5D"/>
<path d="M170.13 23.8592L169.898 23.855L170.075 13.7383L170.308 13.7425L170.13 23.8592Z" fill="#5D5D5D"/>
<path d="M164.58 13.8151L164.348 13.8232L164.701 23.9349L164.933 23.9268L164.58 13.8151Z" fill="#5D5D5D"/>
<path d="M159.286 14.0864L159.055 14.1025L159.76 24.1957L159.991 24.1796L159.286 14.0864Z" fill="#5D5D5D"/>
<path d="M162.206 24.0347L161.676 13.9305L161.908 13.9189L162.438 24.0231L162.206 24.0347Z" fill="#5D5D5D"/>
<path d="M182.732 14.2863L181.398 29.4043L181.861 29.4451L183.194 14.327L182.732 14.2863Z" fill="#5D5D5D"/>
<path d="M174.933 13.7878L174.578 23.8994L174.81 23.9076L175.165 13.796L174.933 13.7878Z" fill="#5D5D5D"/>
<path d="M180.215 14.0791L179.504 24.1719L179.735 24.1881L180.446 14.0953L180.215 14.0791Z" fill="#5D5D5D"/>
<path d="M177.27 24.0347L177.039 24.0231L177.569 13.9189L177.8 13.9305L177.27 24.0347Z" fill="#5D5D5D"/>
<path d="M193.364 15.5716L191.785 25.5654L192.015 25.6017L193.594 15.6079L193.364 15.5716Z" fill="#5D5D5D"/>
<path d="M189.566 25.2306L189.336 25.1971L190.743 15.1777L190.974 15.2102L189.566 25.2306Z" fill="#5D5D5D"/>
<path d="M185.49 14.536L184.426 24.5977L184.657 24.6221L185.722 14.5605L185.49 14.536Z" fill="#5D5D5D"/>
<path d="M188.105 14.8483L186.879 24.8916L187.109 24.9196L188.335 14.8764L188.105 14.8483Z" fill="#5D5D5D"/>
<path d="M146.101 15.5642L145.871 15.6006L147.454 25.5938L147.683 25.5575L146.101 15.5642Z" fill="#5D5D5D"/>
<path d="M149.911 25.2306L148.504 15.2102L148.734 15.1777L150.142 25.1971L149.911 25.2306Z" fill="#5D5D5D"/>
<path d="M153.989 14.5362L153.758 14.5605L154.815 24.6229L155.047 24.5986L153.989 14.5362Z" fill="#5D5D5D"/>
<path d="M151.37 14.838L151.141 14.8662L152.374 24.9086L152.603 24.8804L151.37 14.838Z" fill="#5D5D5D"/>
<path d="M213.715 45.0136L213.496 44.935L213.662 44.4795L213.88 44.558L213.715 45.0136Z" fill="#5D5D5D"/>
<path d="M197.127 7.85213L193.996 25.8984L194.678 26.0166L197.808 7.97033L197.127 7.85213Z" fill="#5D5D5D"/>
<path d="M233.647 27.8482L227.242 41.6074L227.663 41.8032L234.067 28.0439L233.647 27.8482Z" fill="#5D5D5D"/>
<path d="M224.012 23.7647L220.379 33.209L220.596 33.2924L224.229 23.8482L224.012 23.7647Z" fill="#5D5D5D"/>
<path d="M215.966 31.5897L215.746 31.5143L219.042 21.9473L219.26 22.0227L215.966 31.5897Z" fill="#5D5D5D"/>
<path d="M218.364 32.5877L218.145 32.5123L221.439 23.0732L221.658 23.1486L218.364 32.5877Z" fill="#5D5D5D"/>
<path d="M226.478 24.7365L222.68 34.1143L222.894 34.2011L226.693 24.8234L226.478 24.7365Z" fill="#5D5D5D"/>
<path d="M231.353 26.7948L227.242 36.041L227.455 36.1355L231.565 26.8893L231.353 26.7948Z" fill="#5D5D5D"/>
<path d="M228.916 25.7472L224.969 35.0635L225.183 35.1542L229.13 25.8379L228.916 25.7472Z" fill="#5D5D5D"/>
<path d="M208.81 18.8207L204.871 33.4785L205.32 33.5992L209.259 18.9413L208.81 18.8207Z" fill="#5D5D5D"/>
<path d="M216.519 21.1172L213.391 30.7402L213.611 30.8118L216.739 21.1887L216.519 21.1172Z" fill="#5D5D5D"/>
<path d="M208.895 29.3545L208.672 29.2906L211.462 19.5645L211.684 19.6283L208.895 29.3545Z" fill="#5D5D5D"/>
<path d="M214.081 19.8265L211.031 29.9238L211.254 29.9912L214.305 19.8939L214.081 19.8265Z" fill="#5D5D5D"/>
<path d="M233.902 54.1551L233.785 54.3574L233.987 54.4736L234.103 54.2713L233.902 54.1551Z" fill="#5D5D5D"/>
<path d="M198.578 16.503L196.641 26.4336L196.868 26.4779L198.805 16.5473L198.578 16.503Z" fill="#5D5D5D"/>
<path d="M201.18 17.0036L199.082 26.9014L199.308 26.9494L201.407 17.0515L201.18 17.0036Z" fill="#5D5D5D"/>
<path d="M206.365 18.1815L203.91 27.9971L204.135 28.0532L206.589 18.2377L206.365 18.1815Z" fill="#5D5D5D"/>
<path d="M201.714 27.4915L201.488 27.4392L203.766 17.5811L203.991 17.6334L201.714 27.4915Z" fill="#5D5D5D"/>
<path d="M243.225 32.6854L238.324 41.5381L238.528 41.6507L243.429 32.798L243.225 32.6854Z" fill="#5D5D5D"/>
<path d="M240.883 31.4273L236.137 40.3643L236.341 40.4728L241.087 31.5359L240.883 31.4273Z" fill="#5D5D5D"/>
<path d="M236.167 29.0242L231.738 38.1211L231.946 38.2224L236.375 29.1255L236.167 29.0242Z" fill="#5D5D5D"/>
<path d="M238.517 30.2161L233.93 39.2344L234.136 39.3393L238.723 30.3211L238.517 30.2161Z" fill="#5D5D5D"/>
<path d="M256.591 41.0394L247.875 53.4639L248.255 53.7303L256.971 41.3058L256.591 41.0394Z" fill="#5D5D5D"/>
<path d="M277.247 58.0117L266.461 68.6885L266.787 69.0182L277.573 58.3414L277.247 58.0117Z" fill="#5D5D5D"/>
<path d="M265.169 47.4639L258.805 55.3311L258.985 55.4773L265.349 47.6101L265.169 47.4639Z" fill="#5D5D5D"/>
<path d="M267.508 49.292L261.145 57.1592L261.325 57.3054L267.689 49.4382L267.508 49.292Z" fill="#5D5D5D"/>
<path d="M269.222 50.8708L262.578 58.5029L262.753 58.6549L269.397 51.0227L269.222 50.8708Z" fill="#5D5D5D"/>
<path d="M263.108 45.8194L256.875 53.7891L257.058 53.9323L263.291 45.9626L263.108 45.8194Z" fill="#5D5D5D"/>
<path d="M253.095 50.9577L252.906 50.8215L258.853 42.6357L259.041 42.7719L253.095 50.9577Z" fill="#5D5D5D"/>
<path d="M260.971 44.2149L254.875 52.29L255.06 52.4295L261.156 44.3544L260.971 44.2149Z" fill="#5D5D5D"/>
<path d="M271.226 52.6214L264.457 60.1416L264.629 60.2964L271.398 52.7762L271.226 52.6214Z" fill="#5D5D5D"/>
<path d="M275.091 56.2353L268.055 63.5068L268.222 63.6685L275.259 56.397L275.091 56.2353Z" fill="#5D5D5D"/>
<path d="M266.435 61.9687L266.266 61.8105L273.167 54.4102L273.336 54.5693L266.435 61.9687Z" fill="#5D5D5D"/>
<path d="M233.902 54.1551L233.785 54.3574L233.987 54.4736L234.103 54.2713L233.902 54.1551Z" fill="#5D5D5D"/>
<path d="M284.213 65.8274L276.582 72.4727L276.734 72.6472L284.365 66.002L284.213 65.8274Z" fill="#5D5D5D"/>
<path d="M282.442 63.8464L274.922 70.6152L275.077 70.7872L282.597 64.0184L282.442 63.8464Z" fill="#5D5D5D"/>
<path d="M278.842 59.972L271.57 67.0088L271.732 67.1758L279.004 60.1391L278.842 59.972Z" fill="#5D5D5D"/>
<path d="M273.416 68.966L273.258 68.7964L280.658 61.8955L280.816 62.0652L273.416 68.966Z" fill="#5D5D5D"/>
<path d="M242.799 44.1271L242.602 44.0077L247.811 35.335L248.01 35.4543L242.799 44.1271Z" fill="#5D5D5D"/>
<path d="M244.908 45.4209L244.711 45.2974L250.074 36.7168L250.27 36.8404L244.908 45.4209Z" fill="#5D5D5D"/>
<path d="M254.486 39.6061L248.828 47.9941L249.02 48.1236L254.678 39.7355L254.486 39.6061Z" fill="#5D5D5D"/>
<path d="M246.988 46.7506L246.793 46.6239L252.304 38.1387L252.499 38.2643L246.988 46.7506Z" fill="#5D5D5D"/>
<path d="M321.509 165.372H303.094V165.605H321.509V165.372Z" fill="#5D5D5D"/>
<path d="M316.283 125.981L301.625 129.92L301.746 130.369L316.403 126.43L316.283 125.981Z" fill="#5D5D5D"/>
<path d="M318.692 136.401L308.762 138.34L308.806 138.567L318.736 136.628L318.692 136.401Z" fill="#5D5D5D"/>
<path d="M318.78 139.261L309.387 141.428L309.431 141.655L318.825 139.488L318.78 139.261Z" fill="#5D5D5D"/>
<path d="M319.631 141.645L309.637 143.225L309.673 143.454L319.667 141.875L319.631 141.645Z" fill="#5D5D5D"/>
<path d="M318.163 133.809L308.266 135.907L308.314 136.134L318.211 134.035L318.163 133.809Z" fill="#5D5D5D"/>
<path d="M316.989 128.67L307.172 131.121L307.228 131.346L317.045 128.894L316.989 128.67Z" fill="#5D5D5D"/>
<path d="M307.791 133.736L307.738 133.51L317.596 131.234L317.649 131.461L307.791 133.736Z" fill="#5D5D5D"/>
<path d="M321.537 151.735L306.359 153.101L306.401 153.564L321.579 152.198L321.537 151.735Z" fill="#5D5D5D"/>
<path d="M310.029 145.889L309.996 145.658L320.015 144.25L320.049 144.479L310.029 145.889Z" fill="#5D5D5D"/>
<path d="M320.676 149.517L310.613 150.583L310.638 150.814L320.7 149.748L320.676 149.517Z" fill="#5D5D5D"/>
<path d="M320.375 146.896L310.332 148.122L310.36 148.352L320.403 147.126L320.375 146.896Z" fill="#5D5D5D"/>
<path d="M311.378 163.132L311.375 162.9L321.491 162.724L321.495 162.955L311.378 163.132Z" fill="#5D5D5D"/>
<path d="M321.408 160.055L311.297 160.412L311.305 160.644L321.417 160.288L321.408 160.055Z" fill="#5D5D5D"/>
<path d="M321.295 154.622L311.176 155.33L311.192 155.561L321.311 154.853L321.295 154.622Z" fill="#5D5D5D"/>
<path d="M311.207 158.191L311.195 157.96L321.298 157.43L321.31 157.662L311.207 158.191Z" fill="#5D5D5D"/>
<path d="M303.712 119.48L303.637 119.26L313.204 115.966L313.279 116.185L303.712 119.48Z" fill="#5D5D5D"/>
<path d="M305.936 126.555L305.871 126.332L315.598 123.543L315.663 123.766L305.936 126.555Z" fill="#5D5D5D"/>
<path d="M315.088 120.91L305.195 124.28L305.263 124.503L315.156 121.134L315.088 120.91Z" fill="#5D5D5D"/>
<path d="M307.185 101.136L293.426 107.54L293.622 107.961L307.381 101.556L307.185 101.136Z" fill="#5D5D5D"/>
<path d="M294.254 77.6092L281.07 87.0547L281.34 87.4318L294.524 77.9862L294.254 77.6092Z" fill="#5D5D5D"/>
<path d="M302.422 91.8055L293.57 96.7061L293.683 96.9094L302.535 92.0089L302.422 91.8055Z" fill="#5D5D5D"/>
<path d="M291.222 92.6314L291.102 92.4324L299.775 87.2217L299.895 87.4196L291.222 92.6314Z" fill="#5D5D5D"/>
<path d="M292.605 94.9148L292.484 94.7158L301.28 89.1465L301.4 89.3444L292.605 94.9148Z" fill="#5D5D5D"/>
<path d="M303.698 94.1365L294.762 98.8818L294.87 99.0862L303.806 94.3409L303.698 94.1365Z" fill="#5D5D5D"/>
<path d="M306.122 98.868L297.023 103.296L297.125 103.504L306.223 99.0761L306.122 98.868Z" fill="#5D5D5D"/>
<path d="M304.924 96.4886L295.906 101.075L296.011 101.281L305.028 96.6949L304.924 96.4886Z" fill="#5D5D5D"/>
<path d="M289.932 90.5223L289.809 90.3254L298.39 84.9639L298.513 85.1607L289.932 90.5223Z" fill="#5D5D5D"/>
<path d="M295.486 80.517L287.098 86.1748L287.227 86.3667L295.615 80.7089L295.486 80.517Z" fill="#5D5D5D"/>
<path d="M288.602 88.4356L288.477 88.2408L296.963 82.7295L297.09 82.9243L288.602 88.4356Z" fill="#5D5D5D"/>
<path d="M287.596 69.8825L279.73 76.2471L279.877 76.4278L287.742 70.0632L287.596 69.8825Z" fill="#5D5D5D"/>
<path d="M289.281 71.9587L281.312 78.1914L281.456 78.3745L289.425 72.1418L289.281 71.9587Z" fill="#5D5D5D"/>
<path d="M284.406 82.32L284.27 82.1325L292.455 76.1846L292.591 76.3731L284.406 82.32Z" fill="#5D5D5D"/>
<path d="M290.895 74.0592L282.82 80.1553L282.96 80.34L291.035 74.2439L290.895 74.0592Z" fill="#5D5D5D"/>
<path d="M302.029 114.832L301.945 114.616L311.392 110.99L311.476 111.207L302.029 114.832Z" fill="#5D5D5D"/>
<path d="M310.413 108.521L301.035 112.319L301.122 112.534L310.5 108.735L310.413 108.521Z" fill="#5D5D5D"/>
<path d="M308.328 103.646L299.082 107.755L299.176 107.967L308.422 103.858L308.328 103.646Z" fill="#5D5D5D"/>
<path d="M309.422 106.096L300.105 110.043L300.196 110.257L309.512 106.31L309.422 106.096Z" fill="#5D5D5D"/>
<path d="M130.574 18.948L130.125 19.0684L134.053 33.729L134.502 33.6086L130.574 18.948Z" fill="#5D5D5D"/>
<path d="M123.513 31.5897L120.219 22.0227L120.438 21.9473L123.733 31.5143L123.513 31.5897Z" fill="#5D5D5D"/>
<path d="M115.471 23.7546L115.254 23.8379L118.88 33.2847L119.097 33.2013L115.471 23.7546Z" fill="#5D5D5D"/>
<path d="M117.994 22.8454L117.777 22.9287L121.355 32.2484L121.572 32.1651L117.994 22.8454Z" fill="#5D5D5D"/>
<path d="M122.947 21.1101L122.727 21.1816L125.853 30.8042L126.073 30.7327L122.947 21.1101Z" fill="#5D5D5D"/>
<path d="M130.586 29.3545L127.797 19.6283L128.02 19.5645L130.809 29.2906L130.586 29.3545Z" fill="#5D5D5D"/>
<path d="M125.48 20.3158L125.258 20.3838L128.216 30.0595L128.438 29.9915L125.48 20.3158Z" fill="#5D5D5D"/>
<path d="M105.702 27.9573L105.281 28.1533L111.695 41.9081L112.116 41.7121L105.702 27.9573Z" fill="#5D5D5D"/>
<path d="M113 24.7248L112.785 24.8115L116.575 34.1926L116.79 34.1059L113 24.7248Z" fill="#5D5D5D"/>
<path d="M108.13 26.7883L107.918 26.8828L112.034 36.1269L112.246 36.0323L108.13 26.7883Z" fill="#5D5D5D"/>
<path d="M110.569 25.7344L110.355 25.8252L114.307 35.1394L114.521 35.0486L110.569 25.7344Z" fill="#5D5D5D"/>
<path d="M142.427 7.85289L141.742 7.97363L144.94 26.1085L145.625 25.9877L142.427 7.85289Z" fill="#5D5D5D"/>
<path d="M96.2619 32.6891L96.0586 32.8018L100.964 41.651L101.167 41.5383L96.2619 32.6891Z" fill="#5D5D5D"/>
<path d="M98.5911 31.4275L98.3867 31.5361L103.137 40.4696L103.341 40.361L98.5911 31.4275Z" fill="#5D5D5D"/>
<path d="M103.31 29.0255L103.102 29.127L107.537 38.2208L107.745 38.1193L103.31 29.0255Z" fill="#5D5D5D"/>
<path d="M100.944 30.2065L100.738 30.3115L105.332 39.3266L105.538 39.2215L100.944 30.2065Z" fill="#5D5D5D"/>
<path d="M140.911 16.4862L140.684 16.5303L142.612 26.4625L142.84 26.4184L140.911 16.4862Z" fill="#5D5D5D"/>
<path d="M138.281 17.0075L138.055 17.0557L140.158 26.9524L140.385 26.9043L138.281 17.0075Z" fill="#5D5D5D"/>
<path d="M133.131 18.196L132.906 18.252L135.354 28.0692L135.579 28.0132L133.131 18.196Z" fill="#5D5D5D"/>
<path d="M137.764 27.4915L135.488 17.6334L135.714 17.5811L137.99 27.4392L137.764 27.4915Z" fill="#5D5D5D"/>
<path d="M89.9898 26.7016L89.3867 27.0498L98.594 42.9973L99.1971 42.6491L89.9898 26.7016Z" fill="#5D5D5D"/>
<path d="M62.4647 58.1261L62.1367 58.4541L72.869 69.1864L73.1971 68.8584L62.4647 58.1261Z" fill="#5D5D5D"/>
<path d="M70.2567 50.8697L70.082 51.0215L76.7199 58.6575L76.8946 58.5057L70.2567 50.8697Z" fill="#5D5D5D"/>
<path d="M72.3153 49.0376L72.1406 49.1895L78.8122 56.8643L78.9869 56.7124L72.3153 49.0376Z" fill="#5D5D5D"/>
<path d="M74.3174 47.467L74.1367 47.6133L80.5047 55.4771L80.6854 55.3308L74.3174 47.467Z" fill="#5D5D5D"/>
<path d="M68.2696 52.6244L68.0977 52.7793L74.8678 60.2983L75.0398 60.1435L68.2696 52.6244Z" fill="#5D5D5D"/>
<path d="M64.386 56.237L64.2188 56.3984L71.2472 63.6766L71.4144 63.5151L64.386 56.237Z" fill="#5D5D5D"/>
<path d="M73.0493 61.9687L66.1484 54.5693L66.3181 54.4102L73.219 61.8105L73.0493 61.9687Z" fill="#5D5D5D"/>
<path d="M82.755 41.1519L82.375 41.418L91.08 53.85L91.46 53.5839L82.755 41.1519Z" fill="#5D5D5D"/>
<path d="M76.3863 45.8207L76.2031 45.9639L82.4323 53.9368L82.6155 53.7937L76.3863 45.8207Z" fill="#5D5D5D"/>
<path d="M86.3855 50.9577L80.4375 42.7719L80.626 42.6357L86.5729 50.8215L86.3855 50.9577Z" fill="#5D5D5D"/>
<path d="M78.5012 44.2064L78.3164 44.3457L84.4055 52.4262L84.5903 52.2869L78.5012 44.2064Z" fill="#5D5D5D"/>
<path d="M96.6834 44.1271L91.4727 35.4543L91.6706 35.335L96.8824 44.0077L96.6834 44.1271Z" fill="#5D5D5D"/>
<path d="M94.5803 45.4209L89.2188 36.8404L89.4156 36.7168L94.7772 45.2974L94.5803 45.4209Z" fill="#5D5D5D"/>
<path d="M84.9614 39.6011L84.7695 39.7305L90.4279 48.1194L90.6198 47.99L84.9614 39.6011Z" fill="#5D5D5D"/>
<path d="M92.4918 46.7506L86.9805 38.2643L87.1752 38.1387L92.6865 46.6239L92.4918 46.7506Z" fill="#5D5D5D"/>
<path d="M55.2768 65.8292L55.125 66.0039L62.7618 72.6425L62.9136 72.4678L55.2768 65.8292Z" fill="#5D5D5D"/>
<path d="M57.0338 63.8466L56.8789 64.0186L64.3987 70.7894L64.5535 70.6174L57.0338 63.8466Z" fill="#5D5D5D"/>
<path d="M60.6498 59.9744L60.4883 60.1416L67.7672 67.1707L67.9287 67.0035L60.6498 59.9744Z" fill="#5D5D5D"/>
<path d="M66.0645 68.966L58.6641 62.0652L58.8232 61.8955L66.2226 68.7964L66.0645 68.966Z" fill="#5D5D5D"/>
<path d="M30.7779 85.1342L30.4297 85.7373L46.3772 94.9446L46.7254 94.3415L30.7779 85.1342Z" fill="#5D5D5D"/>
<path d="M45.4301 78.3651L45.1641 78.7451L57.597 87.4507L57.863 87.0707L45.4301 78.3651Z" fill="#5D5D5D"/>
<path d="M48.2597 92.6314L39.5859 87.4196L39.7064 87.2217L48.3791 92.4324L48.2597 92.6314Z" fill="#5D5D5D"/>
<path d="M37.0541 91.8045L36.9414 92.0078L45.7906 96.913L45.9034 96.7097L37.0541 91.8045Z" fill="#5D5D5D"/>
<path d="M49.5493 90.5223L40.9688 85.1607L41.0923 84.9639L49.6729 90.3254L49.5493 90.5223Z" fill="#5D5D5D"/>
<path d="M43.7976 80.3499L43.668 80.542L52.0658 86.208L52.1954 86.0159L43.7976 80.3499Z" fill="#5D5D5D"/>
<path d="M50.8759 88.4356L42.3906 82.9243L42.5163 82.7295L51.0026 88.2408L50.8759 88.4356Z" fill="#5D5D5D"/>
<path d="M32.1648 101.264L31.9688 101.685L45.7235 108.099L45.9196 107.678L32.1648 101.264Z" fill="#5D5D5D"/>
<path d="M35.7883 94.1287L35.6797 94.333L44.6132 99.083L44.7218 98.8787L35.7883 94.1287Z" fill="#5D5D5D"/>
<path d="M33.3788 98.8594L33.2773 99.0674L42.3712 103.503L42.4726 103.295L33.3788 98.8594Z" fill="#5D5D5D"/>
<path d="M34.5582 96.4911L34.4531 96.6973L43.4682 101.291L43.5732 101.084L34.5582 96.4911Z" fill="#5D5D5D"/>
<path d="M37.4572 114.832L28.0117 111.207L28.0955 110.99L37.541 114.616L37.4572 114.832Z" fill="#5D5D5D"/>
<path d="M29.0554 108.535L28.9688 108.75L38.3508 112.541L38.4375 112.326L29.0554 108.535Z" fill="#5D5D5D"/>
<path d="M31.1375 103.659L31.043 103.871L40.287 107.987L40.3816 107.774L31.1375 103.659Z" fill="#5D5D5D"/>
<path d="M30.0791 106.07L29.9883 106.284L39.3018 110.238L39.3926 110.024L30.0791 106.07Z" fill="#5D5D5D"/>
<path d="M51.8611 69.8887L51.7148 70.0693L59.5779 76.4367L59.7242 76.256L51.8611 69.8887Z" fill="#5D5D5D"/>
<path d="M50.2173 71.9535L50.0742 72.1367L58.0472 78.3659L58.1903 78.1827L50.2173 71.9535Z" fill="#5D5D5D"/>
<path d="M55.0725 82.32L46.8867 76.3731L47.0229 76.1846L55.2086 82.1325L55.0725 82.32Z" fill="#5D5D5D"/>
<path d="M48.5963 74.0613L48.457 74.2461L56.5375 80.3351L56.6768 80.1503L48.5963 74.0613Z" fill="#5D5D5D"/>
<path d="M18.4428 152.153L18.4023 152.615L33.5213 153.938L33.5617 153.476L18.4428 152.153Z" fill="#5D5D5D"/>
<path d="M19.8567 141.62L19.8203 141.85L29.8136 143.432L29.8499 143.203L19.8567 141.62Z" fill="#5D5D5D"/>
<path d="M19.9621 139.487L19.9258 139.717L30.153 141.337L30.1893 141.107L19.9621 139.487Z" fill="#5D5D5D"/>
<path d="M20.7785 136.417L20.7344 136.645L30.6663 138.575L30.7105 138.348L20.7785 136.417Z" fill="#5D5D5D"/>
<path d="M29.4491 145.889L19.4297 144.479L19.4622 144.25L29.4826 145.658L29.4491 145.889Z" fill="#5D5D5D"/>
<path d="M18.8134 149.502L18.7891 149.733L28.8515 150.791L28.8758 150.56L18.8134 149.502Z" fill="#5D5D5D"/>
<path d="M19.1141 146.888L19.0859 147.118L29.1283 148.351L29.1565 148.122L19.1141 146.888Z" fill="#5D5D5D"/>
<path d="M23.0774 126.109L22.957 126.558L37.6166 130.486L37.737 130.037L23.0774 126.109Z" fill="#5D5D5D"/>
<path d="M21.3098 133.814L21.2617 134.04L31.1584 136.144L31.2066 135.917L21.3098 133.814Z" fill="#5D5D5D"/>
<path d="M22.5052 128.66L22.4492 128.885L32.2665 131.332L32.3225 131.108L22.5052 128.66Z" fill="#5D5D5D"/>
<path d="M31.6901 133.736L21.832 131.461L21.8844 131.234L31.7425 133.51L31.6901 133.736Z" fill="#5D5D5D"/>
<path d="M35.7662 119.48L26.1992 116.185L26.2746 115.966L35.8416 119.26L35.7662 119.48Z" fill="#5D5D5D"/>
<path d="M25.4309 118.48L25.3594 118.7L34.982 121.827L35.0535 121.607L25.4309 118.48Z" fill="#5D5D5D"/>
<path d="M33.5426 126.555L23.8164 123.766L23.8803 123.543L33.6065 126.332L33.5426 126.555Z" fill="#5D5D5D"/>
<path d="M24.6344 121.004L24.5664 121.227L34.2421 124.185L34.3101 123.962L24.6344 121.004Z" fill="#5D5D5D"/>
<path d="M28.109 163.132L17.9922 162.955L17.9964 162.724L28.1131 162.9L28.109 163.132Z" fill="#5D5D5D"/>
<path d="M18.0667 160.084L18.0586 160.316L28.1702 160.67L28.1784 160.437L18.0667 160.084Z" fill="#5D5D5D"/>
<path d="M18.3482 154.794L18.332 155.024L28.4252 155.73L28.4413 155.499L18.3482 154.794Z" fill="#5D5D5D"/>
<path d="M28.2722 158.191L18.168 157.662L18.1795 157.43L28.2837 157.96L28.2722 158.191Z" fill="#5D5D5D"/>
<path d="M19.3593 110.371L19.1211 111.025L36.4252 117.324L36.6633 116.669L19.3593 110.371Z" fill="#5D5D5D"/>
<path d="M292.463 62.4792L278.117 74.0244L278.554 74.5669L292.9 63.0217L292.463 62.4792Z" fill="#5D5D5D"/>
<path d="M249.492 26.9109L240.285 42.8584L240.888 43.2066L250.096 27.2591L249.492 26.9109Z" fill="#5D5D5D"/>
<path d="M47.3148 62.2019L46.8672 62.7354L60.9736 74.572L61.4212 74.0386L47.3148 62.2019Z" fill="#5D5D5D"/>
<path d="M28.2154 165.141H9.80078V165.837H28.2154V165.141Z" fill="#5D5D5D"/>
<path d="M321.509 165.141H303.094V165.837H321.509V165.141Z" fill="#5D5D5D"/>
<path d="M320.001 110.372L302.699 116.676L302.938 117.33L320.239 111.026L320.001 110.372Z" fill="#5D5D5D"/>
<path d="M314.037 118.469L304.414 121.598L304.486 121.818L314.109 118.689L314.037 118.469Z" fill="#5D5D5D"/>
<path d="M311.53 165.489H311.251C311.251 87.4586 247.768 23.9746 169.737 23.9746C91.7058 23.9746 28.2228 87.4586 28.2228 165.489H27.9453C27.9453 146.348 31.6942 127.778 39.0873 110.296C46.229 93.4129 56.4536 78.2529 69.4753 65.226C82.3909 52.2765 97.6975 41.9574 114.546 34.8412C132.026 27.4481 150.596 23.6992 169.737 23.6992C188.878 23.6992 207.448 27.4481 224.93 34.8412C241.814 41.9829 256.973 52.2065 270 65.2281C282.95 78.1441 293.269 93.4506 300.387 110.299C307.783 127.778 311.53 146.348 311.53 165.489Z" fill="#5D5D5D"/>
<path d="M36.9445 62V58.304H36.8425L36.2125 59.678H35.4745L36.3685 57.8H37.6405V62H36.9445ZM39.8482 62.084C39.3562 62.084 38.9622 61.946 38.6662 61.67C38.3702 61.394 38.2222 60.978 38.2222 60.422V59.378C38.2222 58.834 38.3702 58.422 38.6662 58.142C38.9622 57.858 39.3562 57.716 39.8482 57.716C40.3442 57.716 40.7382 57.858 41.0302 58.142C41.3262 58.422 41.4742 58.834 41.4742 59.378V60.422C41.4742 60.978 41.3262 61.394 41.0302 61.67C40.7382 61.946 40.3442 62.084 39.8482 62.084ZM39.8482 61.46C40.1642 61.46 40.3962 61.372 40.5442 61.196C40.6962 61.02 40.7722 60.77 40.7722 60.446V59.348C40.7722 59.02 40.6902 58.77 40.5262 58.598C40.3622 58.426 40.1362 58.34 39.8482 58.34C39.5522 58.34 39.3242 58.428 39.1642 58.604C39.0042 58.78 38.9242 59.028 38.9242 59.348V60.446C38.9242 60.778 39.0002 61.03 39.1522 61.202C39.3082 61.374 39.5402 61.46 39.8482 61.46Z" fill="#151515"/>
<path d="M299.063 62.084C298.751 62.084 298.473 62.028 298.229 61.916C297.989 61.804 297.801 61.644 297.665 61.436C297.529 61.224 297.461 60.972 297.461 60.68V60.572H298.157V60.662C298.157 60.906 298.239 61.1 298.403 61.244C298.571 61.388 298.791 61.46 299.063 61.46C299.335 61.46 299.547 61.394 299.699 61.262C299.851 61.126 299.927 60.956 299.927 60.752V60.698C299.927 60.554 299.891 60.438 299.819 60.35C299.751 60.262 299.657 60.198 299.537 60.158C299.421 60.114 299.289 60.092 299.141 60.092H298.337V59.312L299.759 58.514V58.424H297.563V57.8H300.527V58.736L299.183 59.492V59.582H299.429C299.629 59.582 299.819 59.622 299.999 59.702C300.183 59.778 300.333 59.896 300.449 60.056C300.565 60.216 300.623 60.424 300.623 60.68V60.746C300.623 61.018 300.557 61.254 300.425 61.454C300.297 61.654 300.115 61.81 299.879 61.922C299.647 62.03 299.375 62.084 299.063 62.084ZM302.55 62.084C302.226 62.084 301.946 62.026 301.71 61.91C301.478 61.794 301.298 61.63 301.17 61.418C301.042 61.206 300.978 60.96 300.978 60.68V60.62H301.686V60.674C301.686 60.902 301.758 61.09 301.902 61.238C302.05 61.386 302.262 61.46 302.538 61.46C302.814 61.46 303.028 61.384 303.18 61.232C303.332 61.08 303.408 60.88 303.408 60.632V60.578C303.408 60.334 303.332 60.14 303.18 59.996C303.032 59.852 302.844 59.78 302.616 59.78C302.488 59.78 302.382 59.798 302.298 59.834C302.218 59.87 302.152 59.916 302.1 59.972C302.048 60.024 302.006 60.078 301.974 60.134H301.11V57.8H303.948V58.436H301.806V59.564H301.908C301.952 59.504 302.008 59.448 302.076 59.396C302.148 59.34 302.24 59.294 302.352 59.258C302.468 59.218 302.606 59.198 302.766 59.198C303.014 59.198 303.238 59.252 303.438 59.36C303.642 59.464 303.804 59.618 303.924 59.822C304.044 60.026 304.104 60.276 304.104 60.572V60.638C304.104 60.93 304.042 61.184 303.918 61.4C303.794 61.616 303.616 61.784 303.384 61.904C303.152 62.024 302.874 62.084 302.55 62.084Z" fill="#151515"/>
<path d="M81.7961 25V21.304H81.6941L81.0641 22.678H80.3261L81.2201 20.8H82.4921V25H81.7961ZM84.5798 25.084C84.2558 25.084 83.9758 25.026 83.7398 24.91C83.5078 24.794 83.3278 24.63 83.1998 24.418C83.0718 24.206 83.0078 23.96 83.0078 23.68V23.62H83.7158V23.674C83.7158 23.902 83.7878 24.09 83.9318 24.238C84.0798 24.386 84.2918 24.46 84.5678 24.46C84.8438 24.46 85.0578 24.384 85.2098 24.232C85.3618 24.08 85.4378 23.88 85.4378 23.632V23.578C85.4378 23.334 85.3618 23.14 85.2098 22.996C85.0618 22.852 84.8738 22.78 84.6458 22.78C84.5178 22.78 84.4118 22.798 84.3278 22.834C84.2478 22.87 84.1818 22.916 84.1298 22.972C84.0778 23.024 84.0358 23.078 84.0038 23.134H83.1398V20.8H85.9778V21.436H83.8358V22.564H83.9378C83.9818 22.504 84.0378 22.448 84.1058 22.396C84.1778 22.34 84.2698 22.294 84.3818 22.258C84.4978 22.218 84.6358 22.198 84.7958 22.198C85.0438 22.198 85.2678 22.252 85.4678 22.36C85.6718 22.464 85.8338 22.618 85.9538 22.822C86.0738 23.026 86.1338 23.276 86.1338 23.572V23.638C86.1338 23.93 86.0718 24.184 85.9478 24.4C85.8238 24.616 85.6458 24.784 85.4138 24.904C85.1818 25.024 84.9038 25.084 84.5798 25.084Z" fill="#151515"/>
<path d="M134.146 6V5.514C134.146 5.218 134.194 4.976 134.29 4.788C134.39 4.596 134.532 4.44 134.716 4.32C134.9 4.196 135.124 4.094 135.388 4.014L135.772 3.894C135.928 3.842 136.06 3.78 136.168 3.708C136.276 3.636 136.36 3.548 136.42 3.444C136.48 3.336 136.51 3.21 136.51 3.066V3.042C136.51 2.826 136.436 2.656 136.288 2.532C136.14 2.404 135.942 2.34 135.694 2.34C135.446 2.34 135.244 2.408 135.088 2.544C134.932 2.676 134.854 2.872 134.854 3.132V3.234H134.158V3.144C134.158 2.84 134.226 2.582 134.362 2.37C134.498 2.158 134.682 1.996 134.914 1.884C135.146 1.772 135.406 1.716 135.694 1.716C135.982 1.716 136.24 1.772 136.468 1.884C136.7 1.992 136.88 2.144 137.008 2.34C137.14 2.536 137.206 2.766 137.206 3.03V3.09C137.206 3.358 137.152 3.584 137.044 3.768C136.936 3.952 136.786 4.104 136.594 4.224C136.406 4.34 136.192 4.436 135.952 4.512L135.58 4.626C135.4 4.682 135.256 4.742 135.148 4.806C135.044 4.87 134.97 4.944 134.926 5.028C134.882 5.108 134.86 5.21 134.86 5.334V5.376H137.17V6H134.146ZM139.236 6.084C138.744 6.084 138.35 5.946 138.054 5.67C137.758 5.394 137.61 4.978 137.61 4.422V3.378C137.61 2.834 137.758 2.422 138.054 2.142C138.35 1.858 138.744 1.716 139.236 1.716C139.732 1.716 140.126 1.858 140.418 2.142C140.714 2.422 140.862 2.834 140.862 3.378V4.422C140.862 4.978 140.714 5.394 140.418 5.67C140.126 5.946 139.732 6.084 139.236 6.084ZM139.236 5.46C139.552 5.46 139.784 5.372 139.932 5.196C140.084 5.02 140.16 4.77 140.16 4.446V3.348C140.16 3.02 140.078 2.77 139.914 2.598C139.75 2.426 139.524 2.34 139.236 2.34C138.94 2.34 138.712 2.428 138.552 2.604C138.392 2.78 138.312 3.028 138.312 3.348V4.446C138.312 4.778 138.388 5.03 138.54 5.202C138.696 5.374 138.928 5.46 139.236 5.46Z" fill="#151515"/>
<path d="M201.056 6V5.514C201.056 5.218 201.104 4.976 201.2 4.788C201.3 4.596 201.442 4.44 201.626 4.32C201.81 4.196 202.034 4.094 202.298 4.014L202.682 3.894C202.838 3.842 202.97 3.78 203.078 3.708C203.186 3.636 203.27 3.548 203.33 3.444C203.39 3.336 203.42 3.21 203.42 3.066V3.042C203.42 2.826 203.346 2.656 203.198 2.532C203.05 2.404 202.852 2.34 202.604 2.34C202.356 2.34 202.154 2.408 201.998 2.544C201.842 2.676 201.764 2.872 201.764 3.132V3.234H201.068V3.144C201.068 2.84 201.136 2.582 201.272 2.37C201.408 2.158 201.592 1.996 201.824 1.884C202.056 1.772 202.316 1.716 202.604 1.716C202.892 1.716 203.15 1.772 203.378 1.884C203.61 1.992 203.79 2.144 203.918 2.34C204.05 2.536 204.116 2.766 204.116 3.03V3.09C204.116 3.358 204.062 3.584 203.954 3.768C203.846 3.952 203.696 4.104 203.504 4.224C203.316 4.34 203.102 4.436 202.862 4.512L202.49 4.626C202.31 4.682 202.166 4.742 202.058 4.806C201.954 4.87 201.88 4.944 201.836 5.028C201.792 5.108 201.77 5.21 201.77 5.334V5.376H204.08V6H201.056ZM206.026 6.084C205.702 6.084 205.422 6.026 205.186 5.91C204.954 5.794 204.774 5.63 204.646 5.418C204.518 5.206 204.454 4.96 204.454 4.68V4.62H205.162V4.674C205.162 4.902 205.234 5.09 205.378 5.238C205.526 5.386 205.738 5.46 206.014 5.46C206.29 5.46 206.504 5.384 206.656 5.232C206.808 5.08 206.884 4.88 206.884 4.632V4.578C206.884 4.334 206.808 4.14 206.656 3.996C206.508 3.852 206.32 3.78 206.092 3.78C205.964 3.78 205.858 3.798 205.774 3.834C205.694 3.87 205.628 3.916 205.576 3.972C205.524 4.024 205.482 4.078 205.45 4.134H204.586V1.8H207.424V2.436H205.282V3.564H205.384C205.428 3.504 205.484 3.448 205.552 3.396C205.624 3.34 205.716 3.294 205.828 3.258C205.944 3.218 206.082 3.198 206.242 3.198C206.49 3.198 206.714 3.252 206.914 3.36C207.118 3.464 207.28 3.618 207.4 3.822C207.52 4.026 207.58 4.276 207.58 4.572V4.638C207.58 4.93 207.518 5.184 207.394 5.4C207.27 5.616 207.092 5.784 206.86 5.904C206.628 6.024 206.35 6.084 206.026 6.084Z" fill="#151515"/>
<path d="M254.872 25.084C254.56 25.084 254.282 25.028 254.038 24.916C253.798 24.804 253.61 24.644 253.474 24.436C253.338 24.224 253.27 23.972 253.27 23.68V23.572H253.966V23.662C253.966 23.906 254.048 24.1 254.212 24.244C254.38 24.388 254.6 24.46 254.872 24.46C255.144 24.46 255.356 24.394 255.508 24.262C255.66 24.126 255.736 23.956 255.736 23.752V23.698C255.736 23.554 255.7 23.438 255.628 23.35C255.56 23.262 255.466 23.198 255.346 23.158C255.23 23.114 255.098 23.092 254.95 23.092H254.146V22.312L255.568 21.514V21.424H253.372V20.8H256.336V21.736L254.992 22.492V22.582H255.238C255.438 22.582 255.628 22.622 255.808 22.702C255.992 22.778 256.142 22.896 256.258 23.056C256.374 23.216 256.432 23.424 256.432 23.68V23.746C256.432 24.018 256.366 24.254 256.234 24.454C256.106 24.654 255.924 24.81 255.688 24.922C255.456 25.03 255.184 25.084 254.872 25.084ZM258.478 25.084C257.986 25.084 257.592 24.946 257.296 24.67C257 24.394 256.852 23.978 256.852 23.422V22.378C256.852 21.834 257 21.422 257.296 21.142C257.592 20.858 257.986 20.716 258.478 20.716C258.974 20.716 259.368 20.858 259.66 21.142C259.956 21.422 260.104 21.834 260.104 22.378V23.422C260.104 23.978 259.956 24.394 259.66 24.67C259.368 24.946 258.974 25.084 258.478 25.084ZM258.478 24.46C258.794 24.46 259.026 24.372 259.174 24.196C259.326 24.02 259.402 23.77 259.402 23.446V22.348C259.402 22.02 259.32 21.77 259.156 21.598C258.992 21.426 258.766 21.34 258.478 21.34C258.182 21.34 257.954 21.428 257.794 21.604C257.634 21.78 257.554 22.028 257.554 22.348V23.446C257.554 23.778 257.63 24.03 257.782 24.202C257.938 24.374 258.17 24.46 258.478 24.46Z" fill="#151515"/>
<path d="M11.7608 111.084C11.4368 111.084 11.1568 111.026 10.9208 110.91C10.6888 110.794 10.5088 110.63 10.3808 110.418C10.2528 110.206 10.1888 109.96 10.1888 109.68V109.62H10.8968V109.674C10.8968 109.902 10.9688 110.09 11.1128 110.238C11.2608 110.386 11.4728 110.46 11.7488 110.46C12.0248 110.46 12.2388 110.384 12.3908 110.232C12.5428 110.08 12.6188 109.88 12.6188 109.632V109.578C12.6188 109.334 12.5428 109.14 12.3908 108.996C12.2428 108.852 12.0548 108.78 11.8268 108.78C11.6988 108.78 11.5928 108.798 11.5088 108.834C11.4288 108.87 11.3628 108.916 11.3108 108.972C11.2588 109.024 11.2168 109.078 11.1848 109.134H10.3208V106.8H13.1588V107.436H11.0168V108.564H11.1188C11.1628 108.504 11.2188 108.448 11.2868 108.396C11.3588 108.34 11.4508 108.294 11.5628 108.258C11.6788 108.218 11.8168 108.198 11.9768 108.198C12.2248 108.198 12.4488 108.252 12.6488 108.36C12.8528 108.464 13.0148 108.618 13.1348 108.822C13.2548 109.026 13.3148 109.276 13.3148 109.572V109.638C13.3148 109.93 13.2528 110.184 13.1288 110.4C13.0048 110.616 12.8268 110.784 12.5948 110.904C12.3628 111.024 12.0848 111.084 11.7608 111.084Z" fill="#151515"/>
<path d="M329.381 111V110.148H327.281V109.338L328.811 106.8H330.077V109.524H330.779V110.148H330.077V111H329.381ZM327.953 109.524H329.381V107.244H329.279L327.953 109.434V109.524ZM332.701 111.084C332.209 111.084 331.815 110.946 331.519 110.67C331.223 110.394 331.075 109.978 331.075 109.422V108.378C331.075 107.834 331.223 107.422 331.519 107.142C331.815 106.858 332.209 106.716 332.701 106.716C333.197 106.716 333.591 106.858 333.883 107.142C334.179 107.422 334.327 107.834 334.327 108.378V109.422C334.327 109.978 334.179 110.394 333.883 110.67C333.591 110.946 333.197 111.084 332.701 111.084ZM332.701 110.46C333.017 110.46 333.249 110.372 333.397 110.196C333.549 110.02 333.625 109.77 333.625 109.446V108.348C333.625 108.02 333.543 107.77 333.379 107.598C333.215 107.426 332.989 107.34 332.701 107.34C332.405 107.34 332.177 107.428 332.017 107.604C331.857 107.78 331.777 108.028 331.777 108.348V109.446C331.777 109.778 331.853 110.03 332.005 110.202C332.161 110.374 332.393 110.46 332.701 110.46Z" fill="#151515"/>
<path d="M3.34951 165.148C2.85751 165.148 2.46351 165.01 2.16751 164.734C1.87151 164.458 1.72351 164.042 1.72351 163.486V162.442C1.72351 161.898 1.87151 161.486 2.16751 161.206C2.46351 160.922 2.85751 160.78 3.34951 160.78C3.84551 160.78 4.23951 160.922 4.53151 161.206C4.82751 161.486 4.97551 161.898 4.97551 162.442V163.486C4.97551 164.042 4.82751 164.458 4.53151 164.734C4.23951 165.01 3.84551 165.148 3.34951 165.148ZM3.34951 164.524C3.66551 164.524 3.89751 164.436 4.04551 164.26C4.19751 164.084 4.27351 163.834 4.27351 163.51V162.412C4.27351 162.084 4.19151 161.834 4.02751 161.662C3.86351 161.49 3.63751 161.404 3.34951 161.404C3.05351 161.404 2.82551 161.492 2.66551 161.668C2.50551 161.844 2.42551 162.092 2.42551 162.412V163.51C2.42551 163.842 2.50151 164.094 2.65351 164.266C2.80951 164.438 3.04151 164.524 3.34951 164.524Z" fill="#151515"/>
<path d="M41.4336 164.439C41.4336 145.008 45.9144 125.839 54.5276 108.421C63.1409 91.0039 75.6546 75.8072 91.0962 64.0126L114.108 94.1404C103.299 102.397 94.5398 113.034 88.5105 125.226C82.4812 137.419 79.3447 150.837 79.3447 164.439L41.4336 164.439Z" fill="#44D185"/>
<path d="M95.4657 60.8209C115.152 47.0776 138.345 39.2266 162.332 38.1869L163.973 76.0624C147.183 76.7902 130.947 82.2859 117.167 91.9062L95.4657 60.8209Z" fill="#FCC128"/>
<path d="M167.804 38.0684C191.915 38.0684 215.524 44.9663 235.842 57.948C256.16 70.9297 272.341 89.4533 282.474 111.332L248.073 127.264C240.98 111.949 229.653 98.9824 215.431 89.8952C201.208 80.808 184.682 75.9794 167.804 75.9794L167.804 38.0684Z" fill="#F2744D"/>
<path d="M284.422 115.759C291.074 131.696 294.39 148.827 294.163 166.096L256.255 165.599C256.414 153.511 254.093 141.519 249.436 130.363L284.422 115.759Z" fill="#F73729"/>
<path fill-rule="evenodd" clip-rule="evenodd" d="M113.086 70.4707L173.971 162.948C173.971 162.948 175.416 166.251 172.918 167.816C170.419 169.38 167.964 166.743 167.964 166.743L113.086 70.4707Z" fill="black"/>
<g filter="url(#filter0_d_10438_17555)">
<path fill-rule="evenodd" clip-rule="evenodd" d="M99.7138 41C95.6132 41 92.2891 44.3242 92.2891 48.4247V56.647C92.2891 60.7476 95.6132 64.0718 99.7138 64.0718H108.703L112.746 67.7403L116.789 64.0718H125.767C129.867 64.0718 133.192 60.7476 133.192 56.647V48.4248C133.192 44.3242 129.867 41 125.767 41H99.7138Z" fill="white"/>
</g>
<path d="M100.037 57V50.1395H99.8477L98.6783 52.6899H97.3085L98.9679 49.204H101.329V57H100.037ZM105.951 57.1559C105.349 57.1559 104.83 57.0483 104.392 56.8329C103.961 56.6176 103.627 56.3132 103.389 55.9197C103.152 55.5262 103.033 55.0696 103.033 54.5498V54.4385H104.347V54.5387C104.347 54.9619 104.481 55.3109 104.748 55.5856C105.023 55.8603 105.416 55.9977 105.929 55.9977C106.441 55.9977 106.838 55.8566 107.12 55.5744C107.402 55.2923 107.544 54.9211 107.544 54.4607V54.3605C107.544 53.9076 107.402 53.5475 107.12 53.2802C106.846 53.0129 106.497 52.8793 106.073 52.8793C105.836 52.8793 105.639 52.9127 105.483 52.9795C105.335 53.0463 105.212 53.1317 105.116 53.2357C105.019 53.3322 104.941 53.4324 104.882 53.5364H103.278V49.204H108.546V50.3845H104.57V52.4783H104.759C104.841 52.367 104.945 52.263 105.071 52.1665C105.205 52.0625 105.375 51.9772 105.583 51.9103C105.799 51.8361 106.055 51.799 106.352 51.799C106.812 51.799 107.228 51.8992 107.599 52.0997C107.978 52.2927 108.279 52.5786 108.501 52.9572C108.724 53.3359 108.835 53.7999 108.835 54.3494V54.4719C108.835 55.0139 108.72 55.4854 108.49 55.8863C108.26 56.2872 107.93 56.5991 107.499 56.8218C107.068 57.0445 106.552 57.1559 105.951 57.1559ZM111.322 57.1559C111.04 57.1559 110.802 57.0631 110.609 56.8775C110.424 56.6919 110.331 56.4543 110.331 56.1647C110.331 55.8826 110.424 55.6487 110.609 55.4631C110.802 55.2775 111.04 55.1846 111.322 55.1846C111.604 55.1846 111.838 55.2775 112.024 55.4631C112.209 55.6487 112.302 55.8863 112.302 56.1759C112.302 56.4654 112.209 56.703 112.024 56.8886C111.838 57.0668 111.604 57.1559 111.322 57.1559ZM116.766 57.1559C116.186 57.1559 115.67 57.052 115.218 56.8441C114.772 56.6362 114.423 56.3392 114.171 55.9531C113.918 55.5596 113.792 55.0918 113.792 54.5498V54.3494H115.084V54.5164C115.084 54.9693 115.236 55.3294 115.541 55.5967C115.852 55.864 116.261 55.9977 116.766 55.9977C117.271 55.9977 117.664 55.8752 117.946 55.6301C118.228 55.3777 118.369 55.0621 118.369 54.6835V54.5832C118.369 54.316 118.303 54.1006 118.169 53.9373C118.043 53.7739 117.868 53.6551 117.645 53.5809C117.43 53.4992 117.185 53.4584 116.91 53.4584H115.418V52.0106L118.058 50.5293V50.3623H113.981V49.204H119.483V50.9414L116.988 52.3447V52.5117H117.445C117.816 52.5117 118.169 52.586 118.503 52.7345C118.845 52.8756 119.123 53.0946 119.338 53.3916C119.554 53.6886 119.661 54.0746 119.661 54.5498V54.6723C119.661 55.1772 119.539 55.6153 119.294 55.9865C119.056 56.3578 118.718 56.6473 118.28 56.8552C117.85 57.0557 117.345 57.1559 116.766 57.1559ZM122.224 57.1448L121.433 56.5211L127.481 49.0592L128.26 49.6829L122.224 57.1448ZM126.979 57.1225C126.422 57.1225 125.984 56.9703 125.665 56.6659C125.346 56.3615 125.186 55.9457 125.186 55.4185V55.3406C125.186 54.8134 125.346 54.3976 125.665 54.0932C125.984 53.7888 126.422 53.6366 126.979 53.6366C127.529 53.6366 127.963 53.7888 128.282 54.0932C128.609 54.3976 128.772 54.8134 128.772 55.3406V55.4185C128.772 55.9457 128.613 56.3615 128.294 56.6659C127.974 56.9703 127.536 57.1225 126.979 57.1225ZM126.979 56.2761C127.217 56.2761 127.403 56.2018 127.536 56.0533C127.677 55.8974 127.748 55.7007 127.748 55.4631V55.296C127.748 55.051 127.677 54.8542 127.536 54.7058C127.403 54.5573 127.217 54.483 126.979 54.483C126.742 54.483 126.552 54.5573 126.411 54.7058C126.278 54.8542 126.211 55.051 126.211 55.296V55.4631C126.211 55.7007 126.278 55.8974 126.411 56.0533C126.552 56.2018 126.742 56.2761 126.979 56.2761ZM122.714 52.5674C122.157 52.5674 121.719 52.4152 121.4 52.1108C121.08 51.8064 120.921 51.3943 120.921 50.8746V50.7966C120.921 50.262 121.08 49.8425 121.4 49.5381C121.719 49.2337 122.157 49.0815 122.714 49.0815C123.263 49.0815 123.701 49.2337 124.028 49.5381C124.355 49.8425 124.518 50.262 124.518 50.7966V50.8746C124.518 51.3943 124.358 51.8064 124.039 52.1108C123.72 52.4152 123.278 52.5674 122.714 52.5674ZM122.714 51.721C122.959 51.721 123.148 51.6468 123.282 51.4983C123.423 51.3498 123.493 51.153 123.493 50.908V50.7409C123.493 50.5033 123.423 50.3103 123.282 50.1618C123.148 50.0059 122.959 49.9279 122.714 49.9279C122.476 49.9279 122.287 50.0059 122.146 50.1618C122.012 50.3103 121.945 50.5033 121.945 50.7409V50.908C121.945 51.153 122.012 51.3498 122.146 51.4983C122.287 51.6468 122.476 51.721 122.714 51.721Z" fill="black"/>
<defs>
<filter id="filter0_d_10438_17555" x="77.4396" y="28.0067" width="70.6013" height="56.4392" filterUnits="userSpaceOnUse" color-interpolation-filters="sRGB">
<feFlood flood-opacity="0" result="BackgroundImageFix"/>
<feColorMatrix in="SourceAlpha" type="matrix" values="0 0 0 0 0 0 0 0 0 0 0 0 0 0 0 0 0 0 127 0" result="hardAlpha"/>
<feOffset dy="1.85619"/>
<feGaussianBlur stdDeviation="7.42475"/>
<feColorMatrix type="matrix" values="0 0 0 0 0.293333 0 0 0 0 0.333211 0 0 0 0 0.431373 0 0 0 0.2 0"/>
<feBlend mode="normal" in2="BackgroundImageFix" result="effect1_dropShadow_10438_17555"/>
<feBlend mode="normal" in="SourceGraphic" in2="effect1_dropShadow_10438_17555" result="shape"/>
</filter>
</defs>
</svg>
