<svg width="337" height="168" viewBox="0 0 337 168" fill="none" xmlns="http://www.w3.org/2000/svg">
<path d="M156.618 14.3902L156.156 14.4307L157.479 29.5497L157.941 29.5092L156.618 14.3902Z" fill="black"/>
<path d="M167.149 23.8592L166.973 13.7425L167.204 13.7383L167.381 23.855L167.149 23.8592Z" fill="black"/>
<path d="M172.325 23.8592L172.094 23.855L172.271 13.7383L172.503 13.7425L172.325 23.8592Z" fill="black"/>
<path d="M170.13 23.8592L169.898 23.855L170.075 13.7383L170.308 13.7425L170.13 23.8592Z" fill="black"/>
<path d="M164.58 13.8151L164.348 13.8232L164.701 23.9349L164.933 23.9268L164.58 13.8151Z" fill="black"/>
<path d="M159.286 14.0864L159.055 14.1025L159.76 24.1957L159.991 24.1796L159.286 14.0864Z" fill="black"/>
<path d="M162.206 24.0347L161.676 13.9305L161.908 13.9189L162.438 24.0231L162.206 24.0347Z" fill="black"/>
<path d="M182.732 14.2863L181.398 29.4043L181.861 29.4451L183.194 14.327L182.732 14.2863Z" fill="black"/>
<path d="M174.933 13.7878L174.578 23.8994L174.81 23.9076L175.165 13.796L174.933 13.7878Z" fill="black"/>
<path d="M180.215 14.0791L179.504 24.1719L179.735 24.1881L180.446 14.0953L180.215 14.0791Z" fill="black"/>
<path d="M177.27 24.0347L177.039 24.0231L177.569 13.9189L177.8 13.9305L177.27 24.0347Z" fill="black"/>
<path d="M193.364 15.5716L191.785 25.5654L192.015 25.6017L193.594 15.6079L193.364 15.5716Z" fill="black"/>
<path d="M189.566 25.2306L189.336 25.1971L190.743 15.1777L190.974 15.2102L189.566 25.2306Z" fill="black"/>
<path d="M185.49 14.536L184.426 24.5977L184.657 24.6221L185.722 14.5605L185.49 14.536Z" fill="black"/>
<path d="M188.105 14.8483L186.879 24.8916L187.109 24.9196L188.335 14.8764L188.105 14.8483Z" fill="black"/>
<path d="M146.101 15.5642L145.871 15.6006L147.454 25.5938L147.683 25.5575L146.101 15.5642Z" fill="black"/>
<path d="M149.911 25.2306L148.504 15.2102L148.734 15.1777L150.142 25.1971L149.911 25.2306Z" fill="black"/>
<path d="M153.989 14.5362L153.758 14.5605L154.815 24.6229L155.047 24.5986L153.989 14.5362Z" fill="black"/>
<path d="M151.37 14.838L151.141 14.8662L152.374 24.9086L152.603 24.8804L151.37 14.838Z" fill="black"/>
<path d="M213.715 45.0136L213.496 44.935L213.662 44.4795L213.88 44.558L213.715 45.0136Z" fill="black"/>
<path d="M197.127 7.85213L193.996 25.8984L194.678 26.0166L197.808 7.97033L197.127 7.85213Z" fill="black"/>
<path d="M233.647 27.8482L227.242 41.6074L227.663 41.8032L234.067 28.0439L233.647 27.8482Z" fill="black"/>
<path d="M224.012 23.7647L220.379 33.209L220.596 33.2924L224.229 23.8482L224.012 23.7647Z" fill="black"/>
<path d="M215.966 31.5897L215.746 31.5143L219.042 21.9473L219.26 22.0227L215.966 31.5897Z" fill="black"/>
<path d="M218.364 32.5877L218.145 32.5123L221.439 23.0732L221.658 23.1486L218.364 32.5877Z" fill="black"/>
<path d="M226.478 24.7365L222.68 34.1143L222.894 34.2011L226.693 24.8234L226.478 24.7365Z" fill="black"/>
<path d="M231.353 26.7948L227.242 36.041L227.455 36.1355L231.565 26.8893L231.353 26.7948Z" fill="black"/>
<path d="M228.916 25.7472L224.969 35.0635L225.183 35.1542L229.13 25.8379L228.916 25.7472Z" fill="black"/>
<path d="M208.81 18.8207L204.871 33.4785L205.32 33.5992L209.259 18.9413L208.81 18.8207Z" fill="black"/>
<path d="M216.519 21.1172L213.391 30.7402L213.611 30.8118L216.739 21.1887L216.519 21.1172Z" fill="black"/>
<path d="M208.895 29.3545L208.672 29.2906L211.462 19.5645L211.684 19.6283L208.895 29.3545Z" fill="black"/>
<path d="M214.081 19.8265L211.031 29.9238L211.254 29.9912L214.305 19.8939L214.081 19.8265Z" fill="black"/>
<path d="M233.902 54.1551L233.785 54.3574L233.987 54.4736L234.103 54.2713L233.902 54.1551Z" fill="black"/>
<path d="M198.578 16.503L196.641 26.4336L196.868 26.4779L198.805 16.5473L198.578 16.503Z" fill="black"/>
<path d="M201.18 17.0036L199.082 26.9014L199.308 26.9494L201.407 17.0515L201.18 17.0036Z" fill="black"/>
<path d="M206.365 18.1815L203.91 27.9971L204.135 28.0532L206.589 18.2377L206.365 18.1815Z" fill="black"/>
<path d="M201.714 27.4915L201.488 27.4392L203.766 17.5811L203.991 17.6334L201.714 27.4915Z" fill="black"/>
<path d="M243.225 32.6854L238.324 41.5381L238.528 41.6507L243.429 32.798L243.225 32.6854Z" fill="black"/>
<path d="M240.883 31.4273L236.137 40.3643L236.341 40.4728L241.087 31.5359L240.883 31.4273Z" fill="black"/>
<path d="M236.167 29.0242L231.738 38.1211L231.946 38.2224L236.375 29.1255L236.167 29.0242Z" fill="black"/>
<path d="M238.517 30.2161L233.93 39.2344L234.136 39.3393L238.723 30.3211L238.517 30.2161Z" fill="black"/>
<path d="M256.591 41.0394L247.875 53.4639L248.255 53.7303L256.971 41.3058L256.591 41.0394Z" fill="black"/>
<path d="M277.247 58.0117L266.461 68.6885L266.787 69.0182L277.573 58.3414L277.247 58.0117Z" fill="black"/>
<path d="M265.169 47.4639L258.805 55.3311L258.985 55.4773L265.349 47.6101L265.169 47.4639Z" fill="black"/>
<path d="M267.508 49.292L261.145 57.1592L261.325 57.3054L267.689 49.4382L267.508 49.292Z" fill="black"/>
<path d="M269.222 50.8708L262.578 58.5029L262.753 58.6549L269.397 51.0227L269.222 50.8708Z" fill="black"/>
<path d="M263.108 45.8194L256.875 53.7891L257.058 53.9323L263.291 45.9626L263.108 45.8194Z" fill="black"/>
<path d="M253.095 50.9577L252.906 50.8215L258.853 42.6357L259.041 42.7719L253.095 50.9577Z" fill="black"/>
<path d="M260.971 44.2149L254.875 52.29L255.06 52.4295L261.156 44.3544L260.971 44.2149Z" fill="black"/>
<path d="M271.226 52.6214L264.457 60.1416L264.629 60.2964L271.398 52.7762L271.226 52.6214Z" fill="black"/>
<path d="M275.091 56.2353L268.055 63.5068L268.222 63.6685L275.259 56.397L275.091 56.2353Z" fill="black"/>
<path d="M266.435 61.9687L266.266 61.8105L273.167 54.4102L273.336 54.5693L266.435 61.9687Z" fill="black"/>
<path d="M233.902 54.1551L233.785 54.3574L233.987 54.4736L234.103 54.2713L233.902 54.1551Z" fill="black"/>
<path d="M284.213 65.8274L276.582 72.4727L276.734 72.6472L284.365 66.002L284.213 65.8274Z" fill="black"/>
<path d="M282.442 63.8464L274.922 70.6152L275.077 70.7872L282.597 64.0184L282.442 63.8464Z" fill="black"/>
<path d="M278.842 59.972L271.57 67.0088L271.732 67.1758L279.004 60.1391L278.842 59.972Z" fill="black"/>
<path d="M273.416 68.966L273.258 68.7964L280.658 61.8955L280.816 62.0652L273.416 68.966Z" fill="black"/>
<path d="M242.799 44.1271L242.602 44.0077L247.811 35.335L248.01 35.4543L242.799 44.1271Z" fill="black"/>
<path d="M244.908 45.4209L244.711 45.2974L250.074 36.7168L250.27 36.8404L244.908 45.4209Z" fill="black"/>
<path d="M254.486 39.6061L248.828 47.9941L249.02 48.1236L254.678 39.7355L254.486 39.6061Z" fill="black"/>
<path d="M246.988 46.7506L246.793 46.6239L252.304 38.1387L252.499 38.2643L246.988 46.7506Z" fill="black"/>
<path d="M321.509 165.372H303.094V165.605H321.509V165.372Z" fill="black"/>
<path d="M316.283 125.981L301.625 129.92L301.746 130.369L316.403 126.43L316.283 125.981Z" fill="black"/>
<path d="M318.692 136.401L308.762 138.34L308.806 138.567L318.736 136.628L318.692 136.401Z" fill="black"/>
<path d="M318.78 139.261L309.387 141.428L309.431 141.655L318.825 139.488L318.78 139.261Z" fill="black"/>
<path d="M319.631 141.645L309.637 143.225L309.673 143.454L319.667 141.875L319.631 141.645Z" fill="black"/>
<path d="M318.163 133.809L308.266 135.907L308.314 136.134L318.211 134.035L318.163 133.809Z" fill="black"/>
<path d="M316.989 128.67L307.172 131.121L307.228 131.346L317.045 128.894L316.989 128.67Z" fill="black"/>
<path d="M307.791 133.736L307.738 133.51L317.596 131.234L317.649 131.461L307.791 133.736Z" fill="black"/>
<path d="M321.537 151.735L306.359 153.101L306.401 153.564L321.579 152.198L321.537 151.735Z" fill="black"/>
<path d="M310.029 145.889L309.996 145.658L320.015 144.25L320.049 144.479L310.029 145.889Z" fill="black"/>
<path d="M320.676 149.517L310.613 150.583L310.638 150.814L320.7 149.748L320.676 149.517Z" fill="black"/>
<path d="M320.375 146.896L310.332 148.122L310.36 148.352L320.403 147.126L320.375 146.896Z" fill="black"/>
<path d="M311.378 163.132L311.375 162.9L321.491 162.724L321.495 162.955L311.378 163.132Z" fill="black"/>
<path d="M321.408 160.055L311.297 160.412L311.305 160.644L321.417 160.288L321.408 160.055Z" fill="black"/>
<path d="M321.295 154.622L311.176 155.33L311.192 155.561L321.311 154.853L321.295 154.622Z" fill="black"/>
<path d="M311.207 158.191L311.195 157.96L321.298 157.43L321.31 157.662L311.207 158.191Z" fill="black"/>
<path d="M303.712 119.48L303.637 119.26L313.204 115.966L313.279 116.185L303.712 119.48Z" fill="black"/>
<path d="M305.936 126.555L305.871 126.332L315.598 123.543L315.663 123.766L305.936 126.555Z" fill="black"/>
<path d="M315.088 120.91L305.195 124.28L305.263 124.503L315.156 121.134L315.088 120.91Z" fill="black"/>
<path d="M307.185 101.136L293.426 107.54L293.622 107.961L307.381 101.556L307.185 101.136Z" fill="black"/>
<path d="M294.254 77.6092L281.07 87.0547L281.34 87.4318L294.524 77.9862L294.254 77.6092Z" fill="black"/>
<path d="M302.422 91.8055L293.57 96.7061L293.683 96.9094L302.535 92.0089L302.422 91.8055Z" fill="black"/>
<path d="M291.222 92.6314L291.102 92.4324L299.775 87.2217L299.895 87.4196L291.222 92.6314Z" fill="black"/>
<path d="M292.605 94.9148L292.484 94.7158L301.28 89.1465L301.4 89.3444L292.605 94.9148Z" fill="black"/>
<path d="M303.698 94.1365L294.762 98.8818L294.87 99.0862L303.806 94.3409L303.698 94.1365Z" fill="black"/>
<path d="M306.122 98.868L297.023 103.296L297.125 103.504L306.223 99.0761L306.122 98.868Z" fill="black"/>
<path d="M304.924 96.4886L295.906 101.075L296.011 101.281L305.028 96.6949L304.924 96.4886Z" fill="black"/>
<path d="M289.932 90.5223L289.809 90.3254L298.39 84.9639L298.513 85.1607L289.932 90.5223Z" fill="black"/>
<path d="M295.486 80.517L287.098 86.1748L287.227 86.3667L295.615 80.7089L295.486 80.517Z" fill="black"/>
<path d="M288.602 88.4356L288.477 88.2408L296.963 82.7295L297.09 82.9243L288.602 88.4356Z" fill="black"/>
<path d="M287.596 69.8825L279.73 76.2471L279.877 76.4278L287.742 70.0632L287.596 69.8825Z" fill="black"/>
<path d="M289.281 71.9587L281.312 78.1914L281.456 78.3745L289.425 72.1418L289.281 71.9587Z" fill="black"/>
<path d="M284.406 82.32L284.27 82.1325L292.455 76.1846L292.591 76.3731L284.406 82.32Z" fill="black"/>
<path d="M290.895 74.0592L282.82 80.1553L282.96 80.34L291.035 74.2439L290.895 74.0592Z" fill="black"/>
<path d="M302.029 114.832L301.945 114.616L311.392 110.99L311.476 111.207L302.029 114.832Z" fill="black"/>
<path d="M310.413 108.521L301.035 112.319L301.122 112.534L310.5 108.735L310.413 108.521Z" fill="black"/>
<path d="M308.328 103.646L299.082 107.755L299.176 107.967L308.422 103.858L308.328 103.646Z" fill="black"/>
<path d="M309.422 106.096L300.105 110.043L300.196 110.257L309.512 106.31L309.422 106.096Z" fill="black"/>
<path d="M130.574 18.948L130.125 19.0684L134.053 33.729L134.502 33.6086L130.574 18.948Z" fill="black"/>
<path d="M123.513 31.5897L120.219 22.0227L120.438 21.9473L123.733 31.5143L123.513 31.5897Z" fill="black"/>
<path d="M115.471 23.7546L115.254 23.8379L118.88 33.2847L119.097 33.2013L115.471 23.7546Z" fill="black"/>
<path d="M117.994 22.8454L117.777 22.9287L121.355 32.2484L121.572 32.1651L117.994 22.8454Z" fill="black"/>
<path d="M122.947 21.1101L122.727 21.1816L125.853 30.8042L126.073 30.7327L122.947 21.1101Z" fill="black"/>
<path d="M130.586 29.3545L127.797 19.6283L128.02 19.5645L130.809 29.2906L130.586 29.3545Z" fill="black"/>
<path d="M125.48 20.3158L125.258 20.3838L128.216 30.0595L128.438 29.9915L125.48 20.3158Z" fill="black"/>
<path d="M105.702 27.9573L105.281 28.1533L111.695 41.9081L112.116 41.7121L105.702 27.9573Z" fill="black"/>
<path d="M113 24.7248L112.785 24.8115L116.575 34.1926L116.79 34.1059L113 24.7248Z" fill="black"/>
<path d="M108.13 26.7883L107.918 26.8828L112.034 36.1269L112.246 36.0323L108.13 26.7883Z" fill="black"/>
<path d="M110.569 25.7344L110.355 25.8252L114.307 35.1394L114.521 35.0486L110.569 25.7344Z" fill="black"/>
<path d="M142.427 7.85289L141.742 7.97363L144.94 26.1085L145.625 25.9877L142.427 7.85289Z" fill="black"/>
<path d="M96.2619 32.6891L96.0586 32.8018L100.964 41.651L101.167 41.5383L96.2619 32.6891Z" fill="black"/>
<path d="M98.5911 31.4275L98.3867 31.5361L103.137 40.4696L103.341 40.361L98.5911 31.4275Z" fill="black"/>
<path d="M103.31 29.0255L103.102 29.127L107.537 38.2208L107.745 38.1193L103.31 29.0255Z" fill="black"/>
<path d="M100.944 30.2065L100.738 30.3115L105.332 39.3266L105.538 39.2215L100.944 30.2065Z" fill="black"/>
<path d="M140.911 16.4862L140.684 16.5303L142.612 26.4625L142.84 26.4184L140.911 16.4862Z" fill="black"/>
<path d="M138.281 17.0075L138.055 17.0557L140.158 26.9524L140.385 26.9043L138.281 17.0075Z" fill="black"/>
<path d="M133.131 18.196L132.906 18.252L135.354 28.0692L135.579 28.0132L133.131 18.196Z" fill="black"/>
<path d="M137.764 27.4915L135.488 17.6334L135.714 17.5811L137.99 27.4392L137.764 27.4915Z" fill="black"/>
<path d="M89.9898 26.7016L89.3867 27.0498L98.594 42.9973L99.1971 42.6491L89.9898 26.7016Z" fill="black"/>
<path d="M62.4647 58.1261L62.1367 58.4541L72.869 69.1864L73.1971 68.8584L62.4647 58.1261Z" fill="black"/>
<path d="M70.2567 50.8697L70.082 51.0215L76.7199 58.6575L76.8946 58.5057L70.2567 50.8697Z" fill="black"/>
<path d="M72.3153 49.0376L72.1406 49.1895L78.8122 56.8643L78.9869 56.7124L72.3153 49.0376Z" fill="black"/>
<path d="M74.3174 47.467L74.1367 47.6133L80.5047 55.4771L80.6854 55.3308L74.3174 47.467Z" fill="black"/>
<path d="M68.2696 52.6244L68.0977 52.7793L74.8678 60.2983L75.0398 60.1435L68.2696 52.6244Z" fill="black"/>
<path d="M64.386 56.237L64.2188 56.3984L71.2472 63.6766L71.4144 63.5151L64.386 56.237Z" fill="black"/>
<path d="M73.0493 61.9687L66.1484 54.5693L66.3181 54.4102L73.219 61.8105L73.0493 61.9687Z" fill="black"/>
<path d="M82.755 41.1519L82.375 41.418L91.08 53.85L91.46 53.5839L82.755 41.1519Z" fill="black"/>
<path d="M76.3863 45.8207L76.2031 45.9639L82.4323 53.9368L82.6155 53.7937L76.3863 45.8207Z" fill="black"/>
<path d="M86.3855 50.9577L80.4375 42.7719L80.626 42.6357L86.5729 50.8215L86.3855 50.9577Z" fill="black"/>
<path d="M78.5012 44.2064L78.3164 44.3457L84.4055 52.4262L84.5903 52.2869L78.5012 44.2064Z" fill="black"/>
<path d="M96.6834 44.1271L91.4727 35.4543L91.6706 35.335L96.8824 44.0077L96.6834 44.1271Z" fill="black"/>
<path d="M94.5803 45.4209L89.2188 36.8404L89.4156 36.7168L94.7772 45.2974L94.5803 45.4209Z" fill="black"/>
<path d="M84.9614 39.6011L84.7695 39.7305L90.4279 48.1194L90.6198 47.99L84.9614 39.6011Z" fill="black"/>
<path d="M92.4918 46.7506L86.9805 38.2643L87.1752 38.1387L92.6865 46.6239L92.4918 46.7506Z" fill="black"/>
<path d="M55.2768 65.8292L55.125 66.0039L62.7618 72.6425L62.9136 72.4678L55.2768 65.8292Z" fill="black"/>
<path d="M57.0338 63.8466L56.8789 64.0186L64.3987 70.7894L64.5535 70.6174L57.0338 63.8466Z" fill="black"/>
<path d="M60.6498 59.9744L60.4883 60.1416L67.7672 67.1707L67.9287 67.0035L60.6498 59.9744Z" fill="black"/>
<path d="M66.0645 68.966L58.6641 62.0652L58.8232 61.8955L66.2226 68.7964L66.0645 68.966Z" fill="black"/>
<path d="M45.4301 78.3651L45.1641 78.7451L57.597 87.4507L57.863 87.0707L45.4301 78.3651Z" fill="black"/>
<path d="M48.2597 92.6314L39.5859 87.4196L39.7064 87.2217L48.3791 92.4324L48.2597 92.6314Z" fill="black"/>
<path d="M37.0541 91.8045L36.9414 92.0078L45.7906 96.913L45.9034 96.7097L37.0541 91.8045Z" fill="black"/>
<path d="M38.1127 89.9998L38 90.2031L46.8492 95.1083L46.9619 94.905L38.1127 89.9998Z" fill="black"/>
<path d="M49.5493 90.5223L40.9688 85.1607L41.0923 84.9639L49.6729 90.3254L49.5493 90.5223Z" fill="black"/>
<path d="M43.7976 80.3499L43.668 80.542L52.0658 86.208L52.1954 86.0159L43.7976 80.3499Z" fill="black"/>
<path d="M50.8759 88.4356L42.3906 82.9243L42.5163 82.7295L51.0026 88.2408L50.8759 88.4356Z" fill="black"/>
<path d="M32.1648 101.264L31.9688 101.685L45.7235 108.099L45.9196 107.678L32.1648 101.264Z" fill="black"/>
<path d="M35.7883 94.1287L35.6797 94.333L44.6132 99.083L44.7218 98.8787L35.7883 94.1287Z" fill="black"/>
<path d="M33.3788 98.8594L33.2773 99.0674L42.3712 103.503L42.4726 103.295L33.3788 98.8594Z" fill="black"/>
<path d="M34.5582 96.4911L34.4531 96.6973L43.4682 101.291L43.5732 101.084L34.5582 96.4911Z" fill="black"/>
<path d="M37.4572 114.832L28.0117 111.207L28.0955 110.99L37.541 114.616L37.4572 114.832Z" fill="black"/>
<path d="M29.0554 108.535L28.9688 108.75L38.3508 112.541L38.4375 112.326L29.0554 108.535Z" fill="black"/>
<path d="M31.1375 103.659L31.043 103.871L40.287 107.987L40.3816 107.774L31.1375 103.659Z" fill="black"/>
<path d="M30.0791 106.07L29.9883 106.284L39.3018 110.238L39.3926 110.024L30.0791 106.07Z" fill="black"/>
<path d="M51.8611 69.8887L51.7148 70.0693L59.5779 76.4367L59.7242 76.256L51.8611 69.8887Z" fill="black"/>
<path d="M50.2173 71.9535L50.0742 72.1367L58.0472 78.3659L58.1903 78.1827L50.2173 71.9535Z" fill="black"/>
<path d="M55.0725 82.32L46.8867 76.3731L47.0229 76.1846L55.2086 82.1325L55.0725 82.32Z" fill="black"/>
<path d="M48.5963 74.0613L48.457 74.2461L56.5375 80.3351L56.6768 80.1503L48.5963 74.0613Z" fill="black"/>
<path d="M18.4428 152.153L18.4023 152.615L33.5213 153.938L33.5617 153.476L18.4428 152.153Z" fill="black"/>
<path d="M19.8567 141.62L19.8203 141.85L29.8136 143.432L29.8499 143.203L19.8567 141.62Z" fill="black"/>
<path d="M19.9621 139.487L19.9258 139.717L30.153 141.337L30.1893 141.107L19.9621 139.487Z" fill="black"/>
<path d="M20.7785 136.417L20.7344 136.645L30.6663 138.575L30.7105 138.348L20.7785 136.417Z" fill="black"/>
<path d="M29.4491 145.889L19.4297 144.479L19.4622 144.25L29.4826 145.658L29.4491 145.889Z" fill="black"/>
<path d="M18.8134 149.502L18.7891 149.733L28.8515 150.791L28.8758 150.56L18.8134 149.502Z" fill="black"/>
<path d="M19.1141 146.888L19.0859 147.118L29.1283 148.351L29.1565 148.122L19.1141 146.888Z" fill="black"/>
<path d="M23.0774 126.109L22.957 126.558L37.6166 130.486L37.737 130.037L23.0774 126.109Z" fill="black"/>
<path d="M21.3098 133.814L21.2617 134.04L31.1584 136.144L31.2066 135.917L21.3098 133.814Z" fill="black"/>
<path d="M22.5052 128.66L22.4492 128.885L32.2665 131.332L32.3225 131.108L22.5052 128.66Z" fill="black"/>
<path d="M31.6901 133.736L21.832 131.461L21.8844 131.234L31.7425 133.51L31.6901 133.736Z" fill="black"/>
<path d="M35.7662 119.48L26.1992 116.185L26.2746 115.966L35.8416 119.26L35.7662 119.48Z" fill="black"/>
<path d="M25.4309 118.48L25.3594 118.7L34.982 121.827L35.0535 121.607L25.4309 118.48Z" fill="black"/>
<path d="M33.5426 126.555L23.8164 123.766L23.8803 123.543L33.6065 126.332L33.5426 126.555Z" fill="black"/>
<path d="M24.6344 121.004L24.5664 121.227L34.2421 124.185L34.3101 123.962L24.6344 121.004Z" fill="black"/>
<path d="M28.109 163.132L17.9922 162.955L17.9964 162.724L28.1131 162.9L28.109 163.132Z" fill="black"/>
<path d="M18.0667 160.084L18.0586 160.316L28.1702 160.67L28.1784 160.437L18.0667 160.084Z" fill="black"/>
<path d="M18.3482 154.794L18.332 155.024L28.4252 155.73L28.4413 155.499L18.3482 154.794Z" fill="black"/>
<path d="M28.2722 158.191L18.168 157.662L18.1795 157.43L28.2837 157.96L28.2722 158.191Z" fill="black"/>
<path d="M19.3593 110.371L19.1211 111.025L36.4252 117.324L36.6633 116.669L19.3593 110.371Z" fill="black"/>
<path d="M292.463 62.4792L278.117 74.0244L278.554 74.5669L292.9 63.0217L292.463 62.4792Z" fill="black"/>
<path d="M249.492 26.9109L240.285 42.8584L240.888 43.2066L250.096 27.2591L249.492 26.9109Z" fill="black"/>
<path d="M47.3148 62.2019L46.8672 62.7354L60.9736 74.572L61.4212 74.0386L47.3148 62.2019Z" fill="black"/>
<path d="M28.2154 165.141H9.80078V165.837H28.2154V165.141Z" fill="black"/>
<path d="M321.509 165.141H303.094V165.837H321.509V165.141Z" fill="black"/>
<path d="M320.001 110.372L302.699 116.676L302.938 117.33L320.239 111.026L320.001 110.372Z" fill="black"/>
<path d="M314.037 118.469L304.414 121.598L304.486 121.818L314.109 118.689L314.037 118.469Z" fill="black"/>
<path d="M311.53 165.489H311.251C311.251 87.4586 247.768 23.9746 169.737 23.9746C91.7058 23.9746 28.2228 87.4586 28.2228 165.489H27.9453C27.9453 146.348 31.6942 127.778 39.0873 110.296C46.229 93.4129 56.4536 78.2529 69.4753 65.226C82.3909 52.2765 97.6975 41.9574 114.546 34.8412C132.026 27.4481 150.596 23.6992 169.737 23.6992C188.878 23.6992 207.448 27.4481 224.93 34.8412C241.814 41.9829 256.973 52.2065 270 65.2281C282.95 78.1441 293.269 93.4506 300.387 110.299C307.783 127.778 311.53 146.348 311.53 165.489Z" fill="black"/>
<path d="M36.5677 62.3379V57.8342H36.4434L35.6757 59.5085H34.7765L35.8658 57.2201H37.4158V62.3379H36.5677ZM40.1392 62.4402C39.5397 62.4402 39.0596 62.2721 38.6989 61.9358C38.3382 61.5995 38.1579 61.0926 38.1579 60.415V59.1429C38.1579 58.48 38.3382 57.978 38.6989 57.6368C39.0596 57.2907 39.5397 57.1177 40.1392 57.1177C40.7436 57.1177 41.2237 57.2907 41.5795 57.6368C41.9402 57.978 42.1206 58.48 42.1206 59.1429V60.415C42.1206 61.0926 41.9402 61.5995 41.5795 61.9358C41.2237 62.2721 40.7436 62.4402 40.1392 62.4402ZM40.1392 61.6799C40.5243 61.6799 40.807 61.5727 40.9873 61.3582C41.1725 61.1437 41.2652 60.8391 41.2652 60.4443V59.1063C41.2652 58.7067 41.1652 58.402 40.9654 58.1924C40.7656 57.9829 40.4902 57.8781 40.1392 57.8781C39.7785 57.8781 39.5007 57.9853 39.3058 58.1998C39.1108 58.4142 39.0133 58.7164 39.0133 59.1063V60.4443C39.0133 60.8488 39.1059 61.1559 39.2911 61.3655C39.4812 61.5751 39.7639 61.6799 40.1392 61.6799Z" fill="#151515"/>
<path d="M298.671 62.4402C298.29 62.4402 297.952 62.372 297.654 62.2355C297.362 62.0991 297.133 61.9041 296.967 61.6506C296.801 61.3923 296.719 61.0852 296.719 60.7294V60.5978H297.567V60.7075C297.567 61.0048 297.667 61.2412 297.866 61.4167C298.071 61.5921 298.339 61.6799 298.671 61.6799C299.002 61.6799 299.26 61.5995 299.446 61.4386C299.631 61.2729 299.723 61.0657 299.723 60.8172V60.7514C299.723 60.5759 299.68 60.4345 299.592 60.3273C299.509 60.2201 299.394 60.1421 299.248 60.0934C299.107 60.0397 298.946 60.0129 298.766 60.0129H297.786V59.0625L299.519 58.0901V57.9804H296.843V57.2201H300.455V58.3606L298.817 59.2818V59.3915H299.117C299.36 59.3915 299.592 59.4402 299.811 59.5377C300.035 59.6303 300.218 59.7741 300.359 59.9691C300.501 60.164 300.572 60.4175 300.572 60.7294V60.8099C300.572 61.1413 300.491 61.4289 300.33 61.6726C300.174 61.9163 299.952 62.1064 299.665 62.2428C299.382 62.3744 299.051 62.4402 298.671 62.4402ZM302.952 62.4402C302.557 62.4402 302.216 62.3696 301.928 62.2282C301.646 62.0869 301.426 61.887 301.27 61.6287C301.114 61.3704 301.036 61.0706 301.036 60.7294V60.6563H301.899V60.7221C301.899 60.9999 301.987 61.229 302.162 61.4094C302.343 61.5897 302.601 61.6799 302.937 61.6799C303.274 61.6799 303.534 61.5873 303.72 61.4021C303.905 61.2168 303.997 60.9731 303.997 60.6709V60.6051C303.997 60.3078 303.905 60.0714 303.72 59.896C303.539 59.7205 303.31 59.6327 303.032 59.6327C302.876 59.6327 302.747 59.6547 302.645 59.6986C302.547 59.7424 302.467 59.7985 302.404 59.8667C302.34 59.9301 302.289 59.9959 302.25 60.0641H301.197V57.2201H304.655V57.995H302.045V59.3695H302.17C302.223 59.2964 302.292 59.2282 302.374 59.1648C302.462 59.0966 302.574 59.0405 302.711 58.9967C302.852 58.9479 303.02 58.9236 303.215 58.9236C303.517 58.9236 303.79 58.9894 304.034 59.121C304.283 59.2477 304.48 59.4353 304.626 59.6839C304.772 59.9325 304.846 60.2371 304.846 60.5978V60.6783C304.846 61.0341 304.77 61.3436 304.619 61.6068C304.468 61.87 304.251 62.0747 303.968 62.2209C303.686 62.3671 303.347 62.4402 302.952 62.4402Z" fill="#151515"/>
<path d="M81.45 27.1523V22.6486H81.3257L80.558 24.3229H79.6588L80.7481 22.0345H82.2981V27.1523H81.45ZM84.8753 27.2547C84.4805 27.2547 84.1393 27.184 83.8517 27.0427C83.569 26.9013 83.3497 26.7015 83.1937 26.4432C83.0378 26.1848 82.9598 25.8851 82.9598 25.5439V25.4708H83.8225V25.5366C83.8225 25.8144 83.9102 26.0435 84.0857 26.2238C84.266 26.4042 84.5244 26.4943 84.8607 26.4943C85.197 26.4943 85.4578 26.4017 85.643 26.2165C85.8282 26.0313 85.9208 25.7876 85.9208 25.4854V25.4196C85.9208 25.1223 85.8282 24.8859 85.643 24.7104C85.4626 24.5349 85.2336 24.4472 84.9557 24.4472C84.7998 24.4472 84.6706 24.4691 84.5682 24.513C84.4708 24.5569 84.3903 24.6129 84.327 24.6812C84.2636 24.7445 84.2124 24.8103 84.1734 24.8786H83.1206V22.0345H86.5788V22.8095H83.9687V24.184H84.093C84.1466 24.1109 84.2149 24.0427 84.2977 23.9793C84.3855 23.911 84.4976 23.855 84.634 23.8111C84.7754 23.7624 84.9435 23.738 85.1385 23.738C85.4407 23.738 85.7137 23.8038 85.9574 23.9354C86.2059 24.0621 86.4033 24.2498 86.5496 24.4984C86.6958 24.747 86.7689 25.0516 86.7689 25.4123V25.4927C86.7689 25.8485 86.6934 26.158 86.5423 26.4212C86.3912 26.6844 86.1743 26.8891 85.8916 27.0354C85.6089 27.1816 85.2701 27.2547 84.8753 27.2547Z" fill="#151515"/>
<path d="M131.988 6V5.40779C131.988 5.04711 132.047 4.75222 132.164 4.52314C132.286 4.28918 132.459 4.09909 132.683 3.95287C132.907 3.80177 133.18 3.67748 133.502 3.58L133.97 3.43377C134.16 3.37041 134.321 3.29486 134.452 3.20712C134.584 3.11939 134.686 3.01216 134.759 2.88543C134.832 2.75383 134.869 2.6003 134.869 2.42483V2.39558C134.869 2.13238 134.779 1.92523 134.598 1.77413C134.418 1.61816 134.177 1.54017 133.875 1.54017C133.572 1.54017 133.326 1.62303 133.136 1.78875C132.946 1.9496 132.851 2.18843 132.851 2.50525V2.62954H132.003V2.51987C132.003 2.14944 132.086 1.83506 132.252 1.57673C132.417 1.3184 132.641 1.121 132.924 0.984523C133.207 0.848047 133.524 0.779809 133.875 0.779809C134.226 0.779809 134.54 0.848047 134.818 0.984523C135.1 1.11612 135.32 1.30134 135.476 1.54017C135.637 1.77901 135.717 2.05927 135.717 2.38096V2.45407C135.717 2.78064 135.651 3.05603 135.52 3.28024C135.388 3.50445 135.205 3.68966 134.971 3.83589C134.742 3.97724 134.481 4.09422 134.189 4.18682L133.736 4.32574C133.516 4.39397 133.341 4.46709 133.209 4.54507C133.083 4.62306 132.992 4.71323 132.939 4.81559C132.885 4.91307 132.858 5.03736 132.858 5.18846V5.23964H135.673V6H131.988ZM138.224 6.10236C137.624 6.10236 137.144 5.9342 136.784 5.59788C136.423 5.26157 136.242 4.75466 136.242 4.07716V2.80501C136.242 2.14213 136.423 1.64009 136.784 1.2989C137.144 0.952841 137.624 0.779809 138.224 0.779809C138.828 0.779809 139.308 0.952841 139.664 1.2989C140.025 1.64009 140.205 2.14213 140.205 2.80501V4.07716C140.205 4.75466 140.025 5.26157 139.664 5.59788C139.308 5.9342 138.828 6.10236 138.224 6.10236ZM138.224 5.34199C138.609 5.34199 138.892 5.23476 139.072 5.0203C139.257 4.80584 139.35 4.50121 139.35 4.1064V2.76845C139.35 2.36877 139.25 2.06414 139.05 1.85455C138.85 1.64497 138.575 1.54017 138.224 1.54017C137.863 1.54017 137.585 1.6474 137.39 1.86187C137.195 2.07633 137.098 2.37852 137.098 2.76845V4.1064C137.098 4.51095 137.191 4.81802 137.376 5.02761C137.566 5.2372 137.849 5.34199 138.224 5.34199Z" fill="#151515"/>
<path d="M200.332 6V5.40779C200.332 5.04711 200.39 4.75222 200.507 4.52314C200.629 4.28918 200.802 4.09909 201.026 3.95287C201.25 3.80177 201.523 3.67748 201.845 3.58L202.313 3.43377C202.503 3.37041 202.664 3.29486 202.795 3.20712C202.927 3.11939 203.029 3.01216 203.103 2.88543C203.176 2.75383 203.212 2.6003 203.212 2.42483V2.39558C203.212 2.13238 203.122 1.92523 202.942 1.77413C202.761 1.61816 202.52 1.54017 202.218 1.54017C201.916 1.54017 201.67 1.62303 201.479 1.78875C201.289 1.9496 201.194 2.18843 201.194 2.50525V2.62954H200.346V2.51987C200.346 2.14944 200.429 1.83506 200.595 1.57673C200.76 1.3184 200.985 1.121 201.267 0.984523C201.55 0.848047 201.867 0.779809 202.218 0.779809C202.569 0.779809 202.883 0.848047 203.161 0.984523C203.444 1.11612 203.663 1.30134 203.819 1.54017C203.98 1.77901 204.06 2.05927 204.06 2.38096V2.45407C204.06 2.78064 203.994 3.05603 203.863 3.28024C203.731 3.50445 203.548 3.68966 203.315 3.83589C203.085 3.97724 202.825 4.09422 202.532 4.18682L202.079 4.32574C201.86 4.39397 201.684 4.46709 201.553 4.54507C201.426 4.62306 201.336 4.71323 201.282 4.81559C201.228 4.91307 201.202 5.03736 201.202 5.18846V5.23964H204.016V6H200.332ZM206.421 6.10236C206.026 6.10236 205.685 6.03168 205.397 5.89033C205.115 5.74898 204.895 5.54914 204.739 5.29081C204.583 5.03249 204.505 4.73273 204.505 4.39154V4.31843H205.368V4.38423C205.368 4.66205 205.456 4.89114 205.631 5.07148C205.812 5.25182 206.07 5.34199 206.406 5.34199C206.743 5.34199 207.003 5.24938 207.189 5.06417C207.374 4.87895 207.466 4.63524 207.466 4.33305V4.26725C207.466 3.96993 207.374 3.73353 207.189 3.55806C207.008 3.38259 206.779 3.29486 206.501 3.29486C206.345 3.29486 206.216 3.31679 206.114 3.36066C206.016 3.40453 205.936 3.46058 205.872 3.52882C205.809 3.59218 205.758 3.65798 205.719 3.72622H204.666V0.882166H208.124V1.65715H205.514V3.03166H205.639C205.692 2.95854 205.76 2.89031 205.843 2.82694C205.931 2.75871 206.043 2.70265 206.18 2.65879C206.321 2.61004 206.489 2.58567 206.684 2.58567C206.986 2.58567 207.259 2.65147 207.503 2.78308C207.751 2.9098 207.949 3.09746 208.095 3.34604C208.241 3.59462 208.314 3.89925 208.314 4.25994V4.34036C208.314 4.69617 208.239 5.00568 208.088 5.26888C207.937 5.53208 207.72 5.7368 207.437 5.88302C207.154 6.02924 206.816 6.10236 206.421 6.10236Z" fill="#151515"/>
<path d="M254.448 24.8465C254.068 24.8465 253.73 24.7783 253.432 24.6418C253.14 24.5053 252.911 24.3103 252.745 24.0569C252.579 23.7986 252.496 23.4915 252.496 23.1357V23.0041H253.344V23.1137C253.344 23.4111 253.444 23.6475 253.644 23.8229C253.849 23.9984 254.117 24.0861 254.448 24.0861C254.78 24.0861 255.038 24.0057 255.223 23.8449C255.409 23.6791 255.501 23.472 255.501 23.2234V23.1576C255.501 22.9821 255.457 22.8408 255.37 22.7336C255.287 22.6263 255.172 22.5483 255.026 22.4996C254.885 22.446 254.724 22.4192 254.544 22.4192H253.564V21.4687L255.297 20.4963V20.3867H252.621V19.6263H256.232V20.7669L254.595 21.6881V21.7977H254.894C255.138 21.7977 255.37 21.8465 255.589 21.944C255.813 22.0366 255.996 22.1803 256.137 22.3753C256.279 22.5703 256.349 22.8237 256.349 23.1357V23.2161C256.349 23.5475 256.269 23.8351 256.108 24.0788C255.952 24.3225 255.73 24.5126 255.443 24.6491C255.16 24.7807 254.829 24.8465 254.448 24.8465ZM258.876 24.8465C258.277 24.8465 257.796 24.6783 257.436 24.342C257.075 24.0057 256.895 23.4988 256.895 22.8213V21.5492C256.895 20.8863 257.075 20.3842 257.436 20.043C257.796 19.697 258.277 19.5239 258.876 19.5239C259.48 19.5239 259.961 19.697 260.316 20.043C260.677 20.3842 260.857 20.8863 260.857 21.5492V22.8213C260.857 23.4988 260.677 24.0057 260.316 24.342C259.961 24.6783 259.48 24.8465 258.876 24.8465ZM258.876 24.0861C259.261 24.0861 259.544 23.9789 259.724 23.7644C259.909 23.55 260.002 23.2453 260.002 22.8505V21.5126C260.002 21.1129 259.902 20.8083 259.702 20.5987C259.502 20.3891 259.227 20.2843 258.876 20.2843C258.515 20.2843 258.238 20.3915 258.043 20.606C257.848 20.8205 257.75 21.1227 257.75 21.5126V22.8505C257.75 23.2551 257.843 23.5622 258.028 23.7718C258.218 23.9813 258.501 24.0861 258.876 24.0861Z" fill="#151515"/>
<path d="M11.7649 110.98C11.3701 110.98 11.029 110.91 10.7414 110.768C10.4587 110.627 10.2393 110.427 10.0834 110.169C9.9274 109.91 9.84942 109.611 9.84942 109.269V109.196H10.7121V109.262C10.7121 109.54 10.7999 109.769 10.9753 109.949C11.1557 110.13 11.414 110.22 11.7503 110.22C12.0866 110.22 12.3474 110.127 12.5326 109.942C12.7178 109.757 12.8105 109.513 12.8105 109.211V109.145C12.8105 108.848 12.7178 108.611 12.5326 108.436C12.3523 108.261 12.1232 108.173 11.8454 108.173C11.6894 108.173 11.5602 108.195 11.4579 108.239C11.3604 108.282 11.28 108.339 11.2166 108.407C11.1532 108.47 11.1021 108.536 11.0631 108.604H10.0103V105.76H13.4685V106.535H10.8584V107.91H10.9827C11.0363 107.836 11.1045 107.768 11.1874 107.705C11.2751 107.637 11.3872 107.581 11.5237 107.537C11.665 107.488 11.8332 107.464 12.0282 107.464C12.3303 107.464 12.6033 107.529 12.847 107.661C13.0956 107.788 13.293 107.975 13.4392 108.224C13.5854 108.473 13.6585 108.777 13.6585 109.138V109.218C13.6585 109.574 13.583 109.884 13.4319 110.147C13.2808 110.41 13.0639 110.615 12.7812 110.761C12.4985 110.907 12.1598 110.98 11.7649 110.98Z" fill="#151515"/>
<path d="M329.036 110.717V109.679H326.478V108.692L328.342 105.599H329.885V108.918H330.74V109.679H329.885V110.717H329.036ZM327.296 108.918H329.036V106.14H328.912L327.296 108.809V108.918ZM333.116 110.819C332.516 110.819 332.036 110.651 331.676 110.315C331.315 109.978 331.135 109.471 331.135 108.794V107.522C331.135 106.859 331.315 106.357 331.676 106.016C332.036 105.67 332.516 105.497 333.116 105.497C333.72 105.497 334.2 105.67 334.556 106.016C334.917 106.357 335.097 106.859 335.097 107.522V108.794C335.097 109.471 334.917 109.978 334.556 110.315C334.2 110.651 333.72 110.819 333.116 110.819ZM333.116 110.059C333.501 110.059 333.784 109.952 333.964 109.737C334.149 109.523 334.242 109.218 334.242 108.823V107.485C334.242 107.086 334.142 106.781 333.942 106.571C333.742 106.362 333.467 106.257 333.116 106.257C332.755 106.257 332.477 106.364 332.282 106.579C332.087 106.793 331.99 107.095 331.99 107.485V108.823C331.99 109.228 332.083 109.535 332.268 109.744C332.458 109.954 332.741 110.059 333.116 110.059Z" fill="#151515"/>
<path d="M3.34919 165.167C2.74968 165.167 2.26957 164.999 1.90889 164.662C1.5482 164.326 1.36786 163.819 1.36786 163.142V161.869C1.36786 161.207 1.5482 160.705 1.90889 160.363C2.26957 160.017 2.74968 159.844 3.34919 159.844C3.95358 159.844 4.43369 160.017 4.7895 160.363C5.15018 160.705 5.33053 161.207 5.33053 161.869V163.142C5.33053 163.819 5.15018 164.326 4.7895 164.662C4.43369 164.999 3.95358 165.167 3.34919 165.167ZM3.34919 164.406C3.73425 164.406 4.01695 164.299 4.19729 164.085C4.38251 163.87 4.47512 163.566 4.47512 163.171V161.833C4.47512 161.433 4.3752 161.129 4.17536 160.919C3.97552 160.709 3.70013 160.605 3.34919 160.605C2.98851 160.605 2.71068 160.712 2.51572 160.926C2.32075 161.141 2.22327 161.443 2.22327 161.833V163.171C2.22327 163.575 2.31588 163.882 2.50109 164.092C2.69119 164.302 2.97389 164.406 3.34919 164.406Z" fill="#151515"/>
</svg>
